<svg width="451" height="52" viewBox="0 0 451 52" fill="none" xmlns="http://www.w3.org/2000/svg">
<rect width="451" height="52" rx="6" fill="black" fill-opacity="0.015"/>
<rect x="0.5" y="0.5" width="450" height="51" rx="5.5" stroke="black" stroke-opacity="0.04"/>
<mask id="path-3-inside-1_513_7173" fill="white">
<path d="M10 0H441V52H10V0Z"/>
</mask>
<path d="M441 51H10V53H441V51Z" fill="black" fill-opacity="0.05" mask="url(#path-3-inside-1_513_7173)"/>
<path d="M11.168 23V13.8403H12.4946L15.6304 21.4829H15.7319L18.8677 13.8403H20.1943V23H19.1279V16.0049H18.5693L19.8516 14.0942L16.1636 23H15.1987L11.5171 14.0942L12.793 16.0049H12.2344V23H11.168ZM24.2695 23.1206C23.8379 23.1206 23.4486 23.0381 23.1016 22.873C22.7588 22.708 22.4858 22.4731 22.2827 22.1685C22.0838 21.8638 21.9844 21.5041 21.9844 21.0894V21.0767C21.9844 20.6704 22.0817 20.3234 22.2764 20.0356C22.471 19.7437 22.7546 19.5151 23.127 19.3501C23.4993 19.1851 23.95 19.0877 24.479 19.0581L26.9927 18.9058V19.7881L24.6123 19.9404C24.0918 19.9701 23.7109 20.078 23.4697 20.2642C23.2327 20.4504 23.1143 20.7127 23.1143 21.0513V21.064C23.1143 21.411 23.2454 21.6818 23.5078 21.8765C23.7702 22.0669 24.1003 22.1621 24.498 22.1621C24.8747 22.1621 25.209 22.0881 25.501 21.9399C25.793 21.7876 26.0215 21.5824 26.1865 21.3242C26.3558 21.0661 26.4404 20.7741 26.4404 20.4482V18.3154C26.4404 17.8923 26.3114 17.5706 26.0532 17.3506C25.7993 17.1263 25.4163 17.0142 24.9043 17.0142C24.4938 17.0142 24.1574 17.0882 23.895 17.2363C23.6326 17.3802 23.457 17.5854 23.3682 17.8521L23.3618 17.8711H22.2573L22.2637 17.833C22.3229 17.4733 22.471 17.1602 22.708 16.8936C22.9492 16.6227 23.2603 16.4132 23.6411 16.2651C24.022 16.1128 24.4557 16.0366 24.9424 16.0366C25.501 16.0366 25.9728 16.1276 26.3579 16.3096C26.7472 16.4915 27.0413 16.7539 27.2402 17.0967C27.4434 17.4352 27.5449 17.8415 27.5449 18.3154V23H26.4404V21.9907H26.3389C26.195 22.2319 26.0194 22.4372 25.812 22.6064C25.6089 22.7757 25.3783 22.9048 25.1201 22.9937C24.862 23.0783 24.5785 23.1206 24.2695 23.1206ZM32.0898 23.1206C31.5143 23.1206 31.0107 22.9746 30.5791 22.6826C30.1475 22.3906 29.8132 21.9801 29.5762 21.4512C29.3392 20.918 29.2207 20.2959 29.2207 19.585V19.5723C29.2207 18.8571 29.3392 18.235 29.5762 17.7061C29.8132 17.1771 30.1453 16.7666 30.5728 16.4746C31.0044 16.1826 31.5101 16.0366 32.0898 16.0366C32.403 16.0366 32.6971 16.0874 32.9722 16.189C33.2515 16.2863 33.499 16.4238 33.7148 16.6016C33.9307 16.7793 34.0999 16.9909 34.2227 17.2363H34.3242V13.4404H35.4287V23H34.3242V21.9082H34.2227C34.083 22.1621 33.9074 22.38 33.6958 22.562C33.4842 22.7397 33.243 22.8773 32.9722 22.9746C32.7013 23.0719 32.4072 23.1206 32.0898 23.1206ZM32.3438 22.1431C32.7585 22.1431 33.116 22.0394 33.4165 21.832C33.717 21.6247 33.9476 21.3306 34.1084 20.9497C34.2692 20.5646 34.3496 20.1097 34.3496 19.585V19.5723C34.3496 19.0433 34.2692 18.5884 34.1084 18.2075C33.9476 17.8267 33.717 17.5326 33.4165 17.3252C33.116 17.1178 32.7585 17.0142 32.3438 17.0142C31.929 17.0142 31.5715 17.1178 31.271 17.3252C30.9748 17.5283 30.7463 17.8203 30.5854 18.2012C30.4289 18.582 30.3506 19.0391 30.3506 19.5723V19.585C30.3506 20.1139 30.4289 20.571 30.5854 20.9561C30.7463 21.3369 30.9748 21.631 31.271 21.8384C31.5715 22.0415 31.929 22.1431 32.3438 22.1431ZM40.3418 23.1206C39.6901 23.1206 39.1294 22.9767 38.6597 22.689C38.1942 22.4012 37.8345 21.995 37.5806 21.4702C37.3309 20.9412 37.2061 20.3192 37.2061 19.604V19.5977C37.2061 18.891 37.3309 18.271 37.5806 17.7378C37.8345 17.2046 38.1921 16.7878 38.6533 16.4873C39.1146 16.1868 39.6541 16.0366 40.272 16.0366C40.894 16.0366 41.4272 16.1805 41.8716 16.4683C42.3201 16.756 42.6629 17.158 42.8999 17.6743C43.1411 18.1864 43.2617 18.783 43.2617 19.4644V19.896H37.7773V19.0137H42.6968L42.1509 19.8198V19.3818C42.1509 18.8444 42.0705 18.4022 41.9097 18.0552C41.7489 17.7082 41.5267 17.45 41.2432 17.2808C40.9596 17.1073 40.6338 17.0205 40.2656 17.0205C39.8975 17.0205 39.5674 17.1115 39.2754 17.2935C38.9876 17.4712 38.7591 17.7357 38.5898 18.0869C38.4206 18.4382 38.3359 18.8698 38.3359 19.3818V19.8198C38.3359 20.3065 38.4185 20.7233 38.5835 21.0703C38.7485 21.4131 38.9834 21.6776 39.2881 21.8638C39.5928 22.0457 39.9525 22.1367 40.3672 22.1367C40.6761 22.1367 40.9448 22.0944 41.1733 22.0098C41.4019 21.9251 41.5902 21.8172 41.7383 21.686C41.8864 21.5549 41.9901 21.4215 42.0493 21.2861L42.0747 21.229H43.1792L43.1665 21.2798C43.1073 21.5125 43.0015 21.7389 42.8491 21.959C42.701 22.1748 42.5085 22.3716 42.2715 22.5493C42.0345 22.7228 41.7531 22.8625 41.4272 22.9683C41.1056 23.0698 40.7438 23.1206 40.3418 23.1206ZM52.0342 23.1206C51.7168 23.1206 51.4227 23.0719 51.1519 22.9746C50.881 22.8773 50.6398 22.7397 50.4282 22.562C50.2166 22.38 50.041 22.1621 49.9014 21.9082H49.7998V23H48.6953V13.4404H49.7998V17.2363H49.9014C50.0283 16.9909 50.1976 16.7793 50.4092 16.6016C50.625 16.4238 50.8704 16.2863 51.1455 16.189C51.4248 16.0874 51.721 16.0366 52.0342 16.0366C52.6139 16.0366 53.1175 16.1826 53.5449 16.4746C53.9766 16.7666 54.3109 17.1771 54.5479 17.7061C54.7848 18.235 54.9033 18.8571 54.9033 19.5723V19.585C54.9033 20.2959 54.7848 20.918 54.5479 21.4512C54.3109 21.9801 53.9766 22.3906 53.5449 22.6826C53.1175 22.9746 52.6139 23.1206 52.0342 23.1206ZM51.7803 22.1431C52.1992 22.1431 52.5568 22.0415 52.853 21.8384C53.1493 21.631 53.3757 21.3369 53.5322 20.9561C53.693 20.571 53.7734 20.1139 53.7734 19.585V19.5723C53.7734 19.0391 53.693 18.582 53.5322 18.2012C53.3757 17.8203 53.1493 17.5283 52.853 17.3252C52.5568 17.1178 52.1992 17.0142 51.7803 17.0142C51.3656 17.0142 51.008 17.1178 50.7075 17.3252C50.4071 17.5326 50.1764 17.8267 50.0156 18.2075C49.8548 18.5884 49.7744 19.0433 49.7744 19.5723V19.585C49.7744 20.1097 49.8548 20.5646 50.0156 20.9497C50.1764 21.3306 50.4071 21.6247 50.7075 21.832C51.008 22.0394 51.3656 22.1431 51.7803 22.1431ZM56.9473 25.3994C56.8753 25.3994 56.7949 25.3952 56.7061 25.3867C56.6172 25.3825 56.5347 25.374 56.4585 25.3613V24.4536C56.5262 24.4663 56.6003 24.4748 56.6807 24.479C56.7611 24.4832 56.8394 24.4854 56.9155 24.4854C57.2287 24.4854 57.4847 24.4049 57.6836 24.2441C57.8867 24.0833 58.0496 23.8062 58.1724 23.4126L58.2993 23.0063L55.7666 16.1572H56.9473L59.0547 22.4795L58.6167 21.7876H59.1372L58.6992 22.4795L60.8003 16.1572H61.9619L59.2896 23.4189C59.1034 23.931 58.9066 24.3309 58.6992 24.6187C58.4919 24.9064 58.2485 25.1074 57.9692 25.2217C57.6942 25.3402 57.3535 25.3994 56.9473 25.3994ZM71.0137 23.2158C70.3789 23.2158 69.8055 23.1037 69.2935 22.8794C68.7856 22.6551 68.3498 22.3335 67.9858 21.9146C67.6261 21.4956 67.349 20.992 67.1543 20.4038C66.9596 19.8156 66.8623 19.1554 66.8623 18.4233V18.4106C66.8623 17.4458 67.0337 16.6058 67.3765 15.8906C67.7192 15.1712 68.2017 14.6147 68.8237 14.2212C69.45 13.8234 70.18 13.6245 71.0137 13.6245C71.6908 13.6245 72.2938 13.7451 72.8228 13.9863C73.356 14.2233 73.7939 14.5576 74.1367 14.9893C74.4837 15.4209 74.7165 15.9266 74.835 16.5063L74.8477 16.5698H73.6924L73.6733 16.5063C73.4871 15.9139 73.1676 15.4611 72.7148 15.1479C72.262 14.8348 71.695 14.6782 71.0137 14.6782C70.4085 14.6782 69.8817 14.8327 69.4331 15.1416C68.9888 15.4463 68.6439 15.8779 68.3984 16.4365C68.153 16.9951 68.0303 17.6532 68.0303 18.4106V18.4233C68.0303 18.9989 68.098 19.5173 68.2334 19.9785C68.373 20.4398 68.5719 20.8333 68.8301 21.1592C69.0924 21.4808 69.4077 21.7284 69.7759 21.9019C70.144 22.0754 70.5588 22.1621 71.02 22.1621C71.5659 22.1621 72.0441 22.0542 72.4546 21.8384C72.8693 21.6183 73.1909 21.3136 73.4194 20.9243C73.6479 20.535 73.7622 20.0822 73.7622 19.5659V19.3438H71.1914V18.3408H74.9048V19.458C74.9048 20.0208 74.8117 20.5329 74.6255 20.9941C74.4435 21.4554 74.1812 21.8532 73.8384 22.1875C73.4956 22.5176 73.0851 22.7715 72.6069 22.9492C72.1287 23.127 71.5977 23.2158 71.0137 23.2158ZM78.6689 23.1206C78.2373 23.1206 77.848 23.0381 77.501 22.873C77.1582 22.708 76.8853 22.4731 76.6821 22.1685C76.4832 21.8638 76.3838 21.5041 76.3838 21.0894V21.0767C76.3838 20.6704 76.4811 20.3234 76.6758 20.0356C76.8704 19.7437 77.154 19.5151 77.5264 19.3501C77.8988 19.1851 78.3494 19.0877 78.8784 19.0581L81.3921 18.9058V19.7881L79.0117 19.9404C78.4912 19.9701 78.1104 20.078 77.8691 20.2642C77.6322 20.4504 77.5137 20.7127 77.5137 21.0513V21.064C77.5137 21.411 77.6449 21.6818 77.9072 21.8765C78.1696 22.0669 78.4997 22.1621 78.8975 22.1621C79.2741 22.1621 79.6084 22.0881 79.9004 21.9399C80.1924 21.7876 80.4209 21.5824 80.5859 21.3242C80.7552 21.0661 80.8398 20.7741 80.8398 20.4482V18.3154C80.8398 17.8923 80.7108 17.5706 80.4526 17.3506C80.1987 17.1263 79.8158 17.0142 79.3037 17.0142C78.8932 17.0142 78.5568 17.0882 78.2944 17.2363C78.0321 17.3802 77.8564 17.5854 77.7676 17.8521L77.7612 17.8711H76.6567L76.6631 17.833C76.7223 17.4733 76.8704 17.1602 77.1074 16.8936C77.3486 16.6227 77.6597 16.4132 78.0405 16.2651C78.4214 16.1128 78.8551 16.0366 79.3418 16.0366C79.9004 16.0366 80.3722 16.1276 80.7573 16.3096C81.1466 16.4915 81.4408 16.7539 81.6396 17.0967C81.8428 17.4352 81.9443 17.8415 81.9443 18.3154V23H80.8398V21.9907H80.7383C80.5944 22.2319 80.4188 22.4372 80.2114 22.6064C80.0083 22.7757 79.7777 22.9048 79.5195 22.9937C79.2614 23.0783 78.9779 23.1206 78.6689 23.1206ZM83.9629 23V16.1572H85.0674V17.1982H85.1689C85.3213 16.8301 85.554 16.5444 85.8672 16.3413C86.1846 16.1382 86.5675 16.0366 87.0161 16.0366C87.325 16.0366 87.6022 16.0874 87.8477 16.189C88.0931 16.2905 88.3047 16.4323 88.4824 16.6143C88.6602 16.792 88.8019 16.9993 88.9077 17.2363H89.0093C89.132 16.9951 89.297 16.7856 89.5044 16.6079C89.7118 16.4259 89.9508 16.2863 90.2217 16.189C90.4967 16.0874 90.7909 16.0366 91.104 16.0366C91.5695 16.0366 91.9631 16.1234 92.2847 16.2969C92.6105 16.4704 92.8581 16.7243 93.0273 17.0586C93.1966 17.3887 93.2812 17.7928 93.2812 18.271V23H92.1768V18.5249C92.1768 18.1864 92.1239 17.9071 92.0181 17.687C91.9165 17.4627 91.7599 17.2956 91.5483 17.1855C91.3368 17.0713 91.0701 17.0142 90.7485 17.0142C90.4312 17.0142 90.154 17.0861 89.917 17.23C89.68 17.3739 89.4959 17.5664 89.3647 17.8076C89.2336 18.0446 89.168 18.3091 89.168 18.6011V23H88.0635V18.3535C88.0635 18.0827 88.0042 17.8478 87.8857 17.6489C87.7715 17.4458 87.6064 17.2892 87.3906 17.1792C87.179 17.0692 86.9294 17.0142 86.6416 17.0142C86.3454 17.0142 86.0767 17.0924 85.8354 17.249C85.5985 17.4056 85.4102 17.6172 85.2705 17.8838C85.1351 18.1462 85.0674 18.4382 85.0674 18.7598V23H83.9629ZM95.2998 23V16.1572H96.4043V23H95.2998ZM95.8584 14.8369C95.651 14.8369 95.4712 14.7629 95.3188 14.6147C95.1707 14.4624 95.0967 14.2826 95.0967 14.0752C95.0967 13.8636 95.1707 13.6838 95.3188 13.5356C95.4712 13.3875 95.651 13.3135 95.8584 13.3135C96.07 13.3135 96.2498 13.3875 96.3979 13.5356C96.5461 13.6838 96.6201 13.8636 96.6201 14.0752C96.6201 14.2826 96.5461 14.4624 96.3979 14.6147C96.2498 14.7629 96.07 14.8369 95.8584 14.8369ZM100.917 23.0508C100.215 23.0508 99.7051 22.909 99.3877 22.6255C99.0745 22.342 98.918 21.8743 98.918 21.2227V17.0713H97.8389V16.1572H98.918V14.3862H100.061V16.1572H101.559V17.0713H100.061V20.9434C100.061 21.3454 100.137 21.6353 100.289 21.813C100.441 21.9865 100.695 22.0732 101.051 22.0732C101.148 22.0732 101.231 22.0711 101.298 22.0669C101.37 22.0627 101.457 22.0563 101.559 22.0479V22.9873C101.453 23.0042 101.347 23.019 101.241 23.0317C101.135 23.0444 101.028 23.0508 100.917 23.0508ZM103.272 23V13.4404H104.377V17.1855H104.479C104.652 16.8216 104.902 16.5402 105.228 16.3413C105.553 16.1382 105.968 16.0366 106.472 16.0366C106.984 16.0366 107.417 16.1361 107.773 16.335C108.128 16.5296 108.399 16.8153 108.585 17.1919C108.772 17.5685 108.865 18.0277 108.865 18.5693V23H107.76V18.8359C107.76 18.2181 107.629 17.7611 107.367 17.4648C107.109 17.1644 106.707 17.0142 106.161 17.0142C105.797 17.0142 105.481 17.0924 105.215 17.249C104.948 17.4056 104.741 17.6278 104.593 17.9155C104.449 18.2033 104.377 18.5482 104.377 18.9502V23H103.272ZM112.743 23.1206C112.312 23.1206 111.922 23.0381 111.575 22.873C111.232 22.708 110.959 22.4731 110.756 22.1685C110.557 21.8638 110.458 21.5041 110.458 21.0894V21.0767C110.458 20.6704 110.555 20.3234 110.75 20.0356C110.945 19.7437 111.228 19.5151 111.601 19.3501C111.973 19.1851 112.424 19.0877 112.953 19.0581L115.466 18.9058V19.7881L113.086 19.9404C112.565 19.9701 112.185 20.078 111.943 20.2642C111.706 20.4504 111.588 20.7127 111.588 21.0513V21.064C111.588 21.411 111.719 21.6818 111.981 21.8765C112.244 22.0669 112.574 22.1621 112.972 22.1621C113.348 22.1621 113.683 22.0881 113.975 21.9399C114.267 21.7876 114.495 21.5824 114.66 21.3242C114.829 21.0661 114.914 20.7741 114.914 20.4482V18.3154C114.914 17.8923 114.785 17.5706 114.527 17.3506C114.273 17.1263 113.89 17.0142 113.378 17.0142C112.967 17.0142 112.631 17.0882 112.369 17.2363C112.106 17.3802 111.931 17.5854 111.842 17.8521L111.835 17.8711H110.731L110.737 17.833C110.797 17.4733 110.945 17.1602 111.182 16.8936C111.423 16.6227 111.734 16.4132 112.115 16.2651C112.496 16.1128 112.929 16.0366 113.416 16.0366C113.975 16.0366 114.446 16.1276 114.832 16.3096C115.221 16.4915 115.515 16.7539 115.714 17.0967C115.917 17.4352 116.019 17.8415 116.019 18.3154V23H114.914V21.9907H114.812C114.669 22.2319 114.493 22.4372 114.286 22.6064C114.083 22.7757 113.852 22.9048 113.594 22.9937C113.336 23.0783 113.052 23.1206 112.743 23.1206ZM117.758 25.3296L118.31 21.7178H119.573L118.577 25.3296H117.758ZM125.692 23V13.8403H126.835V17.8013H131.862V13.8403H133.005V23H131.862V18.8296H126.835V23H125.692ZM137.994 23.1206C137.342 23.1206 136.782 22.9767 136.312 22.689C135.847 22.4012 135.487 21.995 135.233 21.4702C134.983 20.9412 134.858 20.3192 134.858 19.604V19.5977C134.858 18.891 134.983 18.271 135.233 17.7378C135.487 17.2046 135.844 16.7878 136.306 16.4873C136.767 16.1868 137.306 16.0366 137.924 16.0366C138.546 16.0366 139.08 16.1805 139.524 16.4683C139.972 16.756 140.315 17.158 140.552 17.6743C140.793 18.1864 140.914 18.783 140.914 19.4644V19.896H135.43V19.0137H140.349L139.803 19.8198V19.3818C139.803 18.8444 139.723 18.4022 139.562 18.0552C139.401 17.7082 139.179 17.45 138.896 17.2808C138.612 17.1073 138.286 17.0205 137.918 17.0205C137.55 17.0205 137.22 17.1115 136.928 17.2935C136.64 17.4712 136.411 17.7357 136.242 18.0869C136.073 18.4382 135.988 18.8698 135.988 19.3818V19.8198C135.988 20.3065 136.071 20.7233 136.236 21.0703C136.401 21.4131 136.636 21.6776 136.94 21.8638C137.245 22.0457 137.605 22.1367 138.02 22.1367C138.328 22.1367 138.597 22.0944 138.826 22.0098C139.054 21.9251 139.243 21.8172 139.391 21.686C139.539 21.5549 139.642 21.4215 139.702 21.2861L139.727 21.229H140.832L140.819 21.2798C140.76 21.5125 140.654 21.7389 140.501 21.959C140.353 22.1748 140.161 22.3716 139.924 22.5493C139.687 22.7228 139.405 22.8625 139.08 22.9683C138.758 23.0698 138.396 23.1206 137.994 23.1206ZM144.977 23.1206C144.469 23.1206 144.02 23.0444 143.631 22.8921C143.242 22.7355 142.928 22.5176 142.691 22.2383C142.459 21.959 142.321 21.631 142.279 21.2544H143.409C143.502 21.5379 143.684 21.7664 143.955 21.9399C144.225 22.1134 144.579 22.2002 145.015 22.2002C145.324 22.2002 145.594 22.1558 145.827 22.0669C146.064 21.9738 146.25 21.849 146.386 21.6924C146.521 21.5316 146.589 21.3475 146.589 21.1401V21.1274C146.589 20.8947 146.496 20.6979 146.31 20.5371C146.123 20.3721 145.819 20.2388 145.396 20.1372L144.335 19.8833C143.908 19.7817 143.557 19.6506 143.282 19.4897C143.007 19.3247 142.804 19.1237 142.672 18.8867C142.541 18.6455 142.476 18.362 142.476 18.0361V18.0298C142.476 17.6489 142.586 17.3083 142.806 17.0078C143.03 16.7074 143.335 16.4704 143.72 16.2969C144.105 16.1234 144.539 16.0366 145.021 16.0366C145.499 16.0366 145.922 16.1128 146.291 16.2651C146.663 16.4132 146.961 16.6248 147.186 16.8999C147.414 17.175 147.554 17.4987 147.604 17.8711H146.519C146.447 17.6003 146.282 17.3802 146.024 17.2109C145.766 17.0417 145.429 16.957 145.015 16.957C144.744 16.957 144.503 17.0015 144.291 17.0903C144.079 17.175 143.912 17.2935 143.79 17.4458C143.667 17.5981 143.605 17.7759 143.605 17.979V17.9917C143.605 18.144 143.646 18.2795 143.726 18.3979C143.806 18.5164 143.931 18.6201 144.101 18.709C144.27 18.7979 144.488 18.8761 144.754 18.9438L145.808 19.1978C146.451 19.3543 146.93 19.5786 147.243 19.8706C147.56 20.1626 147.719 20.554 147.719 21.0449V21.0576C147.719 21.4639 147.598 21.8236 147.357 22.1367C147.116 22.4456 146.788 22.6868 146.373 22.8604C145.963 23.0339 145.497 23.1206 144.977 23.1206ZM149.496 23V13.4404H150.601V17.1855H150.702C150.876 16.8216 151.125 16.5402 151.451 16.3413C151.777 16.1382 152.192 16.0366 152.695 16.0366C153.207 16.0366 153.641 16.1361 153.997 16.335C154.352 16.5296 154.623 16.8153 154.809 17.1919C154.995 17.5685 155.088 18.0277 155.088 18.5693V23H153.984V18.8359C153.984 18.2181 153.853 17.7611 153.59 17.4648C153.332 17.1644 152.93 17.0142 152.384 17.0142C152.02 17.0142 151.705 17.0924 151.438 17.249C151.172 17.4056 150.965 17.6278 150.816 17.9155C150.673 18.2033 150.601 18.5482 150.601 18.9502V23H149.496ZM158.967 23.1206C158.535 23.1206 158.146 23.0381 157.799 22.873C157.456 22.708 157.183 22.4731 156.98 22.1685C156.781 21.8638 156.682 21.5041 156.682 21.0894V21.0767C156.682 20.6704 156.779 20.3234 156.974 20.0356C157.168 19.7437 157.452 19.5151 157.824 19.3501C158.197 19.1851 158.647 19.0877 159.176 19.0581L161.69 18.9058V19.7881L159.31 19.9404C158.789 19.9701 158.408 20.078 158.167 20.2642C157.93 20.4504 157.812 20.7127 157.812 21.0513V21.064C157.812 21.411 157.943 21.6818 158.205 21.8765C158.467 22.0669 158.798 22.1621 159.195 22.1621C159.572 22.1621 159.906 22.0881 160.198 21.9399C160.49 21.7876 160.719 21.5824 160.884 21.3242C161.053 21.0661 161.138 20.7741 161.138 20.4482V18.3154C161.138 17.8923 161.009 17.5706 160.75 17.3506C160.497 17.1263 160.114 17.0142 159.602 17.0142C159.191 17.0142 158.855 17.0882 158.592 17.2363C158.33 17.3802 158.154 17.5854 158.065 17.8521L158.059 17.8711H156.955L156.961 17.833C157.02 17.4733 157.168 17.1602 157.405 16.8936C157.646 16.6227 157.958 16.4132 158.338 16.2651C158.719 16.1128 159.153 16.0366 159.64 16.0366C160.198 16.0366 160.67 16.1276 161.055 16.3096C161.444 16.4915 161.739 16.7539 161.938 17.0967C162.141 17.4352 162.242 17.8415 162.242 18.3154V23H161.138V21.9907H161.036C160.892 22.2319 160.717 22.4372 160.509 22.6064C160.306 22.7757 160.076 22.9048 159.817 22.9937C159.559 23.0783 159.276 23.1206 158.967 23.1206ZM164.261 23V16.1572H165.365V17.1855H165.467C165.64 16.8216 165.89 16.5402 166.216 16.3413C166.542 16.1382 166.956 16.0366 167.46 16.0366C168.23 16.0366 168.82 16.2567 169.231 16.6968C169.646 17.1326 169.853 17.7568 169.853 18.5693V23H168.749V18.8359C168.749 18.2181 168.617 17.7611 168.355 17.4648C168.097 17.1644 167.695 17.0142 167.149 17.0142C166.785 17.0142 166.47 17.0924 166.203 17.249C165.937 17.4056 165.729 17.6278 165.581 17.9155C165.437 18.2033 165.365 18.5482 165.365 18.9502V23H164.261ZM171.878 23V16.1572H172.982V23H171.878ZM172.437 14.8369C172.229 14.8369 172.049 14.7629 171.897 14.6147C171.749 14.4624 171.675 14.2826 171.675 14.0752C171.675 13.8636 171.749 13.6838 171.897 13.5356C172.049 13.3875 172.229 13.3135 172.437 13.3135C172.648 13.3135 172.828 13.3875 172.976 13.5356C173.124 13.6838 173.198 13.8636 173.198 14.0752C173.198 14.2826 173.124 14.4624 172.976 14.6147C172.828 14.7629 172.648 14.8369 172.437 14.8369ZM174.785 25.3296L175.337 21.7178H176.601L175.604 25.3296H174.785ZM182.72 23V13.8403H183.862V17.8013H188.89V13.8403H190.032V23H188.89V18.8296H183.862V23H182.72ZM192.254 23V16.1572H193.358V23H192.254ZM192.812 14.8369C192.605 14.8369 192.425 14.7629 192.273 14.6147C192.125 14.4624 192.051 14.2826 192.051 14.0752C192.051 13.8636 192.125 13.6838 192.273 13.5356C192.425 13.3875 192.605 13.3135 192.812 13.3135C193.024 13.3135 193.204 13.3875 193.352 13.5356C193.5 13.6838 193.574 13.8636 193.574 14.0752C193.574 14.2826 193.5 14.4624 193.352 14.6147C193.204 14.7629 193.024 14.8369 192.812 14.8369ZM195.44 23V16.1572H196.545V17.1982H196.646C196.799 16.8301 197.032 16.5444 197.345 16.3413C197.662 16.1382 198.045 16.0366 198.494 16.0366C198.803 16.0366 199.08 16.0874 199.325 16.189C199.571 16.2905 199.782 16.4323 199.96 16.6143C200.138 16.792 200.279 16.9993 200.385 17.2363H200.487C200.61 16.9951 200.775 16.7856 200.982 16.6079C201.189 16.4259 201.428 16.2863 201.699 16.189C201.974 16.0874 202.268 16.0366 202.582 16.0366C203.047 16.0366 203.441 16.1234 203.762 16.2969C204.088 16.4704 204.336 16.7243 204.505 17.0586C204.674 17.3887 204.759 17.7928 204.759 18.271V23H203.654V18.5249C203.654 18.1864 203.601 17.9071 203.496 17.687C203.394 17.4627 203.237 17.2956 203.026 17.1855C202.814 17.0713 202.548 17.0142 202.226 17.0142C201.909 17.0142 201.632 17.0861 201.395 17.23C201.158 17.3739 200.973 17.5664 200.842 17.8076C200.711 18.0446 200.646 18.3091 200.646 18.6011V23H199.541V18.3535C199.541 18.0827 199.482 17.8478 199.363 17.6489C199.249 17.4458 199.084 17.2892 198.868 17.1792C198.657 17.0692 198.407 17.0142 198.119 17.0142C197.823 17.0142 197.554 17.0924 197.313 17.249C197.076 17.4056 196.888 17.6172 196.748 17.8838C196.613 18.1462 196.545 18.4382 196.545 18.7598V23H195.44ZM208.631 23.1206C208.199 23.1206 207.81 23.0381 207.463 22.873C207.12 22.708 206.847 22.4731 206.644 22.1685C206.445 21.8638 206.346 21.5041 206.346 21.0894V21.0767C206.346 20.6704 206.443 20.3234 206.638 20.0356C206.832 19.7437 207.116 19.5151 207.488 19.3501C207.861 19.1851 208.311 19.0877 208.84 19.0581L211.354 18.9058V19.7881L208.974 19.9404C208.453 19.9701 208.072 20.078 207.831 20.2642C207.594 20.4504 207.476 20.7127 207.476 21.0513V21.064C207.476 21.411 207.607 21.6818 207.869 21.8765C208.132 22.0669 208.462 22.1621 208.859 22.1621C209.236 22.1621 209.57 22.0881 209.862 21.9399C210.154 21.7876 210.383 21.5824 210.548 21.3242C210.717 21.0661 210.802 20.7741 210.802 20.4482V18.3154C210.802 17.8923 210.673 17.5706 210.415 17.3506C210.161 17.1263 209.778 17.0142 209.266 17.0142C208.855 17.0142 208.519 17.0882 208.256 17.2363C207.994 17.3802 207.818 17.5854 207.729 17.8521L207.723 17.8711H206.619L206.625 17.833C206.684 17.4733 206.832 17.1602 207.069 16.8936C207.311 16.6227 207.622 16.4132 208.002 16.2651C208.383 16.1128 208.817 16.0366 209.304 16.0366C209.862 16.0366 210.334 16.1276 210.719 16.3096C211.109 16.4915 211.403 16.7539 211.602 17.0967C211.805 17.4352 211.906 17.8415 211.906 18.3154V23H210.802V21.9907H210.7C210.556 22.2319 210.381 22.4372 210.173 22.6064C209.97 22.7757 209.74 22.9048 209.481 22.9937C209.223 23.0783 208.94 23.1206 208.631 23.1206ZM216.273 23.1206C215.766 23.1206 215.317 23.0444 214.928 22.8921C214.538 22.7355 214.225 22.5176 213.988 22.2383C213.756 21.959 213.618 21.631 213.576 21.2544H214.706C214.799 21.5379 214.981 21.7664 215.251 21.9399C215.522 22.1134 215.876 22.2002 216.312 22.2002C216.62 22.2002 216.891 22.1558 217.124 22.0669C217.361 21.9738 217.547 21.849 217.683 21.6924C217.818 21.5316 217.886 21.3475 217.886 21.1401V21.1274C217.886 20.8947 217.793 20.6979 217.606 20.5371C217.42 20.3721 217.116 20.2388 216.692 20.1372L215.632 19.8833C215.205 19.7817 214.854 19.6506 214.579 19.4897C214.304 19.3247 214.1 19.1237 213.969 18.8867C213.838 18.6455 213.772 18.362 213.772 18.0361V18.0298C213.772 17.6489 213.882 17.3083 214.103 17.0078C214.327 16.7074 214.632 16.4704 215.017 16.2969C215.402 16.1234 215.835 16.0366 216.318 16.0366C216.796 16.0366 217.219 16.1128 217.587 16.2651C217.96 16.4132 218.258 16.6248 218.482 16.8999C218.711 17.175 218.851 17.4987 218.901 17.8711H217.816C217.744 17.6003 217.579 17.3802 217.321 17.2109C217.063 17.0417 216.726 16.957 216.312 16.957C216.041 16.957 215.799 17.0015 215.588 17.0903C215.376 17.175 215.209 17.2935 215.086 17.4458C214.964 17.5981 214.902 17.7759 214.902 17.979V17.9917C214.902 18.144 214.943 18.2795 215.023 18.3979C215.103 18.5164 215.228 18.6201 215.397 18.709C215.567 18.7979 215.785 18.8761 216.051 18.9438L217.105 19.1978C217.748 19.3543 218.226 19.5786 218.54 19.8706C218.857 20.1626 219.016 20.554 219.016 21.0449V21.0576C219.016 21.4639 218.895 21.8236 218.654 22.1367C218.413 22.4456 218.085 22.6868 217.67 22.8604C217.259 23.0339 216.794 23.1206 216.273 23.1206ZM220.793 23V13.4404H221.897V17.1855H221.999C222.173 16.8216 222.422 16.5402 222.748 16.3413C223.074 16.1382 223.489 16.0366 223.992 16.0366C224.504 16.0366 224.938 16.1361 225.293 16.335C225.649 16.5296 225.92 16.8153 226.106 17.1919C226.292 17.5685 226.385 18.0277 226.385 18.5693V23H225.281V18.8359C225.281 18.2181 225.15 17.7611 224.887 17.4648C224.629 17.1644 224.227 17.0142 223.681 17.0142C223.317 17.0142 223.002 17.0924 222.735 17.249C222.469 17.4056 222.261 17.6278 222.113 17.9155C221.969 18.2033 221.897 18.5482 221.897 18.9502V23H220.793ZM230.264 23.1206C229.832 23.1206 229.443 23.0381 229.096 22.873C228.753 22.708 228.48 22.4731 228.277 22.1685C228.078 21.8638 227.979 21.5041 227.979 21.0894V21.0767C227.979 20.6704 228.076 20.3234 228.271 20.0356C228.465 19.7437 228.749 19.5151 229.121 19.3501C229.493 19.1851 229.944 19.0877 230.473 19.0581L232.987 18.9058V19.7881L230.606 19.9404C230.086 19.9701 229.705 20.078 229.464 20.2642C229.227 20.4504 229.108 20.7127 229.108 21.0513V21.064C229.108 21.411 229.24 21.6818 229.502 21.8765C229.764 22.0669 230.094 22.1621 230.492 22.1621C230.869 22.1621 231.203 22.0881 231.495 21.9399C231.787 21.7876 232.016 21.5824 232.181 21.3242C232.35 21.0661 232.435 20.7741 232.435 20.4482V18.3154C232.435 17.8923 232.306 17.5706 232.047 17.3506C231.793 17.1263 231.41 17.0142 230.898 17.0142C230.488 17.0142 230.152 17.0882 229.889 17.2363C229.627 17.3802 229.451 17.5854 229.362 17.8521L229.356 17.8711H228.251L228.258 17.833C228.317 17.4733 228.465 17.1602 228.702 16.8936C228.943 16.6227 229.254 16.4132 229.635 16.2651C230.016 16.1128 230.45 16.0366 230.937 16.0366C231.495 16.0366 231.967 16.1276 232.352 16.3096C232.741 16.4915 233.035 16.7539 233.234 17.0967C233.438 17.4352 233.539 17.8415 233.539 18.3154V23H232.435V21.9907H232.333C232.189 22.2319 232.014 22.4372 231.806 22.6064C231.603 22.7757 231.372 22.9048 231.114 22.9937C230.856 23.0783 230.573 23.1206 230.264 23.1206ZM235.278 25.3296L235.831 21.7178H237.094L236.097 25.3296H235.278ZM243.213 23V13.8403H246.71C247.299 13.8403 247.811 13.9546 248.247 14.1831C248.687 14.4074 249.027 14.7227 249.269 15.1289C249.51 15.5352 249.63 16.0133 249.63 16.5635V16.5762C249.63 17.2109 249.467 17.7611 249.142 18.2266C248.816 18.6921 248.365 19.0158 247.79 19.1978L249.91 23H248.57L246.609 19.3755C246.6 19.3755 246.59 19.3755 246.577 19.3755C246.564 19.3755 246.554 19.3755 246.545 19.3755H244.355V23H243.213ZM244.355 18.3599H246.609C247.197 18.3599 247.65 18.2096 247.967 17.9092C248.289 17.6045 248.45 17.1729 248.45 16.6143V16.6016C248.45 16.0557 248.283 15.6283 247.948 15.3193C247.614 15.0104 247.151 14.856 246.558 14.856H244.355V18.3599ZM253.445 23.1206C253.014 23.1206 252.624 23.0381 252.277 22.873C251.935 22.708 251.662 22.4731 251.458 22.1685C251.26 21.8638 251.16 21.5041 251.16 21.0894V21.0767C251.16 20.6704 251.257 20.3234 251.452 20.0356C251.647 19.7437 251.93 19.5151 252.303 19.3501C252.675 19.1851 253.126 19.0877 253.655 19.0581L256.168 18.9058V19.7881L253.788 19.9404C253.268 19.9701 252.887 20.078 252.646 20.2642C252.409 20.4504 252.29 20.7127 252.29 21.0513V21.064C252.29 21.411 252.421 21.6818 252.684 21.8765C252.946 22.0669 253.276 22.1621 253.674 22.1621C254.05 22.1621 254.385 22.0881 254.677 21.9399C254.969 21.7876 255.197 21.5824 255.362 21.3242C255.532 21.0661 255.616 20.7741 255.616 20.4482V18.3154C255.616 17.8923 255.487 17.5706 255.229 17.3506C254.975 17.1263 254.592 17.0142 254.08 17.0142C253.67 17.0142 253.333 17.0882 253.071 17.2363C252.808 17.3802 252.633 17.5854 252.544 17.8521L252.538 17.8711H251.433L251.439 17.833C251.499 17.4733 251.647 17.1602 251.884 16.8936C252.125 16.6227 252.436 16.4132 252.817 16.2651C253.198 16.1128 253.632 16.0366 254.118 16.0366C254.677 16.0366 255.149 16.1276 255.534 16.3096C255.923 16.4915 256.217 16.7539 256.416 17.0967C256.619 17.4352 256.721 17.8415 256.721 18.3154V23H255.616V21.9907H255.515C255.371 22.2319 255.195 22.4372 254.988 22.6064C254.785 22.7757 254.554 22.9048 254.296 22.9937C254.038 23.0783 253.754 23.1206 253.445 23.1206ZM261.088 23.1206C260.58 23.1206 260.132 23.0444 259.742 22.8921C259.353 22.7355 259.04 22.5176 258.803 22.2383C258.57 21.959 258.432 21.631 258.39 21.2544H259.52C259.613 21.5379 259.795 21.7664 260.066 21.9399C260.337 22.1134 260.69 22.2002 261.126 22.2002C261.435 22.2002 261.706 22.1558 261.938 22.0669C262.175 21.9738 262.362 21.849 262.497 21.6924C262.632 21.5316 262.7 21.3475 262.7 21.1401V21.1274C262.7 20.8947 262.607 20.6979 262.421 20.5371C262.235 20.3721 261.93 20.2388 261.507 20.1372L260.447 19.8833C260.019 19.7817 259.668 19.6506 259.393 19.4897C259.118 19.3247 258.915 19.1237 258.784 18.8867C258.653 18.6455 258.587 18.362 258.587 18.0361V18.0298C258.587 17.6489 258.697 17.3083 258.917 17.0078C259.141 16.7074 259.446 16.4704 259.831 16.2969C260.216 16.1234 260.65 16.0366 261.132 16.0366C261.611 16.0366 262.034 16.1128 262.402 16.2651C262.774 16.4132 263.073 16.6248 263.297 16.8999C263.525 17.175 263.665 17.4987 263.716 17.8711H262.63C262.558 17.6003 262.393 17.3802 262.135 17.2109C261.877 17.0417 261.541 16.957 261.126 16.957C260.855 16.957 260.614 17.0015 260.402 17.0903C260.191 17.175 260.024 17.2935 259.901 17.4458C259.778 17.5981 259.717 17.7759 259.717 17.979V17.9917C259.717 18.144 259.757 18.2795 259.837 18.3979C259.918 18.5164 260.043 18.6201 260.212 18.709C260.381 18.7979 260.599 18.8761 260.866 18.9438L261.919 19.1978C262.563 19.3543 263.041 19.5786 263.354 19.8706C263.671 20.1626 263.83 20.554 263.83 21.0449V21.0576C263.83 21.4639 263.709 21.8236 263.468 22.1367C263.227 22.4456 262.899 22.6868 262.484 22.8604C262.074 23.0339 261.608 23.1206 261.088 23.1206ZM265.607 23V13.4404H266.712V17.1855H266.813C266.987 16.8216 267.237 16.5402 267.562 16.3413C267.888 16.1382 268.303 16.0366 268.807 16.0366C269.319 16.0366 269.752 16.1361 270.108 16.335C270.463 16.5296 270.734 16.8153 270.92 17.1919C271.107 17.5685 271.2 18.0277 271.2 18.5693V23H270.095V18.8359C270.095 18.2181 269.964 17.7611 269.702 17.4648C269.444 17.1644 269.042 17.0142 268.496 17.0142C268.132 17.0142 267.816 17.0924 267.55 17.249C267.283 17.4056 267.076 17.6278 266.928 17.9155C266.784 18.2033 266.712 18.5482 266.712 18.9502V23H265.607ZM273.199 23V16.1572H274.304V17.1982H274.405C274.558 16.8301 274.79 16.5444 275.104 16.3413C275.421 16.1382 275.804 16.0366 276.252 16.0366C276.561 16.0366 276.839 16.0874 277.084 16.189C277.329 16.2905 277.541 16.4323 277.719 16.6143C277.896 16.792 278.038 16.9993 278.144 17.2363H278.246C278.368 16.9951 278.533 16.7856 278.741 16.6079C278.948 16.4259 279.187 16.2863 279.458 16.189C279.733 16.0874 280.027 16.0366 280.34 16.0366C280.806 16.0366 281.199 16.1234 281.521 16.2969C281.847 16.4704 282.094 16.7243 282.264 17.0586C282.433 17.3887 282.518 17.7928 282.518 18.271V23H281.413V18.5249C281.413 18.1864 281.36 17.9071 281.254 17.687C281.153 17.4627 280.996 17.2956 280.785 17.1855C280.573 17.0713 280.306 17.0142 279.985 17.0142C279.667 17.0142 279.39 17.0861 279.153 17.23C278.916 17.3739 278.732 17.5664 278.601 17.8076C278.47 18.0446 278.404 18.3091 278.404 18.6011V23H277.3V18.3535C277.3 18.0827 277.241 17.8478 277.122 17.6489C277.008 17.4458 276.843 17.2892 276.627 17.1792C276.415 17.0692 276.166 17.0142 275.878 17.0142C275.582 17.0142 275.313 17.0924 275.072 17.249C274.835 17.4056 274.646 17.6172 274.507 17.8838C274.371 18.1462 274.304 18.4382 274.304 18.7598V23H273.199ZM284.536 23V16.1572H285.641V23H284.536ZM285.095 14.8369C284.887 14.8369 284.708 14.7629 284.555 14.6147C284.407 14.4624 284.333 14.2826 284.333 14.0752C284.333 13.8636 284.407 13.6838 284.555 13.5356C284.708 13.3875 284.887 13.3135 285.095 13.3135C285.306 13.3135 285.486 13.3875 285.634 13.5356C285.782 13.6838 285.856 13.8636 285.856 14.0752C285.856 14.2826 285.782 14.4624 285.634 14.6147C285.486 14.7629 285.306 14.8369 285.095 14.8369Z" fill="black" fill-opacity="0.85"/>
<path d="M10.9883 39V31.2495H11.9282L16.3701 37.6196L15.7256 37.2812H16.2197V31.2495H17.1758V39H16.2358L11.7939 32.6514L12.4385 32.9897H11.9443V39H10.9883ZM19.1523 39V31.2495H20.1191V39H19.1523ZM22.5791 39V38.146H24.9746C25.5583 38.146 26.0005 38.0296 26.3013 37.7969C26.6021 37.5641 26.7524 37.2257 26.7524 36.7817V36.771C26.7524 36.4738 26.6826 36.2249 26.543 36.0244C26.4033 35.8239 26.1938 35.6735 25.9146 35.5732C25.6388 35.473 25.2951 35.4229 24.8833 35.4229H22.5791V34.5903H24.6094C25.1966 34.5903 25.637 34.4865 25.9307 34.2788C26.2279 34.0711 26.3765 33.7632 26.3765 33.355V33.3442C26.3765 32.9504 26.2422 32.646 25.9736 32.4312C25.7087 32.2127 25.3363 32.1035 24.8564 32.1035H22.5791V31.2495H25.0605C25.5368 31.2495 25.945 31.3283 26.2852 31.4858C26.6289 31.6434 26.8921 31.8672 27.0747 32.1572C27.2609 32.4437 27.354 32.7839 27.354 33.1777V33.1885C27.354 33.457 27.2931 33.7095 27.1714 33.9458C27.0532 34.1821 26.8939 34.3809 26.6934 34.542C26.4928 34.7031 26.2673 34.807 26.0166 34.8535V34.9395C26.3711 34.9824 26.6772 35.0881 26.9351 35.2563C27.1929 35.4246 27.3916 35.6431 27.5312 35.9116C27.6745 36.1766 27.7461 36.4792 27.7461 36.8193V36.8301C27.7461 37.2812 27.6405 37.6698 27.4292 37.9956C27.2215 38.3179 26.9225 38.5667 26.5322 38.7422C26.1419 38.9141 25.6711 39 25.1196 39H22.5791ZM22.0957 39V31.2495H23.0625V39H22.0957ZM29.3252 39V31.2495H30.4478L33.1011 37.7163H33.187L35.8403 31.2495H36.9629V39H36.0605V33.0811H35.5879L36.6729 31.4644L33.5522 39H32.7358L29.6206 31.4644L30.7002 33.0811H30.2275V39H29.3252ZM41.8345 36.3145V35.4443H45.4438V36.3145H41.8345ZM51.1748 36.4111L51.1211 35.0146H51.3682L54.7627 31.2495H55.9766L52.77 34.7139L52.3188 35.1489L51.1748 36.4111ZM50.3154 39V31.2495H51.2822V39H50.3154ZM55.0098 39L52.1147 35.1382L52.7808 34.4668L56.2612 39H55.0098ZM58.9307 39.1021C58.5654 39.1021 58.236 39.0322 57.9424 38.8926C57.6523 38.7529 57.4214 38.5542 57.2495 38.2964C57.0812 38.0386 56.9971 37.7342 56.9971 37.3833V37.3726C56.9971 37.0288 57.0794 36.7352 57.2441 36.4917C57.4089 36.2446 57.6488 36.0513 57.9639 35.9116C58.279 35.772 58.6603 35.6896 59.1079 35.6646L61.2349 35.5356V36.2822L59.2207 36.4111C58.7803 36.4362 58.458 36.5275 58.2539 36.6851C58.0534 36.8426 57.9531 37.0646 57.9531 37.3511V37.3618C57.9531 37.6554 58.0641 37.8846 58.2861 38.0493C58.5081 38.2104 58.7874 38.291 59.124 38.291C59.4427 38.291 59.7256 38.2284 59.9727 38.103C60.2197 37.9741 60.4131 37.8005 60.5527 37.582C60.696 37.3636 60.7676 37.1165 60.7676 36.8408V35.0361C60.7676 34.6781 60.6584 34.4059 60.4399 34.2197C60.2251 34.0299 59.901 33.9351 59.4678 33.9351C59.1204 33.9351 58.8358 33.9977 58.6138 34.123C58.3918 34.2448 58.2432 34.4185 58.168 34.644L58.1626 34.6602H57.228L57.2334 34.6279C57.2835 34.3236 57.4089 34.0586 57.6094 33.833C57.8135 33.6038 58.0767 33.4266 58.3989 33.3013C58.7212 33.1724 59.0882 33.1079 59.5 33.1079C59.9727 33.1079 60.3719 33.1849 60.6978 33.3389C61.0272 33.4928 61.276 33.7148 61.4443 34.0049C61.6162 34.2913 61.7021 34.6351 61.7021 35.0361V39H60.7676V38.146H60.6816C60.5599 38.3501 60.4113 38.5238 60.2358 38.667C60.064 38.8102 59.8688 38.9194 59.6504 38.9946C59.432 39.0662 59.1921 39.1021 58.9307 39.1021ZM63.4102 39V33.21H64.3447V34.0801H64.4307C64.5775 33.7721 64.7887 33.534 65.0645 33.3657C65.3402 33.1938 65.6911 33.1079 66.1172 33.1079C66.7689 33.1079 67.2684 33.2941 67.6157 33.6665C67.9666 34.0353 68.1421 34.5635 68.1421 35.251V39H67.2075V35.4766C67.2075 34.9538 67.0965 34.5671 66.8745 34.3164C66.6561 34.0622 66.3159 33.9351 65.854 33.9351C65.5461 33.9351 65.2793 34.0013 65.0537 34.1338C64.8281 34.2663 64.6527 34.4543 64.5273 34.6978C64.4056 34.9412 64.3447 35.2331 64.3447 35.5732V39H63.4102ZM71.9717 39.1021C71.4847 39.1021 71.0586 38.9785 70.6934 38.7314C70.3281 38.4844 70.0452 38.137 69.8447 37.6895C69.6442 37.2383 69.5439 36.7119 69.5439 36.1104V36.0996C69.5439 35.4945 69.6442 34.9681 69.8447 34.5205C70.0452 34.0729 70.3263 33.7256 70.688 33.4785C71.0532 33.2314 71.4811 33.1079 71.9717 33.1079C72.2367 33.1079 72.4855 33.1509 72.7183 33.2368C72.9546 33.3192 73.1641 33.4355 73.3467 33.5859C73.5293 33.7363 73.6725 33.9154 73.7764 34.123H73.8623V30.9111H74.7969V39H73.8623V38.0762H73.7764C73.6582 38.291 73.5096 38.4754 73.3306 38.6294C73.1515 38.7798 72.9474 38.8962 72.7183 38.9785C72.4891 39.0609 72.2402 39.1021 71.9717 39.1021ZM72.1865 38.2749C72.5374 38.2749 72.84 38.1872 73.0942 38.0117C73.3485 37.8363 73.5436 37.5874 73.6797 37.2651C73.8158 36.9393 73.8838 36.5544 73.8838 36.1104V36.0996C73.8838 35.652 73.8158 35.2671 73.6797 34.9448C73.5436 34.6226 73.3485 34.3737 73.0942 34.1982C72.84 34.0228 72.5374 33.9351 72.1865 33.9351C71.8356 33.9351 71.533 34.0228 71.2788 34.1982C71.0282 34.3701 70.8348 34.6172 70.6987 34.9395C70.5662 35.2617 70.5 35.6484 70.5 36.0996V36.1104C70.5 36.5579 70.5662 36.9447 70.6987 37.2705C70.8348 37.5928 71.0282 37.8416 71.2788 38.0171C71.533 38.189 71.8356 38.2749 72.1865 38.2749ZM77.085 41.0303C77.0241 41.0303 76.9561 41.0267 76.8809 41.0195C76.8057 41.016 76.7358 41.0088 76.6714 40.998V40.23C76.7287 40.2407 76.7913 40.2479 76.8594 40.2515C76.9274 40.255 76.9937 40.2568 77.0581 40.2568C77.3231 40.2568 77.5397 40.1888 77.708 40.0527C77.8799 39.9167 78.0177 39.6821 78.1216 39.3491L78.229 39.0054L76.0859 33.21H77.085L78.8682 38.5596L78.4976 37.9741H78.938L78.5674 38.5596L80.3452 33.21H81.3281L79.0669 39.3545C78.9093 39.7878 78.7428 40.1261 78.5674 40.3696C78.3919 40.6131 78.186 40.7832 77.9497 40.8799C77.717 40.9801 77.4287 41.0303 77.085 41.0303ZM85.7754 39V31.2495H86.7422V39H85.7754ZM88.6006 39V33.21H89.5352V34.0801H89.6211C89.7679 33.7721 89.9792 33.534 90.2549 33.3657C90.5306 33.1938 90.8815 33.1079 91.3076 33.1079C91.9593 33.1079 92.4588 33.2941 92.8062 33.6665C93.1571 34.0353 93.3325 34.5635 93.3325 35.251V39H92.3979V35.4766C92.3979 34.9538 92.2869 34.5671 92.0649 34.3164C91.8465 34.0622 91.5063 33.9351 91.0444 33.9351C90.7365 33.9351 90.4697 34.0013 90.2441 34.1338C90.0186 34.2663 89.8431 34.4543 89.7178 34.6978C89.596 34.9412 89.5352 35.2331 89.5352 35.5732V39H88.6006ZM95.0244 39V33.21H95.959V34.0801H96.0449C96.1917 33.7721 96.403 33.534 96.6787 33.3657C96.9544 33.1938 97.3053 33.1079 97.7314 33.1079C98.3831 33.1079 98.8826 33.2941 99.23 33.6665C99.5809 34.0353 99.7563 34.5635 99.7563 35.251V39H98.8218V35.4766C98.8218 34.9538 98.7108 34.5671 98.4888 34.3164C98.2703 34.0622 97.9302 33.9351 97.4683 33.9351C97.1603 33.9351 96.8936 34.0013 96.668 34.1338C96.4424 34.2663 96.2669 34.4543 96.1416 34.6978C96.0199 34.9412 95.959 35.2331 95.959 35.5732V39H95.0244ZM103.828 39.1021C103.28 39.1021 102.805 38.9821 102.404 38.7422C102.007 38.4987 101.699 38.1532 101.48 37.7056C101.266 37.258 101.158 36.7262 101.158 36.1104V36.0996C101.158 35.4801 101.266 34.9466 101.48 34.499C101.699 34.0514 102.007 33.7077 102.404 33.4678C102.805 33.2279 103.28 33.1079 103.828 33.1079C104.379 33.1079 104.854 33.2279 105.251 33.4678C105.648 33.7077 105.955 34.0514 106.169 34.499C106.388 34.9466 106.497 35.4801 106.497 36.0996V36.1104C106.497 36.7262 106.388 37.258 106.169 37.7056C105.955 38.1532 105.648 38.4987 105.251 38.7422C104.854 38.9821 104.379 39.1021 103.828 39.1021ZM103.828 38.2749C104.193 38.2749 104.503 38.189 104.757 38.0171C105.011 37.8452 105.204 37.5981 105.337 37.2759C105.473 36.9536 105.541 36.5651 105.541 36.1104V36.0996C105.541 35.6413 105.473 35.251 105.337 34.9287C105.204 34.6064 105.011 34.3612 104.757 34.1929C104.503 34.021 104.193 33.9351 103.828 33.9351C103.462 33.9351 103.153 34.021 102.898 34.1929C102.644 34.3612 102.449 34.6064 102.313 34.9287C102.181 35.251 102.114 35.6413 102.114 36.0996V36.1104C102.114 36.5651 102.181 36.9536 102.313 37.2759C102.449 37.5981 102.644 37.8452 102.898 38.0171C103.153 38.189 103.462 38.2749 103.828 38.2749ZM109.371 39L107.228 33.21H108.216L109.8 37.9795H109.886L111.471 33.21H112.459L110.316 39H109.371ZM115.069 39.1021C114.704 39.1021 114.375 39.0322 114.081 38.8926C113.791 38.7529 113.56 38.5542 113.388 38.2964C113.22 38.0386 113.136 37.7342 113.136 37.3833V37.3726C113.136 37.0288 113.218 36.7352 113.383 36.4917C113.548 36.2446 113.787 36.0513 114.103 35.9116C114.418 35.772 114.799 35.6896 115.247 35.6646L117.374 35.5356V36.2822L115.359 36.4111C114.919 36.4362 114.597 36.5275 114.393 36.6851C114.192 36.8426 114.092 37.0646 114.092 37.3511V37.3618C114.092 37.6554 114.203 37.8846 114.425 38.0493C114.647 38.2104 114.926 38.291 115.263 38.291C115.581 38.291 115.864 38.2284 116.111 38.103C116.358 37.9741 116.552 37.8005 116.691 37.582C116.835 37.3636 116.906 37.1165 116.906 36.8408V35.0361C116.906 34.6781 116.797 34.4059 116.579 34.2197C116.364 34.0299 116.04 33.9351 115.606 33.9351C115.259 33.9351 114.974 33.9977 114.752 34.123C114.53 34.2448 114.382 34.4185 114.307 34.644L114.301 34.6602H113.367L113.372 34.6279C113.422 34.3236 113.548 34.0586 113.748 33.833C113.952 33.6038 114.215 33.4266 114.538 33.3013C114.86 33.1724 115.227 33.1079 115.639 33.1079C116.111 33.1079 116.511 33.1849 116.836 33.3389C117.166 33.4928 117.415 33.7148 117.583 34.0049C117.755 34.2913 117.841 34.6351 117.841 35.0361V39H116.906V38.146H116.82C116.699 38.3501 116.55 38.5238 116.375 38.667C116.203 38.8102 116.007 38.9194 115.789 38.9946C115.571 39.0662 115.331 39.1021 115.069 39.1021ZM121.606 39.043C121.012 39.043 120.58 38.923 120.312 38.6831C120.047 38.4432 119.914 38.0475 119.914 37.4961V33.9834H119.001V33.21H119.914V31.7114H120.881V33.21H122.148V33.9834H120.881V37.2598C120.881 37.5999 120.945 37.8452 121.074 37.9956C121.203 38.1424 121.418 38.2158 121.719 38.2158C121.801 38.2158 121.871 38.214 121.928 38.2104C121.989 38.2069 122.062 38.2015 122.148 38.1943V38.9893C122.059 39.0036 121.969 39.0161 121.88 39.0269C121.79 39.0376 121.699 39.043 121.606 39.043ZM123.566 39V33.21H124.501V39H123.566ZM124.039 32.0928C123.864 32.0928 123.711 32.0301 123.583 31.9048C123.457 31.7759 123.395 31.6237 123.395 31.4482C123.395 31.2692 123.457 31.117 123.583 30.9917C123.711 30.8664 123.864 30.8037 124.039 30.8037C124.218 30.8037 124.37 30.8664 124.496 30.9917C124.621 31.117 124.684 31.2692 124.684 31.4482C124.684 31.6237 124.621 31.7759 124.496 31.9048C124.37 32.0301 124.218 32.0928 124.039 32.0928ZM128.642 39.1021C128.094 39.1021 127.62 38.9821 127.219 38.7422C126.821 38.4987 126.513 38.1532 126.295 37.7056C126.08 37.258 125.973 36.7262 125.973 36.1104V36.0996C125.973 35.4801 126.08 34.9466 126.295 34.499C126.513 34.0514 126.821 33.7077 127.219 33.4678C127.62 33.2279 128.094 33.1079 128.642 33.1079C129.194 33.1079 129.668 33.2279 130.065 33.4678C130.463 33.7077 130.769 34.0514 130.984 34.499C131.202 34.9466 131.312 35.4801 131.312 36.0996V36.1104C131.312 36.7262 131.202 37.258 130.984 37.7056C130.769 38.1532 130.463 38.4987 130.065 38.7422C129.668 38.9821 129.194 39.1021 128.642 39.1021ZM128.642 38.2749C129.007 38.2749 129.317 38.189 129.571 38.0171C129.826 37.8452 130.019 37.5981 130.151 37.2759C130.287 36.9536 130.355 36.5651 130.355 36.1104V36.0996C130.355 35.6413 130.287 35.251 130.151 34.9287C130.019 34.6064 129.826 34.3612 129.571 34.1929C129.317 34.021 129.007 33.9351 128.642 33.9351C128.277 33.9351 127.967 34.021 127.713 34.1929C127.459 34.3612 127.264 34.6064 127.127 34.9287C126.995 35.251 126.929 35.6413 126.929 36.0996V36.1104C126.929 36.5651 126.995 36.9536 127.127 37.2759C127.264 37.5981 127.459 37.8452 127.713 38.0171C127.967 38.189 128.277 38.2749 128.642 38.2749ZM132.762 39V33.21H133.696V34.0801H133.782C133.929 33.7721 134.14 33.534 134.416 33.3657C134.692 33.1938 135.043 33.1079 135.469 33.1079C136.12 33.1079 136.62 33.2941 136.967 33.6665C137.318 34.0353 137.494 34.5635 137.494 35.251V39H136.559V35.4766C136.559 34.9538 136.448 34.5671 136.226 34.3164C136.008 34.0622 135.667 33.9351 135.206 33.9351C134.898 33.9351 134.631 34.0013 134.405 34.1338C134.18 34.2663 134.004 34.4543 133.879 34.6978C133.757 34.9412 133.696 35.2331 133.696 35.5732V39H132.762ZM145.518 39.1826C144.816 39.1826 144.209 39.0179 143.697 38.6885C143.185 38.359 142.79 37.8918 142.51 37.2866C142.235 36.6815 142.097 35.9635 142.097 35.1328V35.1221C142.097 34.2878 142.235 33.568 142.51 32.9629C142.79 32.3577 143.183 31.8905 143.692 31.561C144.204 31.2316 144.811 31.0669 145.513 31.0669C146.057 31.0669 146.551 31.1743 146.995 31.3892C147.443 31.6004 147.812 31.8958 148.102 32.2754C148.392 32.6514 148.574 33.0864 148.649 33.5806L148.644 33.5913H147.672L147.667 33.5806C147.581 33.2476 147.436 32.9611 147.231 32.7212C147.027 32.4777 146.778 32.2897 146.485 32.1572C146.195 32.0247 145.871 31.9585 145.513 31.9585C145.019 31.9585 144.589 32.0874 144.224 32.3452C143.862 32.603 143.583 32.9683 143.386 33.4409C143.189 33.9136 143.09 34.474 143.09 35.1221V35.1328C143.09 35.7773 143.189 36.3359 143.386 36.8086C143.583 37.2812 143.862 37.6465 144.224 37.9043C144.589 38.1621 145.02 38.291 145.518 38.291C145.88 38.291 146.207 38.2337 146.501 38.1191C146.795 38.001 147.042 37.8345 147.242 37.6196C147.443 37.4012 147.582 37.1434 147.661 36.8462L147.672 36.8354H148.649V36.8462C148.563 37.3188 148.377 37.7306 148.091 38.0815C147.804 38.4289 147.441 38.6992 147 38.8926C146.564 39.0859 146.069 39.1826 145.518 39.1826ZM152.517 39.1021C151.965 39.1021 151.491 38.9803 151.093 38.7368C150.699 38.4933 150.395 38.1496 150.18 37.7056C149.969 37.258 149.863 36.7316 149.863 36.1265V36.1211C149.863 35.5231 149.969 34.9985 150.18 34.5474C150.395 34.0962 150.698 33.7435 151.088 33.4893C151.478 33.235 151.935 33.1079 152.458 33.1079C152.984 33.1079 153.435 33.2297 153.811 33.4731C154.191 33.7166 154.481 34.0568 154.681 34.4937C154.885 34.9269 154.987 35.4318 154.987 36.0083V36.3735H150.347V35.627H154.509L154.047 36.3091V35.9385C154.047 35.4837 153.979 35.1095 153.843 34.8159C153.707 34.5223 153.519 34.3039 153.279 34.1606C153.039 34.0138 152.764 33.9404 152.452 33.9404C152.141 33.9404 151.861 34.0174 151.614 34.1714C151.371 34.3218 151.177 34.5456 151.034 34.8428C150.891 35.14 150.819 35.5052 150.819 35.9385V36.3091C150.819 36.7209 150.889 37.0736 151.029 37.3672C151.168 37.6572 151.367 37.881 151.625 38.0386C151.883 38.1925 152.187 38.2695 152.538 38.2695C152.799 38.2695 153.027 38.2337 153.22 38.1621C153.414 38.0905 153.573 37.9992 153.698 37.8882C153.824 37.7772 153.911 37.6644 153.961 37.5498L153.983 37.5015H154.917L154.907 37.5444C154.857 37.7414 154.767 37.9329 154.638 38.1191C154.513 38.3018 154.35 38.4683 154.149 38.6187C153.949 38.7655 153.711 38.8836 153.435 38.9731C153.163 39.0591 152.857 39.1021 152.517 39.1021ZM156.438 39V33.21H157.372V34.0801H157.458C157.605 33.7721 157.816 33.534 158.092 33.3657C158.368 33.1938 158.718 33.1079 159.145 33.1079C159.796 33.1079 160.296 33.2941 160.643 33.6665C160.994 34.0353 161.169 34.5635 161.169 35.251V39H160.235V35.4766C160.235 34.9538 160.124 34.5671 159.902 34.3164C159.683 34.0622 159.343 33.9351 158.881 33.9351C158.573 33.9351 158.307 34.0013 158.081 34.1338C157.855 34.2663 157.68 34.4543 157.555 34.6978C157.433 34.9412 157.372 35.2331 157.372 35.5732V39H156.438ZM164.918 39.043C164.324 39.043 163.893 38.923 163.624 38.6831C163.359 38.4432 163.227 38.0475 163.227 37.4961V33.9834H162.313V33.21H163.227V31.7114H164.193V33.21H165.461V33.9834H164.193V37.2598C164.193 37.5999 164.258 37.8452 164.387 37.9956C164.516 38.1424 164.73 38.2158 165.031 38.2158C165.114 38.2158 165.183 38.214 165.241 38.2104C165.302 38.2069 165.375 38.2015 165.461 38.1943V38.9893C165.371 39.0036 165.282 39.0161 165.192 39.0269C165.103 39.0376 165.012 39.043 164.918 39.043ZM166.857 39V33.21H167.792V34.0693H167.878C167.989 33.765 168.177 33.5286 168.442 33.3604C168.707 33.1921 169.035 33.1079 169.425 33.1079C169.514 33.1079 169.602 33.1133 169.688 33.124C169.778 33.1312 169.846 33.1383 169.892 33.1455V34.0532C169.795 34.0353 169.701 34.0228 169.607 34.0156C169.518 34.0049 169.421 33.9995 169.317 33.9995C169.02 33.9995 168.757 34.0586 168.528 34.1768C168.299 34.2949 168.118 34.4596 167.985 34.6709C167.856 34.8822 167.792 35.1292 167.792 35.4121V39H166.857ZM173.249 39.1021C172.698 39.1021 172.223 38.9803 171.826 38.7368C171.432 38.4933 171.127 38.1496 170.913 37.7056C170.701 37.258 170.596 36.7316 170.596 36.1265V36.1211C170.596 35.5231 170.701 34.9985 170.913 34.5474C171.127 34.0962 171.43 33.7435 171.82 33.4893C172.211 33.235 172.667 33.1079 173.19 33.1079C173.716 33.1079 174.167 33.2297 174.543 33.4731C174.923 33.7166 175.213 34.0568 175.414 34.4937C175.618 34.9269 175.72 35.4318 175.72 36.0083V36.3735H171.079V35.627H175.242L174.78 36.3091V35.9385C174.78 35.4837 174.712 35.1095 174.576 34.8159C174.44 34.5223 174.252 34.3039 174.012 34.1606C173.772 34.0138 173.496 33.9404 173.185 33.9404C172.873 33.9404 172.594 34.0174 172.347 34.1714C172.103 34.3218 171.91 34.5456 171.767 34.8428C171.623 35.14 171.552 35.5052 171.552 35.9385V36.3091C171.552 36.7209 171.622 37.0736 171.761 37.3672C171.901 37.6572 172.1 37.881 172.357 38.0386C172.615 38.1925 172.92 38.2695 173.271 38.2695C173.532 38.2695 173.759 38.2337 173.953 38.1621C174.146 38.0905 174.305 37.9992 174.431 37.8882C174.556 37.7772 174.644 37.6644 174.694 37.5498L174.715 37.5015H175.65L175.639 37.5444C175.589 37.7414 175.5 37.9329 175.371 38.1191C175.245 38.3018 175.082 38.4683 174.882 38.6187C174.681 38.7655 174.443 38.8836 174.167 38.9731C173.895 39.0591 173.589 39.1021 173.249 39.1021Z" fill="black" fill-opacity="0.5"/>
</svg>
