<svg width="45" height="28" viewBox="0 0 45 28" fill="none" xmlns="http://www.w3.org/2000/svg">
<g filter="url(#filter0_dd_520_7310)">
<rect x="3" y="2" width="39" height="22" rx="5" fill="#03A200"/>
<rect x="3" y="2" width="39" height="22" rx="5" fill="url(#paint0_linear_520_7310)" fill-opacity="0.17"/>
<path d="M10.7632 18L14.1401 8.84033H15.0161V10.3193H14.6543L11.9629 18H10.7632ZM12.293 15.3784L12.6484 14.4072H16.7871L17.1426 15.3784H12.293ZM17.4473 18L14.7559 10.3193V8.84033H15.27L18.647 18H17.4473ZM22.2588 18.1206C21.6833 18.1206 21.1797 17.9746 20.748 17.6826C20.3164 17.3906 19.9821 16.9801 19.7451 16.4512C19.5081 15.918 19.3896 15.2959 19.3896 14.585V14.5723C19.3896 13.8571 19.5081 13.235 19.7451 12.7061C19.9821 12.1771 20.3143 11.7666 20.7417 11.4746C21.1733 11.1826 21.679 11.0366 22.2588 11.0366C22.5719 11.0366 22.866 11.0874 23.1411 11.189C23.4204 11.2863 23.668 11.4238 23.8838 11.6016C24.0996 11.7793 24.2689 11.9909 24.3916 12.2363H24.4932V8.44043H25.5977V18H24.4932V16.9082H24.3916C24.252 17.1621 24.0763 17.38 23.8647 17.562C23.6532 17.7397 23.4119 17.8773 23.1411 17.9746C22.8703 18.0719 22.5762 18.1206 22.2588 18.1206ZM22.5127 17.1431C22.9274 17.1431 23.285 17.0394 23.5854 16.832C23.8859 16.6247 24.1165 16.3306 24.2773 15.9497C24.4382 15.5646 24.5186 15.1097 24.5186 14.585V14.5723C24.5186 14.0433 24.4382 13.5884 24.2773 13.2075C24.1165 12.8267 23.8859 12.5326 23.5854 12.3252C23.285 12.1178 22.9274 12.0142 22.5127 12.0142C22.098 12.0142 21.7404 12.1178 21.4399 12.3252C21.1437 12.5283 20.9152 12.8203 20.7544 13.2012C20.5978 13.582 20.5195 14.0391 20.5195 14.5723V14.585C20.5195 15.1139 20.5978 15.571 20.7544 15.9561C20.9152 16.3369 21.1437 16.631 21.4399 16.8384C21.7404 17.0415 22.098 17.1431 22.5127 17.1431ZM30.2441 18.1206C29.6686 18.1206 29.165 17.9746 28.7334 17.6826C28.3018 17.3906 27.9674 16.9801 27.7305 16.4512C27.4935 15.918 27.375 15.2959 27.375 14.585V14.5723C27.375 13.8571 27.4935 13.235 27.7305 12.7061C27.9674 12.1771 28.2996 11.7666 28.7271 11.4746C29.1587 11.1826 29.6644 11.0366 30.2441 11.0366C30.5573 11.0366 30.8514 11.0874 31.1265 11.189C31.4058 11.2863 31.6533 11.4238 31.8691 11.6016C32.085 11.7793 32.2542 11.9909 32.377 12.2363H32.4785V8.44043H33.583V18H32.4785V16.9082H32.377C32.2373 17.1621 32.0617 17.38 31.8501 17.562C31.6385 17.7397 31.3973 17.8773 31.1265 17.9746C30.8556 18.0719 30.5615 18.1206 30.2441 18.1206ZM30.498 17.1431C30.9128 17.1431 31.2703 17.0394 31.5708 16.832C31.8713 16.6247 32.1019 16.3306 32.2627 15.9497C32.4235 15.5646 32.5039 15.1097 32.5039 14.585V14.5723C32.5039 14.0433 32.4235 13.5884 32.2627 13.2075C32.1019 12.8267 31.8713 12.5326 31.5708 12.3252C31.2703 12.1178 30.9128 12.0142 30.498 12.0142C30.0833 12.0142 29.7257 12.1178 29.4253 12.3252C29.1291 12.5283 28.9006 12.8203 28.7397 13.2012C28.5832 13.582 28.5049 14.0391 28.5049 14.5723V14.585C28.5049 15.1139 28.5832 15.571 28.7397 15.9561C28.9006 16.3369 29.1291 16.631 29.4253 16.8384C29.7257 17.0415 30.0833 17.1431 30.498 17.1431Z" fill="white"/>
</g>
<defs>
<filter id="filter0_dd_520_7310" x="0.5" y="0.5" width="44" height="27" filterUnits="userSpaceOnUse" color-interpolation-filters="sRGB">
<feFlood flood-opacity="0" result="BackgroundImageFix"/>
<feColorMatrix in="SourceAlpha" type="matrix" values="0 0 0 0 0 0 0 0 0 0 0 0 0 0 0 0 0 0 127 0" result="hardAlpha"/>
<feMorphology radius="0.5" operator="dilate" in="SourceAlpha" result="effect1_dropShadow_520_7310"/>
<feOffset/>
<feComposite in2="hardAlpha" operator="out"/>
<feColorMatrix type="matrix" values="0 0 0 0 0 0 0 0 0 0.478431 0 0 0 0 1 0 0 0 0.12 0"/>
<feBlend mode="normal" in2="BackgroundImageFix" result="effect1_dropShadow_520_7310"/>
<feColorMatrix in="SourceAlpha" type="matrix" values="0 0 0 0 0 0 0 0 0 0 0 0 0 0 0 0 0 0 127 0" result="hardAlpha"/>
<feOffset dy="1"/>
<feGaussianBlur stdDeviation="1.25"/>
<feComposite in2="hardAlpha" operator="out"/>
<feColorMatrix type="matrix" values="0 0 0 0 0 0 0 0 0 0.478431 0 0 0 0 1 0 0 0 0.24 0"/>
<feBlend mode="normal" in2="effect1_dropShadow_520_7310" result="effect2_dropShadow_520_7310"/>
<feBlend mode="normal" in="SourceGraphic" in2="effect2_dropShadow_520_7310" result="shape"/>
</filter>
<linearGradient id="paint0_linear_520_7310" x1="22.5" y1="2" x2="22.5" y2="24" gradientUnits="userSpaceOnUse">
<stop stop-color="white"/>
<stop offset="1" stop-color="white" stop-opacity="0"/>
</linearGradient>
</defs>
</svg>
