<svg width="162" height="25" viewBox="0 0 162 25" fill="none" xmlns="http://www.w3.org/2000/svg">
<rect x="0.75" y="0.75" width="160.5" height="23.5" rx="5.25" stroke="black" stroke-opacity="0.1" stroke-width="0.5"/>
<path d="M15.8975 19.8486C15.8678 19.8486 15.8382 19.8486 15.8086 19.8486C15.7747 19.8486 15.7409 19.8486 15.707 19.8486V18.8711C15.7367 18.8711 15.7642 18.8711 15.7896 18.8711C15.8149 18.8711 15.8424 18.8711 15.8721 18.8711C16.2445 18.8711 16.5068 18.7949 16.6592 18.6426C16.8158 18.4945 16.894 18.2321 16.894 17.8555V10.6572H17.9985V17.8364C17.9985 18.5389 17.8271 19.0488 17.4844 19.3662C17.1458 19.6878 16.6169 19.8486 15.8975 19.8486ZM17.4463 9.33691C17.2389 9.33691 17.0591 9.26286 16.9067 9.11475C16.7586 8.9624 16.6846 8.78255 16.6846 8.5752C16.6846 8.36361 16.7586 8.18376 16.9067 8.03564C17.0591 7.88753 17.2389 7.81348 17.4463 7.81348C17.6579 7.81348 17.8377 7.88753 17.9858 8.03564C18.134 8.18376 18.208 8.36361 18.208 8.5752C18.208 8.78255 18.134 8.9624 17.9858 9.11475C17.8377 9.26286 17.6579 9.33691 17.4463 9.33691ZM22.8989 17.6206C22.2515 17.6206 21.6908 17.4788 21.2168 17.1953C20.7471 16.9076 20.3831 16.4992 20.125 15.9702C19.8711 15.4412 19.7441 14.8128 19.7441 14.085V14.0723C19.7441 13.3402 19.8711 12.7096 20.125 12.1807C20.3831 11.6517 20.7471 11.2454 21.2168 10.9619C21.6908 10.6784 22.2515 10.5366 22.8989 10.5366C23.5506 10.5366 24.1113 10.6784 24.5811 10.9619C25.0508 11.2454 25.4126 11.6517 25.6665 12.1807C25.9246 12.7096 26.0537 13.3402 26.0537 14.0723V14.085C26.0537 14.8128 25.9246 15.4412 25.6665 15.9702C25.4126 16.4992 25.0508 16.9076 24.5811 17.1953C24.1113 17.4788 23.5506 17.6206 22.8989 17.6206ZM22.8989 16.6431C23.3306 16.6431 23.6966 16.5415 23.9971 16.3384C24.2975 16.1353 24.526 15.8433 24.6826 15.4624C24.8434 15.0815 24.9238 14.6224 24.9238 14.085V14.0723C24.9238 13.5306 24.8434 13.0693 24.6826 12.6885C24.526 12.3076 24.2975 12.0177 23.9971 11.8188C23.6966 11.6157 23.3306 11.5142 22.8989 11.5142C22.4673 11.5142 22.1012 11.6157 21.8008 11.8188C21.5003 12.0177 21.2697 12.3076 21.1089 12.6885C20.9523 13.0693 20.874 13.5306 20.874 14.0723V14.085C20.874 14.6224 20.9523 15.0815 21.1089 15.4624C21.2697 15.8433 21.5003 16.1353 21.8008 16.3384C22.1012 16.5415 22.4673 16.6431 22.8989 16.6431ZM27.8311 17.5V7.94043H28.9355V11.6855H29.0371C29.2106 11.3216 29.4603 11.0402 29.7861 10.8413C30.112 10.6382 30.5267 10.5366 31.0303 10.5366C31.5423 10.5366 31.9761 10.6361 32.3315 10.835C32.687 11.0296 32.9578 11.3153 33.144 11.6919C33.3302 12.0685 33.4233 12.5277 33.4233 13.0693V17.5H32.3188V13.3359C32.3188 12.7181 32.1877 12.2611 31.9253 11.9648C31.6672 11.6644 31.2651 11.5142 30.7192 11.5142C30.3553 11.5142 30.04 11.5924 29.7734 11.749C29.5068 11.9056 29.2995 12.1278 29.1514 12.4155C29.0075 12.7033 28.9355 13.0482 28.9355 13.4502V17.5H27.8311ZM35.4229 17.5V10.6572H36.5273V11.6855H36.6289C36.8024 11.3216 37.0521 11.0402 37.3779 10.8413C37.7038 10.6382 38.1185 10.5366 38.6221 10.5366C39.3923 10.5366 39.9826 10.7567 40.3931 11.1968C40.8078 11.6326 41.0151 12.2568 41.0151 13.0693V17.5H39.9106V13.3359C39.9106 12.7181 39.7795 12.2611 39.5171 11.9648C39.259 11.6644 38.8569 11.5142 38.311 11.5142C37.9471 11.5142 37.6318 11.5924 37.3652 11.749C37.0986 11.9056 36.8913 12.1278 36.7432 12.4155C36.5993 12.7033 36.5273 13.0482 36.5273 13.4502V17.5H35.4229ZM45.541 17.6206C44.9655 17.6206 44.4619 17.4746 44.0303 17.1826C43.5986 16.8906 43.2643 16.4801 43.0273 15.9512C42.7904 15.418 42.6719 14.7959 42.6719 14.085V14.0723C42.6719 13.3571 42.7904 12.735 43.0273 12.2061C43.2643 11.6771 43.5965 11.2666 44.0239 10.9746C44.4556 10.6826 44.9613 10.5366 45.541 10.5366C45.8542 10.5366 46.1483 10.5874 46.4233 10.689C46.7026 10.7863 46.9502 10.9238 47.166 11.1016C47.3818 11.2793 47.5511 11.4909 47.6738 11.7363H47.7754V7.94043H48.8799V17.5H47.7754V16.4082H47.6738C47.5342 16.6621 47.3586 16.88 47.147 17.062C46.9354 17.2397 46.6942 17.3773 46.4233 17.4746C46.1525 17.5719 45.8584 17.6206 45.541 17.6206ZM45.7949 16.6431C46.2096 16.6431 46.5672 16.5394 46.8677 16.332C47.1681 16.1247 47.3988 15.8306 47.5596 15.4497C47.7204 15.0646 47.8008 14.6097 47.8008 14.085V14.0723C47.8008 13.5433 47.7204 13.0884 47.5596 12.7075C47.3988 12.3267 47.1681 12.0326 46.8677 11.8252C46.5672 11.6178 46.2096 11.5142 45.7949 11.5142C45.3802 11.5142 45.0226 11.6178 44.7222 11.8252C44.4259 12.0283 44.1974 12.3203 44.0366 12.7012C43.88 13.082 43.8018 13.5391 43.8018 14.0723V14.085C43.8018 14.6139 43.88 15.071 44.0366 15.4561C44.1974 15.8369 44.4259 16.131 44.7222 16.3384C45.0226 16.5415 45.3802 16.6431 45.7949 16.6431ZM53.812 17.6206C53.1646 17.6206 52.6038 17.4788 52.1299 17.1953C51.6602 16.9076 51.2962 16.4992 51.0381 15.9702C50.7842 15.4412 50.6572 14.8128 50.6572 14.085V14.0723C50.6572 13.3402 50.7842 12.7096 51.0381 12.1807C51.2962 11.6517 51.6602 11.2454 52.1299 10.9619C52.6038 10.6784 53.1646 10.5366 53.812 10.5366C54.4637 10.5366 55.0244 10.6784 55.4941 10.9619C55.9639 11.2454 56.3257 11.6517 56.5796 12.1807C56.8377 12.7096 56.9668 13.3402 56.9668 14.0723V14.085C56.9668 14.8128 56.8377 15.4412 56.5796 15.9702C56.3257 16.4992 55.9639 16.9076 55.4941 17.1953C55.0244 17.4788 54.4637 17.6206 53.812 17.6206ZM53.812 16.6431C54.2437 16.6431 54.6097 16.5415 54.9102 16.3384C55.2106 16.1353 55.4391 15.8433 55.5957 15.4624C55.7565 15.0815 55.8369 14.6224 55.8369 14.085V14.0723C55.8369 13.5306 55.7565 13.0693 55.5957 12.6885C55.4391 12.3076 55.2106 12.0177 54.9102 11.8188C54.6097 11.6157 54.2437 11.5142 53.812 11.5142C53.3804 11.5142 53.0143 11.6157 52.7139 11.8188C52.4134 12.0177 52.1828 12.3076 52.022 12.6885C51.8654 13.0693 51.7871 13.5306 51.7871 14.0723V14.085C51.7871 14.6224 51.8654 15.0815 52.022 15.4624C52.1828 15.8433 52.4134 16.1353 52.7139 16.3384C53.0143 16.5415 53.3804 16.6431 53.812 16.6431ZM61.4736 17.6206C60.8219 17.6206 60.2612 17.4767 59.7915 17.189C59.326 16.9012 58.9663 16.495 58.7124 15.9702C58.4627 15.4412 58.3379 14.8192 58.3379 14.104V14.0977C58.3379 13.391 58.4627 12.771 58.7124 12.2378C58.9663 11.7046 59.3239 11.2878 59.7852 10.9873C60.2464 10.6868 60.786 10.5366 61.4038 10.5366C62.0259 10.5366 62.5591 10.6805 63.0034 10.9683C63.452 11.256 63.7948 11.658 64.0317 12.1743C64.2729 12.6864 64.3936 13.283 64.3936 13.9644V14.396H58.9092V13.5137H63.8286L63.2827 14.3198V13.8818C63.2827 13.3444 63.2023 12.9022 63.0415 12.5552C62.8807 12.2082 62.6585 11.95 62.375 11.7808C62.0915 11.6073 61.7656 11.5205 61.3975 11.5205C61.0293 11.5205 60.6992 11.6115 60.4072 11.7935C60.1195 11.9712 59.891 12.2357 59.7217 12.5869C59.5524 12.9382 59.4678 13.3698 59.4678 13.8818V14.3198C59.4678 14.8065 59.5503 15.2233 59.7153 15.5703C59.8804 15.9131 60.1152 16.1776 60.4199 16.3638C60.7246 16.5457 61.0843 16.6367 61.499 16.6367C61.8079 16.6367 62.0767 16.5944 62.3052 16.5098C62.5337 16.4251 62.722 16.3172 62.8701 16.186C63.0182 16.0549 63.1219 15.9215 63.1812 15.7861L63.2065 15.729H64.311L64.2983 15.7798C64.2391 16.0125 64.1333 16.2389 63.981 16.459C63.8328 16.6748 63.6403 16.8716 63.4033 17.0493C63.1663 17.2228 62.8849 17.3625 62.5591 17.4683C62.2375 17.5698 61.8757 17.6206 61.4736 17.6206ZM71.3379 18.9854C70.5212 18.9854 69.7827 18.8626 69.1226 18.6172C68.4624 18.3717 67.8996 18.0163 67.4341 17.5508C66.9686 17.0895 66.611 16.533 66.3613 15.8813C66.1117 15.2297 65.9868 14.4997 65.9868 13.6914V13.6787C65.9868 12.8958 66.1117 12.1807 66.3613 11.5332C66.6152 10.8857 66.9749 10.3271 67.4404 9.85742C67.9059 9.3877 68.4582 9.02588 69.0972 8.77197C69.7404 8.51807 70.4513 8.39111 71.23 8.39111C72.2329 8.39111 73.1152 8.59001 73.877 8.98779C74.6429 9.38135 75.2417 9.92936 75.6733 10.6318C76.105 11.3301 76.3208 12.1383 76.3208 13.0566V13.0693C76.3208 13.7549 76.2235 14.3516 76.0288 14.8594C75.8341 15.363 75.557 15.7544 75.1973 16.0337C74.8418 16.3088 74.4207 16.4463 73.9341 16.4463C73.5701 16.4463 73.2591 16.3532 73.001 16.167C72.7471 15.9766 72.5947 15.7269 72.5439 15.418L72.5376 15.3799H72.436C72.3006 15.7015 72.0954 15.9512 71.8203 16.1289C71.5452 16.3024 71.2215 16.3892 70.8491 16.3892C70.409 16.3892 70.0218 16.277 69.6875 16.0527C69.3574 15.8242 69.0993 15.509 68.9131 15.1069C68.7311 14.7049 68.6401 14.2352 68.6401 13.6978V13.6851C68.6401 13.173 68.7332 12.7202 68.9194 12.3267C69.1099 11.9331 69.3701 11.6263 69.7002 11.4062C70.0345 11.182 70.4175 11.0698 70.8491 11.0698C71.1834 11.0698 71.4839 11.1502 71.7505 11.311C72.0171 11.4718 72.2118 11.6898 72.3345 11.9648H72.436V11.1904H73.3945V14.9165C73.3945 15.1366 73.4559 15.3101 73.5786 15.437C73.7056 15.5597 73.8833 15.6211 74.1118 15.6211C74.3784 15.6211 74.609 15.5153 74.8037 15.3037C75.0026 15.0921 75.1549 14.7938 75.2607 14.4087C75.3708 14.0236 75.4258 13.5729 75.4258 13.0566V13.0439C75.4258 12.2822 75.2459 11.6115 74.8862 11.0317C74.5265 10.452 74.0251 10.0013 73.3818 9.67969C72.7386 9.35384 71.9938 9.19092 71.1475 9.19092C70.5254 9.19092 69.9541 9.30306 69.4336 9.52734C68.9173 9.7474 68.4666 10.0605 68.0815 10.4668C67.7007 10.873 67.4045 11.3512 67.1929 11.9014C66.9855 12.4515 66.8818 13.0566 66.8818 13.7168V13.7295C66.8818 14.6309 67.0659 15.4159 67.4341 16.0845C67.8022 16.7489 68.3206 17.263 68.9893 17.627C69.6579 17.9951 70.445 18.1792 71.3506 18.1792C71.6426 18.1792 71.924 18.1665 72.1948 18.1411C72.4699 18.1157 72.7196 18.0798 72.9438 18.0332C73.1681 17.9867 73.3459 17.9338 73.4771 17.8745V18.6743C73.1935 18.7716 72.8656 18.8478 72.4932 18.9028C72.125 18.9578 71.7399 18.9854 71.3379 18.9854ZM70.9951 15.4941C71.431 15.4941 71.778 15.3333 72.0361 15.0117C72.2943 14.6901 72.4233 14.2606 72.4233 13.7231V13.7104C72.4233 13.1688 72.2943 12.7393 72.0361 12.4219C71.7822 12.1045 71.4395 11.9458 71.0078 11.9458C70.7243 11.9458 70.481 12.0156 70.2778 12.1553C70.0789 12.2949 69.9245 12.498 69.8145 12.7646C69.7087 13.027 69.6558 13.3423 69.6558 13.7104V13.7231C69.6558 14.0871 69.7087 14.4023 69.8145 14.6689C69.9245 14.9355 70.0789 15.1408 70.2778 15.2847C70.481 15.4243 70.7201 15.4941 70.9951 15.4941ZM78.1045 17.5V7.94043H79.209V17.5H78.1045ZM81.3545 17.5V10.6572H82.459V17.5H81.3545ZM81.9131 9.33691C81.7057 9.33691 81.5259 9.26286 81.3735 9.11475C81.2254 8.9624 81.1514 8.78255 81.1514 8.5752C81.1514 8.36361 81.2254 8.18376 81.3735 8.03564C81.5259 7.88753 81.7057 7.81348 81.9131 7.81348C82.1247 7.81348 82.3045 7.88753 82.4526 8.03564C82.6007 8.18376 82.6748 8.36361 82.6748 8.5752C82.6748 8.78255 82.6007 8.9624 82.4526 9.11475C82.3045 9.26286 82.1247 9.33691 81.9131 9.33691ZM86.9722 17.5508C86.2697 17.5508 85.7598 17.409 85.4424 17.1255C85.1292 16.842 84.9727 16.3743 84.9727 15.7227V11.5713H83.8936V10.6572H84.9727V8.88623H86.1152V10.6572H87.6133V11.5713H86.1152V15.4434C86.1152 15.8454 86.1914 16.1353 86.3438 16.313C86.4961 16.4865 86.75 16.5732 87.1055 16.5732C87.2028 16.5732 87.2853 16.5711 87.353 16.5669C87.425 16.5627 87.5117 16.5563 87.6133 16.5479V17.4873C87.5075 17.5042 87.4017 17.519 87.2959 17.5317C87.1901 17.5444 87.0822 17.5508 86.9722 17.5508ZM91.6948 17.5508C90.9924 17.5508 90.4824 17.409 90.165 17.1255C89.8519 16.842 89.6953 16.3743 89.6953 15.7227V11.5713H88.6162V10.6572H89.6953V8.88623H90.8379V10.6572H92.3359V11.5713H90.8379V15.4434C90.8379 15.8454 90.9141 16.1353 91.0664 16.313C91.2188 16.4865 91.4727 16.5732 91.8281 16.5732C91.9255 16.5732 92.008 16.5711 92.0757 16.5669C92.1476 16.5627 92.2344 16.5563 92.3359 16.5479V17.4873C92.2301 17.5042 92.1243 17.519 92.0186 17.5317C91.9128 17.5444 91.8049 17.5508 91.6948 17.5508ZM94.0498 17.5V7.94043H95.1543V17.5H94.0498ZM100.067 17.6206C99.4157 17.6206 98.855 17.4767 98.3853 17.189C97.9198 16.9012 97.5601 16.495 97.3062 15.9702C97.0565 15.4412 96.9316 14.8192 96.9316 14.104V14.0977C96.9316 13.391 97.0565 12.771 97.3062 12.2378C97.5601 11.7046 97.9176 11.2878 98.3789 10.9873C98.8402 10.6868 99.3797 10.5366 99.9976 10.5366C100.62 10.5366 101.153 10.6805 101.597 10.9683C102.046 11.256 102.389 11.658 102.625 12.1743C102.867 12.6864 102.987 13.283 102.987 13.9644V14.396H97.5029V13.5137H102.422L101.876 14.3198V13.8818C101.876 13.3444 101.796 12.9022 101.635 12.5552C101.474 12.2082 101.252 11.95 100.969 11.7808C100.685 11.6073 100.359 11.5205 99.9912 11.5205C99.623 11.5205 99.293 11.6115 99.001 11.7935C98.7132 11.9712 98.4847 12.2357 98.3154 12.5869C98.1462 12.9382 98.0615 13.3698 98.0615 13.8818V14.3198C98.0615 14.8065 98.144 15.2233 98.3091 15.5703C98.4741 15.9131 98.709 16.1776 99.0137 16.3638C99.3184 16.5457 99.6781 16.6367 100.093 16.6367C100.402 16.6367 100.67 16.5944 100.899 16.5098C101.127 16.4251 101.316 16.3172 101.464 16.186C101.612 16.0549 101.716 15.9215 101.775 15.7861L101.8 15.729H102.905L102.892 15.7798C102.833 16.0125 102.727 16.2389 102.575 16.459C102.427 16.6748 102.234 16.8716 101.997 17.0493C101.76 17.2228 101.479 17.3625 101.153 17.4683C100.831 17.5698 100.469 17.6206 100.067 17.6206ZM107.52 19.9121C106.969 19.9121 106.489 19.8338 106.079 19.6772C105.668 19.5249 105.34 19.307 105.095 19.0234C104.854 18.7441 104.703 18.4183 104.644 18.0459L104.657 18.0396H105.799L105.806 18.0459C105.865 18.304 106.043 18.5156 106.339 18.6807C106.635 18.8499 107.029 18.9346 107.52 18.9346C108.133 18.9346 108.611 18.7949 108.954 18.5156C109.301 18.2406 109.475 17.8512 109.475 17.3477V15.9639H109.373C109.229 16.2135 109.049 16.4272 108.833 16.605C108.618 16.7827 108.374 16.9181 108.104 17.0112C107.833 17.1001 107.541 17.1445 107.228 17.1445C106.639 17.1445 106.129 17.0049 105.698 16.7256C105.27 16.4421 104.94 16.0527 104.708 15.5576C104.475 15.0625 104.358 14.4954 104.358 13.8564V13.8438C104.358 13.2048 104.475 12.6377 104.708 12.1426C104.944 11.6432 105.279 11.2518 105.71 10.9683C106.142 10.6805 106.656 10.5366 107.253 10.5366C107.575 10.5366 107.871 10.5874 108.142 10.689C108.412 10.7905 108.652 10.9344 108.859 11.1206C109.07 11.3068 109.246 11.529 109.386 11.7871H109.462V10.6572H110.566V17.4048C110.566 17.9126 110.442 18.3548 110.192 18.7314C109.946 19.1081 109.595 19.3979 109.138 19.6011C108.681 19.8084 108.142 19.9121 107.52 19.9121ZM107.469 16.167C107.892 16.167 108.254 16.0697 108.554 15.875C108.859 15.6761 109.092 15.4032 109.252 15.0562C109.417 14.7091 109.5 14.3092 109.5 13.8564V13.8438C109.5 13.391 109.417 12.9889 109.252 12.6377C109.092 12.2865 108.859 12.0114 108.554 11.8125C108.254 11.6136 107.892 11.5142 107.469 11.5142C107.046 11.5142 106.686 11.6136 106.39 11.8125C106.098 12.0114 105.873 12.2865 105.717 12.6377C105.564 12.9889 105.488 13.391 105.488 13.8438V13.8564C105.488 14.3092 105.564 14.7091 105.717 15.0562C105.873 15.4032 106.098 15.6761 106.39 15.875C106.686 16.0697 107.046 16.167 107.469 16.167ZM112.623 17.5V10.6572H113.728V11.6729H113.829C113.96 11.3132 114.182 11.0339 114.496 10.835C114.809 10.6361 115.196 10.5366 115.657 10.5366C115.763 10.5366 115.867 10.543 115.968 10.5557C116.074 10.5641 116.154 10.5726 116.209 10.5811V11.6538C116.095 11.6326 115.983 11.6178 115.873 11.6094C115.767 11.5967 115.653 11.5903 115.53 11.5903C115.179 11.5903 114.868 11.6602 114.597 11.7998C114.326 11.9395 114.113 12.1341 113.956 12.3838C113.804 12.6335 113.728 12.9255 113.728 13.2598V17.5H112.623ZM120.196 17.6206C119.548 17.6206 118.988 17.4788 118.514 17.1953C118.044 16.9076 117.68 16.4992 117.422 15.9702C117.168 15.4412 117.041 14.8128 117.041 14.085V14.0723C117.041 13.3402 117.168 12.7096 117.422 12.1807C117.68 11.6517 118.044 11.2454 118.514 10.9619C118.988 10.6784 119.548 10.5366 120.196 10.5366C120.847 10.5366 121.408 10.6784 121.878 10.9619C122.348 11.2454 122.709 11.6517 122.963 12.1807C123.222 12.7096 123.351 13.3402 123.351 14.0723V14.085C123.351 14.8128 123.222 15.4412 122.963 15.9702C122.709 16.4992 122.348 16.9076 121.878 17.1953C121.408 17.4788 120.847 17.6206 120.196 17.6206ZM120.196 16.6431C120.627 16.6431 120.993 16.5415 121.294 16.3384C121.594 16.1353 121.823 15.8433 121.979 15.4624C122.14 15.0815 122.221 14.6224 122.221 14.085V14.0723C122.221 13.5306 122.14 13.0693 121.979 12.6885C121.823 12.3076 121.594 12.0177 121.294 11.8188C120.993 11.6157 120.627 11.5142 120.196 11.5142C119.764 11.5142 119.398 11.6157 119.098 11.8188C118.797 12.0177 118.567 12.3076 118.406 12.6885C118.249 13.0693 118.171 13.5306 118.171 14.0723V14.085C118.171 14.6224 118.249 15.0815 118.406 15.4624C118.567 15.8433 118.797 16.1353 119.098 16.3384C119.398 16.5415 119.764 16.6431 120.196 16.6431ZM127.876 17.6206C127.229 17.6206 126.668 17.4788 126.194 17.1953C125.725 16.9076 125.361 16.4992 125.103 15.9702C124.849 15.4412 124.722 14.8128 124.722 14.085V14.0723C124.722 13.3402 124.849 12.7096 125.103 12.1807C125.361 11.6517 125.725 11.2454 126.194 10.9619C126.668 10.6784 127.229 10.5366 127.876 10.5366C128.528 10.5366 129.089 10.6784 129.559 10.9619C130.028 11.2454 130.39 11.6517 130.644 12.1807C130.902 12.7096 131.031 13.3402 131.031 14.0723V14.085C131.031 14.8128 130.902 15.4412 130.644 15.9702C130.39 16.4992 130.028 16.9076 129.559 17.1953C129.089 17.4788 128.528 17.6206 127.876 17.6206ZM127.876 16.6431C128.308 16.6431 128.674 16.5415 128.975 16.3384C129.275 16.1353 129.504 15.8433 129.66 15.4624C129.821 15.0815 129.901 14.6224 129.901 14.085V14.0723C129.901 13.5306 129.821 13.0693 129.66 12.6885C129.504 12.3076 129.275 12.0177 128.975 11.8188C128.674 11.6157 128.308 11.5142 127.876 11.5142C127.445 11.5142 127.079 11.6157 126.778 11.8188C126.478 12.0177 126.247 12.3076 126.086 12.6885C125.93 13.0693 125.852 13.5306 125.852 14.0723V14.085C125.852 14.6224 125.93 15.0815 126.086 15.4624C126.247 15.8433 126.478 16.1353 126.778 16.3384C127.079 16.5415 127.445 16.6431 127.876 16.6431ZM135.176 17.5508C134.474 17.5508 133.964 17.409 133.646 17.1255C133.333 16.842 133.177 16.3743 133.177 15.7227V11.5713H132.098V10.6572H133.177V8.88623H134.319V10.6572H135.817V11.5713H134.319V15.4434C134.319 15.8454 134.396 16.1353 134.548 16.313C134.7 16.4865 134.954 16.5732 135.31 16.5732C135.407 16.5732 135.489 16.5711 135.557 16.5669C135.629 16.5627 135.716 16.5563 135.817 16.5479V17.4873C135.712 17.5042 135.606 17.519 135.5 17.5317C135.394 17.5444 135.286 17.5508 135.176 17.5508ZM138.369 17.5635C138.145 17.5635 137.95 17.4831 137.785 17.3223C137.624 17.1572 137.544 16.9626 137.544 16.7383C137.544 16.5098 137.624 16.3151 137.785 16.1543C137.95 15.9935 138.145 15.9131 138.369 15.9131C138.598 15.9131 138.792 15.9935 138.953 16.1543C139.114 16.3151 139.194 16.5098 139.194 16.7383C139.194 16.9626 139.114 17.1572 138.953 17.3223C138.792 17.4831 138.598 17.5635 138.369 17.5635ZM141.975 17.5635C141.75 17.5635 141.556 17.4831 141.391 17.3223C141.23 17.1572 141.149 16.9626 141.149 16.7383C141.149 16.5098 141.23 16.3151 141.391 16.1543C141.556 15.9935 141.75 15.9131 141.975 15.9131C142.203 15.9131 142.398 15.9935 142.559 16.1543C142.719 16.3151 142.8 16.5098 142.8 16.7383C142.8 16.9626 142.719 17.1572 142.559 17.3223C142.398 17.4831 142.203 17.5635 141.975 17.5635ZM145.275 17.5635C145.051 17.5635 144.856 17.4831 144.691 17.3223C144.531 17.1572 144.45 16.9626 144.45 16.7383C144.45 16.5098 144.531 16.3151 144.691 16.1543C144.856 15.9935 145.051 15.9131 145.275 15.9131C145.504 15.9131 145.699 15.9935 145.859 16.1543C146.02 16.3151 146.101 16.5098 146.101 16.7383C146.101 16.9626 146.02 17.1572 145.859 17.3223C145.699 17.4831 145.504 17.5635 145.275 17.5635ZM148.576 17.5635C148.352 17.5635 148.157 17.4831 147.992 17.3223C147.831 17.1572 147.751 16.9626 147.751 16.7383C147.751 16.5098 147.831 16.3151 147.992 16.1543C148.157 15.9935 148.352 15.9131 148.576 15.9131C148.805 15.9131 148.999 15.9935 149.16 16.1543C149.321 16.3151 149.401 16.5098 149.401 16.7383C149.401 16.9626 149.321 17.1572 149.16 17.3223C148.999 17.4831 148.805 17.5635 148.576 17.5635Z" fill="black" fill-opacity="0.25"/>
</svg>
