<svg width="431" height="37" viewBox="0 0 431 37" fill="none" xmlns="http://www.w3.org/2000/svg">
<mask id="path-1-inside-1_524_9022" fill="white">
<path d="M0 0H431V37H0V0Z"/>
</mask>
<path d="M431 36H0V38H431V36Z" fill="black" fill-opacity="0.05" mask="url(#path-1-inside-1_524_9022)"/>
<path d="M1.16797 23.5V14.3403H2.31055V22.4717H6.72852V23.5H1.16797ZM10.2959 23.6206C9.86426 23.6206 9.47493 23.5381 9.12793 23.373C8.78516 23.208 8.51221 22.9731 8.30908 22.6685C8.11019 22.3638 8.01074 22.0041 8.01074 21.5894V21.5767C8.01074 21.1704 8.10807 20.8234 8.30273 20.5356C8.4974 20.2437 8.78092 20.0151 9.15332 19.8501C9.52572 19.6851 9.9764 19.5877 10.5054 19.5581L13.019 19.4058V20.2881L10.6387 20.4404C10.1182 20.4701 9.7373 20.578 9.49609 20.7642C9.25911 20.9504 9.14062 21.2127 9.14062 21.5513V21.564C9.14062 21.911 9.27181 22.1818 9.53418 22.3765C9.79655 22.5669 10.1266 22.6621 10.5244 22.6621C10.901 22.6621 11.2354 22.5881 11.5273 22.4399C11.8193 22.2876 12.0479 22.0824 12.2129 21.8242C12.3822 21.5661 12.4668 21.2741 12.4668 20.9482V18.8154C12.4668 18.3923 12.3377 18.0706 12.0796 17.8506C11.8257 17.6263 11.4427 17.5142 10.9307 17.5142C10.5202 17.5142 10.1838 17.5882 9.92139 17.7363C9.65902 17.8802 9.4834 18.0854 9.39453 18.3521L9.38818 18.3711H8.28369L8.29004 18.333C8.34928 17.9733 8.4974 17.6602 8.73438 17.3936C8.97559 17.1227 9.28662 16.9132 9.66748 16.7651C10.0483 16.6128 10.4821 16.5366 10.9688 16.5366C11.5273 16.5366 11.9992 16.6276 12.3843 16.8096C12.7736 16.9915 13.0677 17.2539 13.2666 17.5967C13.4697 17.9352 13.5713 18.3415 13.5713 18.8154V23.5H12.4668V22.4907H12.3652C12.2214 22.7319 12.0457 22.9372 11.8384 23.1064C11.6353 23.2757 11.4046 23.4048 11.1465 23.4937C10.8883 23.5783 10.6048 23.6206 10.2959 23.6206ZM17.9385 23.6206C17.4307 23.6206 16.9821 23.5444 16.5928 23.3921C16.2035 23.2355 15.8903 23.0176 15.6533 22.7383C15.4206 22.459 15.283 22.131 15.2407 21.7544H16.3706C16.4637 22.0379 16.6457 22.2664 16.9165 22.4399C17.1873 22.6134 17.5407 22.7002 17.9766 22.7002C18.2855 22.7002 18.5563 22.6558 18.7891 22.5669C19.026 22.4738 19.2122 22.349 19.3477 22.1924C19.4831 22.0316 19.5508 21.8475 19.5508 21.6401V21.6274C19.5508 21.3947 19.4577 21.1979 19.2715 21.0371C19.0853 20.8721 18.7806 20.7388 18.3574 20.6372L17.2974 20.3833C16.87 20.2817 16.5187 20.1506 16.2437 19.9897C15.9686 19.8247 15.7655 19.6237 15.6343 19.3867C15.5031 19.1455 15.4375 18.862 15.4375 18.5361V18.5298C15.4375 18.1489 15.5475 17.8083 15.7676 17.5078C15.9919 17.2074 16.2965 16.9704 16.6816 16.7969C17.0667 16.6234 17.5005 16.5366 17.9829 16.5366C18.4611 16.5366 18.8843 16.6128 19.2524 16.7651C19.6248 16.9132 19.9232 17.1248 20.1475 17.3999C20.376 17.675 20.5156 17.9987 20.5664 18.3711H19.481C19.409 18.1003 19.244 17.8802 18.9858 17.7109C18.7277 17.5417 18.3913 17.457 17.9766 17.457C17.7057 17.457 17.4645 17.5015 17.2529 17.5903C17.0413 17.675 16.8742 17.7935 16.7515 17.9458C16.6287 18.0981 16.5674 18.2759 16.5674 18.479V18.4917C16.5674 18.644 16.6076 18.7795 16.688 18.8979C16.7684 19.0164 16.8932 19.1201 17.0625 19.209C17.2318 19.2979 17.4497 19.3761 17.7163 19.4438L18.77 19.6978C19.4132 19.8543 19.8914 20.0786 20.2046 20.3706C20.522 20.6626 20.6807 21.054 20.6807 21.5449V21.5576C20.6807 21.9639 20.5601 22.3236 20.3188 22.6367C20.0776 22.9456 19.7497 23.1868 19.335 23.3604C18.9245 23.5339 18.459 23.6206 17.9385 23.6206ZM24.7622 23.5508C24.0597 23.5508 23.5498 23.409 23.2324 23.1255C22.9193 22.842 22.7627 22.3743 22.7627 21.7227V17.5713H21.6836V16.6572H22.7627V14.8862H23.9053V16.6572H25.4033V17.5713H23.9053V21.4434C23.9053 21.8454 23.9814 22.1353 24.1338 22.313C24.2861 22.4865 24.54 22.5732 24.8955 22.5732C24.9928 22.5732 25.0754 22.5711 25.1431 22.5669C25.215 22.5627 25.3018 22.5563 25.4033 22.5479V23.4873C25.2975 23.5042 25.1917 23.519 25.0859 23.5317C24.9801 23.5444 24.8722 23.5508 24.7622 23.5508ZM30.8496 23.5V14.3403H31.9604L37.21 21.8687L36.4482 21.4688H37.0322V14.3403H38.1621V23.5H37.0513L31.8018 15.9971L32.5635 16.397H31.9795V23.5H30.8496ZM42.2373 23.6206C41.8057 23.6206 41.4163 23.5381 41.0693 23.373C40.7266 23.208 40.4536 22.9731 40.2505 22.6685C40.0516 22.3638 39.9521 22.0041 39.9521 21.5894V21.5767C39.9521 21.1704 40.0495 20.8234 40.2441 20.5356C40.4388 20.2437 40.7223 20.0151 41.0947 19.8501C41.4671 19.6851 41.9178 19.5877 42.4468 19.5581L44.9604 19.4058V20.2881L42.5801 20.4404C42.0596 20.4701 41.6787 20.578 41.4375 20.7642C41.2005 20.9504 41.082 21.2127 41.082 21.5513V21.564C41.082 21.911 41.2132 22.1818 41.4756 22.3765C41.738 22.5669 42.068 22.6621 42.4658 22.6621C42.8424 22.6621 43.1768 22.5881 43.4688 22.4399C43.7607 22.2876 43.9893 22.0824 44.1543 21.8242C44.3236 21.5661 44.4082 21.2741 44.4082 20.9482V18.8154C44.4082 18.3923 44.2791 18.0706 44.021 17.8506C43.7671 17.6263 43.3841 17.5142 42.8721 17.5142C42.4616 17.5142 42.1252 17.5882 41.8628 17.7363C41.6004 17.8802 41.4248 18.0854 41.3359 18.3521L41.3296 18.3711H40.2251L40.2314 18.333C40.2907 17.9733 40.4388 17.6602 40.6758 17.3936C40.917 17.1227 41.228 16.9132 41.6089 16.7651C41.9897 16.6128 42.4235 16.5366 42.9102 16.5366C43.4688 16.5366 43.9406 16.6276 44.3257 16.8096C44.715 16.9915 45.0091 17.2539 45.208 17.5967C45.4111 17.9352 45.5127 18.3415 45.5127 18.8154V23.5H44.4082V22.4907H44.3066C44.1628 22.7319 43.9871 22.9372 43.7798 23.1064C43.5767 23.2757 43.346 23.4048 43.0879 23.4937C42.8298 23.5783 42.5462 23.6206 42.2373 23.6206ZM47.5312 23.5V16.6572H48.6357V17.6982H48.7373C48.8896 17.3301 49.1224 17.0444 49.4355 16.8413C49.7529 16.6382 50.1359 16.5366 50.5845 16.5366C50.8934 16.5366 51.1706 16.5874 51.416 16.689C51.6615 16.7905 51.873 16.9323 52.0508 17.1143C52.2285 17.292 52.3703 17.4993 52.4761 17.7363H52.5776C52.7004 17.4951 52.8654 17.2856 53.0728 17.1079C53.2801 16.9259 53.5192 16.7863 53.79 16.689C54.0651 16.5874 54.3592 16.5366 54.6724 16.5366C55.1379 16.5366 55.5314 16.6234 55.853 16.7969C56.1789 16.9704 56.4264 17.2243 56.5957 17.5586C56.765 17.8887 56.8496 18.2928 56.8496 18.771V23.5H55.7451V19.0249C55.7451 18.6864 55.6922 18.4071 55.5864 18.187C55.4849 17.9627 55.3283 17.7956 55.1167 17.6855C54.9051 17.5713 54.6385 17.5142 54.3169 17.5142C53.9995 17.5142 53.7223 17.5861 53.4854 17.73C53.2484 17.8739 53.0643 18.0664 52.9331 18.3076C52.8019 18.5446 52.7363 18.8091 52.7363 19.1011V23.5H51.6318V18.8535C51.6318 18.5827 51.5726 18.3478 51.4541 18.1489C51.3398 17.9458 51.1748 17.7892 50.959 17.6792C50.7474 17.5692 50.4977 17.5142 50.21 17.5142C49.9137 17.5142 49.645 17.5924 49.4038 17.749C49.1668 17.9056 48.9785 18.1172 48.8389 18.3838C48.7035 18.6462 48.6357 18.9382 48.6357 19.2598V23.5H47.5312ZM61.6357 23.6206C60.984 23.6206 60.4233 23.4767 59.9536 23.189C59.4881 22.9012 59.1284 22.495 58.8745 21.9702C58.6248 21.4412 58.5 20.8192 58.5 20.104V20.0977C58.5 19.391 58.6248 18.771 58.8745 18.2378C59.1284 17.7046 59.486 17.2878 59.9473 16.9873C60.4085 16.6868 60.9481 16.5366 61.5659 16.5366C62.188 16.5366 62.7212 16.6805 63.1655 16.9683C63.6141 17.256 63.9569 17.658 64.1938 18.1743C64.4351 18.6864 64.5557 19.283 64.5557 19.9644V20.396H59.0713V19.5137H63.9907L63.4448 20.3198V19.8818C63.4448 19.3444 63.3644 18.9022 63.2036 18.5552C63.0428 18.2082 62.8206 17.95 62.5371 17.7808C62.2536 17.6073 61.9277 17.5205 61.5596 17.5205C61.1914 17.5205 60.8613 17.6115 60.5693 17.7935C60.2816 17.9712 60.0531 18.2357 59.8838 18.5869C59.7145 18.9382 59.6299 19.3698 59.6299 19.8818V20.3198C59.6299 20.8065 59.7124 21.2233 59.8774 21.5703C60.0425 21.9131 60.2773 22.1776 60.582 22.3638C60.8867 22.5457 61.2464 22.6367 61.6611 22.6367C61.9701 22.6367 62.2388 22.5944 62.4673 22.5098C62.6958 22.4251 62.8841 22.3172 63.0322 22.186C63.1803 22.0549 63.284 21.9215 63.3433 21.7861L63.3687 21.729H64.4731L64.4604 21.7798C64.4012 22.0125 64.2954 22.2389 64.1431 22.459C63.995 22.6748 63.8024 22.8716 63.5654 23.0493C63.3285 23.2228 63.047 23.3625 62.7212 23.4683C62.3996 23.5698 62.0378 23.6206 61.6357 23.6206Z" fill="black" fill-opacity="0.85"/>
</svg>
