<svg width="162" height="25" viewBox="0 0 162 25" fill="none" xmlns="http://www.w3.org/2000/svg">
<rect x="0.75" y="0.75" width="160.5" height="23.5" rx="5.25" stroke="black" stroke-opacity="0.1" stroke-width="0.5"/>
<path d="M73.166 17.7158C72.4889 17.7158 71.9092 17.5212 71.4268 17.1318C70.9486 16.7425 70.5804 16.1903 70.3223 15.4751C70.0641 14.7557 69.9351 13.9051 69.9351 12.9233V12.9106C69.9351 11.9289 70.0641 11.0804 70.3223 10.3652C70.5804 9.65007 70.9486 9.09782 71.4268 8.7085C71.9092 8.31917 72.4889 8.12451 73.166 8.12451C73.8431 8.12451 74.4229 8.31917 74.9053 8.7085C75.3877 9.09782 75.758 9.65007 76.0161 10.3652C76.2785 11.0804 76.4097 11.9289 76.4097 12.9106V12.9233C76.4097 13.9051 76.2785 14.7557 76.0161 15.4751C75.758 16.1903 75.3877 16.7425 74.9053 17.1318C74.4229 17.5212 73.8431 17.7158 73.166 17.7158ZM73.166 16.7192C73.6061 16.7192 73.9806 16.5648 74.2896 16.2559C74.6027 15.9469 74.8418 15.509 75.0068 14.9419C75.1761 14.3748 75.2607 13.702 75.2607 12.9233V12.9106C75.2607 12.132 75.1761 11.4613 75.0068 10.8984C74.8418 10.3314 74.6027 9.89551 74.2896 9.59082C73.9806 9.2819 73.6061 9.12744 73.166 9.12744C72.7301 9.12744 72.3556 9.2819 72.0425 9.59082C71.7336 9.89551 71.4966 10.3314 71.3315 10.8984C71.1665 11.4613 71.084 12.132 71.084 12.9106V12.9233C71.084 13.702 71.1665 14.3748 71.3315 14.9419C71.4966 15.509 71.7336 15.9469 72.0425 16.2559C72.3556 16.5648 72.7301 16.7192 73.166 16.7192ZM78.4155 17.5L82.5288 9.45117V9.3623H77.6284V8.34033H83.6904V9.40039L79.6152 17.5H78.4155ZM84.979 17.5L88.375 12.498L88.1021 13.3804V12.8726L85.0171 8.34033H86.3945L88.8447 12.0283H89.3652L88.6099 12.4346L91.3584 8.34033H92.6597L89.4922 12.9297V13.4375L89.2192 12.5552L92.5898 17.5H91.2188L88.7812 13.8438H88.2607L89.0161 13.4438L86.2739 17.5H84.979ZM93.8022 17.5L97.1982 12.498L96.9253 13.3804V12.8726L93.8403 8.34033H95.2178L97.668 12.0283H98.1885L97.4331 12.4346L100.182 8.34033H101.483L98.3154 12.9297V13.4375L98.0425 12.5552L101.413 17.5H100.042L97.6045 13.8438H97.084L97.8394 13.4438L95.0972 17.5H93.8022ZM102.625 17.5L106.021 12.498L105.749 13.3804V12.8726L102.664 8.34033H104.041L106.491 12.0283H107.012L106.256 12.4346L109.005 8.34033H110.306L107.139 12.9297V13.4375L106.866 12.5552L110.236 17.5H108.865L106.428 13.8438H105.907L106.663 13.4438L103.92 17.5H102.625ZM111.449 17.5L114.845 12.498L114.572 13.3804V12.8726L111.487 8.34033H112.864L115.314 12.0283H115.835L115.08 12.4346L117.828 8.34033H119.129L115.962 12.9297V13.4375L115.689 12.5552L119.06 17.5H117.688L115.251 13.8438H114.73L115.486 13.4438L112.744 17.5H111.449ZM120.272 17.5L123.668 12.498L123.395 13.3804V12.8726L120.31 8.34033H121.688L124.138 12.0283H124.658L123.903 12.4346L126.651 8.34033H127.953L124.785 12.9297V13.4375L124.512 12.5552L127.883 17.5H126.512L124.074 13.8438H123.554L124.309 13.4438L121.567 17.5H120.272ZM129.095 17.5L132.491 12.498L132.218 13.3804V12.8726L129.133 8.34033H130.511L132.961 12.0283H133.481L132.726 12.4346L135.475 8.34033H136.776L133.608 12.9297V13.4375L133.335 12.5552L136.706 17.5H135.335L132.897 13.8438H132.377L133.132 13.4438L130.39 17.5H129.095ZM137.918 17.5L141.314 12.498L141.042 13.3804V12.8726L137.957 8.34033H139.334L141.784 12.0283H142.305L141.549 12.4346L144.298 8.34033H145.599L142.432 12.9297V13.4375L142.159 12.5552L145.529 17.5H144.158L141.721 13.8438H141.2L141.956 13.4438L139.213 17.5H137.918ZM146.742 17.5L150.138 12.498L149.865 13.3804V12.8726L146.78 8.34033H148.157L150.607 12.0283H151.128L150.373 12.4346L153.121 8.34033H154.422L151.255 12.9297V13.4375L150.982 12.5552L154.353 17.5H152.981L150.544 13.8438H150.023L150.779 13.4438L148.037 17.5H146.742Z" fill="black" fill-opacity="0.25"/>
</svg>
