<svg width="431" height="37" viewBox="0 0 431 37" fill="none" xmlns="http://www.w3.org/2000/svg">
<mask id="path-1-inside-1_524_9029" fill="white">
<path d="M0 0H431V37H0V0Z"/>
</mask>
<path d="M431 36H0V38H431V36Z" fill="black" fill-opacity="0.05" mask="url(#path-1-inside-1_524_9029)"/>
<path d="M1.73926 20.231V19.2153H4.3291C4.98503 19.2153 5.49284 19.0461 5.85254 18.7075C6.21224 18.3647 6.39209 17.8929 6.39209 17.292V17.2793C6.39209 16.6742 6.21224 16.2023 5.85254 15.8638C5.49284 15.5252 4.98503 15.356 4.3291 15.356H1.73926V14.3403H4.62109C5.19661 14.3403 5.70443 14.4631 6.14453 14.7085C6.58464 14.9539 6.92952 15.2967 7.1792 15.7368C7.43311 16.1769 7.56006 16.6868 7.56006 17.2666V17.2793C7.56006 17.859 7.43311 18.3711 7.1792 18.8154C6.92952 19.2598 6.58464 19.6068 6.14453 19.8564C5.70443 20.1061 5.19661 20.231 4.62109 20.231H1.73926ZM1.16797 23.5V14.3403H2.31055V23.5H1.16797ZM9.35645 23.5V13.9404H10.4609V17.6855H10.5625C10.736 17.3216 10.9857 17.0402 11.3115 16.8413C11.6374 16.6382 12.0521 16.5366 12.5557 16.5366C13.0677 16.5366 13.5015 16.6361 13.8569 16.835C14.2124 17.0296 14.4832 17.3153 14.6694 17.6919C14.8556 18.0685 14.9487 18.5277 14.9487 19.0693V23.5H13.8442V19.3359C13.8442 18.7181 13.7131 18.2611 13.4507 17.9648C13.1925 17.6644 12.7905 17.5142 12.2446 17.5142C11.8807 17.5142 11.5654 17.5924 11.2988 17.749C11.0322 17.9056 10.8249 18.1278 10.6768 18.4155C10.5329 18.7033 10.4609 19.0482 10.4609 19.4502V23.5H9.35645ZM19.7603 23.6206C19.1128 23.6206 18.5521 23.4788 18.0781 23.1953C17.6084 22.9076 17.2445 22.4992 16.9863 21.9702C16.7324 21.4412 16.6055 20.8128 16.6055 20.085V20.0723C16.6055 19.3402 16.7324 18.7096 16.9863 18.1807C17.2445 17.6517 17.6084 17.2454 18.0781 16.9619C18.5521 16.6784 19.1128 16.5366 19.7603 16.5366C20.4119 16.5366 20.9727 16.6784 21.4424 16.9619C21.9121 17.2454 22.2739 17.6517 22.5278 18.1807C22.786 18.7096 22.915 19.3402 22.915 20.0723V20.085C22.915 20.8128 22.786 21.4412 22.5278 21.9702C22.2739 22.4992 21.9121 22.9076 21.4424 23.1953C20.9727 23.4788 20.4119 23.6206 19.7603 23.6206ZM19.7603 22.6431C20.1919 22.6431 20.5579 22.5415 20.8584 22.3384C21.1589 22.1353 21.3874 21.8433 21.5439 21.4624C21.7048 21.0815 21.7852 20.6224 21.7852 20.085V20.0723C21.7852 19.5306 21.7048 19.0693 21.5439 18.6885C21.3874 18.3076 21.1589 18.0177 20.8584 17.8188C20.5579 17.6157 20.1919 17.5142 19.7603 17.5142C19.3286 17.5142 18.9626 17.6157 18.6621 17.8188C18.3617 18.0177 18.131 18.3076 17.9702 18.6885C17.8136 19.0693 17.7354 19.5306 17.7354 20.0723V20.085C17.7354 20.6224 17.8136 21.0815 17.9702 21.4624C18.131 21.8433 18.3617 22.1353 18.6621 22.3384C18.9626 22.5415 19.3286 22.6431 19.7603 22.6431ZM24.6289 23.5V16.6572H25.7334V17.6855H25.835C26.0085 17.3216 26.2581 17.0402 26.584 16.8413C26.9098 16.6382 27.3245 16.5366 27.8281 16.5366C28.5983 16.5366 29.1886 16.7567 29.5991 17.1968C30.0138 17.6326 30.2212 18.2568 30.2212 19.0693V23.5H29.1167V19.3359C29.1167 18.7181 28.9855 18.2611 28.7231 17.9648C28.465 17.6644 28.063 17.5142 27.5171 17.5142C27.1532 17.5142 26.8379 17.5924 26.5713 17.749C26.3047 17.9056 26.0973 18.1278 25.9492 18.4155C25.8053 18.7033 25.7334 19.0482 25.7334 19.4502V23.5H24.6289ZM35.0137 23.6206C34.362 23.6206 33.8013 23.4767 33.3315 23.189C32.866 22.9012 32.5063 22.495 32.2524 21.9702C32.0028 21.4412 31.8779 20.8192 31.8779 20.104V20.0977C31.8779 19.391 32.0028 18.771 32.2524 18.2378C32.5063 17.7046 32.8639 17.2878 33.3252 16.9873C33.7865 16.6868 34.326 16.5366 34.9438 16.5366C35.5659 16.5366 36.0991 16.6805 36.5435 16.9683C36.992 17.256 37.3348 17.658 37.5718 18.1743C37.813 18.6864 37.9336 19.283 37.9336 19.9644V20.396H32.4492V19.5137H37.3687L36.8228 20.3198V19.8818C36.8228 19.3444 36.7424 18.9022 36.5815 18.5552C36.4207 18.2082 36.1986 17.95 35.915 17.7808C35.6315 17.6073 35.3057 17.5205 34.9375 17.5205C34.5693 17.5205 34.2393 17.6115 33.9473 17.7935C33.6595 17.9712 33.431 18.2357 33.2617 18.5869C33.0924 18.9382 33.0078 19.3698 33.0078 19.8818V20.3198C33.0078 20.8065 33.0903 21.2233 33.2554 21.5703C33.4204 21.9131 33.6553 22.1776 33.96 22.3638C34.2646 22.5457 34.6243 22.6367 35.0391 22.6367C35.348 22.6367 35.6167 22.5944 35.8452 22.5098C36.0737 22.4251 36.262 22.3172 36.4102 22.186C36.5583 22.0549 36.6619 21.9215 36.7212 21.7861L36.7466 21.729H37.8511L37.8384 21.7798C37.7791 22.0125 37.6733 22.2389 37.521 22.459C37.3729 22.6748 37.1803 22.8716 36.9434 23.0493C36.7064 23.2228 36.425 23.3625 36.0991 23.4683C35.7775 23.5698 35.4157 23.6206 35.0137 23.6206ZM43.4434 23.5V14.3403H44.5542L49.8037 21.8687L49.042 21.4688H49.626V14.3403H50.7559V23.5H49.645L44.3955 15.9971L45.1572 16.397H44.5732V23.5H43.4434ZM55.2437 23.6206C54.7274 23.6206 54.2936 23.5233 53.9424 23.3286C53.5911 23.1297 53.3267 22.842 53.1489 22.4653C52.9754 22.0845 52.8887 21.6253 52.8887 21.0879V16.6572H53.9932V20.8213C53.9932 21.4349 54.1117 21.8919 54.3486 22.1924C54.5898 22.4928 54.9834 22.6431 55.5293 22.6431C55.8298 22.6431 56.0942 22.5986 56.3228 22.5098C56.5555 22.4209 56.7502 22.2939 56.9067 22.1289C57.0633 21.9596 57.1797 21.7565 57.2559 21.5195C57.3363 21.2783 57.3765 21.0075 57.3765 20.707V16.6572H58.481V23.5H57.3765V22.478H57.2749C57.1649 22.7192 57.0146 22.9266 56.8242 23.1001C56.6338 23.2694 56.4053 23.3984 56.1387 23.4873C55.8763 23.5762 55.578 23.6206 55.2437 23.6206ZM60.5439 23.5V16.6572H61.6484V17.6982H61.75C61.9023 17.3301 62.1351 17.0444 62.4482 16.8413C62.7656 16.6382 63.1486 16.5366 63.5972 16.5366C63.9061 16.5366 64.1833 16.5874 64.4287 16.689C64.6742 16.7905 64.8857 16.9323 65.0635 17.1143C65.2412 17.292 65.383 17.4993 65.4888 17.7363H65.5903C65.7131 17.4951 65.8781 17.2856 66.0854 17.1079C66.2928 16.9259 66.5319 16.7863 66.8027 16.689C67.0778 16.5874 67.3719 16.5366 67.6851 16.5366C68.1506 16.5366 68.5441 16.6234 68.8657 16.7969C69.1916 16.9704 69.4391 17.2243 69.6084 17.5586C69.7777 17.8887 69.8623 18.2928 69.8623 18.771V23.5H68.7578V19.0249C68.7578 18.6864 68.7049 18.4071 68.5991 18.187C68.4976 17.9627 68.341 17.7956 68.1294 17.6855C67.9178 17.5713 67.6512 17.5142 67.3296 17.5142C67.0122 17.5142 66.735 17.5861 66.498 17.73C66.2611 17.8739 66.077 18.0664 65.9458 18.3076C65.8146 18.5446 65.749 18.8091 65.749 19.1011V23.5H64.6445V18.8535C64.6445 18.5827 64.5853 18.3478 64.4668 18.1489C64.3525 17.9458 64.1875 17.7892 63.9717 17.6792C63.7601 17.5692 63.5104 17.5142 63.2227 17.5142C62.9264 17.5142 62.6577 17.5924 62.4165 17.749C62.1795 17.9056 61.9912 18.1172 61.8516 18.3838C61.7161 18.6462 61.6484 18.9382 61.6484 19.2598V23.5H60.5439ZM75.2578 23.6206C74.9404 23.6206 74.6463 23.5719 74.3755 23.4746C74.1047 23.3773 73.8634 23.2397 73.6519 23.062C73.4403 22.88 73.2646 22.6621 73.125 22.4082H73.0234V23.5H71.9189V13.9404H73.0234V17.7363H73.125C73.252 17.4909 73.4212 17.2793 73.6328 17.1016C73.8486 16.9238 74.0941 16.7863 74.3691 16.689C74.6484 16.5874 74.9447 16.5366 75.2578 16.5366C75.8376 16.5366 76.3411 16.6826 76.7686 16.9746C77.2002 17.2666 77.5345 17.6771 77.7715 18.2061C78.0085 18.735 78.127 19.3571 78.127 20.0723V20.085C78.127 20.7959 78.0085 21.418 77.7715 21.9512C77.5345 22.4801 77.2002 22.8906 76.7686 23.1826C76.3411 23.4746 75.8376 23.6206 75.2578 23.6206ZM75.0039 22.6431C75.4229 22.6431 75.7804 22.5415 76.0767 22.3384C76.3729 22.131 76.5993 21.8369 76.7559 21.4561C76.9167 21.071 76.9971 20.6139 76.9971 20.085V20.0723C76.9971 19.5391 76.9167 19.082 76.7559 18.7012C76.5993 18.3203 76.3729 18.0283 76.0767 17.8252C75.7804 17.6178 75.4229 17.5142 75.0039 17.5142C74.5892 17.5142 74.2316 17.6178 73.9312 17.8252C73.6307 18.0326 73.4001 18.3267 73.2393 18.7075C73.0785 19.0884 72.998 19.5433 72.998 20.0723V20.085C72.998 20.6097 73.0785 21.0646 73.2393 21.4497C73.4001 21.8306 73.6307 22.1247 73.9312 22.332C74.2316 22.5394 74.5892 22.6431 75.0039 22.6431ZM82.6338 23.6206C81.9821 23.6206 81.4214 23.4767 80.9517 23.189C80.4862 22.9012 80.1265 22.495 79.8726 21.9702C79.6229 21.4412 79.498 20.8192 79.498 20.104V20.0977C79.498 19.391 79.6229 18.771 79.8726 18.2378C80.1265 17.7046 80.484 17.2878 80.9453 16.9873C81.4066 16.6868 81.9461 16.5366 82.564 16.5366C83.186 16.5366 83.7192 16.6805 84.1636 16.9683C84.6121 17.256 84.9549 17.658 85.1919 18.1743C85.4331 18.6864 85.5537 19.283 85.5537 19.9644V20.396H80.0693V19.5137H84.9888L84.4429 20.3198V19.8818C84.4429 19.3444 84.3625 18.9022 84.2017 18.5552C84.0409 18.2082 83.8187 17.95 83.5352 17.7808C83.2516 17.6073 82.9258 17.5205 82.5576 17.5205C82.1895 17.5205 81.8594 17.6115 81.5674 17.7935C81.2796 17.9712 81.0511 18.2357 80.8818 18.5869C80.7126 18.9382 80.6279 19.3698 80.6279 19.8818V20.3198C80.6279 20.8065 80.7104 21.2233 80.8755 21.5703C81.0405 21.9131 81.2754 22.1776 81.5801 22.3638C81.8848 22.5457 82.2445 22.6367 82.6592 22.6367C82.9681 22.6367 83.2368 22.5944 83.4653 22.5098C83.6938 22.4251 83.8822 22.3172 84.0303 22.186C84.1784 22.0549 84.2821 21.9215 84.3413 21.7861L84.3667 21.729H85.4712L85.4585 21.7798C85.3993 22.0125 85.2935 22.2389 85.1411 22.459C84.993 22.6748 84.8005 22.8716 84.5635 23.0493C84.3265 23.2228 84.0451 23.3625 83.7192 23.4683C83.3976 23.5698 83.0358 23.6206 82.6338 23.6206ZM87.2676 23.5V16.6572H88.3721V17.6729H88.4736C88.6048 17.3132 88.827 17.0339 89.1401 16.835C89.4533 16.6361 89.8405 16.5366 90.3018 16.5366C90.4076 16.5366 90.5112 16.543 90.6128 16.5557C90.7186 16.5641 90.799 16.5726 90.854 16.5811V17.6538C90.7397 17.6326 90.6276 17.6178 90.5176 17.6094C90.4118 17.5967 90.2975 17.5903 90.1748 17.5903C89.8236 17.5903 89.5125 17.6602 89.2417 17.7998C88.9709 17.9395 88.7572 18.1341 88.6006 18.3838C88.4482 18.6335 88.3721 18.9255 88.3721 19.2598V23.5H87.2676Z" fill="black" fill-opacity="0.85"/>
</svg>
