<svg width="162" height="25" viewBox="0 0 162 25" fill="none" xmlns="http://www.w3.org/2000/svg">
<rect x="0.75" y="0.75" width="160.5" height="23.5" rx="5.25" stroke="black" stroke-opacity="0.1" stroke-width="0.5"/>
<path d="M128.207 17.7158C127.809 17.7158 127.455 17.6587 127.146 17.5444C126.838 17.4302 126.575 17.2694 126.359 17.062C126.144 16.8547 125.974 16.6113 125.852 16.332C125.729 16.0527 125.655 15.748 125.629 15.418L125.623 15.3291H126.766L126.772 15.3926C126.797 15.6211 126.865 15.8327 126.975 16.0273C127.085 16.2178 127.242 16.3722 127.445 16.4907C127.648 16.605 127.9 16.6621 128.2 16.6621C128.708 16.6621 129.095 16.5161 129.362 16.2241C129.628 15.9279 129.762 15.5005 129.762 14.9419V8.34033H130.904V14.9546C130.904 15.5301 130.796 16.0252 130.581 16.4399C130.369 16.8504 130.062 17.1657 129.66 17.3857C129.258 17.6058 128.774 17.7158 128.207 17.7158ZM135.913 17.6206C135.265 17.6206 134.704 17.4788 134.23 17.1953C133.761 16.9076 133.397 16.4992 133.139 15.9702C132.885 15.4412 132.758 14.8128 132.758 14.085V14.0723C132.758 13.3402 132.885 12.7096 133.139 12.1807C133.397 11.6517 133.761 11.2454 134.23 10.9619C134.704 10.6784 135.265 10.5366 135.913 10.5366C136.564 10.5366 137.125 10.6784 137.595 10.9619C138.064 11.2454 138.426 11.6517 138.68 12.1807C138.938 12.7096 139.067 13.3402 139.067 14.0723V14.085C139.067 14.8128 138.938 15.4412 138.68 15.9702C138.426 16.4992 138.064 16.9076 137.595 17.1953C137.125 17.4788 136.564 17.6206 135.913 17.6206ZM135.913 16.6431C136.344 16.6431 136.71 16.5415 137.011 16.3384C137.311 16.1353 137.54 15.8433 137.696 15.4624C137.857 15.0815 137.938 14.6224 137.938 14.085V14.0723C137.938 13.5306 137.857 13.0693 137.696 12.6885C137.54 12.3076 137.311 12.0177 137.011 11.8188C136.71 11.6157 136.344 11.5142 135.913 11.5142C135.481 11.5142 135.115 11.6157 134.814 11.8188C134.514 12.0177 134.283 12.3076 134.123 12.6885C133.966 13.0693 133.888 13.5306 133.888 14.0723V14.085C133.888 14.6224 133.966 15.0815 134.123 15.4624C134.283 15.8433 134.514 16.1353 134.814 16.3384C135.115 16.5415 135.481 16.6431 135.913 16.6431ZM140.845 17.5V7.94043H141.949V11.6855H142.051C142.224 11.3216 142.474 11.0402 142.8 10.8413C143.126 10.6382 143.54 10.5366 144.044 10.5366C144.556 10.5366 144.99 10.6361 145.345 10.835C145.701 11.0296 145.972 11.3153 146.158 11.6919C146.344 12.0685 146.437 12.5277 146.437 13.0693V17.5H145.333V13.3359C145.333 12.7181 145.201 12.2611 144.939 11.9648C144.681 11.6644 144.279 11.5142 143.733 11.5142C143.369 11.5142 143.054 11.5924 142.787 11.749C142.521 11.9056 142.313 12.1278 142.165 12.4155C142.021 12.7033 141.949 13.0482 141.949 13.4502V17.5H140.845ZM148.437 17.5V10.6572H149.541V11.6855H149.643C149.816 11.3216 150.066 11.0402 150.392 10.8413C150.717 10.6382 151.132 10.5366 151.636 10.5366C152.406 10.5366 152.996 10.7567 153.407 11.1968C153.821 11.6326 154.029 12.2568 154.029 13.0693V17.5H152.924V13.3359C152.924 12.7181 152.793 12.2611 152.531 11.9648C152.273 11.6644 151.871 11.5142 151.325 11.5142C150.961 11.5142 150.646 11.5924 150.379 11.749C150.112 11.9056 149.905 12.1278 149.757 12.4155C149.613 12.7033 149.541 13.0482 149.541 13.4502V17.5H148.437Z" fill="black" fill-opacity="0.25"/>
</svg>
