<svg width="162" height="22" viewBox="0 0 162 22" fill="none" xmlns="http://www.w3.org/2000/svg">
<rect x="0.75" y="0.25" width="160.5" height="21.5" rx="5.25" stroke="black" stroke-opacity="0.1" stroke-width="0.5"/>
<g clip-path="url(#clip0_524_9159)">
<rect x="142.5" y="3" width="16" height="16" rx="4" fill="black" fill-opacity="0.05"/>
<path d="M150.5 13.0728C150.295 13.0728 150.106 12.9873 149.933 12.8164L147.468 10.2974C147.404 10.2313 147.357 10.1606 147.325 10.0854C147.295 10.0103 147.28 9.92708 147.28 9.83594C147.28 9.71289 147.31 9.6001 147.369 9.49756C147.431 9.39274 147.512 9.31071 147.612 9.25146C147.714 9.18994 147.826 9.15918 147.947 9.15918C148.134 9.15918 148.3 9.23324 148.446 9.38135L150.62 11.6304H150.387L152.554 9.38135C152.695 9.23324 152.86 9.15918 153.046 9.15918C153.169 9.15918 153.281 9.18994 153.381 9.25146C153.484 9.31071 153.565 9.39274 153.624 9.49756C153.686 9.6001 153.716 9.71289 153.716 9.83594C153.716 10.0182 153.653 10.172 153.525 10.2974L151.064 12.8164C150.975 12.9053 150.885 12.9702 150.794 13.0112C150.705 13.0522 150.607 13.0728 150.5 13.0728Z" fill="black"/>
</g>
<path d="M18.4336 16.7158C17.7988 16.7158 17.2254 16.6037 16.7134 16.3794C16.2056 16.1551 15.7697 15.8335 15.4058 15.4146C15.0461 14.9956 14.7689 14.492 14.5742 13.9038C14.3796 13.3156 14.2822 12.6554 14.2822 11.9233V11.9106C14.2822 10.9458 14.4536 10.1058 14.7964 9.39062C15.1392 8.67122 15.6216 8.11475 16.2437 7.72119C16.87 7.3234 17.5999 7.12451 18.4336 7.12451C19.1107 7.12451 19.7137 7.24512 20.2427 7.48633C20.7759 7.72331 21.2139 8.05762 21.5566 8.48926C21.9036 8.9209 22.1364 9.4266 22.2549 10.0063L22.2676 10.0698H21.1123L21.0933 10.0063C20.9071 9.4139 20.5876 8.9611 20.1348 8.64795C19.682 8.3348 19.1149 8.17822 18.4336 8.17822C17.8285 8.17822 17.3016 8.33268 16.853 8.6416C16.4087 8.94629 16.0638 9.37793 15.8184 9.93652C15.5729 10.4951 15.4502 11.1532 15.4502 11.9106V11.9233C15.4502 12.4989 15.5179 13.0173 15.6533 13.4785C15.793 13.9398 15.9919 14.3333 16.25 14.6592C16.5124 14.9808 16.8276 15.2284 17.1958 15.4019C17.564 15.5754 17.9787 15.6621 18.4399 15.6621C18.9858 15.6621 19.464 15.5542 19.8745 15.3384C20.2892 15.1183 20.6108 14.8136 20.8394 14.4243C21.0679 14.035 21.1821 13.5822 21.1821 13.0659V12.8438H18.6113V11.8408H22.3247V12.958C22.3247 13.5208 22.2316 14.0329 22.0454 14.4941C21.8634 14.9554 21.6011 15.3532 21.2583 15.6875C20.9155 16.0176 20.505 16.2715 20.0269 16.4492C19.5487 16.627 19.0176 16.7158 18.4336 16.7158ZM27.0029 16.6206C26.3512 16.6206 25.7905 16.4767 25.3208 16.189C24.8553 15.9012 24.4956 15.495 24.2417 14.9702C23.992 14.4412 23.8672 13.8192 23.8672 13.104V13.0977C23.8672 12.391 23.992 11.771 24.2417 11.2378C24.4956 10.7046 24.8532 10.2878 25.3145 9.9873C25.7757 9.68685 26.3153 9.53662 26.9331 9.53662C27.5552 9.53662 28.0884 9.6805 28.5327 9.96826C28.9813 10.256 29.3241 10.658 29.561 11.1743C29.8022 11.6864 29.9229 12.283 29.9229 12.9644V13.396H24.4385V12.5137H29.3579L28.812 13.3198V12.8818C28.812 12.3444 28.7316 11.9022 28.5708 11.5552C28.41 11.2082 28.1878 10.95 27.9043 10.7808C27.6208 10.6073 27.2949 10.5205 26.9268 10.5205C26.5586 10.5205 26.2285 10.6115 25.9365 10.7935C25.6488 10.9712 25.4202 11.2357 25.251 11.5869C25.0817 11.9382 24.9971 12.3698 24.9971 12.8818V13.3198C24.9971 13.8065 25.0796 14.2233 25.2446 14.5703C25.4097 14.9131 25.6445 15.1776 25.9492 15.3638C26.2539 15.5457 26.6136 15.6367 27.0283 15.6367C27.3372 15.6367 27.606 15.5944 27.8345 15.5098C28.063 15.4251 28.2513 15.3172 28.3994 15.186C28.5475 15.0549 28.6512 14.9215 28.7104 14.7861L28.7358 14.729H29.8403L29.8276 14.7798C29.7684 15.0125 29.6626 15.2389 29.5103 15.459C29.3621 15.6748 29.1696 15.8716 28.9326 16.0493C28.6956 16.2228 28.4142 16.3625 28.0884 16.4683C27.7668 16.5698 27.4049 16.6206 27.0029 16.6206ZM31.6367 16.5V9.65723H32.7412V10.6855H32.8428C33.0163 10.3216 33.266 10.0402 33.5918 9.84131C33.9176 9.63818 34.3324 9.53662 34.8359 9.53662C35.6061 9.53662 36.1965 9.75667 36.6069 10.1968C37.0216 10.6326 37.229 11.2568 37.229 12.0693V16.5H36.1245V12.3359C36.1245 11.7181 35.9933 11.2611 35.731 10.9648C35.4728 10.6644 35.0708 10.5142 34.5249 10.5142C34.161 10.5142 33.8457 10.5924 33.5791 10.749C33.3125 10.9056 33.1051 11.1278 32.957 11.4155C32.8132 11.7033 32.7412 12.0482 32.7412 12.4502V16.5H31.6367ZM42.0215 16.6206C41.3698 16.6206 40.8091 16.4767 40.3394 16.189C39.8739 15.9012 39.5142 15.495 39.2603 14.9702C39.0106 14.4412 38.8857 13.8192 38.8857 13.104V13.0977C38.8857 12.391 39.0106 11.771 39.2603 11.2378C39.5142 10.7046 39.8717 10.2878 40.333 9.9873C40.7943 9.68685 41.3338 9.53662 41.9517 9.53662C42.5737 9.53662 43.1069 9.6805 43.5513 9.96826C43.9998 10.256 44.3426 10.658 44.5796 11.1743C44.8208 11.6864 44.9414 12.283 44.9414 12.9644V13.396H39.457V12.5137H44.3765L43.8306 13.3198V12.8818C43.8306 12.3444 43.7502 11.9022 43.5894 11.5552C43.4285 11.2082 43.2064 10.95 42.9229 10.7808C42.6393 10.6073 42.3135 10.5205 41.9453 10.5205C41.5771 10.5205 41.2471 10.6115 40.9551 10.7935C40.6673 10.9712 40.4388 11.2357 40.2695 11.5869C40.1003 11.9382 40.0156 12.3698 40.0156 12.8818V13.3198C40.0156 13.8065 40.0981 14.2233 40.2632 14.5703C40.4282 14.9131 40.6631 15.1776 40.9678 15.3638C41.2725 15.5457 41.6322 15.6367 42.0469 15.6367C42.3558 15.6367 42.6245 15.5944 42.853 15.5098C43.0815 15.4251 43.2699 15.3172 43.418 15.186C43.5661 15.0549 43.6698 14.9215 43.729 14.7861L43.7544 14.729H44.8589L44.8462 14.7798C44.7869 15.0125 44.6812 15.2389 44.5288 15.459C44.3807 15.6748 44.1882 15.8716 43.9512 16.0493C43.7142 16.2228 43.4328 16.3625 43.1069 16.4683C42.7853 16.5698 42.4235 16.6206 42.0215 16.6206ZM46.6553 16.5V9.65723H47.7598V10.6729H47.8613C47.9925 10.3132 48.2147 10.0339 48.5278 9.83496C48.841 9.63607 49.2282 9.53662 49.6895 9.53662C49.7952 9.53662 49.8989 9.54297 50.0005 9.55566C50.1063 9.56413 50.1867 9.57259 50.2417 9.58105V10.6538C50.1274 10.6326 50.0153 10.6178 49.9053 10.6094C49.7995 10.5967 49.6852 10.5903 49.5625 10.5903C49.2113 10.5903 48.9002 10.6602 48.6294 10.7998C48.3586 10.9395 48.1449 11.1341 47.9883 11.3838C47.8359 11.6335 47.7598 11.9255 47.7598 12.2598V16.5H46.6553ZM53.4854 16.6206C53.0537 16.6206 52.6644 16.5381 52.3174 16.373C51.9746 16.208 51.7017 15.9731 51.4985 15.6685C51.2996 15.3638 51.2002 15.0041 51.2002 14.5894V14.5767C51.2002 14.1704 51.2975 13.8234 51.4922 13.5356C51.6868 13.2437 51.9704 13.0151 52.3428 12.8501C52.7152 12.6851 53.1659 12.5877 53.6948 12.5581L56.2085 12.4058V13.2881L53.8281 13.4404C53.3076 13.4701 52.9268 13.578 52.6855 13.7642C52.4486 13.9504 52.3301 14.2127 52.3301 14.5513V14.564C52.3301 14.911 52.4613 15.1818 52.7236 15.3765C52.986 15.5669 53.3161 15.6621 53.7139 15.6621C54.0905 15.6621 54.4248 15.5881 54.7168 15.4399C55.0088 15.2876 55.2373 15.0824 55.4023 14.8242C55.5716 14.5661 55.6562 14.2741 55.6562 13.9482V11.8154C55.6562 11.3923 55.5272 11.0706 55.269 10.8506C55.0151 10.6263 54.6322 10.5142 54.1201 10.5142C53.7096 10.5142 53.3732 10.5882 53.1108 10.7363C52.8485 10.8802 52.6729 11.0854 52.584 11.3521L52.5776 11.3711H51.4731L51.4795 11.333C51.5387 10.9733 51.6868 10.6602 51.9238 10.3936C52.165 10.1227 52.4761 9.91325 52.8569 9.76514C53.2378 9.61279 53.6715 9.53662 54.1582 9.53662C54.7168 9.53662 55.1886 9.6276 55.5737 9.80957C55.9631 9.99154 56.2572 10.2539 56.4561 10.5967C56.6592 10.9352 56.7607 11.3415 56.7607 11.8154V16.5H55.6562V15.4907H55.5547C55.4108 15.7319 55.2352 15.9372 55.0278 16.1064C54.8247 16.2757 54.5941 16.4048 54.3359 16.4937C54.0778 16.5783 53.7943 16.6206 53.4854 16.6206ZM58.8428 16.5V6.94043H59.9473V16.5H58.8428ZM65.8633 16.5V7.34033H71.4238V8.36865H67.0059V11.5171H71.062V12.5327H67.0059V16.5H65.8633ZM74.5977 16.6206C74.166 16.6206 73.7767 16.5381 73.4297 16.373C73.0869 16.208 72.814 15.9731 72.6108 15.6685C72.4119 15.3638 72.3125 15.0041 72.3125 14.5894V14.5767C72.3125 14.1704 72.4098 13.8234 72.6045 13.5356C72.7992 13.2437 73.0827 13.0151 73.4551 12.8501C73.8275 12.6851 74.2782 12.5877 74.8071 12.5581L77.3208 12.4058V13.2881L74.9404 13.4404C74.4199 13.4701 74.0391 13.578 73.7979 13.7642C73.5609 13.9504 73.4424 14.2127 73.4424 14.5513V14.564C73.4424 14.911 73.5736 15.1818 73.8359 15.3765C74.0983 15.5669 74.4284 15.6621 74.8262 15.6621C75.2028 15.6621 75.5371 15.5881 75.8291 15.4399C76.1211 15.2876 76.3496 15.0824 76.5146 14.8242C76.6839 14.5661 76.7686 14.2741 76.7686 13.9482V11.8154C76.7686 11.3923 76.6395 11.0706 76.3813 10.8506C76.1274 10.6263 75.7445 10.5142 75.2324 10.5142C74.8219 10.5142 74.4855 10.5882 74.2231 10.7363C73.9608 10.8802 73.7852 11.0854 73.6963 11.3521L73.6899 11.3711H72.5854L72.5918 11.333C72.651 10.9733 72.7992 10.6602 73.0361 10.3936C73.2773 10.1227 73.5884 9.91325 73.9692 9.76514C74.3501 9.61279 74.7839 9.53662 75.2705 9.53662C75.8291 9.53662 76.3009 9.6276 76.686 9.80957C77.0754 9.99154 77.3695 10.2539 77.5684 10.5967C77.7715 10.9352 77.873 11.3415 77.873 11.8154V16.5H76.7686V15.4907H76.667C76.5231 15.7319 76.3475 15.9372 76.1401 16.1064C75.937 16.2757 75.7064 16.4048 75.4482 16.4937C75.1901 16.5783 74.9066 16.6206 74.5977 16.6206ZM79.8916 16.5V9.65723H80.9961V10.6729H81.0977C81.2288 10.3132 81.451 10.0339 81.7642 9.83496C82.0773 9.63607 82.4645 9.53662 82.9258 9.53662C83.0316 9.53662 83.1353 9.54297 83.2368 9.55566C83.3426 9.56413 83.423 9.57259 83.478 9.58105V10.6538C83.3638 10.6326 83.2516 10.6178 83.1416 10.6094C83.0358 10.5967 82.9215 10.5903 82.7988 10.5903C82.4476 10.5903 82.1366 10.6602 81.8657 10.7998C81.5949 10.9395 81.3812 11.1341 81.2246 11.3838C81.0723 11.6335 80.9961 11.9255 80.9961 12.2598V16.5H79.8916ZM84.9697 16.5V9.65723H86.0742V10.6982H86.1758C86.3281 10.3301 86.5609 10.0444 86.874 9.84131C87.1914 9.63818 87.5744 9.53662 88.0229 9.53662C88.3319 9.53662 88.609 9.5874 88.8545 9.68896C89.0999 9.79053 89.3115 9.93229 89.4893 10.1143C89.667 10.292 89.8088 10.4993 89.9146 10.7363H90.0161C90.1388 10.4951 90.3039 10.2856 90.5112 10.1079C90.7186 9.92594 90.9577 9.7863 91.2285 9.68896C91.5036 9.5874 91.7977 9.53662 92.1108 9.53662C92.5763 9.53662 92.9699 9.62337 93.2915 9.79688C93.6174 9.97038 93.8649 10.2243 94.0342 10.5586C94.2035 10.8887 94.2881 11.2928 94.2881 11.771V16.5H93.1836V12.0249C93.1836 11.6864 93.1307 11.4071 93.0249 11.187C92.9233 10.9627 92.7668 10.7956 92.5552 10.6855C92.3436 10.5713 92.077 10.5142 91.7554 10.5142C91.438 10.5142 91.1608 10.5861 90.9238 10.73C90.6868 10.8739 90.5028 11.0664 90.3716 11.3076C90.2404 11.5446 90.1748 11.8091 90.1748 12.1011V16.5H89.0703V11.8535C89.0703 11.5827 89.0111 11.3478 88.8926 11.1489C88.7783 10.9458 88.6133 10.7892 88.3975 10.6792C88.1859 10.5692 87.9362 10.5142 87.6484 10.5142C87.3522 10.5142 87.0835 10.5924 86.8423 10.749C86.6053 10.9056 86.417 11.1172 86.2773 11.3838C86.1419 11.6462 86.0742 11.9382 86.0742 12.2598V16.5H84.9697ZM97.2842 16.5L95.3672 9.65723H96.4717L97.8174 15.1289H97.9189L99.4487 9.65723H100.496L102.026 15.1289H102.127L103.473 9.65723H104.571L102.654 16.5H101.543L100.014 11.2061H99.9121L98.3887 16.5H97.2842ZM108.589 16.6206C107.942 16.6206 107.381 16.4788 106.907 16.1953C106.438 15.9076 106.074 15.4992 105.815 14.9702C105.562 14.4412 105.435 13.8128 105.435 13.085V13.0723C105.435 12.3402 105.562 11.7096 105.815 11.1807C106.074 10.6517 106.438 10.2454 106.907 9.96191C107.381 9.67839 107.942 9.53662 108.589 9.53662C109.241 9.53662 109.802 9.67839 110.271 9.96191C110.741 10.2454 111.103 10.6517 111.357 11.1807C111.615 11.7096 111.744 12.3402 111.744 13.0723V13.085C111.744 13.8128 111.615 14.4412 111.357 14.9702C111.103 15.4992 110.741 15.9076 110.271 16.1953C109.802 16.4788 109.241 16.6206 108.589 16.6206ZM108.589 15.6431C109.021 15.6431 109.387 15.5415 109.688 15.3384C109.988 15.1353 110.216 14.8433 110.373 14.4624C110.534 14.0815 110.614 13.6224 110.614 13.085V13.0723C110.614 12.5306 110.534 12.0693 110.373 11.6885C110.216 11.3076 109.988 11.0177 109.688 10.8188C109.387 10.6157 109.021 10.5142 108.589 10.5142C108.158 10.5142 107.792 10.6157 107.491 10.8188C107.191 11.0177 106.96 11.3076 106.799 11.6885C106.643 12.0693 106.564 12.5306 106.564 13.0723V13.085C106.564 13.6224 106.643 14.0815 106.799 14.4624C106.96 14.8433 107.191 15.1353 107.491 15.3384C107.792 15.5415 108.158 15.6431 108.589 15.6431ZM113.458 16.5V9.65723H114.562V10.6729H114.664C114.795 10.3132 115.017 10.0339 115.331 9.83496C115.644 9.63607 116.031 9.53662 116.492 9.53662C116.598 9.53662 116.702 9.54297 116.803 9.55566C116.909 9.56413 116.989 9.57259 117.044 9.58105V10.6538C116.93 10.6326 116.818 10.6178 116.708 10.6094C116.602 10.5967 116.488 10.5903 116.365 10.5903C116.014 10.5903 115.703 10.6602 115.432 10.7998C115.161 10.9395 114.948 11.1341 114.791 11.3838C114.639 11.6335 114.562 11.9255 114.562 12.2598V16.5H113.458ZM118.473 16.5V6.94043H119.577V16.5H118.473ZM122.783 16.5L120.11 13.1484L120.923 12.4438L124.173 16.5H122.783ZM119.438 14.0371L119.387 12.647H119.679L122.637 9.65723H123.976L120.726 12.793L120.459 13.0532L119.438 14.0371ZM127.943 16.6206C127.292 16.6206 126.731 16.4767 126.261 16.189C125.796 15.9012 125.436 15.495 125.182 14.9702C124.932 14.4412 124.808 13.8192 124.808 13.104V13.0977C124.808 12.391 124.932 11.771 125.182 11.2378C125.436 10.7046 125.794 10.2878 126.255 9.9873C126.716 9.68685 127.256 9.53662 127.874 9.53662C128.496 9.53662 129.029 9.6805 129.473 9.96826C129.922 10.256 130.264 10.658 130.501 11.1743C130.743 11.6864 130.863 12.283 130.863 12.9644V13.396H125.379V12.5137H130.298L129.752 13.3198V12.8818C129.752 12.3444 129.672 11.9022 129.511 11.5552C129.35 11.2082 129.128 10.95 128.845 10.7808C128.561 10.6073 128.235 10.5205 127.867 10.5205C127.499 10.5205 127.169 10.6115 126.877 10.7935C126.589 10.9712 126.361 11.2357 126.191 11.5869C126.022 11.9382 125.938 12.3698 125.938 12.8818V13.3198C125.938 13.8065 126.02 14.2233 126.185 14.5703C126.35 14.9131 126.585 15.1776 126.89 15.3638C127.194 15.5457 127.554 15.6367 127.969 15.6367C128.278 15.6367 128.546 15.5944 128.775 15.5098C129.003 15.4251 129.192 15.3172 129.34 15.186C129.488 15.0549 129.592 14.9215 129.651 14.7861L129.676 14.729H130.781L130.768 14.7798C130.709 15.0125 130.603 15.2389 130.451 15.459C130.303 15.6748 130.11 15.8716 129.873 16.0493C129.636 16.2228 129.355 16.3625 129.029 16.4683C128.707 16.5698 128.345 16.6206 127.943 16.6206ZM132.577 16.5V9.65723H133.682V10.6729H133.783C133.914 10.3132 134.137 10.0339 134.45 9.83496C134.763 9.63607 135.15 9.53662 135.611 9.53662C135.717 9.53662 135.821 9.54297 135.922 9.55566C136.028 9.56413 136.109 9.57259 136.164 9.58105V10.6538C136.049 10.6326 135.937 10.6178 135.827 10.6094C135.721 10.5967 135.607 10.5903 135.484 10.5903C135.133 10.5903 134.822 10.6602 134.551 10.7998C134.28 10.9395 134.067 11.1341 133.91 11.3838C133.758 11.6335 133.682 11.9255 133.682 12.2598V16.5H132.577Z" fill="black" fill-opacity="0.85"/>
<defs>
<clipPath id="clip0_524_9159">
<rect width="16" height="16" fill="white" transform="translate(142.5 3)"/>
</clipPath>
</defs>
</svg>
