<svg width="431" height="37" viewBox="0 0 431 37" fill="none" xmlns="http://www.w3.org/2000/svg">
<mask id="path-1-inside-1_524_9032" fill="white">
<path d="M0 0H431V37H0V0Z"/>
</mask>
<path d="M431 36H0V38H431V36Z" fill="black" fill-opacity="0.05" mask="url(#path-1-inside-1_524_9032)"/>
<path d="M1.16797 23.5V14.3403H6.84277V15.3687H2.31055V18.3076H6.60791V19.3232H2.31055V22.4717H6.84277V23.5H1.16797ZM8.77246 23.5V16.6572H9.87695V17.6982H9.97852C10.1309 17.3301 10.3636 17.0444 10.6768 16.8413C10.9941 16.6382 11.3771 16.5366 11.8257 16.5366C12.1346 16.5366 12.4118 16.5874 12.6572 16.689C12.9027 16.7905 13.1143 16.9323 13.292 17.1143C13.4697 17.292 13.6115 17.4993 13.7173 17.7363H13.8188C13.9416 17.4951 14.1066 17.2856 14.314 17.1079C14.5213 16.9259 14.7604 16.7863 15.0312 16.689C15.3063 16.5874 15.6004 16.5366 15.9136 16.5366C16.3791 16.5366 16.7726 16.6234 17.0942 16.7969C17.4201 16.9704 17.6676 17.2243 17.8369 17.5586C18.0062 17.8887 18.0908 18.2928 18.0908 18.771V23.5H16.9863V19.0249C16.9863 18.6864 16.9334 18.4071 16.8276 18.187C16.7261 17.9627 16.5695 17.7956 16.3579 17.6855C16.1463 17.5713 15.8797 17.5142 15.5581 17.5142C15.2407 17.5142 14.9635 17.5861 14.7266 17.73C14.4896 17.8739 14.3055 18.0664 14.1743 18.3076C14.0431 18.5446 13.9775 18.8091 13.9775 19.1011V23.5H12.873V18.8535C12.873 18.5827 12.8138 18.3478 12.6953 18.1489C12.5811 17.9458 12.416 17.7892 12.2002 17.6792C11.9886 17.5692 11.7389 17.5142 11.4512 17.5142C11.1549 17.5142 10.8862 17.5924 10.645 17.749C10.408 17.9056 10.2197 18.1172 10.0801 18.3838C9.94466 18.6462 9.87695 18.9382 9.87695 19.2598V23.5H8.77246ZM21.9629 23.6206C21.5312 23.6206 21.1419 23.5381 20.7949 23.373C20.4521 23.208 20.1792 22.9731 19.9761 22.6685C19.7772 22.3638 19.6777 22.0041 19.6777 21.5894V21.5767C19.6777 21.1704 19.7751 20.8234 19.9697 20.5356C20.1644 20.2437 20.4479 20.0151 20.8203 19.8501C21.1927 19.6851 21.6434 19.5877 22.1724 19.5581L24.686 19.4058V20.2881L22.3057 20.4404C21.7852 20.4701 21.4043 20.578 21.1631 20.7642C20.9261 20.9504 20.8076 21.2127 20.8076 21.5513V21.564C20.8076 21.911 20.9388 22.1818 21.2012 22.3765C21.4635 22.5669 21.7936 22.6621 22.1914 22.6621C22.568 22.6621 22.9023 22.5881 23.1943 22.4399C23.4863 22.2876 23.7148 22.0824 23.8799 21.8242C24.0492 21.5661 24.1338 21.2741 24.1338 20.9482V18.8154C24.1338 18.3923 24.0047 18.0706 23.7466 17.8506C23.4927 17.6263 23.1097 17.5142 22.5977 17.5142C22.1872 17.5142 21.8507 17.5882 21.5884 17.7363C21.326 17.8802 21.1504 18.0854 21.0615 18.3521L21.0552 18.3711H19.9507L19.957 18.333C20.0163 17.9733 20.1644 17.6602 20.4014 17.3936C20.6426 17.1227 20.9536 16.9132 21.3345 16.7651C21.7153 16.6128 22.1491 16.5366 22.6357 16.5366C23.1943 16.5366 23.6662 16.6276 24.0513 16.8096C24.4406 16.9915 24.7347 17.2539 24.9336 17.5967C25.1367 17.9352 25.2383 18.3415 25.2383 18.8154V23.5H24.1338V22.4907H24.0322C23.8883 22.7319 23.7127 22.9372 23.5054 23.1064C23.3022 23.2757 23.0716 23.4048 22.8135 23.4937C22.5553 23.5783 22.2718 23.6206 21.9629 23.6206ZM27.2822 23.5V16.6572H28.3867V23.5H27.2822ZM27.8408 15.3369C27.6335 15.3369 27.4536 15.2629 27.3013 15.1147C27.1532 14.9624 27.0791 14.7826 27.0791 14.5752C27.0791 14.3636 27.1532 14.1838 27.3013 14.0356C27.4536 13.8875 27.6335 13.8135 27.8408 13.8135C28.0524 13.8135 28.2323 13.8875 28.3804 14.0356C28.5285 14.1838 28.6025 14.3636 28.6025 14.5752C28.6025 14.7826 28.5285 14.9624 28.3804 15.1147C28.2323 15.2629 28.0524 15.3369 27.8408 15.3369ZM30.5322 23.5V13.9404H31.6367V23.5H30.5322Z" fill="black" fill-opacity="0.85"/>
</svg>
