<svg width="161" height="25" viewBox="0 0 161 25" fill="none" xmlns="http://www.w3.org/2000/svg">
<rect x="0.75" y="0.75" width="159.5" height="23.5" rx="5.25" stroke="black" stroke-opacity="0.1" stroke-width="0.5"/>
<path d="M49.6953 17.5V8.34033H55.3701V9.36865H50.8379V12.3076H55.1353V13.3232H50.8379V16.4717H55.3701V17.5H49.6953ZM57.2998 17.5V10.6572H58.4043V11.6855H58.5059C58.6794 11.3216 58.929 11.0402 59.2549 10.8413C59.5807 10.6382 59.9954 10.5366 60.499 10.5366C61.2692 10.5366 61.8595 10.7567 62.27 11.1968C62.6847 11.6326 62.8921 12.2568 62.8921 13.0693V17.5H61.7876V13.3359C61.7876 12.7181 61.6564 12.2611 61.394 11.9648C61.1359 11.6644 60.7339 11.5142 60.188 11.5142C59.8241 11.5142 59.5088 11.5924 59.2422 11.749C58.9756 11.9056 58.7682 12.1278 58.6201 12.4155C58.4762 12.7033 58.4043 13.0482 58.4043 13.4502V17.5H57.2998ZM67.3228 17.5508C66.6203 17.5508 66.1104 17.409 65.793 17.1255C65.4798 16.842 65.3232 16.3743 65.3232 15.7227V11.5713H64.2441V10.6572H65.3232V8.88623H66.4658V10.6572H67.9639V11.5713H66.4658V15.4434C66.4658 15.8454 66.542 16.1353 66.6943 16.313C66.8467 16.4865 67.1006 16.5732 67.4561 16.5732C67.5534 16.5732 67.6359 16.5711 67.7036 16.5669C67.7756 16.5627 67.8623 16.5563 67.9639 16.5479V17.4873C67.8581 17.5042 67.7523 17.519 67.6465 17.5317C67.5407 17.5444 67.4328 17.5508 67.3228 17.5508ZM72.3184 17.6206C71.6667 17.6206 71.106 17.4767 70.6362 17.189C70.1707 16.9012 69.811 16.495 69.5571 15.9702C69.3075 15.4412 69.1826 14.8192 69.1826 14.104V14.0977C69.1826 13.391 69.3075 12.771 69.5571 12.2378C69.811 11.7046 70.1686 11.2878 70.6299 10.9873C71.0911 10.6868 71.6307 10.5366 72.2485 10.5366C72.8706 10.5366 73.4038 10.6805 73.8481 10.9683C74.2967 11.256 74.6395 11.658 74.8765 12.1743C75.1177 12.6864 75.2383 13.283 75.2383 13.9644V14.396H69.7539V13.5137H74.6733L74.1274 14.3198V13.8818C74.1274 13.3444 74.047 12.9022 73.8862 12.5552C73.7254 12.2082 73.5033 11.95 73.2197 11.7808C72.9362 11.6073 72.6104 11.5205 72.2422 11.5205C71.874 11.5205 71.5439 11.6115 71.252 11.7935C70.9642 11.9712 70.7357 12.2357 70.5664 12.5869C70.3971 12.9382 70.3125 13.3698 70.3125 13.8818V14.3198C70.3125 14.8065 70.395 15.2233 70.5601 15.5703C70.7251 15.9131 70.96 16.1776 71.2646 16.3638C71.5693 16.5457 71.929 16.6367 72.3438 16.6367C72.6527 16.6367 72.9214 16.5944 73.1499 16.5098C73.3784 16.4251 73.5667 16.3172 73.7148 16.186C73.863 16.0549 73.9666 15.9215 74.0259 15.7861L74.0513 15.729H75.1558L75.1431 15.7798C75.0838 16.0125 74.978 16.2389 74.8257 16.459C74.6776 16.6748 74.485 16.8716 74.248 17.0493C74.0111 17.2228 73.7297 17.3625 73.4038 17.4683C73.0822 17.5698 72.7204 17.6206 72.3184 17.6206ZM76.9521 17.5V10.6572H78.0566V11.6729H78.1582C78.2894 11.3132 78.5116 11.0339 78.8247 10.835C79.1379 10.6361 79.5251 10.5366 79.9863 10.5366C80.0921 10.5366 80.1958 10.543 80.2974 10.5557C80.4032 10.5641 80.4836 10.5726 80.5386 10.5811V11.6538C80.4243 11.6326 80.3122 11.6178 80.2021 11.6094C80.0964 11.5967 79.9821 11.5903 79.8594 11.5903C79.5081 11.5903 79.1971 11.6602 78.9263 11.7998C78.6554 11.9395 78.4417 12.1341 78.2852 12.3838C78.1328 12.6335 78.0566 12.9255 78.0566 13.2598V17.5H76.9521ZM87.4385 17.6206C87.0068 17.6206 86.6175 17.5381 86.2705 17.373C85.9277 17.208 85.6548 16.9731 85.4517 16.6685C85.2528 16.3638 85.1533 16.0041 85.1533 15.5894V15.5767C85.1533 15.1704 85.2507 14.8234 85.4453 14.5356C85.64 14.2437 85.9235 14.0151 86.2959 13.8501C86.6683 13.6851 87.119 13.5877 87.6479 13.5581L90.1616 13.4058V14.2881L87.7812 14.4404C87.2607 14.4701 86.8799 14.578 86.6387 14.7642C86.4017 14.9504 86.2832 15.2127 86.2832 15.5513V15.564C86.2832 15.911 86.4144 16.1818 86.6768 16.3765C86.9391 16.5669 87.2692 16.6621 87.667 16.6621C88.0436 16.6621 88.3779 16.5881 88.6699 16.4399C88.9619 16.2876 89.1904 16.0824 89.3555 15.8242C89.5247 15.5661 89.6094 15.2741 89.6094 14.9482V12.8154C89.6094 12.3923 89.4803 12.0706 89.2222 11.8506C88.9683 11.6263 88.5853 11.5142 88.0732 11.5142C87.6628 11.5142 87.3263 11.5882 87.064 11.7363C86.8016 11.8802 86.626 12.0854 86.5371 12.3521L86.5308 12.3711H85.4263L85.4326 12.333C85.4919 11.9733 85.64 11.6602 85.877 11.3936C86.1182 11.1227 86.4292 10.9132 86.8101 10.7651C87.1909 10.6128 87.6247 10.5366 88.1113 10.5366C88.6699 10.5366 89.1418 10.6276 89.5269 10.8096C89.9162 10.9915 90.2103 11.2539 90.4092 11.5967C90.6123 11.9352 90.7139 12.3415 90.7139 12.8154V17.5H89.6094V16.4907H89.5078C89.3639 16.7319 89.1883 16.9372 88.981 17.1064C88.7778 17.2757 88.5472 17.4048 88.2891 17.4937C88.0309 17.5783 87.7474 17.6206 87.4385 17.6206ZM96.3887 19.7852V10.6572H97.4932V11.749H97.5947C97.7344 11.4951 97.91 11.2793 98.1216 11.1016C98.3332 10.9196 98.5744 10.7799 98.8452 10.6826C99.116 10.5853 99.4102 10.5366 99.7275 10.5366C100.307 10.5366 100.811 10.6847 101.238 10.981C101.67 11.2729 102.004 11.6834 102.241 12.2124C102.478 12.7414 102.597 13.3613 102.597 14.0723V14.085C102.597 14.8001 102.478 15.4222 102.241 15.9512C102.004 16.4801 101.67 16.8906 101.238 17.1826C100.811 17.4746 100.307 17.6206 99.7275 17.6206C99.4144 17.6206 99.1182 17.5719 98.8389 17.4746C98.5638 17.373 98.3184 17.2334 98.1025 17.0557C97.891 16.8779 97.7217 16.6663 97.5947 16.4209H97.4932V19.7852H96.3887ZM99.4736 16.6431C99.8926 16.6431 100.25 16.5415 100.546 16.3384C100.843 16.131 101.069 15.8369 101.226 15.4561C101.386 15.071 101.467 14.6139 101.467 14.085V14.0723C101.467 13.5391 101.386 13.082 101.226 12.7012C101.069 12.3203 100.843 12.0283 100.546 11.8252C100.25 11.6178 99.8926 11.5142 99.4736 11.5142C99.0589 11.5142 98.7013 11.6178 98.4009 11.8252C98.1004 12.0326 97.8698 12.3267 97.709 12.7075C97.5482 13.0884 97.4678 13.5433 97.4678 14.0723V14.085C97.4678 14.6097 97.5482 15.0646 97.709 15.4497C97.8698 15.8306 98.1004 16.1247 98.4009 16.332C98.7013 16.5394 99.0589 16.6431 99.4736 16.6431ZM106.202 17.6206C105.771 17.6206 105.381 17.5381 105.034 17.373C104.691 17.208 104.418 16.9731 104.215 16.6685C104.016 16.3638 103.917 16.0041 103.917 15.5894V15.5767C103.917 15.1704 104.014 14.8234 104.209 14.5356C104.404 14.2437 104.687 14.0151 105.06 13.8501C105.432 13.6851 105.883 13.5877 106.412 13.5581L108.925 13.4058V14.2881L106.545 14.4404C106.024 14.4701 105.644 14.578 105.402 14.7642C105.165 14.9504 105.047 15.2127 105.047 15.5513V15.564C105.047 15.911 105.178 16.1818 105.44 16.3765C105.703 16.5669 106.033 16.6621 106.431 16.6621C106.807 16.6621 107.142 16.5881 107.434 16.4399C107.726 16.2876 107.954 16.0824 108.119 15.8242C108.288 15.5661 108.373 15.2741 108.373 14.9482V12.8154C108.373 12.3923 108.244 12.0706 107.986 11.8506C107.732 11.6263 107.349 11.5142 106.837 11.5142C106.426 11.5142 106.09 11.5882 105.828 11.7363C105.565 11.8802 105.39 12.0854 105.301 12.3521L105.294 12.3711H104.19L104.196 12.333C104.256 11.9733 104.404 11.6602 104.641 11.3936C104.882 11.1227 105.193 10.9132 105.574 10.7651C105.955 10.6128 106.388 10.5366 106.875 10.5366C107.434 10.5366 107.905 10.6276 108.291 10.8096C108.68 10.9915 108.974 11.2539 109.173 11.5967C109.376 11.9352 109.478 12.3415 109.478 12.8154V17.5H108.373V16.4907H108.271C108.128 16.7319 107.952 16.9372 107.745 17.1064C107.542 17.2757 107.311 17.4048 107.053 17.4937C106.795 17.5783 106.511 17.6206 106.202 17.6206ZM113.845 17.6206C113.337 17.6206 112.888 17.5444 112.499 17.3921C112.11 17.2355 111.797 17.0176 111.56 16.7383C111.327 16.459 111.189 16.131 111.147 15.7544H112.277C112.37 16.0379 112.552 16.2664 112.823 16.4399C113.094 16.6134 113.447 16.7002 113.883 16.7002C114.192 16.7002 114.463 16.6558 114.695 16.5669C114.932 16.4738 115.118 16.349 115.254 16.1924C115.389 16.0316 115.457 15.8475 115.457 15.6401V15.6274C115.457 15.3947 115.364 15.1979 115.178 15.0371C114.992 14.8721 114.687 14.7388 114.264 14.6372L113.204 14.3833C112.776 14.2817 112.425 14.1506 112.15 13.9897C111.875 13.8247 111.672 13.6237 111.541 13.3867C111.409 13.1455 111.344 12.862 111.344 12.5361V12.5298C111.344 12.1489 111.454 11.8083 111.674 11.5078C111.898 11.2074 112.203 10.9704 112.588 10.7969C112.973 10.6234 113.407 10.5366 113.889 10.5366C114.367 10.5366 114.791 10.6128 115.159 10.7651C115.531 10.9132 115.829 11.1248 116.054 11.3999C116.282 11.675 116.422 11.9987 116.473 12.3711H115.387C115.315 12.1003 115.15 11.8802 114.892 11.7109C114.634 11.5417 114.298 11.457 113.883 11.457C113.612 11.457 113.371 11.5015 113.159 11.5903C112.948 11.675 112.78 11.7935 112.658 11.9458C112.535 12.0981 112.474 12.2759 112.474 12.479V12.4917C112.474 12.644 112.514 12.7795 112.594 12.8979C112.675 13.0164 112.799 13.1201 112.969 13.209C113.138 13.2979 113.356 13.3761 113.623 13.4438L114.676 13.6978C115.319 13.8543 115.798 14.0786 116.111 14.3706C116.428 14.6626 116.587 15.054 116.587 15.5449V15.5576C116.587 15.9639 116.466 16.3236 116.225 16.6367C115.984 16.9456 115.656 17.1868 115.241 17.3604C114.831 17.5339 114.365 17.6206 113.845 17.6206ZM120.522 17.6206C120.015 17.6206 119.566 17.5444 119.177 17.3921C118.787 17.2355 118.474 17.0176 118.237 16.7383C118.005 16.459 117.867 16.131 117.825 15.7544H118.955C119.048 16.0379 119.23 16.2664 119.5 16.4399C119.771 16.6134 120.125 16.7002 120.561 16.7002C120.869 16.7002 121.14 16.6558 121.373 16.5669C121.61 16.4738 121.796 16.349 121.932 16.1924C122.067 16.0316 122.135 15.8475 122.135 15.6401V15.6274C122.135 15.3947 122.042 15.1979 121.855 15.0371C121.669 14.8721 121.365 14.7388 120.941 14.6372L119.881 14.3833C119.454 14.2817 119.103 14.1506 118.828 13.9897C118.553 13.8247 118.349 13.6237 118.218 13.3867C118.087 13.1455 118.021 12.862 118.021 12.5361V12.5298C118.021 12.1489 118.132 11.8083 118.352 11.5078C118.576 11.2074 118.881 10.9704 119.266 10.7969C119.651 10.6234 120.084 10.5366 120.567 10.5366C121.045 10.5366 121.468 10.6128 121.836 10.7651C122.209 10.9132 122.507 11.1248 122.731 11.3999C122.96 11.675 123.1 11.9987 123.15 12.3711H122.065C121.993 12.1003 121.828 11.8802 121.57 11.7109C121.312 11.5417 120.975 11.457 120.561 11.457C120.29 11.457 120.049 11.5015 119.837 11.5903C119.625 11.675 119.458 11.7935 119.335 11.9458C119.213 12.0981 119.151 12.2759 119.151 12.479V12.4917C119.151 12.644 119.192 12.7795 119.272 12.8979C119.352 13.0164 119.477 13.1201 119.646 13.209C119.816 13.2979 120.034 13.3761 120.3 13.4438L121.354 13.6978C121.997 13.8543 122.475 14.0786 122.789 14.3706C123.106 14.6626 123.265 15.054 123.265 15.5449V15.5576C123.265 15.9639 123.144 16.3236 122.903 16.6367C122.662 16.9456 122.334 17.1868 121.919 17.3604C121.508 17.5339 121.043 17.6206 120.522 17.6206ZM126.108 17.5L124.191 10.6572H125.296L126.642 16.1289H126.743L128.273 10.6572H129.32L130.85 16.1289H130.952L132.297 10.6572H133.396L131.479 17.5H130.368L128.838 12.2061H128.736L127.213 17.5H126.108ZM137.414 17.6206C136.766 17.6206 136.205 17.4788 135.731 17.1953C135.262 16.9076 134.898 16.4992 134.64 15.9702C134.386 15.4412 134.259 14.8128 134.259 14.085V14.0723C134.259 13.3402 134.386 12.7096 134.64 12.1807C134.898 11.6517 135.262 11.2454 135.731 10.9619C136.205 10.6784 136.766 10.5366 137.414 10.5366C138.065 10.5366 138.626 10.6784 139.096 10.9619C139.565 11.2454 139.927 11.6517 140.181 12.1807C140.439 12.7096 140.568 13.3402 140.568 14.0723V14.085C140.568 14.8128 140.439 15.4412 140.181 15.9702C139.927 16.4992 139.565 16.9076 139.096 17.1953C138.626 17.4788 138.065 17.6206 137.414 17.6206ZM137.414 16.6431C137.845 16.6431 138.211 16.5415 138.512 16.3384C138.812 16.1353 139.041 15.8433 139.197 15.4624C139.358 15.0815 139.438 14.6224 139.438 14.085V14.0723C139.438 13.5306 139.358 13.0693 139.197 12.6885C139.041 12.3076 138.812 12.0177 138.512 11.8188C138.211 11.6157 137.845 11.5142 137.414 11.5142C136.982 11.5142 136.616 11.6157 136.315 11.8188C136.015 12.0177 135.784 12.3076 135.624 12.6885C135.467 13.0693 135.389 13.5306 135.389 14.0723V14.085C135.389 14.6224 135.467 15.0815 135.624 15.4624C135.784 15.8433 136.015 16.1353 136.315 16.3384C136.616 16.5415 136.982 16.6431 137.414 16.6431ZM142.282 17.5V10.6572H143.387V11.6729H143.488C143.619 11.3132 143.842 11.0339 144.155 10.835C144.468 10.6361 144.855 10.5366 145.316 10.5366C145.422 10.5366 145.526 10.543 145.627 10.5557C145.733 10.5641 145.814 10.5726 145.869 10.5811V11.6538C145.754 11.6326 145.642 11.6178 145.532 11.6094C145.426 11.5967 145.312 11.5903 145.189 11.5903C144.838 11.5903 144.527 11.6602 144.256 11.7998C143.986 11.9395 143.772 12.1341 143.615 12.3838C143.463 12.6335 143.387 12.9255 143.387 13.2598V17.5H142.282ZM149.569 17.6206C148.994 17.6206 148.49 17.4746 148.059 17.1826C147.627 16.8906 147.293 16.4801 147.056 15.9512C146.819 15.418 146.7 14.7959 146.7 14.085V14.0723C146.7 13.3571 146.819 12.735 147.056 12.2061C147.293 11.6771 147.625 11.2666 148.052 10.9746C148.484 10.6826 148.99 10.5366 149.569 10.5366C149.882 10.5366 150.177 10.5874 150.452 10.689C150.731 10.7863 150.979 10.9238 151.194 11.1016C151.41 11.2793 151.579 11.4909 151.702 11.7363H151.804V7.94043H152.908V17.5H151.804V16.4082H151.702C151.562 16.6621 151.387 16.88 151.175 17.062C150.964 17.2397 150.722 17.3773 150.452 17.4746C150.181 17.5719 149.887 17.6206 149.569 17.6206ZM149.823 16.6431C150.238 16.6431 150.596 16.5394 150.896 16.332C151.196 16.1247 151.427 15.8306 151.588 15.4497C151.749 15.0646 151.829 14.6097 151.829 14.085V14.0723C151.829 13.5433 151.749 13.0884 151.588 12.7075C151.427 12.3267 151.196 12.0326 150.896 11.8252C150.596 11.6178 150.238 11.5142 149.823 11.5142C149.409 11.5142 149.051 11.6178 148.75 11.8252C148.454 12.0283 148.226 12.3203 148.065 12.7012C147.908 13.082 147.83 13.5391 147.83 14.0723V14.085C147.83 14.6139 147.908 15.071 148.065 15.4561C148.226 15.8369 148.454 16.131 148.75 16.3384C149.051 16.5415 149.409 16.6431 149.823 16.6431Z" fill="black" fill-opacity="0.25"/>
</svg>
