<svg width="162" height="25" viewBox="0 0 162 25" fill="none" xmlns="http://www.w3.org/2000/svg">
<rect x="0.75" y="0.75" width="160.5" height="23.5" rx="5.25" stroke="black" stroke-opacity="0.1" stroke-width="0.5"/>
<path d="M131.615 17.5V8.34033H134.757C135.663 8.34033 136.437 8.5223 137.081 8.88623C137.728 9.24593 138.223 9.76644 138.566 10.4478C138.909 11.1291 139.08 11.95 139.08 12.9106V12.9233C139.08 13.884 138.909 14.707 138.566 15.3926C138.223 16.0739 137.73 16.5965 137.087 16.9604C136.444 17.3201 135.667 17.5 134.757 17.5H131.615ZM132.758 16.4717H134.681C135.362 16.4717 135.944 16.332 136.427 16.0527C136.909 15.7734 137.277 15.3693 137.531 14.8403C137.785 14.3114 137.912 13.6766 137.912 12.936V12.9233C137.912 12.1785 137.783 11.5417 137.525 11.0127C137.271 10.4795 136.903 10.0732 136.42 9.79395C135.938 9.51042 135.358 9.36865 134.681 9.36865H132.758V16.4717ZM143.733 17.6206C143.085 17.6206 142.525 17.4788 142.051 17.1953C141.581 16.9076 141.217 16.4992 140.959 15.9702C140.705 15.4412 140.578 14.8128 140.578 14.085V14.0723C140.578 13.3402 140.705 12.7096 140.959 12.1807C141.217 11.6517 141.581 11.2454 142.051 10.9619C142.525 10.6784 143.085 10.5366 143.733 10.5366C144.385 10.5366 144.945 10.6784 145.415 10.9619C145.885 11.2454 146.247 11.6517 146.5 12.1807C146.759 12.7096 146.888 13.3402 146.888 14.0723V14.085C146.888 14.8128 146.759 15.4412 146.5 15.9702C146.247 16.4992 145.885 16.9076 145.415 17.1953C144.945 17.4788 144.385 17.6206 143.733 17.6206ZM143.733 16.6431C144.165 16.6431 144.531 16.5415 144.831 16.3384C145.132 16.1353 145.36 15.8433 145.517 15.4624C145.677 15.0815 145.758 14.6224 145.758 14.085V14.0723C145.758 13.5306 145.677 13.0693 145.517 12.6885C145.36 12.3076 145.132 12.0177 144.831 11.8188C144.531 11.6157 144.165 11.5142 143.733 11.5142C143.301 11.5142 142.935 11.6157 142.635 11.8188C142.334 12.0177 142.104 12.3076 141.943 12.6885C141.786 13.0693 141.708 13.5306 141.708 14.0723V14.085C141.708 14.6224 141.786 15.0815 141.943 15.4624C142.104 15.8433 142.334 16.1353 142.635 16.3384C142.935 16.5415 143.301 16.6431 143.733 16.6431ZM151.395 17.6206C150.743 17.6206 150.182 17.4767 149.712 17.189C149.247 16.9012 148.887 16.495 148.633 15.9702C148.384 15.4412 148.259 14.8192 148.259 14.104V14.0977C148.259 13.391 148.384 12.771 148.633 12.2378C148.887 11.7046 149.245 11.2878 149.706 10.9873C150.167 10.6868 150.707 10.5366 151.325 10.5366C151.947 10.5366 152.48 10.6805 152.924 10.9683C153.373 11.256 153.716 11.658 153.953 12.1743C154.194 12.6864 154.314 13.283 154.314 13.9644V14.396H148.83V13.5137H153.75L153.204 14.3198V13.8818C153.204 13.3444 153.123 12.9022 152.962 12.5552C152.802 12.2082 152.579 11.95 152.296 11.7808C152.012 11.6073 151.687 11.5205 151.318 11.5205C150.95 11.5205 150.62 11.6115 150.328 11.7935C150.04 11.9712 149.812 12.2357 149.643 12.5869C149.473 12.9382 149.389 13.3698 149.389 13.8818V14.3198C149.389 14.8065 149.471 15.2233 149.636 15.5703C149.801 15.9131 150.036 16.1776 150.341 16.3638C150.646 16.5457 151.005 16.6367 151.42 16.6367C151.729 16.6367 151.998 16.5944 152.226 16.5098C152.455 16.4251 152.643 16.3172 152.791 16.186C152.939 16.0549 153.043 15.9215 153.102 15.7861L153.127 15.729H154.232L154.219 15.7798C154.16 16.0125 154.054 16.2389 153.902 16.459C153.754 16.6748 153.561 16.8716 153.324 17.0493C153.087 17.2228 152.806 17.3625 152.48 17.4683C152.158 17.5698 151.797 17.6206 151.395 17.6206Z" fill="black" fill-opacity="0.25"/>
</svg>
