<svg width="162" height="25" viewBox="0 0 162 25" fill="none" xmlns="http://www.w3.org/2000/svg">
<rect x="0.75" y="0.75" width="160.5" height="23.5" rx="5.25" stroke="black" stroke-opacity="0.1" stroke-width="0.5"/>
<path d="M22.3213 17.5V9.60986H22.2197L19.8901 11.2983V10.0923L22.3276 8.34033H23.4639V17.5H22.3213ZM26.1108 17.5V16.7129L29.2085 13.3613C29.5978 12.9382 29.9025 12.589 30.1226 12.314C30.3426 12.0347 30.4971 11.7829 30.5859 11.5586C30.6748 11.3343 30.7192 11.0889 30.7192 10.8223V10.8096C30.7192 10.488 30.6494 10.2002 30.5098 9.94629C30.3701 9.69238 30.1712 9.49137 29.9131 9.34326C29.6549 9.19515 29.346 9.12109 28.9863 9.12109C28.6224 9.12109 28.3029 9.19727 28.0278 9.34961C27.7528 9.49772 27.5391 9.70719 27.3867 9.97803C27.2344 10.2446 27.1582 10.5578 27.1582 10.9175L27.1519 10.9302L26.0601 10.9238L26.0474 10.9175C26.0516 10.3758 26.1828 9.89551 26.4409 9.47656C26.6991 9.05339 27.0545 8.72331 27.5073 8.48633C27.9601 8.24512 28.4785 8.12451 29.0625 8.12451C29.5957 8.12451 30.076 8.23665 30.5034 8.46094C30.9308 8.68099 31.2673 8.98356 31.5127 9.36865C31.7624 9.75374 31.8872 10.1938 31.8872 10.689V10.7017C31.8872 11.0487 31.8258 11.383 31.7031 11.7046C31.5846 12.0262 31.373 12.3838 31.0684 12.7773C30.7637 13.1667 30.3341 13.647 29.7798 14.2183L27.4121 16.6621L27.6978 16.1353V16.6621L27.4185 16.4717H32.0396V17.5H26.1108ZM37.0732 17.6523C36.4427 17.6523 35.8926 17.5444 35.4229 17.3286C34.9531 17.1128 34.5807 16.8166 34.3057 16.4399C34.0348 16.0633 33.8783 15.6338 33.8359 15.1514L33.8296 15.0752H34.9277L34.9341 15.1387C34.9637 15.4391 35.0695 15.7036 35.2515 15.9321C35.4377 16.1606 35.6852 16.3405 35.9941 16.4717C36.3073 16.5986 36.667 16.6621 37.0732 16.6621C37.4753 16.6621 37.8265 16.5923 38.127 16.4526C38.4316 16.313 38.6686 16.1204 38.8379 15.875C39.0072 15.6253 39.0918 15.3397 39.0918 15.0181V15.0054C39.0918 14.4425 38.9035 14.0109 38.5269 13.7104C38.1545 13.4058 37.6466 13.2534 37.0034 13.2534H35.8545V12.2886H36.9526C37.3166 12.2886 37.6382 12.2209 37.9175 12.0854C38.1968 11.9458 38.4147 11.7575 38.5713 11.5205C38.7279 11.2793 38.8062 11.0063 38.8062 10.7017V10.689C38.8062 10.3674 38.7384 10.0944 38.603 9.87012C38.4676 9.64583 38.2687 9.47445 38.0063 9.35596C37.7482 9.23747 37.4329 9.17822 37.0605 9.17822C36.7008 9.17822 36.3792 9.23958 36.0957 9.3623C35.8164 9.48079 35.5921 9.65218 35.4229 9.87646C35.2536 10.1007 35.152 10.3674 35.1182 10.6763L35.1118 10.7397H34.0137L34.02 10.6763C34.0708 10.1769 34.2274 9.74105 34.4897 9.36865C34.7563 8.99626 35.1076 8.70638 35.5435 8.49902C35.9836 8.29167 36.4893 8.18799 37.0605 8.18799C37.6445 8.18799 38.1523 8.28955 38.584 8.49268C39.0199 8.69157 39.3563 8.96875 39.5933 9.32422C39.8345 9.67546 39.9551 10.0838 39.9551 10.5493V10.562C39.9551 10.9386 39.8726 11.2729 39.7075 11.5649C39.5425 11.8569 39.314 12.1003 39.022 12.2949C38.73 12.4896 38.3936 12.6271 38.0127 12.7075V12.7329C38.6813 12.7879 39.2209 13.0143 39.6313 13.4121C40.0461 13.8057 40.2534 14.3283 40.2534 14.98V14.9927C40.2534 15.5005 40.1159 15.9554 39.8408 16.3574C39.5658 16.7594 39.1891 17.0768 38.7109 17.3096C38.2327 17.5381 37.6868 17.6523 37.0732 17.6523ZM45.9092 17.5V8.34033H47.2358L50.3716 15.9829H50.4731L53.6089 8.34033H54.9355V17.5H53.8691V10.5049H53.3105L54.5928 8.59424L50.9048 17.5H49.9399L46.2583 8.59424L47.5342 10.5049H46.9756V17.5H45.9092ZM59.0107 17.6206C58.5791 17.6206 58.1898 17.5381 57.8428 17.373C57.5 17.208 57.2271 16.9731 57.0239 16.6685C56.825 16.3638 56.7256 16.0041 56.7256 15.5894V15.5767C56.7256 15.1704 56.8229 14.8234 57.0176 14.5356C57.2122 14.2437 57.4958 14.0151 57.8682 13.8501C58.2406 13.6851 58.6912 13.5877 59.2202 13.5581L61.7339 13.4058V14.2881L59.3535 14.4404C58.833 14.4701 58.4521 14.578 58.2109 14.7642C57.974 14.9504 57.8555 15.2127 57.8555 15.5513V15.564C57.8555 15.911 57.9867 16.1818 58.249 16.3765C58.5114 16.5669 58.8415 16.6621 59.2393 16.6621C59.6159 16.6621 59.9502 16.5881 60.2422 16.4399C60.5342 16.2876 60.7627 16.0824 60.9277 15.8242C61.097 15.5661 61.1816 15.2741 61.1816 14.9482V12.8154C61.1816 12.3923 61.0526 12.0706 60.7944 11.8506C60.5405 11.6263 60.1576 11.5142 59.6455 11.5142C59.235 11.5142 58.8986 11.5882 58.6362 11.7363C58.3739 11.8802 58.1982 12.0854 58.1094 12.3521L58.103 12.3711H56.9985L57.0049 12.333C57.0641 11.9733 57.2122 11.6602 57.4492 11.3936C57.6904 11.1227 58.0015 10.9132 58.3823 10.7651C58.7632 10.6128 59.1969 10.5366 59.6836 10.5366C60.2422 10.5366 60.714 10.6276 61.0991 10.8096C61.4884 10.9915 61.7826 11.2539 61.9814 11.5967C62.1846 11.9352 62.2861 12.3415 62.2861 12.8154V17.5H61.1816V16.4907H61.0801C60.9362 16.7319 60.7606 16.9372 60.5532 17.1064C60.3501 17.2757 60.1195 17.4048 59.8613 17.4937C59.6032 17.5783 59.3197 17.6206 59.0107 17.6206ZM64.3301 17.5V10.6572H65.4346V17.5H64.3301ZM64.8887 9.33691C64.6813 9.33691 64.5015 9.26286 64.3491 9.11475C64.201 8.9624 64.127 8.78255 64.127 8.5752C64.127 8.36361 64.201 8.18376 64.3491 8.03564C64.5015 7.88753 64.6813 7.81348 64.8887 7.81348C65.1003 7.81348 65.2801 7.88753 65.4282 8.03564C65.5763 8.18376 65.6504 8.36361 65.6504 8.5752C65.6504 8.78255 65.5763 8.9624 65.4282 9.11475C65.2801 9.26286 65.1003 9.33691 64.8887 9.33691ZM67.5166 17.5V10.6572H68.6211V11.6855H68.7227C68.8962 11.3216 69.1458 11.0402 69.4717 10.8413C69.7975 10.6382 70.2122 10.5366 70.7158 10.5366C71.486 10.5366 72.0763 10.7567 72.4868 11.1968C72.9015 11.6326 73.1089 12.2568 73.1089 13.0693V17.5H72.0044V13.3359C72.0044 12.7181 71.8732 12.2611 71.6108 11.9648C71.3527 11.6644 70.9507 11.5142 70.4048 11.5142C70.0409 11.5142 69.7256 11.5924 69.459 11.749C69.1924 11.9056 68.985 12.1278 68.8369 12.4155C68.693 12.7033 68.6211 13.0482 68.6211 13.4502V17.5H67.5166ZM81.9067 17.7158C81.2381 17.7158 80.6541 17.6079 80.1548 17.3921C79.6597 17.172 79.2661 16.8716 78.9741 16.4907C78.6864 16.1056 78.5192 15.6655 78.4727 15.1704L78.4663 15.1006H79.6089L79.6152 15.1704C79.6449 15.4751 79.7612 15.7396 79.9644 15.9639C80.1717 16.1839 80.4468 16.3553 80.7896 16.478C81.1366 16.6007 81.5301 16.6621 81.9702 16.6621C82.3849 16.6621 82.7531 16.5965 83.0747 16.4653C83.4006 16.3299 83.6566 16.1437 83.8428 15.9067C84.029 15.6698 84.1221 15.3968 84.1221 15.0879V15.0815C84.1221 14.7007 83.9824 14.3812 83.7031 14.123C83.4238 13.8607 82.9689 13.6597 82.3384 13.52L81.3228 13.2979C80.4045 13.0947 79.7358 12.7816 79.3169 12.3584C78.9022 11.931 78.6948 11.3851 78.6948 10.7207V10.7144C78.6991 10.2065 78.8366 9.75798 79.1074 9.36865C79.3825 8.97933 79.7612 8.67464 80.2437 8.45459C80.7303 8.23454 81.2889 8.12451 81.9194 8.12451C82.5288 8.12451 83.0684 8.23454 83.5381 8.45459C84.0078 8.67041 84.3802 8.9624 84.6553 9.33057C84.9346 9.69873 85.089 10.1113 85.1187 10.5684L85.125 10.6572H83.9824L83.9697 10.5747C83.9274 10.3039 83.8174 10.0648 83.6396 9.85742C83.4619 9.64583 83.2249 9.47868 82.9287 9.35596C82.6325 9.23324 82.2855 9.17399 81.8877 9.17822C81.5068 9.17822 81.1641 9.23747 80.8594 9.35596C80.5547 9.47445 80.3114 9.64583 80.1294 9.87012C79.9517 10.0902 79.8628 10.361 79.8628 10.6826V10.689C79.8628 11.0529 79.9982 11.3597 80.269 11.6094C80.5399 11.859 80.9863 12.0516 81.6084 12.187L82.624 12.4155C83.263 12.5552 83.7772 12.7371 84.1665 12.9614C84.5558 13.1857 84.8394 13.4608 85.0171 13.7866C85.1991 14.1082 85.29 14.4891 85.29 14.9292V14.9355C85.29 15.5068 85.1504 15.9998 84.8711 16.4146C84.5918 16.8293 84.1982 17.1509 83.6904 17.3794C83.1826 17.6037 82.5881 17.7158 81.9067 17.7158ZM89.4858 17.5508C88.7834 17.5508 88.2734 17.409 87.9561 17.1255C87.6429 16.842 87.4863 16.3743 87.4863 15.7227V11.5713H86.4072V10.6572H87.4863V8.88623H88.6289V10.6572H90.127V11.5713H88.6289V15.4434C88.6289 15.8454 88.7051 16.1353 88.8574 16.313C89.0098 16.4865 89.2637 16.5732 89.6191 16.5732C89.7165 16.5732 89.799 16.5711 89.8667 16.5669C89.9386 16.5627 90.0254 16.5563 90.127 16.5479V17.4873C90.0212 17.5042 89.9154 17.519 89.8096 17.5317C89.7038 17.5444 89.5959 17.5508 89.4858 17.5508ZM91.498 19.8296L92.0503 16.2178H93.3135L92.3169 19.8296H91.498ZM98.7026 17.5L102.08 8.34033H102.956V9.81934H102.594L99.9023 17.5H98.7026ZM100.232 14.8784L100.588 13.9072H104.727L105.082 14.8784H100.232ZM105.387 17.5L102.695 9.81934V8.34033H103.209L106.586 17.5H105.387ZM108.053 17.5V10.6572H109.157V11.6855H109.259C109.432 11.3216 109.682 11.0402 110.008 10.8413C110.334 10.6382 110.748 10.5366 111.252 10.5366C112.022 10.5366 112.612 10.7567 113.023 11.1968C113.438 11.6326 113.645 12.2568 113.645 13.0693V17.5H112.541V13.3359C112.541 12.7181 112.409 12.2611 112.147 11.9648C111.889 11.6644 111.487 11.5142 110.941 11.5142C110.577 11.5142 110.262 11.5924 109.995 11.749C109.729 11.9056 109.521 12.1278 109.373 12.4155C109.229 12.7033 109.157 13.0482 109.157 13.4502V17.5H108.053ZM115.975 19.8994C115.903 19.8994 115.822 19.8952 115.733 19.8867C115.645 19.8825 115.562 19.874 115.486 19.8613V18.9536C115.554 18.9663 115.628 18.9748 115.708 18.979C115.788 18.9832 115.867 18.9854 115.943 18.9854C116.256 18.9854 116.512 18.9049 116.711 18.7441C116.914 18.5833 117.077 18.3062 117.2 17.9126L117.327 17.5063L114.794 10.6572H115.975L118.082 16.9795L117.644 16.2876H118.165L117.727 16.9795L119.828 10.6572H120.989L118.317 17.9189C118.131 18.431 117.934 18.8309 117.727 19.1187C117.519 19.4064 117.276 19.6074 116.997 19.7217C116.722 19.8402 116.381 19.8994 115.975 19.8994ZM124.88 17.5508C124.178 17.5508 123.668 17.409 123.351 17.1255C123.037 16.842 122.881 16.3743 122.881 15.7227V11.5713H121.802V10.6572H122.881V8.88623H124.023V10.6572H125.521V11.5713H124.023V15.4434C124.023 15.8454 124.1 16.1353 124.252 16.313C124.404 16.4865 124.658 16.5732 125.014 16.5732C125.111 16.5732 125.194 16.5711 125.261 16.5669C125.333 16.5627 125.42 16.5563 125.521 16.5479V17.4873C125.416 17.5042 125.31 17.519 125.204 17.5317C125.098 17.5444 124.99 17.5508 124.88 17.5508ZM129.895 17.6206C129.248 17.6206 128.687 17.4788 128.213 17.1953C127.743 16.9076 127.379 16.4992 127.121 15.9702C126.867 15.4412 126.74 14.8128 126.74 14.085V14.0723C126.74 13.3402 126.867 12.7096 127.121 12.1807C127.379 11.6517 127.743 11.2454 128.213 10.9619C128.687 10.6784 129.248 10.5366 129.895 10.5366C130.547 10.5366 131.107 10.6784 131.577 10.9619C132.047 11.2454 132.409 11.6517 132.663 12.1807C132.921 12.7096 133.05 13.3402 133.05 14.0723V14.085C133.05 14.8128 132.921 15.4412 132.663 15.9702C132.409 16.4992 132.047 16.9076 131.577 17.1953C131.107 17.4788 130.547 17.6206 129.895 17.6206ZM129.895 16.6431C130.327 16.6431 130.693 16.5415 130.993 16.3384C131.294 16.1353 131.522 15.8433 131.679 15.4624C131.84 15.0815 131.92 14.6224 131.92 14.085V14.0723C131.92 13.5306 131.84 13.0693 131.679 12.6885C131.522 12.3076 131.294 12.0177 130.993 11.8188C130.693 11.6157 130.327 11.5142 129.895 11.5142C129.463 11.5142 129.097 11.6157 128.797 11.8188C128.496 12.0177 128.266 12.3076 128.105 12.6885C127.948 13.0693 127.87 13.5306 127.87 14.0723V14.085C127.87 14.6224 127.948 15.0815 128.105 15.4624C128.266 15.8433 128.496 16.1353 128.797 16.3384C129.097 16.5415 129.463 16.6431 129.895 16.6431ZM135.83 17.5L133.913 10.6572H135.018L136.363 16.1289H136.465L137.995 10.6572H139.042L140.572 16.1289H140.673L142.019 10.6572H143.117L141.2 17.5H140.089L138.56 12.2061H138.458L136.935 17.5H135.83ZM145.479 17.5635C145.254 17.5635 145.06 17.4831 144.895 17.3223C144.734 17.1572 144.653 16.9626 144.653 16.7383C144.653 16.5098 144.734 16.3151 144.895 16.1543C145.06 15.9935 145.254 15.9131 145.479 15.9131C145.707 15.9131 145.902 15.9935 146.062 16.1543C146.223 16.3151 146.304 16.5098 146.304 16.7383C146.304 16.9626 146.223 17.1572 146.062 17.3223C145.902 17.4831 145.707 17.5635 145.479 17.5635ZM148.779 17.5635C148.555 17.5635 148.36 17.4831 148.195 17.3223C148.035 17.1572 147.954 16.9626 147.954 16.7383C147.954 16.5098 148.035 16.3151 148.195 16.1543C148.36 15.9935 148.555 15.9131 148.779 15.9131C149.008 15.9131 149.202 15.9935 149.363 16.1543C149.524 16.3151 149.604 16.5098 149.604 16.7383C149.604 16.9626 149.524 17.1572 149.363 17.3223C149.202 17.4831 149.008 17.5635 148.779 17.5635ZM152.08 17.5635C151.856 17.5635 151.661 17.4831 151.496 17.3223C151.335 17.1572 151.255 16.9626 151.255 16.7383C151.255 16.5098 151.335 16.3151 151.496 16.1543C151.661 15.9935 151.856 15.9131 152.08 15.9131C152.309 15.9131 152.503 15.9935 152.664 16.1543C152.825 16.3151 152.905 16.5098 152.905 16.7383C152.905 16.9626 152.825 17.1572 152.664 17.3223C152.503 17.4831 152.309 17.5635 152.08 17.5635Z" fill="black" fill-opacity="0.25"/>
</svg>
