<svg width="431" height="37" viewBox="0 0 431 37" fill="none" xmlns="http://www.w3.org/2000/svg">
<mask id="path-1-inside-1_524_9019" fill="white">
<path d="M0 0H431V37H0V0Z"/>
</mask>
<path d="M431 36H0V38H431V36Z" fill="black" fill-opacity="0.05" mask="url(#path-1-inside-1_524_9019)"/>
<path d="M1.16797 23.5V14.3403H6.72852V15.3687H2.31055V18.5171H6.3667V19.5327H2.31055V23.5H1.16797ZM8.49316 23.5V16.6572H9.59766V23.5H8.49316ZM9.05176 15.3369C8.8444 15.3369 8.66455 15.2629 8.51221 15.1147C8.3641 14.9624 8.29004 14.7826 8.29004 14.5752C8.29004 14.3636 8.3641 14.1838 8.51221 14.0356C8.66455 13.8875 8.8444 13.8135 9.05176 13.8135C9.26335 13.8135 9.4432 13.8875 9.59131 14.0356C9.73942 14.1838 9.81348 14.3636 9.81348 14.5752C9.81348 14.7826 9.73942 14.9624 9.59131 15.1147C9.4432 15.2629 9.26335 15.3369 9.05176 15.3369ZM11.6797 23.5V16.6572H12.7842V17.6729H12.8857C13.0169 17.3132 13.2391 17.0339 13.5522 16.835C13.8654 16.6361 14.2526 16.5366 14.7139 16.5366C14.8197 16.5366 14.9233 16.543 15.0249 16.5557C15.1307 16.5641 15.2111 16.5726 15.2661 16.5811V17.6538C15.1519 17.6326 15.0397 17.6178 14.9297 17.6094C14.8239 17.5967 14.7096 17.5903 14.5869 17.5903C14.2357 17.5903 13.9246 17.6602 13.6538 17.7998C13.383 17.9395 13.1693 18.1341 13.0127 18.3838C12.8604 18.6335 12.7842 18.9255 12.7842 19.2598V23.5H11.6797ZM18.8525 23.6206C18.3447 23.6206 17.8962 23.5444 17.5068 23.3921C17.1175 23.2355 16.8044 23.0176 16.5674 22.7383C16.3346 22.459 16.1971 22.131 16.1548 21.7544H17.2847C17.3778 22.0379 17.5597 22.2664 17.8306 22.4399C18.1014 22.6134 18.4548 22.7002 18.8906 22.7002C19.1995 22.7002 19.4704 22.6558 19.7031 22.5669C19.9401 22.4738 20.1263 22.349 20.2617 22.1924C20.3971 22.0316 20.4648 21.8475 20.4648 21.6401V21.6274C20.4648 21.3947 20.3717 21.1979 20.1855 21.0371C19.9993 20.8721 19.6947 20.7388 19.2715 20.6372L18.2114 20.3833C17.784 20.2817 17.4328 20.1506 17.1577 19.9897C16.8826 19.8247 16.6795 19.6237 16.5483 19.3867C16.4172 19.1455 16.3516 18.862 16.3516 18.5361V18.5298C16.3516 18.1489 16.4616 17.8083 16.6816 17.5078C16.9059 17.2074 17.2106 16.9704 17.5957 16.7969C17.9808 16.6234 18.4146 16.5366 18.897 16.5366C19.3752 16.5366 19.7983 16.6128 20.1665 16.7651C20.5389 16.9132 20.8372 17.1248 21.0615 17.3999C21.29 17.675 21.4297 17.9987 21.4805 18.3711H20.395C20.3231 18.1003 20.158 17.8802 19.8999 17.7109C19.6418 17.5417 19.3053 17.457 18.8906 17.457C18.6198 17.457 18.3786 17.5015 18.167 17.5903C17.9554 17.675 17.7882 17.7935 17.6655 17.9458C17.5428 18.0981 17.4814 18.2759 17.4814 18.479V18.4917C17.4814 18.644 17.5216 18.7795 17.6021 18.8979C17.6825 19.0164 17.8073 19.1201 17.9766 19.209C18.1458 19.2979 18.3638 19.3761 18.6304 19.4438L19.6841 19.6978C20.3273 19.8543 20.8055 20.0786 21.1187 20.3706C21.436 20.6626 21.5947 21.054 21.5947 21.5449V21.5576C21.5947 21.9639 21.4741 22.3236 21.2329 22.6367C20.9917 22.9456 20.6637 23.1868 20.249 23.3604C19.8385 23.5339 19.373 23.6206 18.8525 23.6206ZM25.6763 23.5508C24.9738 23.5508 24.4639 23.409 24.1465 23.1255C23.8333 22.842 23.6768 22.3743 23.6768 21.7227V17.5713H22.5977V16.6572H23.6768V14.8862H24.8193V16.6572H26.3174V17.5713H24.8193V21.4434C24.8193 21.8454 24.8955 22.1353 25.0479 22.313C25.2002 22.4865 25.4541 22.5732 25.8096 22.5732C25.9069 22.5732 25.9894 22.5711 26.0571 22.5669C26.1291 22.5627 26.2158 22.5563 26.3174 22.5479V23.4873C26.2116 23.5042 26.1058 23.519 26 23.5317C25.8942 23.5444 25.7863 23.5508 25.6763 23.5508ZM31.7637 23.5V14.3403H32.8745L38.124 21.8687L37.3623 21.4688H37.9463V14.3403H39.0762V23.5H37.9653L32.7158 15.9971L33.4775 16.397H32.8936V23.5H31.7637ZM43.1514 23.6206C42.7197 23.6206 42.3304 23.5381 41.9834 23.373C41.6406 23.208 41.3677 22.9731 41.1646 22.6685C40.9657 22.3638 40.8662 22.0041 40.8662 21.5894V21.5767C40.8662 21.1704 40.9635 20.8234 41.1582 20.5356C41.3529 20.2437 41.6364 20.0151 42.0088 19.8501C42.3812 19.6851 42.8319 19.5877 43.3608 19.5581L45.8745 19.4058V20.2881L43.4941 20.4404C42.9736 20.4701 42.5928 20.578 42.3516 20.7642C42.1146 20.9504 41.9961 21.2127 41.9961 21.5513V21.564C41.9961 21.911 42.1273 22.1818 42.3896 22.3765C42.652 22.5669 42.9821 22.6621 43.3799 22.6621C43.7565 22.6621 44.0908 22.5881 44.3828 22.4399C44.6748 22.2876 44.9033 22.0824 45.0684 21.8242C45.2376 21.5661 45.3223 21.2741 45.3223 20.9482V18.8154C45.3223 18.3923 45.1932 18.0706 44.9351 17.8506C44.6812 17.6263 44.2982 17.5142 43.7861 17.5142C43.3757 17.5142 43.0392 17.5882 42.7769 17.7363C42.5145 17.8802 42.3389 18.0854 42.25 18.3521L42.2437 18.3711H41.1392L41.1455 18.333C41.2048 17.9733 41.3529 17.6602 41.5898 17.3936C41.8311 17.1227 42.1421 16.9132 42.5229 16.7651C42.9038 16.6128 43.3376 16.5366 43.8242 16.5366C44.3828 16.5366 44.8547 16.6276 45.2397 16.8096C45.6291 16.9915 45.9232 17.2539 46.1221 17.5967C46.3252 17.9352 46.4268 18.3415 46.4268 18.8154V23.5H45.3223V22.4907H45.2207C45.0768 22.7319 44.9012 22.9372 44.6938 23.1064C44.4907 23.2757 44.2601 23.4048 44.002 23.4937C43.7438 23.5783 43.4603 23.6206 43.1514 23.6206ZM48.4453 23.5V16.6572H49.5498V17.6982H49.6514C49.8037 17.3301 50.0365 17.0444 50.3496 16.8413C50.667 16.6382 51.05 16.5366 51.4985 16.5366C51.8075 16.5366 52.0846 16.5874 52.3301 16.689C52.5755 16.7905 52.7871 16.9323 52.9648 17.1143C53.1426 17.292 53.2843 17.4993 53.3901 17.7363H53.4917C53.6144 17.4951 53.7795 17.2856 53.9868 17.1079C54.1942 16.9259 54.4333 16.7863 54.7041 16.689C54.9792 16.5874 55.2733 16.5366 55.5864 16.5366C56.0519 16.5366 56.4455 16.6234 56.7671 16.7969C57.0929 16.9704 57.3405 17.2243 57.5098 17.5586C57.679 17.8887 57.7637 18.2928 57.7637 18.771V23.5H56.6592V19.0249C56.6592 18.6864 56.6063 18.4071 56.5005 18.187C56.3989 17.9627 56.2424 17.7956 56.0308 17.6855C55.8192 17.5713 55.5526 17.5142 55.231 17.5142C54.9136 17.5142 54.6364 17.5861 54.3994 17.73C54.1624 17.8739 53.9784 18.0664 53.8472 18.3076C53.716 18.5446 53.6504 18.8091 53.6504 19.1011V23.5H52.5459V18.8535C52.5459 18.5827 52.4867 18.3478 52.3682 18.1489C52.2539 17.9458 52.0889 17.7892 51.873 17.6792C51.6615 17.5692 51.4118 17.5142 51.124 17.5142C50.8278 17.5142 50.5591 17.5924 50.3179 17.749C50.0809 17.9056 49.8926 18.1172 49.7529 18.3838C49.6175 18.6462 49.5498 18.9382 49.5498 19.2598V23.5H48.4453ZM62.5498 23.6206C61.8981 23.6206 61.3374 23.4767 60.8677 23.189C60.4022 22.9012 60.0425 22.495 59.7886 21.9702C59.5389 21.4412 59.4141 20.8192 59.4141 20.104V20.0977C59.4141 19.391 59.5389 18.771 59.7886 18.2378C60.0425 17.7046 60.4001 17.2878 60.8613 16.9873C61.3226 16.6868 61.8621 16.5366 62.48 16.5366C63.1021 16.5366 63.6353 16.6805 64.0796 16.9683C64.5282 17.256 64.8709 17.658 65.1079 18.1743C65.3491 18.6864 65.4697 19.283 65.4697 19.9644V20.396H59.9854V19.5137H64.9048L64.3589 20.3198V19.8818C64.3589 19.3444 64.2785 18.9022 64.1177 18.5552C63.9569 18.2082 63.7347 17.95 63.4512 17.7808C63.1676 17.6073 62.8418 17.5205 62.4736 17.5205C62.1055 17.5205 61.7754 17.6115 61.4834 17.7935C61.1956 17.9712 60.9671 18.2357 60.7979 18.5869C60.6286 18.9382 60.5439 19.3698 60.5439 19.8818V20.3198C60.5439 20.8065 60.6265 21.2233 60.7915 21.5703C60.9565 21.9131 61.1914 22.1776 61.4961 22.3638C61.8008 22.5457 62.1605 22.6367 62.5752 22.6367C62.8841 22.6367 63.1528 22.5944 63.3813 22.5098C63.6099 22.4251 63.7982 22.3172 63.9463 22.186C64.0944 22.0549 64.1981 21.9215 64.2573 21.7861L64.2827 21.729H65.3872L65.3745 21.7798C65.3153 22.0125 65.2095 22.2389 65.0571 22.459C64.909 22.6748 64.7165 22.8716 64.4795 23.0493C64.2425 23.2228 63.9611 23.3625 63.6353 23.4683C63.3136 23.5698 62.9518 23.6206 62.5498 23.6206Z" fill="black" fill-opacity="0.85"/>
</svg>
