<svg width="431" height="36" viewBox="0 0 431 36" fill="none" xmlns="http://www.w3.org/2000/svg">
<path d="M1.73926 19.731V18.7153H4.3291C4.98503 18.7153 5.49284 18.5461 5.85254 18.2075C6.21224 17.8647 6.39209 17.3929 6.39209 16.792V16.7793C6.39209 16.1742 6.21224 15.7023 5.85254 15.3638C5.49284 15.0252 4.98503 14.856 4.3291 14.856H1.73926V13.8403H4.62109C5.19661 13.8403 5.70443 13.9631 6.14453 14.2085C6.58464 14.4539 6.92952 14.7967 7.1792 15.2368C7.43311 15.6769 7.56006 16.1868 7.56006 16.7666V16.7793C7.56006 17.359 7.43311 17.8711 7.1792 18.3154C6.92952 18.7598 6.58464 19.1068 6.14453 19.3564C5.70443 19.6061 5.19661 19.731 4.62109 19.731H1.73926ZM1.16797 23V13.8403H2.31055V23H1.16797ZM10.918 23.1206C10.4863 23.1206 10.097 23.0381 9.75 22.873C9.40723 22.708 9.13428 22.4731 8.93115 22.1685C8.73226 21.8638 8.63281 21.5041 8.63281 21.0894V21.0767C8.63281 20.6704 8.73014 20.3234 8.9248 20.0356C9.11947 19.7437 9.40299 19.5151 9.77539 19.3501C10.1478 19.1851 10.5985 19.0877 11.1274 19.0581L13.6411 18.9058V19.7881L11.2607 19.9404C10.7402 19.9701 10.3594 20.078 10.1182 20.2642C9.88118 20.4504 9.7627 20.7127 9.7627 21.0513V21.064C9.7627 21.411 9.89388 21.6818 10.1562 21.8765C10.4186 22.0669 10.7487 22.1621 11.1465 22.1621C11.5231 22.1621 11.8574 22.0881 12.1494 21.9399C12.4414 21.7876 12.6699 21.5824 12.835 21.3242C13.0042 21.0661 13.0889 20.7741 13.0889 20.4482V18.3154C13.0889 17.8923 12.9598 17.5706 12.7017 17.3506C12.4478 17.1263 12.0648 17.0142 11.5527 17.0142C11.1423 17.0142 10.8058 17.0882 10.5435 17.2363C10.2811 17.3802 10.1055 17.5854 10.0166 17.8521L10.0103 17.8711H8.90576L8.91211 17.833C8.97135 17.4733 9.11947 17.1602 9.35645 16.8936C9.59766 16.6227 9.90869 16.4132 10.2896 16.2651C10.6704 16.1128 11.1042 16.0366 11.5908 16.0366C12.1494 16.0366 12.6213 16.1276 13.0063 16.3096C13.3957 16.4915 13.6898 16.7539 13.8887 17.0967C14.0918 17.4352 14.1934 17.8415 14.1934 18.3154V23H13.0889V21.9907H12.9873C12.8434 22.2319 12.6678 22.4372 12.4604 22.6064C12.2573 22.7757 12.0267 22.9048 11.7686 22.9937C11.5104 23.0783 11.2269 23.1206 10.918 23.1206ZM18.5605 23.1206C18.0527 23.1206 17.6042 23.0444 17.2148 22.8921C16.8255 22.7355 16.5124 22.5176 16.2754 22.2383C16.0426 21.959 15.9051 21.631 15.8628 21.2544H16.9927C17.0858 21.5379 17.2677 21.7664 17.5386 21.9399C17.8094 22.1134 18.1628 22.2002 18.5986 22.2002C18.9076 22.2002 19.1784 22.1558 19.4111 22.0669C19.6481 21.9738 19.8343 21.849 19.9697 21.6924C20.1051 21.5316 20.1729 21.3475 20.1729 21.1401V21.1274C20.1729 20.8947 20.0798 20.6979 19.8936 20.5371C19.7074 20.3721 19.4027 20.2388 18.9795 20.1372L17.9194 19.8833C17.492 19.7817 17.1408 19.6506 16.8657 19.4897C16.5907 19.3247 16.3875 19.1237 16.2563 18.8867C16.1252 18.6455 16.0596 18.362 16.0596 18.0361V18.0298C16.0596 17.6489 16.1696 17.3083 16.3896 17.0078C16.6139 16.7074 16.9186 16.4704 17.3037 16.2969C17.6888 16.1234 18.1226 16.0366 18.605 16.0366C19.0832 16.0366 19.5063 16.1128 19.8745 16.2651C20.2469 16.4132 20.5452 16.6248 20.7695 16.8999C20.998 17.175 21.1377 17.4987 21.1885 17.8711H20.103C20.0311 17.6003 19.866 17.3802 19.6079 17.2109C19.3498 17.0417 19.0133 16.957 18.5986 16.957C18.3278 16.957 18.0866 17.0015 17.875 17.0903C17.6634 17.175 17.4963 17.2935 17.3735 17.4458C17.2508 17.5981 17.1895 17.7759 17.1895 17.979V17.9917C17.1895 18.144 17.2297 18.2795 17.3101 18.3979C17.3905 18.5164 17.5153 18.6201 17.6846 18.709C17.8538 18.7979 18.0718 18.8761 18.3384 18.9438L19.3921 19.1978C20.0353 19.3543 20.5135 19.5786 20.8267 19.8706C21.144 20.1626 21.3027 20.554 21.3027 21.0449V21.0576C21.3027 21.4639 21.1821 21.8236 20.9409 22.1367C20.6997 22.4456 20.3717 22.6868 19.957 22.8604C19.5465 23.0339 19.0811 23.1206 18.5605 23.1206ZM25.2383 23.1206C24.7305 23.1206 24.2819 23.0444 23.8926 22.8921C23.5033 22.7355 23.1901 22.5176 22.9531 22.2383C22.7204 21.959 22.5828 21.631 22.5405 21.2544H23.6704C23.7635 21.5379 23.9455 21.7664 24.2163 21.9399C24.4871 22.1134 24.8405 22.2002 25.2764 22.2002C25.5853 22.2002 25.8561 22.1558 26.0889 22.0669C26.3258 21.9738 26.512 21.849 26.6475 21.6924C26.7829 21.5316 26.8506 21.3475 26.8506 21.1401V21.1274C26.8506 20.8947 26.7575 20.6979 26.5713 20.5371C26.3851 20.3721 26.0804 20.2388 25.6572 20.1372L24.5972 19.8833C24.1698 19.7817 23.8185 19.6506 23.5435 19.4897C23.2684 19.3247 23.0653 19.1237 22.9341 18.8867C22.8029 18.6455 22.7373 18.362 22.7373 18.0361V18.0298C22.7373 17.6489 22.8473 17.3083 23.0674 17.0078C23.2917 16.7074 23.5964 16.4704 23.9814 16.2969C24.3665 16.1234 24.8003 16.0366 25.2827 16.0366C25.7609 16.0366 26.1841 16.1128 26.5522 16.2651C26.9246 16.4132 27.223 16.6248 27.4473 16.8999C27.6758 17.175 27.8154 17.4987 27.8662 17.8711H26.7808C26.7088 17.6003 26.5438 17.3802 26.2856 17.2109C26.0275 17.0417 25.6911 16.957 25.2764 16.957C25.0055 16.957 24.7643 17.0015 24.5527 17.0903C24.3411 17.175 24.174 17.2935 24.0513 17.4458C23.9285 17.5981 23.8672 17.7759 23.8672 17.979V17.9917C23.8672 18.144 23.9074 18.2795 23.9878 18.3979C24.0682 18.5164 24.193 18.6201 24.3623 18.709C24.5316 18.7979 24.7495 18.8761 25.0161 18.9438L26.0698 19.1978C26.7131 19.3543 27.1912 19.5786 27.5044 19.8706C27.8218 20.1626 27.9805 20.554 27.9805 21.0449V21.0576C27.9805 21.4639 27.8599 21.8236 27.6187 22.1367C27.3774 22.4456 27.0495 22.6868 26.6348 22.8604C26.2243 23.0339 25.7588 23.1206 25.2383 23.1206ZM30.8242 23L28.9072 16.1572H30.0117L31.3574 21.6289H31.459L32.9888 16.1572H34.0361L35.5659 21.6289H35.6675L37.0132 16.1572H38.1113L36.1943 23H35.0835L33.5537 17.7061H33.4521L31.9287 23H30.8242ZM42.1294 23.1206C41.4819 23.1206 40.9212 22.9788 40.4473 22.6953C39.9775 22.4076 39.6136 21.9992 39.3555 21.4702C39.1016 20.9412 38.9746 20.3128 38.9746 19.585V19.5723C38.9746 18.8402 39.1016 18.2096 39.3555 17.6807C39.6136 17.1517 39.9775 16.7454 40.4473 16.4619C40.9212 16.1784 41.4819 16.0366 42.1294 16.0366C42.7811 16.0366 43.3418 16.1784 43.8115 16.4619C44.2812 16.7454 44.6431 17.1517 44.897 17.6807C45.1551 18.2096 45.2842 18.8402 45.2842 19.5723V19.585C45.2842 20.3128 45.1551 20.9412 44.897 21.4702C44.6431 21.9992 44.2812 22.4076 43.8115 22.6953C43.3418 22.9788 42.7811 23.1206 42.1294 23.1206ZM42.1294 22.1431C42.561 22.1431 42.9271 22.0415 43.2275 21.8384C43.528 21.6353 43.7565 21.3433 43.9131 20.9624C44.0739 20.5815 44.1543 20.1224 44.1543 19.585V19.5723C44.1543 19.0306 44.0739 18.5693 43.9131 18.1885C43.7565 17.8076 43.528 17.5177 43.2275 17.3188C42.9271 17.1157 42.561 17.0142 42.1294 17.0142C41.6978 17.0142 41.3317 17.1157 41.0312 17.3188C40.7308 17.5177 40.5002 17.8076 40.3394 18.1885C40.1828 18.5693 40.1045 19.0306 40.1045 19.5723V19.585C40.1045 20.1224 40.1828 20.5815 40.3394 20.9624C40.5002 21.3433 40.7308 21.6353 41.0312 21.8384C41.3317 22.0415 41.6978 22.1431 42.1294 22.1431ZM46.998 23V16.1572H48.1025V17.1729H48.2041C48.3353 16.8132 48.5575 16.5339 48.8706 16.335C49.1838 16.1361 49.571 16.0366 50.0322 16.0366C50.138 16.0366 50.2417 16.043 50.3433 16.0557C50.4491 16.0641 50.5295 16.0726 50.5845 16.0811V17.1538C50.4702 17.1326 50.3581 17.1178 50.248 17.1094C50.1423 17.0967 50.028 17.0903 49.9053 17.0903C49.554 17.0903 49.243 17.1602 48.9722 17.2998C48.7013 17.4395 48.4876 17.6341 48.3311 17.8838C48.1787 18.1335 48.1025 18.4255 48.1025 18.7598V23H46.998ZM54.2852 23.1206C53.7096 23.1206 53.2061 22.9746 52.7744 22.6826C52.3428 22.3906 52.0085 21.9801 51.7715 21.4512C51.5345 20.918 51.416 20.2959 51.416 19.585V19.5723C51.416 18.8571 51.5345 18.235 51.7715 17.7061C52.0085 17.1771 52.3407 16.7666 52.7681 16.4746C53.1997 16.1826 53.7054 16.0366 54.2852 16.0366C54.5983 16.0366 54.8924 16.0874 55.1675 16.189C55.4468 16.2863 55.6943 16.4238 55.9102 16.6016C56.126 16.7793 56.2952 16.9909 56.418 17.2363H56.5195V13.4404H57.624V23H56.5195V21.9082H56.418C56.2783 22.1621 56.1027 22.38 55.8911 22.562C55.6795 22.7397 55.4383 22.8773 55.1675 22.9746C54.8966 23.0719 54.6025 23.1206 54.2852 23.1206ZM54.5391 22.1431C54.9538 22.1431 55.3114 22.0394 55.6118 21.832C55.9123 21.6247 56.1429 21.3306 56.3037 20.9497C56.4645 20.5646 56.5449 20.1097 56.5449 19.585V19.5723C56.5449 19.0433 56.4645 18.5884 56.3037 18.2075C56.1429 17.8267 55.9123 17.5326 55.6118 17.3252C55.3114 17.1178 54.9538 17.0142 54.5391 17.0142C54.1243 17.0142 53.7668 17.1178 53.4663 17.3252C53.1701 17.5283 52.9416 17.8203 52.7808 18.2012C52.6242 18.582 52.5459 19.0391 52.5459 19.5723V19.585C52.5459 20.1139 52.6242 20.571 52.7808 20.9561C52.9416 21.3369 53.1701 21.631 53.4663 21.8384C53.7668 22.0415 54.1243 22.1431 54.5391 22.1431Z" fill="black" fill-opacity="0.85"/>
</svg>
