<svg width="431" height="37" viewBox="0 0 431 37" fill="none" xmlns="http://www.w3.org/2000/svg">
<mask id="path-1-inside-1_524_9037" fill="white">
<path d="M0 0H431V37H0V0Z"/>
</mask>
<path d="M431 36H0V38H431V36Z" fill="black" fill-opacity="0.05" mask="url(#path-1-inside-1_524_9037)"/>
<path d="M0.437988 23.5L3.81494 14.3403H4.69092V15.8193H4.3291L1.6377 23.5H0.437988ZM1.96777 20.8784L2.32324 19.9072H6.46191L6.81738 20.8784H1.96777ZM7.12207 23.5L4.43066 15.8193V14.3403H4.94482L8.32178 23.5H7.12207ZM11.9336 23.6206C11.3581 23.6206 10.8545 23.4746 10.4229 23.1826C9.99121 22.8906 9.6569 22.4801 9.41992 21.9512C9.18294 21.418 9.06445 20.7959 9.06445 20.085V20.0723C9.06445 19.3571 9.18294 18.735 9.41992 18.2061C9.6569 17.6771 9.9891 17.2666 10.4165 16.9746C10.8481 16.6826 11.3538 16.5366 11.9336 16.5366C12.2467 16.5366 12.5409 16.5874 12.8159 16.689C13.0952 16.7863 13.3428 16.9238 13.5586 17.1016C13.7744 17.2793 13.9437 17.4909 14.0664 17.7363H14.168V13.9404H15.2725V23.5H14.168V22.4082H14.0664C13.9268 22.6621 13.7511 22.88 13.5396 23.062C13.328 23.2397 13.0868 23.3773 12.8159 23.4746C12.5451 23.5719 12.251 23.6206 11.9336 23.6206ZM12.1875 22.6431C12.6022 22.6431 12.9598 22.5394 13.2603 22.332C13.5607 22.1247 13.7913 21.8306 13.9521 21.4497C14.113 21.0646 14.1934 20.6097 14.1934 20.085V20.0723C14.1934 19.5433 14.113 19.0884 13.9521 18.7075C13.7913 18.3267 13.5607 18.0326 13.2603 17.8252C12.9598 17.6178 12.6022 17.5142 12.1875 17.5142C11.7728 17.5142 11.4152 17.6178 11.1147 17.8252C10.8185 18.0283 10.59 18.3203 10.4292 18.7012C10.2726 19.082 10.1943 19.5391 10.1943 20.0723V20.085C10.1943 20.6139 10.2726 21.071 10.4292 21.4561C10.59 21.8369 10.8185 22.131 11.1147 22.3384C11.4152 22.5415 11.7728 22.6431 12.1875 22.6431ZM19.9189 23.6206C19.3434 23.6206 18.8398 23.4746 18.4082 23.1826C17.9766 22.8906 17.6423 22.4801 17.4053 21.9512C17.1683 21.418 17.0498 20.7959 17.0498 20.085V20.0723C17.0498 19.3571 17.1683 18.735 17.4053 18.2061C17.6423 17.6771 17.9744 17.2666 18.4019 16.9746C18.8335 16.6826 19.3392 16.5366 19.9189 16.5366C20.2321 16.5366 20.5262 16.5874 20.8013 16.689C21.0806 16.7863 21.3281 16.9238 21.5439 17.1016C21.7598 17.2793 21.929 17.4909 22.0518 17.7363H22.1533V13.9404H23.2578V23.5H22.1533V22.4082H22.0518C21.9121 22.6621 21.7365 22.88 21.5249 23.062C21.3133 23.2397 21.0721 23.3773 20.8013 23.4746C20.5304 23.5719 20.2363 23.6206 19.9189 23.6206ZM20.1729 22.6431C20.5876 22.6431 20.9451 22.5394 21.2456 22.332C21.5461 22.1247 21.7767 21.8306 21.9375 21.4497C22.0983 21.0646 22.1787 20.6097 22.1787 20.085V20.0723C22.1787 19.5433 22.0983 19.0884 21.9375 18.7075C21.7767 18.3267 21.5461 18.0326 21.2456 17.8252C20.9451 17.6178 20.5876 17.5142 20.1729 17.5142C19.7581 17.5142 19.4006 17.6178 19.1001 17.8252C18.8039 18.0283 18.5754 18.3203 18.4146 18.7012C18.258 19.082 18.1797 19.5391 18.1797 20.0723V20.085C18.1797 20.6139 18.258 21.071 18.4146 21.4561C18.5754 21.8369 18.8039 22.131 19.1001 22.3384C19.4006 22.5415 19.7581 22.6431 20.1729 22.6431ZM25.3779 23.5V16.6572H26.4824V17.6729H26.584C26.7152 17.3132 26.9373 17.0339 27.2505 16.835C27.5636 16.6361 27.9508 16.5366 28.4121 16.5366C28.5179 16.5366 28.6216 16.543 28.7231 16.5557C28.8289 16.5641 28.9093 16.5726 28.9644 16.5811V17.6538C28.8501 17.6326 28.738 17.6178 28.6279 17.6094C28.5221 17.5967 28.4079 17.5903 28.2852 17.5903C27.9339 17.5903 27.6229 17.6602 27.3521 17.7998C27.0812 17.9395 26.8675 18.1341 26.7109 18.3838C26.5586 18.6335 26.4824 18.9255 26.4824 19.2598V23.5H25.3779ZM32.9316 23.6206C32.2799 23.6206 31.7192 23.4767 31.2495 23.189C30.784 22.9012 30.4243 22.495 30.1704 21.9702C29.9207 21.4412 29.7959 20.8192 29.7959 20.104V20.0977C29.7959 19.391 29.9207 18.771 30.1704 18.2378C30.4243 17.7046 30.7819 17.2878 31.2432 16.9873C31.7044 16.6868 32.244 16.5366 32.8618 16.5366C33.4839 16.5366 34.0171 16.6805 34.4614 16.9683C34.91 17.256 35.2528 17.658 35.4897 18.1743C35.731 18.6864 35.8516 19.283 35.8516 19.9644V20.396H30.3672V19.5137H35.2866L34.7407 20.3198V19.8818C34.7407 19.3444 34.6603 18.9022 34.4995 18.5552C34.3387 18.2082 34.1165 17.95 33.833 17.7808C33.5495 17.6073 33.2236 17.5205 32.8555 17.5205C32.4873 17.5205 32.1572 17.6115 31.8652 17.7935C31.5775 17.9712 31.349 18.2357 31.1797 18.5869C31.0104 18.9382 30.9258 19.3698 30.9258 19.8818V20.3198C30.9258 20.8065 31.0083 21.2233 31.1733 21.5703C31.3384 21.9131 31.5732 22.1776 31.8779 22.3638C32.1826 22.5457 32.5423 22.6367 32.957 22.6367C33.266 22.6367 33.5347 22.5944 33.7632 22.5098C33.9917 22.4251 34.18 22.3172 34.3281 22.186C34.4762 22.0549 34.5799 21.9215 34.6392 21.7861L34.6646 21.729H35.769L35.7563 21.7798C35.6971 22.0125 35.5913 22.2389 35.439 22.459C35.2909 22.6748 35.0983 22.8716 34.8613 23.0493C34.6243 23.2228 34.3429 23.3625 34.0171 23.4683C33.6955 23.5698 33.3337 23.6206 32.9316 23.6206ZM39.9141 23.6206C39.4062 23.6206 38.9577 23.5444 38.5684 23.3921C38.179 23.2355 37.8659 23.0176 37.6289 22.7383C37.3962 22.459 37.2586 22.131 37.2163 21.7544H38.3462C38.4393 22.0379 38.6213 22.2664 38.8921 22.4399C39.1629 22.6134 39.5163 22.7002 39.9521 22.7002C40.2611 22.7002 40.5319 22.6558 40.7646 22.5669C41.0016 22.4738 41.1878 22.349 41.3232 22.1924C41.4587 22.0316 41.5264 21.8475 41.5264 21.6401V21.6274C41.5264 21.3947 41.4333 21.1979 41.2471 21.0371C41.0609 20.8721 40.7562 20.7388 40.333 20.6372L39.2729 20.3833C38.8455 20.2817 38.4943 20.1506 38.2192 19.9897C37.9442 19.8247 37.741 19.6237 37.6099 19.3867C37.4787 19.1455 37.4131 18.862 37.4131 18.5361V18.5298C37.4131 18.1489 37.5231 17.8083 37.7432 17.5078C37.9674 17.2074 38.2721 16.9704 38.6572 16.7969C39.0423 16.6234 39.4761 16.5366 39.9585 16.5366C40.4367 16.5366 40.8599 16.6128 41.228 16.7651C41.6004 16.9132 41.8988 17.1248 42.123 17.3999C42.3516 17.675 42.4912 17.9987 42.542 18.3711H41.4565C41.3846 18.1003 41.2196 17.8802 40.9614 17.7109C40.7033 17.5417 40.3669 17.457 39.9521 17.457C39.6813 17.457 39.4401 17.5015 39.2285 17.5903C39.0169 17.675 38.8498 17.7935 38.7271 17.9458C38.6043 18.0981 38.543 18.2759 38.543 18.479V18.4917C38.543 18.644 38.5832 18.7795 38.6636 18.8979C38.744 19.0164 38.8688 19.1201 39.0381 19.209C39.2074 19.2979 39.4253 19.3761 39.6919 19.4438L40.7456 19.6978C41.3888 19.8543 41.867 20.0786 42.1802 20.3706C42.4976 20.6626 42.6562 21.054 42.6562 21.5449V21.5576C42.6562 21.9639 42.5356 22.3236 42.2944 22.6367C42.0532 22.9456 41.7253 23.1868 41.3105 23.3604C40.9001 23.5339 40.4346 23.6206 39.9141 23.6206ZM46.5918 23.6206C46.084 23.6206 45.6354 23.5444 45.2461 23.3921C44.8568 23.2355 44.5436 23.0176 44.3066 22.7383C44.0739 22.459 43.9364 22.131 43.894 21.7544H45.0239C45.117 22.0379 45.299 22.2664 45.5698 22.4399C45.8407 22.6134 46.194 22.7002 46.6299 22.7002C46.9388 22.7002 47.2096 22.6558 47.4424 22.5669C47.6794 22.4738 47.8656 22.349 48.001 22.1924C48.1364 22.0316 48.2041 21.8475 48.2041 21.6401V21.6274C48.2041 21.3947 48.111 21.1979 47.9248 21.0371C47.7386 20.8721 47.4339 20.7388 47.0107 20.6372L45.9507 20.3833C45.5233 20.2817 45.172 20.1506 44.897 19.9897C44.6219 19.8247 44.4188 19.6237 44.2876 19.3867C44.1564 19.1455 44.0908 18.862 44.0908 18.5361V18.5298C44.0908 18.1489 44.2008 17.8083 44.4209 17.5078C44.6452 17.2074 44.9499 16.9704 45.335 16.7969C45.7201 16.6234 46.1538 16.5366 46.6362 16.5366C47.1144 16.5366 47.5376 16.6128 47.9058 16.7651C48.2782 16.9132 48.5765 17.1248 48.8008 17.3999C49.0293 17.675 49.1689 17.9987 49.2197 18.3711H48.1343C48.0623 18.1003 47.8973 17.8802 47.6392 17.7109C47.381 17.5417 47.0446 17.457 46.6299 17.457C46.359 17.457 46.1178 17.5015 45.9062 17.5903C45.6947 17.675 45.5275 17.7935 45.4048 17.9458C45.2821 18.0981 45.2207 18.2759 45.2207 18.479V18.4917C45.2207 18.644 45.2609 18.7795 45.3413 18.8979C45.4217 19.0164 45.5465 19.1201 45.7158 19.209C45.8851 19.2979 46.103 19.3761 46.3696 19.4438L47.4233 19.6978C48.0666 19.8543 48.5448 20.0786 48.8579 20.3706C49.1753 20.6626 49.334 21.054 49.334 21.5449V21.5576C49.334 21.9639 49.2134 22.3236 48.9722 22.6367C48.731 22.9456 48.403 23.1868 47.9883 23.3604C47.5778 23.5339 47.1123 23.6206 46.5918 23.6206Z" fill="black" fill-opacity="0.85"/>
</svg>
