<svg width="431" height="36" viewBox="0 0 431 36" fill="none" xmlns="http://www.w3.org/2000/svg">
<mask id="path-1-inside-1_524_9025" fill="white">
<path d="M0 0H431V36H0V0Z"/>
</mask>
<path d="M431 35H0V37H431V35Z" fill="black" fill-opacity="0.05" mask="url(#path-1-inside-1_524_9025)"/>
<path d="M1.16797 23V13.8403H4.66553C5.25374 13.8403 5.76579 13.9546 6.20166 14.1831C6.64176 14.4074 6.98242 14.7227 7.22363 15.1289C7.46484 15.5352 7.58545 16.0133 7.58545 16.5635V16.5762C7.58545 17.2109 7.42253 17.7611 7.09668 18.2266C6.77083 18.6921 6.32015 19.0158 5.74463 19.1978L7.86475 23H6.52539L4.56396 19.3755C4.5555 19.3755 4.54492 19.3755 4.53223 19.3755C4.51953 19.3755 4.50895 19.3755 4.50049 19.3755H2.31055V23H1.16797ZM2.31055 18.3599H4.56396C5.15218 18.3599 5.60498 18.2096 5.92236 17.9092C6.24398 17.6045 6.40479 17.1729 6.40479 16.6143V16.6016C6.40479 16.0557 6.23763 15.6283 5.90332 15.3193C5.56901 15.0104 5.10563 14.856 4.51318 14.856H2.31055V18.3599ZM12.1431 23.1206C11.4956 23.1206 10.9349 22.9788 10.4609 22.6953C9.99121 22.4076 9.62728 21.9992 9.36914 21.4702C9.11523 20.9412 8.98828 20.3128 8.98828 19.585V19.5723C8.98828 18.8402 9.11523 18.2096 9.36914 17.6807C9.62728 17.1517 9.99121 16.7454 10.4609 16.4619C10.9349 16.1784 11.4956 16.0366 12.1431 16.0366C12.7948 16.0366 13.3555 16.1784 13.8252 16.4619C14.2949 16.7454 14.6567 17.1517 14.9106 17.6807C15.1688 18.2096 15.2979 18.8402 15.2979 19.5723V19.585C15.2979 20.3128 15.1688 20.9412 14.9106 21.4702C14.6567 21.9992 14.2949 22.4076 13.8252 22.6953C13.3555 22.9788 12.7948 23.1206 12.1431 23.1206ZM12.1431 22.1431C12.5747 22.1431 12.9408 22.0415 13.2412 21.8384C13.5417 21.6353 13.7702 21.3433 13.9268 20.9624C14.0876 20.5815 14.168 20.1224 14.168 19.585V19.5723C14.168 19.0306 14.0876 18.5693 13.9268 18.1885C13.7702 17.8076 13.5417 17.5177 13.2412 17.3188C12.9408 17.1157 12.5747 17.0142 12.1431 17.0142C11.7114 17.0142 11.3454 17.1157 11.0449 17.3188C10.7445 17.5177 10.5138 17.8076 10.353 18.1885C10.1965 18.5693 10.1182 19.0306 10.1182 19.5723V19.585C10.1182 20.1224 10.1965 20.5815 10.353 20.9624C10.5138 21.3433 10.7445 21.6353 11.0449 21.8384C11.3454 22.0415 11.7114 22.1431 12.1431 22.1431ZM17.0752 23V13.4404H18.1797V23H17.0752ZM23.0928 23.1206C22.4411 23.1206 21.8804 22.9767 21.4106 22.689C20.9451 22.4012 20.5854 21.995 20.3315 21.4702C20.0819 20.9412 19.957 20.3192 19.957 19.604V19.5977C19.957 18.891 20.0819 18.271 20.3315 17.7378C20.5854 17.2046 20.943 16.7878 21.4043 16.4873C21.8656 16.1868 22.4051 16.0366 23.0229 16.0366C23.645 16.0366 24.1782 16.1805 24.6226 16.4683C25.0711 16.756 25.4139 17.158 25.6509 17.6743C25.8921 18.1864 26.0127 18.783 26.0127 19.4644V19.896H20.5283V19.0137H25.4478L24.9019 19.8198V19.3818C24.9019 18.8444 24.8215 18.4022 24.6606 18.0552C24.4998 17.7082 24.2777 17.45 23.9941 17.2808C23.7106 17.1073 23.3848 17.0205 23.0166 17.0205C22.6484 17.0205 22.3184 17.1115 22.0264 17.2935C21.7386 17.4712 21.5101 17.7357 21.3408 18.0869C21.1715 18.4382 21.0869 18.8698 21.0869 19.3818V19.8198C21.0869 20.3065 21.1694 20.7233 21.3345 21.0703C21.4995 21.4131 21.7344 21.6776 22.0391 21.8638C22.3438 22.0457 22.7035 22.1367 23.1182 22.1367C23.4271 22.1367 23.6958 22.0944 23.9243 22.0098C24.1528 21.9251 24.3411 21.8172 24.4893 21.686C24.6374 21.5549 24.741 21.4215 24.8003 21.2861L24.8257 21.229H25.9302L25.9175 21.2798C25.8582 21.5125 25.7524 21.7389 25.6001 21.959C25.452 22.1748 25.2594 22.3716 25.0225 22.5493C24.7855 22.7228 24.5041 22.8625 24.1782 22.9683C23.8566 23.0698 23.4948 23.1206 23.0928 23.1206Z" fill="black" fill-opacity="0.85"/>
</svg>
