<svg width="431" height="52" viewBox="0 0 431 52" fill="none" xmlns="http://www.w3.org/2000/svg">
<path d="M1.16797 23V13.8403H2.31055V21.9717H6.72852V23H1.16797ZM8.44238 23V16.1572H9.54688V23H8.44238ZM9.00098 14.8369C8.79362 14.8369 8.61377 14.7629 8.46143 14.6147C8.31331 14.4624 8.23926 14.2826 8.23926 14.0752C8.23926 13.8636 8.31331 13.6838 8.46143 13.5356C8.61377 13.3875 8.79362 13.3135 9.00098 13.3135C9.21257 13.3135 9.39242 13.3875 9.54053 13.5356C9.68864 13.6838 9.7627 13.8636 9.7627 14.0752C9.7627 14.2826 9.68864 14.4624 9.54053 14.6147C9.39242 14.7629 9.21257 14.8369 9.00098 14.8369ZM14.4473 25.4121C13.8971 25.4121 13.4168 25.3338 13.0063 25.1772C12.5959 25.0249 12.2679 24.807 12.0225 24.5234C11.7812 24.2441 11.631 23.9183 11.5718 23.5459L11.5845 23.5396H12.7271L12.7334 23.5459C12.7926 23.804 12.9704 24.0156 13.2666 24.1807C13.5628 24.3499 13.9564 24.4346 14.4473 24.4346C15.0609 24.4346 15.5391 24.2949 15.8818 24.0156C16.2288 23.7406 16.4023 23.3512 16.4023 22.8477V21.4639H16.3008C16.1569 21.7135 15.9771 21.9272 15.7612 22.105C15.5454 22.2827 15.3021 22.4181 15.0312 22.5112C14.7604 22.6001 14.4684 22.6445 14.1553 22.6445C13.5671 22.6445 13.0571 22.5049 12.6255 22.2256C12.1981 21.9421 11.868 21.5527 11.6353 21.0576C11.4025 20.5625 11.2861 19.9954 11.2861 19.3564V19.3438C11.2861 18.7048 11.4025 18.1377 11.6353 17.6426C11.8722 17.1432 12.2065 16.7518 12.6382 16.4683C13.0698 16.1805 13.584 16.0366 14.1807 16.0366C14.5023 16.0366 14.7985 16.0874 15.0693 16.189C15.3402 16.2905 15.5793 16.4344 15.7866 16.6206C15.9982 16.8068 16.1738 17.029 16.3135 17.2871H16.3896V16.1572H17.4941V22.9048C17.4941 23.4126 17.3693 23.8548 17.1196 24.2314C16.8742 24.6081 16.5229 24.8979 16.0659 25.1011C15.6089 25.3084 15.0693 25.4121 14.4473 25.4121ZM14.3965 21.667C14.8197 21.667 15.1815 21.5697 15.4819 21.375C15.7866 21.1761 16.0194 20.9032 16.1802 20.5562C16.3452 20.2091 16.4277 19.8092 16.4277 19.3564V19.3438C16.4277 18.891 16.3452 18.4889 16.1802 18.1377C16.0194 17.7865 15.7866 17.5114 15.4819 17.3125C15.1815 17.1136 14.8197 17.0142 14.3965 17.0142C13.9733 17.0142 13.6136 17.1136 13.3174 17.3125C13.0254 17.5114 12.8011 17.7865 12.6445 18.1377C12.4922 18.4889 12.416 18.891 12.416 19.3438V19.3564C12.416 19.8092 12.4922 20.2091 12.6445 20.5562C12.8011 20.9032 13.0254 21.1761 13.3174 21.375C13.6136 21.5697 13.9733 21.667 14.3965 21.667ZM19.6143 23V13.4404H20.7188V17.1855H20.8203C20.9938 16.8216 21.2435 16.5402 21.5693 16.3413C21.8952 16.1382 22.3099 16.0366 22.8135 16.0366C23.3255 16.0366 23.7593 16.1361 24.1147 16.335C24.4702 16.5296 24.741 16.8153 24.9272 17.1919C25.1134 17.5685 25.2065 18.0277 25.2065 18.5693V23H24.1021V18.8359C24.1021 18.2181 23.9709 17.7611 23.7085 17.4648C23.4504 17.1644 23.0483 17.0142 22.5024 17.0142C22.1385 17.0142 21.8232 17.0924 21.5566 17.249C21.29 17.4056 21.0827 17.6278 20.9346 17.9155C20.7907 18.2033 20.7188 18.5482 20.7188 18.9502V23H19.6143ZM29.6372 23.0508C28.9347 23.0508 28.4248 22.909 28.1074 22.6255C27.7943 22.342 27.6377 21.8743 27.6377 21.2227V17.0713H26.5586V16.1572H27.6377V14.3862H28.7803V16.1572H30.2783V17.0713H28.7803V20.9434C28.7803 21.3454 28.8564 21.6353 29.0088 21.813C29.1611 21.9865 29.415 22.0732 29.7705 22.0732C29.8678 22.0732 29.9504 22.0711 30.0181 22.0669C30.09 22.0627 30.1768 22.0563 30.2783 22.0479V22.9873C30.1725 23.0042 30.0667 23.019 29.9609 23.0317C29.8551 23.0444 29.7472 23.0508 29.6372 23.0508ZM35.7246 23V13.8403H36.8672V23H35.7246ZM39.0635 23V16.1572H40.168V17.1855H40.2695C40.443 16.8216 40.6927 16.5402 41.0186 16.3413C41.3444 16.1382 41.7591 16.0366 42.2627 16.0366C43.0329 16.0366 43.6232 16.2567 44.0337 16.6968C44.4484 17.1326 44.6558 17.7568 44.6558 18.5693V23H43.5513V18.8359C43.5513 18.2181 43.4201 17.7611 43.1577 17.4648C42.8996 17.1644 42.4976 17.0142 41.9517 17.0142C41.5877 17.0142 41.2725 17.0924 41.0059 17.249C40.7393 17.4056 40.5319 17.6278 40.3838 17.9155C40.2399 18.2033 40.168 18.5482 40.168 18.9502V23H39.0635ZM49.0864 23.0508C48.384 23.0508 47.874 22.909 47.5566 22.6255C47.2435 22.342 47.0869 21.8743 47.0869 21.2227V17.0713H46.0078V16.1572H47.0869V14.3862H48.2295V16.1572H49.7275V17.0713H48.2295V20.9434C48.2295 21.3454 48.3057 21.6353 48.458 21.813C48.6104 21.9865 48.8643 22.0732 49.2197 22.0732C49.3171 22.0732 49.3996 22.0711 49.4673 22.0669C49.5392 22.0627 49.626 22.0563 49.7275 22.0479V22.9873C49.6217 23.0042 49.516 23.019 49.4102 23.0317C49.3044 23.0444 49.1965 23.0508 49.0864 23.0508ZM54.082 23.1206C53.4303 23.1206 52.8696 22.9767 52.3999 22.689C51.9344 22.4012 51.5747 21.995 51.3208 21.4702C51.0711 20.9412 50.9463 20.3192 50.9463 19.604V19.5977C50.9463 18.891 51.0711 18.271 51.3208 17.7378C51.5747 17.2046 51.9323 16.7878 52.3936 16.4873C52.8548 16.1868 53.3944 16.0366 54.0122 16.0366C54.6343 16.0366 55.1675 16.1805 55.6118 16.4683C56.0604 16.756 56.4032 17.158 56.6401 17.6743C56.8813 18.1864 57.002 18.783 57.002 19.4644V19.896H51.5176V19.0137H56.437L55.8911 19.8198V19.3818C55.8911 18.8444 55.8107 18.4022 55.6499 18.0552C55.4891 17.7082 55.2669 17.45 54.9834 17.2808C54.6999 17.1073 54.374 17.0205 54.0059 17.0205C53.6377 17.0205 53.3076 17.1115 53.0156 17.2935C52.7279 17.4712 52.4993 17.7357 52.3301 18.0869C52.1608 18.4382 52.0762 18.8698 52.0762 19.3818V19.8198C52.0762 20.3065 52.1587 20.7233 52.3237 21.0703C52.4888 21.4131 52.7236 21.6776 53.0283 21.8638C53.333 22.0457 53.6927 22.1367 54.1074 22.1367C54.4163 22.1367 54.6851 22.0944 54.9136 22.0098C55.1421 21.9251 55.3304 21.8172 55.4785 21.686C55.6266 21.5549 55.7303 21.4215 55.7896 21.2861L55.8149 21.229H56.9194L56.9067 21.2798C56.8475 21.5125 56.7417 21.7389 56.5894 21.959C56.4412 22.1748 56.2487 22.3716 56.0117 22.5493C55.7747 22.7228 55.4933 22.8625 55.1675 22.9683C54.8459 23.0698 54.484 23.1206 54.082 23.1206ZM58.7158 23V16.1572H59.8203V17.1855H59.9219C60.0954 16.8216 60.3451 16.5402 60.6709 16.3413C60.9967 16.1382 61.4115 16.0366 61.915 16.0366C62.6852 16.0366 63.2756 16.2567 63.686 16.6968C64.1007 17.1326 64.3081 17.7568 64.3081 18.5693V23H63.2036V18.8359C63.2036 18.2181 63.0724 17.7611 62.8101 17.4648C62.5519 17.1644 62.1499 17.0142 61.604 17.0142C61.2401 17.0142 60.9248 17.0924 60.6582 17.249C60.3916 17.4056 60.1842 17.6278 60.0361 17.9155C59.8923 18.2033 59.8203 18.5482 59.8203 18.9502V23H58.7158ZM68.6562 23.1206C68.1484 23.1206 67.6999 23.0444 67.3105 22.8921C66.9212 22.7355 66.6081 22.5176 66.3711 22.2383C66.1383 21.959 66.0008 21.631 65.9585 21.2544H67.0884C67.1815 21.5379 67.3634 21.7664 67.6343 21.9399C67.9051 22.1134 68.2585 22.2002 68.6943 22.2002C69.0033 22.2002 69.2741 22.1558 69.5068 22.0669C69.7438 21.9738 69.93 21.849 70.0654 21.6924C70.2008 21.5316 70.2686 21.3475 70.2686 21.1401V21.1274C70.2686 20.8947 70.1755 20.6979 69.9893 20.5371C69.8031 20.3721 69.4984 20.2388 69.0752 20.1372L68.0151 19.8833C67.5877 19.7817 67.2365 19.6506 66.9614 19.4897C66.6864 19.3247 66.4832 19.1237 66.3521 18.8867C66.2209 18.6455 66.1553 18.362 66.1553 18.0361V18.0298C66.1553 17.6489 66.2653 17.3083 66.4854 17.0078C66.7096 16.7074 67.0143 16.4704 67.3994 16.2969C67.7845 16.1234 68.2183 16.0366 68.7007 16.0366C69.1789 16.0366 69.6021 16.1128 69.9702 16.2651C70.3426 16.4132 70.641 16.6248 70.8652 16.8999C71.0938 17.175 71.2334 17.4987 71.2842 17.8711H70.1987C70.1268 17.6003 69.9618 17.3802 69.7036 17.2109C69.4455 17.0417 69.109 16.957 68.6943 16.957C68.4235 16.957 68.1823 17.0015 67.9707 17.0903C67.7591 17.175 67.592 17.2935 67.4692 17.4458C67.3465 17.5981 67.2852 17.7759 67.2852 17.979V17.9917C67.2852 18.144 67.3254 18.2795 67.4058 18.3979C67.4862 18.5164 67.611 18.6201 67.7803 18.709C67.9495 18.7979 68.1675 18.8761 68.4341 18.9438L69.4878 19.1978C70.131 19.3543 70.6092 19.5786 70.9224 19.8706C71.2397 20.1626 71.3984 20.554 71.3984 21.0449V21.0576C71.3984 21.4639 71.2778 21.8236 71.0366 22.1367C70.7954 22.4456 70.4674 22.6868 70.0527 22.8604C69.6423 23.0339 69.1768 23.1206 68.6562 23.1206ZM73.1377 23V16.1572H74.2422V23H73.1377ZM73.6963 14.8369C73.4889 14.8369 73.3091 14.7629 73.1567 14.6147C73.0086 14.4624 72.9346 14.2826 72.9346 14.0752C72.9346 13.8636 73.0086 13.6838 73.1567 13.5356C73.3091 13.3875 73.4889 13.3135 73.6963 13.3135C73.9079 13.3135 74.0877 13.3875 74.2358 13.5356C74.384 13.6838 74.458 13.8636 74.458 14.0752C74.458 14.2826 74.384 14.4624 74.2358 14.6147C74.0877 14.7629 73.9079 14.8369 73.6963 14.8369ZM78.7554 23.0508C78.0529 23.0508 77.543 22.909 77.2256 22.6255C76.9124 22.342 76.7559 21.8743 76.7559 21.2227V17.0713H75.6768V16.1572H76.7559V14.3862H77.8984V16.1572H79.3965V17.0713H77.8984V20.9434C77.8984 21.3454 77.9746 21.6353 78.127 21.813C78.2793 21.9865 78.5332 22.0732 78.8887 22.0732C78.986 22.0732 79.0685 22.0711 79.1362 22.0669C79.2082 22.0627 79.2949 22.0563 79.3965 22.0479V22.9873C79.2907 23.0042 79.1849 23.019 79.0791 23.0317C78.9733 23.0444 78.8654 23.0508 78.7554 23.0508ZM81.6309 25.3994C81.5589 25.3994 81.4785 25.3952 81.3896 25.3867C81.3008 25.3825 81.2183 25.374 81.1421 25.3613V24.4536C81.2098 24.4663 81.2839 24.4748 81.3643 24.479C81.4447 24.4832 81.5229 24.4854 81.5991 24.4854C81.9123 24.4854 82.1683 24.4049 82.3672 24.2441C82.5703 24.0833 82.7332 23.8062 82.856 23.4126L82.9829 23.0063L80.4502 16.1572H81.6309L83.7383 22.4795L83.3003 21.7876H83.8208L83.3828 22.4795L85.4839 16.1572H86.6455L83.9731 23.4189C83.7869 23.931 83.5902 24.3309 83.3828 24.6187C83.1755 24.9064 82.9321 25.1074 82.6528 25.2217C82.3778 25.3402 82.0371 25.3994 81.6309 25.3994Z" fill="black" fill-opacity="0.85"/>
<path d="M1.47168 36.2339V35.3745H3.66309C4.2181 35.3745 4.64779 35.2313 4.95215 34.9448C5.25651 34.6548 5.40869 34.2555 5.40869 33.7471V33.7363C5.40869 33.2243 5.25651 32.825 4.95215 32.5386C4.64779 32.2521 4.2181 32.1089 3.66309 32.1089H1.47168V31.2495H3.91016C4.39714 31.2495 4.82682 31.3534 5.19922 31.561C5.57161 31.7687 5.86344 32.0588 6.07471 32.4312C6.28955 32.8035 6.39697 33.235 6.39697 33.7256V33.7363C6.39697 34.2269 6.28955 34.6602 6.07471 35.0361C5.86344 35.4121 5.57161 35.7057 5.19922 35.917C4.82682 36.1283 4.39714 36.2339 3.91016 36.2339H1.47168ZM0.988281 39V31.2495H1.95508V39H0.988281ZM7.91699 39V30.9111H8.85156V34.0801H8.9375C9.08431 33.7721 9.29557 33.534 9.57129 33.3657C9.84701 33.1938 10.1979 33.1079 10.624 33.1079C11.0573 33.1079 11.4243 33.1921 11.7251 33.3604C12.0259 33.5251 12.255 33.7668 12.4126 34.0854C12.5701 34.4041 12.6489 34.7926 12.6489 35.251V39H11.7144V35.4766C11.7144 34.9538 11.6034 34.5671 11.3813 34.3164C11.1629 34.0622 10.8228 33.9351 10.3608 33.9351C10.0529 33.9351 9.78613 34.0013 9.56055 34.1338C9.33496 34.2663 9.15951 34.4543 9.03418 34.6978C8.91243 34.9412 8.85156 35.2331 8.85156 35.5732V39H7.91699ZM16.7202 39.1021C16.1724 39.1021 15.6979 38.9821 15.2969 38.7422C14.8994 38.4987 14.5915 38.1532 14.373 37.7056C14.1582 37.258 14.0508 36.7262 14.0508 36.1104V36.0996C14.0508 35.4801 14.1582 34.9466 14.373 34.499C14.5915 34.0514 14.8994 33.7077 15.2969 33.4678C15.6979 33.2279 16.1724 33.1079 16.7202 33.1079C17.2716 33.1079 17.7461 33.2279 18.1436 33.4678C18.541 33.7077 18.8472 34.0514 19.062 34.499C19.2804 34.9466 19.3896 35.4801 19.3896 36.0996V36.1104C19.3896 36.7262 19.2804 37.258 19.062 37.7056C18.8472 38.1532 18.541 38.4987 18.1436 38.7422C17.7461 38.9821 17.2716 39.1021 16.7202 39.1021ZM16.7202 38.2749C17.0854 38.2749 17.3952 38.189 17.6494 38.0171C17.9036 37.8452 18.097 37.5981 18.2295 37.2759C18.3656 36.9536 18.4336 36.5651 18.4336 36.1104V36.0996C18.4336 35.6413 18.3656 35.251 18.2295 34.9287C18.097 34.6064 17.9036 34.3612 17.6494 34.1929C17.3952 34.021 17.0854 33.9351 16.7202 33.9351C16.355 33.9351 16.0452 34.021 15.791 34.1929C15.5368 34.3612 15.3416 34.6064 15.2056 34.9287C15.0731 35.251 15.0068 35.6413 15.0068 36.0996V36.1104C15.0068 36.5651 15.0731 36.9536 15.2056 37.2759C15.3416 37.5981 15.5368 37.8452 15.791 38.0171C16.0452 38.189 16.355 38.2749 16.7202 38.2749ZM22.897 39.043C22.3026 39.043 21.8711 38.923 21.6025 38.6831C21.3376 38.4432 21.2051 38.0475 21.2051 37.4961V33.9834H20.292V33.21H21.2051V31.7114H22.1719V33.21H23.4395V33.9834H22.1719V37.2598C22.1719 37.5999 22.2363 37.8452 22.3652 37.9956C22.4941 38.1424 22.709 38.2158 23.0098 38.2158C23.0921 38.2158 23.1619 38.214 23.2192 38.2104C23.2801 38.2069 23.3535 38.2015 23.4395 38.1943V38.9893C23.3499 39.0036 23.2604 39.0161 23.1709 39.0269C23.0814 39.0376 22.9901 39.043 22.897 39.043ZM27.1401 39.1021C26.5923 39.1021 26.1178 38.9821 25.7168 38.7422C25.3193 38.4987 25.0114 38.1532 24.793 37.7056C24.5781 37.258 24.4707 36.7262 24.4707 36.1104V36.0996C24.4707 35.4801 24.5781 34.9466 24.793 34.499C25.0114 34.0514 25.3193 33.7077 25.7168 33.4678C26.1178 33.2279 26.5923 33.1079 27.1401 33.1079C27.6916 33.1079 28.166 33.2279 28.5635 33.4678C28.9609 33.7077 29.2671 34.0514 29.4819 34.499C29.7004 34.9466 29.8096 35.4801 29.8096 36.0996V36.1104C29.8096 36.7262 29.7004 37.258 29.4819 37.7056C29.2671 38.1532 28.9609 38.4987 28.5635 38.7422C28.166 38.9821 27.6916 39.1021 27.1401 39.1021ZM27.1401 38.2749C27.5054 38.2749 27.8151 38.189 28.0693 38.0171C28.3236 37.8452 28.5169 37.5981 28.6494 37.2759C28.7855 36.9536 28.8535 36.5651 28.8535 36.1104V36.0996C28.8535 35.6413 28.7855 35.251 28.6494 34.9287C28.5169 34.6064 28.3236 34.3612 28.0693 34.1929C27.8151 34.021 27.5054 33.9351 27.1401 33.9351C26.7749 33.9351 26.4652 34.021 26.2109 34.1929C25.9567 34.3612 25.7616 34.6064 25.6255 34.9287C25.493 35.251 25.4268 35.6413 25.4268 36.0996V36.1104C25.4268 36.5651 25.493 36.9536 25.6255 37.2759C25.7616 37.5981 25.9567 37.8452 26.2109 38.0171C26.4652 38.189 26.7749 38.2749 27.1401 38.2749ZM33.2471 39.1021C32.8174 39.1021 32.4378 39.0376 32.1084 38.9087C31.779 38.7762 31.514 38.5918 31.3135 38.3555C31.1165 38.1191 31.0002 37.8416 30.9644 37.5229H31.9204C31.9992 37.7629 32.1532 37.9562 32.3823 38.103C32.6115 38.2498 32.9105 38.3232 33.2793 38.3232C33.5407 38.3232 33.7699 38.2856 33.9668 38.2104C34.1673 38.1317 34.3249 38.026 34.4395 37.8936C34.554 37.7575 34.6113 37.6017 34.6113 37.4263V37.4155C34.6113 37.2186 34.5326 37.0521 34.375 36.916C34.2174 36.7764 33.9596 36.6636 33.6016 36.5776L32.7046 36.3628C32.3429 36.2769 32.0457 36.1659 31.813 36.0298C31.5802 35.8901 31.4084 35.7201 31.2974 35.5195C31.1864 35.3154 31.1309 35.0755 31.1309 34.7998V34.7944C31.1309 34.4722 31.224 34.1839 31.4102 33.9297C31.5999 33.6755 31.8577 33.4749 32.1836 33.3281C32.5094 33.1813 32.8765 33.1079 33.2847 33.1079C33.6893 33.1079 34.0474 33.1724 34.3589 33.3013C34.674 33.4266 34.9264 33.6056 35.1162 33.8384C35.3096 34.0711 35.4277 34.3451 35.4707 34.6602H34.5522C34.4914 34.431 34.3517 34.2448 34.1333 34.1016C33.9149 33.9583 33.6302 33.8867 33.2793 33.8867C33.0501 33.8867 32.846 33.9243 32.667 33.9995C32.488 34.0711 32.3465 34.1714 32.2427 34.3003C32.1388 34.4292 32.0869 34.5796 32.0869 34.7515V34.7622C32.0869 34.8911 32.1209 35.0057 32.189 35.106C32.257 35.2062 32.3626 35.2939 32.5059 35.3691C32.6491 35.4443 32.8335 35.5106 33.0591 35.5679L33.9507 35.7827C34.495 35.9152 34.8996 36.105 35.1646 36.3521C35.4331 36.5991 35.5674 36.9303 35.5674 37.3457V37.3564C35.5674 37.7002 35.4653 38.0046 35.2612 38.2695C35.0571 38.5309 34.7796 38.735 34.4287 38.8818C34.0814 39.0286 33.6875 39.1021 33.2471 39.1021ZM37.3506 41.0303C37.2897 41.0303 37.2217 41.0267 37.1465 41.0195C37.0713 41.016 37.0015 41.0088 36.937 40.998V40.23C36.9943 40.2407 37.057 40.2479 37.125 40.2515C37.193 40.255 37.2593 40.2568 37.3237 40.2568C37.5887 40.2568 37.8053 40.1888 37.9736 40.0527C38.1455 39.9167 38.2834 39.6821 38.3872 39.3491L38.4946 39.0054L36.3516 33.21H37.3506L39.1338 38.5596L38.7632 37.9741H39.2036L38.833 38.5596L40.6108 33.21H41.5938L39.3325 39.3545C39.175 39.7878 39.0085 40.1261 38.833 40.3696C38.6576 40.6131 38.4517 40.7832 38.2153 40.8799C37.9826 40.9801 37.6943 41.0303 37.3506 41.0303ZM42.8291 39V33.21H43.7637V34.0801H43.8496C43.9964 33.7721 44.2077 33.534 44.4834 33.3657C44.7591 33.1938 45.11 33.1079 45.5361 33.1079C46.1878 33.1079 46.6873 33.2941 47.0347 33.6665C47.3856 34.0353 47.561 34.5635 47.561 35.251V39H46.6265V35.4766C46.6265 34.9538 46.5155 34.5671 46.2935 34.3164C46.075 34.0622 45.7349 33.9351 45.2729 33.9351C44.965 33.9351 44.6982 34.0013 44.4727 34.1338C44.2471 34.2663 44.0716 34.4543 43.9463 34.6978C43.8245 34.9412 43.7637 35.2331 43.7637 35.5732V39H42.8291ZM51.3101 39.043C50.7157 39.043 50.2842 38.923 50.0156 38.6831C49.7507 38.4432 49.6182 38.0475 49.6182 37.4961V33.9834H48.7051V33.21H49.6182V31.7114H50.585V33.21H51.8525V33.9834H50.585V37.2598C50.585 37.5999 50.6494 37.8452 50.7783 37.9956C50.9072 38.1424 51.1221 38.2158 51.4229 38.2158C51.5052 38.2158 51.575 38.214 51.6323 38.2104C51.6932 38.2069 51.7666 38.2015 51.8525 38.1943V38.9893C51.763 39.0036 51.6735 39.0161 51.584 39.0269C51.4945 39.0376 51.4032 39.043 51.3101 39.043ZM53.3027 39V30.9111H54.2373V34.0801H54.3232C54.4701 33.7721 54.6813 33.534 54.957 33.3657C55.2327 33.1938 55.5837 33.1079 56.0098 33.1079C56.443 33.1079 56.8101 33.1921 57.1108 33.3604C57.4116 33.5251 57.6408 33.7668 57.7983 34.0854C57.9559 34.4041 58.0347 34.7926 58.0347 35.251V39H57.1001V35.4766C57.1001 34.9538 56.9891 34.5671 56.7671 34.3164C56.5487 34.0622 56.2085 33.9351 55.7466 33.9351C55.4386 33.9351 55.1719 34.0013 54.9463 34.1338C54.7207 34.2663 54.5452 34.4543 54.4199 34.6978C54.2982 34.9412 54.2373 35.2331 54.2373 35.5732V39H53.3027ZM62.0898 39.1021C61.5384 39.1021 61.064 38.9803 60.6665 38.7368C60.2726 38.4933 59.9683 38.1496 59.7534 37.7056C59.5422 37.258 59.4365 36.7316 59.4365 36.1265V36.1211C59.4365 35.5231 59.5422 34.9985 59.7534 34.5474C59.9683 34.0962 60.2708 33.7435 60.6611 33.4893C61.0514 33.235 61.508 33.1079 62.0308 33.1079C62.5571 33.1079 63.0083 33.2297 63.3843 33.4731C63.7638 33.7166 64.0539 34.0568 64.2544 34.4937C64.4585 34.9269 64.5605 35.4318 64.5605 36.0083V36.3735H59.9199V35.627H64.0825L63.6206 36.3091V35.9385C63.6206 35.4837 63.5526 35.1095 63.4165 34.8159C63.2804 34.5223 63.0924 34.3039 62.8525 34.1606C62.6126 34.0138 62.3369 33.9404 62.0254 33.9404C61.7139 33.9404 61.4346 34.0174 61.1875 34.1714C60.944 34.3218 60.7507 34.5456 60.6074 34.8428C60.4642 35.14 60.3926 35.5052 60.3926 35.9385V36.3091C60.3926 36.7209 60.4624 37.0736 60.6021 37.3672C60.7417 37.6572 60.9404 37.881 61.1982 38.0386C61.4561 38.1925 61.7604 38.2695 62.1113 38.2695C62.3727 38.2695 62.6001 38.2337 62.7935 38.1621C62.9868 38.0905 63.1462 37.9992 63.2715 37.8882C63.3968 37.7772 63.4845 37.6644 63.5347 37.5498L63.5562 37.5015H64.4907L64.48 37.5444C64.4299 37.7414 64.3403 37.9329 64.2114 38.1191C64.0861 38.3018 63.9232 38.4683 63.7227 38.6187C63.5221 38.7655 63.284 38.8836 63.0083 38.9731C62.7362 39.0591 62.43 39.1021 62.0898 39.1021ZM68.0679 39.043C67.4735 39.043 67.042 38.923 66.7734 38.6831C66.5085 38.4432 66.376 38.0475 66.376 37.4961V33.9834H65.4629V33.21H66.376V31.7114H67.3428V33.21H68.6104V33.9834H67.3428V37.2598C67.3428 37.5999 67.4072 37.8452 67.5361 37.9956C67.665 38.1424 67.8799 38.2158 68.1807 38.2158C68.263 38.2158 68.3328 38.214 68.3901 38.2104C68.451 38.2069 68.5244 38.2015 68.6104 38.1943V38.9893C68.5208 39.0036 68.4313 39.0161 68.3418 39.0269C68.2523 39.0376 68.161 39.043 68.0679 39.043ZM70.0283 39V33.21H70.9629V39H70.0283ZM70.501 32.0928C70.3255 32.0928 70.1733 32.0301 70.0444 31.9048C69.9191 31.7759 69.8564 31.6237 69.8564 31.4482C69.8564 31.2692 69.9191 31.117 70.0444 30.9917C70.1733 30.8664 70.3255 30.8037 70.501 30.8037C70.68 30.8037 70.8322 30.8664 70.9575 30.9917C71.0828 31.117 71.1455 31.2692 71.1455 31.4482C71.1455 31.6237 71.0828 31.7759 70.9575 31.9048C70.8322 32.0301 70.68 32.0928 70.501 32.0928ZM75.0933 39.1021C74.5526 39.1021 74.0835 38.9785 73.686 38.7314C73.2886 38.4844 72.9806 38.1353 72.7622 37.6841C72.5438 37.2329 72.4346 36.7012 72.4346 36.0889V36.0781C72.4346 35.4766 72.542 34.9538 72.7568 34.5098C72.9753 34.0658 73.2832 33.722 73.6807 33.4785C74.0781 33.2314 74.5472 33.1079 75.0879 33.1079C75.557 33.1079 75.9616 33.1903 76.3018 33.355C76.6419 33.5197 76.9141 33.7417 77.1182 34.021C77.3223 34.2967 77.453 34.6064 77.5103 34.9502L77.5156 34.9824H76.5864L76.5811 34.9663C76.5094 34.6799 76.3465 34.4364 76.0923 34.2358C75.8381 34.0353 75.5033 33.9351 75.0879 33.9351C74.7406 33.9351 74.4398 34.0228 74.1855 34.1982C73.9313 34.3737 73.7344 34.6226 73.5947 34.9448C73.4587 35.2635 73.3906 35.6413 73.3906 36.0781V36.0889C73.3906 36.5329 73.4604 36.9196 73.6001 37.249C73.7397 37.5749 73.9367 37.8273 74.1909 38.0063C74.4451 38.1854 74.7441 38.2749 75.0879 38.2749C75.4782 38.2749 75.7969 38.1908 76.0439 38.0225C76.291 37.8542 76.4683 37.6089 76.5757 37.2866L76.5864 37.2544L77.5103 37.249L77.4995 37.3081C77.4207 37.6554 77.2811 37.9652 77.0806 38.2373C76.88 38.5059 76.6151 38.7171 76.2856 38.8711C75.9562 39.0251 75.5588 39.1021 75.0933 39.1021ZM80.4697 39.1021C80.1045 39.1021 79.7751 39.0322 79.4814 38.8926C79.1914 38.7529 78.9604 38.5542 78.7886 38.2964C78.6203 38.0386 78.5361 37.7342 78.5361 37.3833V37.3726C78.5361 37.0288 78.6185 36.7352 78.7832 36.4917C78.9479 36.2446 79.1878 36.0513 79.5029 35.9116C79.818 35.772 80.1994 35.6896 80.647 35.6646L82.7739 35.5356V36.2822L80.7598 36.4111C80.3193 36.4362 79.9971 36.5275 79.793 36.6851C79.5924 36.8426 79.4922 37.0646 79.4922 37.3511V37.3618C79.4922 37.6554 79.6032 37.8846 79.8252 38.0493C80.0472 38.2104 80.3265 38.291 80.6631 38.291C80.9818 38.291 81.2646 38.2284 81.5117 38.103C81.7588 37.9741 81.9521 37.8005 82.0918 37.582C82.235 37.3636 82.3066 37.1165 82.3066 36.8408V35.0361C82.3066 34.6781 82.1974 34.4059 81.979 34.2197C81.7642 34.0299 81.4401 33.9351 81.0068 33.9351C80.6595 33.9351 80.3748 33.9977 80.1528 34.123C79.9308 34.2448 79.7822 34.4185 79.707 34.644L79.7017 34.6602H78.7671L78.7725 34.6279C78.8226 34.3236 78.9479 34.0586 79.1484 33.833C79.3525 33.6038 79.6157 33.4266 79.938 33.3013C80.2603 33.1724 80.6273 33.1079 81.0391 33.1079C81.5117 33.1079 81.911 33.1849 82.2368 33.3389C82.5662 33.4928 82.8151 33.7148 82.9834 34.0049C83.1553 34.2913 83.2412 34.6351 83.2412 35.0361V39H82.3066V38.146H82.2207C82.099 38.3501 81.9504 38.5238 81.7749 38.667C81.603 38.8102 81.4079 38.9194 81.1895 38.9946C80.971 39.0662 80.7311 39.1021 80.4697 39.1021ZM85.0029 39V30.9111H85.9375V39H85.0029ZM87.7852 39V30.9111H88.7197V39H87.7852ZM91.0078 41.0303C90.9469 41.0303 90.8789 41.0267 90.8037 41.0195C90.7285 41.016 90.6587 41.0088 90.5942 40.998V40.23C90.6515 40.2407 90.7142 40.2479 90.7822 40.2515C90.8503 40.255 90.9165 40.2568 90.981 40.2568C91.2459 40.2568 91.4626 40.1888 91.6309 40.0527C91.8027 39.9167 91.9406 39.6821 92.0444 39.3491L92.1519 39.0054L90.0088 33.21H91.0078L92.791 38.5596L92.4204 37.9741H92.8608L92.4902 38.5596L94.2681 33.21H95.251L92.9897 39.3545C92.8322 39.7878 92.6657 40.1261 92.4902 40.3696C92.3148 40.6131 92.1089 40.7832 91.8726 40.8799C91.6398 40.9801 91.3516 41.0303 91.0078 41.0303ZM99.0806 39L101.938 31.2495H102.679V32.501H102.373L100.096 39H99.0806ZM100.375 36.7817L100.676 35.96H104.178L104.479 36.7817H100.375ZM104.736 39L102.459 32.501V31.2495H102.894L105.751 39H104.736ZM109.039 39.1021C108.498 39.1021 108.029 38.9785 107.631 38.7314C107.234 38.4844 106.926 38.1353 106.708 37.6841C106.489 37.2329 106.38 36.7012 106.38 36.0889V36.0781C106.38 35.4766 106.487 34.9538 106.702 34.5098C106.921 34.0658 107.229 33.722 107.626 33.4785C108.023 33.2314 108.493 33.1079 109.033 33.1079C109.502 33.1079 109.907 33.1903 110.247 33.355C110.587 33.5197 110.859 33.7417 111.063 34.021C111.268 34.2967 111.398 34.6064 111.456 34.9502L111.461 34.9824H110.532L110.526 34.9663C110.455 34.6799 110.292 34.4364 110.038 34.2358C109.783 34.0353 109.449 33.9351 109.033 33.9351C108.686 33.9351 108.385 34.0228 108.131 34.1982C107.877 34.3737 107.68 34.6226 107.54 34.9448C107.404 35.2635 107.336 35.6413 107.336 36.0781V36.0889C107.336 36.5329 107.406 36.9196 107.545 37.249C107.685 37.5749 107.882 37.8273 108.136 38.0063C108.39 38.1854 108.689 38.2749 109.033 38.2749C109.424 38.2749 109.742 38.1908 109.989 38.0225C110.236 37.8542 110.414 37.6089 110.521 37.2866L110.532 37.2544L111.456 37.249L111.445 37.3081C111.366 37.6554 111.226 37.9652 111.026 38.2373C110.825 38.5059 110.56 38.7171 110.231 38.8711C109.902 39.0251 109.504 39.1021 109.039 39.1021ZM114.99 39.043C114.395 39.043 113.964 38.923 113.695 38.6831C113.43 38.4432 113.298 38.0475 113.298 37.4961V33.9834H112.385V33.21H113.298V31.7114H114.265V33.21H115.532V33.9834H114.265V37.2598C114.265 37.5999 114.329 37.8452 114.458 37.9956C114.587 38.1424 114.802 38.2158 115.103 38.2158C115.185 38.2158 115.255 38.214 115.312 38.2104C115.373 38.2069 115.446 38.2015 115.532 38.1943V38.9893C115.443 39.0036 115.353 39.0161 115.264 39.0269C115.174 39.0376 115.083 39.043 114.99 39.043ZM116.95 39V33.21H117.885V39H116.95ZM117.423 32.0928C117.247 32.0928 117.095 32.0301 116.966 31.9048C116.841 31.7759 116.778 31.6237 116.778 31.4482C116.778 31.2692 116.841 31.117 116.966 30.9917C117.095 30.8664 117.247 30.8037 117.423 30.8037C117.602 30.8037 117.754 30.8664 117.879 30.9917C118.005 31.117 118.067 31.2692 118.067 31.4482C118.067 31.6237 118.005 31.7759 117.879 31.9048C117.754 32.0301 117.602 32.0928 117.423 32.0928ZM121.285 39L119.142 33.21H120.13L121.714 37.9795H121.8L123.385 33.21H124.373L122.23 39H121.285ZM127.757 39.1021C127.205 39.1021 126.731 38.9803 126.333 38.7368C125.94 38.4933 125.635 38.1496 125.42 37.7056C125.209 37.258 125.104 36.7316 125.104 36.1265V36.1211C125.104 35.5231 125.209 34.9985 125.42 34.5474C125.635 34.0962 125.938 33.7435 126.328 33.4893C126.718 33.235 127.175 33.1079 127.698 33.1079C128.224 33.1079 128.675 33.2297 129.051 33.4731C129.431 33.7166 129.721 34.0568 129.921 34.4937C130.125 34.9269 130.228 35.4318 130.228 36.0083V36.3735H125.587V35.627H129.75L129.288 36.3091V35.9385C129.288 35.4837 129.22 35.1095 129.083 34.8159C128.947 34.5223 128.759 34.3039 128.52 34.1606C128.28 34.0138 128.004 33.9404 127.692 33.9404C127.381 33.9404 127.102 34.0174 126.854 34.1714C126.611 34.3218 126.418 34.5456 126.274 34.8428C126.131 35.14 126.06 35.5052 126.06 35.9385V36.3091C126.06 36.7209 126.129 37.0736 126.269 37.3672C126.409 37.6572 126.607 37.881 126.865 38.0386C127.123 38.1925 127.427 38.2695 127.778 38.2695C128.04 38.2695 128.267 38.2337 128.46 38.1621C128.654 38.0905 128.813 37.9992 128.938 37.8882C129.064 37.7772 129.152 37.6644 129.202 37.5498L129.223 37.5015H130.158L130.147 37.5444C130.097 37.7414 130.007 37.9329 129.878 38.1191C129.753 38.3018 129.59 38.4683 129.39 38.6187C129.189 38.7655 128.951 38.8836 128.675 38.9731C128.403 39.0591 128.097 39.1021 127.757 39.1021ZM134.89 39V31.2495H137.849C138.347 31.2495 138.78 31.3462 139.149 31.5396C139.521 31.7293 139.81 31.9961 140.014 32.3398C140.218 32.6836 140.32 33.0882 140.32 33.5537V33.5645C140.32 34.1016 140.182 34.5671 139.906 34.9609C139.631 35.3548 139.249 35.6287 138.762 35.7827L140.556 39H139.423L137.763 35.9331C137.756 35.9331 137.747 35.9331 137.736 35.9331C137.726 35.9331 137.717 35.9331 137.709 35.9331H135.856V39H134.89ZM135.856 35.0737H137.763C138.261 35.0737 138.644 34.9466 138.913 34.6924C139.185 34.4346 139.321 34.0693 139.321 33.5967V33.5859C139.321 33.124 139.179 32.7624 138.896 32.501C138.614 32.2396 138.222 32.1089 137.72 32.1089H135.856V35.0737ZM143.548 39.1021C143.183 39.1021 142.853 39.0322 142.56 38.8926C142.27 38.7529 142.039 38.5542 141.867 38.2964C141.698 38.0386 141.614 37.7342 141.614 37.3833V37.3726C141.614 37.0288 141.697 36.7352 141.861 36.4917C142.026 36.2446 142.266 36.0513 142.581 35.9116C142.896 35.772 143.278 35.6896 143.725 35.6646L145.852 35.5356V36.2822L143.838 36.4111C143.397 36.4362 143.075 36.5275 142.871 36.6851C142.671 36.8426 142.57 37.0646 142.57 37.3511V37.3618C142.57 37.6554 142.681 37.8846 142.903 38.0493C143.125 38.2104 143.405 38.291 143.741 38.291C144.06 38.291 144.343 38.2284 144.59 38.103C144.837 37.9741 145.03 37.8005 145.17 37.582C145.313 37.3636 145.385 37.1165 145.385 36.8408V35.0361C145.385 34.6781 145.276 34.4059 145.057 34.2197C144.842 34.0299 144.518 33.9351 144.085 33.9351C143.738 33.9351 143.453 33.9977 143.231 34.123C143.009 34.2448 142.86 34.4185 142.785 34.644L142.78 34.6602H141.845L141.851 34.6279C141.901 34.3236 142.026 34.0586 142.227 33.833C142.431 33.6038 142.694 33.4266 143.016 33.3013C143.338 33.1724 143.705 33.1079 144.117 33.1079C144.59 33.1079 144.989 33.1849 145.315 33.3389C145.644 33.4928 145.893 33.7148 146.062 34.0049C146.233 34.2913 146.319 34.6351 146.319 35.0361V39H145.385V38.146H145.299C145.177 38.3501 145.028 38.5238 144.853 38.667C144.681 38.8102 144.486 38.9194 144.268 38.9946C144.049 39.0662 143.809 39.1021 143.548 39.1021ZM150.165 39.1021C149.678 39.1021 149.252 38.9785 148.887 38.7314C148.521 38.4844 148.239 38.137 148.038 37.6895C147.838 37.2383 147.737 36.7119 147.737 36.1104V36.0996C147.737 35.4945 147.838 34.9681 148.038 34.5205C148.239 34.0729 148.52 33.7256 148.881 33.4785C149.247 33.2314 149.674 33.1079 150.165 33.1079C150.43 33.1079 150.679 33.1509 150.912 33.2368C151.148 33.3192 151.357 33.4355 151.54 33.5859C151.723 33.7363 151.866 33.9154 151.97 34.123H152.056V30.9111H152.99V39H152.056V38.0762H151.97C151.852 38.291 151.703 38.4754 151.524 38.6294C151.345 38.7798 151.141 38.8962 150.912 38.9785C150.682 39.0609 150.434 39.1021 150.165 39.1021ZM150.38 38.2749C150.731 38.2749 151.033 38.1872 151.288 38.0117C151.542 37.8363 151.737 37.5874 151.873 37.2651C152.009 36.9393 152.077 36.5544 152.077 36.1104V36.0996C152.077 35.652 152.009 35.2671 151.873 34.9448C151.737 34.6226 151.542 34.3737 151.288 34.1982C151.033 34.0228 150.731 33.9351 150.38 33.9351C150.029 33.9351 149.726 34.0228 149.472 34.1982C149.222 34.3701 149.028 34.6172 148.892 34.9395C148.76 35.2617 148.693 35.6484 148.693 36.0996V36.1104C148.693 36.5579 148.76 36.9447 148.892 37.2705C149.028 37.5928 149.222 37.8416 149.472 38.0171C149.726 38.189 150.029 38.2749 150.38 38.2749ZM154.806 39V33.21H155.74V39H154.806ZM155.278 32.0928C155.103 32.0928 154.951 32.0301 154.822 31.9048C154.696 31.7759 154.634 31.6237 154.634 31.4482C154.634 31.2692 154.696 31.117 154.822 30.9917C154.951 30.8664 155.103 30.8037 155.278 30.8037C155.457 30.8037 155.61 30.8664 155.735 30.9917C155.86 31.117 155.923 31.2692 155.923 31.4482C155.923 31.6237 155.86 31.7759 155.735 31.9048C155.61 32.0301 155.457 32.0928 155.278 32.0928ZM159.092 39.1021C158.727 39.1021 158.397 39.0322 158.104 38.8926C157.813 38.7529 157.583 38.5542 157.411 38.2964C157.242 38.0386 157.158 37.7342 157.158 37.3833V37.3726C157.158 37.0288 157.241 36.7352 157.405 36.4917C157.57 36.2446 157.81 36.0513 158.125 35.9116C158.44 35.772 158.821 35.6896 159.269 35.6646L161.396 35.5356V36.2822L159.382 36.4111C158.941 36.4362 158.619 36.5275 158.415 36.6851C158.215 36.8426 158.114 37.0646 158.114 37.3511V37.3618C158.114 37.6554 158.225 37.8846 158.447 38.0493C158.669 38.2104 158.949 38.291 159.285 38.291C159.604 38.291 159.887 38.2284 160.134 38.103C160.381 37.9741 160.574 37.8005 160.714 37.582C160.857 37.3636 160.929 37.1165 160.929 36.8408V35.0361C160.929 34.6781 160.819 34.4059 160.601 34.2197C160.386 34.0299 160.062 33.9351 159.629 33.9351C159.282 33.9351 158.997 33.9977 158.775 34.123C158.553 34.2448 158.404 34.4185 158.329 34.644L158.324 34.6602H157.389L157.395 34.6279C157.445 34.3236 157.57 34.0586 157.771 33.833C157.975 33.6038 158.238 33.4266 158.56 33.3013C158.882 33.1724 159.249 33.1079 159.661 33.1079C160.134 33.1079 160.533 33.1849 160.859 33.3389C161.188 33.4928 161.437 33.7148 161.605 34.0049C161.777 34.2913 161.863 34.6351 161.863 35.0361V39H160.929V38.146H160.843C160.721 38.3501 160.572 38.5238 160.397 38.667C160.225 38.8102 160.03 38.9194 159.812 38.9946C159.593 39.0662 159.353 39.1021 159.092 39.1021ZM165.628 39.043C165.034 39.043 164.603 38.923 164.334 38.6831C164.069 38.4432 163.937 38.0475 163.937 37.4961V33.9834H163.023V33.21H163.937V31.7114H164.903V33.21H166.171V33.9834H164.903V37.2598C164.903 37.5999 164.968 37.8452 165.097 37.9956C165.226 38.1424 165.44 38.2158 165.741 38.2158C165.824 38.2158 165.893 38.214 165.951 38.2104C166.012 38.2069 166.085 38.2015 166.171 38.1943V38.9893C166.081 39.0036 165.992 39.0161 165.902 39.0269C165.813 39.0376 165.722 39.043 165.628 39.043ZM167.589 39V33.21H168.523V39H167.589ZM168.062 32.0928C167.886 32.0928 167.734 32.0301 167.605 31.9048C167.48 31.7759 167.417 31.6237 167.417 31.4482C167.417 31.2692 167.48 31.117 167.605 30.9917C167.734 30.8664 167.886 30.8037 168.062 30.8037C168.241 30.8037 168.393 30.8664 168.518 30.9917C168.643 31.117 168.706 31.2692 168.706 31.4482C168.706 31.6237 168.643 31.7759 168.518 31.9048C168.393 32.0301 168.241 32.0928 168.062 32.0928ZM172.665 39.1021C172.117 39.1021 171.642 38.9821 171.241 38.7422C170.844 38.4987 170.536 38.1532 170.317 37.7056C170.103 37.258 169.995 36.7262 169.995 36.1104V36.0996C169.995 35.4801 170.103 34.9466 170.317 34.499C170.536 34.0514 170.844 33.7077 171.241 33.4678C171.642 33.2279 172.117 33.1079 172.665 33.1079C173.216 33.1079 173.69 33.2279 174.088 33.4678C174.485 33.7077 174.792 34.0514 175.006 34.499C175.225 34.9466 175.334 35.4801 175.334 36.0996V36.1104C175.334 36.7262 175.225 37.258 175.006 37.7056C174.792 38.1532 174.485 38.4987 174.088 38.7422C173.69 38.9821 173.216 39.1021 172.665 39.1021ZM172.665 38.2749C173.03 38.2749 173.34 38.189 173.594 38.0171C173.848 37.8452 174.041 37.5981 174.174 37.2759C174.31 36.9536 174.378 36.5651 174.378 36.1104V36.0996C174.378 35.6413 174.31 35.251 174.174 34.9287C174.041 34.6064 173.848 34.3612 173.594 34.1929C173.34 34.021 173.03 33.9351 172.665 33.9351C172.299 33.9351 171.99 34.021 171.735 34.1929C171.481 34.3612 171.286 34.6064 171.15 34.9287C171.017 35.251 170.951 35.6413 170.951 36.0996V36.1104C170.951 36.5651 171.017 36.9536 171.15 37.2759C171.286 37.5981 171.481 37.8452 171.735 38.0171C171.99 38.189 172.299 38.2749 172.665 38.2749ZM176.784 39V33.21H177.719V34.0801H177.805C177.951 33.7721 178.163 33.534 178.438 33.3657C178.714 33.1938 179.065 33.1079 179.491 33.1079C180.143 33.1079 180.642 33.2941 180.99 33.6665C181.341 34.0353 181.516 34.5635 181.516 35.251V39H180.582V35.4766C180.582 34.9538 180.471 34.5671 180.249 34.3164C180.03 34.0622 179.69 33.9351 179.228 33.9351C178.92 33.9351 178.653 34.0013 178.428 34.1338C178.202 34.2663 178.027 34.4543 177.901 34.6978C177.78 34.9412 177.719 35.2331 177.719 35.5732V39H176.784ZM188.257 40.9336C187.91 40.4717 187.623 39.9811 187.397 39.4619C187.172 38.9427 187.004 38.3895 186.893 37.8022C186.785 37.215 186.731 36.5884 186.731 35.9224C186.731 35.2563 186.785 34.6315 186.893 34.0479C187 33.4606 187.167 32.9074 187.392 32.3882C187.618 31.8654 187.906 31.373 188.257 30.9111H189.041C188.848 31.1582 188.667 31.4697 188.499 31.8457C188.334 32.2217 188.191 32.637 188.069 33.0918C187.947 33.543 187.852 34.012 187.784 34.499C187.716 34.9824 187.682 35.4569 187.682 35.9224C187.682 36.3914 187.716 36.8695 187.784 37.3564C187.852 37.8398 187.947 38.3089 188.069 38.7637C188.191 39.2148 188.334 39.6266 188.499 39.999C188.667 40.375 188.848 40.6865 189.041 40.9336H188.257ZM191.104 36.2339V35.3745H193.295C193.85 35.3745 194.28 35.2313 194.584 34.9448C194.888 34.6548 195.041 34.2555 195.041 33.7471V33.7363C195.041 33.2243 194.888 32.825 194.584 32.5386C194.28 32.2521 193.85 32.1089 193.295 32.1089H191.104V31.2495H193.542C194.029 31.2495 194.459 31.3534 194.831 31.561C195.203 31.7687 195.495 32.0588 195.707 32.4312C195.921 32.8035 196.029 33.235 196.029 33.7256V33.7363C196.029 34.2269 195.921 34.6602 195.707 35.0361C195.495 35.4121 195.203 35.7057 194.831 35.917C194.459 36.1283 194.029 36.2339 193.542 36.2339H191.104ZM190.62 39V31.2495H191.587V39H190.62ZM196.512 39L199.37 31.2495H200.111V32.501H199.805L197.527 39H196.512ZM197.807 36.7817L198.107 35.96H201.609L201.91 36.7817H197.807ZM202.168 39L199.891 32.501V31.2495H200.326L203.183 39H202.168ZM204.542 39V31.2495H207.501C207.999 31.2495 208.432 31.3462 208.801 31.5396C209.174 31.7293 209.462 31.9961 209.666 32.3398C209.87 32.6836 209.972 33.0882 209.972 33.5537V33.5645C209.972 34.1016 209.834 34.5671 209.559 34.9609C209.283 35.3548 208.902 35.6287 208.415 35.7827L210.208 39H209.075L207.416 35.9331C207.408 35.9331 207.399 35.9331 207.389 35.9331C207.378 35.9331 207.369 35.9331 207.362 35.9331H205.509V39H204.542ZM205.509 35.0737H207.416C207.913 35.0737 208.296 34.9466 208.565 34.6924C208.837 34.4346 208.973 34.0693 208.973 33.5967V33.5859C208.973 33.124 208.832 32.7624 208.549 32.501C208.266 32.2396 207.874 32.1089 207.373 32.1089H205.509V35.0737ZM212.115 40.9336H211.331C211.524 40.6865 211.703 40.375 211.868 39.999C212.036 39.6266 212.181 39.2148 212.303 38.7637C212.425 38.3089 212.52 37.8398 212.588 37.3564C212.656 36.8695 212.69 36.3914 212.69 35.9224C212.69 35.4569 212.656 34.9824 212.588 34.499C212.52 34.012 212.425 33.543 212.303 33.0918C212.181 32.637 212.036 32.2217 211.868 31.8457C211.703 31.4697 211.524 31.1582 211.331 30.9111H212.115C212.466 31.373 212.754 31.8654 212.98 32.3882C213.206 32.9074 213.372 33.4606 213.479 34.0479C213.587 34.6315 213.641 35.2563 213.641 35.9224C213.641 36.5884 213.585 37.215 213.474 37.8022C213.367 38.3895 213.2 38.9427 212.975 39.4619C212.753 39.9811 212.466 40.4717 212.115 40.9336Z" fill="black" fill-opacity="0.5"/>
</svg>
