<svg width="431" height="36" viewBox="0 0 431 36" fill="none" xmlns="http://www.w3.org/2000/svg">
<mask id="path-1-inside-1_520_7301" fill="white">
<path d="M0 0H431V36H0V0Z"/>
</mask>
<path d="M431 35H0V37H431V35Z" fill="black" fill-opacity="0.05" mask="url(#path-1-inside-1_520_7301)"/>
<path d="M4.17041 23.2158C3.50179 23.2158 2.91781 23.1079 2.41846 22.8921C1.92334 22.672 1.52979 22.3716 1.23779 21.9907C0.950033 21.6056 0.782878 21.1655 0.736328 20.6704L0.72998 20.6006H1.87256L1.87891 20.6704C1.90853 20.9751 2.0249 21.2396 2.22803 21.4639C2.43538 21.6839 2.71045 21.8553 3.05322 21.978C3.40023 22.1007 3.79378 22.1621 4.23389 22.1621C4.6486 22.1621 5.01676 22.0965 5.33838 21.9653C5.66423 21.8299 5.92025 21.6437 6.10645 21.4067C6.29264 21.1698 6.38574 20.8968 6.38574 20.5879V20.5815C6.38574 20.2007 6.24609 19.8812 5.9668 19.623C5.6875 19.3607 5.23258 19.1597 4.60205 19.02L3.58643 18.7979C2.66813 18.5947 1.99951 18.2816 1.58057 17.8584C1.16585 17.431 0.958496 16.8851 0.958496 16.2207V16.2144C0.962728 15.7065 1.10026 15.258 1.37109 14.8687C1.64616 14.4793 2.0249 14.1746 2.50732 13.9546C2.99398 13.7345 3.55257 13.6245 4.18311 13.6245C4.79248 13.6245 5.33203 13.7345 5.80176 13.9546C6.27148 14.1704 6.64388 14.4624 6.91895 14.8306C7.19824 15.1987 7.3527 15.6113 7.38232 16.0684L7.38867 16.1572H6.24609L6.2334 16.0747C6.19108 15.8039 6.08105 15.5648 5.90332 15.3574C5.72559 15.1458 5.48861 14.9787 5.19238 14.856C4.89616 14.7332 4.54915 14.674 4.15137 14.6782C3.77051 14.6782 3.42773 14.7375 3.12305 14.856C2.81836 14.9744 2.57503 15.1458 2.39307 15.3701C2.21533 15.5902 2.12646 15.861 2.12646 16.1826V16.189C2.12646 16.5529 2.26188 16.8597 2.53271 17.1094C2.80355 17.359 3.25 17.5516 3.87207 17.687L4.8877 17.9155C5.52669 18.0552 6.04085 18.2371 6.43018 18.4614C6.8195 18.6857 7.10303 18.9608 7.28076 19.2866C7.46273 19.6082 7.55371 19.9891 7.55371 20.4292V20.4355C7.55371 21.0068 7.41406 21.4998 7.13477 21.9146C6.85547 22.3293 6.46191 22.6509 5.9541 22.8794C5.44629 23.1037 4.85173 23.2158 4.17041 23.2158ZM12.1304 23.1206C11.4829 23.1206 10.9222 22.9788 10.4482 22.6953C9.97852 22.4076 9.61458 21.9992 9.35645 21.4702C9.10254 20.9412 8.97559 20.3128 8.97559 19.585V19.5723C8.97559 18.8402 9.10254 18.2096 9.35645 17.6807C9.61458 17.1517 9.97852 16.7454 10.4482 16.4619C10.9222 16.1784 11.4829 16.0366 12.1304 16.0366C12.7821 16.0366 13.3428 16.1784 13.8125 16.4619C14.2822 16.7454 14.644 17.1517 14.8979 17.6807C15.1561 18.2096 15.2852 18.8402 15.2852 19.5723V19.585C15.2852 20.3128 15.1561 20.9412 14.8979 21.4702C14.644 21.9992 14.2822 22.4076 13.8125 22.6953C13.3428 22.9788 12.7821 23.1206 12.1304 23.1206ZM12.1304 22.1431C12.562 22.1431 12.9281 22.0415 13.2285 21.8384C13.529 21.6353 13.7575 21.3433 13.9141 20.9624C14.0749 20.5815 14.1553 20.1224 14.1553 19.585V19.5723C14.1553 19.0306 14.0749 18.5693 13.9141 18.1885C13.7575 17.8076 13.529 17.5177 13.2285 17.3188C12.9281 17.1157 12.562 17.0142 12.1304 17.0142C11.6987 17.0142 11.3327 17.1157 11.0322 17.3188C10.7318 17.5177 10.5011 17.8076 10.3403 18.1885C10.1838 18.5693 10.1055 19.0306 10.1055 19.5723V19.585C10.1055 20.1224 10.1838 20.5815 10.3403 20.9624C10.5011 21.3433 10.7318 21.6353 11.0322 21.8384C11.3327 22.0415 11.6987 22.1431 12.1304 22.1431ZM17.0244 23V16.1572H18.1289V23H17.0244ZM17.583 14.8369C17.3757 14.8369 17.1958 14.7629 17.0435 14.6147C16.8953 14.4624 16.8213 14.2826 16.8213 14.0752C16.8213 13.8636 16.8953 13.6838 17.0435 13.5356C17.1958 13.3875 17.3757 13.3135 17.583 13.3135C17.7946 13.3135 17.9744 13.3875 18.1226 13.5356C18.2707 13.6838 18.3447 13.8636 18.3447 14.0752C18.3447 14.2826 18.2707 14.4624 18.1226 14.6147C17.9744 14.7629 17.7946 14.8369 17.583 14.8369ZM20.2744 23V13.4404H21.3789V23H20.2744ZM27.1553 25.2852V16.1572H28.2598V17.249H28.3613C28.501 16.9951 28.6766 16.7793 28.8882 16.6016C29.0998 16.4196 29.341 16.2799 29.6118 16.1826C29.8826 16.0853 30.1768 16.0366 30.4941 16.0366C31.0739 16.0366 31.5775 16.1847 32.0049 16.481C32.4365 16.7729 32.7708 17.1834 33.0078 17.7124C33.2448 18.2414 33.3633 18.8613 33.3633 19.5723V19.585C33.3633 20.3001 33.2448 20.9222 33.0078 21.4512C32.7708 21.9801 32.4365 22.3906 32.0049 22.6826C31.5775 22.9746 31.0739 23.1206 30.4941 23.1206C30.181 23.1206 29.8848 23.0719 29.6055 22.9746C29.3304 22.873 29.085 22.7334 28.8691 22.5557C28.6576 22.3779 28.4883 22.1663 28.3613 21.9209H28.2598V25.2852H27.1553ZM30.2402 22.1431C30.6592 22.1431 31.0168 22.0415 31.313 21.8384C31.6092 21.631 31.8356 21.3369 31.9922 20.9561C32.153 20.571 32.2334 20.1139 32.2334 19.585V19.5723C32.2334 19.0391 32.153 18.582 31.9922 18.2012C31.8356 17.8203 31.6092 17.5283 31.313 17.3252C31.0168 17.1178 30.6592 17.0142 30.2402 17.0142C29.8255 17.0142 29.4679 17.1178 29.1675 17.3252C28.867 17.5326 28.6364 17.8267 28.4756 18.2075C28.3148 18.5884 28.2344 19.0433 28.2344 19.5723V19.585C28.2344 20.1097 28.3148 20.5646 28.4756 20.9497C28.6364 21.3306 28.867 21.6247 29.1675 21.832C29.4679 22.0394 29.8255 22.1431 30.2402 22.1431ZM35.2295 23V13.8403H36.3721V17.8013H41.3994V13.8403H42.542V23H41.3994V18.8296H36.3721V23H35.2295Z" fill="black" fill-opacity="0.85"/>
</svg>
