<svg width="431" height="52" viewBox="0 0 431 52" fill="none" xmlns="http://www.w3.org/2000/svg">
<mask id="path-1-inside-1_520_7304" fill="white">
<path d="M0 0H431V52H0V0Z"/>
</mask>
<path d="M431 51H0V53H431V51Z" fill="black" fill-opacity="0.05" mask="url(#path-1-inside-1_520_7304)"/>
<path d="M4.17041 23.2158C3.50179 23.2158 2.91781 23.1079 2.41846 22.8921C1.92334 22.672 1.52979 22.3716 1.23779 21.9907C0.950033 21.6056 0.782878 21.1655 0.736328 20.6704L0.72998 20.6006H1.87256L1.87891 20.6704C1.90853 20.9751 2.0249 21.2396 2.22803 21.4639C2.43538 21.6839 2.71045 21.8553 3.05322 21.978C3.40023 22.1007 3.79378 22.1621 4.23389 22.1621C4.6486 22.1621 5.01676 22.0965 5.33838 21.9653C5.66423 21.8299 5.92025 21.6437 6.10645 21.4067C6.29264 21.1698 6.38574 20.8968 6.38574 20.5879V20.5815C6.38574 20.2007 6.24609 19.8812 5.9668 19.623C5.6875 19.3607 5.23258 19.1597 4.60205 19.02L3.58643 18.7979C2.66813 18.5947 1.99951 18.2816 1.58057 17.8584C1.16585 17.431 0.958496 16.8851 0.958496 16.2207V16.2144C0.962728 15.7065 1.10026 15.258 1.37109 14.8687C1.64616 14.4793 2.0249 14.1746 2.50732 13.9546C2.99398 13.7345 3.55257 13.6245 4.18311 13.6245C4.79248 13.6245 5.33203 13.7345 5.80176 13.9546C6.27148 14.1704 6.64388 14.4624 6.91895 14.8306C7.19824 15.1987 7.3527 15.6113 7.38232 16.0684L7.38867 16.1572H6.24609L6.2334 16.0747C6.19108 15.8039 6.08105 15.5648 5.90332 15.3574C5.72559 15.1458 5.48861 14.9787 5.19238 14.856C4.89616 14.7332 4.54915 14.674 4.15137 14.6782C3.77051 14.6782 3.42773 14.7375 3.12305 14.856C2.81836 14.9744 2.57503 15.1458 2.39307 15.3701C2.21533 15.5902 2.12646 15.861 2.12646 16.1826V16.189C2.12646 16.5529 2.26188 16.8597 2.53271 17.1094C2.80355 17.359 3.25 17.5516 3.87207 17.687L4.8877 17.9155C5.52669 18.0552 6.04085 18.2371 6.43018 18.4614C6.8195 18.6857 7.10303 18.9608 7.28076 19.2866C7.46273 19.6082 7.55371 19.9891 7.55371 20.4292V20.4355C7.55371 21.0068 7.41406 21.4998 7.13477 21.9146C6.85547 22.3293 6.46191 22.6509 5.9541 22.8794C5.44629 23.1037 4.85173 23.2158 4.17041 23.2158ZM12.1304 23.1206C11.4829 23.1206 10.9222 22.9788 10.4482 22.6953C9.97852 22.4076 9.61458 21.9992 9.35645 21.4702C9.10254 20.9412 8.97559 20.3128 8.97559 19.585V19.5723C8.97559 18.8402 9.10254 18.2096 9.35645 17.6807C9.61458 17.1517 9.97852 16.7454 10.4482 16.4619C10.9222 16.1784 11.4829 16.0366 12.1304 16.0366C12.7821 16.0366 13.3428 16.1784 13.8125 16.4619C14.2822 16.7454 14.644 17.1517 14.8979 17.6807C15.1561 18.2096 15.2852 18.8402 15.2852 19.5723V19.585C15.2852 20.3128 15.1561 20.9412 14.8979 21.4702C14.644 21.9992 14.2822 22.4076 13.8125 22.6953C13.3428 22.9788 12.7821 23.1206 12.1304 23.1206ZM12.1304 22.1431C12.562 22.1431 12.9281 22.0415 13.2285 21.8384C13.529 21.6353 13.7575 21.3433 13.9141 20.9624C14.0749 20.5815 14.1553 20.1224 14.1553 19.585V19.5723C14.1553 19.0306 14.0749 18.5693 13.9141 18.1885C13.7575 17.8076 13.529 17.5177 13.2285 17.3188C12.9281 17.1157 12.562 17.0142 12.1304 17.0142C11.6987 17.0142 11.3327 17.1157 11.0322 17.3188C10.7318 17.5177 10.5011 17.8076 10.3403 18.1885C10.1838 18.5693 10.1055 19.0306 10.1055 19.5723V19.585C10.1055 20.1224 10.1838 20.5815 10.3403 20.9624C10.5011 21.3433 10.7318 21.6353 11.0322 21.8384C11.3327 22.0415 11.6987 22.1431 12.1304 22.1431ZM17.0244 23V16.1572H18.1289V23H17.0244ZM17.583 14.8369C17.3757 14.8369 17.1958 14.7629 17.0435 14.6147C16.8953 14.4624 16.8213 14.2826 16.8213 14.0752C16.8213 13.8636 16.8953 13.6838 17.0435 13.5356C17.1958 13.3875 17.3757 13.3135 17.583 13.3135C17.7946 13.3135 17.9744 13.3875 18.1226 13.5356C18.2707 13.6838 18.3447 13.8636 18.3447 14.0752C18.3447 14.2826 18.2707 14.4624 18.1226 14.6147C17.9744 14.7629 17.7946 14.8369 17.583 14.8369ZM20.2744 23V13.4404H21.3789V23H20.2744ZM27.2949 23V13.8403H28.6216L31.7573 21.4829H31.8589L34.9946 13.8403H36.3213V23H35.2549V16.0049H34.6963L35.9785 14.0942L32.2905 23H31.3257L27.644 14.0942L28.9199 16.0049H28.3613V23H27.2949ZM41.3296 23.1206C40.6821 23.1206 40.1214 22.9788 39.6475 22.6953C39.1777 22.4076 38.8138 21.9992 38.5557 21.4702C38.3018 20.9412 38.1748 20.3128 38.1748 19.585V19.5723C38.1748 18.8402 38.3018 18.2096 38.5557 17.6807C38.8138 17.1517 39.1777 16.7454 39.6475 16.4619C40.1214 16.1784 40.6821 16.0366 41.3296 16.0366C41.9813 16.0366 42.542 16.1784 43.0117 16.4619C43.4814 16.7454 43.8433 17.1517 44.0972 17.6807C44.3553 18.2096 44.4844 18.8402 44.4844 19.5723V19.585C44.4844 20.3128 44.3553 20.9412 44.0972 21.4702C43.8433 21.9992 43.4814 22.4076 43.0117 22.6953C42.542 22.9788 41.9813 23.1206 41.3296 23.1206ZM41.3296 22.1431C41.7612 22.1431 42.1273 22.0415 42.4277 21.8384C42.7282 21.6353 42.9567 21.3433 43.1133 20.9624C43.2741 20.5815 43.3545 20.1224 43.3545 19.585V19.5723C43.3545 19.0306 43.2741 18.5693 43.1133 18.1885C42.9567 17.8076 42.7282 17.5177 42.4277 17.3188C42.1273 17.1157 41.7612 17.0142 41.3296 17.0142C40.8979 17.0142 40.5319 17.1157 40.2314 17.3188C39.931 17.5177 39.7004 17.8076 39.5396 18.1885C39.383 18.5693 39.3047 19.0306 39.3047 19.5723V19.585C39.3047 20.1224 39.383 20.5815 39.5396 20.9624C39.7004 21.3433 39.931 21.6353 40.2314 21.8384C40.5319 22.0415 40.8979 22.1431 41.3296 22.1431ZM46.2236 23V16.1572H47.3281V23H46.2236ZM46.7822 14.8369C46.5749 14.8369 46.395 14.7629 46.2427 14.6147C46.0946 14.4624 46.0205 14.2826 46.0205 14.0752C46.0205 13.8636 46.0946 13.6838 46.2427 13.5356C46.395 13.3875 46.5749 13.3135 46.7822 13.3135C46.9938 13.3135 47.1737 13.3875 47.3218 13.5356C47.4699 13.6838 47.5439 13.8636 47.5439 14.0752C47.5439 14.2826 47.4699 14.4624 47.3218 14.6147C47.1737 14.7629 46.9938 14.8369 46.7822 14.8369ZM51.7588 23.1206C51.251 23.1206 50.8024 23.0444 50.4131 22.8921C50.0238 22.7355 49.7106 22.5176 49.4736 22.2383C49.2409 21.959 49.1034 21.631 49.061 21.2544H50.1909C50.284 21.5379 50.466 21.7664 50.7368 21.9399C51.0076 22.1134 51.361 22.2002 51.7969 22.2002C52.1058 22.2002 52.3766 22.1558 52.6094 22.0669C52.8464 21.9738 53.0326 21.849 53.168 21.6924C53.3034 21.5316 53.3711 21.3475 53.3711 21.1401V21.1274C53.3711 20.8947 53.278 20.6979 53.0918 20.5371C52.9056 20.3721 52.6009 20.2388 52.1777 20.1372L51.1177 19.8833C50.6903 19.7817 50.339 19.6506 50.064 19.4897C49.7889 19.3247 49.5858 19.1237 49.4546 18.8867C49.3234 18.6455 49.2578 18.362 49.2578 18.0361V18.0298C49.2578 17.6489 49.3678 17.3083 49.5879 17.0078C49.8122 16.7074 50.1169 16.4704 50.502 16.2969C50.887 16.1234 51.3208 16.0366 51.8032 16.0366C52.2814 16.0366 52.7046 16.1128 53.0728 16.2651C53.4451 16.4132 53.7435 16.6248 53.9678 16.8999C54.1963 17.175 54.3359 17.4987 54.3867 17.8711H53.3013C53.2293 17.6003 53.0643 17.3802 52.8062 17.2109C52.548 17.0417 52.2116 16.957 51.7969 16.957C51.526 16.957 51.2848 17.0015 51.0732 17.0903C50.8617 17.175 50.6945 17.2935 50.5718 17.4458C50.4491 17.5981 50.3877 17.7759 50.3877 17.979V17.9917C50.3877 18.144 50.4279 18.2795 50.5083 18.3979C50.5887 18.5164 50.7135 18.6201 50.8828 18.709C51.0521 18.7979 51.27 18.8761 51.5366 18.9438L52.5903 19.1978C53.2336 19.3543 53.7118 19.5786 54.0249 19.8706C54.3423 20.1626 54.501 20.554 54.501 21.0449V21.0576C54.501 21.4639 54.3804 21.8236 54.1392 22.1367C53.8979 22.4456 53.57 22.6868 53.1553 22.8604C52.7448 23.0339 52.2793 23.1206 51.7588 23.1206ZM58.5825 23.0508C57.88 23.0508 57.3701 22.909 57.0527 22.6255C56.7396 22.342 56.583 21.8743 56.583 21.2227V17.0713H55.5039V16.1572H56.583V14.3862H57.7256V16.1572H59.2236V17.0713H57.7256V20.9434C57.7256 21.3454 57.8018 21.6353 57.9541 21.813C58.1064 21.9865 58.3604 22.0732 58.7158 22.0732C58.8132 22.0732 58.8957 22.0711 58.9634 22.0669C59.0353 22.0627 59.1221 22.0563 59.2236 22.0479V22.9873C59.1178 23.0042 59.012 23.019 58.9062 23.0317C58.8005 23.0444 58.6925 23.0508 58.5825 23.0508ZM63.1655 23.1206C62.6493 23.1206 62.2155 23.0233 61.8643 22.8286C61.513 22.6297 61.2485 22.342 61.0708 21.9653C60.8973 21.5845 60.8105 21.1253 60.8105 20.5879V16.1572H61.915V20.3213C61.915 20.9349 62.0335 21.3919 62.2705 21.6924C62.5117 21.9928 62.9053 22.1431 63.4512 22.1431C63.7516 22.1431 64.0161 22.0986 64.2446 22.0098C64.4774 21.9209 64.672 21.7939 64.8286 21.6289C64.9852 21.4596 65.1016 21.2565 65.1777 21.0195C65.2581 20.7783 65.2983 20.5075 65.2983 20.207V16.1572H66.4028V23H65.2983V21.978H65.1968C65.0868 22.2192 64.9365 22.4266 64.7461 22.6001C64.5557 22.7694 64.3271 22.8984 64.0605 22.9873C63.7982 23.0762 63.4998 23.1206 63.1655 23.1206ZM68.4658 23V16.1572H69.5703V17.1729H69.6719C69.8031 16.8132 70.0252 16.5339 70.3384 16.335C70.6515 16.1361 71.0387 16.0366 71.5 16.0366C71.6058 16.0366 71.7095 16.043 71.811 16.0557C71.9168 16.0641 71.9972 16.0726 72.0522 16.0811V17.1538C71.938 17.1326 71.8258 17.1178 71.7158 17.1094C71.61 17.0967 71.4958 17.0903 71.373 17.0903C71.0218 17.0903 70.7108 17.1602 70.4399 17.2998C70.1691 17.4395 69.9554 17.6341 69.7988 17.8838C69.6465 18.1335 69.5703 18.4255 69.5703 18.7598V23H68.4658ZM76.0195 23.1206C75.3678 23.1206 74.8071 22.9767 74.3374 22.689C73.8719 22.4012 73.5122 21.995 73.2583 21.4702C73.0086 20.9412 72.8838 20.3192 72.8838 19.604V19.5977C72.8838 18.891 73.0086 18.271 73.2583 17.7378C73.5122 17.2046 73.8698 16.7878 74.3311 16.4873C74.7923 16.1868 75.3319 16.0366 75.9497 16.0366C76.5718 16.0366 77.105 16.1805 77.5493 16.4683C77.9979 16.756 78.3407 17.158 78.5776 17.6743C78.8188 18.1864 78.9395 18.783 78.9395 19.4644V19.896H73.4551V19.0137H78.3745L77.8286 19.8198V19.3818C77.8286 18.8444 77.7482 18.4022 77.5874 18.0552C77.4266 17.7082 77.2044 17.45 76.9209 17.2808C76.6374 17.1073 76.3115 17.0205 75.9434 17.0205C75.5752 17.0205 75.2451 17.1115 74.9531 17.2935C74.6654 17.4712 74.4368 17.7357 74.2676 18.0869C74.0983 18.4382 74.0137 18.8698 74.0137 19.3818V19.8198C74.0137 20.3065 74.0962 20.7233 74.2612 21.0703C74.4263 21.4131 74.6611 21.6776 74.9658 21.8638C75.2705 22.0457 75.6302 22.1367 76.0449 22.1367C76.3538 22.1367 76.6226 22.0944 76.8511 22.0098C77.0796 21.9251 77.2679 21.8172 77.416 21.686C77.5641 21.5549 77.6678 21.4215 77.7271 21.2861L77.7524 21.229H78.8569L78.8442 21.2798C78.785 21.5125 78.6792 21.7389 78.5269 21.959C78.3787 22.1748 78.1862 22.3716 77.9492 22.5493C77.7122 22.7228 77.4308 22.8625 77.105 22.9683C76.7834 23.0698 76.4215 23.1206 76.0195 23.1206Z" fill="black" fill-opacity="0.85"/>
<path d="M3.22803 39L0.370605 31.2495H1.38574L3.66309 37.7485H3.74902L6.02637 31.2495H7.0415L4.18408 39H3.22803ZM10.1245 39.1021C9.57666 39.1021 9.10221 38.9821 8.70117 38.7422C8.30371 38.4987 7.99577 38.1532 7.77734 37.7056C7.5625 37.258 7.45508 36.7262 7.45508 36.1104V36.0996C7.45508 35.4801 7.5625 34.9466 7.77734 34.499C7.99577 34.0514 8.30371 33.7077 8.70117 33.4678C9.10221 33.2279 9.57666 33.1079 10.1245 33.1079C10.6759 33.1079 11.1504 33.2279 11.5479 33.4678C11.9453 33.7077 12.2515 34.0514 12.4663 34.499C12.6847 34.9466 12.7939 35.4801 12.7939 36.0996V36.1104C12.7939 36.7262 12.6847 37.258 12.4663 37.7056C12.2515 38.1532 11.9453 38.4987 11.5479 38.7422C11.1504 38.9821 10.6759 39.1021 10.1245 39.1021ZM10.1245 38.2749C10.4897 38.2749 10.7995 38.189 11.0537 38.0171C11.3079 37.8452 11.5013 37.5981 11.6338 37.2759C11.7699 36.9536 11.8379 36.5651 11.8379 36.1104V36.0996C11.8379 35.6413 11.7699 35.251 11.6338 34.9287C11.5013 34.6064 11.3079 34.3612 11.0537 34.1929C10.7995 34.021 10.4897 33.9351 10.1245 33.9351C9.75928 33.9351 9.44954 34.021 9.19531 34.1929C8.94108 34.3612 8.74593 34.6064 8.60986 34.9287C8.47738 35.251 8.41113 35.6413 8.41113 36.0996V36.1104C8.41113 36.5651 8.47738 36.9536 8.60986 37.2759C8.74593 37.5981 8.94108 37.8452 9.19531 38.0171C9.44954 38.189 9.75928 38.2749 10.1245 38.2749ZM14.2979 39V30.9111H15.2324V39H14.2979ZM18.9653 39.1021C18.5285 39.1021 18.1615 39.0197 17.8643 38.855C17.5671 38.6867 17.3433 38.4432 17.1929 38.1245C17.0461 37.8022 16.9727 37.4137 16.9727 36.959V33.21H17.9072V36.7334C17.9072 37.2526 18.0075 37.6393 18.208 37.8936C18.4121 38.1478 18.7451 38.2749 19.207 38.2749C19.4613 38.2749 19.6851 38.2373 19.8784 38.1621C20.0754 38.0869 20.2401 37.9795 20.3726 37.8398C20.505 37.6966 20.6035 37.5247 20.668 37.3242C20.736 37.1201 20.77 36.891 20.77 36.6367V33.21H21.7046V39H20.77V38.1353H20.6841C20.591 38.3394 20.4639 38.5148 20.3027 38.6616C20.1416 38.8049 19.9482 38.9141 19.7227 38.9893C19.5007 39.0645 19.2482 39.1021 18.9653 39.1021ZM23.4502 39V33.21H24.3848V34.0908H24.4707C24.5996 33.7793 24.7965 33.5376 25.0615 33.3657C25.3301 33.1938 25.6541 33.1079 26.0337 33.1079C26.2951 33.1079 26.5296 33.1509 26.7373 33.2368C26.945 33.3228 27.124 33.4427 27.2744 33.5967C27.4248 33.7471 27.5448 33.9225 27.6343 34.123H27.7202C27.8241 33.9189 27.9637 33.7417 28.1392 33.5913C28.3146 33.4373 28.5169 33.3192 28.7461 33.2368C28.9788 33.1509 29.2277 33.1079 29.4927 33.1079C29.8866 33.1079 30.2196 33.1813 30.4917 33.3281C30.7674 33.4749 30.9769 33.6898 31.1201 33.9727C31.2633 34.252 31.335 34.5939 31.335 34.9985V39H30.4004V35.2134C30.4004 34.9269 30.3556 34.6906 30.2661 34.5044C30.1802 34.3146 30.0477 34.1732 29.8687 34.0801C29.6896 33.9834 29.464 33.9351 29.1919 33.9351C28.9233 33.9351 28.6888 33.9959 28.4883 34.1177C28.2878 34.2394 28.132 34.4023 28.021 34.6064C27.91 34.807 27.8545 35.0308 27.8545 35.2778V39H26.9199V35.0684C26.9199 34.8392 26.8698 34.6405 26.7695 34.4722C26.6729 34.3003 26.5332 34.1678 26.3506 34.0747C26.1715 33.9816 25.9603 33.9351 25.7168 33.9351C25.4661 33.9351 25.2388 34.0013 25.0347 34.1338C24.8341 34.2663 24.6748 34.4453 24.5566 34.6709C24.4421 34.8929 24.3848 35.14 24.3848 35.4121V39H23.4502ZM35.3848 39.1021C34.8333 39.1021 34.3589 38.9803 33.9614 38.7368C33.5675 38.4933 33.2632 38.1496 33.0483 37.7056C32.8371 37.258 32.7314 36.7316 32.7314 36.1265V36.1211C32.7314 35.5231 32.8371 34.9985 33.0483 34.5474C33.2632 34.0962 33.5658 33.7435 33.9561 33.4893C34.3464 33.235 34.8029 33.1079 35.3257 33.1079C35.8521 33.1079 36.3032 33.2297 36.6792 33.4731C37.0588 33.7166 37.3488 34.0568 37.5493 34.4937C37.7534 34.9269 37.8555 35.4318 37.8555 36.0083V36.3735H33.2148V35.627H37.3774L36.9155 36.3091V35.9385C36.9155 35.4837 36.8475 35.1095 36.7114 34.8159C36.5754 34.5223 36.3874 34.3039 36.1475 34.1606C35.9076 34.0138 35.6318 33.9404 35.3203 33.9404C35.0088 33.9404 34.7295 34.0174 34.4824 34.1714C34.2389 34.3218 34.0456 34.5456 33.9023 34.8428C33.7591 35.14 33.6875 35.5052 33.6875 35.9385V36.3091C33.6875 36.7209 33.7573 37.0736 33.897 37.3672C34.0366 37.6572 34.2354 37.881 34.4932 38.0386C34.751 38.1925 35.0553 38.2695 35.4062 38.2695C35.6676 38.2695 35.895 38.2337 36.0884 38.1621C36.2817 38.0905 36.4411 37.9992 36.5664 37.8882C36.6917 37.7772 36.7795 37.6644 36.8296 37.5498L36.8511 37.5015H37.7856L37.7749 37.5444C37.7248 37.7414 37.6353 37.9329 37.5063 38.1191C37.381 38.3018 37.2181 38.4683 37.0176 38.6187C36.8171 38.7655 36.5789 38.8836 36.3032 38.9731C36.0311 39.0591 35.7249 39.1021 35.3848 39.1021ZM41.3628 39.043C40.7684 39.043 40.3369 38.923 40.0684 38.6831C39.8034 38.4432 39.6709 38.0475 39.6709 37.4961V33.9834H38.7578V33.21H39.6709V31.7114H40.6377V33.21H41.9053V33.9834H40.6377V37.2598C40.6377 37.5999 40.7021 37.8452 40.8311 37.9956C40.96 38.1424 41.1748 38.2158 41.4756 38.2158C41.5579 38.2158 41.6278 38.214 41.6851 38.2104C41.7459 38.2069 41.8193 38.2015 41.9053 38.1943V38.9893C41.8158 39.0036 41.7262 39.0161 41.6367 39.0269C41.5472 39.0376 41.4559 39.043 41.3628 39.043ZM43.3018 39V33.21H44.2363V34.0693H44.3223C44.4333 33.765 44.6213 33.5286 44.8862 33.3604C45.1512 33.1921 45.4788 33.1079 45.8691 33.1079C45.9587 33.1079 46.0464 33.1133 46.1323 33.124C46.2218 33.1312 46.2899 33.1383 46.3364 33.1455V34.0532C46.2397 34.0353 46.1449 34.0228 46.0518 34.0156C45.9622 34.0049 45.8656 33.9995 45.7617 33.9995C45.4645 33.9995 45.2013 34.0586 44.9722 34.1768C44.743 34.2949 44.5622 34.4596 44.4297 34.6709C44.3008 34.8822 44.2363 35.1292 44.2363 35.4121V39H43.3018ZM47.5127 39V33.21H48.4473V39H47.5127ZM47.9854 32.0928C47.8099 32.0928 47.6577 32.0301 47.5288 31.9048C47.4035 31.7759 47.3408 31.6237 47.3408 31.4482C47.3408 31.2692 47.4035 31.117 47.5288 30.9917C47.6577 30.8664 47.8099 30.8037 47.9854 30.8037C48.1644 30.8037 48.3166 30.8664 48.4419 30.9917C48.5672 31.117 48.6299 31.2692 48.6299 31.4482C48.6299 31.6237 48.5672 31.7759 48.4419 31.9048C48.3166 32.0301 48.1644 32.0928 47.9854 32.0928ZM52.5776 39.1021C52.0369 39.1021 51.5679 38.9785 51.1704 38.7314C50.7729 38.4844 50.465 38.1353 50.2466 37.6841C50.0282 37.2329 49.9189 36.7012 49.9189 36.0889V36.0781C49.9189 35.4766 50.0264 34.9538 50.2412 34.5098C50.4596 34.0658 50.7676 33.722 51.165 33.4785C51.5625 33.2314 52.0316 33.1079 52.5723 33.1079C53.0413 33.1079 53.446 33.1903 53.7861 33.355C54.1263 33.5197 54.3984 33.7417 54.6025 34.021C54.8066 34.2967 54.9373 34.6064 54.9946 34.9502L55 34.9824H54.0708L54.0654 34.9663C53.9938 34.6799 53.8309 34.4364 53.5767 34.2358C53.3224 34.0353 52.9876 33.9351 52.5723 33.9351C52.2249 33.9351 51.9242 34.0228 51.6699 34.1982C51.4157 34.3737 51.2188 34.6226 51.0791 34.9448C50.943 35.2635 50.875 35.6413 50.875 36.0781V36.0889C50.875 36.5329 50.9448 36.9196 51.0845 37.249C51.2241 37.5749 51.4211 37.8273 51.6753 38.0063C51.9295 38.1854 52.2285 38.2749 52.5723 38.2749C52.9626 38.2749 53.2812 38.1908 53.5283 38.0225C53.7754 37.8542 53.9526 37.6089 54.0601 37.2866L54.0708 37.2544L54.9946 37.249L54.9839 37.3081C54.9051 37.6554 54.7655 37.9652 54.5649 38.2373C54.3644 38.5059 54.0994 38.7171 53.77 38.8711C53.4406 39.0251 53.0431 39.1021 52.5776 39.1021ZM61.1821 39L59.0713 31.2495H60.0811L61.6226 37.5498H61.687L63.4219 31.2495H64.3994L66.1343 37.5498H66.1987L67.7402 31.2495H68.75L66.6392 39H65.7261L63.9429 32.8823H63.8784L62.0952 39H61.1821ZM71.1562 39.1021C70.791 39.1021 70.4616 39.0322 70.168 38.8926C69.8779 38.7529 69.647 38.5542 69.4751 38.2964C69.3068 38.0386 69.2227 37.7342 69.2227 37.3833V37.3726C69.2227 37.0288 69.305 36.7352 69.4697 36.4917C69.6344 36.2446 69.8743 36.0513 70.1895 35.9116C70.5046 35.772 70.8859 35.6896 71.3335 35.6646L73.4604 35.5356V36.2822L71.4463 36.4111C71.0059 36.4362 70.6836 36.5275 70.4795 36.6851C70.279 36.8426 70.1787 37.0646 70.1787 37.3511V37.3618C70.1787 37.6554 70.2897 37.8846 70.5117 38.0493C70.7337 38.2104 71.013 38.291 71.3496 38.291C71.6683 38.291 71.9512 38.2284 72.1982 38.103C72.4453 37.9741 72.6387 37.8005 72.7783 37.582C72.9215 37.3636 72.9932 37.1165 72.9932 36.8408V35.0361C72.9932 34.6781 72.884 34.4059 72.6655 34.2197C72.4507 34.0299 72.1266 33.9351 71.6934 33.9351C71.346 33.9351 71.0614 33.9977 70.8394 34.123C70.6174 34.2448 70.4688 34.4185 70.3936 34.644L70.3882 34.6602H69.4536L69.459 34.6279C69.5091 34.3236 69.6344 34.0586 69.835 33.833C70.0391 33.6038 70.3022 33.4266 70.6245 33.3013C70.9468 33.1724 71.3138 33.1079 71.7256 33.1079C72.1982 33.1079 72.5975 33.1849 72.9233 33.3389C73.2528 33.4928 73.5016 33.7148 73.6699 34.0049C73.8418 34.2913 73.9277 34.6351 73.9277 35.0361V39H72.9932V38.146H72.9072C72.7855 38.3501 72.6369 38.5238 72.4614 38.667C72.2896 38.8102 72.0944 38.9194 71.876 38.9946C71.6576 39.0662 71.4176 39.1021 71.1562 39.1021ZM77.6929 39.043C77.0985 39.043 76.667 38.923 76.3984 38.6831C76.1335 38.4432 76.001 38.0475 76.001 37.4961V33.9834H75.0879V33.21H76.001V31.7114H76.9678V33.21H78.2354V33.9834H76.9678V37.2598C76.9678 37.5999 77.0322 37.8452 77.1611 37.9956C77.29 38.1424 77.5049 38.2158 77.8057 38.2158C77.888 38.2158 77.9578 38.214 78.0151 38.2104C78.076 38.2069 78.1494 38.2015 78.2354 38.1943V38.9893C78.1458 39.0036 78.0563 39.0161 77.9668 39.0269C77.8773 39.0376 77.786 39.043 77.6929 39.043ZM81.9199 39.1021C81.3685 39.1021 80.894 38.9803 80.4966 38.7368C80.1027 38.4933 79.7983 38.1496 79.5835 37.7056C79.3722 37.258 79.2666 36.7316 79.2666 36.1265V36.1211C79.2666 35.5231 79.3722 34.9985 79.5835 34.5474C79.7983 34.0962 80.1009 33.7435 80.4912 33.4893C80.8815 33.235 81.3381 33.1079 81.8608 33.1079C82.3872 33.1079 82.8384 33.2297 83.2144 33.4731C83.5939 33.7166 83.884 34.0568 84.0845 34.4937C84.2886 34.9269 84.3906 35.4318 84.3906 36.0083V36.3735H79.75V35.627H83.9126L83.4507 36.3091V35.9385C83.4507 35.4837 83.3826 35.1095 83.2466 34.8159C83.1105 34.5223 82.9225 34.3039 82.6826 34.1606C82.4427 34.0138 82.167 33.9404 81.8555 33.9404C81.5439 33.9404 81.2646 34.0174 81.0176 34.1714C80.7741 34.3218 80.5807 34.5456 80.4375 34.8428C80.2943 35.14 80.2227 35.5052 80.2227 35.9385V36.3091C80.2227 36.7209 80.2925 37.0736 80.4321 37.3672C80.5718 37.6572 80.7705 37.881 81.0283 38.0386C81.2861 38.1925 81.5905 38.2695 81.9414 38.2695C82.2028 38.2695 82.4302 38.2337 82.6235 38.1621C82.8169 38.0905 82.9762 37.9992 83.1016 37.8882C83.2269 37.7772 83.3146 37.6644 83.3647 37.5498L83.3862 37.5015H84.3208L84.3101 37.5444C84.2599 37.7414 84.1704 37.9329 84.0415 38.1191C83.9162 38.3018 83.7533 38.4683 83.5527 38.6187C83.3522 38.7655 83.1141 38.8836 82.8384 38.9731C82.5662 39.0591 82.2601 39.1021 81.9199 39.1021ZM85.8408 39V33.21H86.7754V34.0693H86.8613C86.9723 33.765 87.1603 33.5286 87.4253 33.3604C87.6903 33.1921 88.0179 33.1079 88.4082 33.1079C88.4977 33.1079 88.5854 33.1133 88.6714 33.124C88.7609 33.1312 88.8289 33.1383 88.8755 33.1455V34.0532C88.7788 34.0353 88.6839 34.0228 88.5908 34.0156C88.5013 34.0049 88.4046 33.9995 88.3008 33.9995C88.0036 33.9995 87.7404 34.0586 87.5112 34.1768C87.2821 34.2949 87.1012 34.4596 86.9688 34.6709C86.8398 34.8822 86.7754 35.1292 86.7754 35.4121V39H85.8408ZM96.3628 39.1826C95.661 39.1826 95.054 39.0179 94.542 38.6885C94.0299 38.359 93.6343 37.8918 93.355 37.2866C93.0793 36.6815 92.9414 35.9635 92.9414 35.1328V35.1221C92.9414 34.2878 93.0793 33.568 93.355 32.9629C93.6343 32.3577 94.0282 31.8905 94.5366 31.561C95.0487 31.2316 95.6556 31.0669 96.3574 31.0669C96.9017 31.0669 97.3958 31.1743 97.8398 31.3892C98.2874 31.6004 98.6562 31.8958 98.9463 32.2754C99.2363 32.6514 99.4189 33.0864 99.4941 33.5806L99.4888 33.5913H98.5166L98.5112 33.5806C98.4253 33.2476 98.2803 32.9611 98.0762 32.7212C97.8721 32.4777 97.6232 32.2897 97.3296 32.1572C97.0396 32.0247 96.7155 31.9585 96.3574 31.9585C95.8633 31.9585 95.4336 32.0874 95.0684 32.3452C94.7067 32.603 94.4274 32.9683 94.2305 33.4409C94.0335 33.9136 93.9351 34.474 93.9351 35.1221V35.1328C93.9351 35.7773 94.0335 36.3359 94.2305 36.8086C94.4274 37.2812 94.7067 37.6465 95.0684 37.9043C95.4336 38.1621 95.8651 38.291 96.3628 38.291C96.7244 38.291 97.0521 38.2337 97.3457 38.1191C97.6393 38.001 97.8864 37.8345 98.0869 37.6196C98.2874 37.4012 98.4271 37.1434 98.5059 36.8462L98.5166 36.8354H99.4941V36.8462C99.4082 37.3188 99.222 37.7306 98.9355 38.0815C98.6491 38.4289 98.2856 38.6992 97.8452 38.8926C97.4084 39.0859 96.9142 39.1826 96.3628 39.1826ZM103.377 39.1021C102.83 39.1021 102.355 38.9821 101.954 38.7422C101.557 38.4987 101.249 38.1532 101.03 37.7056C100.815 37.258 100.708 36.7262 100.708 36.1104V36.0996C100.708 35.4801 100.815 34.9466 101.03 34.499C101.249 34.0514 101.557 33.7077 101.954 33.4678C102.355 33.2279 102.83 33.1079 103.377 33.1079C103.929 33.1079 104.403 33.2279 104.801 33.4678C105.198 33.7077 105.504 34.0514 105.719 34.499C105.938 34.9466 106.047 35.4801 106.047 36.0996V36.1104C106.047 36.7262 105.938 37.258 105.719 37.7056C105.504 38.1532 105.198 38.4987 104.801 38.7422C104.403 38.9821 103.929 39.1021 103.377 39.1021ZM103.377 38.2749C103.743 38.2749 104.052 38.189 104.307 38.0171C104.561 37.8452 104.754 37.5981 104.887 37.2759C105.023 36.9536 105.091 36.5651 105.091 36.1104V36.0996C105.091 35.6413 105.023 35.251 104.887 34.9287C104.754 34.6064 104.561 34.3612 104.307 34.1929C104.052 34.021 103.743 33.9351 103.377 33.9351C103.012 33.9351 102.702 34.021 102.448 34.1929C102.194 34.3612 101.999 34.6064 101.863 34.9287C101.73 35.251 101.664 35.6413 101.664 36.0996V36.1104C101.664 36.5651 101.73 36.9536 101.863 37.2759C101.999 37.5981 102.194 37.8452 102.448 38.0171C102.702 38.189 103.012 38.2749 103.377 38.2749ZM107.497 39V33.21H108.432V34.0801H108.518C108.664 33.7721 108.876 33.534 109.151 33.3657C109.427 33.1938 109.778 33.1079 110.204 33.1079C110.856 33.1079 111.355 33.2941 111.703 33.6665C112.054 34.0353 112.229 34.5635 112.229 35.251V39H111.294V35.4766C111.294 34.9538 111.183 34.5671 110.961 34.3164C110.743 34.0622 110.403 33.9351 109.941 33.9351C109.633 33.9351 109.366 34.0013 109.141 34.1338C108.915 34.2663 108.74 34.4543 108.614 34.6978C108.493 34.9412 108.432 35.2331 108.432 35.5732V39H107.497ZM115.978 39.043C115.384 39.043 114.952 38.923 114.684 38.6831C114.419 38.4432 114.286 38.0475 114.286 37.4961V33.9834H113.373V33.21H114.286V31.7114H115.253V33.21H116.521V33.9834H115.253V37.2598C115.253 37.5999 115.317 37.8452 115.446 37.9956C115.575 38.1424 115.79 38.2158 116.091 38.2158C116.173 38.2158 116.243 38.214 116.3 38.2104C116.361 38.2069 116.435 38.2015 116.521 38.1943V38.9893C116.431 39.0036 116.341 39.0161 116.252 39.0269C116.162 39.0376 116.071 39.043 115.978 39.043ZM120.205 39.1021C119.654 39.1021 119.179 38.9803 118.782 38.7368C118.388 38.4933 118.083 38.1496 117.869 37.7056C117.657 37.258 117.552 36.7316 117.552 36.1265V36.1211C117.552 35.5231 117.657 34.9985 117.869 34.5474C118.083 34.0962 118.386 33.7435 118.776 33.4893C119.167 33.235 119.623 33.1079 120.146 33.1079C120.672 33.1079 121.124 33.2297 121.5 33.4731C121.879 33.7166 122.169 34.0568 122.37 34.4937C122.574 34.9269 122.676 35.4318 122.676 36.0083V36.3735H118.035V35.627H122.198L121.736 36.3091V35.9385C121.736 35.4837 121.668 35.1095 121.532 34.8159C121.396 34.5223 121.208 34.3039 120.968 34.1606C120.728 34.0138 120.452 33.9404 120.141 33.9404C119.829 33.9404 119.55 34.0174 119.303 34.1714C119.059 34.3218 118.866 34.5456 118.723 34.8428C118.579 35.14 118.508 35.5052 118.508 35.9385V36.3091C118.508 36.7209 118.578 37.0736 118.717 37.3672C118.857 37.6572 119.056 37.881 119.313 38.0386C119.571 38.1925 119.876 38.2695 120.227 38.2695C120.488 38.2695 120.715 38.2337 120.909 38.1621C121.102 38.0905 121.261 37.9992 121.387 37.8882C121.512 37.7772 121.6 37.6644 121.65 37.5498L121.671 37.5015H122.606L122.595 37.5444C122.545 37.7414 122.456 37.9329 122.327 38.1191C122.201 38.3018 122.038 38.4683 121.838 38.6187C121.637 38.7655 121.399 38.8836 121.124 38.9731C120.851 39.0591 120.545 39.1021 120.205 39.1021ZM124.126 39V33.21H125.061V34.0801H125.146C125.293 33.7721 125.505 33.534 125.78 33.3657C126.056 33.1938 126.407 33.1079 126.833 33.1079C127.485 33.1079 127.984 33.2941 128.332 33.6665C128.682 34.0353 128.858 34.5635 128.858 35.251V39H127.923V35.4766C127.923 34.9538 127.812 34.5671 127.59 34.3164C127.372 34.0622 127.032 33.9351 126.57 33.9351C126.262 33.9351 125.995 34.0013 125.77 34.1338C125.544 34.2663 125.368 34.4543 125.243 34.6978C125.121 34.9412 125.061 35.2331 125.061 35.5732V39H124.126ZM132.607 39.043C132.013 39.043 131.581 38.923 131.312 38.6831C131.048 38.4432 130.915 38.0475 130.915 37.4961V33.9834H130.002V33.21H130.915V31.7114H131.882V33.21H133.149V33.9834H131.882V37.2598C131.882 37.5999 131.946 37.8452 132.075 37.9956C132.204 38.1424 132.419 38.2158 132.72 38.2158C132.802 38.2158 132.872 38.214 132.929 38.2104C132.99 38.2069 133.063 38.2015 133.149 38.1943V38.9893C133.06 39.0036 132.97 39.0161 132.881 39.0269C132.791 39.0376 132.7 39.043 132.607 39.043ZM139.595 40.9336C139.247 40.4717 138.961 39.9811 138.735 39.4619C138.51 38.9427 138.341 38.3895 138.23 37.8022C138.123 37.215 138.069 36.5884 138.069 35.9224C138.069 35.2563 138.123 34.6315 138.23 34.0479C138.338 33.4606 138.504 32.9074 138.73 32.3882C138.956 31.8654 139.244 31.373 139.595 30.9111H140.379C140.186 31.1582 140.005 31.4697 139.836 31.8457C139.672 32.2217 139.528 32.637 139.407 33.0918C139.285 33.543 139.19 34.012 139.122 34.499C139.054 34.9824 139.02 35.4569 139.02 35.9224C139.02 36.3914 139.054 36.8695 139.122 37.3564C139.19 37.8398 139.285 38.3089 139.407 38.7637C139.528 39.2148 139.672 39.6266 139.836 39.999C140.005 40.375 140.186 40.6865 140.379 40.9336H139.595ZM144.198 39L141.34 31.2495H142.355L144.633 37.7485H144.719L146.996 31.2495H148.011L145.154 39H144.198ZM150.976 39L148.865 31.2495H149.875L151.417 37.5498H151.481L153.216 31.2495H154.193L155.928 37.5498H155.993L157.534 31.2495H158.544L156.433 39H155.52L153.737 32.8823H153.672L151.889 39H150.976ZM162.814 39.1826C162.112 39.1826 161.505 39.0179 160.993 38.6885C160.481 38.359 160.085 37.8918 159.806 37.2866C159.53 36.6815 159.393 35.9635 159.393 35.1328V35.1221C159.393 34.2878 159.53 33.568 159.806 32.9629C160.085 32.3577 160.479 31.8905 160.988 31.561C161.5 31.2316 162.107 31.0669 162.809 31.0669C163.353 31.0669 163.847 31.1743 164.291 31.3892C164.739 31.6004 165.107 31.8958 165.397 32.2754C165.688 32.6514 165.87 33.0864 165.945 33.5806L165.94 33.5913H164.968L164.962 33.5806C164.876 33.2476 164.731 32.9611 164.527 32.7212C164.323 32.4777 164.074 32.2897 163.781 32.1572C163.491 32.0247 163.167 31.9585 162.809 31.9585C162.314 31.9585 161.885 32.0874 161.52 32.3452C161.158 32.603 160.879 32.9683 160.682 33.4409C160.485 33.9136 160.386 34.474 160.386 35.1221V35.1328C160.386 35.7773 160.485 36.3359 160.682 36.8086C160.879 37.2812 161.158 37.6465 161.52 37.9043C161.885 38.1621 162.316 38.291 162.814 38.291C163.176 38.291 163.503 38.2337 163.797 38.1191C164.09 38.001 164.338 37.8345 164.538 37.6196C164.739 37.4012 164.878 37.1434 164.957 36.8462L164.968 36.8354H165.945V36.8462C165.859 37.3188 165.673 37.7306 165.387 38.0815C165.1 38.4289 164.737 38.6992 164.296 38.8926C163.86 39.0859 163.365 39.1826 162.814 39.1826ZM167.954 40.9336H167.17C167.363 40.6865 167.542 40.375 167.707 39.999C167.875 39.6266 168.02 39.2148 168.142 38.7637C168.264 38.3089 168.359 37.8398 168.427 37.3564C168.495 36.8695 168.529 36.3914 168.529 35.9224C168.529 35.4569 168.495 34.9824 168.427 34.499C168.359 34.012 168.264 33.543 168.142 33.0918C168.02 32.637 167.875 32.2217 167.707 31.8457C167.542 31.4697 167.363 31.1582 167.17 30.9111H167.954C168.305 31.373 168.593 31.8654 168.819 32.3882C169.044 32.9074 169.211 33.4606 169.318 34.0479C169.426 34.6315 169.479 35.2563 169.479 35.9224C169.479 36.5884 169.424 37.215 169.313 37.8022C169.206 38.3895 169.039 38.9427 168.813 39.4619C168.591 39.9811 168.305 40.4717 167.954 40.9336Z" fill="black" fill-opacity="0.5"/>
</svg>
