<svg width="431" height="36" viewBox="0 0 431 36" fill="none" xmlns="http://www.w3.org/2000/svg">
<mask id="path-1-inside-1_520_7298" fill="white">
<path d="M0 0H431V36H0V0Z"/>
</mask>
<path d="M431 35H0V37H431V35Z" fill="black" fill-opacity="0.05" mask="url(#path-1-inside-1_520_7298)"/>
<path d="M1.16797 23V13.8403H6.72852V14.8687H2.31055V18.0171H6.3667V19.0327H2.31055V23H1.16797ZM8.49316 23V16.1572H9.59766V23H8.49316ZM9.05176 14.8369C8.8444 14.8369 8.66455 14.7629 8.51221 14.6147C8.3641 14.4624 8.29004 14.2826 8.29004 14.0752C8.29004 13.8636 8.3641 13.6838 8.51221 13.5356C8.66455 13.3875 8.8444 13.3135 9.05176 13.3135C9.26335 13.3135 9.4432 13.3875 9.59131 13.5356C9.73942 13.6838 9.81348 13.8636 9.81348 14.0752C9.81348 14.2826 9.73942 14.4624 9.59131 14.6147C9.4432 14.7629 9.26335 14.8369 9.05176 14.8369ZM14.4727 23.1206C13.821 23.1206 13.2603 22.9767 12.7905 22.689C12.325 22.4012 11.9653 21.995 11.7114 21.4702C11.4618 20.9412 11.3369 20.3192 11.3369 19.604V19.5977C11.3369 18.891 11.4618 18.271 11.7114 17.7378C11.9653 17.2046 12.3229 16.7878 12.7842 16.4873C13.2454 16.1868 13.785 16.0366 14.4028 16.0366C15.0249 16.0366 15.5581 16.1805 16.0024 16.4683C16.451 16.756 16.7938 17.158 17.0308 17.6743C17.272 18.1864 17.3926 18.783 17.3926 19.4644V19.896H11.9082V19.0137H16.8276L16.2817 19.8198V19.3818C16.2817 18.8444 16.2013 18.4022 16.0405 18.0552C15.8797 17.7082 15.6576 17.45 15.374 17.2808C15.0905 17.1073 14.7646 17.0205 14.3965 17.0205C14.0283 17.0205 13.6982 17.1115 13.4062 17.2935C13.1185 17.4712 12.89 17.7357 12.7207 18.0869C12.5514 18.4382 12.4668 18.8698 12.4668 19.3818V19.8198C12.4668 20.3065 12.5493 20.7233 12.7144 21.0703C12.8794 21.4131 13.1143 21.6776 13.4189 21.8638C13.7236 22.0457 14.0833 22.1367 14.498 22.1367C14.807 22.1367 15.0757 22.0944 15.3042 22.0098C15.5327 21.9251 15.721 21.8172 15.8691 21.686C16.0173 21.5549 16.1209 21.4215 16.1802 21.2861L16.2056 21.229H17.3101L17.2974 21.2798C17.2381 21.5125 17.1323 21.7389 16.98 21.959C16.8319 22.1748 16.6393 22.3716 16.4023 22.5493C16.1654 22.7228 15.884 22.8625 15.5581 22.9683C15.2365 23.0698 14.8747 23.1206 14.4727 23.1206ZM19.1699 23V13.4404H20.2744V23H19.1699ZM24.9209 23.1206C24.3454 23.1206 23.8418 22.9746 23.4102 22.6826C22.9785 22.3906 22.6442 21.9801 22.4072 21.4512C22.1702 20.918 22.0518 20.2959 22.0518 19.585V19.5723C22.0518 18.8571 22.1702 18.235 22.4072 17.7061C22.6442 17.1771 22.9764 16.7666 23.4038 16.4746C23.8354 16.1826 24.3411 16.0366 24.9209 16.0366C25.234 16.0366 25.5282 16.0874 25.8032 16.189C26.0825 16.2863 26.3301 16.4238 26.5459 16.6016C26.7617 16.7793 26.931 16.9909 27.0537 17.2363H27.1553V13.4404H28.2598V23H27.1553V21.9082H27.0537C26.9141 22.1621 26.7384 22.38 26.5269 22.562C26.3153 22.7397 26.0741 22.8773 25.8032 22.9746C25.5324 23.0719 25.2383 23.1206 24.9209 23.1206ZM25.1748 22.1431C25.5895 22.1431 25.9471 22.0394 26.2476 21.832C26.548 21.6247 26.7786 21.3306 26.9395 20.9497C27.1003 20.5646 27.1807 20.1097 27.1807 19.585V19.5723C27.1807 19.0433 27.1003 18.5884 26.9395 18.2075C26.7786 17.8267 26.548 17.5326 26.2476 17.3252C25.9471 17.1178 25.5895 17.0142 25.1748 17.0142C24.7601 17.0142 24.4025 17.1178 24.1021 17.3252C23.8058 17.5283 23.5773 17.8203 23.4165 18.2012C23.2599 18.582 23.1816 19.0391 23.1816 19.5723V19.585C23.1816 20.1139 23.2599 20.571 23.4165 20.9561C23.5773 21.3369 23.8058 21.631 24.1021 21.8384C24.4025 22.0415 24.7601 22.1431 25.1748 22.1431Z" fill="black" fill-opacity="0.85"/>
</svg>
