<svg width="162" height="22" viewBox="0 0 162 22" fill="none" xmlns="http://www.w3.org/2000/svg">
<rect x="0.75" y="0.25" width="160.5" height="21.5" rx="5.25" stroke="black" stroke-opacity="0.1" stroke-width="0.5"/>
<g clip-path="url(#clip0_520_7788)">
<rect x="142.5" y="3" width="16" height="16" rx="4" fill="black" fill-opacity="0.05"/>
<path d="M150.5 13.0728C150.295 13.0728 150.106 12.9873 149.933 12.8164L147.468 10.2974C147.404 10.2313 147.357 10.1606 147.325 10.0854C147.295 10.0103 147.28 9.92708 147.28 9.83594C147.28 9.71289 147.31 9.6001 147.369 9.49756C147.431 9.39274 147.512 9.31071 147.612 9.25146C147.714 9.18994 147.826 9.15918 147.947 9.15918C148.134 9.15918 148.3 9.23324 148.446 9.38135L150.62 11.6304H150.387L152.554 9.38135C152.695 9.23324 152.86 9.15918 153.046 9.15918C153.169 9.15918 153.281 9.18994 153.381 9.25146C153.484 9.31071 153.565 9.39274 153.624 9.49756C153.686 9.6001 153.716 9.71289 153.716 9.83594C153.716 10.0182 153.653 10.172 153.525 10.2974L151.064 12.8164C150.975 12.9053 150.885 12.9702 150.794 13.0112C150.705 13.0522 150.607 13.0728 150.5 13.0728Z" fill="black"/>
</g>
<path d="M94.5991 16.5V8.36865H91.6475V7.34033H98.6934V8.36865H95.7417V16.5H94.5991ZM101.861 16.6206C101.213 16.6206 100.653 16.4788 100.179 16.1953C99.709 15.9076 99.3451 15.4992 99.0869 14.9702C98.833 14.4412 98.7061 13.8128 98.7061 13.085V13.0723C98.7061 12.3402 98.833 11.7096 99.0869 11.1807C99.3451 10.6517 99.709 10.2454 100.179 9.96191C100.653 9.67839 101.213 9.53662 101.861 9.53662C102.513 9.53662 103.073 9.67839 103.543 9.96191C104.013 10.2454 104.375 10.6517 104.628 11.1807C104.887 11.7096 105.016 12.3402 105.016 13.0723V13.085C105.016 13.8128 104.887 14.4412 104.628 14.9702C104.375 15.4992 104.013 15.9076 103.543 16.1953C103.073 16.4788 102.513 16.6206 101.861 16.6206ZM101.861 15.6431C102.292 15.6431 102.659 15.5415 102.959 15.3384C103.259 15.1353 103.488 14.8433 103.645 14.4624C103.805 14.0815 103.886 13.6224 103.886 13.085V13.0723C103.886 12.5306 103.805 12.0693 103.645 11.6885C103.488 11.3076 103.259 11.0177 102.959 10.8188C102.659 10.6157 102.292 10.5142 101.861 10.5142C101.429 10.5142 101.063 10.6157 100.763 10.8188C100.462 11.0177 100.232 11.3076 100.071 11.6885C99.9142 12.0693 99.8359 12.5306 99.8359 13.0723V13.085C99.8359 13.6224 99.9142 14.0815 100.071 14.4624C100.232 14.8433 100.462 15.1353 100.763 15.3384C101.063 15.5415 101.429 15.6431 101.861 15.6431ZM106.729 16.5V9.65723H107.834V10.6982H107.936C108.088 10.3301 108.321 10.0444 108.634 9.84131C108.951 9.63818 109.334 9.53662 109.783 9.53662C110.092 9.53662 110.369 9.5874 110.614 9.68896C110.86 9.79053 111.071 9.93229 111.249 10.1143C111.427 10.292 111.569 10.4993 111.674 10.7363H111.776C111.899 10.4951 112.064 10.2856 112.271 10.1079C112.478 9.92594 112.717 9.7863 112.988 9.68896C113.263 9.5874 113.557 9.53662 113.871 9.53662C114.336 9.53662 114.73 9.62337 115.051 9.79688C115.377 9.97038 115.625 10.2243 115.794 10.5586C115.963 10.8887 116.048 11.2928 116.048 11.771V16.5H114.943V12.0249C114.943 11.6864 114.89 11.4071 114.785 11.187C114.683 10.9627 114.527 10.7956 114.315 10.6855C114.103 10.5713 113.837 10.5142 113.515 10.5142C113.198 10.5142 112.921 10.5861 112.684 10.73C112.447 10.8739 112.263 11.0664 112.131 11.3076C112 11.5446 111.935 11.8091 111.935 12.1011V16.5H110.83V11.8535C110.83 11.5827 110.771 11.3478 110.652 11.1489C110.538 10.9458 110.373 10.7892 110.157 10.6792C109.946 10.5692 109.696 10.5142 109.408 10.5142C109.112 10.5142 108.843 10.5924 108.602 10.749C108.365 10.9056 108.177 11.1172 108.037 11.3838C107.902 11.6462 107.834 11.9382 107.834 12.2598V16.5H106.729ZM119.92 16.6206C119.488 16.6206 119.099 16.5381 118.752 16.373C118.409 16.208 118.136 15.9731 117.933 15.6685C117.734 15.3638 117.635 15.0041 117.635 14.5894V14.5767C117.635 14.1704 117.732 13.8234 117.927 13.5356C118.121 13.2437 118.405 13.0151 118.777 12.8501C119.15 12.6851 119.6 12.5877 120.129 12.5581L122.643 12.4058V13.2881L120.263 13.4404C119.742 13.4701 119.361 13.578 119.12 13.7642C118.883 13.9504 118.765 14.2127 118.765 14.5513V14.564C118.765 14.911 118.896 15.1818 119.158 15.3765C119.421 15.5669 119.751 15.6621 120.148 15.6621C120.525 15.6621 120.859 15.5881 121.151 15.4399C121.443 15.2876 121.672 15.0824 121.837 14.8242C122.006 14.5661 122.091 14.2741 122.091 13.9482V11.8154C122.091 11.3923 121.962 11.0706 121.704 10.8506C121.45 10.6263 121.067 10.5142 120.555 10.5142C120.144 10.5142 119.808 10.5882 119.545 10.7363C119.283 10.8802 119.107 11.0854 119.019 11.3521L119.012 11.3711H117.908L117.914 11.333C117.973 10.9733 118.121 10.6602 118.358 10.3936C118.6 10.1227 118.911 9.91325 119.292 9.76514C119.672 9.61279 120.106 9.53662 120.593 9.53662C121.151 9.53662 121.623 9.6276 122.008 9.80957C122.398 9.99154 122.692 10.2539 122.891 10.5967C123.094 10.9352 123.195 11.3415 123.195 11.8154V16.5H122.091V15.4907H121.989C121.845 15.7319 121.67 15.9372 121.462 16.1064C121.259 16.2757 121.029 16.4048 120.771 16.4937C120.512 16.5783 120.229 16.6206 119.92 16.6206ZM127.645 16.5508C126.943 16.5508 126.433 16.409 126.115 16.1255C125.802 15.842 125.646 15.3743 125.646 14.7227V10.5713H124.566V9.65723H125.646V7.88623H126.788V9.65723H128.286V10.5713H126.788V14.4434C126.788 14.8454 126.864 15.1353 127.017 15.313C127.169 15.4865 127.423 15.5732 127.778 15.5732C127.876 15.5732 127.958 15.5711 128.026 15.5669C128.098 15.5627 128.185 15.5563 128.286 15.5479V16.4873C128.18 16.5042 128.075 16.519 127.969 16.5317C127.863 16.5444 127.755 16.5508 127.645 16.5508ZM132.66 16.6206C132.012 16.6206 131.451 16.4788 130.978 16.1953C130.508 15.9076 130.144 15.4992 129.886 14.9702C129.632 14.4412 129.505 13.8128 129.505 13.085V13.0723C129.505 12.3402 129.632 11.7096 129.886 11.1807C130.144 10.6517 130.508 10.2454 130.978 9.96191C131.451 9.67839 132.012 9.53662 132.66 9.53662C133.311 9.53662 133.872 9.67839 134.342 9.96191C134.812 10.2454 135.173 10.6517 135.427 11.1807C135.685 11.7096 135.814 12.3402 135.814 13.0723V13.085C135.814 13.8128 135.685 14.4412 135.427 14.9702C135.173 15.4992 134.812 15.9076 134.342 16.1953C133.872 16.4788 133.311 16.6206 132.66 16.6206ZM132.66 15.6431C133.091 15.6431 133.457 15.5415 133.758 15.3384C134.058 15.1353 134.287 14.8433 134.443 14.4624C134.604 14.0815 134.685 13.6224 134.685 13.085V13.0723C134.685 12.5306 134.604 12.0693 134.443 11.6885C134.287 11.3076 134.058 11.0177 133.758 10.8188C133.457 10.6157 133.091 10.5142 132.66 10.5142C132.228 10.5142 131.862 10.6157 131.562 10.8188C131.261 11.0177 131.03 11.3076 130.87 11.6885C130.713 12.0693 130.635 12.5306 130.635 13.0723V13.085C130.635 13.6224 130.713 14.0815 130.87 14.4624C131.03 14.8433 131.261 15.1353 131.562 15.3384C131.862 15.5415 132.228 15.6431 132.66 15.6431Z" fill="black" fill-opacity="0.85"/>
<defs>
<clipPath id="clip0_520_7788">
<rect width="16" height="16" fill="white" transform="translate(142.5 3)"/>
</clipPath>
</defs>
</svg>
