<svg width="162" height="24" viewBox="0 0 162 24" fill="none" xmlns="http://www.w3.org/2000/svg">
<rect x="0.75" y="0.25" width="160.5" height="23.5" rx="5.25" stroke="black" stroke-opacity="0.1" stroke-width="0.5"/>
<path d="M95.2812 19.2852V10.1572H96.3857V14.3086C96.3857 14.7191 96.4429 15.0618 96.5571 15.3369C96.6714 15.6077 96.8407 15.8109 97.0649 15.9463C97.2935 16.0817 97.5791 16.1494 97.9219 16.1494C98.29 16.1494 98.6074 16.0711 98.874 15.9146C99.1406 15.7537 99.3459 15.5295 99.4897 15.2417C99.6379 14.9497 99.7119 14.6048 99.7119 14.207V10.1572H100.816V15.2925C100.816 15.5972 100.863 15.8066 100.956 15.9209C101.053 16.0309 101.218 16.0859 101.451 16.0859C101.502 16.0859 101.553 16.0838 101.604 16.0796C101.654 16.0754 101.707 16.069 101.762 16.0605V17C101.682 17.0212 101.604 17.036 101.527 17.0444C101.451 17.0571 101.356 17.0635 101.242 17.0635C100.772 17.0635 100.427 16.9852 100.207 16.8286C99.987 16.6678 99.8431 16.3906 99.7754 15.9971L99.7627 15.9209H99.6611C99.5426 16.1875 99.403 16.4097 99.2422 16.5874C99.0814 16.7651 98.8888 16.9006 98.6646 16.9937C98.4445 17.0825 98.18 17.127 97.8711 17.127C97.6553 17.127 97.4585 17.0952 97.2808 17.0317C97.103 16.9725 96.9465 16.8815 96.811 16.7588C96.6799 16.6361 96.5719 16.4837 96.4873 16.3018H96.3857V19.2852H95.2812ZM103.267 17V10.1572H104.371V11.1982H104.473C104.625 10.8301 104.858 10.5444 105.171 10.3413C105.488 10.1382 105.871 10.0366 106.32 10.0366C106.629 10.0366 106.906 10.0874 107.151 10.189C107.397 10.2905 107.608 10.4323 107.786 10.6143C107.964 10.792 108.106 10.9993 108.211 11.2363H108.313C108.436 10.9951 108.601 10.7856 108.808 10.6079C109.015 10.4259 109.255 10.2863 109.525 10.189C109.8 10.0874 110.095 10.0366 110.408 10.0366C110.873 10.0366 111.267 10.1234 111.588 10.2969C111.914 10.4704 112.162 10.7243 112.331 11.0586C112.5 11.3887 112.585 11.7928 112.585 12.271V17H111.48V12.5249C111.48 12.1864 111.428 11.9071 111.322 11.687C111.22 11.4627 111.064 11.2956 110.852 11.1855C110.64 11.0713 110.374 11.0142 110.052 11.0142C109.735 11.0142 109.458 11.0861 109.221 11.23C108.984 11.3739 108.8 11.5664 108.668 11.8076C108.537 12.0446 108.472 12.3091 108.472 12.6011V17H107.367V12.3535C107.367 12.0827 107.308 11.8478 107.189 11.6489C107.075 11.4458 106.91 11.2892 106.694 11.1792C106.483 11.0692 106.233 11.0142 105.945 11.0142C105.649 11.0142 105.38 11.0924 105.139 11.249C104.902 11.4056 104.714 11.6172 104.574 11.8838C104.439 12.1462 104.371 12.4382 104.371 12.7598V17H103.267ZM117.39 17.1206C116.743 17.1206 116.182 16.9788 115.708 16.6953C115.238 16.4076 114.874 15.9992 114.616 15.4702C114.362 14.9412 114.235 14.3128 114.235 13.585V13.5723C114.235 12.8402 114.362 12.2096 114.616 11.6807C114.874 11.1517 115.238 10.7454 115.708 10.4619C116.182 10.1784 116.743 10.0366 117.39 10.0366C118.042 10.0366 118.603 10.1784 119.072 10.4619C119.542 10.7454 119.904 11.1517 120.158 11.6807C120.416 12.2096 120.545 12.8402 120.545 13.5723V13.585C120.545 14.3128 120.416 14.9412 120.158 15.4702C119.904 15.9992 119.542 16.4076 119.072 16.6953C118.603 16.9788 118.042 17.1206 117.39 17.1206ZM117.39 16.1431C117.822 16.1431 118.188 16.0415 118.488 15.8384C118.789 15.6353 119.017 15.3433 119.174 14.9624C119.335 14.5815 119.415 14.1224 119.415 13.585V13.5723C119.415 13.0306 119.335 12.5693 119.174 12.1885C119.017 11.8076 118.789 11.5177 118.488 11.3188C118.188 11.1157 117.822 11.0142 117.39 11.0142C116.958 11.0142 116.592 11.1157 116.292 11.3188C115.992 11.5177 115.761 11.8076 115.6 12.1885C115.444 12.5693 115.365 13.0306 115.365 13.5723V13.585C115.365 14.1224 115.444 14.5815 115.6 14.9624C115.761 15.3433 115.992 15.6353 116.292 15.8384C116.592 16.0415 116.958 16.1431 117.39 16.1431ZM122.322 17V7.44043H123.427V17H122.322ZM128.473 7.44043L125.579 19.2852H124.519L127.413 7.44043H128.473ZM129.508 17V10.1572H130.612V11.1982H130.714C130.866 10.8301 131.099 10.5444 131.412 10.3413C131.729 10.1382 132.112 10.0366 132.561 10.0366C132.87 10.0366 133.147 10.0874 133.393 10.189C133.638 10.2905 133.85 10.4323 134.027 10.6143C134.205 10.792 134.347 10.9993 134.453 11.2363H134.554C134.677 10.9951 134.842 10.7856 135.049 10.6079C135.257 10.4259 135.496 10.2863 135.767 10.189C136.042 10.0874 136.336 10.0366 136.649 10.0366C137.114 10.0366 137.508 10.1234 137.83 10.2969C138.155 10.4704 138.403 10.7243 138.572 11.0586C138.742 11.3887 138.826 11.7928 138.826 12.271V17H137.722V12.5249C137.722 12.1864 137.669 11.9071 137.563 11.687C137.461 11.4627 137.305 11.2956 137.093 11.1855C136.882 11.0713 136.615 11.0142 136.293 11.0142C135.976 11.0142 135.699 11.0861 135.462 11.23C135.225 11.3739 135.041 11.5664 134.91 11.8076C134.778 12.0446 134.713 12.3091 134.713 12.6011V17H133.608V12.3535C133.608 12.0827 133.549 11.8478 133.431 11.6489C133.316 11.4458 133.151 11.2892 132.936 11.1792C132.724 11.0692 132.474 11.0142 132.187 11.0142C131.89 11.0142 131.622 11.0924 131.38 11.249C131.143 11.4056 130.955 11.6172 130.815 11.8838C130.68 12.1462 130.612 12.4382 130.612 12.7598V17H129.508ZM140.343 12.0742V11.4331L141.962 9.92236C142.296 9.60075 142.521 9.35954 142.635 9.19873C142.753 9.03792 142.812 8.875 142.812 8.70996V8.69727C142.812 8.49414 142.738 8.32699 142.59 8.1958C142.446 8.06462 142.248 7.99902 141.994 7.99902C141.731 7.99902 141.518 8.07096 141.353 8.21484C141.192 8.35449 141.111 8.53857 141.111 8.76709V8.78613L140.299 8.77979L140.292 8.76709C140.292 8.31852 140.455 7.95459 140.781 7.67529C141.107 7.396 141.526 7.25635 142.038 7.25635C142.516 7.25635 142.91 7.3833 143.219 7.63721C143.528 7.88688 143.682 8.21273 143.682 8.61475V8.62744C143.682 8.89404 143.6 9.15641 143.435 9.41455C143.27 9.66846 142.963 9.99642 142.514 10.3984L141.295 11.4712L141.524 11.0586V11.4712L141.295 11.3062H143.758V12.0742H140.343ZM148.189 7.44043L145.294 19.2852H144.234L147.129 7.44043H148.189ZM151.572 17.1206C151.064 17.1206 150.616 17.0444 150.227 16.8921C149.837 16.7355 149.524 16.5176 149.287 16.2383C149.054 15.959 148.917 15.631 148.875 15.2544H150.004C150.097 15.5379 150.279 15.7664 150.55 15.9399C150.821 16.1134 151.174 16.2002 151.61 16.2002C151.919 16.2002 152.19 16.1558 152.423 16.0669C152.66 15.9738 152.846 15.849 152.981 15.6924C153.117 15.5316 153.185 15.3475 153.185 15.1401V15.1274C153.185 14.8947 153.091 14.6979 152.905 14.5371C152.719 14.3721 152.414 14.2388 151.991 14.1372L150.931 13.8833C150.504 13.7817 150.153 13.6506 149.877 13.4897C149.602 13.3247 149.399 13.1237 149.268 12.8867C149.137 12.6455 149.071 12.362 149.071 12.0361V12.0298C149.071 11.6489 149.181 11.3083 149.401 11.0078C149.626 10.7074 149.93 10.4704 150.315 10.2969C150.701 10.1234 151.134 10.0366 151.617 10.0366C152.095 10.0366 152.518 10.1128 152.886 10.2651C153.259 10.4132 153.557 10.6248 153.781 10.8999C154.01 11.175 154.149 11.4987 154.2 11.8711H153.115C153.043 11.6003 152.878 11.3802 152.62 11.2109C152.361 11.0417 152.025 10.957 151.61 10.957C151.34 10.957 151.098 11.0015 150.887 11.0903C150.675 11.175 150.508 11.2935 150.385 11.4458C150.263 11.5981 150.201 11.7759 150.201 11.979V11.9917C150.201 12.144 150.241 12.2795 150.322 12.3979C150.402 12.5164 150.527 12.6201 150.696 12.709C150.866 12.7979 151.083 12.8761 151.35 12.9438L152.404 13.1978C153.047 13.3543 153.525 13.5786 153.838 13.8706C154.156 14.1626 154.314 14.554 154.314 15.0449V15.0576C154.314 15.4639 154.194 15.8236 153.953 16.1367C153.711 16.4456 153.383 16.6868 152.969 16.8604C152.558 17.0339 152.093 17.1206 151.572 17.1206Z" fill="black" fill-opacity="0.25"/>
</svg>
