<svg width="431" height="37" viewBox="0 0 431 37" fill="none" xmlns="http://www.w3.org/2000/svg">
<path d="M4.79883 23.7158C4.04134 23.7158 3.38965 23.5741 2.84375 23.2905C2.30208 23.007 1.88525 22.6134 1.59326 22.1099C1.30127 21.6021 1.15527 21.016 1.15527 20.3516V14.3403H2.29785V20.2754C2.29785 20.7451 2.39518 21.1598 2.58984 21.5195C2.78874 21.875 3.07438 22.1543 3.44678 22.3574C3.81917 22.5605 4.26986 22.6621 4.79883 22.6621C5.3278 22.6621 5.77637 22.5605 6.14453 22.3574C6.51693 22.1543 6.80046 21.875 6.99512 21.5195C7.18978 21.1598 7.28711 20.7451 7.28711 20.2754V14.3403H8.42969V20.3516C8.42969 21.016 8.28369 21.6021 7.9917 22.1099C7.70394 22.6134 7.28923 23.007 6.74756 23.2905C6.20589 23.5741 5.55632 23.7158 4.79883 23.7158ZM10.6133 23.5V16.6572H11.7178V17.6855H11.8193C11.9928 17.3216 12.2425 17.0402 12.5684 16.8413C12.8942 16.6382 13.3089 16.5366 13.8125 16.5366C14.5827 16.5366 15.173 16.7567 15.5835 17.1968C15.9982 17.6326 16.2056 18.2568 16.2056 19.0693V23.5H15.1011V19.3359C15.1011 18.7181 14.9699 18.2611 14.7075 17.9648C14.4494 17.6644 14.0474 17.5142 13.5015 17.5142C13.1375 17.5142 12.8223 17.5924 12.5557 17.749C12.2891 17.9056 12.0817 18.1278 11.9336 18.4155C11.7897 18.7033 11.7178 19.0482 11.7178 19.4502V23.5H10.6133ZM18.2305 23.5V16.6572H19.335V23.5H18.2305ZM18.7891 15.3369C18.5817 15.3369 18.4019 15.2629 18.2495 15.1147C18.1014 14.9624 18.0273 14.7826 18.0273 14.5752C18.0273 14.3636 18.1014 14.1838 18.2495 14.0356C18.4019 13.8875 18.5817 13.8135 18.7891 13.8135C19.0007 13.8135 19.1805 13.8875 19.3286 14.0356C19.4767 14.1838 19.5508 14.3636 19.5508 14.5752C19.5508 14.7826 19.4767 14.9624 19.3286 15.1147C19.1805 15.2629 19.0007 15.3369 18.7891 15.3369ZM23.8481 23.5508C23.1457 23.5508 22.6357 23.409 22.3184 23.1255C22.0052 22.842 21.8486 22.3743 21.8486 21.7227V17.5713H20.7695V16.6572H21.8486V14.8862H22.9912V16.6572H24.4893V17.5713H22.9912V21.4434C22.9912 21.8454 23.0674 22.1353 23.2197 22.313C23.3721 22.4865 23.626 22.5732 23.9814 22.5732C24.0788 22.5732 24.1613 22.5711 24.229 22.5669C24.3009 22.5627 24.3877 22.5563 24.4893 22.5479V23.4873C24.3835 23.5042 24.2777 23.519 24.1719 23.5317C24.0661 23.5444 23.9582 23.5508 23.8481 23.5508Z" fill="black" fill-opacity="0.85"/>
</svg>
