<svg width="161" height="22" viewBox="0 0 161 22" fill="none" xmlns="http://www.w3.org/2000/svg">
<rect x="0.25" y="0.25" width="160" height="21.5" rx="5.25" stroke="black" stroke-opacity="0.1" stroke-width="0.5"/>
<g clip-path="url(#clip0_706_1786)">
<rect x="142" y="3" width="16" height="16" rx="4" fill="black" fill-opacity="0.05"/>
<path d="M150 13.0728C149.795 13.0728 149.606 12.9873 149.433 12.8164L146.968 10.2974C146.904 10.2313 146.857 10.1606 146.825 10.0854C146.795 10.0103 146.78 9.92708 146.78 9.83594C146.78 9.71289 146.81 9.6001 146.869 9.49756C146.931 9.39274 147.012 9.31071 147.112 9.25146C147.214 9.18994 147.326 9.15918 147.447 9.15918C147.634 9.15918 147.8 9.23324 147.946 9.38135L150.12 11.6304H149.887L152.054 9.38135C152.195 9.23324 152.36 9.15918 152.546 9.15918C152.669 9.15918 152.781 9.18994 152.881 9.25146C152.984 9.31071 153.065 9.39274 153.124 9.49756C153.186 9.6001 153.216 9.71289 153.216 9.83594C153.216 10.0182 153.153 10.172 153.025 10.2974L150.564 12.8164C150.475 12.9053 150.385 12.9702 150.294 13.0112C150.205 13.0522 150.107 13.0728 150 13.0728Z" fill="black"/>
</g>
<path d="M102.237 16.7158C101.568 16.7158 100.984 16.6079 100.485 16.3921C99.9897 16.172 99.5962 15.8716 99.3042 15.4907C99.0164 15.1056 98.8493 14.6655 98.8027 14.1704L98.7964 14.1006H99.939L99.9453 14.1704C99.9749 14.4751 100.091 14.7396 100.294 14.9639C100.502 15.1839 100.777 15.3553 101.12 15.478C101.467 15.6007 101.86 15.6621 102.3 15.6621C102.715 15.6621 103.083 15.5965 103.405 15.4653C103.731 15.3299 103.987 15.1437 104.173 14.9067C104.359 14.6698 104.452 14.3968 104.452 14.0879V14.0815C104.452 13.7007 104.312 13.3812 104.033 13.123C103.754 12.8607 103.299 12.6597 102.668 12.52L101.653 12.2979C100.735 12.0947 100.066 11.7816 99.647 11.3584C99.2323 10.931 99.0249 10.3851 99.0249 9.7207V9.71436C99.0291 9.20654 99.1667 8.75798 99.4375 8.36865C99.7126 7.97933 100.091 7.67464 100.574 7.45459C101.06 7.23454 101.619 7.12451 102.25 7.12451C102.859 7.12451 103.398 7.23454 103.868 7.45459C104.338 7.67041 104.71 7.9624 104.985 8.33057C105.265 8.69873 105.419 9.11133 105.449 9.56836L105.455 9.65723H104.312L104.3 9.57471C104.257 9.30387 104.147 9.06478 103.97 8.85742C103.792 8.64583 103.555 8.47868 103.259 8.35596C102.963 8.23324 102.616 8.17399 102.218 8.17822C101.837 8.17822 101.494 8.23747 101.189 8.35596C100.885 8.47445 100.641 8.64583 100.459 8.87012C100.282 9.09017 100.193 9.361 100.193 9.68262V9.68896C100.193 10.0529 100.328 10.3597 100.599 10.6094C100.87 10.859 101.316 11.0516 101.938 11.187L102.954 11.4155C103.593 11.5552 104.107 11.7371 104.497 11.9614C104.886 12.1857 105.169 12.4608 105.347 12.7866C105.529 13.1082 105.62 13.4891 105.62 13.9292V13.9355C105.62 14.5068 105.48 14.9998 105.201 15.4146C104.922 15.8293 104.528 16.1509 104.021 16.3794C103.513 16.6037 102.918 16.7158 102.237 16.7158ZM110.178 16.6206C109.526 16.6206 108.965 16.4767 108.496 16.189C108.03 15.9012 107.67 15.495 107.417 14.9702C107.167 14.4412 107.042 13.8192 107.042 13.104V13.0977C107.042 12.391 107.167 11.771 107.417 11.2378C107.67 10.7046 108.028 10.2878 108.489 9.9873C108.951 9.68685 109.49 9.53662 110.108 9.53662C110.73 9.53662 111.263 9.6805 111.708 9.96826C112.156 10.256 112.499 10.658 112.736 11.1743C112.977 11.6864 113.098 12.283 113.098 12.9644V13.396H107.613V12.5137H112.533L111.987 13.3198V12.8818C111.987 12.3444 111.906 11.9022 111.746 11.5552C111.585 11.2082 111.363 10.95 111.079 10.7808C110.796 10.6073 110.47 10.5205 110.102 10.5205C109.733 10.5205 109.403 10.6115 109.111 10.7935C108.824 10.9712 108.595 11.2357 108.426 11.5869C108.257 11.9382 108.172 12.3698 108.172 12.8818V13.3198C108.172 13.8065 108.254 14.2233 108.419 14.5703C108.584 14.9131 108.819 15.1776 109.124 15.3638C109.429 15.5457 109.788 15.6367 110.203 15.6367C110.512 15.6367 110.781 15.5944 111.009 15.5098C111.238 15.4251 111.426 15.3172 111.574 15.186C111.722 15.0549 111.826 14.9215 111.885 14.7861L111.911 14.729H113.015L113.002 14.7798C112.943 15.0125 112.837 15.2389 112.685 15.459C112.537 15.6748 112.344 15.8716 112.107 16.0493C111.87 16.2228 111.589 16.3625 111.263 16.4683C110.942 16.5698 110.58 16.6206 110.178 16.6206ZM117.604 16.6206C116.953 16.6206 116.392 16.4767 115.922 16.189C115.457 15.9012 115.097 15.495 114.843 14.9702C114.594 14.4412 114.469 13.8192 114.469 13.104V13.0977C114.469 12.391 114.594 11.771 114.843 11.2378C115.097 10.7046 115.455 10.2878 115.916 9.9873C116.377 9.68685 116.917 9.53662 117.535 9.53662C118.157 9.53662 118.69 9.6805 119.134 9.96826C119.583 10.256 119.926 10.658 120.163 11.1743C120.404 11.6864 120.524 12.283 120.524 12.9644V13.396H115.04V12.5137H119.959L119.414 13.3198V12.8818C119.414 12.3444 119.333 11.9022 119.172 11.5552C119.012 11.2082 118.789 10.95 118.506 10.7808C118.222 10.6073 117.896 10.5205 117.528 10.5205C117.16 10.5205 116.83 10.6115 116.538 10.7935C116.25 10.9712 116.022 11.2357 115.853 11.5869C115.683 11.9382 115.599 12.3698 115.599 12.8818V13.3198C115.599 13.8065 115.681 14.2233 115.846 14.5703C116.011 14.9131 116.246 15.1776 116.551 15.3638C116.855 15.5457 117.215 15.6367 117.63 15.6367C117.939 15.6367 118.208 15.5944 118.436 15.5098C118.665 15.4251 118.853 15.3172 119.001 15.186C119.149 15.0549 119.253 14.9215 119.312 14.7861L119.337 14.729H120.442L120.429 14.7798C120.37 15.0125 120.264 15.2389 120.112 15.459C119.964 15.6748 119.771 15.8716 119.534 16.0493C119.297 16.2228 119.016 16.3625 118.69 16.4683C118.368 16.5698 118.007 16.6206 117.604 16.6206ZM124.765 16.6206C124.189 16.6206 123.686 16.4746 123.254 16.1826C122.822 15.8906 122.488 15.4801 122.251 14.9512C122.014 14.418 121.896 13.7959 121.896 13.085V13.0723C121.896 12.3571 122.014 11.735 122.251 11.2061C122.488 10.6771 122.82 10.2666 123.248 9.97461C123.679 9.68262 124.185 9.53662 124.765 9.53662C125.078 9.53662 125.372 9.5874 125.647 9.68896C125.926 9.7863 126.174 9.92383 126.39 10.1016C126.605 10.2793 126.775 10.4909 126.897 10.7363H126.999V6.94043H128.104V16.5H126.999V15.4082H126.897C126.758 15.6621 126.582 15.88 126.371 16.062C126.159 16.2397 125.918 16.3773 125.647 16.4746C125.376 16.5719 125.082 16.6206 124.765 16.6206ZM125.019 15.6431C125.433 15.6431 125.791 15.5394 126.091 15.332C126.392 15.1247 126.622 14.8306 126.783 14.4497C126.944 14.0646 127.024 13.6097 127.024 13.085V13.0723C127.024 12.5433 126.944 12.0884 126.783 11.7075C126.622 11.3267 126.392 11.0326 126.091 10.8252C125.791 10.6178 125.433 10.5142 125.019 10.5142C124.604 10.5142 124.246 10.6178 123.946 10.8252C123.65 11.0283 123.421 11.3203 123.26 11.7012C123.104 12.082 123.025 12.5391 123.025 13.0723V13.085C123.025 13.6139 123.104 14.071 123.26 14.4561C123.421 14.8369 123.65 15.131 123.946 15.3384C124.246 15.5415 124.604 15.6431 125.019 15.6431ZM132.572 16.6206C132.064 16.6206 131.616 16.5444 131.227 16.3921C130.837 16.2355 130.524 16.0176 130.287 15.7383C130.054 15.459 129.917 15.131 129.875 14.7544H131.004C131.097 15.0379 131.279 15.2664 131.55 15.4399C131.821 15.6134 132.174 15.7002 132.61 15.7002C132.919 15.7002 133.19 15.6558 133.423 15.5669C133.66 15.4738 133.846 15.349 133.981 15.1924C134.117 15.0316 134.185 14.8475 134.185 14.6401V14.6274C134.185 14.3947 134.091 14.1979 133.905 14.0371C133.719 13.8721 133.414 13.7388 132.991 13.6372L131.931 13.3833C131.504 13.2817 131.153 13.1506 130.877 12.9897C130.602 12.8247 130.399 12.6237 130.268 12.3867C130.137 12.1455 130.071 11.862 130.071 11.5361V11.5298C130.071 11.1489 130.181 10.8083 130.401 10.5078C130.626 10.2074 130.93 9.97038 131.315 9.79688C131.701 9.62337 132.134 9.53662 132.617 9.53662C133.095 9.53662 133.518 9.61279 133.886 9.76514C134.259 9.91325 134.557 10.1248 134.781 10.3999C135.01 10.675 135.149 10.9987 135.2 11.3711H134.115C134.043 11.1003 133.878 10.8802 133.62 10.7109C133.361 10.5417 133.025 10.457 132.61 10.457C132.34 10.457 132.098 10.5015 131.887 10.5903C131.675 10.675 131.508 10.7935 131.385 10.9458C131.263 11.0981 131.201 11.2759 131.201 11.479V11.4917C131.201 11.644 131.241 11.7795 131.322 11.8979C131.402 12.0164 131.527 12.1201 131.696 12.209C131.866 12.2979 132.083 12.3761 132.35 12.4438L133.404 12.6978C134.047 12.8543 134.525 13.0786 134.838 13.3706C135.156 13.6626 135.314 14.054 135.314 14.5449V14.5576C135.314 14.9639 135.194 15.3236 134.953 15.6367C134.711 15.9456 134.383 16.1868 133.969 16.3604C133.558 16.5339 133.093 16.6206 132.572 16.6206Z" fill="black" fill-opacity="0.85"/>
<defs>
<clipPath id="clip0_706_1786">
<rect width="16" height="16" fill="white" transform="translate(142 3)"/>
</clipPath>
</defs>
</svg>
