<svg width="162" height="25" viewBox="0 0 162 25" fill="none" xmlns="http://www.w3.org/2000/svg">
<rect x="0.75" y="0.75" width="160.5" height="23.5" rx="5.25" stroke="black" stroke-opacity="0.1" stroke-width="0.5"/>
<path d="M134.688 17.7158C133.93 17.7158 133.278 17.5741 132.732 17.2905C132.191 17.007 131.774 16.6134 131.482 16.1099C131.19 15.6021 131.044 15.016 131.044 14.3516V8.34033H132.187V14.2754C132.187 14.7451 132.284 15.1598 132.479 15.5195C132.677 15.875 132.963 16.1543 133.335 16.3574C133.708 16.5605 134.159 16.6621 134.688 16.6621C135.216 16.6621 135.665 16.5605 136.033 16.3574C136.406 16.1543 136.689 15.875 136.884 15.5195C137.078 15.1598 137.176 14.7451 137.176 14.2754V8.34033H138.318V14.3516C138.318 15.016 138.172 15.6021 137.88 16.1099C137.593 16.6134 137.178 17.007 136.636 17.2905C136.095 17.5741 135.445 17.7158 134.688 17.7158ZM140.502 17.5V10.6572H141.606V11.6855H141.708C141.882 11.3216 142.131 11.0402 142.457 10.8413C142.783 10.6382 143.198 10.5366 143.701 10.5366C144.471 10.5366 145.062 10.7567 145.472 11.1968C145.887 11.6326 146.094 12.2568 146.094 13.0693V17.5H144.99V13.3359C144.99 12.7181 144.859 12.2611 144.596 11.9648C144.338 11.6644 143.936 11.5142 143.39 11.5142C143.026 11.5142 142.711 11.5924 142.444 11.749C142.178 11.9056 141.97 12.1278 141.822 12.4155C141.678 12.7033 141.606 13.0482 141.606 13.4502V17.5H140.502ZM148.119 17.5V10.6572H149.224V17.5H148.119ZM148.678 9.33691C148.47 9.33691 148.291 9.26286 148.138 9.11475C147.99 8.9624 147.916 8.78255 147.916 8.5752C147.916 8.36361 147.99 8.18376 148.138 8.03564C148.291 7.88753 148.47 7.81348 148.678 7.81348C148.889 7.81348 149.069 7.88753 149.217 8.03564C149.365 8.18376 149.439 8.36361 149.439 8.5752C149.439 8.78255 149.365 8.9624 149.217 9.11475C149.069 9.26286 148.889 9.33691 148.678 9.33691ZM153.737 17.5508C153.034 17.5508 152.524 17.409 152.207 17.1255C151.894 16.842 151.737 16.3743 151.737 15.7227V11.5713H150.658V10.6572H151.737V8.88623H152.88V10.6572H154.378V11.5713H152.88V15.4434C152.88 15.8454 152.956 16.1353 153.108 16.313C153.261 16.4865 153.515 16.5732 153.87 16.5732C153.967 16.5732 154.05 16.5711 154.118 16.5669C154.19 16.5627 154.276 16.5563 154.378 16.5479V17.4873C154.272 17.5042 154.166 17.519 154.061 17.5317C153.955 17.5444 153.847 17.5508 153.737 17.5508Z" fill="black" fill-opacity="0.25"/>
</svg>
