<svg width="162" height="25" viewBox="0 0 162 25" fill="none" xmlns="http://www.w3.org/2000/svg">
<rect x="0.75" y="0.75" width="160.5" height="23.5" rx="5.25" stroke="black" stroke-opacity="0.1" stroke-width="0.5"/>
<path d="M129.317 17.5V8.34033H130.46V17.5H129.317ZM135.087 17.5508C134.385 17.5508 133.875 17.409 133.558 17.1255C133.244 16.842 133.088 16.3743 133.088 15.7227V11.5713H132.009V10.6572H133.088V8.88623H134.23V10.6572H135.729V11.5713H134.23V15.4434C134.23 15.8454 134.307 16.1353 134.459 16.313C134.611 16.4865 134.865 16.5732 135.221 16.5732C135.318 16.5732 135.401 16.5711 135.468 16.5669C135.54 16.5627 135.627 16.5563 135.729 16.5479V17.4873C135.623 17.5042 135.517 17.519 135.411 17.5317C135.305 17.5444 135.197 17.5508 135.087 17.5508ZM140.083 17.6206C139.431 17.6206 138.871 17.4767 138.401 17.189C137.935 16.9012 137.576 16.495 137.322 15.9702C137.072 15.4412 136.947 14.8192 136.947 14.104V14.0977C136.947 13.391 137.072 12.771 137.322 12.2378C137.576 11.7046 137.933 11.2878 138.395 10.9873C138.856 10.6868 139.395 10.5366 140.013 10.5366C140.635 10.5366 141.168 10.6805 141.613 10.9683C142.061 11.256 142.404 11.658 142.641 12.1743C142.882 12.6864 143.003 13.283 143.003 13.9644V14.396H137.519V13.5137H142.438L141.892 14.3198V13.8818C141.892 13.3444 141.812 12.9022 141.651 12.5552C141.49 12.2082 141.268 11.95 140.984 11.7808C140.701 11.6073 140.375 11.5205 140.007 11.5205C139.639 11.5205 139.309 11.6115 139.017 11.7935C138.729 11.9712 138.5 12.2357 138.331 12.5869C138.162 12.9382 138.077 13.3698 138.077 13.8818V14.3198C138.077 14.8065 138.16 15.2233 138.325 15.5703C138.49 15.9131 138.725 16.1776 139.029 16.3638C139.334 16.5457 139.694 16.6367 140.108 16.6367C140.417 16.6367 140.686 16.5944 140.915 16.5098C141.143 16.4251 141.331 16.3172 141.479 16.186C141.628 16.0549 141.731 15.9215 141.791 15.7861L141.816 15.729H142.92L142.908 15.7798C142.848 16.0125 142.743 16.2389 142.59 16.459C142.442 16.6748 142.25 16.8716 142.013 17.0493C141.776 17.2228 141.494 17.3625 141.168 17.4683C140.847 17.5698 140.485 17.6206 140.083 17.6206ZM144.717 17.5V10.6572H145.821V11.6982H145.923C146.075 11.3301 146.308 11.0444 146.621 10.8413C146.938 10.6382 147.321 10.5366 147.77 10.5366C148.079 10.5366 148.356 10.5874 148.602 10.689C148.847 10.7905 149.059 10.9323 149.236 11.1143C149.414 11.292 149.556 11.4993 149.662 11.7363H149.763C149.886 11.4951 150.051 11.2856 150.258 11.1079C150.466 10.9259 150.705 10.7863 150.976 10.689C151.251 10.5874 151.545 10.5366 151.858 10.5366C152.323 10.5366 152.717 10.6234 153.039 10.7969C153.364 10.9704 153.612 11.2243 153.781 11.5586C153.951 11.8887 154.035 12.2928 154.035 12.771V17.5H152.931V13.0249C152.931 12.6864 152.878 12.4071 152.772 12.187C152.67 11.9627 152.514 11.7956 152.302 11.6855C152.091 11.5713 151.824 11.5142 151.502 11.5142C151.185 11.5142 150.908 11.5861 150.671 11.73C150.434 11.8739 150.25 12.0664 150.119 12.3076C149.987 12.5446 149.922 12.8091 149.922 13.1011V17.5H148.817V12.8535C148.817 12.5827 148.758 12.3478 148.64 12.1489C148.525 11.9458 148.36 11.7892 148.145 11.6792C147.933 11.5692 147.683 11.5142 147.396 11.5142C147.099 11.5142 146.831 11.5924 146.589 11.749C146.352 11.9056 146.164 12.1172 146.024 12.3838C145.889 12.6462 145.821 12.9382 145.821 13.2598V17.5H144.717Z" fill="black" fill-opacity="0.25"/>
</svg>
