<svg width="431" height="36" viewBox="0 0 431 36" fill="none" xmlns="http://www.w3.org/2000/svg">
<mask id="path-1-inside-1_520_7931" fill="white">
<path d="M0 0H431V36H0V0Z"/>
</mask>
<path d="M431 35H0V37H431V35Z" fill="black" fill-opacity="0.05" mask="url(#path-1-inside-1_520_7931)"/>
<path d="M1.16797 23V13.8403H2.31055V23H1.16797ZM6.93799 23.0508C6.23551 23.0508 5.72559 22.909 5.4082 22.6255C5.09505 22.342 4.93848 21.8743 4.93848 21.2227V17.0713H3.85938V16.1572H4.93848V14.3862H6.08105V16.1572H7.5791V17.0713H6.08105V20.9434C6.08105 21.3454 6.15723 21.6353 6.30957 21.813C6.46191 21.9865 6.71582 22.0732 7.07129 22.0732C7.16862 22.0732 7.25114 22.0711 7.31885 22.0669C7.39079 22.0627 7.47754 22.0563 7.5791 22.0479V22.9873C7.47331 23.0042 7.36751 23.019 7.26172 23.0317C7.15592 23.0444 7.04801 23.0508 6.93799 23.0508ZM11.9336 23.1206C11.2819 23.1206 10.7212 22.9767 10.2515 22.689C9.78597 22.4012 9.42627 21.995 9.17236 21.4702C8.92269 20.9412 8.79785 20.3192 8.79785 19.604V19.5977C8.79785 18.891 8.92269 18.271 9.17236 17.7378C9.42627 17.2046 9.78385 16.7878 10.2451 16.4873C10.7064 16.1868 11.2459 16.0366 11.8638 16.0366C12.4858 16.0366 13.019 16.1805 13.4634 16.4683C13.9119 16.756 14.2547 17.158 14.4917 17.6743C14.7329 18.1864 14.8535 18.783 14.8535 19.4644V19.896H9.36914V19.0137H14.2886L13.7427 19.8198V19.3818C13.7427 18.8444 13.6623 18.4022 13.5015 18.0552C13.3407 17.7082 13.1185 17.45 12.835 17.2808C12.5514 17.1073 12.2256 17.0205 11.8574 17.0205C11.4893 17.0205 11.1592 17.1115 10.8672 17.2935C10.5794 17.4712 10.3509 17.7357 10.1816 18.0869C10.0124 18.4382 9.92773 18.8698 9.92773 19.3818V19.8198C9.92773 20.3065 10.0103 20.7233 10.1753 21.0703C10.3403 21.4131 10.5752 21.6776 10.8799 21.8638C11.1846 22.0457 11.5443 22.1367 11.959 22.1367C12.2679 22.1367 12.5366 22.0944 12.7651 22.0098C12.9937 21.9251 13.182 21.8172 13.3301 21.686C13.4782 21.5549 13.5819 21.4215 13.6411 21.2861L13.6665 21.229H14.771L14.7583 21.2798C14.6991 21.5125 14.5933 21.7389 14.4409 21.959C14.2928 22.1748 14.1003 22.3716 13.8633 22.5493C13.6263 22.7228 13.3449 22.8625 13.019 22.9683C12.6974 23.0698 12.3356 23.1206 11.9336 23.1206ZM16.5674 23V16.1572H17.6719V17.1982H17.7734C17.9258 16.8301 18.1585 16.5444 18.4717 16.3413C18.7891 16.1382 19.172 16.0366 19.6206 16.0366C19.9295 16.0366 20.2067 16.0874 20.4521 16.189C20.6976 16.2905 20.9092 16.4323 21.0869 16.6143C21.2646 16.792 21.4064 16.9993 21.5122 17.2363H21.6138C21.7365 16.9951 21.9015 16.7856 22.1089 16.6079C22.3162 16.4259 22.5553 16.2863 22.8262 16.189C23.1012 16.0874 23.3953 16.0366 23.7085 16.0366C24.174 16.0366 24.5675 16.1234 24.8892 16.2969C25.215 16.4704 25.4626 16.7243 25.6318 17.0586C25.8011 17.3887 25.8857 17.7928 25.8857 18.271V23H24.7812V18.5249C24.7812 18.1864 24.7284 17.9071 24.6226 17.687C24.521 17.4627 24.3644 17.2956 24.1528 17.1855C23.9412 17.0713 23.6746 17.0142 23.353 17.0142C23.0356 17.0142 22.7585 17.0861 22.5215 17.23C22.2845 17.3739 22.1004 17.5664 21.9692 17.8076C21.8381 18.0446 21.7725 18.3091 21.7725 18.6011V23H20.668V18.3535C20.668 18.0827 20.6087 17.8478 20.4902 17.6489C20.376 17.4458 20.2109 17.2892 19.9951 17.1792C19.7835 17.0692 19.5339 17.0142 19.2461 17.0142C18.9499 17.0142 18.6812 17.0924 18.4399 17.249C18.203 17.4056 18.0146 17.6172 17.875 17.8838C17.7396 18.1462 17.6719 18.4382 17.6719 18.7598V23H16.5674Z" fill="black" fill-opacity="0.85"/>
</svg>
