<svg width="431" height="36" viewBox="0 0 431 36" fill="none" xmlns="http://www.w3.org/2000/svg">
<mask id="path-1-inside-1_520_7940" fill="white">
<path d="M0 0H431V36H0V0Z"/>
</mask>
<path d="M431 35H0V37H431V35Z" fill="black" fill-opacity="0.05" mask="url(#path-1-inside-1_520_7940)"/>
<path d="M5.01465 23.2158C4.13867 23.2158 3.38753 23.0212 2.76123 22.6318C2.13493 22.2383 1.65251 21.6818 1.31396 20.9624C0.979655 20.243 0.8125 19.3966 0.8125 18.4233V18.4106C0.8125 17.4289 0.981771 16.5804 1.32031 15.8652C1.66309 15.1501 2.14762 14.5978 2.77393 14.2085C3.40446 13.8192 4.15137 13.6245 5.01465 13.6245C5.88216 13.6245 6.62907 13.8192 7.25537 14.2085C7.8859 14.5978 8.37044 15.1522 8.70898 15.8716C9.04753 16.5868 9.2168 17.4331 9.2168 18.4106V18.4233C9.2168 19.3966 9.04753 20.243 8.70898 20.9624C8.37467 21.6776 7.89225 22.2319 7.26172 22.6255C6.63542 23.019 5.88639 23.2158 5.01465 23.2158ZM5.01465 22.1621C5.64095 22.1621 6.1805 22.0076 6.6333 21.6987C7.0861 21.3898 7.43522 20.9561 7.68066 20.3975C7.92611 19.8346 8.04883 19.1766 8.04883 18.4233V18.4106C8.04883 17.6489 7.92611 16.9888 7.68066 16.4302C7.43522 15.8716 7.0861 15.4399 6.6333 15.1353C6.1805 14.8306 5.64095 14.6782 5.01465 14.6782C4.39258 14.6782 3.85514 14.8306 3.40234 15.1353C2.94954 15.4399 2.59831 15.8716 2.34863 16.4302C2.10319 16.9888 1.98047 17.6489 1.98047 18.4106V18.4233C1.98047 19.1766 2.10107 19.8346 2.34229 20.3975C2.5835 20.9561 2.9305 21.3898 3.3833 21.6987C3.8361 22.0076 4.37988 22.1621 5.01465 22.1621ZM7.50293 24.0347L4.84326 20.3784H6.12549L8.78516 24.0347H7.50293ZM13.3491 23.1206C12.8328 23.1206 12.3991 23.0233 12.0479 22.8286C11.6966 22.6297 11.4321 22.342 11.2544 21.9653C11.0809 21.5845 10.9941 21.1253 10.9941 20.5879V16.1572H12.0986V20.3213C12.0986 20.9349 12.2171 21.3919 12.4541 21.6924C12.6953 21.9928 13.0889 22.1431 13.6348 22.1431C13.9352 22.1431 14.1997 22.0986 14.4282 22.0098C14.661 21.9209 14.8556 21.7939 15.0122 21.6289C15.1688 21.4596 15.2852 21.2565 15.3613 21.0195C15.4417 20.7783 15.4819 20.5075 15.4819 20.207V16.1572H16.5864V23H15.4819V21.978H15.3804C15.2703 22.2192 15.1201 22.4266 14.9297 22.6001C14.7393 22.7694 14.5107 22.8984 14.2441 22.9873C13.9818 23.0762 13.6834 23.1206 13.3491 23.1206ZM20.5283 23.1206C20.0967 23.1206 19.7074 23.0381 19.3604 22.873C19.0176 22.708 18.7446 22.4731 18.5415 22.1685C18.3426 21.8638 18.2432 21.5041 18.2432 21.0894V21.0767C18.2432 20.6704 18.3405 20.3234 18.5352 20.0356C18.7298 19.7437 19.0133 19.5151 19.3857 19.3501C19.7581 19.1851 20.2088 19.0877 20.7378 19.0581L23.2515 18.9058V19.7881L20.8711 19.9404C20.3506 19.9701 19.9697 20.078 19.7285 20.2642C19.4915 20.4504 19.373 20.7127 19.373 21.0513V21.064C19.373 21.411 19.5042 21.6818 19.7666 21.8765C20.029 22.0669 20.359 22.1621 20.7568 22.1621C21.1335 22.1621 21.4678 22.0881 21.7598 21.9399C22.0518 21.7876 22.2803 21.5824 22.4453 21.3242C22.6146 21.0661 22.6992 20.7741 22.6992 20.4482V18.3154C22.6992 17.8923 22.5701 17.5706 22.312 17.3506C22.0581 17.1263 21.6751 17.0142 21.1631 17.0142C20.7526 17.0142 20.4162 17.0882 20.1538 17.2363C19.8914 17.3802 19.7158 17.5854 19.627 17.8521L19.6206 17.8711H18.5161L18.5225 17.833C18.5817 17.4733 18.7298 17.1602 18.9668 16.8936C19.208 16.6227 19.519 16.4132 19.8999 16.2651C20.2808 16.1128 20.7145 16.0366 21.2012 16.0366C21.7598 16.0366 22.2316 16.1276 22.6167 16.3096C23.006 16.4915 23.3001 16.7539 23.499 17.0967C23.7021 17.4352 23.8037 17.8415 23.8037 18.3154V23H22.6992V21.9907H22.5977C22.4538 22.2319 22.2782 22.4372 22.0708 22.6064C21.8677 22.7757 21.637 22.9048 21.3789 22.9937C21.1208 23.0783 20.8372 23.1206 20.5283 23.1206ZM25.8223 23V16.1572H26.9268V17.1855H27.0283C27.2018 16.8216 27.4515 16.5402 27.7773 16.3413C28.1032 16.1382 28.5179 16.0366 29.0215 16.0366C29.7917 16.0366 30.382 16.2567 30.7925 16.6968C31.2072 17.1326 31.4146 17.7568 31.4146 18.5693V23H30.3101V18.8359C30.3101 18.2181 30.1789 17.7611 29.9165 17.4648C29.6584 17.1644 29.2563 17.0142 28.7104 17.0142C28.3465 17.0142 28.0312 17.0924 27.7646 17.249C27.498 17.4056 27.2907 17.6278 27.1426 17.9155C26.9987 18.2033 26.9268 18.5482 26.9268 18.9502V23H25.8223ZM35.8452 23.0508C35.1427 23.0508 34.6328 22.909 34.3154 22.6255C34.0023 22.342 33.8457 21.8743 33.8457 21.2227V17.0713H32.7666V16.1572H33.8457V14.3862H34.9883V16.1572H36.4863V17.0713H34.9883V20.9434C34.9883 21.3454 35.0645 21.6353 35.2168 21.813C35.3691 21.9865 35.623 22.0732 35.9785 22.0732C36.0758 22.0732 36.1584 22.0711 36.2261 22.0669C36.298 22.0627 36.3848 22.0563 36.4863 22.0479V22.9873C36.3805 23.0042 36.2747 23.019 36.1689 23.0317C36.0632 23.0444 35.9552 23.0508 35.8452 23.0508ZM38.1621 23V16.1572H39.2666V23H38.1621ZM38.7207 14.8369C38.5133 14.8369 38.3335 14.7629 38.1812 14.6147C38.033 14.4624 37.959 14.2826 37.959 14.0752C37.959 13.8636 38.033 13.6838 38.1812 13.5356C38.3335 13.3875 38.5133 13.3135 38.7207 13.3135C38.9323 13.3135 39.1121 13.3875 39.2603 13.5356C39.4084 13.6838 39.4824 13.8636 39.4824 14.0752C39.4824 14.2826 39.4084 14.4624 39.2603 14.6147C39.1121 14.7629 38.9323 14.8369 38.7207 14.8369ZM43.7798 23.0508C43.0773 23.0508 42.5674 22.909 42.25 22.6255C41.9368 22.342 41.7803 21.8743 41.7803 21.2227V17.0713H40.7012V16.1572H41.7803V14.3862H42.9229V16.1572H44.4209V17.0713H42.9229V20.9434C42.9229 21.3454 42.999 21.6353 43.1514 21.813C43.3037 21.9865 43.5576 22.0732 43.9131 22.0732C44.0104 22.0732 44.0929 22.0711 44.1606 22.0669C44.2326 22.0627 44.3193 22.0563 44.4209 22.0479V22.9873C44.3151 23.0042 44.2093 23.019 44.1035 23.0317C43.9977 23.0444 43.8898 23.0508 43.7798 23.0508ZM46.6553 25.3994C46.5833 25.3994 46.5029 25.3952 46.4141 25.3867C46.3252 25.3825 46.2427 25.374 46.1665 25.3613V24.4536C46.2342 24.4663 46.3083 24.4748 46.3887 24.479C46.4691 24.4832 46.5474 24.4854 46.6235 24.4854C46.9367 24.4854 47.1927 24.4049 47.3916 24.2441C47.5947 24.0833 47.7576 23.8062 47.8804 23.4126L48.0073 23.0063L45.4746 16.1572H46.6553L48.7627 22.4795L48.3247 21.7876H48.8452L48.4072 22.4795L50.5083 16.1572H51.6699L48.9976 23.4189C48.8114 23.931 48.6146 24.3309 48.4072 24.6187C48.1999 24.9064 47.9565 25.1074 47.6772 25.2217C47.4022 25.3402 47.0615 25.3994 46.6553 25.3994Z" fill="black" fill-opacity="0.85"/>
</svg>
