<svg width="162" height="25" viewBox="0 0 162 25" fill="none" xmlns="http://www.w3.org/2000/svg">
<rect x="0.75" y="0.75" width="160.5" height="23.5" rx="5.25" stroke="black" stroke-opacity="0.1" stroke-width="0.5"/>
<path d="M112.737 17.5V8.34033H113.88V17.5H112.737ZM118.507 17.5508C117.805 17.5508 117.295 17.409 116.978 17.1255C116.664 16.842 116.508 16.3743 116.508 15.7227V11.5713H115.429V10.6572H116.508V8.88623H117.65V10.6572H119.148V11.5713H117.65V15.4434C117.65 15.8454 117.727 16.1353 117.879 16.313C118.031 16.4865 118.285 16.5732 118.641 16.5732C118.738 16.5732 118.82 16.5711 118.888 16.5669C118.96 16.5627 119.047 16.5563 119.148 16.5479V17.4873C119.043 17.5042 118.937 17.519 118.831 17.5317C118.725 17.5444 118.617 17.5508 118.507 17.5508ZM123.503 17.6206C122.851 17.6206 122.291 17.4767 121.821 17.189C121.355 16.9012 120.996 16.495 120.742 15.9702C120.492 15.4412 120.367 14.8192 120.367 14.104V14.0977C120.367 13.391 120.492 12.771 120.742 12.2378C120.996 11.7046 121.353 11.2878 121.814 10.9873C122.276 10.6868 122.815 10.5366 123.433 10.5366C124.055 10.5366 124.588 10.6805 125.033 10.9683C125.481 11.256 125.824 11.658 126.061 12.1743C126.302 12.6864 126.423 13.283 126.423 13.9644V14.396H120.938V13.5137H125.858L125.312 14.3198V13.8818C125.312 13.3444 125.232 12.9022 125.071 12.5552C124.91 12.2082 124.688 11.95 124.404 11.7808C124.121 11.6073 123.795 11.5205 123.427 11.5205C123.059 11.5205 122.729 11.6115 122.437 11.7935C122.149 11.9712 121.92 12.2357 121.751 12.5869C121.582 12.9382 121.497 13.3698 121.497 13.8818V14.3198C121.497 14.8065 121.58 15.2233 121.745 15.5703C121.91 15.9131 122.145 16.1776 122.449 16.3638C122.754 16.5457 123.114 16.6367 123.528 16.6367C123.837 16.6367 124.106 16.5944 124.334 16.5098C124.563 16.4251 124.751 16.3172 124.899 16.186C125.048 16.0549 125.151 15.9215 125.21 15.7861L125.236 15.729H126.34L126.328 15.7798C126.268 16.0125 126.163 16.2389 126.01 16.459C125.862 16.6748 125.67 16.8716 125.433 17.0493C125.196 17.2228 124.914 17.3625 124.588 17.4683C124.267 17.5698 123.905 17.6206 123.503 17.6206ZM128.137 17.5V10.6572H129.241V11.6982H129.343C129.495 11.3301 129.728 11.0444 130.041 10.8413C130.358 10.6382 130.741 10.5366 131.19 10.5366C131.499 10.5366 131.776 10.5874 132.021 10.689C132.267 10.7905 132.479 10.9323 132.656 11.1143C132.834 11.292 132.976 11.4993 133.082 11.7363H133.183C133.306 11.4951 133.471 11.2856 133.678 11.1079C133.886 10.9259 134.125 10.7863 134.396 10.689C134.671 10.5874 134.965 10.5366 135.278 10.5366C135.743 10.5366 136.137 10.6234 136.458 10.7969C136.784 10.9704 137.032 11.2243 137.201 11.5586C137.37 11.8887 137.455 12.2928 137.455 12.771V17.5H136.351V13.0249C136.351 12.6864 136.298 12.4071 136.192 12.187C136.09 11.9627 135.934 11.7956 135.722 11.6855C135.511 11.5713 135.244 11.5142 134.922 11.5142C134.605 11.5142 134.328 11.5861 134.091 11.73C133.854 11.8739 133.67 12.0664 133.539 12.3076C133.407 12.5446 133.342 12.8091 133.342 13.1011V17.5H132.237V12.8535C132.237 12.5827 132.178 12.3478 132.06 12.1489C131.945 11.9458 131.78 11.7892 131.564 11.6792C131.353 11.5692 131.103 11.5142 130.815 11.5142C130.519 11.5142 130.25 11.5924 130.009 11.749C129.772 11.9056 129.584 12.1172 129.444 12.3838C129.309 12.6462 129.241 12.9382 129.241 13.2598V17.5H128.137ZM143.244 17.5V8.34033H144.387V17.5H143.244ZM146.723 17.5V8.34033H149.865C150.77 8.34033 151.545 8.5223 152.188 8.88623C152.835 9.24593 153.331 9.76644 153.673 10.4478C154.016 11.1291 154.188 11.95 154.188 12.9106V12.9233C154.188 13.884 154.016 14.707 153.673 15.3926C153.331 16.0739 152.838 16.5965 152.194 16.9604C151.551 17.3201 150.775 17.5 149.865 17.5H146.723ZM147.865 16.4717H149.789C150.47 16.4717 151.052 16.332 151.534 16.0527C152.017 15.7734 152.385 15.3693 152.639 14.8403C152.893 14.3114 153.02 13.6766 153.02 12.936V12.9233C153.02 12.1785 152.89 11.5417 152.632 11.0127C152.378 10.4795 152.01 10.0732 151.528 9.79395C151.045 9.51042 150.466 9.36865 149.789 9.36865H147.865V16.4717Z" fill="black" fill-opacity="0.25"/>
</svg>
