<svg width="431" height="37" viewBox="0 0 431 37" fill="none" xmlns="http://www.w3.org/2000/svg">
<mask id="path-1-inside-1_520_7834" fill="white">
<path d="M0 0H431V37H0V0Z"/>
</mask>
<path d="M431 36H0V38H431V36Z" fill="black" fill-opacity="0.05" mask="url(#path-1-inside-1_520_7834)"/>
<path d="M1.16797 23.5V14.3403H2.31055V23.5H1.16797ZM6.93799 23.5508C6.23551 23.5508 5.72559 23.409 5.4082 23.1255C5.09505 22.842 4.93848 22.3743 4.93848 21.7227V17.5713H3.85938V16.6572H4.93848V14.8862H6.08105V16.6572H7.5791V17.5713H6.08105V21.4434C6.08105 21.8454 6.15723 22.1353 6.30957 22.313C6.46191 22.4865 6.71582 22.5732 7.07129 22.5732C7.16862 22.5732 7.25114 22.5711 7.31885 22.5669C7.39079 22.5627 7.47754 22.5563 7.5791 22.5479V23.4873C7.47331 23.5042 7.36751 23.519 7.26172 23.5317C7.15592 23.5444 7.04801 23.5508 6.93799 23.5508ZM11.9336 23.6206C11.2819 23.6206 10.7212 23.4767 10.2515 23.189C9.78597 22.9012 9.42627 22.495 9.17236 21.9702C8.92269 21.4412 8.79785 20.8192 8.79785 20.104V20.0977C8.79785 19.391 8.92269 18.771 9.17236 18.2378C9.42627 17.7046 9.78385 17.2878 10.2451 16.9873C10.7064 16.6868 11.2459 16.5366 11.8638 16.5366C12.4858 16.5366 13.019 16.6805 13.4634 16.9683C13.9119 17.256 14.2547 17.658 14.4917 18.1743C14.7329 18.6864 14.8535 19.283 14.8535 19.9644V20.396H9.36914V19.5137H14.2886L13.7427 20.3198V19.8818C13.7427 19.3444 13.6623 18.9022 13.5015 18.5552C13.3407 18.2082 13.1185 17.95 12.835 17.7808C12.5514 17.6073 12.2256 17.5205 11.8574 17.5205C11.4893 17.5205 11.1592 17.6115 10.8672 17.7935C10.5794 17.9712 10.3509 18.2357 10.1816 18.5869C10.0124 18.9382 9.92773 19.3698 9.92773 19.8818V20.3198C9.92773 20.8065 10.0103 21.2233 10.1753 21.5703C10.3403 21.9131 10.5752 22.1776 10.8799 22.3638C11.1846 22.5457 11.5443 22.6367 11.959 22.6367C12.2679 22.6367 12.5366 22.5944 12.7651 22.5098C12.9937 22.4251 13.182 22.3172 13.3301 22.186C13.4782 22.0549 13.5819 21.9215 13.6411 21.7861L13.6665 21.729H14.771L14.7583 21.7798C14.6991 22.0125 14.5933 22.2389 14.4409 22.459C14.2928 22.6748 14.1003 22.8716 13.8633 23.0493C13.6263 23.2228 13.3449 23.3625 13.019 23.4683C12.6974 23.5698 12.3356 23.6206 11.9336 23.6206ZM16.5674 23.5V16.6572H17.6719V17.6982H17.7734C17.9258 17.3301 18.1585 17.0444 18.4717 16.8413C18.7891 16.6382 19.172 16.5366 19.6206 16.5366C19.9295 16.5366 20.2067 16.5874 20.4521 16.689C20.6976 16.7905 20.9092 16.9323 21.0869 17.1143C21.2646 17.292 21.4064 17.4993 21.5122 17.7363H21.6138C21.7365 17.4951 21.9015 17.2856 22.1089 17.1079C22.3162 16.9259 22.5553 16.7863 22.8262 16.689C23.1012 16.5874 23.3953 16.5366 23.7085 16.5366C24.174 16.5366 24.5675 16.6234 24.8892 16.7969C25.215 16.9704 25.4626 17.2243 25.6318 17.5586C25.8011 17.8887 25.8857 18.2928 25.8857 18.771V23.5H24.7812V19.0249C24.7812 18.6864 24.7284 18.4071 24.6226 18.187C24.521 17.9627 24.3644 17.7956 24.1528 17.6855C23.9412 17.5713 23.6746 17.5142 23.353 17.5142C23.0356 17.5142 22.7585 17.5861 22.5215 17.73C22.2845 17.8739 22.1004 18.0664 21.9692 18.3076C21.8381 18.5446 21.7725 18.8091 21.7725 19.1011V23.5H20.668V18.8535C20.668 18.5827 20.6087 18.3478 20.4902 18.1489C20.376 17.9458 20.2109 17.7892 19.9951 17.6792C19.7835 17.5692 19.5339 17.5142 19.2461 17.5142C18.9499 17.5142 18.6812 17.5924 18.4399 17.749C18.203 17.9056 18.0146 18.1172 17.875 18.3838C17.7396 18.6462 17.6719 18.9382 17.6719 19.2598V23.5H16.5674Z" fill="black" fill-opacity="0.85"/>
</svg>
