<svg width="162" height="22" viewBox="0 0 162 22" fill="none" xmlns="http://www.w3.org/2000/svg">
<rect x="0.75" y="0.25" width="160.5" height="21.5" rx="5.25" stroke="black" stroke-opacity="0.1" stroke-width="0.5"/>
<g clip-path="url(#clip0_520_8089)">
<rect x="142.5" y="3" width="16" height="16" rx="4" fill="black" fill-opacity="0.05"/>
<path d="M150.5 13.0728C150.295 13.0728 150.106 12.9873 149.933 12.8164L147.468 10.2974C147.404 10.2313 147.357 10.1606 147.325 10.0854C147.295 10.0103 147.28 9.92708 147.28 9.83594C147.28 9.71289 147.31 9.6001 147.369 9.49756C147.431 9.39274 147.512 9.31071 147.612 9.25146C147.714 9.18994 147.826 9.15918 147.947 9.15918C148.134 9.15918 148.3 9.23324 148.446 9.38135L150.62 11.6304H150.387L152.554 9.38135C152.695 9.23324 152.86 9.15918 153.046 9.15918C153.169 9.15918 153.281 9.18994 153.381 9.25146C153.484 9.31071 153.565 9.39274 153.624 9.49756C153.686 9.6001 153.716 9.71289 153.716 9.83594C153.716 10.0182 153.653 10.172 153.525 10.2974L151.064 12.8164C150.975 12.9053 150.885 12.9702 150.794 13.0112C150.705 13.0522 150.607 13.0728 150.5 13.0728Z" fill="black"/>
</g>
<path d="M53.0093 16.5V8.36865H50.0576V7.34033H57.1035V8.36865H54.1519V16.5H53.0093ZM60.271 16.6206C59.6235 16.6206 59.0628 16.4788 58.5889 16.1953C58.1191 15.9076 57.7552 15.4992 57.4971 14.9702C57.2432 14.4412 57.1162 13.8128 57.1162 13.085V13.0723C57.1162 12.3402 57.2432 11.7096 57.4971 11.1807C57.7552 10.6517 58.1191 10.2454 58.5889 9.96191C59.0628 9.67839 59.6235 9.53662 60.271 9.53662C60.9227 9.53662 61.4834 9.67839 61.9531 9.96191C62.4229 10.2454 62.7847 10.6517 63.0386 11.1807C63.2967 11.7096 63.4258 12.3402 63.4258 13.0723V13.085C63.4258 13.8128 63.2967 14.4412 63.0386 14.9702C62.7847 15.4992 62.4229 15.9076 61.9531 16.1953C61.4834 16.4788 60.9227 16.6206 60.271 16.6206ZM60.271 15.6431C60.7026 15.6431 61.0687 15.5415 61.3691 15.3384C61.6696 15.1353 61.8981 14.8433 62.0547 14.4624C62.2155 14.0815 62.2959 13.6224 62.2959 13.085V13.0723C62.2959 12.5306 62.2155 12.0693 62.0547 11.6885C61.8981 11.3076 61.6696 11.0177 61.3691 10.8188C61.0687 10.6157 60.7026 10.5142 60.271 10.5142C59.8394 10.5142 59.4733 10.6157 59.1729 10.8188C58.8724 11.0177 58.6418 11.3076 58.481 11.6885C58.3244 12.0693 58.2461 12.5306 58.2461 13.0723V13.085C58.2461 13.6224 58.3244 14.0815 58.481 14.4624C58.6418 14.8433 58.8724 15.1353 59.1729 15.3384C59.4733 15.5415 59.8394 15.6431 60.271 15.6431ZM65.1396 16.5V9.65723H66.2441V10.6982H66.3457C66.498 10.3301 66.7308 10.0444 67.0439 9.84131C67.3613 9.63818 67.7443 9.53662 68.1929 9.53662C68.5018 9.53662 68.779 9.5874 69.0244 9.68896C69.2699 9.79053 69.4814 9.93229 69.6592 10.1143C69.8369 10.292 69.9787 10.4993 70.0845 10.7363H70.186C70.3088 10.4951 70.4738 10.2856 70.6812 10.1079C70.8885 9.92594 71.1276 9.7863 71.3984 9.68896C71.6735 9.5874 71.9676 9.53662 72.2808 9.53662C72.7463 9.53662 73.1398 9.62337 73.4614 9.79688C73.7873 9.97038 74.0348 10.2243 74.2041 10.5586C74.3734 10.8887 74.458 11.2928 74.458 11.771V16.5H73.3535V12.0249C73.3535 11.6864 73.3006 11.4071 73.1948 11.187C73.0933 10.9627 72.9367 10.7956 72.7251 10.6855C72.5135 10.5713 72.2469 10.5142 71.9253 10.5142C71.6079 10.5142 71.3307 10.5861 71.0938 10.73C70.8568 10.8739 70.6727 11.0664 70.5415 11.3076C70.4103 11.5446 70.3447 11.8091 70.3447 12.1011V16.5H69.2402V11.8535C69.2402 11.5827 69.181 11.3478 69.0625 11.1489C68.9482 10.9458 68.7832 10.7892 68.5674 10.6792C68.3558 10.5692 68.1061 10.5142 67.8184 10.5142C67.5221 10.5142 67.2534 10.5924 67.0122 10.749C66.7752 10.9056 66.5869 11.1172 66.4473 11.3838C66.3118 11.6462 66.2441 11.9382 66.2441 12.2598V16.5H65.1396ZM78.3301 16.6206C77.8984 16.6206 77.5091 16.5381 77.1621 16.373C76.8193 16.208 76.5464 15.9731 76.3433 15.6685C76.1444 15.3638 76.0449 15.0041 76.0449 14.5894V14.5767C76.0449 14.1704 76.1423 13.8234 76.3369 13.5356C76.5316 13.2437 76.8151 13.0151 77.1875 12.8501C77.5599 12.6851 78.0106 12.5877 78.5396 12.5581L81.0532 12.4058V13.2881L78.6729 13.4404C78.1523 13.4701 77.7715 13.578 77.5303 13.7642C77.2933 13.9504 77.1748 14.2127 77.1748 14.5513V14.564C77.1748 14.911 77.306 15.1818 77.5684 15.3765C77.8307 15.5669 78.1608 15.6621 78.5586 15.6621C78.9352 15.6621 79.2695 15.5881 79.5615 15.4399C79.8535 15.2876 80.082 15.0824 80.2471 14.8242C80.4163 14.5661 80.501 14.2741 80.501 13.9482V11.8154C80.501 11.3923 80.3719 11.0706 80.1138 10.8506C79.8599 10.6263 79.4769 10.5142 78.9648 10.5142C78.5544 10.5142 78.2179 10.5882 77.9556 10.7363C77.6932 10.8802 77.5176 11.0854 77.4287 11.3521L77.4224 11.3711H76.3179L76.3242 11.333C76.3835 10.9733 76.5316 10.6602 76.7686 10.3936C77.0098 10.1227 77.3208 9.91325 77.7017 9.76514C78.0825 9.61279 78.5163 9.53662 79.0029 9.53662C79.5615 9.53662 80.0334 9.6276 80.4185 9.80957C80.8078 9.99154 81.1019 10.2539 81.3008 10.5967C81.5039 10.9352 81.6055 11.3415 81.6055 11.8154V16.5H80.501V15.4907H80.3994C80.2555 15.7319 80.0799 15.9372 79.8726 16.1064C79.6694 16.2757 79.4388 16.4048 79.1807 16.4937C78.9225 16.5783 78.639 16.6206 78.3301 16.6206ZM86.0552 16.5508C85.3527 16.5508 84.8428 16.409 84.5254 16.1255C84.2122 15.842 84.0557 15.3743 84.0557 14.7227V10.5713H82.9766V9.65723H84.0557V7.88623H85.1982V9.65723H86.6963V10.5713H85.1982V14.4434C85.1982 14.8454 85.2744 15.1353 85.4268 15.313C85.5791 15.4865 85.833 15.5732 86.1885 15.5732C86.2858 15.5732 86.3683 15.5711 86.436 15.5669C86.508 15.5627 86.5947 15.5563 86.6963 15.5479V16.4873C86.5905 16.5042 86.4847 16.519 86.3789 16.5317C86.2731 16.5444 86.1652 16.5508 86.0552 16.5508ZM91.0698 16.6206C90.4224 16.6206 89.8617 16.4788 89.3877 16.1953C88.918 15.9076 88.554 15.4992 88.2959 14.9702C88.042 14.4412 87.915 13.8128 87.915 13.085V13.0723C87.915 12.3402 88.042 11.7096 88.2959 11.1807C88.554 10.6517 88.918 10.2454 89.3877 9.96191C89.8617 9.67839 90.4224 9.53662 91.0698 9.53662C91.7215 9.53662 92.2822 9.67839 92.752 9.96191C93.2217 10.2454 93.5835 10.6517 93.8374 11.1807C94.0955 11.7096 94.2246 12.3402 94.2246 13.0723V13.085C94.2246 13.8128 94.0955 14.4412 93.8374 14.9702C93.5835 15.4992 93.2217 15.9076 92.752 16.1953C92.2822 16.4788 91.7215 16.6206 91.0698 16.6206ZM91.0698 15.6431C91.5015 15.6431 91.8675 15.5415 92.168 15.3384C92.4684 15.1353 92.6969 14.8433 92.8535 14.4624C93.0143 14.0815 93.0947 13.6224 93.0947 13.085V13.0723C93.0947 12.5306 93.0143 12.0693 92.8535 11.6885C92.6969 11.3076 92.4684 11.0177 92.168 10.8188C91.8675 10.6157 91.5015 10.5142 91.0698 10.5142C90.6382 10.5142 90.2721 10.6157 89.9717 10.8188C89.6712 11.0177 89.4406 11.3076 89.2798 11.6885C89.1232 12.0693 89.0449 12.5306 89.0449 13.0723V13.085C89.0449 13.6224 89.1232 14.0815 89.2798 14.4624C89.4406 14.8433 89.6712 15.1353 89.9717 15.3384C90.2721 15.5415 90.6382 15.6431 91.0698 15.6431ZM102.737 16.7158C102.068 16.7158 101.484 16.6079 100.985 16.3921C100.49 16.172 100.096 15.8716 99.8042 15.4907C99.5164 15.1056 99.3493 14.6655 99.3027 14.1704L99.2964 14.1006H100.439L100.445 14.1704C100.475 14.4751 100.591 14.7396 100.794 14.9639C101.002 15.1839 101.277 15.3553 101.62 15.478C101.967 15.6007 102.36 15.6621 102.8 15.6621C103.215 15.6621 103.583 15.5965 103.905 15.4653C104.231 15.3299 104.487 15.1437 104.673 14.9067C104.859 14.6698 104.952 14.3968 104.952 14.0879V14.0815C104.952 13.7007 104.812 13.3812 104.533 13.123C104.254 12.8607 103.799 12.6597 103.168 12.52L102.153 12.2979C101.235 12.0947 100.566 11.7816 100.147 11.3584C99.7323 10.931 99.5249 10.3851 99.5249 9.7207V9.71436C99.5291 9.20654 99.6667 8.75798 99.9375 8.36865C100.213 7.97933 100.591 7.67464 101.074 7.45459C101.56 7.23454 102.119 7.12451 102.75 7.12451C103.359 7.12451 103.898 7.23454 104.368 7.45459C104.838 7.67041 105.21 7.9624 105.485 8.33057C105.765 8.69873 105.919 9.11133 105.949 9.56836L105.955 9.65723H104.812L104.8 9.57471C104.757 9.30387 104.647 9.06478 104.47 8.85742C104.292 8.64583 104.055 8.47868 103.759 8.35596C103.463 8.23324 103.116 8.17399 102.718 8.17822C102.337 8.17822 101.994 8.23747 101.689 8.35596C101.385 8.47445 101.141 8.64583 100.959 8.87012C100.782 9.09017 100.693 9.361 100.693 9.68262V9.68896C100.693 10.0529 100.828 10.3597 101.099 10.6094C101.37 10.859 101.816 11.0516 102.438 11.187L103.454 11.4155C104.093 11.5552 104.607 11.7371 104.997 11.9614C105.386 12.1857 105.669 12.4608 105.847 12.7866C106.029 13.1082 106.12 13.4891 106.12 13.9292V13.9355C106.12 14.5068 105.98 14.9998 105.701 15.4146C105.422 15.8293 105.028 16.1509 104.521 16.3794C104.013 16.6037 103.418 16.7158 102.737 16.7158ZM110.678 16.6206C110.026 16.6206 109.465 16.4767 108.996 16.189C108.53 15.9012 108.17 15.495 107.917 14.9702C107.667 14.4412 107.542 13.8192 107.542 13.104V13.0977C107.542 12.391 107.667 11.771 107.917 11.2378C108.17 10.7046 108.528 10.2878 108.989 9.9873C109.451 9.68685 109.99 9.53662 110.608 9.53662C111.23 9.53662 111.763 9.6805 112.208 9.96826C112.656 10.256 112.999 10.658 113.236 11.1743C113.477 11.6864 113.598 12.283 113.598 12.9644V13.396H108.113V12.5137H113.033L112.487 13.3198V12.8818C112.487 12.3444 112.406 11.9022 112.246 11.5552C112.085 11.2082 111.863 10.95 111.579 10.7808C111.296 10.6073 110.97 10.5205 110.602 10.5205C110.233 10.5205 109.903 10.6115 109.611 10.7935C109.324 10.9712 109.095 11.2357 108.926 11.5869C108.757 11.9382 108.672 12.3698 108.672 12.8818V13.3198C108.672 13.8065 108.754 14.2233 108.919 14.5703C109.084 14.9131 109.319 15.1776 109.624 15.3638C109.929 15.5457 110.288 15.6367 110.703 15.6367C111.012 15.6367 111.281 15.5944 111.509 15.5098C111.738 15.4251 111.926 15.3172 112.074 15.186C112.222 15.0549 112.326 14.9215 112.385 14.7861L112.411 14.729H113.515L113.502 14.7798C113.443 15.0125 113.337 15.2389 113.185 15.459C113.037 15.6748 112.844 15.8716 112.607 16.0493C112.37 16.2228 112.089 16.3625 111.763 16.4683C111.442 16.5698 111.08 16.6206 110.678 16.6206ZM118.104 16.6206C117.453 16.6206 116.892 16.4767 116.422 16.189C115.957 15.9012 115.597 15.495 115.343 14.9702C115.094 14.4412 114.969 13.8192 114.969 13.104V13.0977C114.969 12.391 115.094 11.771 115.343 11.2378C115.597 10.7046 115.955 10.2878 116.416 9.9873C116.877 9.68685 117.417 9.53662 118.035 9.53662C118.657 9.53662 119.19 9.6805 119.634 9.96826C120.083 10.256 120.426 10.658 120.663 11.1743C120.904 11.6864 121.024 12.283 121.024 12.9644V13.396H115.54V12.5137H120.459L119.914 13.3198V12.8818C119.914 12.3444 119.833 11.9022 119.672 11.5552C119.512 11.2082 119.289 10.95 119.006 10.7808C118.722 10.6073 118.396 10.5205 118.028 10.5205C117.66 10.5205 117.33 10.6115 117.038 10.7935C116.75 10.9712 116.522 11.2357 116.353 11.5869C116.183 11.9382 116.099 12.3698 116.099 12.8818V13.3198C116.099 13.8065 116.181 14.2233 116.346 14.5703C116.511 14.9131 116.746 15.1776 117.051 15.3638C117.355 15.5457 117.715 15.6367 118.13 15.6367C118.439 15.6367 118.708 15.5944 118.936 15.5098C119.165 15.4251 119.353 15.3172 119.501 15.186C119.649 15.0549 119.753 14.9215 119.812 14.7861L119.837 14.729H120.942L120.929 14.7798C120.87 15.0125 120.764 15.2389 120.612 15.459C120.464 15.6748 120.271 15.8716 120.034 16.0493C119.797 16.2228 119.516 16.3625 119.19 16.4683C118.868 16.5698 118.507 16.6206 118.104 16.6206ZM125.265 16.6206C124.689 16.6206 124.186 16.4746 123.754 16.1826C123.322 15.8906 122.988 15.4801 122.751 14.9512C122.514 14.418 122.396 13.7959 122.396 13.085V13.0723C122.396 12.3571 122.514 11.735 122.751 11.2061C122.988 10.6771 123.32 10.2666 123.748 9.97461C124.179 9.68262 124.685 9.53662 125.265 9.53662C125.578 9.53662 125.872 9.5874 126.147 9.68896C126.426 9.7863 126.674 9.92383 126.89 10.1016C127.105 10.2793 127.275 10.4909 127.397 10.7363H127.499V6.94043H128.604V16.5H127.499V15.4082H127.397C127.258 15.6621 127.082 15.88 126.871 16.062C126.659 16.2397 126.418 16.3773 126.147 16.4746C125.876 16.5719 125.582 16.6206 125.265 16.6206ZM125.519 15.6431C125.933 15.6431 126.291 15.5394 126.591 15.332C126.892 15.1247 127.122 14.8306 127.283 14.4497C127.444 14.0646 127.524 13.6097 127.524 13.085V13.0723C127.524 12.5433 127.444 12.0884 127.283 11.7075C127.122 11.3267 126.892 11.0326 126.591 10.8252C126.291 10.6178 125.933 10.5142 125.519 10.5142C125.104 10.5142 124.746 10.6178 124.446 10.8252C124.15 11.0283 123.921 11.3203 123.76 11.7012C123.604 12.082 123.525 12.5391 123.525 13.0723V13.085C123.525 13.6139 123.604 14.071 123.76 14.4561C123.921 14.8369 124.15 15.131 124.446 15.3384C124.746 15.5415 125.104 15.6431 125.519 15.6431ZM133.072 16.6206C132.564 16.6206 132.116 16.5444 131.727 16.3921C131.337 16.2355 131.024 16.0176 130.787 15.7383C130.554 15.459 130.417 15.131 130.375 14.7544H131.504C131.597 15.0379 131.779 15.2664 132.05 15.4399C132.321 15.6134 132.674 15.7002 133.11 15.7002C133.419 15.7002 133.69 15.6558 133.923 15.5669C134.16 15.4738 134.346 15.349 134.481 15.1924C134.617 15.0316 134.685 14.8475 134.685 14.6401V14.6274C134.685 14.3947 134.591 14.1979 134.405 14.0371C134.219 13.8721 133.914 13.7388 133.491 13.6372L132.431 13.3833C132.004 13.2817 131.653 13.1506 131.377 12.9897C131.102 12.8247 130.899 12.6237 130.768 12.3867C130.637 12.1455 130.571 11.862 130.571 11.5361V11.5298C130.571 11.1489 130.681 10.8083 130.901 10.5078C131.126 10.2074 131.43 9.97038 131.815 9.79688C132.201 9.62337 132.634 9.53662 133.117 9.53662C133.595 9.53662 134.018 9.61279 134.386 9.76514C134.759 9.91325 135.057 10.1248 135.281 10.3999C135.51 10.675 135.649 10.9987 135.7 11.3711H134.615C134.543 11.1003 134.378 10.8802 134.12 10.7109C133.861 10.5417 133.525 10.457 133.11 10.457C132.84 10.457 132.598 10.5015 132.387 10.5903C132.175 10.675 132.008 10.7935 131.885 10.9458C131.763 11.0981 131.701 11.2759 131.701 11.479V11.4917C131.701 11.644 131.741 11.7795 131.822 11.8979C131.902 12.0164 132.027 12.1201 132.196 12.209C132.366 12.2979 132.583 12.3761 132.85 12.4438L133.904 12.6978C134.547 12.8543 135.025 13.0786 135.338 13.3706C135.656 13.6626 135.814 14.054 135.814 14.5449V14.5576C135.814 14.9639 135.694 15.3236 135.453 15.6367C135.211 15.9456 134.883 16.1868 134.469 16.3604C134.058 16.5339 133.593 16.6206 133.072 16.6206Z" fill="black" fill-opacity="0.85"/>
<defs>
<clipPath id="clip0_520_8089">
<rect width="16" height="16" fill="white" transform="translate(142.5 3)"/>
</clipPath>
</defs>
</svg>
