<svg width="93" height="22" viewBox="0 0 93 22" fill="none" xmlns="http://www.w3.org/2000/svg">
<g filter="url(#filter0_dd_520_7431)">
<rect x="1" y="1" width="90" height="20" rx="5" fill="white"/>
<rect x="0.75" y="0.75" width="90.5" height="20.5" rx="5.25" stroke="black" stroke-opacity="0.02" stroke-width="0.5"/>
<path d="M10.3516 16V7.86865H7.3999V6.84033H14.4458V7.86865H11.4941V16H10.3516ZM15.1187 16V9.15723H16.2231V10.1729H16.3247C16.4559 9.81315 16.6781 9.53385 16.9912 9.33496C17.3044 9.13607 17.6916 9.03662 18.1528 9.03662C18.2586 9.03662 18.3623 9.04297 18.4639 9.05566C18.5697 9.06413 18.6501 9.07259 18.7051 9.08105V10.1538C18.5908 10.1326 18.4787 10.1178 18.3687 10.1094C18.2629 10.0967 18.1486 10.0903 18.0259 10.0903C17.6746 10.0903 17.3636 10.1602 17.0928 10.2998C16.8219 10.4395 16.6082 10.6341 16.4517 10.8838C16.2993 11.1335 16.2231 11.4255 16.2231 11.7598V16H15.1187ZM21.9487 16.1206C21.5171 16.1206 21.1278 16.0381 20.7808 15.873C20.438 15.708 20.165 15.4731 19.9619 15.1685C19.763 14.8638 19.6636 14.5041 19.6636 14.0894V14.0767C19.6636 13.6704 19.7609 13.3234 19.9556 13.0356C20.1502 12.7437 20.4338 12.5151 20.8062 12.3501C21.1785 12.1851 21.6292 12.0877 22.1582 12.0581L24.6719 11.9058V12.7881L22.2915 12.9404C21.771 12.9701 21.3901 13.078 21.1489 13.2642C20.9119 13.4504 20.7935 13.7127 20.7935 14.0513V14.064C20.7935 14.411 20.9246 14.6818 21.187 14.8765C21.4494 15.0669 21.7795 15.1621 22.1772 15.1621C22.5539 15.1621 22.8882 15.0881 23.1802 14.9399C23.4722 14.7876 23.7007 14.5824 23.8657 14.3242C24.035 14.0661 24.1196 13.7741 24.1196 13.4482V11.3154C24.1196 10.8923 23.9906 10.5706 23.7324 10.3506C23.4785 10.1263 23.0955 10.0142 22.5835 10.0142C22.173 10.0142 21.8366 10.0882 21.5742 10.2363C21.3118 10.3802 21.1362 10.5854 21.0474 10.8521L21.041 10.8711H19.9365L19.9429 10.833C20.0021 10.4733 20.1502 10.1602 20.3872 9.89355C20.6284 9.62272 20.9395 9.41325 21.3203 9.26514C21.7012 9.11279 22.1349 9.03662 22.6216 9.03662C23.1802 9.03662 23.652 9.1276 24.0371 9.30957C24.4264 9.49154 24.7205 9.75391 24.9194 10.0967C25.1226 10.4352 25.2241 10.8415 25.2241 11.3154V16H24.1196V14.9907H24.0181C23.8742 15.2319 23.6986 15.4372 23.4912 15.6064C23.2881 15.7757 23.0575 15.9048 22.7993 15.9937C22.5412 16.0783 22.2576 16.1206 21.9487 16.1206ZM27.2427 16V9.15723H28.3472V10.1855H28.4487C28.6222 9.82161 28.8719 9.5402 29.1978 9.34131C29.5236 9.13818 29.9383 9.03662 30.4419 9.03662C31.2121 9.03662 31.8024 9.25667 32.2129 9.69678C32.6276 10.1326 32.835 10.7568 32.835 11.5693V16H31.7305V11.8359C31.7305 11.2181 31.5993 10.7611 31.3369 10.4648C31.0788 10.1644 30.6768 10.0142 30.1309 10.0142C29.7669 10.0142 29.4517 10.0924 29.1851 10.249C28.9185 10.4056 28.7111 10.6278 28.563 10.9155C28.4191 11.2033 28.3472 11.5482 28.3472 11.9502V16H27.2427ZM37.1831 16.1206C36.6753 16.1206 36.2267 16.0444 35.8374 15.8921C35.4481 15.7355 35.1349 15.5176 34.8979 15.2383C34.6652 14.959 34.5277 14.631 34.4854 14.2544H35.6152C35.7083 14.5379 35.8903 14.7664 36.1611 14.9399C36.432 15.1134 36.7853 15.2002 37.2212 15.2002C37.5301 15.2002 37.8009 15.1558 38.0337 15.0669C38.2707 14.9738 38.4569 14.849 38.5923 14.6924C38.7277 14.5316 38.7954 14.3475 38.7954 14.1401V14.1274C38.7954 13.8947 38.7023 13.6979 38.5161 13.5371C38.3299 13.3721 38.0252 13.2388 37.6021 13.1372L36.542 12.8833C36.1146 12.7817 35.7633 12.6506 35.4883 12.4897C35.2132 12.3247 35.0101 12.1237 34.8789 11.8867C34.7477 11.6455 34.6821 11.362 34.6821 11.0361V11.0298C34.6821 10.6489 34.7922 10.3083 35.0122 10.0078C35.2365 9.70736 35.5412 9.47038 35.9263 9.29688C36.3114 9.12337 36.7451 9.03662 37.2275 9.03662C37.7057 9.03662 38.1289 9.11279 38.4971 9.26514C38.8695 9.41325 39.1678 9.62484 39.3921 9.8999C39.6206 10.175 39.7603 10.4987 39.811 10.8711H38.7256C38.6536 10.6003 38.4886 10.3802 38.2305 10.2109C37.9723 10.0417 37.6359 9.95703 37.2212 9.95703C36.9504 9.95703 36.7091 10.0015 36.4976 10.0903C36.286 10.175 36.1188 10.2935 35.9961 10.4458C35.8734 10.5981 35.812 10.7759 35.812 10.979V10.9917C35.812 11.144 35.8522 11.2795 35.9326 11.3979C36.013 11.5164 36.1379 11.6201 36.3071 11.709C36.4764 11.7979 36.6943 11.8761 36.9609 11.9438L38.0146 12.1978C38.6579 12.3543 39.1361 12.5786 39.4492 12.8706C39.7666 13.1626 39.9253 13.554 39.9253 14.0449V14.0576C39.9253 14.4639 39.8047 14.8236 39.5635 15.1367C39.3223 15.4456 38.9943 15.6868 38.5796 15.8604C38.1691 16.0339 37.7036 16.1206 37.1831 16.1206ZM43.5181 16.1206C43.0864 16.1206 42.6971 16.0381 42.3501 15.873C42.0073 15.708 41.7344 15.4731 41.5312 15.1685C41.3324 14.8638 41.2329 14.5041 41.2329 14.0894V14.0767C41.2329 13.6704 41.3302 13.3234 41.5249 13.0356C41.7196 12.7437 42.0031 12.5151 42.3755 12.3501C42.7479 12.1851 43.1986 12.0877 43.7275 12.0581L46.2412 11.9058V12.7881L43.8608 12.9404C43.3403 12.9701 42.9595 13.078 42.7183 13.2642C42.4813 13.4504 42.3628 13.7127 42.3628 14.0513V14.064C42.3628 14.411 42.494 14.6818 42.7563 14.8765C43.0187 15.0669 43.3488 15.1621 43.7466 15.1621C44.1232 15.1621 44.4575 15.0881 44.7495 14.9399C45.0415 14.7876 45.27 14.5824 45.4351 14.3242C45.6043 14.0661 45.689 13.7741 45.689 13.4482V11.3154C45.689 10.8923 45.5599 10.5706 45.3018 10.3506C45.0479 10.1263 44.6649 10.0142 44.1528 10.0142C43.7424 10.0142 43.4059 10.0882 43.1436 10.2363C42.8812 10.3802 42.7056 10.5854 42.6167 10.8521L42.6104 10.8711H41.5059L41.5122 10.833C41.5715 10.4733 41.7196 10.1602 41.9565 9.89355C42.1978 9.62272 42.5088 9.41325 42.8896 9.26514C43.2705 9.11279 43.7043 9.03662 44.1909 9.03662C44.7495 9.03662 45.2214 9.1276 45.6064 9.30957C45.9958 9.49154 46.2899 9.75391 46.4888 10.0967C46.6919 10.4352 46.7935 10.8415 46.7935 11.3154V16H45.689V14.9907H45.5874C45.4435 15.2319 45.2679 15.4372 45.0605 15.6064C44.8574 15.7757 44.6268 15.9048 44.3687 15.9937C44.1105 16.0783 43.827 16.1206 43.5181 16.1206ZM51.6113 16.1206C50.9723 16.1206 50.418 15.9746 49.9482 15.6826C49.4785 15.3906 49.1146 14.978 48.8564 14.4448C48.5983 13.9116 48.4692 13.2832 48.4692 12.5596V12.5469C48.4692 11.8359 48.5962 11.2181 48.8501 10.6934C49.1082 10.1686 49.4722 9.76237 49.9419 9.47461C50.4116 9.18262 50.966 9.03662 51.605 9.03662C52.1593 9.03662 52.6375 9.13395 53.0396 9.32861C53.4416 9.52327 53.7632 9.78564 54.0044 10.1157C54.2456 10.4416 54.4001 10.8076 54.4678 11.2139L54.4741 11.252H53.376L53.3696 11.2329C53.285 10.8944 53.0924 10.6066 52.792 10.3696C52.4915 10.1326 52.0959 10.0142 51.605 10.0142C51.1945 10.0142 50.839 10.1178 50.5386 10.3252C50.2381 10.5326 50.0054 10.8267 49.8403 11.2075C49.6795 11.5841 49.5991 12.0306 49.5991 12.5469V12.5596C49.5991 13.0843 49.6816 13.5413 49.8467 13.9307C50.0117 14.3158 50.2445 14.6141 50.5449 14.8257C50.8454 15.0373 51.1987 15.1431 51.605 15.1431C52.0662 15.1431 52.4429 15.0436 52.7349 14.8447C53.0269 14.6458 53.2363 14.356 53.3633 13.9751L53.376 13.937L54.4678 13.9307L54.4551 14.0005C54.362 14.411 54.1969 14.777 53.96 15.0986C53.723 15.416 53.4098 15.6657 53.0205 15.8477C52.6312 16.0296 52.1615 16.1206 51.6113 16.1206ZM58.6445 16.0508C57.9421 16.0508 57.4321 15.909 57.1147 15.6255C56.8016 15.342 56.645 14.8743 56.645 14.2227V10.0713H55.5659V9.15723H56.645V7.38623H57.7876V9.15723H59.2856V10.0713H57.7876V13.9434C57.7876 14.3454 57.8638 14.6353 58.0161 14.813C58.1685 14.9865 58.4224 15.0732 58.7778 15.0732C58.8752 15.0732 58.9577 15.0711 59.0254 15.0669C59.0973 15.0627 59.1841 15.0563 59.2856 15.0479V15.9873C59.1799 16.0042 59.0741 16.019 58.9683 16.0317C58.8625 16.0444 58.7546 16.0508 58.6445 16.0508ZM60.9614 16V9.15723H62.0659V16H60.9614ZM61.52 7.83691C61.3127 7.83691 61.1328 7.76286 60.9805 7.61475C60.8324 7.4624 60.7583 7.28255 60.7583 7.0752C60.7583 6.86361 60.8324 6.68376 60.9805 6.53564C61.1328 6.38753 61.3127 6.31348 61.52 6.31348C61.7316 6.31348 61.9115 6.38753 62.0596 6.53564C62.2077 6.68376 62.2817 6.86361 62.2817 7.0752C62.2817 7.28255 62.2077 7.4624 62.0596 7.61475C61.9115 7.76286 61.7316 7.83691 61.52 7.83691ZM66.96 16.1206C66.3125 16.1206 65.7518 15.9788 65.2778 15.6953C64.8081 15.4076 64.4442 14.9992 64.186 14.4702C63.9321 13.9412 63.8052 13.3128 63.8052 12.585V12.5723C63.8052 11.8402 63.9321 11.2096 64.186 10.6807C64.4442 10.1517 64.8081 9.74544 65.2778 9.46191C65.7518 9.17839 66.3125 9.03662 66.96 9.03662C67.6117 9.03662 68.1724 9.17839 68.6421 9.46191C69.1118 9.74544 69.4736 10.1517 69.7275 10.6807C69.9857 11.2096 70.1147 11.8402 70.1147 12.5723V12.585C70.1147 13.3128 69.9857 13.9412 69.7275 14.4702C69.4736 14.9992 69.1118 15.4076 68.6421 15.6953C68.1724 15.9788 67.6117 16.1206 66.96 16.1206ZM66.96 15.1431C67.3916 15.1431 67.7576 15.0415 68.0581 14.8384C68.3586 14.6353 68.5871 14.3433 68.7437 13.9624C68.9045 13.5815 68.9849 13.1224 68.9849 12.585V12.5723C68.9849 12.0306 68.9045 11.5693 68.7437 11.1885C68.5871 10.8076 68.3586 10.5177 68.0581 10.3188C67.7576 10.1157 67.3916 10.0142 66.96 10.0142C66.5283 10.0142 66.1623 10.1157 65.8618 10.3188C65.5614 10.5177 65.3307 10.8076 65.1699 11.1885C65.0133 11.5693 64.9351 12.0306 64.9351 12.5723V12.585C64.9351 13.1224 65.0133 13.5815 65.1699 13.9624C65.3307 14.3433 65.5614 14.6353 65.8618 14.8384C66.1623 15.0415 66.5283 15.1431 66.96 15.1431ZM71.8286 16V9.15723H72.9331V10.1855H73.0347C73.2082 9.82161 73.4578 9.5402 73.7837 9.34131C74.1095 9.13818 74.5243 9.03662 75.0278 9.03662C75.798 9.03662 76.3883 9.25667 76.7988 9.69678C77.2135 10.1326 77.4209 10.7568 77.4209 11.5693V16H76.3164V11.8359C76.3164 11.2181 76.1852 10.7611 75.9229 10.4648C75.6647 10.1644 75.2627 10.0142 74.7168 10.0142C74.3529 10.0142 74.0376 10.0924 73.771 10.249C73.5044 10.4056 73.297 10.6278 73.1489 10.9155C73.005 11.2033 72.9331 11.5482 72.9331 11.9502V16H71.8286ZM81.769 16.1206C81.2612 16.1206 80.8127 16.0444 80.4233 15.8921C80.034 15.7355 79.7209 15.5176 79.4839 15.2383C79.2511 14.959 79.1136 14.631 79.0713 14.2544H80.2012C80.2943 14.5379 80.4762 14.7664 80.7471 14.9399C81.0179 15.1134 81.3713 15.2002 81.8071 15.2002C82.116 15.2002 82.3869 15.1558 82.6196 15.0669C82.8566 14.9738 83.0428 14.849 83.1782 14.6924C83.3136 14.5316 83.3813 14.3475 83.3813 14.1401V14.1274C83.3813 13.8947 83.2882 13.6979 83.1021 13.5371C82.9159 13.3721 82.6112 13.2388 82.188 13.1372L81.1279 12.8833C80.7005 12.7817 80.3493 12.6506 80.0742 12.4897C79.7992 12.3247 79.596 12.1237 79.4648 11.8867C79.3337 11.6455 79.2681 11.362 79.2681 11.0361V11.0298C79.2681 10.6489 79.3781 10.3083 79.5981 10.0078C79.8224 9.70736 80.1271 9.47038 80.5122 9.29688C80.8973 9.12337 81.3311 9.03662 81.8135 9.03662C82.2917 9.03662 82.7148 9.11279 83.083 9.26514C83.4554 9.41325 83.7537 9.62484 83.978 9.8999C84.2065 10.175 84.3462 10.4987 84.397 10.8711H83.3115C83.2396 10.6003 83.0745 10.3802 82.8164 10.2109C82.5583 10.0417 82.2218 9.95703 81.8071 9.95703C81.5363 9.95703 81.2951 10.0015 81.0835 10.0903C80.8719 10.175 80.7048 10.2935 80.582 10.4458C80.4593 10.5981 80.3979 10.7759 80.3979 10.979V10.9917C80.3979 11.144 80.4382 11.2795 80.5186 11.3979C80.599 11.5164 80.7238 11.6201 80.8931 11.709C81.0623 11.7979 81.2803 11.8761 81.5469 11.9438L82.6006 12.1978C83.2438 12.3543 83.722 12.5786 84.0352 12.8706C84.3525 13.1626 84.5112 13.554 84.5112 14.0449V14.0576C84.5112 14.4639 84.3906 14.8236 84.1494 15.1367C83.9082 15.4456 83.5802 15.6868 83.1655 15.8604C82.755 16.0339 82.2896 16.1206 81.769 16.1206Z" fill="black"/>
</g>
<defs>
<filter id="filter0_dd_520_7431" x="-0.25" y="0.5" width="92.5" height="22.75" filterUnits="userSpaceOnUse" color-interpolation-filters="sRGB">
<feFlood flood-opacity="0" result="BackgroundImageFix"/>
<feColorMatrix in="SourceAlpha" type="matrix" values="0 0 0 0 0 0 0 0 0 0 0 0 0 0 0 0 0 0 127 0" result="hardAlpha"/>
<feOffset dy="1"/>
<feGaussianBlur stdDeviation="0.375"/>
<feColorMatrix type="matrix" values="0 0 0 0 0 0 0 0 0 0 0 0 0 0 0 0 0 0 0.05 0"/>
<feBlend mode="normal" in2="BackgroundImageFix" result="effect1_dropShadow_520_7431"/>
<feColorMatrix in="SourceAlpha" type="matrix" values="0 0 0 0 0 0 0 0 0 0 0 0 0 0 0 0 0 0 127 0" result="hardAlpha"/>
<feOffset dy="0.25"/>
<feGaussianBlur stdDeviation="0.125"/>
<feColorMatrix type="matrix" values="0 0 0 0 0 0 0 0 0 0 0 0 0 0 0 0 0 0 0.15 0"/>
<feBlend mode="normal" in2="effect1_dropShadow_520_7431" result="effect2_dropShadow_520_7431"/>
<feBlend mode="normal" in="SourceGraphic" in2="effect2_dropShadow_520_7431" result="shape"/>
</filter>
</defs>
</svg>
