<svg width="90" height="20" viewBox="0 0 90 20" fill="none" xmlns="http://www.w3.org/2000/svg">
<g style="mix-blend-mode:plus-darker">
<rect y="3" width="1" height="14" rx="0.5" fill="#E8E8E8"/>
</g>
<path d="M9.85156 15V6.86865H6.8999V5.84033H13.9458V6.86865H10.9941V15H9.85156ZM14.6187 15V8.15723H15.7231V9.17285H15.8247C15.9559 8.81315 16.1781 8.53385 16.4912 8.33496C16.8044 8.13607 17.1916 8.03662 17.6528 8.03662C17.7586 8.03662 17.8623 8.04297 17.9639 8.05566C18.0697 8.06413 18.1501 8.07259 18.2051 8.08105V9.15381C18.0908 9.13265 17.9787 9.11784 17.8687 9.10938C17.7629 9.09668 17.6486 9.09033 17.5259 9.09033C17.1746 9.09033 16.8636 9.16016 16.5928 9.2998C16.3219 9.43945 16.1082 9.63411 15.9517 9.88379C15.7993 10.1335 15.7231 10.4255 15.7231 10.7598V15H14.6187ZM21.4487 15.1206C21.0171 15.1206 20.6278 15.0381 20.2808 14.873C19.938 14.708 19.665 14.4731 19.4619 14.1685C19.263 13.8638 19.1636 13.5041 19.1636 13.0894V13.0767C19.1636 12.6704 19.2609 12.3234 19.4556 12.0356C19.6502 11.7437 19.9338 11.5151 20.3062 11.3501C20.6785 11.1851 21.1292 11.0877 21.6582 11.0581L24.1719 10.9058V11.7881L21.7915 11.9404C21.271 11.9701 20.8901 12.078 20.6489 12.2642C20.4119 12.4504 20.2935 12.7127 20.2935 13.0513V13.064C20.2935 13.411 20.4246 13.6818 20.687 13.8765C20.9494 14.0669 21.2795 14.1621 21.6772 14.1621C22.0539 14.1621 22.3882 14.0881 22.6802 13.9399C22.9722 13.7876 23.2007 13.5824 23.3657 13.3242C23.535 13.0661 23.6196 12.7741 23.6196 12.4482V10.3154C23.6196 9.89225 23.4906 9.57064 23.2324 9.35059C22.9785 9.1263 22.5955 9.01416 22.0835 9.01416C21.673 9.01416 21.3366 9.08822 21.0742 9.23633C20.8118 9.38021 20.6362 9.58545 20.5474 9.85205L20.541 9.87109H19.4365L19.4429 9.83301C19.5021 9.47331 19.6502 9.16016 19.8872 8.89355C20.1284 8.62272 20.4395 8.41325 20.8203 8.26514C21.2012 8.11279 21.6349 8.03662 22.1216 8.03662C22.6802 8.03662 23.152 8.1276 23.5371 8.30957C23.9264 8.49154 24.2205 8.75391 24.4194 9.09668C24.6226 9.43522 24.7241 9.84147 24.7241 10.3154V15H23.6196V13.9907H23.5181C23.3742 14.2319 23.1986 14.4372 22.9912 14.6064C22.7881 14.7757 22.5575 14.9048 22.2993 14.9937C22.0412 15.0783 21.7576 15.1206 21.4487 15.1206ZM26.7427 15V8.15723H27.8472V9.18555H27.9487C28.1222 8.82161 28.3719 8.5402 28.6978 8.34131C29.0236 8.13818 29.4383 8.03662 29.9419 8.03662C30.7121 8.03662 31.3024 8.25667 31.7129 8.69678C32.1276 9.13265 32.335 9.75684 32.335 10.5693V15H31.2305V10.8359C31.2305 10.2181 31.0993 9.76107 30.8369 9.46484C30.5788 9.16439 30.1768 9.01416 29.6309 9.01416C29.2669 9.01416 28.9517 9.09245 28.6851 9.24902C28.4185 9.4056 28.2111 9.62777 28.063 9.91553C27.9191 10.2033 27.8472 10.5482 27.8472 10.9502V15H26.7427ZM36.6831 15.1206C36.1753 15.1206 35.7267 15.0444 35.3374 14.8921C34.9481 14.7355 34.6349 14.5176 34.3979 14.2383C34.1652 13.959 34.0277 13.631 33.9854 13.2544H35.1152C35.2083 13.5379 35.3903 13.7664 35.6611 13.9399C35.932 14.1134 36.2853 14.2002 36.7212 14.2002C37.0301 14.2002 37.3009 14.1558 37.5337 14.0669C37.7707 13.9738 37.9569 13.849 38.0923 13.6924C38.2277 13.5316 38.2954 13.3475 38.2954 13.1401V13.1274C38.2954 12.8947 38.2023 12.6979 38.0161 12.5371C37.8299 12.3721 37.5252 12.2388 37.1021 12.1372L36.042 11.8833C35.6146 11.7817 35.2633 11.6506 34.9883 11.4897C34.7132 11.3247 34.5101 11.1237 34.3789 10.8867C34.2477 10.6455 34.1821 10.362 34.1821 10.0361V10.0298C34.1821 9.64893 34.2922 9.30827 34.5122 9.00781C34.7365 8.70736 35.0412 8.47038 35.4263 8.29688C35.8114 8.12337 36.2451 8.03662 36.7275 8.03662C37.2057 8.03662 37.6289 8.11279 37.9971 8.26514C38.3695 8.41325 38.6678 8.62484 38.8921 8.8999C39.1206 9.17497 39.2603 9.4987 39.311 9.87109H38.2256C38.1536 9.60026 37.9886 9.38021 37.7305 9.21094C37.4723 9.04167 37.1359 8.95703 36.7212 8.95703C36.4504 8.95703 36.2091 9.00146 35.9976 9.09033C35.786 9.17497 35.6188 9.29346 35.4961 9.4458C35.3734 9.59814 35.312 9.77588 35.312 9.979V9.9917C35.312 10.144 35.3522 10.2795 35.4326 10.3979C35.513 10.5164 35.6379 10.6201 35.8071 10.709C35.9764 10.7979 36.1943 10.8761 36.4609 10.9438L37.5146 11.1978C38.1579 11.3543 38.6361 11.5786 38.9492 11.8706C39.2666 12.1626 39.4253 12.554 39.4253 13.0449V13.0576C39.4253 13.4639 39.3047 13.8236 39.0635 14.1367C38.8223 14.4456 38.4943 14.6868 38.0796 14.8604C37.6691 15.0339 37.2036 15.1206 36.6831 15.1206ZM43.0181 15.1206C42.5864 15.1206 42.1971 15.0381 41.8501 14.873C41.5073 14.708 41.2344 14.4731 41.0312 14.1685C40.8324 13.8638 40.7329 13.5041 40.7329 13.0894V13.0767C40.7329 12.6704 40.8302 12.3234 41.0249 12.0356C41.2196 11.7437 41.5031 11.5151 41.8755 11.3501C42.2479 11.1851 42.6986 11.0877 43.2275 11.0581L45.7412 10.9058V11.7881L43.3608 11.9404C42.8403 11.9701 42.4595 12.078 42.2183 12.2642C41.9813 12.4504 41.8628 12.7127 41.8628 13.0513V13.064C41.8628 13.411 41.994 13.6818 42.2563 13.8765C42.5187 14.0669 42.8488 14.1621 43.2466 14.1621C43.6232 14.1621 43.9575 14.0881 44.2495 13.9399C44.5415 13.7876 44.77 13.5824 44.9351 13.3242C45.1043 13.0661 45.189 12.7741 45.189 12.4482V10.3154C45.189 9.89225 45.0599 9.57064 44.8018 9.35059C44.5479 9.1263 44.1649 9.01416 43.6528 9.01416C43.2424 9.01416 42.9059 9.08822 42.6436 9.23633C42.3812 9.38021 42.2056 9.58545 42.1167 9.85205L42.1104 9.87109H41.0059L41.0122 9.83301C41.0715 9.47331 41.2196 9.16016 41.4565 8.89355C41.6978 8.62272 42.0088 8.41325 42.3896 8.26514C42.7705 8.11279 43.2043 8.03662 43.6909 8.03662C44.2495 8.03662 44.7214 8.1276 45.1064 8.30957C45.4958 8.49154 45.7899 8.75391 45.9888 9.09668C46.1919 9.43522 46.2935 9.84147 46.2935 10.3154V15H45.189V13.9907H45.0874C44.9435 14.2319 44.7679 14.4372 44.5605 14.6064C44.3574 14.7757 44.1268 14.9048 43.8687 14.9937C43.6105 15.0783 43.327 15.1206 43.0181 15.1206ZM51.1113 15.1206C50.4723 15.1206 49.918 14.9746 49.4482 14.6826C48.9785 14.3906 48.6146 13.978 48.3564 13.4448C48.0983 12.9116 47.9692 12.2832 47.9692 11.5596V11.5469C47.9692 10.8359 48.0962 10.2181 48.3501 9.69336C48.6082 9.16862 48.9722 8.76237 49.4419 8.47461C49.9116 8.18262 50.466 8.03662 51.105 8.03662C51.6593 8.03662 52.1375 8.13395 52.5396 8.32861C52.9416 8.52327 53.2632 8.78564 53.5044 9.11572C53.7456 9.44157 53.9001 9.80762 53.9678 10.2139L53.9741 10.252H52.876L52.8696 10.2329C52.785 9.89437 52.5924 9.60661 52.292 9.36963C51.9915 9.13265 51.5959 9.01416 51.105 9.01416C50.6945 9.01416 50.339 9.11784 50.0386 9.3252C49.7381 9.53255 49.5054 9.82666 49.3403 10.2075C49.1795 10.5841 49.0991 11.0306 49.0991 11.5469V11.5596C49.0991 12.0843 49.1816 12.5413 49.3467 12.9307C49.5117 13.3158 49.7445 13.6141 50.0449 13.8257C50.3454 14.0373 50.6987 14.1431 51.105 14.1431C51.5662 14.1431 51.9429 14.0436 52.2349 13.8447C52.5269 13.6458 52.7363 13.356 52.8633 12.9751L52.876 12.937L53.9678 12.9307L53.9551 13.0005C53.862 13.411 53.6969 13.777 53.46 14.0986C53.223 14.416 52.9098 14.6657 52.5205 14.8477C52.1312 15.0296 51.6615 15.1206 51.1113 15.1206ZM58.1445 15.0508C57.4421 15.0508 56.9321 14.909 56.6147 14.6255C56.3016 14.342 56.145 13.8743 56.145 13.2227V9.07129H55.0659V8.15723H56.145V6.38623H57.2876V8.15723H58.7856V9.07129H57.2876V12.9434C57.2876 13.3454 57.3638 13.6353 57.5161 13.813C57.6685 13.9865 57.9224 14.0732 58.2778 14.0732C58.3752 14.0732 58.4577 14.0711 58.5254 14.0669C58.5973 14.0627 58.6841 14.0563 58.7856 14.0479V14.9873C58.6799 15.0042 58.5741 15.019 58.4683 15.0317C58.3625 15.0444 58.2546 15.0508 58.1445 15.0508ZM60.4614 15V8.15723H61.5659V15H60.4614ZM61.02 6.83691C60.8127 6.83691 60.6328 6.76286 60.4805 6.61475C60.3324 6.4624 60.2583 6.28255 60.2583 6.0752C60.2583 5.86361 60.3324 5.68376 60.4805 5.53564C60.6328 5.38753 60.8127 5.31348 61.02 5.31348C61.2316 5.31348 61.4115 5.38753 61.5596 5.53564C61.7077 5.68376 61.7817 5.86361 61.7817 6.0752C61.7817 6.28255 61.7077 6.4624 61.5596 6.61475C61.4115 6.76286 61.2316 6.83691 61.02 6.83691ZM66.46 15.1206C65.8125 15.1206 65.2518 14.9788 64.7778 14.6953C64.3081 14.4076 63.9442 13.9992 63.686 13.4702C63.4321 12.9412 63.3052 12.3128 63.3052 11.585V11.5723C63.3052 10.8402 63.4321 10.2096 63.686 9.68066C63.9442 9.15169 64.3081 8.74544 64.7778 8.46191C65.2518 8.17839 65.8125 8.03662 66.46 8.03662C67.1117 8.03662 67.6724 8.17839 68.1421 8.46191C68.6118 8.74544 68.9736 9.15169 69.2275 9.68066C69.4857 10.2096 69.6147 10.8402 69.6147 11.5723V11.585C69.6147 12.3128 69.4857 12.9412 69.2275 13.4702C68.9736 13.9992 68.6118 14.4076 68.1421 14.6953C67.6724 14.9788 67.1117 15.1206 66.46 15.1206ZM66.46 14.1431C66.8916 14.1431 67.2576 14.0415 67.5581 13.8384C67.8586 13.6353 68.0871 13.3433 68.2437 12.9624C68.4045 12.5815 68.4849 12.1224 68.4849 11.585V11.5723C68.4849 11.0306 68.4045 10.5693 68.2437 10.1885C68.0871 9.80762 67.8586 9.51774 67.5581 9.31885C67.2576 9.11572 66.8916 9.01416 66.46 9.01416C66.0283 9.01416 65.6623 9.11572 65.3618 9.31885C65.0614 9.51774 64.8307 9.80762 64.6699 10.1885C64.5133 10.5693 64.4351 11.0306 64.4351 11.5723V11.585C64.4351 12.1224 64.5133 12.5815 64.6699 12.9624C64.8307 13.3433 65.0614 13.6353 65.3618 13.8384C65.6623 14.0415 66.0283 14.1431 66.46 14.1431ZM71.3286 15V8.15723H72.4331V9.18555H72.5347C72.7082 8.82161 72.9578 8.5402 73.2837 8.34131C73.6095 8.13818 74.0243 8.03662 74.5278 8.03662C75.298 8.03662 75.8883 8.25667 76.2988 8.69678C76.7135 9.13265 76.9209 9.75684 76.9209 10.5693V15H75.8164V10.8359C75.8164 10.2181 75.6852 9.76107 75.4229 9.46484C75.1647 9.16439 74.7627 9.01416 74.2168 9.01416C73.8529 9.01416 73.5376 9.09245 73.271 9.24902C73.0044 9.4056 72.797 9.62777 72.6489 9.91553C72.505 10.2033 72.4331 10.5482 72.4331 10.9502V15H71.3286ZM81.269 15.1206C80.7612 15.1206 80.3127 15.0444 79.9233 14.8921C79.534 14.7355 79.2209 14.5176 78.9839 14.2383C78.7511 13.959 78.6136 13.631 78.5713 13.2544H79.7012C79.7943 13.5379 79.9762 13.7664 80.2471 13.9399C80.5179 14.1134 80.8713 14.2002 81.3071 14.2002C81.616 14.2002 81.8869 14.1558 82.1196 14.0669C82.3566 13.9738 82.5428 13.849 82.6782 13.6924C82.8136 13.5316 82.8813 13.3475 82.8813 13.1401V13.1274C82.8813 12.8947 82.7882 12.6979 82.6021 12.5371C82.4159 12.3721 82.1112 12.2388 81.688 12.1372L80.6279 11.8833C80.2005 11.7817 79.8493 11.6506 79.5742 11.4897C79.2992 11.3247 79.096 11.1237 78.9648 10.8867C78.8337 10.6455 78.7681 10.362 78.7681 10.0361V10.0298C78.7681 9.64893 78.8781 9.30827 79.0981 9.00781C79.3224 8.70736 79.6271 8.47038 80.0122 8.29688C80.3973 8.12337 80.8311 8.03662 81.3135 8.03662C81.7917 8.03662 82.2148 8.11279 82.583 8.26514C82.9554 8.41325 83.2537 8.62484 83.478 8.8999C83.7065 9.17497 83.8462 9.4987 83.897 9.87109H82.8115C82.7396 9.60026 82.5745 9.38021 82.3164 9.21094C82.0583 9.04167 81.7218 8.95703 81.3071 8.95703C81.0363 8.95703 80.7951 9.00146 80.5835 9.09033C80.3719 9.17497 80.2048 9.29346 80.082 9.4458C79.9593 9.59814 79.8979 9.77588 79.8979 9.979V9.9917C79.8979 10.144 79.9382 10.2795 80.0186 10.3979C80.099 10.5164 80.2238 10.6201 80.3931 10.709C80.5623 10.7979 80.7803 10.8761 81.0469 10.9438L82.1006 11.1978C82.7438 11.3543 83.222 11.5786 83.5352 11.8706C83.8525 12.1626 84.0112 12.554 84.0112 13.0449V13.0576C84.0112 13.4639 83.8906 13.8236 83.6494 14.1367C83.4082 14.4456 83.0802 14.6868 82.6655 14.8604C82.255 15.0339 81.7896 15.1206 81.269 15.1206Z" fill="black"/>
</svg>
