<svg width="93" height="22" viewBox="0 0 93 22" fill="none" xmlns="http://www.w3.org/2000/svg">
<g filter="url(#filter0_dd_520_7431)">
<rect x="1" y="1" width="90" height="20" rx="5" fill="white"/>
<rect x="0.75" y="0.75" width="90.5" height="20.5" rx="5.25" stroke="black" stroke-opacity="0.02" stroke-width="0.5"/>
<path d="M14.084 16V6.84033H19.7588V7.86865H15.2266V10.8076H19.5239V11.8232H15.2266V14.9717H19.7588V16H14.084ZM21.6885 16V9.15723H22.793V10.1982H22.8945C23.0469 9.83008 23.2796 9.54443 23.5928 9.34131C23.9102 9.13818 24.2931 9.03662 24.7417 9.03662C25.0506 9.03662 25.3278 9.0874 25.5732 9.18896C25.8187 9.29053 26.0303 9.43229 26.208 9.61426C26.3857 9.79199 26.5275 9.99935 26.6333 10.2363H26.7349C26.8576 9.99512 27.0226 9.78564 27.23 9.60791C27.4373 9.42594 27.6764 9.2863 27.9473 9.18896C28.2223 9.0874 28.5164 9.03662 28.8296 9.03662C29.2951 9.03662 29.6886 9.12337 30.0103 9.29688C30.3361 9.47038 30.5837 9.72428 30.7529 10.0586C30.9222 10.3887 31.0068 10.7928 31.0068 11.271V16H29.9023V11.5249C29.9023 11.1864 29.8494 10.9071 29.7437 10.687C29.6421 10.4627 29.4855 10.2956 29.2739 10.1855C29.0623 10.0713 28.7957 10.0142 28.4741 10.0142C28.1567 10.0142 27.8796 10.0861 27.6426 10.23C27.4056 10.3739 27.2215 10.5664 27.0903 10.8076C26.9591 11.0446 26.8936 11.3091 26.8936 11.6011V16H25.7891V11.3535C25.7891 11.0827 25.7298 10.8478 25.6113 10.6489C25.4971 10.4458 25.332 10.2892 25.1162 10.1792C24.9046 10.0692 24.6549 10.0142 24.3672 10.0142C24.071 10.0142 23.8022 10.0924 23.561 10.249C23.3241 10.4056 23.1357 10.6172 22.9961 10.8838C22.8607 11.1462 22.793 11.4382 22.793 11.7598V16H21.6885ZM33 18.2852V9.15723H34.1045V10.249H34.2061C34.3457 9.99512 34.5213 9.7793 34.7329 9.60156C34.9445 9.4196 35.1857 9.27995 35.4565 9.18262C35.7274 9.08529 36.0215 9.03662 36.3389 9.03662C36.9186 9.03662 37.4222 9.18473 37.8496 9.48096C38.2812 9.77295 38.6156 10.1834 38.8525 10.7124C39.0895 11.2414 39.208 11.8613 39.208 12.5723V12.585C39.208 13.3001 39.0895 13.9222 38.8525 14.4512C38.6156 14.9801 38.2812 15.3906 37.8496 15.6826C37.4222 15.9746 36.9186 16.1206 36.3389 16.1206C36.0257 16.1206 35.7295 16.0719 35.4502 15.9746C35.1751 15.873 34.9297 15.7334 34.7139 15.5557C34.5023 15.3779 34.333 15.1663 34.2061 14.9209H34.1045V18.2852H33ZM36.085 15.1431C36.5039 15.1431 36.8615 15.0415 37.1577 14.8384C37.4539 14.631 37.6803 14.3369 37.8369 13.9561C37.9977 13.571 38.0781 13.1139 38.0781 12.585V12.5723C38.0781 12.0391 37.9977 11.582 37.8369 11.2012C37.6803 10.8203 37.4539 10.5283 37.1577 10.3252C36.8615 10.1178 36.5039 10.0142 36.085 10.0142C35.6702 10.0142 35.3127 10.1178 35.0122 10.3252C34.7118 10.5326 34.4811 10.8267 34.3203 11.2075C34.1595 11.5884 34.0791 12.0433 34.0791 12.5723V12.585C34.0791 13.1097 34.1595 13.5646 34.3203 13.9497C34.4811 14.3306 34.7118 14.6247 35.0122 14.832C35.3127 15.0394 35.6702 15.1431 36.085 15.1431ZM40.998 16V6.44043H42.1025V16H40.998ZM47.0347 16.1206C46.3872 16.1206 45.8265 15.9788 45.3525 15.6953C44.8828 15.4076 44.5189 14.9992 44.2607 14.4702C44.0068 13.9412 43.8799 13.3128 43.8799 12.585V12.5723C43.8799 11.8402 44.0068 11.2096 44.2607 10.6807C44.5189 10.1517 44.8828 9.74544 45.3525 9.46191C45.8265 9.17839 46.3872 9.03662 47.0347 9.03662C47.6864 9.03662 48.2471 9.17839 48.7168 9.46191C49.1865 9.74544 49.5483 10.1517 49.8022 10.6807C50.0604 11.2096 50.1895 11.8402 50.1895 12.5723V12.585C50.1895 13.3128 50.0604 13.9412 49.8022 14.4702C49.5483 14.9992 49.1865 15.4076 48.7168 15.6953C48.2471 15.9788 47.6864 16.1206 47.0347 16.1206ZM47.0347 15.1431C47.4663 15.1431 47.8324 15.0415 48.1328 14.8384C48.4333 14.6353 48.6618 14.3433 48.8184 13.9624C48.9792 13.5815 49.0596 13.1224 49.0596 12.585V12.5723C49.0596 12.0306 48.9792 11.5693 48.8184 11.1885C48.6618 10.8076 48.4333 10.5177 48.1328 10.3188C47.8324 10.1157 47.4663 10.0142 47.0347 10.0142C46.603 10.0142 46.237 10.1157 45.9365 10.3188C45.6361 10.5177 45.4054 10.8076 45.2446 11.1885C45.0881 11.5693 45.0098 12.0306 45.0098 12.5723V12.585C45.0098 13.1224 45.0881 13.5815 45.2446 13.9624C45.4054 14.3433 45.6361 14.6353 45.9365 14.8384C46.237 15.0415 46.603 15.1431 47.0347 15.1431ZM52.2334 18.3994C52.1615 18.3994 52.0811 18.3952 51.9922 18.3867C51.9033 18.3825 51.8208 18.374 51.7446 18.3613V17.4536C51.8123 17.4663 51.8864 17.4748 51.9668 17.479C52.0472 17.4832 52.1255 17.4854 52.2017 17.4854C52.5148 17.4854 52.7708 17.4049 52.9697 17.2441C53.1729 17.0833 53.3358 16.8062 53.4585 16.4126L53.5854 16.0063L51.0527 9.15723H52.2334L54.3408 15.4795L53.9028 14.7876H54.4233L53.9854 15.4795L56.0864 9.15723H57.248L54.5757 16.4189C54.3895 16.931 54.1927 17.3309 53.9854 17.6187C53.778 17.9064 53.5347 18.1074 53.2554 18.2217C52.9803 18.3402 52.6396 18.3994 52.2334 18.3994ZM61.2471 16.1206C60.5954 16.1206 60.0347 15.9767 59.5649 15.689C59.0994 15.4012 58.7397 14.995 58.4858 14.4702C58.2362 13.9412 58.1113 13.3192 58.1113 12.604V12.5977C58.1113 11.891 58.2362 11.271 58.4858 10.7378C58.7397 10.2046 59.0973 9.78776 59.5586 9.4873C60.0199 9.18685 60.5594 9.03662 61.1772 9.03662C61.7993 9.03662 62.3325 9.1805 62.7769 9.46826C63.2254 9.75602 63.5682 10.158 63.8052 10.6743C64.0464 11.1864 64.167 11.783 64.167 12.4644V12.896H58.6826V12.0137H63.6021L63.0562 12.8198V12.3818C63.0562 11.8444 62.9757 11.4022 62.8149 11.0552C62.6541 10.7082 62.432 10.45 62.1484 10.2808C61.8649 10.1073 61.5391 10.0205 61.1709 10.0205C60.8027 10.0205 60.4727 10.1115 60.1807 10.2935C59.8929 10.4712 59.6644 10.7357 59.4951 11.0869C59.3258 11.4382 59.2412 11.8698 59.2412 12.3818V12.8198C59.2412 13.3065 59.3237 13.7233 59.4888 14.0703C59.6538 14.4131 59.8887 14.6776 60.1934 14.8638C60.498 15.0457 60.8577 15.1367 61.2725 15.1367C61.5814 15.1367 61.8501 15.0944 62.0786 15.0098C62.3071 14.9251 62.4954 14.8172 62.6436 14.686C62.7917 14.5549 62.8953 14.4215 62.9546 14.2861L62.98 14.229H64.0845L64.0718 14.2798C64.0125 14.5125 63.9067 14.7389 63.7544 14.959C63.6063 15.1748 63.4137 15.3716 63.1768 15.5493C62.9398 15.7228 62.6584 15.8625 62.3325 15.9683C62.0109 16.0698 61.6491 16.1206 61.2471 16.1206ZM68.6738 16.1206C68.0221 16.1206 67.4614 15.9767 66.9917 15.689C66.5262 15.4012 66.1665 14.995 65.9126 14.4702C65.6629 13.9412 65.5381 13.3192 65.5381 12.604V12.5977C65.5381 11.891 65.6629 11.271 65.9126 10.7378C66.1665 10.2046 66.5241 9.78776 66.9854 9.4873C67.4466 9.18685 67.9862 9.03662 68.604 9.03662C69.2261 9.03662 69.7593 9.1805 70.2036 9.46826C70.6522 9.75602 70.995 10.158 71.2319 10.6743C71.4731 11.1864 71.5938 11.783 71.5938 12.4644V12.896H66.1094V12.0137H71.0288L70.4829 12.8198V12.3818C70.4829 11.8444 70.4025 11.4022 70.2417 11.0552C70.0809 10.7082 69.8587 10.45 69.5752 10.2808C69.2917 10.1073 68.9658 10.0205 68.5977 10.0205C68.2295 10.0205 67.8994 10.1115 67.6074 10.2935C67.3197 10.4712 67.0911 10.7357 66.9219 11.0869C66.7526 11.4382 66.668 11.8698 66.668 12.3818V12.8198C66.668 13.3065 66.7505 13.7233 66.9155 14.0703C67.0806 14.4131 67.3154 14.6776 67.6201 14.8638C67.9248 15.0457 68.2845 15.1367 68.6992 15.1367C69.0081 15.1367 69.2769 15.0944 69.5054 15.0098C69.7339 14.9251 69.9222 14.8172 70.0703 14.686C70.2184 14.5549 70.3221 14.4215 70.3813 14.2861L70.4067 14.229H71.5112L71.4985 14.2798C71.4393 14.5125 71.3335 14.7389 71.1812 14.959C71.033 15.1748 70.8405 15.3716 70.6035 15.5493C70.3665 15.7228 70.0851 15.8625 69.7593 15.9683C69.4377 16.0698 69.0758 16.1206 68.6738 16.1206ZM75.6562 16.1206C75.1484 16.1206 74.6999 16.0444 74.3105 15.8921C73.9212 15.7355 73.6081 15.5176 73.3711 15.2383C73.1383 14.959 73.0008 14.631 72.9585 14.2544H74.0884C74.1815 14.5379 74.3634 14.7664 74.6343 14.9399C74.9051 15.1134 75.2585 15.2002 75.6943 15.2002C76.0033 15.2002 76.2741 15.1558 76.5068 15.0669C76.7438 14.9738 76.93 14.849 77.0654 14.6924C77.2008 14.5316 77.2686 14.3475 77.2686 14.1401V14.1274C77.2686 13.8947 77.1755 13.6979 76.9893 13.5371C76.8031 13.3721 76.4984 13.2388 76.0752 13.1372L75.0151 12.8833C74.5877 12.7817 74.2365 12.6506 73.9614 12.4897C73.6864 12.3247 73.4832 12.1237 73.3521 11.8867C73.2209 11.6455 73.1553 11.362 73.1553 11.0361V11.0298C73.1553 10.6489 73.2653 10.3083 73.4854 10.0078C73.7096 9.70736 74.0143 9.47038 74.3994 9.29688C74.7845 9.12337 75.2183 9.03662 75.7007 9.03662C76.1789 9.03662 76.6021 9.11279 76.9702 9.26514C77.3426 9.41325 77.641 9.62484 77.8652 9.8999C78.0938 10.175 78.2334 10.4987 78.2842 10.8711H77.1987C77.1268 10.6003 76.9618 10.3802 76.7036 10.2109C76.4455 10.0417 76.109 9.95703 75.6943 9.95703C75.4235 9.95703 75.1823 10.0015 74.9707 10.0903C74.7591 10.175 74.592 10.2935 74.4692 10.4458C74.3465 10.5981 74.2852 10.7759 74.2852 10.979V10.9917C74.2852 11.144 74.3254 11.2795 74.4058 11.3979C74.4862 11.5164 74.611 11.6201 74.7803 11.709C74.9495 11.7979 75.1675 11.8761 75.4341 11.9438L76.4878 12.1978C77.131 12.3543 77.6092 12.5786 77.9224 12.8706C78.2397 13.1626 78.3984 13.554 78.3984 14.0449V14.0576C78.3984 14.4639 78.2778 14.8236 78.0366 15.1367C77.7954 15.4456 77.4674 15.6868 77.0527 15.8604C76.6423 16.0339 76.1768 16.1206 75.6562 16.1206Z" fill="black"/>
</g>
<defs>
<filter id="filter0_dd_520_7431" x="-0.25" y="0.5" width="92.5" height="22.75" filterUnits="userSpaceOnUse" color-interpolation-filters="sRGB">
<feFlood flood-opacity="0" result="BackgroundImageFix"/>
<feColorMatrix in="SourceAlpha" type="matrix" values="0 0 0 0 0 0 0 0 0 0 0 0 0 0 0 0 0 0 127 0" result="hardAlpha"/>
<feOffset dy="1"/>
<feGaussianBlur stdDeviation="0.375"/>
<feColorMatrix type="matrix" values="0 0 0 0 0 0 0 0 0 0 0 0 0 0 0 0 0 0 0.05 0"/>
<feBlend mode="normal" in2="BackgroundImageFix" result="effect1_dropShadow_520_7431"/>
<feColorMatrix in="SourceAlpha" type="matrix" values="0 0 0 0 0 0 0 0 0 0 0 0 0 0 0 0 0 0 127 0" result="hardAlpha"/>
<feOffset dy="0.25"/>
<feGaussianBlur stdDeviation="0.125"/>
<feColorMatrix type="matrix" values="0 0 0 0 0 0 0 0 0 0 0 0 0 0 0 0 0 0 0.15 0"/>
<feBlend mode="normal" in2="effect1_dropShadow_520_7431" result="effect2_dropShadow_520_7431"/>
<feBlend mode="normal" in="SourceGraphic" in2="effect2_dropShadow_520_7431" result="shape"/>
</filter>
</defs>
</svg>
