<svg width="90" height="20" viewBox="0 0 90 20" fill="none" xmlns="http://www.w3.org/2000/svg">
<g style="mix-blend-mode:plus-darker">
<rect x="1" y="3" width="1" height="14" rx="0.5" fill="#E8E8E8"/>
</g>
<path d="M31.8018 15V6.86865H28.8501V5.84033H35.896V6.86865H32.9443V15H31.8018ZM38.0669 15.1206C37.6353 15.1206 37.2459 15.0381 36.8989 14.873C36.5562 14.708 36.2832 14.4731 36.0801 14.1685C35.8812 13.8638 35.7817 13.5041 35.7817 13.0894V13.0767C35.7817 12.6704 35.8791 12.3234 36.0737 12.0356C36.2684 11.7437 36.5519 11.5151 36.9243 11.3501C37.2967 11.1851 37.7474 11.0877 38.2764 11.0581L40.79 10.9058V11.7881L38.4097 11.9404C37.8892 11.9701 37.5083 12.078 37.2671 12.2642C37.0301 12.4504 36.9116 12.7127 36.9116 13.0513V13.064C36.9116 13.411 37.0428 13.6818 37.3052 13.8765C37.5675 14.0669 37.8976 14.1621 38.2954 14.1621C38.672 14.1621 39.0063 14.0881 39.2983 13.9399C39.5903 13.7876 39.8188 13.5824 39.9839 13.3242C40.1532 13.0661 40.2378 12.7741 40.2378 12.4482V10.3154C40.2378 9.89225 40.1087 9.57064 39.8506 9.35059C39.5967 9.1263 39.2137 9.01416 38.7017 9.01416C38.2912 9.01416 37.9548 9.08822 37.6924 9.23633C37.43 9.38021 37.2544 9.58545 37.1655 9.85205L37.1592 9.87109H36.0547L36.061 9.83301C36.1203 9.47331 36.2684 9.16016 36.5054 8.89355C36.7466 8.62272 37.0576 8.41325 37.4385 8.26514C37.8193 8.11279 38.2531 8.03662 38.7397 8.03662C39.2983 8.03662 39.7702 8.1276 40.1553 8.30957C40.5446 8.49154 40.8387 8.75391 41.0376 9.09668C41.2407 9.43522 41.3423 9.84147 41.3423 10.3154V15H40.2378V13.9907H40.1362C39.9924 14.2319 39.8167 14.4372 39.6094 14.6064C39.4062 14.7757 39.1756 14.9048 38.9175 14.9937C38.6593 15.0783 38.3758 15.1206 38.0669 15.1206ZM45.7095 15.1206C45.2017 15.1206 44.7531 15.0444 44.3638 14.8921C43.9744 14.7355 43.6613 14.5176 43.4243 14.2383C43.1916 13.959 43.054 13.631 43.0117 13.2544H44.1416C44.2347 13.5379 44.4167 13.7664 44.6875 13.9399C44.9583 14.1134 45.3117 14.2002 45.7476 14.2002C46.0565 14.2002 46.3273 14.1558 46.5601 14.0669C46.797 13.9738 46.9832 13.849 47.1187 13.6924C47.2541 13.5316 47.3218 13.3475 47.3218 13.1401V13.1274C47.3218 12.8947 47.2287 12.6979 47.0425 12.5371C46.8563 12.3721 46.5516 12.2388 46.1284 12.1372L45.0684 11.8833C44.641 11.7817 44.2897 11.6506 44.0146 11.4897C43.7396 11.3247 43.5365 11.1237 43.4053 10.8867C43.2741 10.6455 43.2085 10.362 43.2085 10.0361V10.0298C43.2085 9.64893 43.3185 9.30827 43.5386 9.00781C43.7629 8.70736 44.0675 8.47038 44.4526 8.29688C44.8377 8.12337 45.2715 8.03662 45.7539 8.03662C46.2321 8.03662 46.6553 8.11279 47.0234 8.26514C47.3958 8.41325 47.6942 8.62484 47.9185 8.8999C48.147 9.17497 48.2866 9.4987 48.3374 9.87109H47.252C47.18 9.60026 47.015 9.38021 46.7568 9.21094C46.4987 9.04167 46.1623 8.95703 45.7476 8.95703C45.4767 8.95703 45.2355 9.00146 45.0239 9.09033C44.8123 9.17497 44.6452 9.29346 44.5225 9.4458C44.3997 9.59814 44.3384 9.77588 44.3384 9.979V9.9917C44.3384 10.144 44.3786 10.2795 44.459 10.3979C44.5394 10.5164 44.6642 10.6201 44.8335 10.709C45.0028 10.7979 45.2207 10.8761 45.4873 10.9438L46.541 11.1978C47.1842 11.3543 47.6624 11.5786 47.9756 11.8706C48.293 12.1626 48.4517 12.554 48.4517 13.0449V13.0576C48.4517 13.4639 48.3311 13.8236 48.0898 14.1367C47.8486 14.4456 47.5207 14.6868 47.106 14.8604C46.6955 15.0339 46.23 15.1206 45.7095 15.1206ZM50.229 15V5.44043H51.3335V15H50.229ZM54.5391 15L51.8667 11.6484L52.6792 10.9438L55.9292 15H54.5391ZM51.1938 12.5371L51.1431 11.147H51.4351L54.3931 8.15723H55.7324L52.4824 11.293L52.2158 11.5532L51.1938 12.5371ZM59.3188 15.1206C58.811 15.1206 58.3625 15.0444 57.9731 14.8921C57.5838 14.7355 57.2707 14.5176 57.0337 14.2383C56.8009 13.959 56.6634 13.631 56.6211 13.2544H57.751C57.8441 13.5379 58.026 13.7664 58.2969 13.9399C58.5677 14.1134 58.9211 14.2002 59.3569 14.2002C59.6659 14.2002 59.9367 14.1558 60.1694 14.0669C60.4064 13.9738 60.5926 13.849 60.728 13.6924C60.8634 13.5316 60.9312 13.3475 60.9312 13.1401V13.1274C60.9312 12.8947 60.8381 12.6979 60.6519 12.5371C60.4657 12.3721 60.161 12.2388 59.7378 12.1372L58.6777 11.8833C58.2503 11.7817 57.8991 11.6506 57.624 11.4897C57.349 11.3247 57.1458 11.1237 57.0146 10.8867C56.8835 10.6455 56.8179 10.362 56.8179 10.0361V10.0298C56.8179 9.64893 56.9279 9.30827 57.1479 9.00781C57.3722 8.70736 57.6769 8.47038 58.062 8.29688C58.4471 8.12337 58.8809 8.03662 59.3633 8.03662C59.8415 8.03662 60.2646 8.11279 60.6328 8.26514C61.0052 8.41325 61.3035 8.62484 61.5278 8.8999C61.7563 9.17497 61.896 9.4987 61.9468 9.87109H60.8613C60.7894 9.60026 60.6243 9.38021 60.3662 9.21094C60.1081 9.04167 59.7716 8.95703 59.3569 8.95703C59.0861 8.95703 58.8449 9.00146 58.6333 9.09033C58.4217 9.17497 58.2546 9.29346 58.1318 9.4458C58.0091 9.59814 57.9478 9.77588 57.9478 9.979V9.9917C57.9478 10.144 57.988 10.2795 58.0684 10.3979C58.1488 10.5164 58.2736 10.6201 58.4429 10.709C58.6121 10.7979 58.8301 10.8761 59.0967 10.9438L60.1504 11.1978C60.7936 11.3543 61.2718 11.5786 61.585 11.8706C61.9023 12.1626 62.061 12.554 62.061 13.0449V13.0576C62.061 13.4639 61.9404 13.8236 61.6992 14.1367C61.458 14.4456 61.13 14.6868 60.7153 14.8604C60.3049 15.0339 59.8394 15.1206 59.3188 15.1206Z" fill="black"/>
</svg>
