<svg width="90" height="20" viewBox="0 0 90 20" fill="none" xmlns="http://www.w3.org/2000/svg">
<path d="M6.66878 15V5.84033H12.2293V6.86865H7.81136V10.0171H11.8675V11.0327H7.81136V15H6.66878ZM13.994 15V8.15723H15.0985V15H13.994ZM14.5526 6.83691C14.3452 6.83691 14.1654 6.76286 14.013 6.61475C13.8649 6.4624 13.7908 6.28255 13.7908 6.0752C13.7908 5.86361 13.8649 5.68376 14.013 5.53564C14.1654 5.38753 14.3452 5.31348 14.5526 5.31348C14.7642 5.31348 14.944 5.38753 15.0921 5.53564C15.2402 5.68376 15.3143 5.86361 15.3143 6.0752C15.3143 6.28255 15.2402 6.4624 15.0921 6.61475C14.944 6.76286 14.7642 6.83691 14.5526 6.83691ZM19.9735 15.1206C19.3218 15.1206 18.7611 14.9767 18.2913 14.689C17.8258 14.4012 17.4661 13.995 17.2122 13.4702C16.9626 12.9412 16.8377 12.3192 16.8377 11.604V11.5977C16.8377 10.891 16.9626 10.271 17.2122 9.73779C17.4661 9.20459 17.8237 8.78776 18.285 8.4873C18.7463 8.18685 19.2858 8.03662 19.9036 8.03662C20.5257 8.03662 21.0589 8.1805 21.5033 8.46826C21.9518 8.75602 22.2946 9.15804 22.5316 9.67432C22.7728 10.1864 22.8934 10.783 22.8934 11.4644V11.896H17.409V11.0137H22.3284L21.7825 11.8198V11.3818C21.7825 10.8444 21.7021 10.4022 21.5413 10.0552C21.3805 9.70817 21.1584 9.45003 20.8748 9.28076C20.5913 9.10726 20.2655 9.02051 19.8973 9.02051C19.5291 9.02051 19.1991 9.11149 18.9071 9.29346C18.6193 9.47119 18.3908 9.73568 18.2215 10.0869C18.0522 10.4382 17.9676 10.8698 17.9676 11.3818V11.8198C17.9676 12.3065 18.0501 12.7233 18.2152 13.0703C18.3802 13.4131 18.6151 13.6776 18.9198 13.8638C19.2244 14.0457 19.5841 14.1367 19.9989 14.1367C20.3078 14.1367 20.5765 14.0944 20.805 14.0098C21.0335 13.9251 21.2218 13.8172 21.3699 13.686C21.5181 13.5549 21.6217 13.4215 21.681 13.2861L21.7064 13.229H22.8109L22.7982 13.2798C22.7389 13.5125 22.6331 13.7389 22.4808 13.959C22.3327 14.1748 22.1401 14.3716 21.9032 14.5493C21.6662 14.7228 21.3848 14.8625 21.0589 14.9683C20.7373 15.0698 20.3755 15.1206 19.9735 15.1206ZM24.6707 15V5.44043H25.7752V15H24.6707ZM30.4217 15.1206C29.8462 15.1206 29.3426 14.9746 28.911 14.6826C28.4793 14.3906 28.145 13.9801 27.908 13.4512C27.6711 12.918 27.5526 12.2959 27.5526 11.585V11.5723C27.5526 10.8571 27.6711 10.235 27.908 9.70605C28.145 9.17708 28.4772 8.7666 28.9046 8.47461C29.3363 8.18262 29.842 8.03662 30.4217 8.03662C30.7349 8.03662 31.029 8.0874 31.304 8.18896C31.5833 8.2863 31.8309 8.42383 32.0467 8.60156C32.2625 8.7793 32.4318 8.99089 32.5545 9.23633H32.6561V5.44043H33.7606V15H32.6561V13.9082H32.5545C32.4149 14.1621 32.2393 14.38 32.0277 14.562C31.8161 14.7397 31.5749 14.8773 31.304 14.9746C31.0332 15.0719 30.7391 15.1206 30.4217 15.1206ZM30.6756 14.1431C31.0903 14.1431 31.4479 14.0394 31.7484 13.832C32.0488 13.6247 32.2795 13.3306 32.4403 12.9497C32.6011 12.5646 32.6815 12.1097 32.6815 11.585V11.5723C32.6815 11.0433 32.6011 10.5884 32.4403 10.2075C32.2795 9.82666 32.0488 9.53255 31.7484 9.3252C31.4479 9.11784 31.0903 9.01416 30.6756 9.01416C30.2609 9.01416 29.9033 9.11784 29.6029 9.3252C29.3066 9.52832 29.0781 9.82031 28.9173 10.2012C28.7607 10.582 28.6824 11.0391 28.6824 11.5723V11.585C28.6824 12.1139 28.7607 12.571 28.9173 12.9561C29.0781 13.3369 29.3066 13.631 29.6029 13.8384C29.9033 14.0415 30.2609 14.1431 30.6756 14.1431ZM39.6766 15V5.84033H41.0033L44.139 13.4829H44.2406L47.3763 5.84033H48.703V15H47.6366V8.00488H47.078L48.3602 6.09424L44.6722 15H43.7074L40.0257 6.09424L41.3016 8.00488H40.743V15H39.6766ZM53.6922 15.1206C53.0405 15.1206 52.4798 14.9767 52.0101 14.689C51.5446 14.4012 51.1849 13.995 50.931 13.4702C50.6813 12.9412 50.5565 12.3192 50.5565 11.604V11.5977C50.5565 10.891 50.6813 10.271 50.931 9.73779C51.1849 9.20459 51.5425 8.78776 52.0037 8.4873C52.465 8.18685 53.0046 8.03662 53.6224 8.03662C54.2445 8.03662 54.7777 8.1805 55.222 8.46826C55.6706 8.75602 56.0133 9.15804 56.2503 9.67432C56.4915 10.1864 56.6121 10.783 56.6121 11.4644V11.896H51.1278V11.0137H56.0472L55.5013 11.8198V11.3818C55.5013 10.8444 55.4209 10.4022 55.2601 10.0552C55.0993 9.70817 54.8771 9.45003 54.5936 9.28076C54.3101 9.10726 53.9842 9.02051 53.616 9.02051C53.2479 9.02051 52.9178 9.11149 52.6258 9.29346C52.338 9.47119 52.1095 9.73568 51.9403 10.0869C51.771 10.4382 51.6864 10.8698 51.6864 11.3818V11.8198C51.6864 12.3065 51.7689 12.7233 51.9339 13.0703C52.099 13.4131 52.3338 13.6776 52.6385 13.8638C52.9432 14.0457 53.3029 14.1367 53.7176 14.1367C54.0265 14.1367 54.2952 14.0944 54.5238 14.0098C54.7523 13.9251 54.9406 13.8172 55.0887 13.686C55.2368 13.5549 55.3405 13.4215 55.3997 13.2861L55.4251 13.229H56.5296L56.5169 13.2798C56.4577 13.5125 56.3519 13.7389 56.1995 13.959C56.0514 14.1748 55.8589 14.3716 55.6219 14.5493C55.3849 14.7228 55.1035 14.8625 54.7777 14.9683C54.456 15.0698 54.0942 15.1206 53.6922 15.1206ZM60.7572 15.0508C60.0547 15.0508 59.5448 14.909 59.2274 14.6255C58.9142 14.342 58.7576 13.8743 58.7576 13.2227V9.07129H57.6785V8.15723H58.7576V6.38623H59.9002V8.15723H61.3983V9.07129H59.9002V12.9434C59.9002 13.3454 59.9764 13.6353 60.1287 13.813C60.2811 13.9865 60.535 14.0732 60.8905 14.0732C60.9878 14.0732 61.0703 14.0711 61.138 14.0669C61.21 14.0627 61.2967 14.0563 61.3983 14.0479V14.9873C61.2925 15.0042 61.1867 15.019 61.0809 15.0317C60.9751 15.0444 60.8672 15.0508 60.7572 15.0508ZM63.0487 15V8.15723H64.1532V9.17285H64.2547C64.3859 8.81315 64.6081 8.53385 64.9212 8.33496C65.2344 8.13607 65.6216 8.03662 66.0828 8.03662C66.1886 8.03662 66.2923 8.04297 66.3939 8.05566C66.4997 8.06413 66.5801 8.07259 66.6351 8.08105V9.15381C66.5208 9.13265 66.4087 9.11784 66.2987 9.10938C66.1929 9.09668 66.0786 9.09033 65.9559 9.09033C65.6046 9.09033 65.2936 9.16016 65.0228 9.2998C64.7519 9.43945 64.5382 9.63411 64.3817 9.88379C64.2293 10.1335 64.1532 10.4255 64.1532 10.7598V15H63.0487ZM68.0252 15V8.15723H69.1297V15H68.0252ZM68.5838 6.83691C68.3765 6.83691 68.1966 6.76286 68.0443 6.61475C67.8962 6.4624 67.8221 6.28255 67.8221 6.0752C67.8221 5.86361 67.8962 5.68376 68.0443 5.53564C68.1966 5.38753 68.3765 5.31348 68.5838 5.31348C68.7954 5.31348 68.9753 5.38753 69.1234 5.53564C69.2715 5.68376 69.3455 5.86361 69.3455 6.0752C69.3455 6.28255 69.2715 6.4624 69.1234 6.61475C68.9753 6.76286 68.7954 6.83691 68.5838 6.83691ZM74.0111 15.1206C73.3721 15.1206 72.8177 14.9746 72.348 14.6826C71.8783 14.3906 71.5143 13.978 71.2562 13.4448C70.998 12.9116 70.869 12.2832 70.869 11.5596V11.5469C70.869 10.8359 70.9959 10.2181 71.2498 9.69336C71.508 9.16862 71.8719 8.76237 72.3416 8.47461C72.8114 8.18262 73.3657 8.03662 74.0047 8.03662C74.5591 8.03662 75.0373 8.13395 75.4393 8.32861C75.8413 8.52327 76.1629 8.78564 76.4041 9.11572C76.6453 9.44157 76.7998 9.80762 76.8675 10.2139L76.8739 10.252H75.7757L75.7694 10.2329C75.6847 9.89437 75.4922 9.60661 75.1917 9.36963C74.8913 9.13265 74.4956 9.01416 74.0047 9.01416C73.5942 9.01416 73.2388 9.11784 72.9383 9.3252C72.6379 9.53255 72.4051 9.82666 72.2401 10.2075C72.0793 10.5841 71.9989 11.0306 71.9989 11.5469V11.5596C71.9989 12.0843 72.0814 12.5413 72.2464 12.9307C72.4115 13.3158 72.6442 13.6141 72.9447 13.8257C73.2451 14.0373 73.5985 14.1431 74.0047 14.1431C74.466 14.1431 74.8426 14.0436 75.1346 13.8447C75.4266 13.6458 75.6361 13.356 75.763 12.9751L75.7757 12.937L76.8675 12.9307L76.8548 13.0005C76.7617 13.411 76.5967 13.777 76.3597 14.0986C76.1227 14.416 75.8096 14.6657 75.4202 14.8477C75.0309 15.0296 74.5612 15.1206 74.0111 15.1206ZM80.8348 15.1206C80.327 15.1206 79.8784 15.0444 79.4891 14.8921C79.0998 14.7355 78.7866 14.5176 78.5496 14.2383C78.3169 13.959 78.1794 13.631 78.137 13.2544H79.2669C79.36 13.5379 79.542 13.7664 79.8128 13.9399C80.0837 14.1134 80.437 14.2002 80.8729 14.2002C81.1818 14.2002 81.4526 14.1558 81.6854 14.0669C81.9224 13.9738 82.1086 13.849 82.244 13.6924C82.3794 13.5316 82.4471 13.3475 82.4471 13.1401V13.1274C82.4471 12.8947 82.354 12.6979 82.1678 12.5371C81.9816 12.3721 81.6769 12.2388 81.2537 12.1372L80.1937 11.8833C79.7663 11.7817 79.415 11.6506 79.14 11.4897C78.8649 11.3247 78.6618 11.1237 78.5306 10.8867C78.3994 10.6455 78.3338 10.362 78.3338 10.0361V10.0298C78.3338 9.64893 78.4438 9.30827 78.6639 9.00781C78.8882 8.70736 79.1929 8.47038 79.578 8.29688C79.963 8.12337 80.3968 8.03662 80.8792 8.03662C81.3574 8.03662 81.7806 8.11279 82.1488 8.26514C82.5212 8.41325 82.8195 8.62484 83.0438 8.8999C83.2723 9.17497 83.4119 9.4987 83.4627 9.87109H82.3773C82.3053 9.60026 82.1403 9.38021 81.8822 9.21094C81.624 9.04167 81.2876 8.95703 80.8729 8.95703C80.602 8.95703 80.3608 9.00146 80.1492 9.09033C79.9377 9.17497 79.7705 9.29346 79.6478 9.4458C79.5251 9.59814 79.4637 9.77588 79.4637 9.979V9.9917C79.4637 10.144 79.5039 10.2795 79.5843 10.3979C79.6647 10.5164 79.7895 10.6201 79.9588 10.709C80.1281 10.7979 80.346 10.8761 80.6126 10.9438L81.6663 11.1978C82.3096 11.3543 82.7878 11.5786 83.1009 11.8706C83.4183 12.1626 83.577 12.554 83.577 13.0449V13.0576C83.577 13.4639 83.4564 13.8236 83.2152 14.1367C82.974 14.4456 82.646 14.6868 82.2313 14.8604C81.8208 15.0339 81.3553 15.1206 80.8348 15.1206Z" fill="black"/>
</svg>
