<svg width="90" height="20" viewBox="0 0 90 20" fill="none" xmlns="http://www.w3.org/2000/svg">
<g style="mix-blend-mode:plus-darker">
<rect y="3" width="1" height="14" rx="0.5" fill="#E8E8E8"/>
</g>
<path d="M18.1606 15V5.84033H19.3032V15H18.1606ZM21.4995 15V8.15723H22.604V9.18555H22.7056C22.8791 8.82161 23.1287 8.5402 23.4546 8.34131C23.7804 8.13818 24.1951 8.03662 24.6987 8.03662C25.4689 8.03662 26.0592 8.25667 26.4697 8.69678C26.8844 9.13265 27.0918 9.75684 27.0918 10.5693V15H25.9873V10.8359C25.9873 10.2181 25.8561 9.76107 25.5938 9.46484C25.3356 9.16439 24.9336 9.01416 24.3877 9.01416C24.0238 9.01416 23.7085 9.09245 23.4419 9.24902C23.1753 9.4056 22.9679 9.62777 22.8198 9.91553C22.6759 10.2033 22.604 10.5482 22.604 10.9502V15H21.4995ZM30.7734 15L28.2407 8.15723H29.4087L31.2812 13.7939H31.3828L33.2554 8.15723H34.4233L31.8906 15H30.7734ZM38.4224 15.1206C37.7707 15.1206 37.21 14.9767 36.7402 14.689C36.2747 14.4012 35.915 13.995 35.6611 13.4702C35.4115 12.9412 35.2866 12.3192 35.2866 11.604V11.5977C35.2866 10.891 35.4115 10.271 35.6611 9.73779C35.915 9.20459 36.2726 8.78776 36.7339 8.4873C37.1951 8.18685 37.7347 8.03662 38.3525 8.03662C38.9746 8.03662 39.5078 8.1805 39.9521 8.46826C40.4007 8.75602 40.7435 9.15804 40.9805 9.67432C41.2217 10.1864 41.3423 10.783 41.3423 11.4644V11.896H35.8579V11.0137H40.7773L40.2314 11.8198V11.3818C40.2314 10.8444 40.151 10.4022 39.9902 10.0552C39.8294 9.70817 39.6073 9.45003 39.3237 9.28076C39.0402 9.10726 38.7144 9.02051 38.3462 9.02051C37.978 9.02051 37.6479 9.11149 37.356 9.29346C37.0682 9.47119 36.8397 9.73568 36.6704 10.0869C36.5011 10.4382 36.4165 10.8698 36.4165 11.3818V11.8198C36.4165 12.3065 36.499 12.7233 36.6641 13.0703C36.8291 13.4131 37.064 13.6776 37.3687 13.8638C37.6733 14.0457 38.033 14.1367 38.4478 14.1367C38.7567 14.1367 39.0254 14.0944 39.2539 14.0098C39.4824 13.9251 39.6707 13.8172 39.8188 13.686C39.967 13.5549 40.0706 13.4215 40.1299 13.2861L40.1553 13.229H41.2598L41.2471 13.2798C41.1878 13.5125 41.082 13.7389 40.9297 13.959C40.7816 14.1748 40.589 14.3716 40.3521 14.5493C40.1151 14.7228 39.8337 14.8625 39.5078 14.9683C39.1862 15.0698 38.8244 15.1206 38.4224 15.1206ZM43.0562 15V8.15723H44.1606V9.18555H44.2622C44.4357 8.82161 44.6854 8.5402 45.0112 8.34131C45.3371 8.13818 45.7518 8.03662 46.2554 8.03662C47.0256 8.03662 47.6159 8.25667 48.0264 8.69678C48.4411 9.13265 48.6484 9.75684 48.6484 10.5693V15H47.5439V10.8359C47.5439 10.2181 47.4128 9.76107 47.1504 9.46484C46.8923 9.16439 46.4902 9.01416 45.9443 9.01416C45.5804 9.01416 45.2651 9.09245 44.9985 9.24902C44.7319 9.4056 44.5246 9.62777 44.3765 9.91553C44.2326 10.2033 44.1606 10.5482 44.1606 10.9502V15H43.0562ZM53.0791 15.0508C52.3766 15.0508 51.8667 14.909 51.5493 14.6255C51.2362 14.342 51.0796 13.8743 51.0796 13.2227V9.07129H50.0005V8.15723H51.0796V6.38623H52.2222V8.15723H53.7202V9.07129H52.2222V12.9434C52.2222 13.3454 52.2983 13.6353 52.4507 13.813C52.603 13.9865 52.8569 14.0732 53.2124 14.0732C53.3097 14.0732 53.3923 14.0711 53.46 14.0669C53.5319 14.0627 53.6187 14.0563 53.7202 14.0479V14.9873C53.6144 15.0042 53.5086 15.019 53.4028 15.0317C53.297 15.0444 53.1891 15.0508 53.0791 15.0508ZM58.0938 15.1206C57.4463 15.1206 56.8856 14.9788 56.4116 14.6953C55.9419 14.4076 55.578 13.9992 55.3198 13.4702C55.0659 12.9412 54.939 12.3128 54.939 11.585V11.5723C54.939 10.8402 55.0659 10.2096 55.3198 9.68066C55.578 9.15169 55.9419 8.74544 56.4116 8.46191C56.8856 8.17839 57.4463 8.03662 58.0938 8.03662C58.7454 8.03662 59.3062 8.17839 59.7759 8.46191C60.2456 8.74544 60.6074 9.15169 60.8613 9.68066C61.1195 10.2096 61.2485 10.8402 61.2485 11.5723V11.585C61.2485 12.3128 61.1195 12.9412 60.8613 13.4702C60.6074 13.9992 60.2456 14.4076 59.7759 14.6953C59.3062 14.9788 58.7454 15.1206 58.0938 15.1206ZM58.0938 14.1431C58.5254 14.1431 58.8914 14.0415 59.1919 13.8384C59.4924 13.6353 59.7209 13.3433 59.8774 12.9624C60.0382 12.5815 60.1187 12.1224 60.1187 11.585V11.5723C60.1187 11.0306 60.0382 10.5693 59.8774 10.1885C59.7209 9.80762 59.4924 9.51774 59.1919 9.31885C58.8914 9.11572 58.5254 9.01416 58.0938 9.01416C57.6621 9.01416 57.2961 9.11572 56.9956 9.31885C56.6951 9.51774 56.4645 9.80762 56.3037 10.1885C56.1471 10.5693 56.0688 11.0306 56.0688 11.5723V11.585C56.0688 12.1224 56.1471 12.5815 56.3037 12.9624C56.4645 13.3433 56.6951 13.6353 56.9956 13.8384C57.2961 14.0415 57.6621 14.1431 58.0938 14.1431ZM62.9624 15V8.15723H64.0669V9.17285H64.1685C64.2996 8.81315 64.5218 8.53385 64.835 8.33496C65.1481 8.13607 65.5353 8.03662 65.9966 8.03662C66.1024 8.03662 66.2061 8.04297 66.3076 8.05566C66.4134 8.06413 66.4938 8.07259 66.5488 8.08105V9.15381C66.4346 9.13265 66.3224 9.11784 66.2124 9.10938C66.1066 9.09668 65.9924 9.09033 65.8696 9.09033C65.5184 9.09033 65.2074 9.16016 64.9365 9.2998C64.6657 9.43945 64.452 9.63411 64.2954 9.88379C64.1431 10.1335 64.0669 10.4255 64.0669 10.7598V15H62.9624ZM68.561 17.3994C68.4891 17.3994 68.4087 17.3952 68.3198 17.3867C68.231 17.3825 68.1484 17.374 68.0723 17.3613V16.4536C68.14 16.4663 68.214 16.4748 68.2944 16.479C68.3748 16.4832 68.4531 16.4854 68.5293 16.4854C68.8424 16.4854 69.0985 16.4049 69.2974 16.2441C69.5005 16.0833 69.6634 15.8062 69.7861 15.4126L69.9131 15.0063L67.3804 8.15723H68.561L70.6685 14.4795L70.2305 13.7876H70.751L70.313 14.4795L72.4141 8.15723H73.5757L70.9033 15.4189C70.7171 15.931 70.5203 16.3309 70.313 16.6187C70.1056 16.9064 69.8623 17.1074 69.583 17.2217C69.3079 17.3402 68.9673 17.3994 68.561 17.3994Z" fill="black"/>
</svg>
