<svg width="93" height="22" viewBox="0 0 93 22" fill="none" xmlns="http://www.w3.org/2000/svg">
<g filter="url(#filter0_dd_520_7431)">
<rect x="1" y="1" width="90" height="20" rx="5" fill="white"/>
<rect x="0.75" y="0.75" width="90.5" height="20.5" rx="5.25" stroke="black" stroke-opacity="0.02" stroke-width="0.5"/>
<path d="M18.6606 16V6.84033H19.8032V16H18.6606ZM21.9995 16V9.15723H23.104V10.1855H23.2056C23.3791 9.82161 23.6287 9.5402 23.9546 9.34131C24.2804 9.13818 24.6951 9.03662 25.1987 9.03662C25.9689 9.03662 26.5592 9.25667 26.9697 9.69678C27.3844 10.1326 27.5918 10.7568 27.5918 11.5693V16H26.4873V11.8359C26.4873 11.2181 26.3561 10.7611 26.0938 10.4648C25.8356 10.1644 25.4336 10.0142 24.8877 10.0142C24.5238 10.0142 24.2085 10.0924 23.9419 10.249C23.6753 10.4056 23.4679 10.6278 23.3198 10.9155C23.1759 11.2033 23.104 11.5482 23.104 11.9502V16H21.9995ZM31.2734 16L28.7407 9.15723H29.9087L31.7812 14.7939H31.8828L33.7554 9.15723H34.9233L32.3906 16H31.2734ZM38.9224 16.1206C38.2707 16.1206 37.71 15.9767 37.2402 15.689C36.7747 15.4012 36.415 14.995 36.1611 14.4702C35.9115 13.9412 35.7866 13.3192 35.7866 12.604V12.5977C35.7866 11.891 35.9115 11.271 36.1611 10.7378C36.415 10.2046 36.7726 9.78776 37.2339 9.4873C37.6951 9.18685 38.2347 9.03662 38.8525 9.03662C39.4746 9.03662 40.0078 9.1805 40.4521 9.46826C40.9007 9.75602 41.2435 10.158 41.4805 10.6743C41.7217 11.1864 41.8423 11.783 41.8423 12.4644V12.896H36.3579V12.0137H41.2773L40.7314 12.8198V12.3818C40.7314 11.8444 40.651 11.4022 40.4902 11.0552C40.3294 10.7082 40.1073 10.45 39.8237 10.2808C39.5402 10.1073 39.2144 10.0205 38.8462 10.0205C38.478 10.0205 38.1479 10.1115 37.856 10.2935C37.5682 10.4712 37.3397 10.7357 37.1704 11.0869C37.0011 11.4382 36.9165 11.8698 36.9165 12.3818V12.8198C36.9165 13.3065 36.999 13.7233 37.1641 14.0703C37.3291 14.4131 37.564 14.6776 37.8687 14.8638C38.1733 15.0457 38.533 15.1367 38.9478 15.1367C39.2567 15.1367 39.5254 15.0944 39.7539 15.0098C39.9824 14.9251 40.1707 14.8172 40.3188 14.686C40.467 14.5549 40.5706 14.4215 40.6299 14.2861L40.6553 14.229H41.7598L41.7471 14.2798C41.6878 14.5125 41.582 14.7389 41.4297 14.959C41.2816 15.1748 41.089 15.3716 40.8521 15.5493C40.6151 15.7228 40.3337 15.8625 40.0078 15.9683C39.6862 16.0698 39.3244 16.1206 38.9224 16.1206ZM43.5562 16V9.15723H44.6606V10.1855H44.7622C44.9357 9.82161 45.1854 9.5402 45.5112 9.34131C45.8371 9.13818 46.2518 9.03662 46.7554 9.03662C47.5256 9.03662 48.1159 9.25667 48.5264 9.69678C48.9411 10.1326 49.1484 10.7568 49.1484 11.5693V16H48.0439V11.8359C48.0439 11.2181 47.9128 10.7611 47.6504 10.4648C47.3923 10.1644 46.9902 10.0142 46.4443 10.0142C46.0804 10.0142 45.7651 10.0924 45.4985 10.249C45.2319 10.4056 45.0246 10.6278 44.8765 10.9155C44.7326 11.2033 44.6606 11.5482 44.6606 11.9502V16H43.5562ZM53.5791 16.0508C52.8766 16.0508 52.3667 15.909 52.0493 15.6255C51.7362 15.342 51.5796 14.8743 51.5796 14.2227V10.0713H50.5005V9.15723H51.5796V7.38623H52.7222V9.15723H54.2202V10.0713H52.7222V13.9434C52.7222 14.3454 52.7983 14.6353 52.9507 14.813C53.103 14.9865 53.3569 15.0732 53.7124 15.0732C53.8097 15.0732 53.8923 15.0711 53.96 15.0669C54.0319 15.0627 54.1187 15.0563 54.2202 15.0479V15.9873C54.1144 16.0042 54.0086 16.019 53.9028 16.0317C53.797 16.0444 53.6891 16.0508 53.5791 16.0508ZM58.5938 16.1206C57.9463 16.1206 57.3856 15.9788 56.9116 15.6953C56.4419 15.4076 56.078 14.9992 55.8198 14.4702C55.5659 13.9412 55.439 13.3128 55.439 12.585V12.5723C55.439 11.8402 55.5659 11.2096 55.8198 10.6807C56.078 10.1517 56.4419 9.74544 56.9116 9.46191C57.3856 9.17839 57.9463 9.03662 58.5938 9.03662C59.2454 9.03662 59.8062 9.17839 60.2759 9.46191C60.7456 9.74544 61.1074 10.1517 61.3613 10.6807C61.6195 11.2096 61.7485 11.8402 61.7485 12.5723V12.585C61.7485 13.3128 61.6195 13.9412 61.3613 14.4702C61.1074 14.9992 60.7456 15.4076 60.2759 15.6953C59.8062 15.9788 59.2454 16.1206 58.5938 16.1206ZM58.5938 15.1431C59.0254 15.1431 59.3914 15.0415 59.6919 14.8384C59.9924 14.6353 60.2209 14.3433 60.3774 13.9624C60.5382 13.5815 60.6187 13.1224 60.6187 12.585V12.5723C60.6187 12.0306 60.5382 11.5693 60.3774 11.1885C60.2209 10.8076 59.9924 10.5177 59.6919 10.3188C59.3914 10.1157 59.0254 10.0142 58.5938 10.0142C58.1621 10.0142 57.7961 10.1157 57.4956 10.3188C57.1951 10.5177 56.9645 10.8076 56.8037 11.1885C56.6471 11.5693 56.5688 12.0306 56.5688 12.5723V12.585C56.5688 13.1224 56.6471 13.5815 56.8037 13.9624C56.9645 14.3433 57.1951 14.6353 57.4956 14.8384C57.7961 15.0415 58.1621 15.1431 58.5938 15.1431ZM63.4624 16V9.15723H64.5669V10.1729H64.6685C64.7996 9.81315 65.0218 9.53385 65.335 9.33496C65.6481 9.13607 66.0353 9.03662 66.4966 9.03662C66.6024 9.03662 66.7061 9.04297 66.8076 9.05566C66.9134 9.06413 66.9938 9.07259 67.0488 9.08105V10.1538C66.9346 10.1326 66.8224 10.1178 66.7124 10.1094C66.6066 10.0967 66.4924 10.0903 66.3696 10.0903C66.0184 10.0903 65.7074 10.1602 65.4365 10.2998C65.1657 10.4395 64.952 10.6341 64.7954 10.8838C64.6431 11.1335 64.5669 11.4255 64.5669 11.7598V16H63.4624ZM69.061 18.3994C68.9891 18.3994 68.9087 18.3952 68.8198 18.3867C68.731 18.3825 68.6484 18.374 68.5723 18.3613V17.4536C68.64 17.4663 68.714 17.4748 68.7944 17.479C68.8748 17.4832 68.9531 17.4854 69.0293 17.4854C69.3424 17.4854 69.5985 17.4049 69.7974 17.2441C70.0005 17.0833 70.1634 16.8062 70.2861 16.4126L70.4131 16.0063L67.8804 9.15723H69.061L71.1685 15.4795L70.7305 14.7876H71.251L70.813 15.4795L72.9141 9.15723H74.0757L71.4033 16.4189C71.2171 16.931 71.0203 17.3309 70.813 17.6187C70.6056 17.9064 70.3623 18.1074 70.083 18.2217C69.8079 18.3402 69.4673 18.3994 69.061 18.3994Z" fill="black"/>
</g>
<defs>
<filter id="filter0_dd_520_7431" x="-0.25" y="0.5" width="92.5" height="22.75" filterUnits="userSpaceOnUse" color-interpolation-filters="sRGB">
<feFlood flood-opacity="0" result="BackgroundImageFix"/>
<feColorMatrix in="SourceAlpha" type="matrix" values="0 0 0 0 0 0 0 0 0 0 0 0 0 0 0 0 0 0 127 0" result="hardAlpha"/>
<feOffset dy="1"/>
<feGaussianBlur stdDeviation="0.375"/>
<feColorMatrix type="matrix" values="0 0 0 0 0 0 0 0 0 0 0 0 0 0 0 0 0 0 0.05 0"/>
<feBlend mode="normal" in2="BackgroundImageFix" result="effect1_dropShadow_520_7431"/>
<feColorMatrix in="SourceAlpha" type="matrix" values="0 0 0 0 0 0 0 0 0 0 0 0 0 0 0 0 0 0 127 0" result="hardAlpha"/>
<feOffset dy="0.25"/>
<feGaussianBlur stdDeviation="0.125"/>
<feColorMatrix type="matrix" values="0 0 0 0 0 0 0 0 0 0 0 0 0 0 0 0 0 0 0.15 0"/>
<feBlend mode="normal" in2="effect1_dropShadow_520_7431" result="effect2_dropShadow_520_7431"/>
<feBlend mode="normal" in="SourceGraphic" in2="effect2_dropShadow_520_7431" result="shape"/>
</filter>
</defs>
</svg>
