<svg width="93" height="22" viewBox="0 0 93 22" fill="none" xmlns="http://www.w3.org/2000/svg">
<g filter="url(#filter0_dd_520_7431)">
<rect x="1" y="1" width="90" height="20" rx="5" fill="white"/>
<rect x="0.75" y="0.75" width="90.5" height="20.5" rx="5.25" stroke="black" stroke-opacity="0.02" stroke-width="0.5"/>
<path d="M7.78711 16V6.84033H13.3477V7.86865H8.92969V11.0171H12.9858V12.0327H8.92969V16H7.78711ZM15.1123 16V9.15723H16.2168V16H15.1123ZM15.6709 7.83691C15.4635 7.83691 15.2837 7.76286 15.1313 7.61475C14.9832 7.4624 14.9092 7.28255 14.9092 7.0752C14.9092 6.86361 14.9832 6.68376 15.1313 6.53564C15.2837 6.38753 15.4635 6.31348 15.6709 6.31348C15.8825 6.31348 16.0623 6.38753 16.2104 6.53564C16.3586 6.68376 16.4326 6.86361 16.4326 7.0752C16.4326 7.28255 16.3586 7.4624 16.2104 7.61475C16.0623 7.76286 15.8825 7.83691 15.6709 7.83691ZM21.0918 16.1206C20.4401 16.1206 19.8794 15.9767 19.4097 15.689C18.9442 15.4012 18.5845 14.995 18.3306 14.4702C18.0809 13.9412 17.9561 13.3192 17.9561 12.604V12.5977C17.9561 11.891 18.0809 11.271 18.3306 10.7378C18.5845 10.2046 18.9421 9.78776 19.4033 9.4873C19.8646 9.18685 20.4041 9.03662 21.022 9.03662C21.644 9.03662 22.1772 9.1805 22.6216 9.46826C23.0701 9.75602 23.4129 10.158 23.6499 10.6743C23.8911 11.1864 24.0117 11.783 24.0117 12.4644V12.896H18.5273V12.0137H23.4468L22.9009 12.8198V12.3818C22.9009 11.8444 22.8205 11.4022 22.6597 11.0552C22.4989 10.7082 22.2767 10.45 21.9932 10.2808C21.7096 10.1073 21.3838 10.0205 21.0156 10.0205C20.6475 10.0205 20.3174 10.1115 20.0254 10.2935C19.7376 10.4712 19.5091 10.7357 19.3398 11.0869C19.1706 11.4382 19.0859 11.8698 19.0859 12.3818V12.8198C19.0859 13.3065 19.1685 13.7233 19.3335 14.0703C19.4985 14.4131 19.7334 14.6776 20.0381 14.8638C20.3428 15.0457 20.7025 15.1367 21.1172 15.1367C21.4261 15.1367 21.6948 15.0944 21.9233 15.0098C22.1519 14.9251 22.3402 14.8172 22.4883 14.686C22.6364 14.5549 22.7401 14.4215 22.7993 14.2861L22.8247 14.229H23.9292L23.9165 14.2798C23.8573 14.5125 23.7515 14.7389 23.5991 14.959C23.451 15.1748 23.2585 15.3716 23.0215 15.5493C22.7845 15.7228 22.5031 15.8625 22.1772 15.9683C21.8556 16.0698 21.4938 16.1206 21.0918 16.1206ZM25.7891 16V6.44043H26.8936V16H25.7891ZM31.54 16.1206C30.9645 16.1206 30.4609 15.9746 30.0293 15.6826C29.5977 15.3906 29.2633 14.9801 29.0264 14.4512C28.7894 13.918 28.6709 13.2959 28.6709 12.585V12.5723C28.6709 11.8571 28.7894 11.235 29.0264 10.7061C29.2633 10.1771 29.5955 9.7666 30.0229 9.47461C30.4546 9.18262 30.9603 9.03662 31.54 9.03662C31.8532 9.03662 32.1473 9.0874 32.4224 9.18896C32.7017 9.2863 32.9492 9.42383 33.165 9.60156C33.3809 9.7793 33.5501 9.99089 33.6729 10.2363H33.7744V6.44043H34.8789V16H33.7744V14.9082H33.6729C33.5332 15.1621 33.3576 15.38 33.146 15.562C32.9344 15.7397 32.6932 15.8773 32.4224 15.9746C32.1515 16.0719 31.8574 16.1206 31.54 16.1206ZM31.7939 15.1431C32.2087 15.1431 32.5662 15.0394 32.8667 14.832C33.1672 14.6247 33.3978 14.3306 33.5586 13.9497C33.7194 13.5646 33.7998 13.1097 33.7998 12.585V12.5723C33.7998 12.0433 33.7194 11.5884 33.5586 11.2075C33.3978 10.8267 33.1672 10.5326 32.8667 10.3252C32.5662 10.1178 32.2087 10.0142 31.7939 10.0142C31.3792 10.0142 31.0216 10.1178 30.7212 10.3252C30.425 10.5283 30.1965 10.8203 30.0356 11.2012C29.8791 11.582 29.8008 12.0391 29.8008 12.5723V12.585C29.8008 13.1139 29.8791 13.571 30.0356 13.9561C30.1965 14.3369 30.425 14.631 30.7212 14.8384C31.0216 15.0415 31.3792 15.1431 31.7939 15.1431ZM40.7949 16V6.84033H42.1216L45.2573 14.4829H45.3589L48.4946 6.84033H49.8213V16H48.7549V9.00488H48.1963L49.4785 7.09424L45.7905 16H44.8257L41.144 7.09424L42.4199 9.00488H41.8613V16H40.7949ZM54.8105 16.1206C54.1589 16.1206 53.5981 15.9767 53.1284 15.689C52.6629 15.4012 52.3032 14.995 52.0493 14.4702C51.7996 13.9412 51.6748 13.3192 51.6748 12.604V12.5977C51.6748 11.891 51.7996 11.271 52.0493 10.7378C52.3032 10.2046 52.6608 9.78776 53.1221 9.4873C53.5833 9.18685 54.1229 9.03662 54.7407 9.03662C55.3628 9.03662 55.896 9.1805 56.3403 9.46826C56.7889 9.75602 57.1317 10.158 57.3687 10.6743C57.6099 11.1864 57.7305 11.783 57.7305 12.4644V12.896H52.2461V12.0137H57.1655L56.6196 12.8198V12.3818C56.6196 11.8444 56.5392 11.4022 56.3784 11.0552C56.2176 10.7082 55.9954 10.45 55.7119 10.2808C55.4284 10.1073 55.1025 10.0205 54.7344 10.0205C54.3662 10.0205 54.0361 10.1115 53.7441 10.2935C53.4564 10.4712 53.2279 10.7357 53.0586 11.0869C52.8893 11.4382 52.8047 11.8698 52.8047 12.3818V12.8198C52.8047 13.3065 52.8872 13.7233 53.0522 14.0703C53.2173 14.4131 53.4521 14.6776 53.7568 14.8638C54.0615 15.0457 54.4212 15.1367 54.8359 15.1367C55.1449 15.1367 55.4136 15.0944 55.6421 15.0098C55.8706 14.9251 56.0589 14.8172 56.207 14.686C56.3551 14.5549 56.4588 14.4215 56.5181 14.2861L56.5435 14.229H57.6479L57.6353 14.2798C57.576 14.5125 57.4702 14.7389 57.3179 14.959C57.1698 15.1748 56.9772 15.3716 56.7402 15.5493C56.5033 15.7228 56.2218 15.8625 55.896 15.9683C55.5744 16.0698 55.2126 16.1206 54.8105 16.1206ZM61.8755 16.0508C61.173 16.0508 60.6631 15.909 60.3457 15.6255C60.0326 15.342 59.876 14.8743 59.876 14.2227V10.0713H58.7969V9.15723H59.876V7.38623H61.0186V9.15723H62.5166V10.0713H61.0186V13.9434C61.0186 14.3454 61.0947 14.6353 61.2471 14.813C61.3994 14.9865 61.6533 15.0732 62.0088 15.0732C62.1061 15.0732 62.1886 15.0711 62.2563 15.0669C62.3283 15.0627 62.415 15.0563 62.5166 15.0479V15.9873C62.4108 16.0042 62.305 16.019 62.1992 16.0317C62.0934 16.0444 61.9855 16.0508 61.8755 16.0508ZM64.167 16V9.15723H65.2715V10.1729H65.373C65.5042 9.81315 65.7264 9.53385 66.0396 9.33496C66.3527 9.13607 66.7399 9.03662 67.2012 9.03662C67.307 9.03662 67.4106 9.04297 67.5122 9.05566C67.618 9.06413 67.6984 9.07259 67.7534 9.08105V10.1538C67.6392 10.1326 67.527 10.1178 67.417 10.1094C67.3112 10.0967 67.1969 10.0903 67.0742 10.0903C66.723 10.0903 66.4119 10.1602 66.1411 10.2998C65.8703 10.4395 65.6566 10.6341 65.5 10.8838C65.3477 11.1335 65.2715 11.4255 65.2715 11.7598V16H64.167ZM69.1436 16V9.15723H70.248V16H69.1436ZM69.7021 7.83691C69.4948 7.83691 69.3149 7.76286 69.1626 7.61475C69.0145 7.4624 68.9404 7.28255 68.9404 7.0752C68.9404 6.86361 69.0145 6.68376 69.1626 6.53564C69.3149 6.38753 69.4948 6.31348 69.7021 6.31348C69.9137 6.31348 70.0936 6.38753 70.2417 6.53564C70.3898 6.68376 70.4639 6.86361 70.4639 7.0752C70.4639 7.28255 70.3898 7.4624 70.2417 7.61475C70.0936 7.76286 69.9137 7.83691 69.7021 7.83691ZM75.1294 16.1206C74.4904 16.1206 73.936 15.9746 73.4663 15.6826C72.9966 15.3906 72.6326 14.978 72.3745 14.4448C72.1164 13.9116 71.9873 13.2832 71.9873 12.5596V12.5469C71.9873 11.8359 72.1143 11.2181 72.3682 10.6934C72.6263 10.1686 72.9902 9.76237 73.46 9.47461C73.9297 9.18262 74.484 9.03662 75.123 9.03662C75.6774 9.03662 76.1556 9.13395 76.5576 9.32861C76.9596 9.52327 77.2812 9.78564 77.5225 10.1157C77.7637 10.4416 77.9181 10.8076 77.9858 11.2139L77.9922 11.252H76.894L76.8877 11.2329C76.8031 10.8944 76.6105 10.6066 76.3101 10.3696C76.0096 10.1326 75.6139 10.0142 75.123 10.0142C74.7126 10.0142 74.3571 10.1178 74.0566 10.3252C73.7562 10.5326 73.5234 10.8267 73.3584 11.2075C73.1976 11.5841 73.1172 12.0306 73.1172 12.5469V12.5596C73.1172 13.0843 73.1997 13.5413 73.3647 13.9307C73.5298 14.3158 73.7625 14.6141 74.063 14.8257C74.3634 15.0373 74.7168 15.1431 75.123 15.1431C75.5843 15.1431 75.9609 15.0436 76.2529 14.8447C76.5449 14.6458 76.7544 14.356 76.8813 13.9751L76.894 13.937L77.9858 13.9307L77.9731 14.0005C77.88 14.411 77.715 14.777 77.478 15.0986C77.241 15.416 76.9279 15.6657 76.5386 15.8477C76.1493 16.0296 75.6795 16.1206 75.1294 16.1206ZM81.9531 16.1206C81.4453 16.1206 80.9967 16.0444 80.6074 15.8921C80.2181 15.7355 79.9049 15.5176 79.668 15.2383C79.4352 14.959 79.2977 14.631 79.2554 14.2544H80.3853C80.4784 14.5379 80.6603 14.7664 80.9312 14.9399C81.202 15.1134 81.5553 15.2002 81.9912 15.2002C82.3001 15.2002 82.571 15.1558 82.8037 15.0669C83.0407 14.9738 83.2269 14.849 83.3623 14.6924C83.4977 14.5316 83.5654 14.3475 83.5654 14.1401V14.1274C83.5654 13.8947 83.4723 13.6979 83.2861 13.5371C83.0999 13.3721 82.7952 13.2388 82.3721 13.1372L81.312 12.8833C80.8846 12.7817 80.5334 12.6506 80.2583 12.4897C79.9832 12.3247 79.7801 12.1237 79.6489 11.8867C79.5177 11.6455 79.4521 11.362 79.4521 11.0361V11.0298C79.4521 10.6489 79.5622 10.3083 79.7822 10.0078C80.0065 9.70736 80.3112 9.47038 80.6963 9.29688C81.0814 9.12337 81.5151 9.03662 81.9976 9.03662C82.4757 9.03662 82.8989 9.11279 83.2671 9.26514C83.6395 9.41325 83.9378 9.62484 84.1621 9.8999C84.3906 10.175 84.5303 10.4987 84.5811 10.8711H83.4956C83.4237 10.6003 83.2586 10.3802 83.0005 10.2109C82.7424 10.0417 82.4059 9.95703 81.9912 9.95703C81.7204 9.95703 81.4792 10.0015 81.2676 10.0903C81.056 10.175 80.8888 10.2935 80.7661 10.4458C80.6434 10.5981 80.582 10.7759 80.582 10.979V10.9917C80.582 11.144 80.6222 11.2795 80.7026 11.3979C80.783 11.5164 80.9079 11.6201 81.0771 11.709C81.2464 11.7979 81.4644 11.8761 81.731 11.9438L82.7847 12.1978C83.4279 12.3543 83.9061 12.5786 84.2192 12.8706C84.5366 13.1626 84.6953 13.554 84.6953 14.0449V14.0576C84.6953 14.4639 84.5747 14.8236 84.3335 15.1367C84.0923 15.4456 83.7643 15.6868 83.3496 15.8604C82.9391 16.0339 82.4736 16.1206 81.9531 16.1206Z" fill="black" fill-opacity="0.85"/>
</g>
<defs>
<filter id="filter0_dd_520_7431" x="-0.25" y="0.5" width="92.5" height="22.75" filterUnits="userSpaceOnUse" color-interpolation-filters="sRGB">
<feFlood flood-opacity="0" result="BackgroundImageFix"/>
<feColorMatrix in="SourceAlpha" type="matrix" values="0 0 0 0 0 0 0 0 0 0 0 0 0 0 0 0 0 0 127 0" result="hardAlpha"/>
<feOffset dy="1"/>
<feGaussianBlur stdDeviation="0.375"/>
<feColorMatrix type="matrix" values="0 0 0 0 0 0 0 0 0 0 0 0 0 0 0 0 0 0 0.05 0"/>
<feBlend mode="normal" in2="BackgroundImageFix" result="effect1_dropShadow_520_7431"/>
<feColorMatrix in="SourceAlpha" type="matrix" values="0 0 0 0 0 0 0 0 0 0 0 0 0 0 0 0 0 0 127 0" result="hardAlpha"/>
<feOffset dy="0.25"/>
<feGaussianBlur stdDeviation="0.125"/>
<feColorMatrix type="matrix" values="0 0 0 0 0 0 0 0 0 0 0 0 0 0 0 0 0 0 0.15 0"/>
<feBlend mode="normal" in2="effect1_dropShadow_520_7431" result="effect2_dropShadow_520_7431"/>
<feBlend mode="normal" in="SourceGraphic" in2="effect2_dropShadow_520_7431" result="shape"/>
</filter>
</defs>
</svg>
