<svg width="90" height="20" viewBox="0 0 90 20" fill="none" xmlns="http://www.w3.org/2000/svg">
<g style="mix-blend-mode:plus-darker">
<rect y="3" width="1" height="14" rx="0.5" fill="#E8E8E8"/>
</g>
<path d="M13.584 15V5.84033H19.2588V6.86865H14.7266V9.80762H19.0239V10.8232H14.7266V13.9717H19.2588V15H13.584ZM21.1885 15V8.15723H22.293V9.19824H22.3945C22.5469 8.83008 22.7796 8.54443 23.0928 8.34131C23.4102 8.13818 23.7931 8.03662 24.2417 8.03662C24.5506 8.03662 24.8278 8.0874 25.0732 8.18896C25.3187 8.29053 25.5303 8.43229 25.708 8.61426C25.8857 8.79199 26.0275 8.99935 26.1333 9.23633H26.2349C26.3576 8.99512 26.5226 8.78564 26.73 8.60791C26.9373 8.42594 27.1764 8.2863 27.4473 8.18896C27.7223 8.0874 28.0164 8.03662 28.3296 8.03662C28.7951 8.03662 29.1886 8.12337 29.5103 8.29688C29.8361 8.47038 30.0837 8.72428 30.2529 9.05859C30.4222 9.38867 30.5068 9.79281 30.5068 10.271V15H29.4023V10.5249C29.4023 10.1864 29.3494 9.90706 29.2437 9.68701C29.1421 9.46273 28.9855 9.29557 28.7739 9.18555C28.5623 9.07129 28.2957 9.01416 27.9741 9.01416C27.6567 9.01416 27.3796 9.0861 27.1426 9.22998C26.9056 9.37386 26.7215 9.56641 26.5903 9.80762C26.4591 10.0446 26.3936 10.3091 26.3936 10.6011V15H25.2891V10.3535C25.2891 10.0827 25.2298 9.84782 25.1113 9.64893C24.9971 9.4458 24.832 9.28923 24.6162 9.1792C24.4046 9.06917 24.1549 9.01416 23.8672 9.01416C23.571 9.01416 23.3022 9.09245 23.061 9.24902C22.8241 9.4056 22.6357 9.61719 22.4961 9.88379C22.3607 10.1462 22.293 10.4382 22.293 10.7598V15H21.1885ZM32.5 17.2852V8.15723H33.6045V9.24902H33.7061C33.8457 8.99512 34.0213 8.7793 34.2329 8.60156C34.4445 8.4196 34.6857 8.27995 34.9565 8.18262C35.2274 8.08529 35.5215 8.03662 35.8389 8.03662C36.4186 8.03662 36.9222 8.18473 37.3496 8.48096C37.7812 8.77295 38.1156 9.18343 38.3525 9.7124C38.5895 10.2414 38.708 10.8613 38.708 11.5723V11.585C38.708 12.3001 38.5895 12.9222 38.3525 13.4512C38.1156 13.9801 37.7812 14.3906 37.3496 14.6826C36.9222 14.9746 36.4186 15.1206 35.8389 15.1206C35.5257 15.1206 35.2295 15.0719 34.9502 14.9746C34.6751 14.873 34.4297 14.7334 34.2139 14.5557C34.0023 14.3779 33.833 14.1663 33.7061 13.9209H33.6045V17.2852H32.5ZM35.585 14.1431C36.0039 14.1431 36.3615 14.0415 36.6577 13.8384C36.9539 13.631 37.1803 13.3369 37.3369 12.9561C37.4977 12.571 37.5781 12.1139 37.5781 11.585V11.5723C37.5781 11.0391 37.4977 10.582 37.3369 10.2012C37.1803 9.82031 36.9539 9.52832 36.6577 9.3252C36.3615 9.11784 36.0039 9.01416 35.585 9.01416C35.1702 9.01416 34.8127 9.11784 34.5122 9.3252C34.2118 9.53255 33.9811 9.82666 33.8203 10.2075C33.6595 10.5884 33.5791 11.0433 33.5791 11.5723V11.585C33.5791 12.1097 33.6595 12.5646 33.8203 12.9497C33.9811 13.3306 34.2118 13.6247 34.5122 13.832C34.8127 14.0394 35.1702 14.1431 35.585 14.1431ZM40.498 15V5.44043H41.6025V15H40.498ZM46.5347 15.1206C45.8872 15.1206 45.3265 14.9788 44.8525 14.6953C44.3828 14.4076 44.0189 13.9992 43.7607 13.4702C43.5068 12.9412 43.3799 12.3128 43.3799 11.585V11.5723C43.3799 10.8402 43.5068 10.2096 43.7607 9.68066C44.0189 9.15169 44.3828 8.74544 44.8525 8.46191C45.3265 8.17839 45.8872 8.03662 46.5347 8.03662C47.1864 8.03662 47.7471 8.17839 48.2168 8.46191C48.6865 8.74544 49.0483 9.15169 49.3022 9.68066C49.5604 10.2096 49.6895 10.8402 49.6895 11.5723V11.585C49.6895 12.3128 49.5604 12.9412 49.3022 13.4702C49.0483 13.9992 48.6865 14.4076 48.2168 14.6953C47.7471 14.9788 47.1864 15.1206 46.5347 15.1206ZM46.5347 14.1431C46.9663 14.1431 47.3324 14.0415 47.6328 13.8384C47.9333 13.6353 48.1618 13.3433 48.3184 12.9624C48.4792 12.5815 48.5596 12.1224 48.5596 11.585V11.5723C48.5596 11.0306 48.4792 10.5693 48.3184 10.1885C48.1618 9.80762 47.9333 9.51774 47.6328 9.31885C47.3324 9.11572 46.9663 9.01416 46.5347 9.01416C46.103 9.01416 45.737 9.11572 45.4365 9.31885C45.1361 9.51774 44.9054 9.80762 44.7446 10.1885C44.5881 10.5693 44.5098 11.0306 44.5098 11.5723V11.585C44.5098 12.1224 44.5881 12.5815 44.7446 12.9624C44.9054 13.3433 45.1361 13.6353 45.4365 13.8384C45.737 14.0415 46.103 14.1431 46.5347 14.1431ZM51.7334 17.3994C51.6615 17.3994 51.5811 17.3952 51.4922 17.3867C51.4033 17.3825 51.3208 17.374 51.2446 17.3613V16.4536C51.3123 16.4663 51.3864 16.4748 51.4668 16.479C51.5472 16.4832 51.6255 16.4854 51.7017 16.4854C52.0148 16.4854 52.2708 16.4049 52.4697 16.2441C52.6729 16.0833 52.8358 15.8062 52.9585 15.4126L53.0854 15.0063L50.5527 8.15723H51.7334L53.8408 14.4795L53.4028 13.7876H53.9233L53.4854 14.4795L55.5864 8.15723H56.748L54.0757 15.4189C53.8895 15.931 53.6927 16.3309 53.4854 16.6187C53.278 16.9064 53.0347 17.1074 52.7554 17.2217C52.4803 17.3402 52.1396 17.3994 51.7334 17.3994ZM60.7471 15.1206C60.0954 15.1206 59.5347 14.9767 59.0649 14.689C58.5994 14.4012 58.2397 13.995 57.9858 13.4702C57.7362 12.9412 57.6113 12.3192 57.6113 11.604V11.5977C57.6113 10.891 57.7362 10.271 57.9858 9.73779C58.2397 9.20459 58.5973 8.78776 59.0586 8.4873C59.5199 8.18685 60.0594 8.03662 60.6772 8.03662C61.2993 8.03662 61.8325 8.1805 62.2769 8.46826C62.7254 8.75602 63.0682 9.15804 63.3052 9.67432C63.5464 10.1864 63.667 10.783 63.667 11.4644V11.896H58.1826V11.0137H63.1021L62.5562 11.8198V11.3818C62.5562 10.8444 62.4757 10.4022 62.3149 10.0552C62.1541 9.70817 61.932 9.45003 61.6484 9.28076C61.3649 9.10726 61.0391 9.02051 60.6709 9.02051C60.3027 9.02051 59.9727 9.11149 59.6807 9.29346C59.3929 9.47119 59.1644 9.73568 58.9951 10.0869C58.8258 10.4382 58.7412 10.8698 58.7412 11.3818V11.8198C58.7412 12.3065 58.8237 12.7233 58.9888 13.0703C59.1538 13.4131 59.3887 13.6776 59.6934 13.8638C59.998 14.0457 60.3577 14.1367 60.7725 14.1367C61.0814 14.1367 61.3501 14.0944 61.5786 14.0098C61.8071 13.9251 61.9954 13.8172 62.1436 13.686C62.2917 13.5549 62.3953 13.4215 62.4546 13.2861L62.48 13.229H63.5845L63.5718 13.2798C63.5125 13.5125 63.4067 13.7389 63.2544 13.959C63.1063 14.1748 62.9137 14.3716 62.6768 14.5493C62.4398 14.7228 62.1584 14.8625 61.8325 14.9683C61.5109 15.0698 61.1491 15.1206 60.7471 15.1206ZM68.1738 15.1206C67.5221 15.1206 66.9614 14.9767 66.4917 14.689C66.0262 14.4012 65.6665 13.995 65.4126 13.4702C65.1629 12.9412 65.0381 12.3192 65.0381 11.604V11.5977C65.0381 10.891 65.1629 10.271 65.4126 9.73779C65.6665 9.20459 66.0241 8.78776 66.4854 8.4873C66.9466 8.18685 67.4862 8.03662 68.104 8.03662C68.7261 8.03662 69.2593 8.1805 69.7036 8.46826C70.1522 8.75602 70.495 9.15804 70.7319 9.67432C70.9731 10.1864 71.0938 10.783 71.0938 11.4644V11.896H65.6094V11.0137H70.5288L69.9829 11.8198V11.3818C69.9829 10.8444 69.9025 10.4022 69.7417 10.0552C69.5809 9.70817 69.3587 9.45003 69.0752 9.28076C68.7917 9.10726 68.4658 9.02051 68.0977 9.02051C67.7295 9.02051 67.3994 9.11149 67.1074 9.29346C66.8197 9.47119 66.5911 9.73568 66.4219 10.0869C66.2526 10.4382 66.168 10.8698 66.168 11.3818V11.8198C66.168 12.3065 66.2505 12.7233 66.4155 13.0703C66.5806 13.4131 66.8154 13.6776 67.1201 13.8638C67.4248 14.0457 67.7845 14.1367 68.1992 14.1367C68.5081 14.1367 68.7769 14.0944 69.0054 14.0098C69.2339 13.9251 69.4222 13.8172 69.5703 13.686C69.7184 13.5549 69.8221 13.4215 69.8813 13.2861L69.9067 13.229H71.0112L70.9985 13.2798C70.9393 13.5125 70.8335 13.7389 70.6812 13.959C70.533 14.1748 70.3405 14.3716 70.1035 14.5493C69.8665 14.7228 69.5851 14.8625 69.2593 14.9683C68.9377 15.0698 68.5758 15.1206 68.1738 15.1206ZM75.1562 15.1206C74.6484 15.1206 74.1999 15.0444 73.8105 14.8921C73.4212 14.7355 73.1081 14.5176 72.8711 14.2383C72.6383 13.959 72.5008 13.631 72.4585 13.2544H73.5884C73.6815 13.5379 73.8634 13.7664 74.1343 13.9399C74.4051 14.1134 74.7585 14.2002 75.1943 14.2002C75.5033 14.2002 75.7741 14.1558 76.0068 14.0669C76.2438 13.9738 76.43 13.849 76.5654 13.6924C76.7008 13.5316 76.7686 13.3475 76.7686 13.1401V13.1274C76.7686 12.8947 76.6755 12.6979 76.4893 12.5371C76.3031 12.3721 75.9984 12.2388 75.5752 12.1372L74.5151 11.8833C74.0877 11.7817 73.7365 11.6506 73.4614 11.4897C73.1864 11.3247 72.9832 11.1237 72.8521 10.8867C72.7209 10.6455 72.6553 10.362 72.6553 10.0361V10.0298C72.6553 9.64893 72.7653 9.30827 72.9854 9.00781C73.2096 8.70736 73.5143 8.47038 73.8994 8.29688C74.2845 8.12337 74.7183 8.03662 75.2007 8.03662C75.6789 8.03662 76.1021 8.11279 76.4702 8.26514C76.8426 8.41325 77.141 8.62484 77.3652 8.8999C77.5938 9.17497 77.7334 9.4987 77.7842 9.87109H76.6987C76.6268 9.60026 76.4618 9.38021 76.2036 9.21094C75.9455 9.04167 75.609 8.95703 75.1943 8.95703C74.9235 8.95703 74.6823 9.00146 74.4707 9.09033C74.2591 9.17497 74.092 9.29346 73.9692 9.4458C73.8465 9.59814 73.7852 9.77588 73.7852 9.979V9.9917C73.7852 10.144 73.8254 10.2795 73.9058 10.3979C73.9862 10.5164 74.111 10.6201 74.2803 10.709C74.4495 10.7979 74.6675 10.8761 74.9341 10.9438L75.9878 11.1978C76.631 11.3543 77.1092 11.5786 77.4224 11.8706C77.7397 12.1626 77.8984 12.554 77.8984 13.0449V13.0576C77.8984 13.4639 77.7778 13.8236 77.5366 14.1367C77.2954 14.4456 76.9674 14.6868 76.5527 14.8604C76.1423 15.0339 75.6768 15.1206 75.1562 15.1206Z" fill="black"/>
</svg>
