<svg width="93" height="22" viewBox="0 0 93 22" fill="none" xmlns="http://www.w3.org/2000/svg">
<g filter="url(#filter0_dd_520_7431)">
<rect x="1" y="1" width="90" height="20" rx="5" fill="white"/>
<rect x="0.75" y="0.75" width="90.5" height="20.5" rx="5.25" stroke="black" stroke-opacity="0.02" stroke-width="0.5"/>
<path d="M32.3018 16V7.86865H29.3501V6.84033H36.396V7.86865H33.4443V16H32.3018ZM38.5669 16.1206C38.1353 16.1206 37.7459 16.0381 37.3989 15.873C37.0562 15.708 36.7832 15.4731 36.5801 15.1685C36.3812 14.8638 36.2817 14.5041 36.2817 14.0894V14.0767C36.2817 13.6704 36.3791 13.3234 36.5737 13.0356C36.7684 12.7437 37.0519 12.5151 37.4243 12.3501C37.7967 12.1851 38.2474 12.0877 38.7764 12.0581L41.29 11.9058V12.7881L38.9097 12.9404C38.3892 12.9701 38.0083 13.078 37.7671 13.2642C37.5301 13.4504 37.4116 13.7127 37.4116 14.0513V14.064C37.4116 14.411 37.5428 14.6818 37.8052 14.8765C38.0675 15.0669 38.3976 15.1621 38.7954 15.1621C39.172 15.1621 39.5063 15.0881 39.7983 14.9399C40.0903 14.7876 40.3188 14.5824 40.4839 14.3242C40.6532 14.0661 40.7378 13.7741 40.7378 13.4482V11.3154C40.7378 10.8923 40.6087 10.5706 40.3506 10.3506C40.0967 10.1263 39.7137 10.0142 39.2017 10.0142C38.7912 10.0142 38.4548 10.0882 38.1924 10.2363C37.93 10.3802 37.7544 10.5854 37.6655 10.8521L37.6592 10.8711H36.5547L36.561 10.833C36.6203 10.4733 36.7684 10.1602 37.0054 9.89355C37.2466 9.62272 37.5576 9.41325 37.9385 9.26514C38.3193 9.11279 38.7531 9.03662 39.2397 9.03662C39.7983 9.03662 40.2702 9.1276 40.6553 9.30957C41.0446 9.49154 41.3387 9.75391 41.5376 10.0967C41.7407 10.4352 41.8423 10.8415 41.8423 11.3154V16H40.7378V14.9907H40.6362C40.4924 15.2319 40.3167 15.4372 40.1094 15.6064C39.9062 15.7757 39.6756 15.9048 39.4175 15.9937C39.1593 16.0783 38.8758 16.1206 38.5669 16.1206ZM46.2095 16.1206C45.7017 16.1206 45.2531 16.0444 44.8638 15.8921C44.4744 15.7355 44.1613 15.5176 43.9243 15.2383C43.6916 14.959 43.554 14.631 43.5117 14.2544H44.6416C44.7347 14.5379 44.9167 14.7664 45.1875 14.9399C45.4583 15.1134 45.8117 15.2002 46.2476 15.2002C46.5565 15.2002 46.8273 15.1558 47.0601 15.0669C47.297 14.9738 47.4832 14.849 47.6187 14.6924C47.7541 14.5316 47.8218 14.3475 47.8218 14.1401V14.1274C47.8218 13.8947 47.7287 13.6979 47.5425 13.5371C47.3563 13.3721 47.0516 13.2388 46.6284 13.1372L45.5684 12.8833C45.141 12.7817 44.7897 12.6506 44.5146 12.4897C44.2396 12.3247 44.0365 12.1237 43.9053 11.8867C43.7741 11.6455 43.7085 11.362 43.7085 11.0361V11.0298C43.7085 10.6489 43.8185 10.3083 44.0386 10.0078C44.2629 9.70736 44.5675 9.47038 44.9526 9.29688C45.3377 9.12337 45.7715 9.03662 46.2539 9.03662C46.7321 9.03662 47.1553 9.11279 47.5234 9.26514C47.8958 9.41325 48.1942 9.62484 48.4185 9.8999C48.647 10.175 48.7866 10.4987 48.8374 10.8711H47.752C47.68 10.6003 47.515 10.3802 47.2568 10.2109C46.9987 10.0417 46.6623 9.95703 46.2476 9.95703C45.9767 9.95703 45.7355 10.0015 45.5239 10.0903C45.3123 10.175 45.1452 10.2935 45.0225 10.4458C44.8997 10.5981 44.8384 10.7759 44.8384 10.979V10.9917C44.8384 11.144 44.8786 11.2795 44.959 11.3979C45.0394 11.5164 45.1642 11.6201 45.3335 11.709C45.5028 11.7979 45.7207 11.8761 45.9873 11.9438L47.041 12.1978C47.6842 12.3543 48.1624 12.5786 48.4756 12.8706C48.793 13.1626 48.9517 13.554 48.9517 14.0449V14.0576C48.9517 14.4639 48.8311 14.8236 48.5898 15.1367C48.3486 15.4456 48.0207 15.6868 47.606 15.8604C47.1955 16.0339 46.73 16.1206 46.2095 16.1206ZM50.729 16V6.44043H51.8335V16H50.729ZM55.0391 16L52.3667 12.6484L53.1792 11.9438L56.4292 16H55.0391ZM51.6938 13.5371L51.6431 12.147H51.9351L54.8931 9.15723H56.2324L52.9824 12.293L52.7158 12.5532L51.6938 13.5371ZM59.8188 16.1206C59.311 16.1206 58.8625 16.0444 58.4731 15.8921C58.0838 15.7355 57.7707 15.5176 57.5337 15.2383C57.3009 14.959 57.1634 14.631 57.1211 14.2544H58.251C58.3441 14.5379 58.526 14.7664 58.7969 14.9399C59.0677 15.1134 59.4211 15.2002 59.8569 15.2002C60.1659 15.2002 60.4367 15.1558 60.6694 15.0669C60.9064 14.9738 61.0926 14.849 61.228 14.6924C61.3634 14.5316 61.4312 14.3475 61.4312 14.1401V14.1274C61.4312 13.8947 61.3381 13.6979 61.1519 13.5371C60.9657 13.3721 60.661 13.2388 60.2378 13.1372L59.1777 12.8833C58.7503 12.7817 58.3991 12.6506 58.124 12.4897C57.849 12.3247 57.6458 12.1237 57.5146 11.8867C57.3835 11.6455 57.3179 11.362 57.3179 11.0361V11.0298C57.3179 10.6489 57.4279 10.3083 57.6479 10.0078C57.8722 9.70736 58.1769 9.47038 58.562 9.29688C58.9471 9.12337 59.3809 9.03662 59.8633 9.03662C60.3415 9.03662 60.7646 9.11279 61.1328 9.26514C61.5052 9.41325 61.8035 9.62484 62.0278 9.8999C62.2563 10.175 62.396 10.4987 62.4468 10.8711H61.3613C61.2894 10.6003 61.1243 10.3802 60.8662 10.2109C60.6081 10.0417 60.2716 9.95703 59.8569 9.95703C59.5861 9.95703 59.3449 10.0015 59.1333 10.0903C58.9217 10.175 58.7546 10.2935 58.6318 10.4458C58.5091 10.5981 58.4478 10.7759 58.4478 10.979V10.9917C58.4478 11.144 58.488 11.2795 58.5684 11.3979C58.6488 11.5164 58.7736 11.6201 58.9429 11.709C59.1121 11.7979 59.3301 11.8761 59.5967 11.9438L60.6504 12.1978C61.2936 12.3543 61.7718 12.5786 62.085 12.8706C62.4023 13.1626 62.561 13.554 62.561 14.0449V14.0576C62.561 14.4639 62.4404 14.8236 62.1992 15.1367C61.958 15.4456 61.63 15.6868 61.2153 15.8604C60.8049 16.0339 60.3394 16.1206 59.8188 16.1206Z" fill="black" fill-opacity="0.85"/>
</g>
<defs>
<filter id="filter0_dd_520_7431" x="-0.25" y="0.5" width="92.5" height="22.75" filterUnits="userSpaceOnUse" color-interpolation-filters="sRGB">
<feFlood flood-opacity="0" result="BackgroundImageFix"/>
<feColorMatrix in="SourceAlpha" type="matrix" values="0 0 0 0 0 0 0 0 0 0 0 0 0 0 0 0 0 0 127 0" result="hardAlpha"/>
<feOffset dy="1"/>
<feGaussianBlur stdDeviation="0.375"/>
<feColorMatrix type="matrix" values="0 0 0 0 0 0 0 0 0 0 0 0 0 0 0 0 0 0 0.05 0"/>
<feBlend mode="normal" in2="BackgroundImageFix" result="effect1_dropShadow_520_7431"/>
<feColorMatrix in="SourceAlpha" type="matrix" values="0 0 0 0 0 0 0 0 0 0 0 0 0 0 0 0 0 0 127 0" result="hardAlpha"/>
<feOffset dy="0.25"/>
<feGaussianBlur stdDeviation="0.125"/>
<feColorMatrix type="matrix" values="0 0 0 0 0 0 0 0 0 0 0 0 0 0 0 0 0 0 0.15 0"/>
<feBlend mode="normal" in2="effect1_dropShadow_520_7431" result="effect2_dropShadow_520_7431"/>
<feBlend mode="normal" in="SourceGraphic" in2="effect2_dropShadow_520_7431" result="shape"/>
</filter>
</defs>
</svg>
