<svg width="431" height="37" viewBox="0 0 431 37" fill="none" xmlns="http://www.w3.org/2000/svg">
<mask id="path-1-inside-1_510_6726" fill="white">
<path d="M0 0H431V37H0V0Z"/>
</mask>
<path d="M431 36H0V38H431V36Z" fill="black" fill-opacity="0.05" mask="url(#path-1-inside-1_510_6726)"/>
<path d="M3.54834 23.5V15.3687H0.59668V14.3403H7.64258V15.3687H4.69092V23.5H3.54834ZM8.31543 23.5V16.6572H9.41992V17.6729H9.52148C9.65267 17.3132 9.87484 17.0339 10.188 16.835C10.5011 16.6361 10.8883 16.5366 11.3496 16.5366C11.4554 16.5366 11.5591 16.543 11.6606 16.5557C11.7664 16.5641 11.8468 16.5726 11.9019 16.5811V17.6538C11.7876 17.6326 11.6755 17.6178 11.5654 17.6094C11.4596 17.5967 11.3454 17.5903 11.2227 17.5903C10.8714 17.5903 10.5604 17.6602 10.2896 17.7998C10.0187 17.9395 9.80501 18.1341 9.64844 18.3838C9.49609 18.6335 9.41992 18.9255 9.41992 19.2598V23.5H8.31543ZM15.1455 23.6206C14.7139 23.6206 14.3245 23.5381 13.9775 23.373C13.6348 23.208 13.3618 22.9731 13.1587 22.6685C12.9598 22.3638 12.8604 22.0041 12.8604 21.5894V21.5767C12.8604 21.1704 12.9577 20.8234 13.1523 20.5356C13.347 20.2437 13.6305 20.0151 14.0029 19.8501C14.3753 19.6851 14.826 19.5877 15.355 19.5581L17.8687 19.4058V20.2881L15.4883 20.4404C14.9678 20.4701 14.5869 20.578 14.3457 20.7642C14.1087 20.9504 13.9902 21.2127 13.9902 21.5513V21.564C13.9902 21.911 14.1214 22.1818 14.3838 22.3765C14.6462 22.5669 14.9762 22.6621 15.374 22.6621C15.7507 22.6621 16.085 22.5881 16.377 22.4399C16.6689 22.2876 16.8975 22.0824 17.0625 21.8242C17.2318 21.5661 17.3164 21.2741 17.3164 20.9482V18.8154C17.3164 18.3923 17.1873 18.0706 16.9292 17.8506C16.6753 17.6263 16.2923 17.5142 15.7803 17.5142C15.3698 17.5142 15.0334 17.5882 14.771 17.7363C14.5086 17.8802 14.333 18.0854 14.2441 18.3521L14.2378 18.3711H13.1333L13.1396 18.333C13.1989 17.9733 13.347 17.6602 13.584 17.3936C13.8252 17.1227 14.1362 16.9132 14.5171 16.7651C14.8979 16.6128 15.3317 16.5366 15.8184 16.5366C16.377 16.5366 16.8488 16.6276 17.2339 16.8096C17.6232 16.9915 17.9173 17.2539 18.1162 17.5967C18.3193 17.9352 18.4209 18.3415 18.4209 18.8154V23.5H17.3164V22.4907H17.2148C17.071 22.7319 16.8953 22.9372 16.688 23.1064C16.4849 23.2757 16.2542 23.4048 15.9961 23.4937C15.738 23.5783 15.4544 23.6206 15.1455 23.6206ZM20.4395 23.5V16.6572H21.5439V17.6855H21.6455C21.819 17.3216 22.0687 17.0402 22.3945 16.8413C22.7204 16.6382 23.1351 16.5366 23.6387 16.5366C24.4089 16.5366 24.9992 16.7567 25.4097 17.1968C25.8244 17.6326 26.0317 18.2568 26.0317 19.0693V23.5H24.9272V19.3359C24.9272 18.7181 24.7961 18.2611 24.5337 17.9648C24.2756 17.6644 23.8735 17.5142 23.3276 17.5142C22.9637 17.5142 22.6484 17.5924 22.3818 17.749C22.1152 17.9056 21.9079 18.1278 21.7598 18.4155C21.6159 18.7033 21.5439 19.0482 21.5439 19.4502V23.5H20.4395ZM30.3799 23.6206C29.8721 23.6206 29.4235 23.5444 29.0342 23.3921C28.6449 23.2355 28.3317 23.0176 28.0947 22.7383C27.862 22.459 27.7244 22.131 27.6821 21.7544H28.812C28.9051 22.0379 29.0871 22.2664 29.3579 22.4399C29.6287 22.6134 29.9821 22.7002 30.418 22.7002C30.7269 22.7002 30.9977 22.6558 31.2305 22.5669C31.4674 22.4738 31.6536 22.349 31.7891 22.1924C31.9245 22.0316 31.9922 21.8475 31.9922 21.6401V21.6274C31.9922 21.3947 31.8991 21.1979 31.7129 21.0371C31.5267 20.8721 31.222 20.7388 30.7988 20.6372L29.7388 20.3833C29.3114 20.2817 28.9601 20.1506 28.6851 19.9897C28.41 19.8247 28.2069 19.6237 28.0757 19.3867C27.9445 19.1455 27.8789 18.862 27.8789 18.5361V18.5298C27.8789 18.1489 27.9889 17.8083 28.209 17.5078C28.4333 17.2074 28.738 16.9704 29.123 16.7969C29.5081 16.6234 29.9419 16.5366 30.4243 16.5366C30.9025 16.5366 31.3257 16.6128 31.6938 16.7651C32.0662 16.9132 32.3646 17.1248 32.5889 17.3999C32.8174 17.675 32.957 17.9987 33.0078 18.3711H31.9224C31.8504 18.1003 31.6854 17.8802 31.4272 17.7109C31.1691 17.5417 30.8327 17.457 30.418 17.457C30.1471 17.457 29.9059 17.5015 29.6943 17.5903C29.4827 17.675 29.3156 17.7935 29.1929 17.9458C29.0701 18.0981 29.0088 18.2759 29.0088 18.479V18.4917C29.0088 18.644 29.049 18.7795 29.1294 18.8979C29.2098 19.0164 29.3346 19.1201 29.5039 19.209C29.6732 19.2979 29.8911 19.3761 30.1577 19.4438L31.2114 19.6978C31.8547 19.8543 32.3328 20.0786 32.646 20.3706C32.9634 20.6626 33.1221 21.054 33.1221 21.5449V21.5576C33.1221 21.9639 33.0015 22.3236 32.7603 22.6367C32.519 22.9456 32.1911 23.1868 31.7764 23.3604C31.3659 23.5339 30.9004 23.6206 30.3799 23.6206ZM36.7148 23.6206C36.2832 23.6206 35.8939 23.5381 35.5469 23.373C35.2041 23.208 34.9312 22.9731 34.728 22.6685C34.5291 22.3638 34.4297 22.0041 34.4297 21.5894V21.5767C34.4297 21.1704 34.527 20.8234 34.7217 20.5356C34.9163 20.2437 35.1999 20.0151 35.5723 19.8501C35.9447 19.6851 36.3953 19.5877 36.9243 19.5581L39.438 19.4058V20.2881L37.0576 20.4404C36.5371 20.4701 36.1562 20.578 35.915 20.7642C35.6781 20.9504 35.5596 21.2127 35.5596 21.5513V21.564C35.5596 21.911 35.6908 22.1818 35.9531 22.3765C36.2155 22.5669 36.5456 22.6621 36.9434 22.6621C37.32 22.6621 37.6543 22.5881 37.9463 22.4399C38.2383 22.2876 38.4668 22.0824 38.6318 21.8242C38.8011 21.5661 38.8857 21.2741 38.8857 20.9482V18.8154C38.8857 18.3923 38.7567 18.0706 38.4985 17.8506C38.2446 17.6263 37.8617 17.5142 37.3496 17.5142C36.9391 17.5142 36.6027 17.5882 36.3403 17.7363C36.078 17.8802 35.9023 18.0854 35.8135 18.3521L35.8071 18.3711H34.7026L34.709 18.333C34.7682 17.9733 34.9163 17.6602 35.1533 17.3936C35.3945 17.1227 35.7056 16.9132 36.0864 16.7651C36.4673 16.6128 36.901 16.5366 37.3877 16.5366C37.9463 16.5366 38.4181 16.6276 38.8032 16.8096C39.1925 16.9915 39.4867 17.2539 39.6855 17.5967C39.8887 17.9352 39.9902 18.3415 39.9902 18.8154V23.5H38.8857V22.4907H38.7842C38.6403 22.7319 38.4647 22.9372 38.2573 23.1064C38.0542 23.2757 37.8236 23.4048 37.5654 23.4937C37.3073 23.5783 37.0238 23.6206 36.7148 23.6206ZM44.8081 23.6206C44.1691 23.6206 43.6147 23.4746 43.145 23.1826C42.6753 22.8906 42.3114 22.478 42.0532 21.9448C41.7951 21.4116 41.666 20.7832 41.666 20.0596V20.0469C41.666 19.3359 41.793 18.7181 42.0469 18.1934C42.305 17.6686 42.6689 17.2624 43.1387 16.9746C43.6084 16.6826 44.1628 16.5366 44.8018 16.5366C45.3561 16.5366 45.8343 16.634 46.2363 16.8286C46.6383 17.0233 46.96 17.2856 47.2012 17.6157C47.4424 17.9416 47.5968 18.3076 47.6646 18.7139L47.6709 18.752H46.5728L46.5664 18.7329C46.4818 18.3944 46.2892 18.1066 45.9888 17.8696C45.6883 17.6326 45.2926 17.5142 44.8018 17.5142C44.3913 17.5142 44.0358 17.6178 43.7354 17.8252C43.4349 18.0326 43.2021 18.3267 43.0371 18.7075C42.8763 19.0841 42.7959 19.5306 42.7959 20.0469V20.0596C42.7959 20.5843 42.8784 21.0413 43.0435 21.4307C43.2085 21.8158 43.4412 22.1141 43.7417 22.3257C44.0422 22.5373 44.3955 22.6431 44.8018 22.6431C45.263 22.6431 45.6396 22.5436 45.9316 22.3447C46.2236 22.1458 46.4331 21.856 46.5601 21.4751L46.5728 21.437L47.6646 21.4307L47.6519 21.5005C47.5588 21.911 47.3937 22.277 47.1567 22.5986C46.9198 22.916 46.6066 23.1657 46.2173 23.3477C45.828 23.5296 45.3582 23.6206 44.8081 23.6206ZM51.8413 23.5508C51.1388 23.5508 50.6289 23.409 50.3115 23.1255C49.9984 22.842 49.8418 22.3743 49.8418 21.7227V17.5713H48.7627V16.6572H49.8418V14.8862H50.9844V16.6572H52.4824V17.5713H50.9844V21.4434C50.9844 21.8454 51.0605 22.1353 51.2129 22.313C51.3652 22.4865 51.6191 22.5732 51.9746 22.5732C52.0719 22.5732 52.1545 22.5711 52.2222 22.5669C52.2941 22.5627 52.3809 22.5563 52.4824 22.5479V23.4873C52.3766 23.5042 52.2708 23.519 52.165 23.5317C52.0592 23.5444 51.9513 23.5508 51.8413 23.5508ZM54.1582 23.5V16.6572H55.2627V23.5H54.1582ZM54.7168 15.3369C54.5094 15.3369 54.3296 15.2629 54.1772 15.1147C54.0291 14.9624 53.9551 14.7826 53.9551 14.5752C53.9551 14.3636 54.0291 14.1838 54.1772 14.0356C54.3296 13.8875 54.5094 13.8135 54.7168 13.8135C54.9284 13.8135 55.1082 13.8875 55.2563 14.0356C55.4045 14.1838 55.4785 14.3636 55.4785 14.5752C55.4785 14.7826 55.4045 14.9624 55.2563 15.1147C55.1082 15.2629 54.9284 15.3369 54.7168 15.3369ZM60.1567 23.6206C59.5093 23.6206 58.9486 23.4788 58.4746 23.1953C58.0049 22.9076 57.641 22.4992 57.3828 21.9702C57.1289 21.4412 57.002 20.8128 57.002 20.085V20.0723C57.002 19.3402 57.1289 18.7096 57.3828 18.1807C57.641 17.6517 58.0049 17.2454 58.4746 16.9619C58.9486 16.6784 59.5093 16.5366 60.1567 16.5366C60.8084 16.5366 61.3691 16.6784 61.8389 16.9619C62.3086 17.2454 62.6704 17.6517 62.9243 18.1807C63.1825 18.7096 63.3115 19.3402 63.3115 20.0723V20.085C63.3115 20.8128 63.1825 21.4412 62.9243 21.9702C62.6704 22.4992 62.3086 22.9076 61.8389 23.1953C61.3691 23.4788 60.8084 23.6206 60.1567 23.6206ZM60.1567 22.6431C60.5884 22.6431 60.9544 22.5415 61.2549 22.3384C61.5553 22.1353 61.7839 21.8433 61.9404 21.4624C62.1012 21.0815 62.1816 20.6224 62.1816 20.085V20.0723C62.1816 19.5306 62.1012 19.0693 61.9404 18.6885C61.7839 18.3076 61.5553 18.0177 61.2549 17.8188C60.9544 17.6157 60.5884 17.5142 60.1567 17.5142C59.7251 17.5142 59.359 17.6157 59.0586 17.8188C58.7581 18.0177 58.5275 18.3076 58.3667 18.6885C58.2101 19.0693 58.1318 19.5306 58.1318 20.0723V20.085C58.1318 20.6224 58.2101 21.0815 58.3667 21.4624C58.5275 21.8433 58.7581 22.1353 59.0586 22.3384C59.359 22.5415 59.7251 22.6431 60.1567 22.6431ZM65.0254 23.5V16.6572H66.1299V17.6855H66.2314C66.4049 17.3216 66.6546 17.0402 66.9805 16.8413C67.3063 16.6382 67.721 16.5366 68.2246 16.5366C68.9948 16.5366 69.5851 16.7567 69.9956 17.1968C70.4103 17.6326 70.6177 18.2568 70.6177 19.0693V23.5H69.5132V19.3359C69.5132 18.7181 69.382 18.2611 69.1196 17.9648C68.8615 17.6644 68.4595 17.5142 67.9136 17.5142C67.5496 17.5142 67.2344 17.5924 66.9678 17.749C66.7012 17.9056 66.4938 18.1278 66.3457 18.4155C66.2018 18.7033 66.1299 19.0482 66.1299 19.4502V23.5H65.0254Z" fill="black" fill-opacity="0.85"/>
</svg>
