<svg width="162" height="25" viewBox="0 0 162 25" fill="none" xmlns="http://www.w3.org/2000/svg">
<rect x="0.75" y="0.75" width="160.5" height="23.5" rx="5.25" stroke="black" stroke-opacity="0.1" stroke-width="0.5"/>
<path d="M130.606 17.5V9.36865H127.654V8.34033H134.7V9.36865H131.749V17.5H130.606ZM136.871 17.6206C136.439 17.6206 136.05 17.5381 135.703 17.373C135.36 17.208 135.087 16.9731 134.884 16.6685C134.685 16.3638 134.586 16.0041 134.586 15.5894V15.5767C134.586 15.1704 134.683 14.8234 134.878 14.5356C135.073 14.2437 135.356 14.0151 135.729 13.8501C136.101 13.6851 136.552 13.5877 137.081 13.5581L139.594 13.4058V14.2881L137.214 14.4404C136.693 14.4701 136.312 14.578 136.071 14.7642C135.834 14.9504 135.716 15.2127 135.716 15.5513V15.564C135.716 15.911 135.847 16.1818 136.109 16.3765C136.372 16.5669 136.702 16.6621 137.1 16.6621C137.476 16.6621 137.811 16.5881 138.103 16.4399C138.395 16.2876 138.623 16.0824 138.788 15.8242C138.957 15.5661 139.042 15.2741 139.042 14.9482V12.8154C139.042 12.3923 138.913 12.0706 138.655 11.8506C138.401 11.6263 138.018 11.5142 137.506 11.5142C137.095 11.5142 136.759 11.5882 136.497 11.7363C136.234 11.8802 136.059 12.0854 135.97 12.3521L135.963 12.3711H134.859L134.865 12.333C134.924 11.9733 135.073 11.6602 135.31 11.3936C135.551 11.1227 135.862 10.9132 136.243 10.7651C136.624 10.6128 137.057 10.5366 137.544 10.5366C138.103 10.5366 138.574 10.6276 138.959 10.8096C139.349 10.9915 139.643 11.2539 139.842 11.5967C140.045 11.9352 140.146 12.3415 140.146 12.8154V17.5H139.042V16.4907H138.94C138.797 16.7319 138.621 16.9372 138.414 17.1064C138.21 17.2757 137.98 17.4048 137.722 17.4937C137.464 17.5783 137.18 17.6206 136.871 17.6206ZM144.514 17.6206C144.006 17.6206 143.557 17.5444 143.168 17.3921C142.779 17.2355 142.465 17.0176 142.229 16.7383C141.996 16.459 141.858 16.131 141.816 15.7544H142.946C143.039 16.0379 143.221 16.2664 143.492 16.4399C143.763 16.6134 144.116 16.7002 144.552 16.7002C144.861 16.7002 145.132 16.6558 145.364 16.5669C145.601 16.4738 145.787 16.349 145.923 16.1924C146.058 16.0316 146.126 15.8475 146.126 15.6401V15.6274C146.126 15.3947 146.033 15.1979 145.847 15.0371C145.66 14.8721 145.356 14.7388 144.933 14.6372L143.873 14.3833C143.445 14.2817 143.094 14.1506 142.819 13.9897C142.544 13.8247 142.341 13.6237 142.209 13.3867C142.078 13.1455 142.013 12.862 142.013 12.5361V12.5298C142.013 12.1489 142.123 11.8083 142.343 11.5078C142.567 11.2074 142.872 10.9704 143.257 10.7969C143.642 10.6234 144.076 10.5366 144.558 10.5366C145.036 10.5366 145.459 10.6128 145.828 10.7651C146.2 10.9132 146.498 11.1248 146.723 11.3999C146.951 11.675 147.091 11.9987 147.142 12.3711H146.056C145.984 12.1003 145.819 11.8802 145.561 11.7109C145.303 11.5417 144.966 11.457 144.552 11.457C144.281 11.457 144.04 11.5015 143.828 11.5903C143.617 11.675 143.449 11.7935 143.327 11.9458C143.204 12.0981 143.143 12.2759 143.143 12.479V12.4917C143.143 12.644 143.183 12.7795 143.263 12.8979C143.344 13.0164 143.468 13.1201 143.638 13.209C143.807 13.2979 144.025 13.3761 144.292 13.4438L145.345 13.6978C145.988 13.8543 146.467 14.0786 146.78 14.3706C147.097 14.6626 147.256 15.054 147.256 15.5449V15.5576C147.256 15.9639 147.135 16.3236 146.894 16.6367C146.653 16.9456 146.325 17.1868 145.91 17.3604C145.5 17.5339 145.034 17.6206 144.514 17.6206ZM149.033 17.5V7.94043H150.138V17.5H149.033ZM153.343 17.5L150.671 14.1484L151.483 13.4438L154.733 17.5H153.343ZM149.998 15.0371L149.947 13.647H150.239L153.197 10.6572H154.537L151.287 13.793L151.02 14.0532L149.998 15.0371Z" fill="black" fill-opacity="0.25"/>
</svg>
