<svg width="161" height="25" viewBox="0 0 161 25" fill="none" xmlns="http://www.w3.org/2000/svg">
<rect x="0.75" y="0.75" width="159.5" height="23.5" rx="5.25" stroke="black" stroke-opacity="0.1" stroke-width="0.5"/>
<path d="M85.9595 17.5V9.36865H83.0078V8.34033H90.0537V9.36865H87.1021V17.5H85.9595ZM90.7266 17.5V10.6572H91.8311V11.6729H91.9326C92.0638 11.3132 92.286 11.0339 92.5991 10.835C92.9123 10.6361 93.2995 10.5366 93.7607 10.5366C93.8665 10.5366 93.9702 10.543 94.0718 10.5557C94.1776 10.5641 94.258 10.5726 94.313 10.5811V11.6538C94.1987 11.6326 94.0866 11.6178 93.9766 11.6094C93.8708 11.5967 93.7565 11.5903 93.6338 11.5903C93.2826 11.5903 92.9715 11.6602 92.7007 11.7998C92.4299 11.9395 92.2161 12.1341 92.0596 12.3838C91.9072 12.6335 91.8311 12.9255 91.8311 13.2598V17.5H90.7266ZM97.5566 17.6206C97.125 17.6206 96.7357 17.5381 96.3887 17.373C96.0459 17.208 95.7729 16.9731 95.5698 16.6685C95.3709 16.3638 95.2715 16.0041 95.2715 15.5894V15.5767C95.2715 15.1704 95.3688 14.8234 95.5635 14.5356C95.7581 14.2437 96.0417 14.0151 96.4141 13.8501C96.7865 13.6851 97.2371 13.5877 97.7661 13.5581L100.28 13.4058V14.2881L97.8994 14.4404C97.3789 14.4701 96.998 14.578 96.7568 14.7642C96.5199 14.9504 96.4014 15.2127 96.4014 15.5513V15.564C96.4014 15.911 96.5326 16.1818 96.7949 16.3765C97.0573 16.5669 97.3874 16.6621 97.7852 16.6621C98.1618 16.6621 98.4961 16.5881 98.7881 16.4399C99.0801 16.2876 99.3086 16.0824 99.4736 15.8242C99.6429 15.5661 99.7275 15.2741 99.7275 14.9482V12.8154C99.7275 12.3923 99.5985 12.0706 99.3403 11.8506C99.0864 11.6263 98.7035 11.5142 98.1914 11.5142C97.7809 11.5142 97.4445 11.5882 97.1821 11.7363C96.9198 11.8802 96.7441 12.0854 96.6553 12.3521L96.6489 12.3711H95.5444L95.5508 12.333C95.61 11.9733 95.7581 11.6602 95.9951 11.3936C96.2363 11.1227 96.5474 10.9132 96.9282 10.7651C97.3091 10.6128 97.7428 10.5366 98.2295 10.5366C98.7881 10.5366 99.2599 10.6276 99.645 10.8096C100.034 10.9915 100.328 11.2539 100.527 11.5967C100.73 11.9352 100.832 12.3415 100.832 12.8154V17.5H99.7275V16.4907H99.626C99.4821 16.7319 99.3065 16.9372 99.0991 17.1064C98.896 17.2757 98.6654 17.4048 98.4072 17.4937C98.1491 17.5783 97.8656 17.6206 97.5566 17.6206ZM102.851 17.5V10.6572H103.955V11.6855H104.057C104.23 11.3216 104.48 11.0402 104.806 10.8413C105.132 10.6382 105.546 10.5366 106.05 10.5366C106.82 10.5366 107.41 10.7567 107.821 11.1968C108.236 11.6326 108.443 12.2568 108.443 13.0693V17.5H107.338V13.3359C107.338 12.7181 107.207 12.2611 106.945 11.9648C106.687 11.6644 106.285 11.5142 105.739 11.5142C105.375 11.5142 105.06 11.5924 104.793 11.749C104.526 11.9056 104.319 12.1278 104.171 12.4155C104.027 12.7033 103.955 13.0482 103.955 13.4502V17.5H102.851ZM112.791 17.6206C112.283 17.6206 111.835 17.5444 111.445 17.3921C111.056 17.2355 110.743 17.0176 110.506 16.7383C110.273 16.459 110.136 16.131 110.093 15.7544H111.223C111.316 16.0379 111.498 16.2664 111.769 16.4399C112.04 16.6134 112.393 16.7002 112.829 16.7002C113.138 16.7002 113.409 16.6558 113.642 16.5669C113.879 16.4738 114.065 16.349 114.2 16.1924C114.336 16.0316 114.403 15.8475 114.403 15.6401V15.6274C114.403 15.3947 114.31 15.1979 114.124 15.0371C113.938 14.8721 113.633 14.7388 113.21 14.6372L112.15 14.3833C111.722 14.2817 111.371 14.1506 111.096 13.9897C110.821 13.8247 110.618 13.6237 110.487 13.3867C110.356 13.1455 110.29 12.862 110.29 12.5361V12.5298C110.29 12.1489 110.4 11.8083 110.62 11.5078C110.844 11.2074 111.149 10.9704 111.534 10.7969C111.919 10.6234 112.353 10.5366 112.835 10.5366C113.314 10.5366 113.737 10.6128 114.105 10.7651C114.477 10.9132 114.776 11.1248 115 11.3999C115.229 11.675 115.368 11.9987 115.419 12.3711H114.333C114.262 12.1003 114.097 11.8802 113.838 11.7109C113.58 11.5417 113.244 11.457 112.829 11.457C112.558 11.457 112.317 11.5015 112.105 11.5903C111.894 11.675 111.727 11.7935 111.604 11.9458C111.481 12.0981 111.42 12.2759 111.42 12.479V12.4917C111.42 12.644 111.46 12.7795 111.541 12.8979C111.621 13.0164 111.746 13.1201 111.915 13.209C112.084 13.2979 112.302 13.3761 112.569 13.4438L113.623 13.6978C114.266 13.8543 114.744 14.0786 115.057 14.3706C115.375 14.6626 115.533 15.054 115.533 15.5449V15.5576C115.533 15.9639 115.413 16.3236 115.171 16.6367C114.93 16.9456 114.602 17.1868 114.188 17.3604C113.777 17.5339 113.312 17.6206 112.791 17.6206ZM119.126 17.6206C118.694 17.6206 118.305 17.5381 117.958 17.373C117.615 17.208 117.342 16.9731 117.139 16.6685C116.94 16.3638 116.841 16.0041 116.841 15.5894V15.5767C116.841 15.1704 116.938 14.8234 117.133 14.5356C117.327 14.2437 117.611 14.0151 117.983 13.8501C118.356 13.6851 118.806 13.5877 119.335 13.5581L121.849 13.4058V14.2881L119.469 14.4404C118.948 14.4701 118.567 14.578 118.326 14.7642C118.089 14.9504 117.971 15.2127 117.971 15.5513V15.564C117.971 15.911 118.102 16.1818 118.364 16.3765C118.627 16.5669 118.957 16.6621 119.354 16.6621C119.731 16.6621 120.065 16.5881 120.357 16.4399C120.649 16.2876 120.878 16.0824 121.043 15.8242C121.212 15.5661 121.297 15.2741 121.297 14.9482V12.8154C121.297 12.3923 121.168 12.0706 120.91 11.8506C120.656 11.6263 120.273 11.5142 119.761 11.5142C119.35 11.5142 119.014 11.5882 118.751 11.7363C118.489 11.8802 118.313 12.0854 118.225 12.3521L118.218 12.3711H117.114L117.12 12.333C117.179 11.9733 117.327 11.6602 117.564 11.3936C117.806 11.1227 118.117 10.9132 118.498 10.7651C118.878 10.6128 119.312 10.5366 119.799 10.5366C120.357 10.5366 120.829 10.6276 121.214 10.8096C121.604 10.9915 121.898 11.2539 122.097 11.5967C122.3 11.9352 122.401 12.3415 122.401 12.8154V17.5H121.297V16.4907H121.195C121.051 16.7319 120.876 16.9372 120.668 17.1064C120.465 17.2757 120.235 17.4048 119.977 17.4937C119.718 17.5783 119.435 17.6206 119.126 17.6206ZM127.219 17.6206C126.58 17.6206 126.026 17.4746 125.556 17.1826C125.086 16.8906 124.722 16.478 124.464 15.9448C124.206 15.4116 124.077 14.7832 124.077 14.0596V14.0469C124.077 13.3359 124.204 12.7181 124.458 12.1934C124.716 11.6686 125.08 11.2624 125.55 10.9746C126.02 10.6826 126.574 10.5366 127.213 10.5366C127.767 10.5366 128.245 10.634 128.647 10.8286C129.049 11.0233 129.371 11.2856 129.612 11.6157C129.854 11.9416 130.008 12.3076 130.076 12.7139L130.082 12.752H128.984L128.978 12.7329C128.893 12.3944 128.7 12.1066 128.4 11.8696C128.099 11.6326 127.704 11.5142 127.213 11.5142C126.802 11.5142 126.447 11.6178 126.146 11.8252C125.846 12.0326 125.613 12.3267 125.448 12.7075C125.287 13.0841 125.207 13.5306 125.207 14.0469V14.0596C125.207 14.5843 125.29 15.0413 125.455 15.4307C125.62 15.8158 125.852 16.1141 126.153 16.3257C126.453 16.5373 126.807 16.6431 127.213 16.6431C127.674 16.6431 128.051 16.5436 128.343 16.3447C128.635 16.1458 128.844 15.856 128.971 15.4751L128.984 15.437L130.076 15.4307L130.063 15.5005C129.97 15.911 129.805 16.277 129.568 16.5986C129.331 16.916 129.018 17.1657 128.628 17.3477C128.239 17.5296 127.769 17.6206 127.219 17.6206ZM134.252 17.5508C133.55 17.5508 133.04 17.409 132.723 17.1255C132.41 16.842 132.253 16.3743 132.253 15.7227V11.5713H131.174V10.6572H132.253V8.88623H133.396V10.6572H134.894V11.5713H133.396V15.4434C133.396 15.8454 133.472 16.1353 133.624 16.313C133.776 16.4865 134.03 16.5732 134.386 16.5732C134.483 16.5732 134.566 16.5711 134.633 16.5669C134.705 16.5627 134.792 16.5563 134.894 16.5479V17.4873C134.788 17.5042 134.682 17.519 134.576 17.5317C134.47 17.5444 134.362 17.5508 134.252 17.5508ZM136.569 17.5V10.6572H137.674V17.5H136.569ZM137.128 9.33691C136.921 9.33691 136.741 9.26286 136.588 9.11475C136.44 8.9624 136.366 8.78255 136.366 8.5752C136.366 8.36361 136.44 8.18376 136.588 8.03564C136.741 7.88753 136.921 7.81348 137.128 7.81348C137.34 7.81348 137.519 7.88753 137.667 8.03564C137.816 8.18376 137.89 8.36361 137.89 8.5752C137.89 8.78255 137.816 8.9624 137.667 9.11475C137.519 9.26286 137.34 9.33691 137.128 9.33691ZM142.568 17.6206C141.92 17.6206 141.36 17.4788 140.886 17.1953C140.416 16.9076 140.052 16.4992 139.794 15.9702C139.54 15.4412 139.413 14.8128 139.413 14.085V14.0723C139.413 13.3402 139.54 12.7096 139.794 12.1807C140.052 11.6517 140.416 11.2454 140.886 10.9619C141.36 10.6784 141.92 10.5366 142.568 10.5366C143.22 10.5366 143.78 10.6784 144.25 10.9619C144.72 11.2454 145.082 11.6517 145.335 12.1807C145.594 12.7096 145.723 13.3402 145.723 14.0723V14.085C145.723 14.8128 145.594 15.4412 145.335 15.9702C145.082 16.4992 144.72 16.9076 144.25 17.1953C143.78 17.4788 143.22 17.6206 142.568 17.6206ZM142.568 16.6431C143 16.6431 143.366 16.5415 143.666 16.3384C143.966 16.1353 144.195 15.8433 144.352 15.4624C144.512 15.0815 144.593 14.6224 144.593 14.085V14.0723C144.593 13.5306 144.512 13.0693 144.352 12.6885C144.195 12.3076 143.966 12.0177 143.666 11.8188C143.366 11.6157 143 11.5142 142.568 11.5142C142.136 11.5142 141.77 11.6157 141.47 11.8188C141.169 12.0177 140.939 12.3076 140.778 12.6885C140.621 13.0693 140.543 13.5306 140.543 14.0723V14.085C140.543 14.6224 140.621 15.0815 140.778 15.4624C140.939 15.8433 141.169 16.1353 141.47 16.3384C141.77 16.5415 142.136 16.6431 142.568 16.6431ZM147.437 17.5V10.6572H148.541V11.6855H148.643C148.816 11.3216 149.066 11.0402 149.392 10.8413C149.717 10.6382 150.132 10.5366 150.636 10.5366C151.406 10.5366 151.996 10.7567 152.407 11.1968C152.821 11.6326 153.029 12.2568 153.029 13.0693V17.5H151.924V13.3359C151.924 12.7181 151.793 12.2611 151.531 11.9648C151.273 11.6644 150.871 11.5142 150.325 11.5142C149.961 11.5142 149.646 11.5924 149.379 11.749C149.112 11.9056 148.905 12.1278 148.757 12.4155C148.613 12.7033 148.541 13.0482 148.541 13.4502V17.5H147.437Z" fill="black" fill-opacity="0.25"/>
</svg>
