<svg width="431" height="36" viewBox="0 0 431 36" fill="none" xmlns="http://www.w3.org/2000/svg">
<mask id="path-1-inside-1_522_8152" fill="white">
<path d="M0 0H431V36H0V0Z"/>
</mask>
<path d="M431 35H0V37H431V35Z" fill="black" fill-opacity="0.05" mask="url(#path-1-inside-1_522_8152)"/>
<path d="M4.85596 23.2158C4.02653 23.2158 3.30924 23.0212 2.7041 22.6318C2.09896 22.2425 1.63135 21.6903 1.30127 20.9751C0.975423 20.2599 0.8125 19.4115 0.8125 18.4297V18.417C0.8125 17.431 0.975423 16.5804 1.30127 15.8652C1.63135 15.1501 2.09684 14.5978 2.69775 14.2085C3.3029 13.8192 4.02018 13.6245 4.84961 13.6245C5.49284 13.6245 6.07682 13.7515 6.60156 14.0054C7.13053 14.255 7.56641 14.6042 7.90918 15.0527C8.25195 15.4971 8.46777 16.0112 8.55664 16.5952L8.55029 16.6079H7.40137L7.39502 16.5952C7.29346 16.2017 7.12207 15.8631 6.88086 15.5796C6.63965 15.2918 6.34554 15.0697 5.99854 14.9131C5.65576 14.7565 5.27279 14.6782 4.84961 14.6782C4.26562 14.6782 3.75781 14.8306 3.32617 15.1353C2.89876 15.4399 2.56868 15.8716 2.33594 16.4302C2.10319 16.9888 1.98682 17.651 1.98682 18.417V18.4297C1.98682 19.1914 2.10319 19.8516 2.33594 20.4102C2.56868 20.9688 2.89876 21.4004 3.32617 21.7051C3.75781 22.0098 4.26774 22.1621 4.85596 22.1621C5.28337 22.1621 5.67057 22.0944 6.01758 21.959C6.36458 21.8193 6.65658 21.6226 6.89355 21.3687C7.13053 21.1105 7.29557 20.8058 7.38867 20.4546L7.40137 20.4419H8.55664V20.4546C8.45508 21.0132 8.23503 21.4998 7.89648 21.9146C7.55794 22.325 7.12842 22.6445 6.60791 22.873C6.09163 23.1016 5.50765 23.2158 4.85596 23.2158ZM12.2129 23.1206C11.7812 23.1206 11.3919 23.0381 11.0449 22.873C10.7021 22.708 10.4292 22.4731 10.2261 22.1685C10.0272 21.8638 9.92773 21.5041 9.92773 21.0894V21.0767C9.92773 20.6704 10.0251 20.3234 10.2197 20.0356C10.4144 19.7437 10.6979 19.5151 11.0703 19.3501C11.4427 19.1851 11.8934 19.0877 12.4224 19.0581L14.936 18.9058V19.7881L12.5557 19.9404C12.0352 19.9701 11.6543 20.078 11.4131 20.2642C11.1761 20.4504 11.0576 20.7127 11.0576 21.0513V21.064C11.0576 21.411 11.1888 21.6818 11.4512 21.8765C11.7135 22.0669 12.0436 22.1621 12.4414 22.1621C12.818 22.1621 13.1523 22.0881 13.4443 21.9399C13.7363 21.7876 13.9648 21.5824 14.1299 21.3242C14.2992 21.0661 14.3838 20.7741 14.3838 20.4482V18.3154C14.3838 17.8923 14.2547 17.5706 13.9966 17.3506C13.7427 17.1263 13.3597 17.0142 12.8477 17.0142C12.4372 17.0142 12.1007 17.0882 11.8384 17.2363C11.576 17.3802 11.4004 17.5854 11.3115 17.8521L11.3052 17.8711H10.2007L10.207 17.833C10.2663 17.4733 10.4144 17.1602 10.6514 16.8936C10.8926 16.6227 11.2036 16.4132 11.5845 16.2651C11.9653 16.1128 12.3991 16.0366 12.8857 16.0366C13.4443 16.0366 13.9162 16.1276 14.3013 16.3096C14.6906 16.4915 14.9847 16.7539 15.1836 17.0967C15.3867 17.4352 15.4883 17.8415 15.4883 18.3154V23H14.3838V21.9907H14.2822C14.1383 22.2319 13.9627 22.4372 13.7554 22.6064C13.5522 22.7757 13.3216 22.9048 13.0635 22.9937C12.8053 23.0783 12.5218 23.1206 12.2129 23.1206ZM19.938 23.0508C19.2355 23.0508 18.7256 22.909 18.4082 22.6255C18.0951 22.342 17.9385 21.8743 17.9385 21.2227V17.0713H16.8594V16.1572H17.9385V14.3862H19.0811V16.1572H20.5791V17.0713H19.0811V20.9434C19.0811 21.3454 19.1572 21.6353 19.3096 21.813C19.4619 21.9865 19.7158 22.0732 20.0713 22.0732C20.1686 22.0732 20.2511 22.0711 20.3188 22.0669C20.3908 22.0627 20.4775 22.0563 20.5791 22.0479V22.9873C20.4733 23.0042 20.3675 23.019 20.2617 23.0317C20.1559 23.0444 20.048 23.0508 19.938 23.0508ZM24.9336 23.1206C24.2819 23.1206 23.7212 22.9767 23.2515 22.689C22.786 22.4012 22.4263 21.995 22.1724 21.4702C21.9227 20.9412 21.7979 20.3192 21.7979 19.604V19.5977C21.7979 18.891 21.9227 18.271 22.1724 17.7378C22.4263 17.2046 22.7839 16.7878 23.2451 16.4873C23.7064 16.1868 24.2459 16.0366 24.8638 16.0366C25.4858 16.0366 26.019 16.1805 26.4634 16.4683C26.9119 16.756 27.2547 17.158 27.4917 17.6743C27.7329 18.1864 27.8535 18.783 27.8535 19.4644V19.896H22.3691V19.0137H27.2886L26.7427 19.8198V19.3818C26.7427 18.8444 26.6623 18.4022 26.5015 18.0552C26.3407 17.7082 26.1185 17.45 25.835 17.2808C25.5514 17.1073 25.2256 17.0205 24.8574 17.0205C24.4893 17.0205 24.1592 17.1115 23.8672 17.2935C23.5794 17.4712 23.3509 17.7357 23.1816 18.0869C23.0124 18.4382 22.9277 18.8698 22.9277 19.3818V19.8198C22.9277 20.3065 23.0103 20.7233 23.1753 21.0703C23.3403 21.4131 23.5752 21.6776 23.8799 21.8638C24.1846 22.0457 24.5443 22.1367 24.959 22.1367C25.2679 22.1367 25.5366 22.0944 25.7651 22.0098C25.9937 21.9251 26.182 21.8172 26.3301 21.686C26.4782 21.5549 26.5819 21.4215 26.6411 21.2861L26.6665 21.229H27.771L27.7583 21.2798C27.6991 21.5125 27.5933 21.7389 27.4409 21.959C27.2928 22.1748 27.1003 22.3716 26.8633 22.5493C26.6263 22.7228 26.3449 22.8625 26.019 22.9683C25.6974 23.0698 25.3356 23.1206 24.9336 23.1206ZM32.3857 25.4121C31.8356 25.4121 31.3553 25.3338 30.9448 25.1772C30.5343 25.0249 30.2064 24.807 29.9609 24.5234C29.7197 24.2441 29.5695 23.9183 29.5103 23.5459L29.5229 23.5396H30.6655L30.6719 23.5459C30.7311 23.804 30.9089 24.0156 31.2051 24.1807C31.5013 24.3499 31.8949 24.4346 32.3857 24.4346C32.9993 24.4346 33.4775 24.2949 33.8203 24.0156C34.1673 23.7406 34.3408 23.3512 34.3408 22.8477V21.4639H34.2393C34.0954 21.7135 33.9155 21.9272 33.6997 22.105C33.4839 22.2827 33.2406 22.4181 32.9697 22.5112C32.6989 22.6001 32.4069 22.6445 32.0938 22.6445C31.5055 22.6445 30.9956 22.5049 30.564 22.2256C30.1366 21.9421 29.8065 21.5527 29.5737 21.0576C29.341 20.5625 29.2246 19.9954 29.2246 19.3564V19.3438C29.2246 18.7048 29.341 18.1377 29.5737 17.6426C29.8107 17.1432 30.145 16.7518 30.5767 16.4683C31.0083 16.1805 31.5225 16.0366 32.1191 16.0366C32.4408 16.0366 32.737 16.0874 33.0078 16.189C33.2786 16.2905 33.5177 16.4344 33.7251 16.6206C33.9367 16.8068 34.1123 17.029 34.252 17.2871H34.3281V16.1572H35.4326V22.9048C35.4326 23.4126 35.3078 23.8548 35.0581 24.2314C34.8127 24.6081 34.4614 24.8979 34.0044 25.1011C33.5474 25.3084 33.0078 25.4121 32.3857 25.4121ZM32.335 21.667C32.7581 21.667 33.12 21.5697 33.4204 21.375C33.7251 21.1761 33.9578 20.9032 34.1187 20.5562C34.2837 20.2091 34.3662 19.8092 34.3662 19.3564V19.3438C34.3662 18.891 34.2837 18.4889 34.1187 18.1377C33.9578 17.7865 33.7251 17.5114 33.4204 17.3125C33.12 17.1136 32.7581 17.0142 32.335 17.0142C31.9118 17.0142 31.5521 17.1136 31.2559 17.3125C30.9639 17.5114 30.7396 17.7865 30.583 18.1377C30.4307 18.4889 30.3545 18.891 30.3545 19.3438V19.3564C30.3545 19.8092 30.4307 20.2091 30.583 20.5562C30.7396 20.9032 30.9639 21.1761 31.2559 21.375C31.5521 21.5697 31.9118 21.667 32.335 21.667ZM40.3013 23.1206C39.6538 23.1206 39.0931 22.9788 38.6191 22.6953C38.1494 22.4076 37.7855 21.9992 37.5273 21.4702C37.2734 20.9412 37.1465 20.3128 37.1465 19.585V19.5723C37.1465 18.8402 37.2734 18.2096 37.5273 17.6807C37.7855 17.1517 38.1494 16.7454 38.6191 16.4619C39.0931 16.1784 39.6538 16.0366 40.3013 16.0366C40.953 16.0366 41.5137 16.1784 41.9834 16.4619C42.4531 16.7454 42.8149 17.1517 43.0688 17.6807C43.327 18.2096 43.4561 18.8402 43.4561 19.5723V19.585C43.4561 20.3128 43.327 20.9412 43.0688 21.4702C42.8149 21.9992 42.4531 22.4076 41.9834 22.6953C41.5137 22.9788 40.953 23.1206 40.3013 23.1206ZM40.3013 22.1431C40.7329 22.1431 41.099 22.0415 41.3994 21.8384C41.6999 21.6353 41.9284 21.3433 42.085 20.9624C42.2458 20.5815 42.3262 20.1224 42.3262 19.585V19.5723C42.3262 19.0306 42.2458 18.5693 42.085 18.1885C41.9284 17.8076 41.6999 17.5177 41.3994 17.3188C41.099 17.1157 40.7329 17.0142 40.3013 17.0142C39.8696 17.0142 39.5036 17.1157 39.2031 17.3188C38.9027 17.5177 38.672 17.8076 38.5112 18.1885C38.3547 18.5693 38.2764 19.0306 38.2764 19.5723V19.585C38.2764 20.1224 38.3547 20.5815 38.5112 20.9624C38.672 21.3433 38.9027 21.6353 39.2031 21.8384C39.5036 22.0415 39.8696 22.1431 40.3013 22.1431ZM45.1699 23V16.1572H46.2744V17.1729H46.376C46.5072 16.8132 46.7293 16.5339 47.0425 16.335C47.3556 16.1361 47.7428 16.0366 48.2041 16.0366C48.3099 16.0366 48.4136 16.043 48.5151 16.0557C48.6209 16.0641 48.7013 16.0726 48.7563 16.0811V17.1538C48.6421 17.1326 48.5299 17.1178 48.4199 17.1094C48.3141 17.0967 48.1999 17.0903 48.0771 17.0903C47.7259 17.0903 47.4149 17.1602 47.144 17.2998C46.8732 17.4395 46.6595 17.6341 46.5029 17.8838C46.3506 18.1335 46.2744 18.4255 46.2744 18.7598V23H45.1699ZM50.7686 25.3994C50.6966 25.3994 50.6162 25.3952 50.5273 25.3867C50.4385 25.3825 50.356 25.374 50.2798 25.3613V24.4536C50.3475 24.4663 50.4215 24.4748 50.502 24.479C50.5824 24.4832 50.6606 24.4854 50.7368 24.4854C51.05 24.4854 51.306 24.4049 51.5049 24.2441C51.708 24.0833 51.8709 23.8062 51.9937 23.4126L52.1206 23.0063L49.5879 16.1572H50.7686L52.876 22.4795L52.438 21.7876H52.9585L52.5205 22.4795L54.6216 16.1572H55.7832L53.1108 23.4189C52.9246 23.931 52.7279 24.3309 52.5205 24.6187C52.3132 24.9064 52.0698 25.1074 51.7905 25.2217C51.5155 25.3402 51.1748 25.3994 50.7686 25.3994Z" fill="black" fill-opacity="0.85"/>
</svg>
