<svg width="162" height="22" viewBox="0 0 162 22" fill="none" xmlns="http://www.w3.org/2000/svg">
<rect x="0.75" y="0.25" width="160.5" height="21.5" rx="5.25" stroke="black" stroke-opacity="0.1" stroke-width="0.5"/>
<g clip-path="url(#clip0_523_8288)">
<rect x="142.5" y="3" width="16" height="16" rx="4" fill="black" fill-opacity="0.05"/>
<path d="M150.5 13.0728C150.295 13.0728 150.106 12.9873 149.933 12.8164L147.468 10.2974C147.404 10.2313 147.357 10.1606 147.325 10.0854C147.295 10.0103 147.28 9.92708 147.28 9.83594C147.28 9.71289 147.31 9.6001 147.369 9.49756C147.431 9.39274 147.512 9.31071 147.612 9.25146C147.714 9.18994 147.826 9.15918 147.947 9.15918C148.134 9.15918 148.3 9.23324 148.446 9.38135L150.62 11.6304H150.387L152.554 9.38135C152.695 9.23324 152.86 9.15918 153.046 9.15918C153.169 9.15918 153.281 9.18994 153.381 9.25146C153.484 9.31071 153.565 9.39274 153.624 9.49756C153.686 9.6001 153.716 9.71289 153.716 9.83594C153.716 10.0182 153.653 10.172 153.525 10.2974L151.064 12.8164C150.975 12.9053 150.885 12.9702 150.794 13.0112C150.705 13.0522 150.607 13.0728 150.5 13.0728Z" fill="black"/>
</g>
<path d="M93.8691 16.7158C93.2344 16.7158 92.661 16.6037 92.1489 16.3794C91.6411 16.1551 91.2052 15.8335 90.8413 15.4146C90.4816 14.9956 90.2044 14.492 90.0098 13.9038C89.8151 13.3156 89.7178 12.6554 89.7178 11.9233V11.9106C89.7178 10.9458 89.8892 10.1058 90.2319 9.39062C90.5747 8.67122 91.0571 8.11475 91.6792 7.72119C92.3055 7.3234 93.0355 7.12451 93.8691 7.12451C94.5462 7.12451 95.1493 7.24512 95.6782 7.48633C96.2114 7.72331 96.6494 8.05762 96.9922 8.48926C97.3392 8.9209 97.5719 9.4266 97.6904 10.0063L97.7031 10.0698H96.5479L96.5288 10.0063C96.3426 9.4139 96.0231 8.9611 95.5703 8.64795C95.1175 8.3348 94.5505 8.17822 93.8691 8.17822C93.264 8.17822 92.7371 8.33268 92.2886 8.6416C91.8442 8.94629 91.4993 9.37793 91.2539 9.93652C91.0085 10.4951 90.8857 11.1532 90.8857 11.9106V11.9233C90.8857 12.4989 90.9535 13.0173 91.0889 13.4785C91.2285 13.9398 91.4274 14.3333 91.6855 14.6592C91.9479 14.9808 92.2632 15.2284 92.6313 15.4019C92.9995 15.5754 93.4142 15.6621 93.8755 15.6621C94.4214 15.6621 94.8996 15.5542 95.3101 15.3384C95.7248 15.1183 96.0464 14.8136 96.2749 14.4243C96.5034 14.035 96.6177 13.5822 96.6177 13.0659V12.8438H94.0469V11.8408H97.7603V12.958C97.7603 13.5208 97.6672 14.0329 97.481 14.4941C97.299 14.9554 97.0366 15.3532 96.6938 15.6875C96.3511 16.0176 95.9406 16.2715 95.4624 16.4492C94.9842 16.627 94.4531 16.7158 93.8691 16.7158ZM102.438 16.6206C101.787 16.6206 101.226 16.4767 100.756 16.189C100.291 15.9012 99.9312 15.495 99.6772 14.9702C99.4276 14.4412 99.3027 13.8192 99.3027 13.104V13.0977C99.3027 12.391 99.4276 11.771 99.6772 11.2378C99.9312 10.7046 100.289 10.2878 100.75 9.9873C101.211 9.68685 101.751 9.53662 102.369 9.53662C102.991 9.53662 103.524 9.6805 103.968 9.96826C104.417 10.256 104.76 10.658 104.997 11.1743C105.238 11.6864 105.358 12.283 105.358 12.9644V13.396H99.874V12.5137H104.793L104.248 13.3198V12.8818C104.248 12.3444 104.167 11.9022 104.006 11.5552C103.846 11.2082 103.623 10.95 103.34 10.7808C103.056 10.6073 102.73 10.5205 102.362 10.5205C101.994 10.5205 101.664 10.6115 101.372 10.7935C101.084 10.9712 100.856 11.2357 100.687 11.5869C100.517 11.9382 100.433 12.3698 100.433 12.8818V13.3198C100.433 13.8065 100.515 14.2233 100.68 14.5703C100.845 14.9131 101.08 15.1776 101.385 15.3638C101.689 15.5457 102.049 15.6367 102.464 15.6367C102.773 15.6367 103.042 15.5944 103.27 15.5098C103.499 15.4251 103.687 15.3172 103.835 15.186C103.983 15.0549 104.087 14.9215 104.146 14.7861L104.171 14.729H105.276L105.263 14.7798C105.204 15.0125 105.098 15.2389 104.946 15.459C104.798 15.6748 104.605 15.8716 104.368 16.0493C104.131 16.2228 103.85 16.3625 103.524 16.4683C103.202 16.5698 102.84 16.6206 102.438 16.6206ZM107.072 16.5V9.65723H108.177V10.6855H108.278C108.452 10.3216 108.701 10.0402 109.027 9.84131C109.353 9.63818 109.768 9.53662 110.271 9.53662C111.042 9.53662 111.632 9.75667 112.042 10.1968C112.457 10.6326 112.665 11.2568 112.665 12.0693V16.5H111.56V12.3359C111.56 11.7181 111.429 11.2611 111.167 10.9648C110.908 10.6644 110.506 10.5142 109.96 10.5142C109.597 10.5142 109.281 10.5924 109.015 10.749C108.748 10.9056 108.541 11.1278 108.393 11.4155C108.249 11.7033 108.177 12.0482 108.177 12.4502V16.5H107.072ZM117.457 16.6206C116.805 16.6206 116.245 16.4767 115.775 16.189C115.309 15.9012 114.95 15.495 114.696 14.9702C114.446 14.4412 114.321 13.8192 114.321 13.104V13.0977C114.321 12.391 114.446 11.771 114.696 11.2378C114.95 10.7046 115.307 10.2878 115.769 9.9873C116.23 9.68685 116.769 9.53662 117.387 9.53662C118.009 9.53662 118.542 9.6805 118.987 9.96826C119.435 10.256 119.778 10.658 120.015 11.1743C120.256 11.6864 120.377 12.283 120.377 12.9644V13.396H114.893V12.5137H119.812L119.266 13.3198V12.8818C119.266 12.3444 119.186 11.9022 119.025 11.5552C118.864 11.2082 118.642 10.95 118.358 10.7808C118.075 10.6073 117.749 10.5205 117.381 10.5205C117.013 10.5205 116.683 10.6115 116.391 10.7935C116.103 10.9712 115.874 11.2357 115.705 11.5869C115.536 11.9382 115.451 12.3698 115.451 12.8818V13.3198C115.451 13.8065 115.534 14.2233 115.699 14.5703C115.864 14.9131 116.099 15.1776 116.403 15.3638C116.708 15.5457 117.068 15.6367 117.482 15.6367C117.791 15.6367 118.06 15.5944 118.289 15.5098C118.517 15.4251 118.705 15.3172 118.854 15.186C119.002 15.0549 119.105 14.9215 119.165 14.7861L119.19 14.729H120.294L120.282 14.7798C120.222 15.0125 120.117 15.2389 119.964 15.459C119.816 15.6748 119.624 15.8716 119.387 16.0493C119.15 16.2228 118.868 16.3625 118.542 16.4683C118.221 16.5698 117.859 16.6206 117.457 16.6206ZM122.091 16.5V9.65723H123.195V10.6729H123.297C123.428 10.3132 123.65 10.0339 123.963 9.83496C124.277 9.63607 124.664 9.53662 125.125 9.53662C125.231 9.53662 125.334 9.54297 125.436 9.55566C125.542 9.56413 125.622 9.57259 125.677 9.58105V10.6538C125.563 10.6326 125.451 10.6178 125.341 10.6094C125.235 10.5967 125.121 10.5903 124.998 10.5903C124.647 10.5903 124.336 10.6602 124.065 10.7998C123.794 10.9395 123.58 11.1341 123.424 11.3838C123.271 11.6335 123.195 11.9255 123.195 12.2598V16.5H122.091ZM127.067 16.5V9.65723H128.172V16.5H127.067ZM127.626 8.33691C127.419 8.33691 127.239 8.26286 127.086 8.11475C126.938 7.9624 126.864 7.78255 126.864 7.5752C126.864 7.36361 126.938 7.18376 127.086 7.03564C127.239 6.88753 127.419 6.81348 127.626 6.81348C127.838 6.81348 128.017 6.88753 128.166 7.03564C128.314 7.18376 128.388 7.36361 128.388 7.5752C128.388 7.78255 128.314 7.9624 128.166 8.11475C128.017 8.26286 127.838 8.33691 127.626 8.33691ZM133.053 16.6206C132.414 16.6206 131.86 16.4746 131.39 16.1826C130.92 15.8906 130.556 15.478 130.298 14.9448C130.04 14.4116 129.911 13.7832 129.911 13.0596V13.0469C129.911 12.3359 130.038 11.7181 130.292 11.1934C130.55 10.6686 130.914 10.2624 131.384 9.97461C131.854 9.68262 132.408 9.53662 133.047 9.53662C133.601 9.53662 134.079 9.63395 134.481 9.82861C134.883 10.0233 135.205 10.2856 135.446 10.6157C135.688 10.9416 135.842 11.3076 135.91 11.7139L135.916 11.752H134.818L134.812 11.7329C134.727 11.3944 134.534 11.1066 134.234 10.8696C133.933 10.6326 133.538 10.5142 133.047 10.5142C132.636 10.5142 132.281 10.6178 131.98 10.8252C131.68 11.0326 131.447 11.3267 131.282 11.7075C131.121 12.0841 131.041 12.5306 131.041 13.0469V13.0596C131.041 13.5843 131.124 14.0413 131.289 14.4307C131.454 14.8158 131.686 15.1141 131.987 15.3257C132.287 15.5373 132.641 15.6431 133.047 15.6431C133.508 15.6431 133.885 15.5436 134.177 15.3447C134.469 15.1458 134.678 14.856 134.805 14.4751L134.818 14.437L135.91 14.4307L135.897 14.5005C135.804 14.911 135.639 15.277 135.402 15.5986C135.165 15.916 134.852 16.1657 134.462 16.3477C134.073 16.5296 133.603 16.6206 133.053 16.6206Z" fill="black" fill-opacity="0.85"/>
<defs>
<clipPath id="clip0_523_8288">
<rect width="16" height="16" fill="white" transform="translate(142.5 3)"/>
</clipPath>
</defs>
</svg>
