<svg width="431" height="36" viewBox="0 0 431 36" fill="none" xmlns="http://www.w3.org/2000/svg">
<mask id="path-1-inside-1_522_8149" fill="white">
<path d="M0 0H431V36H0V0Z"/>
</mask>
<path d="M431 35H0V37H431V35Z" fill="black" fill-opacity="0.05" mask="url(#path-1-inside-1_522_8149)"/>
<path d="M3.54834 23V14.8687H0.59668V13.8403H7.64258V14.8687H4.69092V23H3.54834ZM8.31543 23V16.1572H9.41992V17.1729H9.52148C9.65267 16.8132 9.87484 16.5339 10.188 16.335C10.5011 16.1361 10.8883 16.0366 11.3496 16.0366C11.4554 16.0366 11.5591 16.043 11.6606 16.0557C11.7664 16.0641 11.8468 16.0726 11.9019 16.0811V17.1538C11.7876 17.1326 11.6755 17.1178 11.5654 17.1094C11.4596 17.0967 11.3454 17.0903 11.2227 17.0903C10.8714 17.0903 10.5604 17.1602 10.2896 17.2998C10.0187 17.4395 9.80501 17.6341 9.64844 17.8838C9.49609 18.1335 9.41992 18.4255 9.41992 18.7598V23H8.31543ZM15.1455 23.1206C14.7139 23.1206 14.3245 23.0381 13.9775 22.873C13.6348 22.708 13.3618 22.4731 13.1587 22.1685C12.9598 21.8638 12.8604 21.5041 12.8604 21.0894V21.0767C12.8604 20.6704 12.9577 20.3234 13.1523 20.0356C13.347 19.7437 13.6305 19.5151 14.0029 19.3501C14.3753 19.1851 14.826 19.0877 15.355 19.0581L17.8687 18.9058V19.7881L15.4883 19.9404C14.9678 19.9701 14.5869 20.078 14.3457 20.2642C14.1087 20.4504 13.9902 20.7127 13.9902 21.0513V21.064C13.9902 21.411 14.1214 21.6818 14.3838 21.8765C14.6462 22.0669 14.9762 22.1621 15.374 22.1621C15.7507 22.1621 16.085 22.0881 16.377 21.9399C16.6689 21.7876 16.8975 21.5824 17.0625 21.3242C17.2318 21.0661 17.3164 20.7741 17.3164 20.4482V18.3154C17.3164 17.8923 17.1873 17.5706 16.9292 17.3506C16.6753 17.1263 16.2923 17.0142 15.7803 17.0142C15.3698 17.0142 15.0334 17.0882 14.771 17.2363C14.5086 17.3802 14.333 17.5854 14.2441 17.8521L14.2378 17.8711H13.1333L13.1396 17.833C13.1989 17.4733 13.347 17.1602 13.584 16.8936C13.8252 16.6227 14.1362 16.4132 14.5171 16.2651C14.8979 16.1128 15.3317 16.0366 15.8184 16.0366C16.377 16.0366 16.8488 16.1276 17.2339 16.3096C17.6232 16.4915 17.9173 16.7539 18.1162 17.0967C18.3193 17.4352 18.4209 17.8415 18.4209 18.3154V23H17.3164V21.9907H17.2148C17.071 22.2319 16.8953 22.4372 16.688 22.6064C16.4849 22.7757 16.2542 22.9048 15.9961 22.9937C15.738 23.0783 15.4544 23.1206 15.1455 23.1206ZM20.4395 23V16.1572H21.5439V17.1855H21.6455C21.819 16.8216 22.0687 16.5402 22.3945 16.3413C22.7204 16.1382 23.1351 16.0366 23.6387 16.0366C24.4089 16.0366 24.9992 16.2567 25.4097 16.6968C25.8244 17.1326 26.0317 17.7568 26.0317 18.5693V23H24.9272V18.8359C24.9272 18.2181 24.7961 17.7611 24.5337 17.4648C24.2756 17.1644 23.8735 17.0142 23.3276 17.0142C22.9637 17.0142 22.6484 17.0924 22.3818 17.249C22.1152 17.4056 21.9079 17.6278 21.7598 17.9155C21.6159 18.2033 21.5439 18.5482 21.5439 18.9502V23H20.4395ZM30.3799 23.1206C29.8721 23.1206 29.4235 23.0444 29.0342 22.8921C28.6449 22.7355 28.3317 22.5176 28.0947 22.2383C27.862 21.959 27.7244 21.631 27.6821 21.2544H28.812C28.9051 21.5379 29.0871 21.7664 29.3579 21.9399C29.6287 22.1134 29.9821 22.2002 30.418 22.2002C30.7269 22.2002 30.9977 22.1558 31.2305 22.0669C31.4674 21.9738 31.6536 21.849 31.7891 21.6924C31.9245 21.5316 31.9922 21.3475 31.9922 21.1401V21.1274C31.9922 20.8947 31.8991 20.6979 31.7129 20.5371C31.5267 20.3721 31.222 20.2388 30.7988 20.1372L29.7388 19.8833C29.3114 19.7817 28.9601 19.6506 28.6851 19.4897C28.41 19.3247 28.2069 19.1237 28.0757 18.8867C27.9445 18.6455 27.8789 18.362 27.8789 18.0361V18.0298C27.8789 17.6489 27.9889 17.3083 28.209 17.0078C28.4333 16.7074 28.738 16.4704 29.123 16.2969C29.5081 16.1234 29.9419 16.0366 30.4243 16.0366C30.9025 16.0366 31.3257 16.1128 31.6938 16.2651C32.0662 16.4132 32.3646 16.6248 32.5889 16.8999C32.8174 17.175 32.957 17.4987 33.0078 17.8711H31.9224C31.8504 17.6003 31.6854 17.3802 31.4272 17.2109C31.1691 17.0417 30.8327 16.957 30.418 16.957C30.1471 16.957 29.9059 17.0015 29.6943 17.0903C29.4827 17.175 29.3156 17.2935 29.1929 17.4458C29.0701 17.5981 29.0088 17.7759 29.0088 17.979V17.9917C29.0088 18.144 29.049 18.2795 29.1294 18.3979C29.2098 18.5164 29.3346 18.6201 29.5039 18.709C29.6732 18.7979 29.8911 18.8761 30.1577 18.9438L31.2114 19.1978C31.8547 19.3543 32.3328 19.5786 32.646 19.8706C32.9634 20.1626 33.1221 20.554 33.1221 21.0449V21.0576C33.1221 21.4639 33.0015 21.8236 32.7603 22.1367C32.519 22.4456 32.1911 22.6868 31.7764 22.8604C31.3659 23.0339 30.9004 23.1206 30.3799 23.1206ZM36.7148 23.1206C36.2832 23.1206 35.8939 23.0381 35.5469 22.873C35.2041 22.708 34.9312 22.4731 34.728 22.1685C34.5291 21.8638 34.4297 21.5041 34.4297 21.0894V21.0767C34.4297 20.6704 34.527 20.3234 34.7217 20.0356C34.9163 19.7437 35.1999 19.5151 35.5723 19.3501C35.9447 19.1851 36.3953 19.0877 36.9243 19.0581L39.438 18.9058V19.7881L37.0576 19.9404C36.5371 19.9701 36.1562 20.078 35.915 20.2642C35.6781 20.4504 35.5596 20.7127 35.5596 21.0513V21.064C35.5596 21.411 35.6908 21.6818 35.9531 21.8765C36.2155 22.0669 36.5456 22.1621 36.9434 22.1621C37.32 22.1621 37.6543 22.0881 37.9463 21.9399C38.2383 21.7876 38.4668 21.5824 38.6318 21.3242C38.8011 21.0661 38.8857 20.7741 38.8857 20.4482V18.3154C38.8857 17.8923 38.7567 17.5706 38.4985 17.3506C38.2446 17.1263 37.8617 17.0142 37.3496 17.0142C36.9391 17.0142 36.6027 17.0882 36.3403 17.2363C36.078 17.3802 35.9023 17.5854 35.8135 17.8521L35.8071 17.8711H34.7026L34.709 17.833C34.7682 17.4733 34.9163 17.1602 35.1533 16.8936C35.3945 16.6227 35.7056 16.4132 36.0864 16.2651C36.4673 16.1128 36.901 16.0366 37.3877 16.0366C37.9463 16.0366 38.4181 16.1276 38.8032 16.3096C39.1925 16.4915 39.4867 16.7539 39.6855 17.0967C39.8887 17.4352 39.9902 17.8415 39.9902 18.3154V23H38.8857V21.9907H38.7842C38.6403 22.2319 38.4647 22.4372 38.2573 22.6064C38.0542 22.7757 37.8236 22.9048 37.5654 22.9937C37.3073 23.0783 37.0238 23.1206 36.7148 23.1206ZM44.8081 23.1206C44.1691 23.1206 43.6147 22.9746 43.145 22.6826C42.6753 22.3906 42.3114 21.978 42.0532 21.4448C41.7951 20.9116 41.666 20.2832 41.666 19.5596V19.5469C41.666 18.8359 41.793 18.2181 42.0469 17.6934C42.305 17.1686 42.6689 16.7624 43.1387 16.4746C43.6084 16.1826 44.1628 16.0366 44.8018 16.0366C45.3561 16.0366 45.8343 16.134 46.2363 16.3286C46.6383 16.5233 46.96 16.7856 47.2012 17.1157C47.4424 17.4416 47.5968 17.8076 47.6646 18.2139L47.6709 18.252H46.5728L46.5664 18.2329C46.4818 17.8944 46.2892 17.6066 45.9888 17.3696C45.6883 17.1326 45.2926 17.0142 44.8018 17.0142C44.3913 17.0142 44.0358 17.1178 43.7354 17.3252C43.4349 17.5326 43.2021 17.8267 43.0371 18.2075C42.8763 18.5841 42.7959 19.0306 42.7959 19.5469V19.5596C42.7959 20.0843 42.8784 20.5413 43.0435 20.9307C43.2085 21.3158 43.4412 21.6141 43.7417 21.8257C44.0422 22.0373 44.3955 22.1431 44.8018 22.1431C45.263 22.1431 45.6396 22.0436 45.9316 21.8447C46.2236 21.6458 46.4331 21.356 46.5601 20.9751L46.5728 20.937L47.6646 20.9307L47.6519 21.0005C47.5588 21.411 47.3937 21.777 47.1567 22.0986C46.9198 22.416 46.6066 22.6657 46.2173 22.8477C45.828 23.0296 45.3582 23.1206 44.8081 23.1206ZM51.8413 23.0508C51.1388 23.0508 50.6289 22.909 50.3115 22.6255C49.9984 22.342 49.8418 21.8743 49.8418 21.2227V17.0713H48.7627V16.1572H49.8418V14.3862H50.9844V16.1572H52.4824V17.0713H50.9844V20.9434C50.9844 21.3454 51.0605 21.6353 51.2129 21.813C51.3652 21.9865 51.6191 22.0732 51.9746 22.0732C52.0719 22.0732 52.1545 22.0711 52.2222 22.0669C52.2941 22.0627 52.3809 22.0563 52.4824 22.0479V22.9873C52.3766 23.0042 52.2708 23.019 52.165 23.0317C52.0592 23.0444 51.9513 23.0508 51.8413 23.0508ZM54.1582 23V16.1572H55.2627V23H54.1582ZM54.7168 14.8369C54.5094 14.8369 54.3296 14.7629 54.1772 14.6147C54.0291 14.4624 53.9551 14.2826 53.9551 14.0752C53.9551 13.8636 54.0291 13.6838 54.1772 13.5356C54.3296 13.3875 54.5094 13.3135 54.7168 13.3135C54.9284 13.3135 55.1082 13.3875 55.2563 13.5356C55.4045 13.6838 55.4785 13.8636 55.4785 14.0752C55.4785 14.2826 55.4045 14.4624 55.2563 14.6147C55.1082 14.7629 54.9284 14.8369 54.7168 14.8369ZM60.1567 23.1206C59.5093 23.1206 58.9486 22.9788 58.4746 22.6953C58.0049 22.4076 57.641 21.9992 57.3828 21.4702C57.1289 20.9412 57.002 20.3128 57.002 19.585V19.5723C57.002 18.8402 57.1289 18.2096 57.3828 17.6807C57.641 17.1517 58.0049 16.7454 58.4746 16.4619C58.9486 16.1784 59.5093 16.0366 60.1567 16.0366C60.8084 16.0366 61.3691 16.1784 61.8389 16.4619C62.3086 16.7454 62.6704 17.1517 62.9243 17.6807C63.1825 18.2096 63.3115 18.8402 63.3115 19.5723V19.585C63.3115 20.3128 63.1825 20.9412 62.9243 21.4702C62.6704 21.9992 62.3086 22.4076 61.8389 22.6953C61.3691 22.9788 60.8084 23.1206 60.1567 23.1206ZM60.1567 22.1431C60.5884 22.1431 60.9544 22.0415 61.2549 21.8384C61.5553 21.6353 61.7839 21.3433 61.9404 20.9624C62.1012 20.5815 62.1816 20.1224 62.1816 19.585V19.5723C62.1816 19.0306 62.1012 18.5693 61.9404 18.1885C61.7839 17.8076 61.5553 17.5177 61.2549 17.3188C60.9544 17.1157 60.5884 17.0142 60.1567 17.0142C59.7251 17.0142 59.359 17.1157 59.0586 17.3188C58.7581 17.5177 58.5275 17.8076 58.3667 18.1885C58.2101 18.5693 58.1318 19.0306 58.1318 19.5723V19.585C58.1318 20.1224 58.2101 20.5815 58.3667 20.9624C58.5275 21.3433 58.7581 21.6353 59.0586 21.8384C59.359 22.0415 59.7251 22.1431 60.1567 22.1431ZM65.0254 23V16.1572H66.1299V17.1855H66.2314C66.4049 16.8216 66.6546 16.5402 66.9805 16.3413C67.3063 16.1382 67.721 16.0366 68.2246 16.0366C68.9948 16.0366 69.5851 16.2567 69.9956 16.6968C70.4103 17.1326 70.6177 17.7568 70.6177 18.5693V23H69.5132V18.8359C69.5132 18.2181 69.382 17.7611 69.1196 17.4648C68.8615 17.1644 68.4595 17.0142 67.9136 17.0142C67.5496 17.0142 67.2344 17.0924 66.9678 17.249C66.7012 17.4056 66.4938 17.6278 66.3457 17.9155C66.2018 18.2033 66.1299 18.5482 66.1299 18.9502V23H65.0254ZM78.7935 23V14.8687H75.8418V13.8403H82.8877V14.8687H79.936V23H78.7935ZM84.2715 25.3994C84.1995 25.3994 84.1191 25.3952 84.0303 25.3867C83.9414 25.3825 83.8589 25.374 83.7827 25.3613V24.4536C83.8504 24.4663 83.9245 24.4748 84.0049 24.479C84.0853 24.4832 84.1636 24.4854 84.2397 24.4854C84.5529 24.4854 84.8089 24.4049 85.0078 24.2441C85.2109 24.0833 85.3739 23.8062 85.4966 23.4126L85.6235 23.0063L83.0908 16.1572H84.2715L86.3789 22.4795L85.9409 21.7876H86.4614L86.0234 22.4795L88.1245 16.1572H89.2861L86.6138 23.4189C86.4276 23.931 86.2308 24.3309 86.0234 24.6187C85.8161 24.9064 85.5728 25.1074 85.2935 25.2217C85.0184 25.3402 84.6777 25.3994 84.2715 25.3994ZM90.7461 25.2852V16.1572H91.8506V17.249H91.9521C92.0918 16.9951 92.2674 16.7793 92.479 16.6016C92.6906 16.4196 92.9318 16.2799 93.2026 16.1826C93.4735 16.0853 93.7676 16.0366 94.085 16.0366C94.6647 16.0366 95.1683 16.1847 95.5957 16.481C96.0273 16.7729 96.3617 17.1834 96.5986 17.7124C96.8356 18.2414 96.9541 18.8613 96.9541 19.5723V19.585C96.9541 20.3001 96.8356 20.9222 96.5986 21.4512C96.3617 21.9801 96.0273 22.3906 95.5957 22.6826C95.1683 22.9746 94.6647 23.1206 94.085 23.1206C93.7718 23.1206 93.4756 23.0719 93.1963 22.9746C92.9212 22.873 92.6758 22.7334 92.46 22.5557C92.2484 22.3779 92.0791 22.1663 91.9521 21.9209H91.8506V25.2852H90.7461ZM93.8311 22.1431C94.25 22.1431 94.6076 22.0415 94.9038 21.8384C95.2 21.631 95.4264 21.3369 95.583 20.9561C95.7438 20.571 95.8242 20.1139 95.8242 19.585V19.5723C95.8242 19.0391 95.7438 18.582 95.583 18.2012C95.4264 17.8203 95.2 17.5283 94.9038 17.3252C94.6076 17.1178 94.25 17.0142 93.8311 17.0142C93.4163 17.0142 93.0588 17.1178 92.7583 17.3252C92.4578 17.5326 92.2272 17.8267 92.0664 18.2075C91.9056 18.5884 91.8252 19.0433 91.8252 19.5723V19.585C91.8252 20.1097 91.9056 20.5646 92.0664 20.9497C92.2272 21.3306 92.4578 21.6247 92.7583 21.832C93.0588 22.0394 93.4163 22.1431 93.8311 22.1431ZM101.474 23.1206C100.822 23.1206 100.261 22.9767 99.7915 22.689C99.326 22.4012 98.9663 21.995 98.7124 21.4702C98.4627 20.9412 98.3379 20.3192 98.3379 19.604V19.5977C98.3379 18.891 98.4627 18.271 98.7124 17.7378C98.9663 17.2046 99.3239 16.7878 99.7852 16.4873C100.246 16.1868 100.786 16.0366 101.404 16.0366C102.026 16.0366 102.559 16.1805 103.003 16.4683C103.452 16.756 103.795 17.158 104.032 17.6743C104.273 18.1864 104.394 18.783 104.394 19.4644V19.896H98.9092V19.0137H103.829L103.283 19.8198V19.3818C103.283 18.8444 103.202 18.4022 103.042 18.0552C102.881 17.7082 102.659 17.45 102.375 17.2808C102.091 17.1073 101.766 17.0205 101.397 17.0205C101.029 17.0205 100.699 17.1115 100.407 17.2935C100.119 17.4712 99.891 17.7357 99.7217 18.0869C99.5524 18.4382 99.4678 18.8698 99.4678 19.3818V19.8198C99.4678 20.3065 99.5503 20.7233 99.7153 21.0703C99.8804 21.4131 100.115 21.6776 100.42 21.8638C100.725 22.0457 101.084 22.1367 101.499 22.1367C101.808 22.1367 102.077 22.0944 102.305 22.0098C102.534 21.9251 102.722 21.8172 102.87 21.686C103.018 21.5549 103.122 21.4215 103.181 21.2861L103.207 21.229H104.311L104.298 21.2798C104.239 21.5125 104.133 21.7389 103.981 21.959C103.833 22.1748 103.64 22.3716 103.403 22.5493C103.166 22.7228 102.885 22.8625 102.559 22.9683C102.237 23.0698 101.876 23.1206 101.474 23.1206Z" fill="black" fill-opacity="0.85"/>
</svg>
