<svg width="431" height="36" viewBox="0 0 431 36" fill="none" xmlns="http://www.w3.org/2000/svg">
<mask id="path-1-inside-1_522_8155" fill="white">
<path d="M0 0H431V36H0V0Z"/>
</mask>
<path d="M431 35H0V37H431V35Z" fill="black" fill-opacity="0.05" mask="url(#path-1-inside-1_522_8155)"/>
<path d="M1.16797 23V13.8403H4.31006C5.21566 13.8403 5.99007 14.0223 6.6333 14.3862C7.28076 14.7459 7.77588 15.2664 8.11865 15.9478C8.46143 16.6291 8.63281 17.45 8.63281 18.4106V18.4233C8.63281 19.384 8.46143 20.207 8.11865 20.8926C7.77588 21.5739 7.28288 22.0965 6.63965 22.4604C5.99642 22.8201 5.21989 23 4.31006 23H1.16797ZM2.31055 21.9717H4.23389C4.9152 21.9717 5.49707 21.832 5.97949 21.5527C6.46191 21.2734 6.83008 20.8693 7.08398 20.3403C7.33789 19.8114 7.46484 19.1766 7.46484 18.436V18.4233C7.46484 17.6785 7.33577 17.0417 7.07764 16.5127C6.82373 15.9795 6.45557 15.5732 5.97314 15.2939C5.49072 15.0104 4.91097 14.8687 4.23389 14.8687H2.31055V21.9717ZM12.3525 23.1206C11.9209 23.1206 11.5316 23.0381 11.1846 22.873C10.8418 22.708 10.5688 22.4731 10.3657 22.1685C10.1668 21.8638 10.0674 21.5041 10.0674 21.0894V21.0767C10.0674 20.6704 10.1647 20.3234 10.3594 20.0356C10.554 19.7437 10.8376 19.5151 11.21 19.3501C11.5824 19.1851 12.033 19.0877 12.562 19.0581L15.0757 18.9058V19.7881L12.6953 19.9404C12.1748 19.9701 11.7939 20.078 11.5527 20.2642C11.3158 20.4504 11.1973 20.7127 11.1973 21.0513V21.064C11.1973 21.411 11.3285 21.6818 11.5908 21.8765C11.8532 22.0669 12.1833 22.1621 12.5811 22.1621C12.9577 22.1621 13.292 22.0881 13.584 21.9399C13.876 21.7876 14.1045 21.5824 14.2695 21.3242C14.4388 21.0661 14.5234 20.7741 14.5234 20.4482V18.3154C14.5234 17.8923 14.3944 17.5706 14.1362 17.3506C13.8823 17.1263 13.4993 17.0142 12.9873 17.0142C12.5768 17.0142 12.2404 17.0882 11.978 17.2363C11.7157 17.3802 11.54 17.5854 11.4512 17.8521L11.4448 17.8711H10.3403L10.3467 17.833C10.4059 17.4733 10.554 17.1602 10.791 16.8936C11.0322 16.6227 11.3433 16.4132 11.7241 16.2651C12.105 16.1128 12.5387 16.0366 13.0254 16.0366C13.584 16.0366 14.0558 16.1276 14.4409 16.3096C14.8302 16.4915 15.1243 16.7539 15.3232 17.0967C15.5264 17.4352 15.6279 17.8415 15.6279 18.3154V23H14.5234V21.9907H14.4219C14.278 22.2319 14.1024 22.4372 13.895 22.6064C13.6919 22.7757 13.4613 22.9048 13.2031 22.9937C12.945 23.0783 12.6615 23.1206 12.3525 23.1206ZM20.0776 23.0508C19.3752 23.0508 18.8652 22.909 18.5479 22.6255C18.2347 22.342 18.0781 21.8743 18.0781 21.2227V17.0713H16.999V16.1572H18.0781V14.3862H19.2207V16.1572H20.7188V17.0713H19.2207V20.9434C19.2207 21.3454 19.2969 21.6353 19.4492 21.813C19.6016 21.9865 19.8555 22.0732 20.2109 22.0732C20.3083 22.0732 20.3908 22.0711 20.4585 22.0669C20.5304 22.0627 20.6172 22.0563 20.7188 22.0479V22.9873C20.613 23.0042 20.5072 23.019 20.4014 23.0317C20.2956 23.0444 20.1877 23.0508 20.0776 23.0508ZM25.0732 23.1206C24.4215 23.1206 23.8608 22.9767 23.3911 22.689C22.9256 22.4012 22.5659 21.995 22.312 21.4702C22.0623 20.9412 21.9375 20.3192 21.9375 19.604V19.5977C21.9375 18.891 22.0623 18.271 22.312 17.7378C22.5659 17.2046 22.9235 16.7878 23.3848 16.4873C23.846 16.1868 24.3856 16.0366 25.0034 16.0366C25.6255 16.0366 26.1587 16.1805 26.603 16.4683C27.0516 16.756 27.3944 17.158 27.6313 17.6743C27.8726 18.1864 27.9932 18.783 27.9932 19.4644V19.896H22.5088V19.0137H27.4282L26.8823 19.8198V19.3818C26.8823 18.8444 26.8019 18.4022 26.6411 18.0552C26.4803 17.7082 26.2581 17.45 25.9746 17.2808C25.6911 17.1073 25.3652 17.0205 24.9971 17.0205C24.6289 17.0205 24.2988 17.1115 24.0068 17.2935C23.7191 17.4712 23.4906 17.7357 23.3213 18.0869C23.152 18.4382 23.0674 18.8698 23.0674 19.3818V19.8198C23.0674 20.3065 23.1499 20.7233 23.3149 21.0703C23.48 21.4131 23.7148 21.6776 24.0195 21.8638C24.3242 22.0457 24.6839 22.1367 25.0986 22.1367C25.4076 22.1367 25.6763 22.0944 25.9048 22.0098C26.1333 21.9251 26.3216 21.8172 26.4697 21.686C26.6178 21.5549 26.7215 21.4215 26.7808 21.2861L26.8062 21.229H27.9106L27.8979 21.2798C27.8387 21.5125 27.7329 21.7389 27.5806 21.959C27.4325 22.1748 27.2399 22.3716 27.0029 22.5493C26.766 22.7228 26.4845 22.8625 26.1587 22.9683C25.8371 23.0698 25.4753 23.1206 25.0732 23.1206Z" fill="black" fill-opacity="0.85"/>
</svg>
