<svg width="431" height="37" viewBox="0 0 431 37" fill="none" xmlns="http://www.w3.org/2000/svg">
<path d="M0.437988 23.5L3.81494 14.3403H4.69092V15.8193H4.3291L1.6377 23.5H0.437988ZM1.96777 20.8784L2.32324 19.9072H6.46191L6.81738 20.8784H1.96777ZM7.12207 23.5L4.43066 15.8193V14.3403H4.94482L8.32178 23.5H7.12207ZM9.78809 23.5V16.6572H10.8926V17.6982H10.9941C11.1465 17.3301 11.3792 17.0444 11.6924 16.8413C12.0098 16.6382 12.3927 16.5366 12.8413 16.5366C13.1502 16.5366 13.4274 16.5874 13.6729 16.689C13.9183 16.7905 14.1299 16.9323 14.3076 17.1143C14.4854 17.292 14.6271 17.4993 14.7329 17.7363H14.8345C14.9572 17.4951 15.1222 17.2856 15.3296 17.1079C15.5369 16.9259 15.776 16.7863 16.0469 16.689C16.3219 16.5874 16.616 16.5366 16.9292 16.5366C17.3947 16.5366 17.7882 16.6234 18.1099 16.7969C18.4357 16.9704 18.6833 17.2243 18.8525 17.5586C19.0218 17.8887 19.1064 18.2928 19.1064 18.771V23.5H18.002V19.0249C18.002 18.6864 17.9491 18.4071 17.8433 18.187C17.7417 17.9627 17.5851 17.7956 17.3735 17.6855C17.1619 17.5713 16.8953 17.5142 16.5737 17.5142C16.2563 17.5142 15.9792 17.5861 15.7422 17.73C15.5052 17.8739 15.3211 18.0664 15.1899 18.3076C15.0588 18.5446 14.9932 18.8091 14.9932 19.1011V23.5H13.8887V18.8535C13.8887 18.5827 13.8294 18.3478 13.7109 18.1489C13.5967 17.9458 13.4316 17.7892 13.2158 17.6792C13.0042 17.5692 12.7546 17.5142 12.4668 17.5142C12.1706 17.5142 11.9019 17.5924 11.6606 17.749C11.4237 17.9056 11.2354 18.1172 11.0957 18.3838C10.9603 18.6462 10.8926 18.9382 10.8926 19.2598V23.5H9.78809ZM23.9116 23.6206C23.2642 23.6206 22.7035 23.4788 22.2295 23.1953C21.7598 22.9076 21.3958 22.4992 21.1377 21.9702C20.8838 21.4412 20.7568 20.8128 20.7568 20.085V20.0723C20.7568 19.3402 20.8838 18.7096 21.1377 18.1807C21.3958 17.6517 21.7598 17.2454 22.2295 16.9619C22.7035 16.6784 23.2642 16.5366 23.9116 16.5366C24.5633 16.5366 25.124 16.6784 25.5938 16.9619C26.0635 17.2454 26.4253 17.6517 26.6792 18.1807C26.9373 18.7096 27.0664 19.3402 27.0664 20.0723V20.085C27.0664 20.8128 26.9373 21.4412 26.6792 21.9702C26.4253 22.4992 26.0635 22.9076 25.5938 23.1953C25.124 23.4788 24.5633 23.6206 23.9116 23.6206ZM23.9116 22.6431C24.3433 22.6431 24.7093 22.5415 25.0098 22.3384C25.3102 22.1353 25.5387 21.8433 25.6953 21.4624C25.8561 21.0815 25.9365 20.6224 25.9365 20.085V20.0723C25.9365 19.5306 25.8561 19.0693 25.6953 18.6885C25.5387 18.3076 25.3102 18.0177 25.0098 17.8188C24.7093 17.6157 24.3433 17.5142 23.9116 17.5142C23.48 17.5142 23.1139 17.6157 22.8135 17.8188C22.513 18.0177 22.2824 18.3076 22.1216 18.6885C21.965 19.0693 21.8867 19.5306 21.8867 20.0723V20.085C21.8867 20.6224 21.965 21.0815 22.1216 21.4624C22.2824 21.8433 22.513 22.1353 22.8135 22.3384C23.1139 22.5415 23.48 22.6431 23.9116 22.6431ZM31.0718 23.6206C30.5555 23.6206 30.1217 23.5233 29.7705 23.3286C29.4193 23.1297 29.1548 22.842 28.9771 22.4653C28.8035 22.0845 28.7168 21.6253 28.7168 21.0879V16.6572H29.8213V20.8213C29.8213 21.4349 29.9398 21.8919 30.1768 22.1924C30.418 22.4928 30.8115 22.6431 31.3574 22.6431C31.6579 22.6431 31.9224 22.5986 32.1509 22.5098C32.3836 22.4209 32.5783 22.2939 32.7349 22.1289C32.8914 21.9596 33.0078 21.7565 33.084 21.5195C33.1644 21.2783 33.2046 21.0075 33.2046 20.707V16.6572H34.3091V23.5H33.2046V22.478H33.103C32.993 22.7192 32.8428 22.9266 32.6523 23.1001C32.4619 23.2694 32.2334 23.3984 31.9668 23.4873C31.7044 23.5762 31.4061 23.6206 31.0718 23.6206ZM36.3721 23.5V16.6572H37.4766V17.6855H37.5781C37.7516 17.3216 38.0013 17.0402 38.3271 16.8413C38.653 16.6382 39.0677 16.5366 39.5713 16.5366C40.3415 16.5366 40.9318 16.7567 41.3423 17.1968C41.757 17.6326 41.9644 18.2568 41.9644 19.0693V23.5H40.8599V19.3359C40.8599 18.7181 40.7287 18.2611 40.4663 17.9648C40.2082 17.6644 39.8062 17.5142 39.2603 17.5142C38.8963 17.5142 38.5811 17.5924 38.3145 17.749C38.0479 17.9056 37.8405 18.1278 37.6924 18.4155C37.5485 18.7033 37.4766 19.0482 37.4766 19.4502V23.5H36.3721ZM46.395 23.5508C45.6925 23.5508 45.1826 23.409 44.8652 23.1255C44.5521 22.842 44.3955 22.3743 44.3955 21.7227V17.5713H43.3164V16.6572H44.3955V14.8862H45.5381V16.6572H47.0361V17.5713H45.5381V21.4434C45.5381 21.8454 45.6143 22.1353 45.7666 22.313C45.9189 22.4865 46.1729 22.5732 46.5283 22.5732C46.6257 22.5732 46.7082 22.5711 46.7759 22.5669C46.8478 22.5627 46.9346 22.5563 47.0361 22.5479V23.4873C46.9303 23.5042 46.8245 23.519 46.7188 23.5317C46.613 23.5444 46.505 23.5508 46.395 23.5508Z" fill="black" fill-opacity="0.85"/>
</svg>
