<svg width="431" height="37" viewBox="0 0 431 37" fill="none" xmlns="http://www.w3.org/2000/svg">
<mask id="path-1-inside-1_520_7470" fill="white">
<path d="M0 0H431V37H0V0Z"/>
</mask>
<path d="M431 36H0V38H431V36Z" fill="black" fill-opacity="0.05" mask="url(#path-1-inside-1_520_7470)"/>
<path d="M3.54834 23.5V15.3687H0.59668V14.3403H7.64258V15.3687H4.69092V23.5H3.54834ZM9.81348 23.6206C9.38184 23.6206 8.99251 23.5381 8.64551 23.373C8.30273 23.208 8.02979 22.9731 7.82666 22.6685C7.62777 22.3638 7.52832 22.0041 7.52832 21.5894V21.5767C7.52832 21.1704 7.62565 20.8234 7.82031 20.5356C8.01497 20.2437 8.2985 20.0151 8.6709 19.8501C9.04329 19.6851 9.49398 19.5877 10.0229 19.5581L12.5366 19.4058V20.2881L10.1562 20.4404C9.63574 20.4701 9.25488 20.578 9.01367 20.7642C8.77669 20.9504 8.6582 21.2127 8.6582 21.5513V21.564C8.6582 21.911 8.78939 22.1818 9.05176 22.3765C9.31413 22.5669 9.64421 22.6621 10.042 22.6621C10.4186 22.6621 10.7529 22.5881 11.0449 22.4399C11.3369 22.2876 11.5654 22.0824 11.7305 21.8242C11.8997 21.5661 11.9844 21.2741 11.9844 20.9482V18.8154C11.9844 18.3923 11.8553 18.0706 11.5972 17.8506C11.3433 17.6263 10.9603 17.5142 10.4482 17.5142C10.0378 17.5142 9.70133 17.5882 9.43896 17.7363C9.1766 17.8802 9.00098 18.0854 8.91211 18.3521L8.90576 18.3711H7.80127L7.80762 18.333C7.86686 17.9733 8.01497 17.6602 8.25195 17.3936C8.49316 17.1227 8.8042 16.9132 9.18506 16.7651C9.56592 16.6128 9.99967 16.5366 10.4863 16.5366C11.0449 16.5366 11.5168 16.6276 11.9019 16.8096C12.2912 16.9915 12.5853 17.2539 12.7842 17.5967C12.9873 17.9352 13.0889 18.3415 13.0889 18.8154V23.5H11.9844V22.4907H11.8828C11.7389 22.7319 11.5633 22.9372 11.356 23.1064C11.1528 23.2757 10.9222 23.4048 10.6641 23.4937C10.4059 23.5783 10.1224 23.6206 9.81348 23.6206ZM17.4561 23.6206C16.9482 23.6206 16.4997 23.5444 16.1104 23.3921C15.721 23.2355 15.4079 23.0176 15.1709 22.7383C14.9382 22.459 14.8006 22.131 14.7583 21.7544H15.8882C15.9813 22.0379 16.1632 22.2664 16.4341 22.4399C16.7049 22.6134 17.0583 22.7002 17.4941 22.7002C17.8031 22.7002 18.0739 22.6558 18.3066 22.5669C18.5436 22.4738 18.7298 22.349 18.8652 22.1924C19.0007 22.0316 19.0684 21.8475 19.0684 21.6401V21.6274C19.0684 21.3947 18.9753 21.1979 18.7891 21.0371C18.6029 20.8721 18.2982 20.7388 17.875 20.6372L16.8149 20.3833C16.3875 20.2817 16.0363 20.1506 15.7612 19.9897C15.4862 19.8247 15.283 19.6237 15.1519 19.3867C15.0207 19.1455 14.9551 18.862 14.9551 18.5361V18.5298C14.9551 18.1489 15.0651 17.8083 15.2852 17.5078C15.5094 17.2074 15.8141 16.9704 16.1992 16.7969C16.5843 16.6234 17.0181 16.5366 17.5005 16.5366C17.9787 16.5366 18.4019 16.6128 18.77 16.7651C19.1424 16.9132 19.4408 17.1248 19.665 17.3999C19.8936 17.675 20.0332 17.9987 20.084 18.3711H18.9985C18.9266 18.1003 18.7616 17.8802 18.5034 17.7109C18.2453 17.5417 17.9089 17.457 17.4941 17.457C17.2233 17.457 16.9821 17.5015 16.7705 17.5903C16.5589 17.675 16.3918 17.7935 16.269 17.9458C16.1463 18.0981 16.085 18.2759 16.085 18.479V18.4917C16.085 18.644 16.1252 18.7795 16.2056 18.8979C16.286 19.0164 16.4108 19.1201 16.5801 19.209C16.7493 19.2979 16.9673 19.3761 17.2339 19.4438L18.2876 19.6978C18.9308 19.8543 19.409 20.0786 19.7222 20.3706C20.0396 20.6626 20.1982 21.054 20.1982 21.5449V21.5576C20.1982 21.9639 20.0776 22.3236 19.8364 22.6367C19.5952 22.9456 19.2673 23.1868 18.8525 23.3604C18.4421 23.5339 17.9766 23.6206 17.4561 23.6206ZM21.9756 23.5V13.9404H23.0801V23.5H21.9756ZM26.2856 23.5L23.6133 20.1484L24.4258 19.4438L27.6758 23.5H26.2856ZM22.9404 21.0371L22.8896 19.647H23.1816L26.1396 16.6572H27.479L24.229 19.793L23.9624 20.0532L22.9404 21.0371Z" fill="black" fill-opacity="0.85"/>
</svg>
