<svg width="162" height="25" viewBox="0 0 162 25" fill="none" xmlns="http://www.w3.org/2000/svg">
<rect x="0.75" y="0.75" width="160.5" height="23.5" rx="5.25" stroke="black" stroke-opacity="0.1" stroke-width="0.5"/>
<path d="M150.944 17.3667C150.381 17.3667 149.858 17.2651 149.376 17.062C148.894 16.8589 148.502 16.5669 148.202 16.186C147.905 15.8052 147.747 15.3481 147.726 14.8149V14.8086L148.83 14.8022V14.8149C148.872 15.1069 148.972 15.3714 149.128 15.6084C149.285 15.8454 149.511 16.0337 149.808 16.1733C150.108 16.3088 150.491 16.3765 150.957 16.3765C151.435 16.3765 151.818 16.313 152.105 16.186C152.397 16.0549 152.609 15.8813 152.74 15.6655C152.871 15.4455 152.937 15.2043 152.937 14.9419V14.9292C152.937 14.5822 152.827 14.2944 152.607 14.0659C152.391 13.8332 151.968 13.6406 151.337 13.4883L150.392 13.2598C149.867 13.1328 149.423 12.9678 149.059 12.7646C148.699 12.5573 148.426 12.3034 148.24 12.0029C148.054 11.7025 147.96 11.3449 147.96 10.9302V10.9175C147.96 10.4224 148.09 9.99284 148.348 9.62891C148.61 9.26074 148.965 8.97721 149.414 8.77832C149.863 8.5752 150.373 8.47363 150.944 8.47363C151.49 8.47363 151.985 8.57731 152.429 8.78467C152.878 8.99202 153.24 9.28402 153.515 9.66064C153.79 10.033 153.936 10.471 153.953 10.9746V10.981L152.848 10.9873V10.9746C152.819 10.653 152.717 10.38 152.543 10.1558C152.374 9.93148 152.152 9.76009 151.877 9.6416C151.602 9.52311 151.291 9.46387 150.944 9.46387C150.533 9.46387 150.188 9.53158 149.909 9.66699C149.63 9.79818 149.418 9.96956 149.274 10.1812C149.135 10.3885 149.065 10.6086 149.065 10.8413V10.854C149.065 11.0571 149.111 11.2454 149.205 11.4189C149.302 11.5924 149.458 11.7469 149.674 11.8823C149.89 12.0177 150.182 12.1299 150.55 12.2188L151.496 12.4473C152.313 12.6419 152.941 12.9233 153.381 13.2915C153.821 13.6597 154.042 14.1759 154.042 14.8403V14.853C154.042 15.3989 153.898 15.8602 153.61 16.2368C153.322 16.6092 152.943 16.8906 152.474 17.0811C152.004 17.2715 151.494 17.3667 150.944 17.3667ZM150.538 18.4204V7.41992H151.299V18.4204H150.538Z" fill="black" fill-opacity="0.25"/>
</svg>
