<svg width="130" height="28" viewBox="0 0 130 28" fill="none" xmlns="http://www.w3.org/2000/svg">
<g filter="url(#filter0_dd_513_7170)">
<rect x="3" y="2" width="124" height="22" rx="5" fill="#03A200"/>
<rect x="3" y="2" width="124" height="22" rx="5" fill="url(#paint0_linear_513_7170)" fill-opacity="0.17"/>
<path d="M15.1328 18.2158C14.3034 18.2158 13.5861 18.0212 12.981 17.6318C12.3758 17.2425 11.9082 16.6903 11.5781 15.9751C11.2523 15.2599 11.0894 14.4115 11.0894 13.4297V13.417C11.0894 12.431 11.2523 11.5804 11.5781 10.8652C11.9082 10.1501 12.3737 9.59782 12.9746 9.2085C13.5798 8.81917 14.297 8.62451 15.1265 8.62451C15.7697 8.62451 16.3537 8.75146 16.8784 9.00537C17.4074 9.25505 17.8433 9.60417 18.186 10.0527C18.5288 10.4971 18.7446 11.0112 18.8335 11.5952L18.8271 11.6079H17.6782L17.6719 11.5952C17.5703 11.2017 17.3989 10.8631 17.1577 10.5796C16.9165 10.2918 16.6224 10.0697 16.2754 9.91309C15.9326 9.75651 15.5496 9.67822 15.1265 9.67822C14.5425 9.67822 14.0347 9.83057 13.603 10.1353C13.1756 10.4399 12.8455 10.8716 12.6128 11.4302C12.38 11.9888 12.2637 12.651 12.2637 13.417V13.4297C12.2637 14.1914 12.38 14.8516 12.6128 15.4102C12.8455 15.9688 13.1756 16.4004 13.603 16.7051C14.0347 17.0098 14.5446 17.1621 15.1328 17.1621C15.5602 17.1621 15.9474 17.0944 16.2944 16.959C16.6414 16.8193 16.9334 16.6226 17.1704 16.3687C17.4074 16.1105 17.5724 15.8058 17.6655 15.4546L17.6782 15.4419H18.8335V15.4546C18.7319 16.0132 18.5119 16.4998 18.1733 16.9146C17.8348 17.325 17.4053 17.6445 16.8848 17.873C16.3685 18.1016 15.7845 18.2158 15.1328 18.2158ZM20.6743 18V8.44043H21.7788V12.1855H21.8804C22.0539 11.8216 22.3035 11.5402 22.6294 11.3413C22.9552 11.1382 23.37 11.0366 23.8735 11.0366C24.3856 11.0366 24.8193 11.1361 25.1748 11.335C25.5303 11.5296 25.8011 11.8153 25.9873 12.1919C26.1735 12.5685 26.2666 13.0277 26.2666 13.5693V18H25.1621V13.8359C25.1621 13.2181 25.0309 12.7611 24.7686 12.4648C24.5104 12.1644 24.1084 12.0142 23.5625 12.0142C23.1986 12.0142 22.8833 12.0924 22.6167 12.249C22.3501 12.4056 22.1427 12.6278 21.9946 12.9155C21.8507 13.2033 21.7788 13.5482 21.7788 13.9502V18H20.6743ZM30.145 18.1206C29.7134 18.1206 29.3241 18.0381 28.9771 17.873C28.6343 17.708 28.3613 17.4731 28.1582 17.1685C27.9593 16.8638 27.8599 16.5041 27.8599 16.0894V16.0767C27.8599 15.6704 27.9572 15.3234 28.1519 15.0356C28.3465 14.7437 28.63 14.5151 29.0024 14.3501C29.3748 14.1851 29.8255 14.0877 30.3545 14.0581L32.8682 13.9058V14.7881L30.4878 14.9404C29.9673 14.9701 29.5864 15.078 29.3452 15.2642C29.1082 15.4504 28.9897 15.7127 28.9897 16.0513V16.064C28.9897 16.411 29.1209 16.6818 29.3833 16.8765C29.6457 17.0669 29.9757 17.1621 30.3735 17.1621C30.7502 17.1621 31.0845 17.0881 31.3765 16.9399C31.6685 16.7876 31.897 16.5824 32.062 16.3242C32.2313 16.0661 32.3159 15.7741 32.3159 15.4482V13.3154C32.3159 12.8923 32.1868 12.5706 31.9287 12.3506C31.6748 12.1263 31.2918 12.0142 30.7798 12.0142C30.3693 12.0142 30.0329 12.0882 29.7705 12.2363C29.5081 12.3802 29.3325 12.5854 29.2437 12.8521L29.2373 12.8711H28.1328L28.1392 12.833C28.1984 12.4733 28.3465 12.1602 28.5835 11.8936C28.8247 11.6227 29.1357 11.4132 29.5166 11.2651C29.8975 11.1128 30.3312 11.0366 30.8179 11.0366C31.3765 11.0366 31.8483 11.1276 32.2334 11.3096C32.6227 11.4915 32.9168 11.7539 33.1157 12.0967C33.3188 12.4352 33.4204 12.8415 33.4204 13.3154V18H32.3159V16.9907H32.2144C32.0705 17.2319 31.8949 17.4372 31.6875 17.6064C31.4844 17.7757 31.2537 17.9048 30.9956 17.9937C30.7375 18.0783 30.4539 18.1206 30.145 18.1206ZM35.439 18V11.1572H36.5435V12.1855H36.645C36.8185 11.8216 37.0682 11.5402 37.394 11.3413C37.7199 11.1382 38.1346 11.0366 38.6382 11.0366C39.4084 11.0366 39.9987 11.2567 40.4092 11.6968C40.8239 12.1326 41.0312 12.7568 41.0312 13.5693V18H39.9268V13.8359C39.9268 13.2181 39.7956 12.7611 39.5332 12.4648C39.2751 12.1644 38.873 12.0142 38.3271 12.0142C37.9632 12.0142 37.6479 12.0924 37.3813 12.249C37.1147 12.4056 36.9074 12.6278 36.7593 12.9155C36.6154 13.2033 36.5435 13.5482 36.5435 13.9502V18H35.439ZM45.8491 20.4121C45.299 20.4121 44.8187 20.3338 44.4082 20.1772C43.9977 20.0249 43.6698 19.807 43.4243 19.5234C43.1831 19.2441 43.0329 18.9183 42.9736 18.5459L42.9863 18.5396H44.1289L44.1353 18.5459C44.1945 18.804 44.3722 19.0156 44.6685 19.1807C44.9647 19.3499 45.3582 19.4346 45.8491 19.4346C46.4627 19.4346 46.9409 19.2949 47.2837 19.0156C47.6307 18.7406 47.8042 18.3512 47.8042 17.8477V16.4639H47.7026C47.5588 16.7135 47.3789 16.9272 47.1631 17.105C46.9473 17.2827 46.7039 17.4181 46.4331 17.5112C46.1623 17.6001 45.8703 17.6445 45.5571 17.6445C44.9689 17.6445 44.459 17.5049 44.0273 17.2256C43.5999 16.9421 43.2699 16.5527 43.0371 16.0576C42.8044 15.5625 42.688 14.9954 42.688 14.3564V14.3438C42.688 13.7048 42.8044 13.1377 43.0371 12.6426C43.2741 12.1432 43.6084 11.7518 44.04 11.4683C44.4717 11.1805 44.9858 11.0366 45.5825 11.0366C45.9041 11.0366 46.2004 11.0874 46.4712 11.189C46.742 11.2905 46.9811 11.4344 47.1885 11.6206C47.4001 11.8068 47.5757 12.029 47.7153 12.2871H47.7915V11.1572H48.896V17.9048C48.896 18.4126 48.7712 18.8548 48.5215 19.2314C48.276 19.6081 47.9248 19.8979 47.4678 20.1011C47.0107 20.3084 46.4712 20.4121 45.8491 20.4121ZM45.7983 16.667C46.2215 16.667 46.5833 16.5697 46.8838 16.375C47.1885 16.1761 47.4212 15.9032 47.582 15.5562C47.7471 15.2091 47.8296 14.8092 47.8296 14.3564V14.3438C47.8296 13.891 47.7471 13.4889 47.582 13.1377C47.4212 12.7865 47.1885 12.5114 46.8838 12.3125C46.5833 12.1136 46.2215 12.0142 45.7983 12.0142C45.3752 12.0142 45.0155 12.1136 44.7192 12.3125C44.4272 12.5114 44.203 12.7865 44.0464 13.1377C43.894 13.4889 43.8179 13.891 43.8179 14.3438V14.3564C43.8179 14.8092 43.894 15.2091 44.0464 15.5562C44.203 15.9032 44.4272 16.1761 44.7192 16.375C45.0155 16.5697 45.3752 16.667 45.7983 16.667ZM53.7456 18.1206C53.0939 18.1206 52.5332 17.9767 52.0635 17.689C51.598 17.4012 51.2383 16.995 50.9844 16.4702C50.7347 15.9412 50.6099 15.3192 50.6099 14.604V14.5977C50.6099 13.891 50.7347 13.271 50.9844 12.7378C51.2383 12.2046 51.5959 11.7878 52.0571 11.4873C52.5184 11.1868 53.0579 11.0366 53.6758 11.0366C54.2979 11.0366 54.8311 11.1805 55.2754 11.4683C55.724 11.756 56.0667 12.158 56.3037 12.6743C56.5449 13.1864 56.6655 13.783 56.6655 14.4644V14.896H51.1812V14.0137H56.1006L55.5547 14.8198V14.3818C55.5547 13.8444 55.4743 13.4022 55.3135 13.0552C55.1527 12.7082 54.9305 12.45 54.647 12.2808C54.3634 12.1073 54.0376 12.0205 53.6694 12.0205C53.3013 12.0205 52.9712 12.1115 52.6792 12.2935C52.3914 12.4712 52.1629 12.7357 51.9937 13.0869C51.8244 13.4382 51.7397 13.8698 51.7397 14.3818V14.8198C51.7397 15.3065 51.8223 15.7233 51.9873 16.0703C52.1523 16.4131 52.3872 16.6776 52.6919 16.8638C52.9966 17.0457 53.3563 17.1367 53.771 17.1367C54.0799 17.1367 54.3486 17.0944 54.5771 17.0098C54.8057 16.9251 54.994 16.8172 55.1421 16.686C55.2902 16.5549 55.3939 16.4215 55.4531 16.2861L55.4785 16.229H56.583L56.5703 16.2798C56.5111 16.5125 56.4053 16.7389 56.2529 16.959C56.1048 17.1748 55.9123 17.3716 55.6753 17.5493C55.4383 17.7228 55.1569 17.8625 54.8311 17.9683C54.5094 18.0698 54.1476 18.1206 53.7456 18.1206ZM62.7466 14.731V13.7153H65.3364C65.9924 13.7153 66.5002 13.5461 66.8599 13.2075C67.2196 12.8647 67.3994 12.3929 67.3994 11.792V11.7793C67.3994 11.1742 67.2196 10.7023 66.8599 10.3638C66.5002 10.0252 65.9924 9.85596 65.3364 9.85596H62.7466V8.84033H65.6284C66.2039 8.84033 66.7118 8.96305 67.1519 9.2085C67.592 9.45394 67.9368 9.79671 68.1865 10.2368C68.4404 10.6769 68.5674 11.1868 68.5674 11.7666V11.7793C68.5674 12.359 68.4404 12.8711 68.1865 13.3154C67.9368 13.7598 67.592 14.1068 67.1519 14.3564C66.7118 14.6061 66.2039 14.731 65.6284 14.731H62.7466ZM62.1753 18V8.84033H63.3179V18H62.1753ZM71.9253 18.1206C71.4937 18.1206 71.1043 18.0381 70.7573 17.873C70.4146 17.708 70.1416 17.4731 69.9385 17.1685C69.7396 16.8638 69.6401 16.5041 69.6401 16.0894V16.0767C69.6401 15.6704 69.7375 15.3234 69.9321 15.0356C70.1268 14.7437 70.4103 14.5151 70.7827 14.3501C71.1551 14.1851 71.6058 14.0877 72.1348 14.0581L74.6484 13.9058V14.7881L72.2681 14.9404C71.7476 14.9701 71.3667 15.078 71.1255 15.2642C70.8885 15.4504 70.77 15.7127 70.77 16.0513V16.064C70.77 16.411 70.9012 16.6818 71.1636 16.8765C71.4259 17.0669 71.756 17.1621 72.1538 17.1621C72.5304 17.1621 72.8647 17.0881 73.1567 16.9399C73.4487 16.7876 73.6772 16.5824 73.8423 16.3242C74.0116 16.0661 74.0962 15.7741 74.0962 15.4482V13.3154C74.0962 12.8923 73.9671 12.5706 73.709 12.3506C73.4551 12.1263 73.0721 12.0142 72.5601 12.0142C72.1496 12.0142 71.8132 12.0882 71.5508 12.2363C71.2884 12.3802 71.1128 12.5854 71.0239 12.8521L71.0176 12.8711H69.9131L69.9194 12.833C69.9787 12.4733 70.1268 12.1602 70.3638 11.8936C70.605 11.6227 70.916 11.4132 71.2969 11.2651C71.6777 11.1128 72.1115 11.0366 72.5981 11.0366C73.1567 11.0366 73.6286 11.1276 74.0137 11.3096C74.403 11.4915 74.6971 11.7539 74.896 12.0967C75.0991 12.4352 75.2007 12.8415 75.2007 13.3154V18H74.0962V16.9907H73.9946C73.8507 17.2319 73.6751 17.4372 73.4678 17.6064C73.2646 17.7757 73.034 17.9048 72.7759 17.9937C72.5177 18.0783 72.2342 18.1206 71.9253 18.1206ZM79.5679 18.1206C79.0601 18.1206 78.6115 18.0444 78.2222 17.8921C77.8328 17.7355 77.5197 17.5176 77.2827 17.2383C77.05 16.959 76.9124 16.631 76.8701 16.2544H78C78.0931 16.5379 78.2751 16.7664 78.5459 16.9399C78.8167 17.1134 79.1701 17.2002 79.606 17.2002C79.9149 17.2002 80.1857 17.1558 80.4185 17.0669C80.6554 16.9738 80.8416 16.849 80.9771 16.6924C81.1125 16.5316 81.1802 16.3475 81.1802 16.1401V16.1274C81.1802 15.8947 81.0871 15.6979 80.9009 15.5371C80.7147 15.3721 80.41 15.2388 79.9868 15.1372L78.9268 14.8833C78.4993 14.7817 78.1481 14.6506 77.873 14.4897C77.598 14.3247 77.3949 14.1237 77.2637 13.8867C77.1325 13.6455 77.0669 13.362 77.0669 13.0361V13.0298C77.0669 12.6489 77.1769 12.3083 77.397 12.0078C77.6213 11.7074 77.9259 11.4704 78.311 11.2969C78.6961 11.1234 79.1299 11.0366 79.6123 11.0366C80.0905 11.0366 80.5137 11.1128 80.8818 11.2651C81.2542 11.4132 81.5526 11.6248 81.7769 11.8999C82.0054 12.175 82.145 12.4987 82.1958 12.8711H81.1104C81.0384 12.6003 80.8734 12.3802 80.6152 12.2109C80.3571 12.0417 80.0207 11.957 79.606 11.957C79.3351 11.957 79.0939 12.0015 78.8823 12.0903C78.6707 12.175 78.5036 12.2935 78.3809 12.4458C78.2581 12.5981 78.1968 12.7759 78.1968 12.979V12.9917C78.1968 13.144 78.237 13.2795 78.3174 13.3979C78.3978 13.5164 78.5226 13.6201 78.6919 13.709C78.8612 13.7979 79.0791 13.8761 79.3457 13.9438L80.3994 14.1978C81.0426 14.3543 81.5208 14.5786 81.834 14.8706C82.1514 15.1626 82.3101 15.554 82.3101 16.0449V16.0576C82.3101 16.4639 82.1895 16.8236 81.9482 17.1367C81.707 17.4456 81.3791 17.6868 80.9644 17.8604C80.5539 18.0339 80.0884 18.1206 79.5679 18.1206ZM86.2456 18.1206C85.7378 18.1206 85.2892 18.0444 84.8999 17.8921C84.5106 17.7355 84.1974 17.5176 83.9604 17.2383C83.7277 16.959 83.5902 16.631 83.5479 16.2544H84.6777C84.7708 16.5379 84.9528 16.7664 85.2236 16.9399C85.4945 17.1134 85.8478 17.2002 86.2837 17.2002C86.5926 17.2002 86.8634 17.1558 87.0962 17.0669C87.3332 16.9738 87.5194 16.849 87.6548 16.6924C87.7902 16.5316 87.8579 16.3475 87.8579 16.1401V16.1274C87.8579 15.8947 87.7648 15.6979 87.5786 15.5371C87.3924 15.3721 87.0877 15.2388 86.6646 15.1372L85.6045 14.8833C85.1771 14.7817 84.8258 14.6506 84.5508 14.4897C84.2757 14.3247 84.0726 14.1237 83.9414 13.8867C83.8102 13.6455 83.7446 13.362 83.7446 13.0361V13.0298C83.7446 12.6489 83.8547 12.3083 84.0747 12.0078C84.299 11.7074 84.6037 11.4704 84.9888 11.2969C85.3739 11.1234 85.8076 11.0366 86.29 11.0366C86.7682 11.0366 87.1914 11.1128 87.5596 11.2651C87.932 11.4132 88.2303 11.6248 88.4546 11.8999C88.6831 12.175 88.8228 12.4987 88.8735 12.8711H87.7881C87.7161 12.6003 87.5511 12.3802 87.293 12.2109C87.0348 12.0417 86.6984 11.957 86.2837 11.957C86.0129 11.957 85.7716 12.0015 85.5601 12.0903C85.3485 12.175 85.1813 12.2935 85.0586 12.4458C84.9359 12.5981 84.8745 12.7759 84.8745 12.979V12.9917C84.8745 13.144 84.9147 13.2795 84.9951 13.3979C85.0755 13.5164 85.2004 13.6201 85.3696 13.709C85.5389 13.7979 85.7568 13.8761 86.0234 13.9438L87.0771 14.1978C87.7204 14.3543 88.1986 14.5786 88.5117 14.8706C88.8291 15.1626 88.9878 15.554 88.9878 16.0449V16.0576C88.9878 16.4639 88.8672 16.8236 88.626 17.1367C88.3848 17.4456 88.0568 17.6868 87.6421 17.8604C87.2316 18.0339 86.7661 18.1206 86.2456 18.1206ZM91.8315 18L89.9146 11.1572H91.019L92.3647 16.6289H92.4663L93.9961 11.1572H95.0435L96.5732 16.6289H96.6748L98.0205 11.1572H99.1187L97.2017 18H96.0908L94.561 12.7061H94.4595L92.936 18H91.8315ZM103.137 18.1206C102.489 18.1206 101.929 17.9788 101.455 17.6953C100.985 17.4076 100.621 16.9992 100.363 16.4702C100.109 15.9412 99.9819 15.3128 99.9819 14.585V14.5723C99.9819 13.8402 100.109 13.2096 100.363 12.6807C100.621 12.1517 100.985 11.7454 101.455 11.4619C101.929 11.1784 102.489 11.0366 103.137 11.0366C103.788 11.0366 104.349 11.1784 104.819 11.4619C105.289 11.7454 105.65 12.1517 105.904 12.6807C106.162 13.2096 106.292 13.8402 106.292 14.5723V14.585C106.292 15.3128 106.162 15.9412 105.904 16.4702C105.65 16.9992 105.289 17.4076 104.819 17.6953C104.349 17.9788 103.788 18.1206 103.137 18.1206ZM103.137 17.1431C103.568 17.1431 103.934 17.0415 104.235 16.8384C104.535 16.6353 104.764 16.3433 104.92 15.9624C105.081 15.5815 105.162 15.1224 105.162 14.585V14.5723C105.162 14.0306 105.081 13.5693 104.92 13.1885C104.764 12.8076 104.535 12.5177 104.235 12.3188C103.934 12.1157 103.568 12.0142 103.137 12.0142C102.705 12.0142 102.339 12.1157 102.039 12.3188C101.738 12.5177 101.507 12.8076 101.347 13.1885C101.19 13.5693 101.112 14.0306 101.112 14.5723V14.585C101.112 15.1224 101.19 15.5815 101.347 15.9624C101.507 16.3433 101.738 16.6353 102.039 16.8384C102.339 17.0415 102.705 17.1431 103.137 17.1431ZM108.005 18V11.1572H109.11V12.1729H109.211C109.343 11.8132 109.565 11.5339 109.878 11.335C110.191 11.1361 110.578 11.0366 111.04 11.0366C111.145 11.0366 111.249 11.043 111.351 11.0557C111.456 11.0641 111.537 11.0726 111.592 11.0811V12.1538C111.478 12.1326 111.365 12.1178 111.255 12.1094C111.15 12.0967 111.035 12.0903 110.913 12.0903C110.561 12.0903 110.25 12.1602 109.979 12.2998C109.709 12.4395 109.495 12.6341 109.338 12.8838C109.186 13.1335 109.11 13.4255 109.11 13.7598V18H108.005ZM115.292 18.1206C114.717 18.1206 114.213 17.9746 113.782 17.6826C113.35 17.3906 113.016 16.9801 112.779 16.4512C112.542 15.918 112.423 15.2959 112.423 14.585V14.5723C112.423 13.8571 112.542 13.235 112.779 12.7061C113.016 12.1771 113.348 11.7666 113.775 11.4746C114.207 11.1826 114.713 11.0366 115.292 11.0366C115.606 11.0366 115.9 11.0874 116.175 11.189C116.454 11.2863 116.702 11.4238 116.917 11.6016C117.133 11.7793 117.303 11.9909 117.425 12.2363H117.527V8.44043H118.631V18H117.527V16.9082H117.425C117.286 17.1621 117.11 17.38 116.898 17.562C116.687 17.7397 116.446 17.8773 116.175 17.9746C115.904 18.0719 115.61 18.1206 115.292 18.1206ZM115.546 17.1431C115.961 17.1431 116.319 17.0394 116.619 16.832C116.92 16.6247 117.15 16.3306 117.311 15.9497C117.472 15.5646 117.552 15.1097 117.552 14.585V14.5723C117.552 14.0433 117.472 13.5884 117.311 13.2075C117.15 12.8267 116.92 12.5326 116.619 12.3252C116.319 12.1178 115.961 12.0142 115.546 12.0142C115.132 12.0142 114.774 12.1178 114.474 12.3252C114.177 12.5283 113.949 12.8203 113.788 13.2012C113.632 13.582 113.553 14.0391 113.553 14.5723V14.585C113.553 15.1139 113.632 15.571 113.788 15.9561C113.949 16.3369 114.177 16.631 114.474 16.8384C114.774 17.0415 115.132 17.1431 115.546 17.1431Z" fill="white"/>
</g>
<defs>
<filter id="filter0_dd_513_7170" x="0.5" y="0.5" width="129" height="27" filterUnits="userSpaceOnUse" color-interpolation-filters="sRGB">
<feFlood flood-opacity="0" result="BackgroundImageFix"/>
<feColorMatrix in="SourceAlpha" type="matrix" values="0 0 0 0 0 0 0 0 0 0 0 0 0 0 0 0 0 0 127 0" result="hardAlpha"/>
<feMorphology radius="0.5" operator="dilate" in="SourceAlpha" result="effect1_dropShadow_513_7170"/>
<feOffset/>
<feComposite in2="hardAlpha" operator="out"/>
<feColorMatrix type="matrix" values="0 0 0 0 0 0 0 0 0 0.478431 0 0 0 0 1 0 0 0 0.12 0"/>
<feBlend mode="normal" in2="BackgroundImageFix" result="effect1_dropShadow_513_7170"/>
<feColorMatrix in="SourceAlpha" type="matrix" values="0 0 0 0 0 0 0 0 0 0 0 0 0 0 0 0 0 0 127 0" result="hardAlpha"/>
<feOffset dy="1"/>
<feGaussianBlur stdDeviation="1.25"/>
<feComposite in2="hardAlpha" operator="out"/>
<feColorMatrix type="matrix" values="0 0 0 0 0 0 0 0 0 0.478431 0 0 0 0 1 0 0 0 0.24 0"/>
<feBlend mode="normal" in2="effect1_dropShadow_513_7170" result="effect2_dropShadow_513_7170"/>
<feBlend mode="normal" in="SourceGraphic" in2="effect2_dropShadow_513_7170" result="shape"/>
</filter>
<linearGradient id="paint0_linear_513_7170" x1="65" y1="2" x2="65" y2="24" gradientUnits="userSpaceOnUse">
<stop stop-color="white"/>
<stop offset="1" stop-color="white" stop-opacity="0"/>
</linearGradient>
</defs>
</svg>
