<svg width="451" height="111" viewBox="0 0 451 111" fill="none" xmlns="http://www.w3.org/2000/svg">
<rect width="451" height="111" rx="6" fill="black" fill-opacity="0.015"/>
<rect x="0.5" y="0.5" width="450" height="110" rx="5.5" stroke="black" stroke-opacity="0.04"/>
<mask id="path-3-inside-1_513_7160" fill="white">
<path d="M10 0H441V37H10V0Z"/>
</mask>
<path d="M441 36H10V38H441V36Z" fill="black" fill-opacity="0.05" mask="url(#path-3-inside-1_513_7160)"/>
<path d="M15.0146 23.7158C14.1387 23.7158 13.3875 23.5212 12.7612 23.1318C12.1349 22.7383 11.6525 22.1818 11.314 21.4624C10.9797 20.743 10.8125 19.8966 10.8125 18.9233V18.9106C10.8125 17.9289 10.9818 17.0804 11.3203 16.3652C11.6631 15.6501 12.1476 15.0978 12.7739 14.7085C13.4045 14.3192 14.1514 14.1245 15.0146 14.1245C15.8822 14.1245 16.6291 14.3192 17.2554 14.7085C17.8859 15.0978 18.3704 15.6522 18.709 16.3716C19.0475 17.0868 19.2168 17.9331 19.2168 18.9106V18.9233C19.2168 19.8966 19.0475 20.743 18.709 21.4624C18.3747 22.1776 17.8923 22.7319 17.2617 23.1255C16.6354 23.519 15.8864 23.7158 15.0146 23.7158ZM15.0146 22.6621C15.641 22.6621 16.1805 22.5076 16.6333 22.1987C17.0861 21.8898 17.4352 21.4561 17.6807 20.8975C17.9261 20.3346 18.0488 19.6766 18.0488 18.9233V18.9106C18.0488 18.1489 17.9261 17.4888 17.6807 16.9302C17.4352 16.3716 17.0861 15.9399 16.6333 15.6353C16.1805 15.3306 15.641 15.1782 15.0146 15.1782C14.3926 15.1782 13.8551 15.3306 13.4023 15.6353C12.9495 15.9399 12.5983 16.3716 12.3486 16.9302C12.1032 17.4888 11.9805 18.1489 11.9805 18.9106V18.9233C11.9805 19.6766 12.1011 20.3346 12.3423 20.8975C12.5835 21.4561 12.9305 21.8898 13.3833 22.1987C13.8361 22.5076 14.3799 22.6621 15.0146 22.6621ZM21.1211 23.5V13.9404H22.2256V23.5H21.1211ZM26.8721 23.6206C26.2965 23.6206 25.793 23.4746 25.3613 23.1826C24.9297 22.8906 24.5954 22.4801 24.3584 21.9512C24.1214 21.418 24.0029 20.7959 24.0029 20.085V20.0723C24.0029 19.3571 24.1214 18.735 24.3584 18.2061C24.5954 17.6771 24.9276 17.2666 25.355 16.9746C25.7866 16.6826 26.2923 16.5366 26.8721 16.5366C27.1852 16.5366 27.4793 16.5874 27.7544 16.689C28.0337 16.7863 28.2812 16.9238 28.4971 17.1016C28.7129 17.2793 28.8822 17.4909 29.0049 17.7363H29.1064V13.9404H30.2109V23.5H29.1064V22.4082H29.0049C28.8652 22.6621 28.6896 22.88 28.478 23.062C28.2664 23.2397 28.0252 23.3773 27.7544 23.4746C27.4836 23.5719 27.1895 23.6206 26.8721 23.6206ZM27.126 22.6431C27.5407 22.6431 27.8983 22.5394 28.1987 22.332C28.4992 22.1247 28.7298 21.8306 28.8906 21.4497C29.0514 21.0646 29.1318 20.6097 29.1318 20.085V20.0723C29.1318 19.5433 29.0514 19.0884 28.8906 18.7075C28.7298 18.3267 28.4992 18.0326 28.1987 17.8252C27.8983 17.6178 27.5407 17.5142 27.126 17.5142C26.7113 17.5142 26.3537 17.6178 26.0532 17.8252C25.757 18.0283 25.5285 18.3203 25.3677 18.7012C25.2111 19.082 25.1328 19.5391 25.1328 20.0723V20.085C25.1328 20.6139 25.2111 21.071 25.3677 21.4561C25.5285 21.8369 25.757 22.131 26.0532 22.3384C26.3537 22.5415 26.7113 22.6431 27.126 22.6431ZM36.6982 20.231V19.2153H39.2881C39.944 19.2153 40.4518 19.0461 40.8115 18.7075C41.1712 18.3647 41.3511 17.8929 41.3511 17.292V17.2793C41.3511 16.6742 41.1712 16.2023 40.8115 15.8638C40.4518 15.5252 39.944 15.356 39.2881 15.356H36.6982V14.3403H39.5801C40.1556 14.3403 40.6634 14.4631 41.1035 14.7085C41.5436 14.9539 41.8885 15.2967 42.1382 15.7368C42.3921 16.1769 42.519 16.6868 42.519 17.2666V17.2793C42.519 17.859 42.3921 18.3711 42.1382 18.8154C41.8885 19.2598 41.5436 19.6068 41.1035 19.8564C40.6634 20.1061 40.1556 20.231 39.5801 20.231H36.6982ZM36.127 23.5V14.3403H37.2695V23.5H36.127ZM45.877 23.6206C45.4453 23.6206 45.056 23.5381 44.709 23.373C44.3662 23.208 44.0933 22.9731 43.8901 22.6685C43.6912 22.3638 43.5918 22.0041 43.5918 21.5894V21.5767C43.5918 21.1704 43.6891 20.8234 43.8838 20.5356C44.0785 20.2437 44.362 20.0151 44.7344 19.8501C45.1068 19.6851 45.5575 19.5877 46.0864 19.5581L48.6001 19.4058V20.2881L46.2197 20.4404C45.6992 20.4701 45.3184 20.578 45.0771 20.7642C44.8402 20.9504 44.7217 21.2127 44.7217 21.5513V21.564C44.7217 21.911 44.8529 22.1818 45.1152 22.3765C45.3776 22.5669 45.7077 22.6621 46.1055 22.6621C46.4821 22.6621 46.8164 22.5881 47.1084 22.4399C47.4004 22.2876 47.6289 22.0824 47.7939 21.8242C47.9632 21.5661 48.0479 21.2741 48.0479 20.9482V18.8154C48.0479 18.3923 47.9188 18.0706 47.6606 17.8506C47.4067 17.6263 47.0238 17.5142 46.5117 17.5142C46.1012 17.5142 45.7648 17.5882 45.5024 17.7363C45.2401 17.8802 45.0645 18.0854 44.9756 18.3521L44.9692 18.3711H43.8647L43.8711 18.333C43.9303 17.9733 44.0785 17.6602 44.3154 17.3936C44.5566 17.1227 44.8677 16.9132 45.2485 16.7651C45.6294 16.6128 46.0632 16.5366 46.5498 16.5366C47.1084 16.5366 47.5802 16.6276 47.9653 16.8096C48.3547 16.9915 48.6488 17.2539 48.8477 17.5967C49.0508 17.9352 49.1523 18.3415 49.1523 18.8154V23.5H48.0479V22.4907H47.9463C47.8024 22.7319 47.6268 22.9372 47.4194 23.1064C47.2163 23.2757 46.9857 23.4048 46.7275 23.4937C46.4694 23.5783 46.1859 23.6206 45.877 23.6206ZM53.5195 23.6206C53.0117 23.6206 52.5632 23.5444 52.1738 23.3921C51.7845 23.2355 51.4714 23.0176 51.2344 22.7383C51.0016 22.459 50.8641 22.131 50.8218 21.7544H51.9517C52.0448 22.0379 52.2267 22.2664 52.4976 22.4399C52.7684 22.6134 53.1217 22.7002 53.5576 22.7002C53.8665 22.7002 54.1374 22.6558 54.3701 22.5669C54.6071 22.4738 54.7933 22.349 54.9287 22.1924C55.0641 22.0316 55.1318 21.8475 55.1318 21.6401V21.6274C55.1318 21.3947 55.0387 21.1979 54.8525 21.0371C54.6663 20.8721 54.3617 20.7388 53.9385 20.6372L52.8784 20.3833C52.451 20.2817 52.0998 20.1506 51.8247 19.9897C51.5496 19.8247 51.3465 19.6237 51.2153 19.3867C51.0841 19.1455 51.0186 18.862 51.0186 18.5361V18.5298C51.0186 18.1489 51.1286 17.8083 51.3486 17.5078C51.5729 17.2074 51.8776 16.9704 52.2627 16.7969C52.6478 16.6234 53.0815 16.5366 53.564 16.5366C54.0422 16.5366 54.4653 16.6128 54.8335 16.7651C55.2059 16.9132 55.5042 17.1248 55.7285 17.3999C55.957 17.675 56.0967 17.9987 56.1475 18.3711H55.062C54.9901 18.1003 54.825 17.8802 54.5669 17.7109C54.3088 17.5417 53.9723 17.457 53.5576 17.457C53.2868 17.457 53.0456 17.5015 52.834 17.5903C52.6224 17.675 52.4552 17.7935 52.3325 17.9458C52.2098 18.0981 52.1484 18.2759 52.1484 18.479V18.4917C52.1484 18.644 52.1886 18.7795 52.269 18.8979C52.3494 19.0164 52.4743 19.1201 52.6436 19.209C52.8128 19.2979 53.0308 19.3761 53.2974 19.4438L54.3511 19.6978C54.9943 19.8543 55.4725 20.0786 55.7856 20.3706C56.103 20.6626 56.2617 21.054 56.2617 21.5449V21.5576C56.2617 21.9639 56.1411 22.3236 55.8999 22.6367C55.6587 22.9456 55.3307 23.1868 54.916 23.3604C54.5055 23.5339 54.04 23.6206 53.5195 23.6206ZM60.1973 23.6206C59.6895 23.6206 59.2409 23.5444 58.8516 23.3921C58.4622 23.2355 58.1491 23.0176 57.9121 22.7383C57.6794 22.459 57.5418 22.131 57.4995 21.7544H58.6294C58.7225 22.0379 58.9045 22.2664 59.1753 22.4399C59.4461 22.6134 59.7995 22.7002 60.2354 22.7002C60.5443 22.7002 60.8151 22.6558 61.0479 22.5669C61.2848 22.4738 61.471 22.349 61.6064 22.1924C61.7419 22.0316 61.8096 21.8475 61.8096 21.6401V21.6274C61.8096 21.3947 61.7165 21.1979 61.5303 21.0371C61.3441 20.8721 61.0394 20.7388 60.6162 20.6372L59.5562 20.3833C59.1287 20.2817 58.7775 20.1506 58.5024 19.9897C58.2274 19.8247 58.0243 19.6237 57.8931 19.3867C57.7619 19.1455 57.6963 18.862 57.6963 18.5361V18.5298C57.6963 18.1489 57.8063 17.8083 58.0264 17.5078C58.2507 17.2074 58.5553 16.9704 58.9404 16.7969C59.3255 16.6234 59.7593 16.5366 60.2417 16.5366C60.7199 16.5366 61.1431 16.6128 61.5112 16.7651C61.8836 16.9132 62.182 17.1248 62.4062 17.3999C62.6348 17.675 62.7744 17.9987 62.8252 18.3711H61.7397C61.6678 18.1003 61.5028 17.8802 61.2446 17.7109C60.9865 17.5417 60.6501 17.457 60.2354 17.457C59.9645 17.457 59.7233 17.5015 59.5117 17.5903C59.3001 17.675 59.133 17.7935 59.0103 17.9458C58.8875 18.0981 58.8262 18.2759 58.8262 18.479V18.4917C58.8262 18.644 58.8664 18.7795 58.9468 18.8979C59.0272 19.0164 59.152 19.1201 59.3213 19.209C59.4906 19.2979 59.7085 19.3761 59.9751 19.4438L61.0288 19.6978C61.672 19.8543 62.1502 20.0786 62.4634 20.3706C62.7808 20.6626 62.9395 21.054 62.9395 21.5449V21.5576C62.9395 21.9639 62.8188 22.3236 62.5776 22.6367C62.3364 22.9456 62.0085 23.1868 61.5938 23.3604C61.1833 23.5339 60.7178 23.6206 60.1973 23.6206ZM65.7832 23.5L63.8662 16.6572H64.9707L66.3164 22.1289H66.418L67.9478 16.6572H68.9951L70.5249 22.1289H70.6265L71.9722 16.6572H73.0703L71.1533 23.5H70.0425L68.5127 18.2061H68.4111L66.8877 23.5H65.7832ZM77.0884 23.6206C76.4409 23.6206 75.8802 23.4788 75.4062 23.1953C74.9365 22.9076 74.5726 22.4992 74.3145 21.9702C74.0605 21.4412 73.9336 20.8128 73.9336 20.085V20.0723C73.9336 19.3402 74.0605 18.7096 74.3145 18.1807C74.5726 17.6517 74.9365 17.2454 75.4062 16.9619C75.8802 16.6784 76.4409 16.5366 77.0884 16.5366C77.7401 16.5366 78.3008 16.6784 78.7705 16.9619C79.2402 17.2454 79.6021 17.6517 79.856 18.1807C80.1141 18.7096 80.2432 19.3402 80.2432 20.0723V20.085C80.2432 20.8128 80.1141 21.4412 79.856 21.9702C79.6021 22.4992 79.2402 22.9076 78.7705 23.1953C78.3008 23.4788 77.7401 23.6206 77.0884 23.6206ZM77.0884 22.6431C77.52 22.6431 77.8861 22.5415 78.1865 22.3384C78.487 22.1353 78.7155 21.8433 78.8721 21.4624C79.0329 21.0815 79.1133 20.6224 79.1133 20.085V20.0723C79.1133 19.5306 79.0329 19.0693 78.8721 18.6885C78.7155 18.3076 78.487 18.0177 78.1865 17.8188C77.8861 17.6157 77.52 17.5142 77.0884 17.5142C76.6567 17.5142 76.2907 17.6157 75.9902 17.8188C75.6898 18.0177 75.4591 18.3076 75.2983 18.6885C75.1418 19.0693 75.0635 19.5306 75.0635 20.0723V20.085C75.0635 20.6224 75.1418 21.0815 75.2983 21.4624C75.4591 21.8433 75.6898 22.1353 75.9902 22.3384C76.2907 22.5415 76.6567 22.6431 77.0884 22.6431ZM81.957 23.5V16.6572H83.0615V17.6729H83.1631C83.2943 17.3132 83.5164 17.0339 83.8296 16.835C84.1427 16.6361 84.5299 16.5366 84.9912 16.5366C85.097 16.5366 85.2007 16.543 85.3022 16.5557C85.408 16.5641 85.4884 16.5726 85.5435 16.5811V17.6538C85.4292 17.6326 85.3171 17.6178 85.207 17.6094C85.1012 17.5967 84.987 17.5903 84.8643 17.5903C84.513 17.5903 84.202 17.6602 83.9312 17.7998C83.6603 17.9395 83.4466 18.1341 83.29 18.3838C83.1377 18.6335 83.0615 18.9255 83.0615 19.2598V23.5H81.957ZM89.2441 23.6206C88.6686 23.6206 88.165 23.4746 87.7334 23.1826C87.3018 22.8906 86.9674 22.4801 86.7305 21.9512C86.4935 21.418 86.375 20.7959 86.375 20.085V20.0723C86.375 19.3571 86.4935 18.735 86.7305 18.2061C86.9674 17.6771 87.2996 17.2666 87.7271 16.9746C88.1587 16.6826 88.6644 16.5366 89.2441 16.5366C89.5573 16.5366 89.8514 16.5874 90.1265 16.689C90.4058 16.7863 90.6533 16.9238 90.8691 17.1016C91.085 17.2793 91.2542 17.4909 91.377 17.7363H91.4785V13.9404H92.583V23.5H91.4785V22.4082H91.377C91.2373 22.6621 91.0617 22.88 90.8501 23.062C90.6385 23.2397 90.3973 23.3773 90.1265 23.4746C89.8556 23.5719 89.5615 23.6206 89.2441 23.6206ZM89.498 22.6431C89.9128 22.6431 90.2703 22.5394 90.5708 22.332C90.8713 22.1247 91.1019 21.8306 91.2627 21.4497C91.4235 21.0646 91.5039 20.6097 91.5039 20.085V20.0723C91.5039 19.5433 91.4235 19.0884 91.2627 18.7075C91.1019 18.3267 90.8713 18.0326 90.5708 17.8252C90.2703 17.6178 89.9128 17.5142 89.498 17.5142C89.0833 17.5142 88.7257 17.6178 88.4253 17.8252C88.1291 18.0283 87.9006 18.3203 87.7397 18.7012C87.5832 19.082 87.5049 19.5391 87.5049 20.0723V20.085C87.5049 20.6139 87.5832 21.071 87.7397 21.4561C87.9006 21.8369 88.1291 22.131 88.4253 22.3384C88.7257 22.5415 89.0833 22.6431 89.498 22.6431Z" fill="black" fill-opacity="0.85"/>
<mask id="path-6-inside-2_513_7160" fill="white">
<path d="M10 37H441V74H10V37Z"/>
</mask>
<path d="M441 73H10V75H441V73Z" fill="black" fill-opacity="0.05" mask="url(#path-6-inside-2_513_7160)"/>
<path d="M11.168 60.5V51.3403H12.2788L17.5283 58.8687L16.7666 58.4688H17.3506V51.3403H18.4805V60.5H17.3696L12.1201 52.9971L12.8818 53.397H12.2979V60.5H11.168ZM23.4697 60.6206C22.818 60.6206 22.2573 60.4767 21.7876 60.189C21.3221 59.9012 20.9624 59.495 20.7085 58.9702C20.4588 58.4412 20.334 57.8192 20.334 57.104V57.0977C20.334 56.391 20.4588 55.771 20.7085 55.2378C20.9624 54.7046 21.32 54.2878 21.7812 53.9873C22.2425 53.6868 22.7821 53.5366 23.3999 53.5366C24.022 53.5366 24.5552 53.6805 24.9995 53.9683C25.4481 54.256 25.7909 54.658 26.0278 55.1743C26.269 55.6864 26.3896 56.283 26.3896 56.9644V57.396H20.9053V56.5137H25.8247L25.2788 57.3198V56.8818C25.2788 56.3444 25.1984 55.9022 25.0376 55.5552C24.8768 55.2082 24.6546 54.95 24.3711 54.7808C24.0876 54.6073 23.7617 54.5205 23.3936 54.5205C23.0254 54.5205 22.6953 54.6115 22.4033 54.7935C22.1156 54.9712 21.887 55.2357 21.7178 55.5869C21.5485 55.9382 21.4639 56.3698 21.4639 56.8818V57.3198C21.4639 57.8065 21.5464 58.2233 21.7114 58.5703C21.8765 58.9131 22.1113 59.1776 22.416 59.3638C22.7207 59.5457 23.0804 59.6367 23.4951 59.6367C23.804 59.6367 24.0728 59.5944 24.3013 59.5098C24.5298 59.4251 24.7181 59.3172 24.8662 59.186C25.0143 59.0549 25.118 58.9215 25.1772 58.7861L25.2026 58.729H26.3071L26.2944 58.7798C26.2352 59.0125 26.1294 59.2389 25.9771 59.459C25.8289 59.6748 25.6364 59.8716 25.3994 60.0493C25.1624 60.2228 24.881 60.3625 24.5552 60.4683C24.2336 60.5698 23.8717 60.6206 23.4697 60.6206ZM29.4238 60.5L27.5068 53.6572H28.6113L29.957 59.1289H30.0586L31.5884 53.6572H32.6357L34.1655 59.1289H34.2671L35.6128 53.6572H36.7109L34.7939 60.5H33.6831L32.1533 55.2061H32.0518L30.5283 60.5H29.4238ZM42.5381 57.231V56.2153H45.1279C45.7839 56.2153 46.2917 56.0461 46.6514 55.7075C47.0111 55.3647 47.1909 54.8929 47.1909 54.292V54.2793C47.1909 53.6742 47.0111 53.2023 46.6514 52.8638C46.2917 52.5252 45.7839 52.356 45.1279 52.356H42.5381V51.3403H45.4199C45.9954 51.3403 46.5033 51.4631 46.9434 51.7085C47.3835 51.9539 47.7284 52.2967 47.978 52.7368C48.2319 53.1769 48.3589 53.6868 48.3589 54.2666V54.2793C48.3589 54.859 48.2319 55.3711 47.978 55.8154C47.7284 56.2598 47.3835 56.6068 46.9434 56.8564C46.5033 57.1061 45.9954 57.231 45.4199 57.231H42.5381ZM41.9668 60.5V51.3403H43.1094V60.5H41.9668ZM51.7168 60.6206C51.2852 60.6206 50.8958 60.5381 50.5488 60.373C50.2061 60.208 49.9331 59.9731 49.73 59.6685C49.5311 59.3638 49.4316 59.0041 49.4316 58.5894V58.5767C49.4316 58.1704 49.529 57.8234 49.7236 57.5356C49.9183 57.2437 50.2018 57.0151 50.5742 56.8501C50.9466 56.6851 51.3973 56.5877 51.9263 56.5581L54.4399 56.4058V57.2881L52.0596 57.4404C51.5391 57.4701 51.1582 57.578 50.917 57.7642C50.68 57.9504 50.5615 58.2127 50.5615 58.5513V58.564C50.5615 58.911 50.6927 59.1818 50.9551 59.3765C51.2174 59.5669 51.5475 59.6621 51.9453 59.6621C52.3219 59.6621 52.6562 59.5881 52.9482 59.4399C53.2402 59.2876 53.4688 59.0824 53.6338 58.8242C53.8031 58.5661 53.8877 58.2741 53.8877 57.9482V55.8154C53.8877 55.3923 53.7586 55.0706 53.5005 54.8506C53.2466 54.6263 52.8636 54.5142 52.3516 54.5142C51.9411 54.5142 51.6047 54.5882 51.3423 54.7363C51.0799 54.8802 50.9043 55.0854 50.8154 55.3521L50.8091 55.3711H49.7046L49.7109 55.333C49.7702 54.9733 49.9183 54.6602 50.1553 54.3936C50.3965 54.1227 50.7075 53.9132 51.0884 53.7651C51.4692 53.6128 51.903 53.5366 52.3896 53.5366C52.9482 53.5366 53.4201 53.6276 53.8052 53.8096C54.1945 53.9915 54.4886 54.2539 54.6875 54.5967C54.8906 54.9352 54.9922 55.3415 54.9922 55.8154V60.5H53.8877V59.4907H53.7861C53.6423 59.7319 53.4666 59.9372 53.2593 60.1064C53.0562 60.2757 52.8255 60.4048 52.5674 60.4937C52.3092 60.5783 52.0257 60.6206 51.7168 60.6206ZM59.3594 60.6206C58.8516 60.6206 58.403 60.5444 58.0137 60.3921C57.6243 60.2355 57.3112 60.0176 57.0742 59.7383C56.8415 59.459 56.7039 59.131 56.6616 58.7544H57.7915C57.8846 59.0379 58.0666 59.2664 58.3374 59.4399C58.6082 59.6134 58.9616 59.7002 59.3975 59.7002C59.7064 59.7002 59.9772 59.6558 60.21 59.5669C60.4469 59.4738 60.6331 59.349 60.7686 59.1924C60.904 59.0316 60.9717 58.8475 60.9717 58.6401V58.6274C60.9717 58.3947 60.8786 58.1979 60.6924 58.0371C60.5062 57.8721 60.2015 57.7388 59.7783 57.6372L58.7183 57.3833C58.2909 57.2817 57.9396 57.1506 57.6646 56.9897C57.3895 56.8247 57.1864 56.6237 57.0552 56.3867C56.924 56.1455 56.8584 55.862 56.8584 55.5361V55.5298C56.8584 55.1489 56.9684 54.8083 57.1885 54.5078C57.4128 54.2074 57.7174 53.9704 58.1025 53.7969C58.4876 53.6234 58.9214 53.5366 59.4038 53.5366C59.882 53.5366 60.3052 53.6128 60.6733 53.7651C61.0457 53.9132 61.3441 54.1248 61.5684 54.3999C61.7969 54.675 61.9365 54.9987 61.9873 55.3711H60.9019C60.8299 55.1003 60.6649 54.8802 60.4067 54.7109C60.1486 54.5417 59.8122 54.457 59.3975 54.457C59.1266 54.457 58.8854 54.5015 58.6738 54.5903C58.4622 54.675 58.2951 54.7935 58.1724 54.9458C58.0496 55.0981 57.9883 55.2759 57.9883 55.479V55.4917C57.9883 55.644 58.0285 55.7795 58.1089 55.8979C58.1893 56.0164 58.3141 56.1201 58.4834 56.209C58.6527 56.2979 58.8706 56.3761 59.1372 56.4438L60.1909 56.6978C60.8341 56.8543 61.3123 57.0786 61.6255 57.3706C61.9429 57.6626 62.1016 58.054 62.1016 58.5449V58.5576C62.1016 58.9639 61.981 59.3236 61.7397 59.6367C61.4985 59.9456 61.1706 60.1868 60.7559 60.3604C60.3454 60.5339 59.8799 60.6206 59.3594 60.6206ZM66.0371 60.6206C65.5293 60.6206 65.0807 60.5444 64.6914 60.3921C64.3021 60.2355 63.9889 60.0176 63.752 59.7383C63.5192 59.459 63.3817 59.131 63.3394 58.7544H64.4692C64.5623 59.0379 64.7443 59.2664 65.0151 59.4399C65.286 59.6134 65.6393 59.7002 66.0752 59.7002C66.3841 59.7002 66.6549 59.6558 66.8877 59.5669C67.1247 59.4738 67.3109 59.349 67.4463 59.1924C67.5817 59.0316 67.6494 58.8475 67.6494 58.6401V58.6274C67.6494 58.3947 67.5563 58.1979 67.3701 58.0371C67.1839 57.8721 66.8792 57.7388 66.4561 57.6372L65.396 57.3833C64.9686 57.2817 64.6174 57.1506 64.3423 56.9897C64.0672 56.8247 63.8641 56.6237 63.7329 56.3867C63.6017 56.1455 63.5361 55.862 63.5361 55.5361V55.5298C63.5361 55.1489 63.6462 54.8083 63.8662 54.5078C64.0905 54.2074 64.3952 53.9704 64.7803 53.7969C65.1654 53.6234 65.5991 53.5366 66.0815 53.5366C66.5597 53.5366 66.9829 53.6128 67.3511 53.7651C67.7235 53.9132 68.0218 54.1248 68.2461 54.3999C68.4746 54.675 68.6143 54.9987 68.665 55.3711H67.5796C67.5076 55.1003 67.3426 54.8802 67.0845 54.7109C66.8263 54.5417 66.4899 54.457 66.0752 54.457C65.8044 54.457 65.5632 54.5015 65.3516 54.5903C65.14 54.675 64.9728 54.7935 64.8501 54.9458C64.7274 55.0981 64.666 55.2759 64.666 55.479V55.4917C64.666 55.644 64.7062 55.7795 64.7866 55.8979C64.867 56.0164 64.9919 56.1201 65.1611 56.209C65.3304 56.2979 65.5483 56.3761 65.8149 56.4438L66.8687 56.6978C67.5119 56.8543 67.9901 57.0786 68.3032 57.3706C68.6206 57.6626 68.7793 58.054 68.7793 58.5449V58.5576C68.7793 58.9639 68.6587 59.3236 68.4175 59.6367C68.1763 59.9456 67.8483 60.1868 67.4336 60.3604C67.0231 60.5339 66.5576 60.6206 66.0371 60.6206ZM71.623 60.5L69.7061 53.6572H70.8105L72.1562 59.1289H72.2578L73.7876 53.6572H74.835L76.3647 59.1289H76.4663L77.812 53.6572H78.9102L76.9932 60.5H75.8823L74.3525 55.2061H74.251L72.7275 60.5H71.623ZM82.9282 60.6206C82.2808 60.6206 81.7201 60.4788 81.2461 60.1953C80.7764 59.9076 80.4124 59.4992 80.1543 58.9702C79.9004 58.4412 79.7734 57.8128 79.7734 57.085V57.0723C79.7734 56.3402 79.9004 55.7096 80.1543 55.1807C80.4124 54.6517 80.7764 54.2454 81.2461 53.9619C81.7201 53.6784 82.2808 53.5366 82.9282 53.5366C83.5799 53.5366 84.1406 53.6784 84.6104 53.9619C85.0801 54.2454 85.4419 54.6517 85.6958 55.1807C85.9539 55.7096 86.083 56.3402 86.083 57.0723V57.085C86.083 57.8128 85.9539 58.4412 85.6958 58.9702C85.4419 59.4992 85.0801 59.9076 84.6104 60.1953C84.1406 60.4788 83.5799 60.6206 82.9282 60.6206ZM82.9282 59.6431C83.3599 59.6431 83.7259 59.5415 84.0264 59.3384C84.3268 59.1353 84.5553 58.8433 84.7119 58.4624C84.8727 58.0815 84.9531 57.6224 84.9531 57.085V57.0723C84.9531 56.5306 84.8727 56.0693 84.7119 55.6885C84.5553 55.3076 84.3268 55.0177 84.0264 54.8188C83.7259 54.6157 83.3599 54.5142 82.9282 54.5142C82.4966 54.5142 82.1305 54.6157 81.8301 54.8188C81.5296 55.0177 81.299 55.3076 81.1382 55.6885C80.9816 56.0693 80.9033 56.5306 80.9033 57.0723V57.085C80.9033 57.6224 80.9816 58.0815 81.1382 58.4624C81.299 58.8433 81.5296 59.1353 81.8301 59.3384C82.1305 59.5415 82.4966 59.6431 82.9282 59.6431ZM87.7969 60.5V53.6572H88.9014V54.6729H89.0029C89.1341 54.3132 89.3563 54.0339 89.6694 53.835C89.9826 53.6361 90.3698 53.5366 90.8311 53.5366C90.9368 53.5366 91.0405 53.543 91.1421 53.5557C91.2479 53.5641 91.3283 53.5726 91.3833 53.5811V54.6538C91.269 54.6326 91.1569 54.6178 91.0469 54.6094C90.9411 54.5967 90.8268 54.5903 90.7041 54.5903C90.3529 54.5903 90.0418 54.6602 89.771 54.7998C89.5002 54.9395 89.2865 55.1341 89.1299 55.3838C88.9775 55.6335 88.9014 55.9255 88.9014 56.2598V60.5H87.7969ZM95.084 60.6206C94.5085 60.6206 94.0049 60.4746 93.5732 60.1826C93.1416 59.8906 92.8073 59.4801 92.5703 58.9512C92.3333 58.418 92.2148 57.7959 92.2148 57.085V57.0723C92.2148 56.3571 92.3333 55.735 92.5703 55.2061C92.8073 54.6771 93.1395 54.2666 93.5669 53.9746C93.9985 53.6826 94.5042 53.5366 95.084 53.5366C95.3971 53.5366 95.6912 53.5874 95.9663 53.689C96.2456 53.7863 96.4932 53.9238 96.709 54.1016C96.9248 54.2793 97.0941 54.4909 97.2168 54.7363H97.3184V50.9404H98.4229V60.5H97.3184V59.4082H97.2168C97.0771 59.6621 96.9015 59.88 96.6899 60.062C96.4784 60.2397 96.2371 60.3773 95.9663 60.4746C95.6955 60.5719 95.4014 60.6206 95.084 60.6206ZM95.3379 59.6431C95.7526 59.6431 96.1102 59.5394 96.4106 59.332C96.7111 59.1247 96.9417 58.8306 97.1025 58.4497C97.2633 58.0646 97.3438 57.6097 97.3438 57.085V57.0723C97.3438 56.5433 97.2633 56.0884 97.1025 55.7075C96.9417 55.3267 96.7111 55.0326 96.4106 54.8252C96.1102 54.6178 95.7526 54.5142 95.3379 54.5142C94.9232 54.5142 94.5656 54.6178 94.2651 54.8252C93.9689 55.0283 93.7404 55.3203 93.5796 55.7012C93.423 56.082 93.3447 56.5391 93.3447 57.0723V57.085C93.3447 57.6139 93.423 58.071 93.5796 58.4561C93.7404 58.8369 93.9689 59.131 94.2651 59.3384C94.5656 59.5415 94.9232 59.6431 95.3379 59.6431Z" fill="black" fill-opacity="0.85"/>
<mask id="path-9-inside-3_513_7160" fill="white">
<path d="M10 74H441V111H10V74Z"/>
</mask>
<path d="M441 110H10V112H441V110Z" fill="black" fill-opacity="0.05" mask="url(#path-9-inside-3_513_7160)"/>
<path d="M13.8149 97.5L10.438 88.3403H11.6377L14.3291 96.021H14.4307L17.1221 88.3403H18.3218L14.9448 97.5H13.8149ZM21.9463 97.6206C21.2946 97.6206 20.7339 97.4767 20.2642 97.189C19.7987 96.9012 19.439 96.495 19.1851 95.9702C18.9354 95.4412 18.8105 94.8192 18.8105 94.104V94.0977C18.8105 93.391 18.9354 92.771 19.1851 92.2378C19.439 91.7046 19.7965 91.2878 20.2578 90.9873C20.7191 90.6868 21.2586 90.5366 21.8765 90.5366C22.4985 90.5366 23.0317 90.6805 23.4761 90.9683C23.9246 91.256 24.2674 91.658 24.5044 92.1743C24.7456 92.6864 24.8662 93.283 24.8662 93.9644V94.396H19.3818V93.5137H24.3013L23.7554 94.3198V93.8818C23.7554 93.3444 23.675 92.9022 23.5142 92.5552C23.3534 92.2082 23.1312 91.95 22.8477 91.7808C22.5641 91.6073 22.2383 91.5205 21.8701 91.5205C21.502 91.5205 21.1719 91.6115 20.8799 91.7935C20.5921 91.9712 20.3636 92.2357 20.1943 92.5869C20.0251 92.9382 19.9404 93.3698 19.9404 93.8818V94.3198C19.9404 94.8065 20.0229 95.2233 20.188 95.5703C20.353 95.9131 20.5879 96.1776 20.8926 96.3638C21.1973 96.5457 21.557 96.6367 21.9717 96.6367C22.2806 96.6367 22.5493 96.5944 22.7778 96.5098C23.0063 96.4251 23.1947 96.3172 23.3428 96.186C23.4909 96.0549 23.5946 95.9215 23.6538 95.7861L23.6792 95.729H24.7837L24.771 95.7798C24.7118 96.0125 24.606 96.2389 24.4536 96.459C24.3055 96.6748 24.113 96.8716 23.876 97.0493C23.639 97.2228 23.3576 97.3625 23.0317 97.4683C22.7101 97.5698 22.3483 97.6206 21.9463 97.6206ZM26.5801 97.5V90.6572H27.6846V91.6729H27.7861C27.9173 91.3132 28.1395 91.0339 28.4526 90.835C28.7658 90.6361 29.153 90.5366 29.6143 90.5366C29.7201 90.5366 29.8237 90.543 29.9253 90.5557C30.0311 90.5641 30.1115 90.5726 30.1665 90.5811V91.6538C30.0522 91.6326 29.9401 91.6178 29.8301 91.6094C29.7243 91.5967 29.61 91.5903 29.4873 91.5903C29.1361 91.5903 28.825 91.6602 28.5542 91.7998C28.2834 91.9395 28.0697 92.1341 27.9131 92.3838C27.7607 92.6335 27.6846 92.9255 27.6846 93.2598V97.5H26.5801ZM31.5566 97.5V90.6572H32.6611V97.5H31.5566ZM32.1152 89.3369C31.9079 89.3369 31.728 89.2629 31.5757 89.1147C31.4276 88.9624 31.3535 88.7826 31.3535 88.5752C31.3535 88.3636 31.4276 88.1838 31.5757 88.0356C31.728 87.8875 31.9079 87.8135 32.1152 87.8135C32.3268 87.8135 32.5067 87.8875 32.6548 88.0356C32.8029 88.1838 32.877 88.3636 32.877 88.5752C32.877 88.7826 32.8029 88.9624 32.6548 89.1147C32.5067 89.2629 32.3268 89.3369 32.1152 89.3369ZM35.2002 97.5V91.5713H34.064V90.6572H35.2002V89.8955C35.2002 89.4385 35.2743 89.0618 35.4224 88.7656C35.5747 88.4652 35.799 88.243 36.0952 88.0991C36.3914 87.951 36.7554 87.877 37.187 87.877C37.3224 87.877 37.4494 87.8833 37.5679 87.896C37.6906 87.9045 37.8091 87.9193 37.9233 87.9404V88.8228C37.8556 88.8101 37.7773 88.8016 37.6885 88.7974C37.5996 88.7931 37.5065 88.791 37.4092 88.791C37.0156 88.791 36.7321 88.8862 36.5586 89.0767C36.3893 89.2671 36.3047 89.5506 36.3047 89.9272V90.6572H37.8599V91.5713H36.3047V97.5H35.2002ZM40.0371 99.8994C39.9652 99.8994 39.8848 99.8952 39.7959 99.8867C39.707 99.8825 39.6245 99.874 39.5483 99.8613V98.9536C39.616 98.9663 39.6901 98.9748 39.7705 98.979C39.8509 98.9832 39.9292 98.9854 40.0054 98.9854C40.3185 98.9854 40.5745 98.9049 40.7734 98.7441C40.9766 98.5833 41.1395 98.3062 41.2622 97.9126L41.3892 97.5063L38.8564 90.6572H40.0371L42.1445 96.9795L41.7065 96.2876H42.2271L41.7891 96.9795L43.8901 90.6572H45.0518L42.3794 97.9189C42.1932 98.431 41.9964 98.8309 41.7891 99.1187C41.5817 99.4064 41.3384 99.6074 41.0591 99.7217C40.784 99.8402 40.4434 99.8994 40.0371 99.8994ZM50.8789 94.231V93.2153H53.4688C54.1247 93.2153 54.6325 93.0461 54.9922 92.7075C55.3519 92.3647 55.5317 91.8929 55.5317 91.292V91.2793C55.5317 90.6742 55.3519 90.2023 54.9922 89.8638C54.6325 89.5252 54.1247 89.356 53.4688 89.356H50.8789V88.3403H53.7607C54.3363 88.3403 54.8441 88.4631 55.2842 88.7085C55.7243 88.9539 56.0692 89.2967 56.3188 89.7368C56.5728 90.1769 56.6997 90.6868 56.6997 91.2666V91.2793C56.6997 91.859 56.5728 92.3711 56.3188 92.8154C56.0692 93.2598 55.7243 93.6068 55.2842 93.8564C54.8441 94.1061 54.3363 94.231 53.7607 94.231H50.8789ZM50.3076 97.5V88.3403H51.4502V97.5H50.3076ZM60.0576 97.6206C59.626 97.6206 59.2367 97.5381 58.8896 97.373C58.5469 97.208 58.2739 96.9731 58.0708 96.6685C57.8719 96.3638 57.7725 96.0041 57.7725 95.5894V95.5767C57.7725 95.1704 57.8698 94.8234 58.0645 94.5356C58.2591 94.2437 58.5426 94.0151 58.915 93.8501C59.2874 93.6851 59.7381 93.5877 60.2671 93.5581L62.7808 93.4058V94.2881L60.4004 94.4404C59.8799 94.4701 59.499 94.578 59.2578 94.7642C59.0208 94.9504 58.9023 95.2127 58.9023 95.5513V95.564C58.9023 95.911 59.0335 96.1818 59.2959 96.3765C59.5583 96.5669 59.8883 96.6621 60.2861 96.6621C60.6628 96.6621 60.9971 96.5881 61.2891 96.4399C61.5811 96.2876 61.8096 96.0824 61.9746 95.8242C62.1439 95.5661 62.2285 95.2741 62.2285 94.9482V92.8154C62.2285 92.3923 62.0994 92.0706 61.8413 91.8506C61.5874 91.6263 61.2044 91.5142 60.6924 91.5142C60.2819 91.5142 59.9455 91.5882 59.6831 91.7363C59.4207 91.8802 59.2451 92.0854 59.1562 92.3521L59.1499 92.3711H58.0454L58.0518 92.333C58.111 91.9733 58.2591 91.6602 58.4961 91.3936C58.7373 91.1227 59.0483 90.9132 59.4292 90.7651C59.8101 90.6128 60.2438 90.5366 60.7305 90.5366C61.2891 90.5366 61.7609 90.6276 62.146 90.8096C62.5353 90.9915 62.8294 91.2539 63.0283 91.5967C63.2314 91.9352 63.333 92.3415 63.333 92.8154V97.5H62.2285V96.4907H62.127C61.9831 96.7319 61.8075 96.9372 61.6001 97.1064C61.397 97.2757 61.1663 97.4048 60.9082 97.4937C60.6501 97.5783 60.3665 97.6206 60.0576 97.6206ZM67.7002 97.6206C67.1924 97.6206 66.7438 97.5444 66.3545 97.3921C65.9652 97.2355 65.652 97.0176 65.415 96.7383C65.1823 96.459 65.0448 96.131 65.0024 95.7544H66.1323C66.2254 96.0379 66.4074 96.2664 66.6782 96.4399C66.9491 96.6134 67.3024 96.7002 67.7383 96.7002C68.0472 96.7002 68.318 96.6558 68.5508 96.5669C68.7878 96.4738 68.974 96.349 69.1094 96.1924C69.2448 96.0316 69.3125 95.8475 69.3125 95.6401V95.6274C69.3125 95.3947 69.2194 95.1979 69.0332 95.0371C68.847 94.8721 68.5423 94.7388 68.1191 94.6372L67.0591 94.3833C66.6317 94.2817 66.2804 94.1506 66.0054 93.9897C65.7303 93.8247 65.5272 93.6237 65.396 93.3867C65.2648 93.1455 65.1992 92.862 65.1992 92.5361V92.5298C65.1992 92.1489 65.3092 91.8083 65.5293 91.5078C65.7536 91.2074 66.0583 90.9704 66.4434 90.7969C66.8285 90.6234 67.2622 90.5366 67.7446 90.5366C68.2228 90.5366 68.646 90.6128 69.0142 90.7651C69.3866 90.9132 69.6849 91.1248 69.9092 91.3999C70.1377 91.675 70.2773 91.9987 70.3281 92.3711H69.2427C69.1707 92.1003 69.0057 91.8802 68.7476 91.7109C68.4894 91.5417 68.153 91.457 67.7383 91.457C67.4674 91.457 67.2262 91.5015 67.0146 91.5903C66.8031 91.675 66.6359 91.7935 66.5132 91.9458C66.3905 92.0981 66.3291 92.2759 66.3291 92.479V92.4917C66.3291 92.644 66.3693 92.7795 66.4497 92.8979C66.5301 93.0164 66.6549 93.1201 66.8242 93.209C66.9935 93.2979 67.2114 93.3761 67.478 93.4438L68.5317 93.6978C69.175 93.8543 69.6532 94.0786 69.9663 94.3706C70.2837 94.6626 70.4424 95.054 70.4424 95.5449V95.5576C70.4424 95.9639 70.3218 96.3236 70.0806 96.6367C69.8394 96.9456 69.5114 97.1868 69.0967 97.3604C68.6862 97.5339 68.2207 97.6206 67.7002 97.6206ZM74.3779 97.6206C73.8701 97.6206 73.4215 97.5444 73.0322 97.3921C72.6429 97.2355 72.3298 97.0176 72.0928 96.7383C71.86 96.459 71.7225 96.131 71.6802 95.7544H72.8101C72.9032 96.0379 73.0851 96.2664 73.356 96.4399C73.6268 96.6134 73.9801 96.7002 74.416 96.7002C74.7249 96.7002 74.9958 96.6558 75.2285 96.5669C75.4655 96.4738 75.6517 96.349 75.7871 96.1924C75.9225 96.0316 75.9902 95.8475 75.9902 95.6401V95.6274C75.9902 95.3947 75.8971 95.1979 75.7109 95.0371C75.5247 94.8721 75.2201 94.7388 74.7969 94.6372L73.7368 94.3833C73.3094 94.2817 72.9582 94.1506 72.6831 93.9897C72.408 93.8247 72.2049 93.6237 72.0737 93.3867C71.9425 93.1455 71.877 92.862 71.877 92.5361V92.5298C71.877 92.1489 71.987 91.8083 72.207 91.5078C72.4313 91.2074 72.736 90.9704 73.1211 90.7969C73.5062 90.6234 73.9399 90.5366 74.4224 90.5366C74.9006 90.5366 75.3237 90.6128 75.6919 90.7651C76.0643 90.9132 76.3626 91.1248 76.5869 91.3999C76.8154 91.675 76.9551 91.9987 77.0059 92.3711H75.9204C75.8485 92.1003 75.6834 91.8802 75.4253 91.7109C75.1672 91.5417 74.8307 91.457 74.416 91.457C74.1452 91.457 73.904 91.5015 73.6924 91.5903C73.4808 91.675 73.3136 91.7935 73.1909 91.9458C73.0682 92.0981 73.0068 92.2759 73.0068 92.479V92.4917C73.0068 92.644 73.047 92.7795 73.1274 92.8979C73.2078 93.0164 73.3327 93.1201 73.502 93.209C73.6712 93.2979 73.8892 93.3761 74.1558 93.4438L75.2095 93.6978C75.8527 93.8543 76.3309 94.0786 76.644 94.3706C76.9614 94.6626 77.1201 95.054 77.1201 95.5449V95.5576C77.1201 95.9639 76.9995 96.3236 76.7583 96.6367C76.5171 96.9456 76.1891 97.1868 75.7744 97.3604C75.3639 97.5339 74.8984 97.6206 74.3779 97.6206ZM79.9639 97.5L78.0469 90.6572H79.1514L80.4971 96.1289H80.5986L82.1284 90.6572H83.1758L84.7056 96.1289H84.8071L86.1528 90.6572H87.251L85.334 97.5H84.2231L82.6934 92.2061H82.5918L81.0684 97.5H79.9639ZM91.269 97.6206C90.6216 97.6206 90.0609 97.4788 89.5869 97.1953C89.1172 96.9076 88.7533 96.4992 88.4951 95.9702C88.2412 95.4412 88.1143 94.8128 88.1143 94.085V94.0723C88.1143 93.3402 88.2412 92.7096 88.4951 92.1807C88.7533 91.6517 89.1172 91.2454 89.5869 90.9619C90.0609 90.6784 90.6216 90.5366 91.269 90.5366C91.9207 90.5366 92.4814 90.6784 92.9512 90.9619C93.4209 91.2454 93.7827 91.6517 94.0366 92.1807C94.2948 92.7096 94.4238 93.3402 94.4238 94.0723V94.085C94.4238 94.8128 94.2948 95.4412 94.0366 95.9702C93.7827 96.4992 93.4209 96.9076 92.9512 97.1953C92.4814 97.4788 91.9207 97.6206 91.269 97.6206ZM91.269 96.6431C91.7007 96.6431 92.0667 96.5415 92.3672 96.3384C92.6676 96.1353 92.8962 95.8433 93.0527 95.4624C93.2135 95.0815 93.2939 94.6224 93.2939 94.085V94.0723C93.2939 93.5306 93.2135 93.0693 93.0527 92.6885C92.8962 92.3076 92.6676 92.0177 92.3672 91.8188C92.0667 91.6157 91.7007 91.5142 91.269 91.5142C90.8374 91.5142 90.4714 91.6157 90.1709 91.8188C89.8704 92.0177 89.6398 92.3076 89.479 92.6885C89.3224 93.0693 89.2441 93.5306 89.2441 94.0723V94.085C89.2441 94.6224 89.3224 95.0815 89.479 95.4624C89.6398 95.8433 89.8704 96.1353 90.1709 96.3384C90.4714 96.5415 90.8374 96.6431 91.269 96.6431ZM96.1377 97.5V90.6572H97.2422V91.6729H97.3438C97.4749 91.3132 97.6971 91.0339 98.0103 90.835C98.3234 90.6361 98.7106 90.5366 99.1719 90.5366C99.2777 90.5366 99.3813 90.543 99.4829 90.5557C99.5887 90.5641 99.6691 90.5726 99.7241 90.5811V91.6538C99.6099 91.6326 99.4977 91.6178 99.3877 91.6094C99.2819 91.5967 99.1676 91.5903 99.0449 91.5903C98.6937 91.5903 98.3826 91.6602 98.1118 91.7998C97.841 91.9395 97.6273 92.1341 97.4707 92.3838C97.3184 92.6335 97.2422 92.9255 97.2422 93.2598V97.5H96.1377ZM103.425 97.6206C102.849 97.6206 102.346 97.4746 101.914 97.1826C101.482 96.8906 101.148 96.4801 100.911 95.9512C100.674 95.418 100.556 94.7959 100.556 94.085V94.0723C100.556 93.3571 100.674 92.735 100.911 92.2061C101.148 91.6771 101.48 91.2666 101.908 90.9746C102.339 90.6826 102.845 90.5366 103.425 90.5366C103.738 90.5366 104.032 90.5874 104.307 90.689C104.586 90.7863 104.834 90.9238 105.05 91.1016C105.266 91.2793 105.435 91.4909 105.558 91.7363H105.659V87.9404H106.764V97.5H105.659V96.4082H105.558C105.418 96.6621 105.242 96.88 105.031 97.062C104.819 97.2397 104.578 97.3773 104.307 97.4746C104.036 97.5719 103.742 97.6206 103.425 97.6206ZM103.679 96.6431C104.093 96.6431 104.451 96.5394 104.751 96.332C105.052 96.1247 105.283 95.8306 105.443 95.4497C105.604 95.0646 105.685 94.6097 105.685 94.085V94.0723C105.685 93.5433 105.604 93.0884 105.443 92.7075C105.283 92.3267 105.052 92.0326 104.751 91.8252C104.451 91.6178 104.093 91.5142 103.679 91.5142C103.264 91.5142 102.906 91.6178 102.606 91.8252C102.31 92.0283 102.081 92.3203 101.92 92.7012C101.764 93.082 101.686 93.5391 101.686 94.0723V94.085C101.686 94.6139 101.764 95.071 101.92 95.4561C102.081 95.8369 102.31 96.131 102.606 96.3384C102.906 96.5415 103.264 96.6431 103.679 96.6431Z" fill="black" fill-opacity="0.85"/>
</svg>
