<svg width="162" height="94" viewBox="0 0 162 94" fill="none" xmlns="http://www.w3.org/2000/svg">
<g filter="url(#filter0_dd_384_3223)">
<rect x="3" y="2" width="156" height="89" rx="10" fill="white"/>
</g>
<g filter="url(#filter1_dd_384_3223)">
<rect x="10" y="9" width="23" height="23" rx="7" fill="white"/>
<path d="M15.2715 18.2622C15.2715 18.1479 15.2757 17.9681 15.2842 17.7227C15.2969 17.4772 15.3159 17.217 15.3413 16.9419C15.3709 16.6668 15.4111 16.4256 15.4619 16.2183C15.5212 15.9771 15.6291 15.8141 15.7856 15.7295C15.9422 15.6449 16.1094 15.6258 16.2871 15.6724C16.4648 15.7189 16.6151 15.8141 16.7378 15.958C17.089 16.3558 17.4741 16.6372 17.8931 16.8022C18.312 16.9673 18.7669 17.0498 19.2578 17.0498C19.8376 17.0498 20.3919 17.0011 20.9209 16.9038C21.4541 16.8065 21.981 16.7578 22.5015 16.7578C23.2505 16.7578 23.9403 16.8721 24.5708 17.1006C25.2056 17.3249 25.7536 17.6444 26.2148 18.0591C26.6803 18.4696 27.04 18.9562 27.2939 19.519C27.5521 20.0776 27.6812 20.6912 27.6812 21.3599C27.6812 22.0539 27.5521 22.6908 27.2939 23.2705C27.04 23.8503 26.6803 24.3517 26.2148 24.7749C25.7536 25.1981 25.2056 25.526 24.5708 25.7588C23.936 25.9915 23.2378 26.1079 22.4761 26.1079C21.3843 26.1079 20.3962 25.9238 19.5117 25.5557C18.6273 25.1833 17.8677 24.6522 17.2329 23.9624C16.6024 23.2726 16.1178 22.4474 15.7793 21.4868C15.4408 20.522 15.2715 19.4471 15.2715 18.2622ZM16.23 18.2622C16.23 19.3159 16.3739 20.266 16.6616 21.1123C16.9536 21.9587 17.3726 22.6823 17.9185 23.2832C18.4644 23.8841 19.1203 24.3454 19.8862 24.667C20.6564 24.9886 21.5197 25.1494 22.4761 25.1494C23.314 25.1494 24.0503 24.9886 24.6851 24.667C25.3241 24.3454 25.8234 23.901 26.1831 23.334C26.5428 22.7627 26.7227 22.1047 26.7227 21.3599C26.7227 20.6489 26.5428 20.0205 26.1831 19.4746C25.8234 18.9245 25.3262 18.495 24.6914 18.186C24.0566 17.8729 23.3267 17.7163 22.5015 17.7163C22.2856 17.7163 22.0656 17.729 21.8413 17.7544C21.617 17.7798 21.3779 17.8094 21.124 17.8433C20.8447 17.8813 20.5485 17.9194 20.2354 17.9575C19.9264 17.9914 19.6006 18.0083 19.2578 18.0083C18.7458 18.0083 18.2316 17.9215 17.7153 17.748C17.1991 17.5703 16.7632 17.3185 16.4077 16.9927C16.3442 16.9334 16.3062 16.9461 16.2935 17.0308C16.2638 17.2 16.2448 17.3947 16.2363 17.6147C16.2321 17.8348 16.23 18.0506 16.23 18.2622ZM18.9849 19.7412C18.951 19.6439 18.9574 19.5635 19.0039 19.5C19.0505 19.4365 19.1118 19.4048 19.188 19.4048C19.2642 19.4006 19.3361 19.445 19.4038 19.5381C19.6493 19.8555 19.9264 20.1094 20.2354 20.2998C20.5485 20.4902 20.887 20.6405 21.251 20.7505C21.6191 20.8563 22.0042 20.943 22.4062 21.0107C23.5742 21.2012 24.5348 21.4678 25.2881 21.8105C26.0413 22.1533 26.6317 22.6082 27.0591 23.1753C27.2241 23.3996 27.4019 23.6577 27.5923 23.9497C27.7869 24.2375 27.9689 24.5337 28.1382 24.8384C28.3117 25.1431 28.4513 25.4372 28.5571 25.7207C28.6672 26.0042 28.7222 26.256 28.7222 26.4761C28.7222 26.7384 28.6396 26.9648 28.4746 27.1553C28.3096 27.3457 28.1107 27.4409 27.8779 27.4409C27.7679 27.4409 27.6642 27.4092 27.5669 27.3457C27.4738 27.2865 27.4019 27.1807 27.3511 27.0283C27.2199 26.6094 27.1035 26.2137 27.002 25.8413C26.9004 25.4689 26.7798 25.1177 26.6401 24.7876C26.5047 24.4575 26.3185 24.1465 26.0815 23.8545C25.8657 23.5837 25.6351 23.3509 25.3896 23.1562C25.1484 22.9574 24.8734 22.7839 24.5645 22.6357C24.2598 22.4876 23.9043 22.3501 23.498 22.2231C23.0918 22.0962 22.62 21.9692 22.0825 21.8423C21.5832 21.7196 21.124 21.5736 20.7051 21.4043C20.2861 21.235 19.9264 21.0192 19.626 20.7568C19.3298 20.4902 19.116 20.1517 18.9849 19.7412Z" fill="#03A200"/>
</g>
<path d="M40.9561 26V18.2495H45.8975V19.415H42.3418V21.7085H45.5913V22.8364H42.3418V26H40.9561ZM47.3101 26V20.1294H48.6421V26H47.3101ZM47.9814 19.1465C47.763 19.1465 47.575 19.0695 47.4175 18.9155C47.2599 18.7616 47.1812 18.5771 47.1812 18.3623C47.1812 18.1403 47.2599 17.9541 47.4175 17.8037C47.575 17.6497 47.763 17.5728 47.9814 17.5728C48.1999 17.5728 48.3861 17.6497 48.54 17.8037C48.6976 17.9541 48.7764 18.1403 48.7764 18.3623C48.7764 18.5771 48.6976 18.7616 48.54 18.9155C48.3861 19.0695 48.1999 19.1465 47.9814 19.1465ZM52.8047 26.1182C52.221 26.1182 51.7197 25.9946 51.3008 25.7476C50.8854 25.5005 50.5649 25.1496 50.3394 24.6948C50.1138 24.2401 50.001 23.7012 50.001 23.0781V23.0728C50.001 22.4569 50.112 21.9198 50.334 21.4614C50.5596 21.0031 50.8783 20.6486 51.29 20.3979C51.7018 20.1437 52.1852 20.0166 52.7402 20.0166C53.2988 20.0166 53.7786 20.1401 54.1797 20.3872C54.5843 20.6307 54.8958 20.9727 55.1143 21.4131C55.3327 21.8535 55.4419 22.3691 55.4419 22.96V23.4004H50.6724V22.5034H54.7866L54.1528 23.3413V22.8096C54.1528 22.4193 54.0938 22.0952 53.9756 21.8374C53.8574 21.5796 53.6927 21.3862 53.4814 21.2573C53.2738 21.1284 53.0321 21.064 52.7563 21.064C52.4806 21.064 52.2354 21.132 52.0205 21.2681C51.8092 21.4006 51.641 21.5975 51.5156 21.8589C51.3939 22.1167 51.333 22.4336 51.333 22.8096V23.3467C51.333 23.7083 51.3939 24.0181 51.5156 24.2759C51.6374 24.5301 51.8092 24.7271 52.0312 24.8667C52.2568 25.0028 52.5236 25.0708 52.8315 25.0708C53.0715 25.0708 53.2773 25.0368 53.4492 24.9688C53.6247 24.8971 53.7661 24.813 53.8735 24.7163C53.981 24.616 54.0562 24.5212 54.0991 24.4316L54.1152 24.394H55.3828L55.3721 24.4424C55.3255 24.6322 55.2396 24.8255 55.1143 25.0225C54.9925 25.2158 54.826 25.3966 54.6147 25.5649C54.4071 25.7297 54.1528 25.8639 53.8521 25.9678C53.5513 26.068 53.2021 26.1182 52.8047 26.1182ZM56.833 26V17.8574H58.1704V26H56.833ZM61.9678 26.0967C61.4808 26.0967 61.0565 25.9749 60.6948 25.7314C60.3332 25.4844 60.0539 25.1335 59.8569 24.6787C59.66 24.224 59.5615 23.6886 59.5615 23.0728V23.062C59.5615 22.439 59.6582 21.9019 59.8516 21.4507C60.0485 20.9959 60.326 20.6468 60.6841 20.4033C61.0457 20.1562 61.4736 20.0327 61.9678 20.0327C62.2363 20.0327 62.487 20.0757 62.7197 20.1616C62.9525 20.244 63.1566 20.3621 63.332 20.5161C63.5111 20.6701 63.6507 20.8527 63.751 21.064H63.8477V17.8574H65.1797V26H63.8477V25.0815H63.751C63.6436 25.2928 63.5021 25.4754 63.3267 25.6294C63.1548 25.7798 62.9543 25.8962 62.7251 25.9785C62.4959 26.0573 62.2435 26.0967 61.9678 26.0967ZM62.3867 24.9688C62.6911 24.9688 62.9525 24.8936 63.1709 24.7432C63.3929 24.5892 63.563 24.3708 63.6812 24.0879C63.8029 23.8014 63.8638 23.4631 63.8638 23.0728V23.062C63.8638 22.6681 63.8029 22.3298 63.6812 22.0469C63.563 21.764 63.3929 21.5456 63.1709 21.3916C62.9525 21.2376 62.6911 21.1606 62.3867 21.1606C62.0859 21.1606 61.8245 21.2376 61.6025 21.3916C61.3841 21.542 61.2158 21.7604 61.0977 22.0469C60.9795 22.3298 60.9204 22.6681 60.9204 23.062V23.0728C60.9204 23.4666 60.9795 23.805 61.0977 24.0879C61.2158 24.3708 61.3841 24.5892 61.6025 24.7432C61.821 24.8936 62.0824 24.9688 62.3867 24.9688ZM69.0845 26.1182C68.5868 26.1182 68.1571 26.0483 67.7954 25.9087C67.4373 25.7655 67.1545 25.5685 66.9468 25.3179C66.7391 25.0636 66.6156 24.77 66.5762 24.437V24.4263H67.9028L67.9082 24.437C67.9798 24.6411 68.1141 24.8076 68.311 24.9365C68.508 25.0654 68.7729 25.1299 69.106 25.1299C69.328 25.1299 69.5231 25.0994 69.6914 25.0386C69.8597 24.9741 69.9922 24.8864 70.0889 24.7754C70.1855 24.6644 70.2339 24.5355 70.2339 24.3887V24.3779C70.2339 24.2061 70.1641 24.0628 70.0244 23.9482C69.8848 23.8301 69.6538 23.7352 69.3315 23.6636L68.3809 23.4487C68.0085 23.3664 67.7005 23.2518 67.457 23.105C67.2135 22.9582 67.0309 22.7773 66.9092 22.5625C66.791 22.3477 66.7319 22.097 66.7319 21.8105V21.8052C66.7319 21.4507 66.8304 21.1392 67.0273 20.8706C67.2279 20.6021 67.5054 20.3926 67.8599 20.2422C68.2144 20.0918 68.6226 20.0166 69.0845 20.0166C69.5607 20.0166 69.9707 20.0882 70.3145 20.2314C70.6582 20.3747 70.9268 20.5716 71.1201 20.8223C71.3135 21.0729 71.4245 21.3576 71.4531 21.6763V21.687H70.1963L70.1909 21.6709C70.1408 21.4847 70.0208 21.3271 69.8311 21.1982C69.6449 21.0658 69.3942 20.9995 69.0791 20.9995C68.8822 20.9995 68.7049 21.0299 68.5474 21.0908C68.3934 21.1517 68.2716 21.2376 68.1821 21.3486C68.0962 21.4561 68.0532 21.5832 68.0532 21.73V21.7354C68.0532 21.8499 68.0819 21.9502 68.1392 22.0361C68.2 22.1221 68.2949 22.1973 68.4238 22.2617C68.5527 22.3262 68.7228 22.3835 68.9341 22.4336L69.8848 22.6431C70.4613 22.772 70.8874 22.9635 71.1631 23.2178C71.4388 23.472 71.5767 23.814 71.5767 24.2437V24.2544C71.5767 24.6268 71.4692 24.9526 71.2544 25.2319C71.0396 25.5112 70.7441 25.7297 70.3682 25.8872C69.9922 26.0412 69.5643 26.1182 69.0845 26.1182ZM79.3379 26.1934C78.5788 26.1934 77.9253 26.0286 77.3774 25.6992C76.8332 25.3662 76.4124 24.8953 76.1152 24.2866C75.818 23.6779 75.6694 22.9582 75.6694 22.1274V22.1167C75.6694 21.2824 75.818 20.5627 76.1152 19.9575C76.416 19.3488 76.8403 18.8797 77.3882 18.5503C77.9396 18.2209 78.5895 18.0562 79.3379 18.0562C80.0898 18.0562 80.7397 18.2209 81.2876 18.5503C81.8354 18.8797 82.258 19.3488 82.5552 19.9575C82.8524 20.5662 83.001 21.286 83.001 22.1167V22.1274C83.001 22.9582 82.8524 23.6779 82.5552 24.2866C82.2616 24.8953 81.8408 25.3662 81.293 25.6992C80.7451 26.0286 80.0934 26.1934 79.3379 26.1934ZM79.3379 24.9956C79.7998 24.9956 80.1991 24.8774 80.5356 24.6411C80.8722 24.4048 81.1318 24.0718 81.3145 23.6421C81.5007 23.2124 81.5938 22.7075 81.5938 22.1274V22.1167C81.5938 21.533 81.5007 21.0282 81.3145 20.6021C81.1318 20.1724 80.8722 19.8411 80.5356 19.6084C80.1991 19.3721 79.7998 19.2539 79.3379 19.2539C78.8796 19.2539 78.4803 19.3721 78.1401 19.6084C77.8035 19.8411 77.5422 20.1724 77.356 20.6021C77.1733 21.0282 77.082 21.533 77.082 22.1167V22.1274C77.082 22.7075 77.1715 23.2124 77.3506 23.6421C77.5332 24.0718 77.7928 24.4048 78.1294 24.6411C78.4696 24.8774 78.8724 24.9956 79.3379 24.9956ZM86.0303 26L83.9409 20.1294H85.3696L86.7231 24.6948H86.8198L88.168 20.1294H89.5752L87.4912 26H86.0303ZM92.9805 26.1182C92.3968 26.1182 91.8955 25.9946 91.4766 25.7476C91.0612 25.5005 90.7407 25.1496 90.5151 24.6948C90.2896 24.2401 90.1768 23.7012 90.1768 23.0781V23.0728C90.1768 22.4569 90.2878 21.9198 90.5098 21.4614C90.7354 21.0031 91.054 20.6486 91.4658 20.3979C91.8776 20.1437 92.361 20.0166 92.916 20.0166C93.4746 20.0166 93.9544 20.1401 94.3555 20.3872C94.7601 20.6307 95.0716 20.9727 95.29 21.4131C95.5085 21.8535 95.6177 22.3691 95.6177 22.96V23.4004H90.8481V22.5034H94.9624L94.3286 23.3413V22.8096C94.3286 22.4193 94.2695 22.0952 94.1514 21.8374C94.0332 21.5796 93.8685 21.3862 93.6572 21.2573C93.4495 21.1284 93.2078 21.064 92.9321 21.064C92.6564 21.064 92.4111 21.132 92.1963 21.2681C91.985 21.4006 91.8167 21.5975 91.6914 21.8589C91.5697 22.1167 91.5088 22.4336 91.5088 22.8096V23.3467C91.5088 23.7083 91.5697 24.0181 91.6914 24.2759C91.8132 24.5301 91.985 24.7271 92.207 24.8667C92.4326 25.0028 92.6994 25.0708 93.0073 25.0708C93.2472 25.0708 93.4531 25.0368 93.625 24.9688C93.8005 24.8971 93.9419 24.813 94.0493 24.7163C94.1567 24.616 94.2319 24.5212 94.2749 24.4316L94.291 24.394H95.5586L95.5479 24.4424C95.5013 24.6322 95.4154 24.8255 95.29 25.0225C95.1683 25.2158 95.0018 25.3966 94.7905 25.5649C94.5828 25.7297 94.3286 25.8639 94.0278 25.9678C93.7271 26.068 93.3779 26.1182 92.9805 26.1182ZM96.9551 26V20.1294H98.2925V21.0317H98.3838C98.484 20.7166 98.6631 20.4714 98.9209 20.2959C99.1823 20.1204 99.5063 20.0327 99.8931 20.0327C99.9933 20.0327 100.092 20.0399 100.188 20.0542C100.289 20.0649 100.371 20.0793 100.436 20.0972V21.2949C100.328 21.2699 100.219 21.252 100.108 21.2412C100 21.2269 99.8877 21.2197 99.7695 21.2197C99.4723 21.2197 99.2127 21.2752 98.9907 21.3862C98.7687 21.4972 98.5968 21.6566 98.4751 21.8643C98.3534 22.0684 98.2925 22.3101 98.2925 22.5894V26H96.9551ZM103.186 26L101.096 20.1294H102.525L103.878 24.6948H103.975L105.323 20.1294H106.73L104.646 26H103.186ZM107.875 26V20.1294H109.207V26H107.875ZM108.546 19.1465C108.327 19.1465 108.139 19.0695 107.982 18.9155C107.824 18.7616 107.746 18.5771 107.746 18.3623C107.746 18.1403 107.824 17.9541 107.982 17.8037C108.139 17.6497 108.327 17.5728 108.546 17.5728C108.764 17.5728 108.951 17.6497 109.104 17.8037C109.262 17.9541 109.341 18.1403 109.341 18.3623C109.341 18.5771 109.262 18.7616 109.104 18.9155C108.951 19.0695 108.764 19.1465 108.546 19.1465ZM113.369 26.1182C112.785 26.1182 112.284 25.9946 111.865 25.7476C111.45 25.5005 111.129 25.1496 110.904 24.6948C110.678 24.2401 110.565 23.7012 110.565 23.0781V23.0728C110.565 22.4569 110.676 21.9198 110.898 21.4614C111.124 21.0031 111.443 20.6486 111.854 20.3979C112.266 20.1437 112.75 20.0166 113.305 20.0166C113.863 20.0166 114.343 20.1401 114.744 20.3872C115.149 20.6307 115.46 20.9727 115.679 21.4131C115.897 21.8535 116.006 22.3691 116.006 22.96V23.4004H111.237V22.5034H115.351L114.717 23.3413V22.8096C114.717 22.4193 114.658 22.0952 114.54 21.8374C114.422 21.5796 114.257 21.3862 114.046 21.2573C113.838 21.1284 113.597 21.064 113.321 21.064C113.045 21.064 112.8 21.132 112.585 21.2681C112.374 21.4006 112.205 21.5975 112.08 21.8589C111.958 22.1167 111.897 22.4336 111.897 22.8096V23.3467C111.897 23.7083 111.958 24.0181 112.08 24.2759C112.202 24.5301 112.374 24.7271 112.596 24.8667C112.821 25.0028 113.088 25.0708 113.396 25.0708C113.636 25.0708 113.842 25.0368 114.014 24.9688C114.189 24.8971 114.331 24.813 114.438 24.7163C114.545 24.616 114.621 24.5212 114.664 24.4316L114.68 24.394H115.947L115.937 24.4424C115.89 24.6322 115.804 24.8255 115.679 25.0225C115.557 25.2158 115.39 25.3966 115.179 25.5649C114.972 25.7297 114.717 25.8639 114.417 25.9678C114.116 26.068 113.767 26.1182 113.369 26.1182ZM118.402 26L116.807 20.1294H118.149L119.122 24.5444H119.218L120.346 20.1294H121.619L122.752 24.5444H122.849L123.821 20.1294H125.148L123.553 26H122.156L121.012 21.7461H120.921L119.782 26H118.402Z" fill="black"/>
<defs>
<filter id="filter0_dd_384_3223" x="0.5" y="0" width="161" height="94" filterUnits="userSpaceOnUse" color-interpolation-filters="sRGB">
<feFlood flood-opacity="0" result="BackgroundImageFix"/>
<feColorMatrix in="SourceAlpha" type="matrix" values="0 0 0 0 0 0 0 0 0 0 0 0 0 0 0 0 0 0 127 0" result="hardAlpha"/>
<feMorphology radius="0.5" operator="dilate" in="SourceAlpha" result="effect1_dropShadow_384_3223"/>
<feOffset/>
<feComposite in2="hardAlpha" operator="out"/>
<feColorMatrix type="matrix" values="0 0 0 0 0 0 0 0 0 0 0 0 0 0 0 0 0 0 0.05 0"/>
<feBlend mode="normal" in2="BackgroundImageFix" result="effect1_dropShadow_384_3223"/>
<feColorMatrix in="SourceAlpha" type="matrix" values="0 0 0 0 0 0 0 0 0 0 0 0 0 0 0 0 0 0 127 0" result="hardAlpha"/>
<feOffset dy="0.5"/>
<feGaussianBlur stdDeviation="1.25"/>
<feComposite in2="hardAlpha" operator="out"/>
<feColorMatrix type="matrix" values="0 0 0 0 0 0 0 0 0 0 0 0 0 0 0 0 0 0 0.3 0"/>
<feBlend mode="normal" in2="effect1_dropShadow_384_3223" result="effect2_dropShadow_384_3223"/>
<feBlend mode="normal" in="SourceGraphic" in2="effect2_dropShadow_384_3223" result="shape"/>
</filter>
<filter id="filter1_dd_384_3223" x="7.5" y="7" width="28" height="28" filterUnits="userSpaceOnUse" color-interpolation-filters="sRGB">
<feFlood flood-opacity="0" result="BackgroundImageFix"/>
<feColorMatrix in="SourceAlpha" type="matrix" values="0 0 0 0 0 0 0 0 0 0 0 0 0 0 0 0 0 0 127 0" result="hardAlpha"/>
<feMorphology radius="0.5" operator="dilate" in="SourceAlpha" result="effect1_dropShadow_384_3223"/>
<feOffset/>
<feComposite in2="hardAlpha" operator="out"/>
<feColorMatrix type="matrix" values="0 0 0 0 0 0 0 0 0 0 0 0 0 0 0 0 0 0 0.05 0"/>
<feBlend mode="normal" in2="BackgroundImageFix" result="effect1_dropShadow_384_3223"/>
<feColorMatrix in="SourceAlpha" type="matrix" values="0 0 0 0 0 0 0 0 0 0 0 0 0 0 0 0 0 0 127 0" result="hardAlpha"/>
<feOffset dy="0.5"/>
<feGaussianBlur stdDeviation="1.25"/>
<feComposite in2="hardAlpha" operator="out"/>
<feColorMatrix type="matrix" values="0 0 0 0 0 0 0 0 0 0 0 0 0 0 0 0 0 0 0.3 0"/>
<feBlend mode="normal" in2="effect1_dropShadow_384_3223" result="effect2_dropShadow_384_3223"/>
<feBlend mode="normal" in="SourceGraphic" in2="effect2_dropShadow_384_3223" result="shape"/>
</filter>
</defs>
</svg>
