<svg width="422" height="125" viewBox="0 0 422 125" fill="none" xmlns="http://www.w3.org/2000/svg">
<g filter="url(#filter0_dd_749_1957)">
<rect x="3" y="2" width="416" height="120" rx="10" fill="white"/>
</g>
<g filter="url(#filter1_dd_749_1957)">
<rect x="10" y="9" width="23" height="23" rx="7" fill="white"/>
<path d="M22.0317 27.0791C21.397 27.0791 20.8003 26.9797 20.2417 26.7808C19.6873 26.5819 19.2155 26.2941 18.8262 25.9175C18.4368 25.5409 18.1766 25.0881 18.0454 24.5591C18.0158 24.4448 18.001 24.339 18.001 24.2417C18.001 24.0555 18.0518 23.9053 18.1533 23.791C18.2549 23.6768 18.3988 23.6196 18.585 23.6196C18.7415 23.6196 18.8727 23.6641 18.9785 23.7529C19.0843 23.8376 19.1647 23.9624 19.2197 24.1274C19.3213 24.5252 19.4969 24.8595 19.7466 25.1304C20.0005 25.4012 20.32 25.6064 20.7051 25.7461C21.0902 25.8857 21.5366 25.9556 22.0444 25.9556C22.6115 25.9556 23.0981 25.8794 23.5044 25.7271C23.9106 25.5705 24.2196 25.3483 24.4312 25.0605C24.647 24.7686 24.7549 24.4194 24.7549 24.0132C24.7549 23.5011 24.5856 23.0949 24.2471 22.7944C23.9128 22.494 23.3499 22.2485 22.5586 22.0581L21.3525 21.7725C20.2904 21.5143 19.5054 21.1462 18.9976 20.668C18.4897 20.1855 18.2358 19.5698 18.2358 18.8208C18.2358 18.2157 18.3966 17.6846 18.7183 17.2275C19.0441 16.7705 19.4927 16.4129 20.064 16.1548C20.6353 15.8966 21.2891 15.7676 22.0254 15.7676C22.6475 15.7676 23.2166 15.8691 23.7329 16.0723C24.2534 16.2754 24.6893 16.561 25.0405 16.9292C25.396 17.2974 25.6372 17.7248 25.7642 18.2114C25.7811 18.2707 25.7917 18.3278 25.7959 18.3828C25.8044 18.4336 25.8086 18.4844 25.8086 18.5352C25.8086 18.7171 25.7578 18.8652 25.6562 18.9795C25.5547 19.0895 25.4108 19.1445 25.2246 19.1445C24.9072 19.1445 24.6956 18.9774 24.5898 18.6431C24.4714 18.2622 24.2936 17.9427 24.0566 17.6846C23.8239 17.4222 23.5361 17.2254 23.1934 17.0942C22.8506 16.9588 22.4613 16.8911 22.0254 16.8911C21.488 16.8911 21.0288 16.9757 20.6479 17.145C20.2671 17.3143 19.9751 17.5407 19.772 17.8242C19.5731 18.1035 19.4736 18.4103 19.4736 18.7446C19.4736 19.2059 19.6408 19.5889 19.9751 19.8936C20.3136 20.194 20.8363 20.4289 21.543 20.5981L22.749 20.8838C23.8704 21.1546 24.6914 21.5334 25.2119 22.02C25.7324 22.5067 25.9927 23.1414 25.9927 23.9243C25.9927 24.6014 25.8107 25.1748 25.4468 25.6445C25.0871 26.1143 24.6068 26.4697 24.0059 26.7109C23.4049 26.9564 22.7469 27.0791 22.0317 27.0791ZM22 28.6089C21.8688 28.6089 21.7567 28.5623 21.6636 28.4692C21.5705 28.3761 21.5239 28.2619 21.5239 28.1265V14.7583C21.5239 14.6271 21.5705 14.515 21.6636 14.4219C21.7567 14.3288 21.8688 14.2822 22 14.2822C22.1354 14.2822 22.2497 14.3288 22.3428 14.4219C22.4359 14.515 22.4824 14.6271 22.4824 14.7583V28.1265C22.4824 28.2619 22.4359 28.3761 22.3428 28.4692C22.2497 28.5623 22.1354 28.6089 22 28.6089Z" fill="#03A200"/>
</g>
<path d="M40.9561 25V17.2495H42.3418V25H40.9561ZM44.1143 25V19.1294H45.4517V20.0317H45.543C45.6826 19.7131 45.8939 19.4642 46.1768 19.2852C46.4596 19.1061 46.8123 19.0166 47.2349 19.0166C47.8901 19.0166 48.3914 19.2064 48.7388 19.5859C49.0861 19.9655 49.2598 20.5044 49.2598 21.2026V25H47.9224V21.5142C47.9224 21.0558 47.8257 20.7121 47.6323 20.4829C47.4425 20.2537 47.1453 20.1392 46.7407 20.1392C46.4757 20.1392 46.2466 20.1982 46.0532 20.3164C45.8599 20.4346 45.7113 20.6011 45.6074 20.8159C45.5036 21.0308 45.4517 21.285 45.4517 21.5786V25H44.1143ZM53.3579 25.1182C52.7671 25.1182 52.2622 24.9964 51.8433 24.7529C51.4243 24.5094 51.1038 24.1585 50.8818 23.7002C50.6598 23.2419 50.5488 22.694 50.5488 22.0566V22.0459C50.5488 21.4121 50.6598 20.8696 50.8818 20.4185C51.1038 19.9673 51.4243 19.6217 51.8433 19.3818C52.2622 19.1383 52.7653 19.0166 53.3525 19.0166C53.8574 19.0166 54.2907 19.1043 54.6523 19.2798C55.0176 19.4517 55.3058 19.6916 55.5171 19.9995C55.7319 20.3039 55.8644 20.6602 55.9146 21.0684V21.0898H54.6523L54.647 21.0737C54.5861 20.7873 54.4465 20.5527 54.228 20.3701C54.0132 20.1875 53.7231 20.0962 53.3579 20.0962C53.0535 20.0962 52.7922 20.1732 52.5737 20.3271C52.3589 20.4811 52.1942 20.7031 52.0796 20.9932C51.965 21.2832 51.9077 21.6341 51.9077 22.0459V22.0566C51.9077 22.472 51.965 22.8283 52.0796 23.1255C52.1978 23.4191 52.3643 23.6447 52.5791 23.8022C52.7939 23.9562 53.0535 24.0332 53.3579 24.0332C53.7052 24.0332 53.9845 23.9544 54.1958 23.7969C54.4106 23.6393 54.5592 23.4066 54.6416 23.0986L54.6523 23.0771L55.9092 23.0718L55.9038 23.1201C55.8394 23.5176 55.6997 23.8667 55.4849 24.1675C55.2736 24.4683 54.9907 24.7028 54.6362 24.8711C54.2817 25.0358 53.8556 25.1182 53.3579 25.1182ZM59.7227 25.1182C59.139 25.1182 58.6359 24.9964 58.2134 24.7529C57.7909 24.5059 57.465 24.1549 57.2358 23.7002C57.0103 23.2454 56.8975 22.7012 56.8975 22.0674V22.0566C56.8975 21.43 57.012 20.8893 57.2412 20.4346C57.4704 19.9762 57.7944 19.6253 58.2134 19.3818C58.6359 19.1383 59.139 19.0166 59.7227 19.0166C60.3063 19.0166 60.8076 19.1383 61.2266 19.3818C61.6491 19.6253 61.9749 19.9744 62.2041 20.4292C62.4333 20.884 62.5479 21.4264 62.5479 22.0566V22.0674C62.5479 22.7012 62.4333 23.2454 62.2041 23.7002C61.9785 24.1549 61.6545 24.5059 61.2319 24.7529C60.813 24.9964 60.3099 25.1182 59.7227 25.1182ZM59.7227 24.0332C60.0306 24.0332 60.292 23.9562 60.5068 23.8022C60.7253 23.6447 60.8918 23.4209 61.0063 23.1309C61.1209 22.8372 61.1782 22.4845 61.1782 22.0728V22.062C61.1782 21.6466 61.1209 21.2939 61.0063 21.0039C60.8918 20.7103 60.7253 20.4865 60.5068 20.3325C60.292 20.175 60.0306 20.0962 59.7227 20.0962C59.4147 20.0962 59.1515 20.175 58.9331 20.3325C58.7147 20.4865 58.5482 20.7103 58.4336 21.0039C58.319 21.2939 58.2617 21.6466 58.2617 22.062V22.0728C58.2617 22.4845 58.319 22.8372 58.4336 23.1309C58.5482 23.4245 58.7129 23.6483 58.9277 23.8022C59.1462 23.9562 59.4111 24.0332 59.7227 24.0332ZM63.8906 25V19.1294H65.228V20.0425H65.3193C65.4447 19.7166 65.647 19.4642 65.9263 19.2852C66.2091 19.1061 66.5439 19.0166 66.9307 19.0166C67.1956 19.0166 67.4338 19.0596 67.645 19.1455C67.8599 19.2314 68.0443 19.3532 68.1982 19.5107C68.3522 19.6683 68.4704 19.8563 68.5527 20.0747H68.6494C68.7461 19.8634 68.8804 19.679 69.0522 19.5215C69.2277 19.3604 69.4318 19.2368 69.6646 19.1509C69.9009 19.0614 70.1551 19.0166 70.4272 19.0166C70.8211 19.0166 71.1577 19.0954 71.437 19.2529C71.7199 19.4069 71.9365 19.6289 72.0869 19.9189C72.2409 20.209 72.3179 20.5563 72.3179 20.9609V25H70.9805V21.2886C70.9805 21.0308 70.9411 20.8177 70.8623 20.6494C70.7871 20.4811 70.6707 20.354 70.5132 20.2681C70.3556 20.1821 70.1569 20.1392 69.917 20.1392C69.6842 20.1392 69.4819 20.1929 69.3101 20.3003C69.1382 20.4041 69.0039 20.5456 68.9072 20.7246C68.8141 20.9036 68.7676 21.106 68.7676 21.3315V25H67.4302V21.1919C67.4302 20.9735 67.3872 20.7855 67.3013 20.6279C67.2189 20.4704 67.0972 20.3504 66.936 20.2681C66.7785 20.1821 66.5905 20.1392 66.3721 20.1392C66.1536 20.1392 65.9567 20.1965 65.7812 20.311C65.6094 20.422 65.4733 20.576 65.373 20.7729C65.2764 20.9663 65.228 21.1847 65.228 21.4282V25H63.8906ZM76.4053 25.1182C75.8216 25.1182 75.3203 24.9946 74.9014 24.7476C74.486 24.5005 74.1655 24.1496 73.9399 23.6948C73.7144 23.2401 73.6016 22.7012 73.6016 22.0781V22.0728C73.6016 21.4569 73.7126 20.9198 73.9346 20.4614C74.1602 20.0031 74.4788 19.6486 74.8906 19.3979C75.3024 19.1437 75.7858 19.0166 76.3408 19.0166C76.8994 19.0166 77.3792 19.1401 77.7803 19.3872C78.1849 19.6307 78.4964 19.9727 78.7148 20.4131C78.9333 20.8535 79.0425 21.3691 79.0425 21.96V22.4004H74.2729V21.5034H78.3872L77.7534 22.3413V21.8096C77.7534 21.4193 77.6943 21.0952 77.5762 20.8374C77.458 20.5796 77.2933 20.3862 77.082 20.2573C76.8743 20.1284 76.6326 20.064 76.3569 20.064C76.0812 20.064 75.8359 20.132 75.6211 20.2681C75.4098 20.4006 75.2415 20.5975 75.1162 20.8589C74.9945 21.1167 74.9336 21.4336 74.9336 21.8096V22.3467C74.9336 22.7083 74.9945 23.0181 75.1162 23.2759C75.238 23.5301 75.4098 23.7271 75.6318 23.8667C75.8574 24.0028 76.1242 24.0708 76.4321 24.0708C76.672 24.0708 76.8779 24.0368 77.0498 23.9688C77.2253 23.8971 77.3667 23.813 77.4741 23.7163C77.5815 23.616 77.6567 23.5212 77.6997 23.4316L77.7158 23.394H78.9834L78.9727 23.4424C78.9261 23.6322 78.8402 23.8255 78.7148 24.0225C78.5931 24.2158 78.4266 24.3966 78.2153 24.5649C78.0076 24.7297 77.7534 24.8639 77.4526 24.9678C77.1519 25.068 76.8027 25.1182 76.4053 25.1182ZM88.8501 25L85.0044 20.7944C84.7358 20.4972 84.521 20.2412 84.3599 20.0264C84.2023 19.8079 84.0895 19.6092 84.0215 19.4302C83.957 19.2511 83.9248 19.0703 83.9248 18.8877V18.877C83.9248 18.5332 84.0161 18.2271 84.1987 17.9585C84.3849 17.6899 84.6374 17.4805 84.9561 17.3301C85.2783 17.1797 85.6418 17.1045 86.0464 17.1045C86.4546 17.1045 86.8162 17.1797 87.1313 17.3301C87.4465 17.4805 87.6935 17.6882 87.8726 17.9531C88.0552 18.2181 88.1465 18.5207 88.1465 18.8608V18.8716C88.1465 19.1366 88.0874 19.3854 87.9692 19.6182C87.8547 19.8509 87.6685 20.0783 87.4106 20.3003C87.1528 20.5187 86.8127 20.7389 86.3901 20.9609L85.7402 20.2949C86.0518 20.1338 86.297 19.9834 86.4761 19.8438C86.6587 19.7005 86.7894 19.5573 86.8682 19.4141C86.9469 19.2673 86.9863 19.1097 86.9863 18.9414V18.9307C86.9863 18.7588 86.9469 18.6066 86.8682 18.4741C86.7894 18.3416 86.6802 18.2378 86.5405 18.1626C86.4009 18.0874 86.238 18.0498 86.0518 18.0498C85.8727 18.0498 85.7134 18.0874 85.5737 18.1626C85.4341 18.2378 85.3231 18.3416 85.2407 18.4741C85.1619 18.603 85.1226 18.7552 85.1226 18.9307V18.9414C85.1226 19.0667 85.1476 19.1903 85.1978 19.312C85.2479 19.4302 85.3356 19.568 85.4609 19.7256C85.5863 19.8831 85.7581 20.0783 85.9766 20.311L90.4077 24.9946V25H88.8501ZM85.7671 25.145C85.23 25.145 84.7591 25.0537 84.3545 24.8711C83.9535 24.6885 83.6419 24.4342 83.4199 24.1084C83.1979 23.779 83.0869 23.3958 83.0869 22.959V22.9482C83.0869 22.4935 83.2087 22.0942 83.4521 21.7505C83.6956 21.4067 84.0716 21.1042 84.5801 20.8428L85.0366 20.6011L85.7026 21.3369L85.3213 21.5303C85.0133 21.6842 84.777 21.874 84.6123 22.0996C84.4512 22.3216 84.3706 22.5705 84.3706 22.8462V22.8569C84.3706 23.1076 84.4351 23.3296 84.564 23.5229C84.6929 23.7127 84.8719 23.8613 85.1011 23.9688C85.3302 24.0726 85.597 24.1245 85.9014 24.1245C86.195 24.1245 86.4635 24.0851 86.707 24.0063C86.9505 23.924 87.1672 23.8094 87.3569 23.6626C87.5503 23.5158 87.7186 23.3439 87.8618 23.147C88.0731 22.8498 88.2306 22.5096 88.3345 22.1265C88.4383 21.7433 88.4902 21.3315 88.4902 20.8911V20.687H89.6558V20.9609C89.6558 21.5697 89.5698 22.1318 89.3979 22.6475C89.2297 23.1595 88.9718 23.6053 88.6245 23.9849C88.2987 24.3465 87.8976 24.6312 87.4214 24.8389C86.9451 25.043 86.3937 25.145 85.7671 25.145ZM94.4414 25V17.2495H99.458V18.415H95.8271V20.5151H99.2593V21.6162H95.8271V23.8345H99.458V25H94.4414ZM101.037 25V19.1294H102.375V20.0317H102.466C102.605 19.7131 102.817 19.4642 103.1 19.2852C103.382 19.1061 103.735 19.0166 104.158 19.0166C104.813 19.0166 105.314 19.2064 105.662 19.5859C106.009 19.9655 106.183 20.5044 106.183 21.2026V25H104.845V21.5142C104.845 21.0558 104.749 20.7121 104.555 20.4829C104.365 20.2537 104.068 20.1392 103.664 20.1392C103.399 20.1392 103.169 20.1982 102.976 20.3164C102.783 20.4346 102.634 20.6011 102.53 20.8159C102.426 21.0308 102.375 21.285 102.375 21.5786V25H101.037ZM107.316 25L109.217 22.0889L107.3 19.1294H108.841L110.012 21.165H110.104L111.264 19.1294H112.73L110.829 22.0298L112.751 25H111.248L110.044 22.959H109.953L108.75 25H107.316ZM113.928 26.9497V19.1294H115.265V20.0479H115.356C115.464 19.8366 115.604 19.6558 115.775 19.5054C115.951 19.355 116.153 19.2386 116.382 19.1562C116.611 19.0739 116.864 19.0327 117.14 19.0327C117.63 19.0327 118.055 19.1562 118.413 19.4033C118.774 19.6504 119.054 20.0013 119.25 20.4561C119.451 20.9072 119.551 21.4425 119.551 22.062V22.0728C119.551 22.6958 119.453 23.2329 119.256 23.6841C119.059 24.1353 118.78 24.4844 118.418 24.7314C118.06 24.9749 117.634 25.0967 117.14 25.0967C116.871 25.0967 116.62 25.0555 116.388 24.9731C116.155 24.8872 115.951 24.7673 115.775 24.6133C115.6 24.4593 115.46 24.2767 115.356 24.0654H115.265V26.9497H113.928ZM116.721 23.9688C117.025 23.9688 117.286 23.8936 117.505 23.7432C117.723 23.5892 117.892 23.3708 118.01 23.0879C118.128 22.8014 118.187 22.4631 118.187 22.0728V22.062C118.187 21.6646 118.128 21.3244 118.01 21.0415C117.892 20.7586 117.723 20.542 117.505 20.3916C117.286 20.2376 117.025 20.1606 116.721 20.1606C116.416 20.1606 116.153 20.2376 115.931 20.3916C115.713 20.542 115.543 20.7586 115.421 21.0415C115.303 21.3244 115.244 21.6628 115.244 22.0566V22.0674C115.244 22.4613 115.303 22.8014 115.421 23.0879C115.543 23.3708 115.715 23.5892 115.937 23.7432C116.159 23.8936 116.42 23.9688 116.721 23.9688ZM123.413 25.1182C122.829 25.1182 122.328 24.9946 121.909 24.7476C121.494 24.5005 121.173 24.1496 120.948 23.6948C120.722 23.2401 120.609 22.7012 120.609 22.0781V22.0728C120.609 21.4569 120.72 20.9198 120.942 20.4614C121.168 20.0031 121.487 19.6486 121.898 19.3979C122.31 19.1437 122.794 19.0166 123.349 19.0166C123.907 19.0166 124.387 19.1401 124.788 19.3872C125.193 19.6307 125.504 19.9727 125.723 20.4131C125.941 20.8535 126.05 21.3691 126.05 21.96V22.4004H121.281V21.5034H125.395L124.761 22.3413V21.8096C124.761 21.4193 124.702 21.0952 124.584 20.8374C124.466 20.5796 124.301 20.3862 124.09 20.2573C123.882 20.1284 123.64 20.064 123.365 20.064C123.089 20.064 122.844 20.132 122.629 20.2681C122.418 20.4006 122.249 20.5975 122.124 20.8589C122.002 21.1167 121.941 21.4336 121.941 21.8096V22.3467C121.941 22.7083 122.002 23.0181 122.124 23.2759C122.246 23.5301 122.418 23.7271 122.64 23.8667C122.865 24.0028 123.132 24.0708 123.44 24.0708C123.68 24.0708 123.886 24.0368 124.058 23.9688C124.233 23.8971 124.375 23.813 124.482 23.7163C124.589 23.616 124.665 23.5212 124.708 23.4316L124.724 23.394H125.991L125.98 23.4424C125.934 23.6322 125.848 23.8255 125.723 24.0225C125.601 24.2158 125.434 24.3966 125.223 24.5649C125.015 24.7297 124.761 24.8639 124.46 24.9678C124.16 25.068 123.811 25.1182 123.413 25.1182ZM127.388 25V19.1294H128.725V20.0317H128.816C128.956 19.7131 129.167 19.4642 129.45 19.2852C129.733 19.1061 130.086 19.0166 130.508 19.0166C131.164 19.0166 131.665 19.2064 132.012 19.5859C132.36 19.9655 132.533 20.5044 132.533 21.2026V25H131.196V21.5142C131.196 21.0558 131.099 20.7121 130.906 20.4829C130.716 20.2537 130.419 20.1392 130.014 20.1392C129.749 20.1392 129.52 20.1982 129.327 20.3164C129.133 20.4346 128.985 20.6011 128.881 20.8159C128.777 21.0308 128.725 21.285 128.725 21.5786V25H127.388ZM136.331 25.1182C135.833 25.1182 135.403 25.0483 135.042 24.9087C134.683 24.7655 134.401 24.5685 134.193 24.3179C133.985 24.0636 133.862 23.77 133.822 23.437V23.4263H135.149L135.154 23.437C135.226 23.6411 135.36 23.8076 135.557 23.9365C135.754 24.0654 136.019 24.1299 136.352 24.1299C136.574 24.1299 136.769 24.0994 136.938 24.0386C137.106 23.9741 137.238 23.8864 137.335 23.7754C137.432 23.6644 137.48 23.5355 137.48 23.3887V23.3779C137.48 23.2061 137.41 23.0628 137.271 22.9482C137.131 22.8301 136.9 22.7352 136.578 22.6636L135.627 22.4487C135.255 22.3664 134.947 22.2518 134.703 22.105C134.46 21.9582 134.277 21.7773 134.155 21.5625C134.037 21.3477 133.978 21.097 133.978 20.8105V20.8052C133.978 20.4507 134.076 20.1392 134.273 19.8706C134.474 19.6021 134.751 19.3926 135.106 19.2422C135.46 19.0918 135.869 19.0166 136.331 19.0166C136.807 19.0166 137.217 19.0882 137.561 19.2314C137.904 19.3747 138.173 19.5716 138.366 19.8223C138.56 20.0729 138.671 20.3576 138.699 20.6763V20.687H137.442L137.437 20.6709C137.387 20.4847 137.267 20.3271 137.077 20.1982C136.891 20.0658 136.64 19.9995 136.325 19.9995C136.128 19.9995 135.951 20.0299 135.793 20.0908C135.639 20.1517 135.518 20.2376 135.428 20.3486C135.342 20.4561 135.299 20.5832 135.299 20.73V20.7354C135.299 20.8499 135.328 20.9502 135.385 21.0361C135.446 21.1221 135.541 21.1973 135.67 21.2617C135.799 21.3262 135.969 21.3835 136.18 21.4336L137.131 21.6431C137.707 21.772 138.133 21.9635 138.409 22.2178C138.685 22.472 138.823 22.814 138.823 23.2437V23.2544C138.823 23.6268 138.715 23.9526 138.5 24.2319C138.286 24.5112 137.99 24.7297 137.614 24.8872C137.238 25.0412 136.81 25.1182 136.331 25.1182ZM142.685 25.1182C142.101 25.1182 141.6 24.9946 141.181 24.7476C140.765 24.5005 140.445 24.1496 140.219 23.6948C139.994 23.2401 139.881 22.7012 139.881 22.0781V22.0728C139.881 21.4569 139.992 20.9198 140.214 20.4614C140.439 20.0031 140.758 19.6486 141.17 19.3979C141.582 19.1437 142.065 19.0166 142.62 19.0166C143.179 19.0166 143.659 19.1401 144.06 19.3872C144.464 19.6307 144.776 19.9727 144.994 20.4131C145.213 20.8535 145.322 21.3691 145.322 21.96V22.4004H140.552V21.5034H144.667L144.033 22.3413V21.8096C144.033 21.4193 143.974 21.0952 143.855 20.8374C143.737 20.5796 143.573 20.3862 143.361 20.2573C143.154 20.1284 142.912 20.064 142.636 20.064C142.361 20.064 142.115 20.132 141.9 20.2681C141.689 20.4006 141.521 20.5975 141.396 20.8589C141.274 21.1167 141.213 21.4336 141.213 21.8096V22.3467C141.213 22.7083 141.274 23.0181 141.396 23.2759C141.517 23.5301 141.689 23.7271 141.911 23.8667C142.137 24.0028 142.403 24.0708 142.711 24.0708C142.951 24.0708 143.157 24.0368 143.329 23.9688C143.505 23.8971 143.646 23.813 143.753 23.7163C143.861 23.616 143.936 23.5212 143.979 23.4316L143.995 23.394H145.263L145.252 23.4424C145.205 23.6322 145.119 23.8255 144.994 24.0225C144.872 24.2158 144.706 24.3966 144.495 24.5649C144.287 24.7297 144.033 24.8639 143.732 24.9678C143.431 25.068 143.082 25.1182 142.685 25.1182ZM148.877 25.1182C148.38 25.1182 147.95 25.0483 147.588 24.9087C147.23 24.7655 146.947 24.5685 146.74 24.3179C146.532 24.0636 146.409 23.77 146.369 23.437V23.4263H147.696L147.701 23.437C147.773 23.6411 147.907 23.8076 148.104 23.9365C148.301 24.0654 148.566 24.1299 148.899 24.1299C149.121 24.1299 149.316 24.0994 149.484 24.0386C149.653 23.9741 149.785 23.8864 149.882 23.7754C149.979 23.6644 150.027 23.5355 150.027 23.3887V23.3779C150.027 23.2061 149.957 23.0628 149.817 22.9482C149.678 22.8301 149.447 22.7352 149.125 22.6636L148.174 22.4487C147.801 22.3664 147.493 22.2518 147.25 22.105C147.007 21.9582 146.824 21.7773 146.702 21.5625C146.584 21.3477 146.525 21.097 146.525 20.8105V20.8052C146.525 20.4507 146.623 20.1392 146.82 19.8706C147.021 19.6021 147.298 19.3926 147.653 19.2422C148.007 19.0918 148.416 19.0166 148.877 19.0166C149.354 19.0166 149.764 19.0882 150.107 19.2314C150.451 19.3747 150.72 19.5716 150.913 19.8223C151.106 20.0729 151.217 20.3576 151.246 20.6763V20.687H149.989L149.984 20.6709C149.934 20.4847 149.814 20.3271 149.624 20.1982C149.438 20.0658 149.187 19.9995 148.872 19.9995C148.675 19.9995 148.498 20.0299 148.34 20.0908C148.186 20.1517 148.065 20.2376 147.975 20.3486C147.889 20.4561 147.846 20.5832 147.846 20.73V20.7354C147.846 20.8499 147.875 20.9502 147.932 21.0361C147.993 21.1221 148.088 21.1973 148.217 21.2617C148.346 21.3262 148.516 21.3835 148.727 21.4336L149.678 21.6431C150.254 21.772 150.68 21.9635 150.956 22.2178C151.232 22.472 151.37 22.814 151.37 23.2437V23.2544C151.37 23.6268 151.262 23.9526 151.047 24.2319C150.833 24.5112 150.537 24.7297 150.161 24.8872C149.785 25.0412 149.357 25.1182 148.877 25.1182Z" fill="black"/>
<g filter="url(#filter2_dd_749_1957)">
<rect x="12" y="42" width="189" height="71" rx="8" fill="white"/>
</g>
<path d="M72.8325 64V57.415H70.4478V56.2495H76.603V57.415H74.2183V64H72.8325ZM79.4121 64.1182C78.8285 64.1182 78.3254 63.9964 77.9028 63.7529C77.4803 63.5059 77.1545 63.1549 76.9253 62.7002C76.6997 62.2454 76.5869 61.7012 76.5869 61.0674V61.0566C76.5869 60.43 76.7015 59.8893 76.9307 59.4346C77.1598 58.9762 77.4839 58.6253 77.9028 58.3818C78.3254 58.1383 78.8285 58.0166 79.4121 58.0166C79.9958 58.0166 80.4971 58.1383 80.916 58.3818C81.3385 58.6253 81.6644 58.9744 81.8936 59.4292C82.1227 59.884 82.2373 60.4264 82.2373 61.0566V61.0674C82.2373 61.7012 82.1227 62.2454 81.8936 62.7002C81.668 63.1549 81.3439 63.5059 80.9214 63.7529C80.5024 63.9964 79.9993 64.1182 79.4121 64.1182ZM79.4121 63.0332C79.7201 63.0332 79.9814 62.9562 80.1963 62.8022C80.4147 62.6447 80.5812 62.4209 80.6958 62.1309C80.8104 61.8372 80.8677 61.4845 80.8677 61.0728V61.062C80.8677 60.6466 80.8104 60.2939 80.6958 60.0039C80.5812 59.7103 80.4147 59.4865 80.1963 59.3325C79.9814 59.175 79.7201 59.0962 79.4121 59.0962C79.1042 59.0962 78.841 59.175 78.6226 59.3325C78.4041 59.4865 78.2376 59.7103 78.123 60.0039C78.0085 60.2939 77.9512 60.6466 77.9512 61.062V61.0728C77.9512 61.4845 78.0085 61.8372 78.123 62.1309C78.2376 62.4245 78.4023 62.6483 78.6172 62.8022C78.8356 62.9562 79.1006 63.0332 79.4121 63.0332ZM85.8896 64.0269C85.2165 64.0269 84.7313 63.9033 84.4341 63.6562C84.1369 63.4092 83.9883 63.0046 83.9883 62.4424V59.166H83.0752V58.1294H83.9883V56.6899H85.3472V58.1294H86.5825V59.166H85.3472V62.1255C85.3472 62.4155 85.408 62.6286 85.5298 62.7646C85.6551 62.8971 85.8556 62.9634 86.1313 62.9634C86.228 62.9634 86.3068 62.9616 86.3677 62.958C86.4321 62.9508 86.5037 62.9437 86.5825 62.9365V63.9678C86.4894 63.9857 86.382 64 86.2603 64.0107C86.1421 64.0215 86.0186 64.0269 85.8896 64.0269ZM89.5205 64.0967C89.1517 64.0967 88.8205 64.0251 88.5269 63.8818C88.2368 63.7386 88.0076 63.5363 87.8394 63.2749C87.6746 63.0099 87.5923 62.6984 87.5923 62.3403V62.3296C87.5923 61.9823 87.6782 61.6833 87.8501 61.4326C88.022 61.1784 88.2744 60.9797 88.6074 60.8364C88.9404 60.6932 89.3451 60.609 89.8213 60.584L91.9912 60.4497V61.3306L90.0093 61.4595C89.6333 61.481 89.3558 61.5597 89.1768 61.6958C88.9977 61.8319 88.9082 62.0216 88.9082 62.2651V62.2759C88.9082 62.5265 89.0031 62.7217 89.1929 62.8613C89.3862 63.001 89.6315 63.0708 89.9287 63.0708C90.1973 63.0708 90.4372 63.0171 90.6484 62.9097C90.8597 62.8022 91.0262 62.6572 91.1479 62.4746C91.2697 62.2884 91.3306 62.0789 91.3306 61.8462V59.9878C91.3306 59.6942 91.2375 59.4704 91.0513 59.3164C90.8651 59.1589 90.5894 59.0801 90.2241 59.0801C89.9198 59.0801 89.6709 59.1338 89.4775 59.2412C89.2842 59.3451 89.1535 59.4937 89.0854 59.687L89.0801 59.7085H87.8179L87.8232 59.6602C87.8662 59.3307 87.9951 59.0425 88.21 58.7954C88.4248 58.5483 88.7095 58.3568 89.064 58.2207C89.4185 58.0846 89.8267 58.0166 90.2886 58.0166C90.797 58.0166 91.2267 58.0954 91.5776 58.2529C91.9285 58.4069 92.1953 58.6325 92.3779 58.9297C92.5605 59.2233 92.6519 59.576 92.6519 59.9878V64H91.3306V63.1943H91.2393C91.1318 63.3805 90.9922 63.5417 90.8203 63.6777C90.652 63.8138 90.4587 63.9176 90.2402 63.9893C90.0218 64.0609 89.7819 64.0967 89.5205 64.0967ZM94.3115 64V55.8574H95.6489V64H94.3115ZM100.402 64V56.2495H101.788V64H100.402ZM103.561 64V58.1294H104.898V59.0317H104.989C105.129 58.7131 105.34 58.4642 105.623 58.2852C105.906 58.1061 106.259 58.0166 106.681 58.0166C107.336 58.0166 107.838 58.2064 108.185 58.5859C108.532 58.9655 108.706 59.5044 108.706 60.2026V64H107.369V60.5142C107.369 60.0558 107.272 59.7121 107.079 59.4829C106.889 59.2537 106.592 59.1392 106.187 59.1392C105.922 59.1392 105.693 59.1982 105.5 59.3164C105.306 59.4346 105.158 59.6011 105.054 59.8159C104.95 60.0308 104.898 60.285 104.898 60.5786V64H103.561ZM112.804 64.1182C112.213 64.1182 111.708 63.9964 111.29 63.7529C110.871 63.5094 110.55 63.1585 110.328 62.7002C110.106 62.2419 109.995 61.694 109.995 61.0566V61.0459C109.995 60.4121 110.106 59.8696 110.328 59.4185C110.55 58.9673 110.871 58.6217 111.29 58.3818C111.708 58.1383 112.212 58.0166 112.799 58.0166C113.304 58.0166 113.737 58.1043 114.099 58.2798C114.464 58.4517 114.752 58.6916 114.963 58.9995C115.178 59.3039 115.311 59.6602 115.361 60.0684V60.0898H114.099L114.093 60.0737C114.032 59.7873 113.893 59.5527 113.674 59.3701C113.459 59.1875 113.169 59.0962 112.804 59.0962C112.5 59.0962 112.238 59.1732 112.02 59.3271C111.805 59.4811 111.64 59.7031 111.526 59.9932C111.411 60.2832 111.354 60.6341 111.354 61.0459V61.0566C111.354 61.472 111.411 61.8283 111.526 62.1255C111.644 62.4191 111.811 62.6447 112.025 62.8022C112.24 62.9562 112.5 63.0332 112.804 63.0332C113.152 63.0332 113.431 62.9544 113.642 62.7969C113.857 62.6393 114.006 62.4066 114.088 62.0986L114.099 62.0771L115.355 62.0718L115.35 62.1201C115.286 62.5176 115.146 62.8667 114.931 63.1675C114.72 63.4683 114.437 63.7028 114.083 63.8711C113.728 64.0358 113.302 64.1182 112.804 64.1182ZM119.169 64.1182C118.585 64.1182 118.082 63.9964 117.66 63.7529C117.237 63.5059 116.911 63.1549 116.682 62.7002C116.457 62.2454 116.344 61.7012 116.344 61.0674V61.0566C116.344 60.43 116.458 59.8893 116.688 59.4346C116.917 58.9762 117.241 58.6253 117.66 58.3818C118.082 58.1383 118.585 58.0166 119.169 58.0166C119.753 58.0166 120.254 58.1383 120.673 58.3818C121.095 58.6253 121.421 58.9744 121.65 59.4292C121.88 59.884 121.994 60.4264 121.994 61.0566V61.0674C121.994 61.7012 121.88 62.2454 121.65 62.7002C121.425 63.1549 121.101 63.5059 120.678 63.7529C120.259 63.9964 119.756 64.1182 119.169 64.1182ZM119.169 63.0332C119.477 63.0332 119.738 62.9562 119.953 62.8022C120.172 62.6447 120.338 62.4209 120.453 62.1309C120.567 61.8372 120.625 61.4845 120.625 61.0728V61.062C120.625 60.6466 120.567 60.2939 120.453 60.0039C120.338 59.7103 120.172 59.4865 119.953 59.3325C119.738 59.175 119.477 59.0962 119.169 59.0962C118.861 59.0962 118.598 59.175 118.379 59.3325C118.161 59.4865 117.994 59.7103 117.88 60.0039C117.765 60.2939 117.708 60.6466 117.708 61.062V61.0728C117.708 61.4845 117.765 61.8372 117.88 62.1309C117.994 62.4245 118.159 62.6483 118.374 62.8022C118.592 62.9562 118.857 63.0332 119.169 63.0332ZM123.337 64V58.1294H124.674V59.0425H124.766C124.891 58.7166 125.093 58.4642 125.373 58.2852C125.655 58.1061 125.99 58.0166 126.377 58.0166C126.642 58.0166 126.88 58.0596 127.091 58.1455C127.306 58.2314 127.491 58.3532 127.645 58.5107C127.799 58.6683 127.917 58.8563 127.999 59.0747H128.096C128.192 58.8634 128.327 58.679 128.499 58.5215C128.674 58.3604 128.878 58.2368 129.111 58.1509C129.347 58.0614 129.601 58.0166 129.874 58.0166C130.267 58.0166 130.604 58.0954 130.883 58.2529C131.166 58.4069 131.383 58.6289 131.533 58.9189C131.687 59.209 131.764 59.5563 131.764 59.9609V64H130.427V60.2886C130.427 60.0308 130.387 59.8177 130.309 59.6494C130.233 59.4811 130.117 59.354 129.959 59.2681C129.802 59.1821 129.603 59.1392 129.363 59.1392C129.131 59.1392 128.928 59.1929 128.756 59.3003C128.584 59.4041 128.45 59.5456 128.354 59.7246C128.26 59.9036 128.214 60.106 128.214 60.3315V64H126.876V60.1919C126.876 59.9735 126.833 59.7855 126.748 59.6279C126.665 59.4704 126.543 59.3504 126.382 59.2681C126.225 59.1821 126.037 59.1392 125.818 59.1392C125.6 59.1392 125.403 59.1965 125.228 59.311C125.056 59.422 124.92 59.576 124.819 59.7729C124.723 59.9663 124.674 60.1847 124.674 60.4282V64H123.337ZM135.852 64.1182C135.268 64.1182 134.767 63.9946 134.348 63.7476C133.932 63.5005 133.612 63.1496 133.386 62.6948C133.161 62.2401 133.048 61.7012 133.048 61.0781V61.0728C133.048 60.4569 133.159 59.9198 133.381 59.4614C133.606 59.0031 133.925 58.6486 134.337 58.3979C134.749 58.1437 135.232 58.0166 135.787 58.0166C136.346 58.0166 136.826 58.1401 137.227 58.3872C137.631 58.6307 137.943 58.9727 138.161 59.4131C138.38 59.8535 138.489 60.3691 138.489 60.96V61.4004H133.719V60.5034H137.833L137.2 61.3413V60.8096C137.2 60.4193 137.141 60.0952 137.022 59.8374C136.904 59.5796 136.74 59.3862 136.528 59.2573C136.321 59.1284 136.079 59.064 135.803 59.064C135.528 59.064 135.282 59.132 135.067 59.2681C134.856 59.4006 134.688 59.5975 134.562 59.8589C134.441 60.1167 134.38 60.4336 134.38 60.8096V61.3467C134.38 61.7083 134.441 62.0181 134.562 62.2759C134.684 62.5301 134.856 62.7271 135.078 62.8667C135.304 63.0028 135.57 63.0708 135.878 63.0708C136.118 63.0708 136.324 63.0368 136.496 62.9688C136.672 62.8971 136.813 62.813 136.92 62.7163C137.028 62.616 137.103 62.5212 137.146 62.4316L137.162 62.394H138.43L138.419 62.4424C138.372 62.6322 138.286 62.8255 138.161 63.0225C138.039 63.2158 137.873 63.3966 137.662 63.5649C137.454 63.7297 137.2 63.8639 136.899 63.9678C136.598 64.068 136.249 64.1182 135.852 64.1182Z" fill="black"/>
<g filter="url(#filter3_dd_749_1957)">
<rect x="221" y="42" width="189" height="71" rx="8" fill="white"/>
</g>
<path d="M278.184 64V57.415H275.799V56.2495H281.955V57.415H279.57V64H278.184ZM284.764 64.1182C284.18 64.1182 283.677 63.9964 283.254 63.7529C282.832 63.5059 282.506 63.1549 282.277 62.7002C282.051 62.2454 281.938 61.7012 281.938 61.0674V61.0566C281.938 60.43 282.053 59.8893 282.282 59.4346C282.511 58.9762 282.835 58.6253 283.254 58.3818C283.677 58.1383 284.18 58.0166 284.764 58.0166C285.347 58.0166 285.849 58.1383 286.268 58.3818C286.69 58.6253 287.016 58.9744 287.245 59.4292C287.474 59.884 287.589 60.4264 287.589 61.0566V61.0674C287.589 61.7012 287.474 62.2454 287.245 62.7002C287.02 63.1549 286.695 63.5059 286.273 63.7529C285.854 63.9964 285.351 64.1182 284.764 64.1182ZM284.764 63.0332C285.072 63.0332 285.333 62.9562 285.548 62.8022C285.766 62.6447 285.933 62.4209 286.047 62.1309C286.162 61.8372 286.219 61.4845 286.219 61.0728V61.062C286.219 60.6466 286.162 60.2939 286.047 60.0039C285.933 59.7103 285.766 59.4865 285.548 59.3325C285.333 59.175 285.072 59.0962 284.764 59.0962C284.456 59.0962 284.193 59.175 283.974 59.3325C283.756 59.4865 283.589 59.7103 283.475 60.0039C283.36 60.2939 283.303 60.6466 283.303 61.062V61.0728C283.303 61.4845 283.36 61.8372 283.475 62.1309C283.589 62.4245 283.754 62.6483 283.969 62.8022C284.187 62.9562 284.452 63.0332 284.764 63.0332ZM291.241 64.0269C290.568 64.0269 290.083 63.9033 289.786 63.6562C289.488 63.4092 289.34 63.0046 289.34 62.4424V59.166H288.427V58.1294H289.34V56.6899H290.699V58.1294H291.934V59.166H290.699V62.1255C290.699 62.4155 290.76 62.6286 290.881 62.7646C291.007 62.8971 291.207 62.9634 291.483 62.9634C291.58 62.9634 291.658 62.9616 291.719 62.958C291.784 62.9508 291.855 62.9437 291.934 62.9365V63.9678C291.841 63.9857 291.734 64 291.612 64.0107C291.494 64.0215 291.37 64.0269 291.241 64.0269ZM294.872 64.0967C294.503 64.0967 294.172 64.0251 293.878 63.8818C293.588 63.7386 293.359 63.5363 293.191 63.2749C293.026 63.0099 292.944 62.6984 292.944 62.3403V62.3296C292.944 61.9823 293.03 61.6833 293.202 61.4326C293.374 61.1784 293.626 60.9797 293.959 60.8364C294.292 60.6932 294.697 60.609 295.173 60.584L297.343 60.4497V61.3306L295.361 61.4595C294.985 61.481 294.707 61.5597 294.528 61.6958C294.349 61.8319 294.26 62.0216 294.26 62.2651V62.2759C294.26 62.5265 294.355 62.7217 294.544 62.8613C294.738 63.001 294.983 63.0708 295.28 63.0708C295.549 63.0708 295.789 63.0171 296 62.9097C296.211 62.8022 296.378 62.6572 296.5 62.4746C296.621 62.2884 296.682 62.0789 296.682 61.8462V59.9878C296.682 59.6942 296.589 59.4704 296.403 59.3164C296.217 59.1589 295.941 59.0801 295.576 59.0801C295.271 59.0801 295.022 59.1338 294.829 59.2412C294.636 59.3451 294.505 59.4937 294.437 59.687L294.432 59.7085H293.169L293.175 59.6602C293.218 59.3307 293.347 59.0425 293.562 58.7954C293.776 58.5483 294.061 58.3568 294.416 58.2207C294.77 58.0846 295.178 58.0166 295.64 58.0166C296.149 58.0166 296.578 58.0954 296.929 58.2529C297.28 58.4069 297.547 58.6325 297.729 58.9297C297.912 59.2233 298.003 59.576 298.003 59.9878V64H296.682V63.1943H296.591C296.483 63.3805 296.344 63.5417 296.172 63.6777C296.004 63.8138 295.81 63.9176 295.592 63.9893C295.373 64.0609 295.133 64.0967 294.872 64.0967ZM299.663 64V55.8574H301V64H299.663ZM305.754 64V56.2495H310.771V57.415H307.14V59.5151H310.572V60.6162H307.14V62.8345H310.771V64H305.754ZM311.904 64L313.805 61.0889L311.888 58.1294H313.429L314.6 60.165H314.691L315.852 58.1294H317.318L315.417 61.0298L317.339 64H315.835L314.632 61.959H314.541L313.338 64H311.904ZM318.516 65.9497V58.1294H319.853V59.0479H319.944C320.052 58.8366 320.191 58.6558 320.363 58.5054C320.539 58.355 320.741 58.2386 320.97 58.1562C321.199 58.0739 321.452 58.0327 321.728 58.0327C322.218 58.0327 322.642 58.1562 323 58.4033C323.362 58.6504 323.641 59.0013 323.838 59.4561C324.039 59.9072 324.139 60.4425 324.139 61.062V61.0728C324.139 61.6958 324.041 62.2329 323.844 62.6841C323.647 63.1353 323.368 63.4844 323.006 63.7314C322.648 63.9749 322.222 64.0967 321.728 64.0967C321.459 64.0967 321.208 64.0555 320.976 63.9731C320.743 63.8872 320.539 63.7673 320.363 63.6133C320.188 63.4593 320.048 63.2767 319.944 63.0654H319.853V65.9497H318.516ZM321.309 62.9688C321.613 62.9688 321.874 62.8936 322.093 62.7432C322.311 62.5892 322.479 62.3708 322.598 62.0879C322.716 61.8014 322.775 61.4631 322.775 61.0728V61.062C322.775 60.6646 322.716 60.3244 322.598 60.0415C322.479 59.7586 322.311 59.542 322.093 59.3916C321.874 59.2376 321.613 59.1606 321.309 59.1606C321.004 59.1606 320.741 59.2376 320.519 59.3916C320.301 59.542 320.131 59.7586 320.009 60.0415C319.891 60.3244 319.832 60.6628 319.832 61.0566V61.0674C319.832 61.4613 319.891 61.8014 320.009 62.0879C320.131 62.3708 320.302 62.5892 320.524 62.7432C320.746 62.8936 321.008 62.9688 321.309 62.9688ZM328.001 64.1182C327.417 64.1182 326.916 63.9946 326.497 63.7476C326.082 63.5005 325.761 63.1496 325.536 62.6948C325.31 62.2401 325.197 61.7012 325.197 61.0781V61.0728C325.197 60.4569 325.308 59.9198 325.53 59.4614C325.756 59.0031 326.075 58.6486 326.486 58.3979C326.898 58.1437 327.382 58.0166 327.937 58.0166C328.495 58.0166 328.975 58.1401 329.376 58.3872C329.781 58.6307 330.092 58.9727 330.311 59.4131C330.529 59.8535 330.638 60.3691 330.638 60.96V61.4004H325.869V60.5034H329.983L329.349 61.3413V60.8096C329.349 60.4193 329.29 60.0952 329.172 59.8374C329.054 59.5796 328.889 59.3862 328.678 59.2573C328.47 59.1284 328.228 59.064 327.953 59.064C327.677 59.064 327.432 59.132 327.217 59.2681C327.006 59.4006 326.837 59.5975 326.712 59.8589C326.59 60.1167 326.529 60.4336 326.529 60.8096V61.3467C326.529 61.7083 326.59 62.0181 326.712 62.2759C326.834 62.5301 327.006 62.7271 327.228 62.8667C327.453 63.0028 327.72 63.0708 328.028 63.0708C328.268 63.0708 328.474 63.0368 328.646 62.9688C328.821 62.8971 328.962 62.813 329.07 62.7163C329.177 62.616 329.252 62.5212 329.295 62.4316L329.312 62.394H330.579L330.568 62.4424C330.522 62.6322 330.436 62.8255 330.311 63.0225C330.189 63.2158 330.022 63.3966 329.811 63.5649C329.603 63.7297 329.349 63.8639 329.048 63.9678C328.748 64.068 328.398 64.1182 328.001 64.1182ZM331.976 64V58.1294H333.313V59.0317H333.404C333.544 58.7131 333.755 58.4642 334.038 58.2852C334.321 58.1061 334.674 58.0166 335.096 58.0166C335.751 58.0166 336.253 58.2064 336.6 58.5859C336.947 58.9655 337.121 59.5044 337.121 60.2026V64H335.784V60.5142C335.784 60.0558 335.687 59.7121 335.494 59.4829C335.304 59.2537 335.007 59.1392 334.602 59.1392C334.337 59.1392 334.108 59.1982 333.915 59.3164C333.721 59.4346 333.573 59.6011 333.469 59.8159C333.365 60.0308 333.313 60.285 333.313 60.5786V64H331.976ZM340.918 64.1182C340.421 64.1182 339.991 64.0483 339.629 63.9087C339.271 63.7655 338.988 63.5685 338.781 63.3179C338.573 63.0636 338.45 62.77 338.41 62.437V62.4263H339.737L339.742 62.437C339.814 62.6411 339.948 62.8076 340.145 62.9365C340.342 63.0654 340.607 63.1299 340.94 63.1299C341.162 63.1299 341.357 63.0994 341.525 63.0386C341.694 62.9741 341.826 62.8864 341.923 62.7754C342.02 62.6644 342.068 62.5355 342.068 62.3887V62.3779C342.068 62.2061 341.998 62.0628 341.858 61.9482C341.719 61.8301 341.488 61.7352 341.166 61.6636L340.215 61.4487C339.842 61.3664 339.535 61.2518 339.291 61.105C339.048 60.9582 338.865 60.7773 338.743 60.5625C338.625 60.3477 338.566 60.097 338.566 59.8105V59.8052C338.566 59.4507 338.664 59.1392 338.861 58.8706C339.062 58.6021 339.339 58.3926 339.694 58.2422C340.048 58.0918 340.457 58.0166 340.918 58.0166C341.395 58.0166 341.805 58.0882 342.148 58.2314C342.492 58.3747 342.761 58.5716 342.954 58.8223C343.147 59.0729 343.258 59.3576 343.287 59.6763V59.687H342.03L342.025 59.6709C341.975 59.4847 341.855 59.3271 341.665 59.1982C341.479 59.0658 341.228 58.9995 340.913 58.9995C340.716 58.9995 340.539 59.0299 340.381 59.0908C340.227 59.1517 340.106 59.2376 340.016 59.3486C339.93 59.4561 339.887 59.5832 339.887 59.73V59.7354C339.887 59.8499 339.916 59.9502 339.973 60.0361C340.034 60.1221 340.129 60.1973 340.258 60.2617C340.387 60.3262 340.557 60.3835 340.768 60.4336L341.719 60.6431C342.295 60.772 342.721 60.9635 342.997 61.2178C343.273 61.472 343.411 61.814 343.411 62.2437V62.2544C343.411 62.6268 343.303 62.9526 343.088 63.2319C342.874 63.5112 342.578 63.7297 342.202 63.8872C341.826 64.0412 341.398 64.1182 340.918 64.1182ZM347.272 64.1182C346.689 64.1182 346.188 63.9946 345.769 63.7476C345.353 63.5005 345.033 63.1496 344.807 62.6948C344.582 62.2401 344.469 61.7012 344.469 61.0781V61.0728C344.469 60.4569 344.58 59.9198 344.802 59.4614C345.027 59.0031 345.346 58.6486 345.758 58.3979C346.17 58.1437 346.653 58.0166 347.208 58.0166C347.767 58.0166 348.246 58.1401 348.647 58.3872C349.052 58.6307 349.364 58.9727 349.582 59.4131C349.8 59.8535 349.91 60.3691 349.91 60.96V61.4004H345.14V60.5034H349.254L348.621 61.3413V60.8096C348.621 60.4193 348.562 60.0952 348.443 59.8374C348.325 59.5796 348.16 59.3862 347.949 59.2573C347.742 59.1284 347.5 59.064 347.224 59.064C346.948 59.064 346.703 59.132 346.488 59.2681C346.277 59.4006 346.109 59.5975 345.983 59.8589C345.862 60.1167 345.801 60.4336 345.801 60.8096V61.3467C345.801 61.7083 345.862 62.0181 345.983 62.2759C346.105 62.5301 346.277 62.7271 346.499 62.8667C346.725 63.0028 346.991 63.0708 347.299 63.0708C347.539 63.0708 347.745 63.0368 347.917 62.9688C348.092 62.8971 348.234 62.813 348.341 62.7163C348.449 62.616 348.524 62.5212 348.567 62.4316L348.583 62.394H349.851L349.84 62.4424C349.793 62.6322 349.707 62.8255 349.582 63.0225C349.46 63.2158 349.294 63.3966 349.083 63.5649C348.875 63.7297 348.621 63.8639 348.32 63.9678C348.019 64.068 347.67 64.1182 347.272 64.1182ZM353.465 64.1182C352.968 64.1182 352.538 64.0483 352.176 63.9087C351.818 63.7655 351.535 63.5685 351.328 63.3179C351.12 63.0636 350.996 62.77 350.957 62.437V62.4263H352.284L352.289 62.437C352.361 62.6411 352.495 62.8076 352.692 62.9365C352.889 63.0654 353.154 63.1299 353.487 63.1299C353.709 63.1299 353.904 63.0994 354.072 63.0386C354.241 62.9741 354.373 62.8864 354.47 62.7754C354.566 62.6644 354.615 62.5355 354.615 62.3887V62.3779C354.615 62.2061 354.545 62.0628 354.405 61.9482C354.266 61.8301 354.035 61.7352 353.712 61.6636L352.762 61.4487C352.389 61.3664 352.081 61.2518 351.838 61.105C351.594 60.9582 351.412 60.7773 351.29 60.5625C351.172 60.3477 351.113 60.097 351.113 59.8105V59.8052C351.113 59.4507 351.211 59.1392 351.408 58.8706C351.609 58.6021 351.886 58.3926 352.241 58.2422C352.595 58.0918 353.003 58.0166 353.465 58.0166C353.942 58.0166 354.352 58.0882 354.695 58.2314C355.039 58.3747 355.308 58.5716 355.501 58.8223C355.694 59.0729 355.805 59.3576 355.834 59.6763V59.687H354.577L354.572 59.6709C354.522 59.4847 354.402 59.3271 354.212 59.1982C354.026 59.0658 353.775 58.9995 353.46 58.9995C353.263 58.9995 353.086 59.0299 352.928 59.0908C352.774 59.1517 352.653 59.2376 352.563 59.3486C352.477 59.4561 352.434 59.5832 352.434 59.73V59.7354C352.434 59.8499 352.463 59.9502 352.52 60.0361C352.581 60.1221 352.676 60.1973 352.805 60.2617C352.934 60.3262 353.104 60.3835 353.315 60.4336L354.266 60.6431C354.842 60.772 355.268 60.9635 355.544 61.2178C355.82 61.472 355.958 61.814 355.958 62.2437V62.2544C355.958 62.6268 355.85 62.9526 355.635 63.2319C355.42 63.5112 355.125 63.7297 354.749 63.8872C354.373 64.0412 353.945 64.1182 353.465 64.1182Z" fill="black"/>
<defs>
<filter id="filter0_dd_749_1957" x="0.5" y="0" width="421" height="125" filterUnits="userSpaceOnUse" color-interpolation-filters="sRGB">
<feFlood flood-opacity="0" result="BackgroundImageFix"/>
<feColorMatrix in="SourceAlpha" type="matrix" values="0 0 0 0 0 0 0 0 0 0 0 0 0 0 0 0 0 0 127 0" result="hardAlpha"/>
<feMorphology radius="0.5" operator="dilate" in="SourceAlpha" result="effect1_dropShadow_749_1957"/>
<feOffset/>
<feComposite in2="hardAlpha" operator="out"/>
<feColorMatrix type="matrix" values="0 0 0 0 0 0 0 0 0 0 0 0 0 0 0 0 0 0 0.05 0"/>
<feBlend mode="normal" in2="BackgroundImageFix" result="effect1_dropShadow_749_1957"/>
<feColorMatrix in="SourceAlpha" type="matrix" values="0 0 0 0 0 0 0 0 0 0 0 0 0 0 0 0 0 0 127 0" result="hardAlpha"/>
<feOffset dy="0.5"/>
<feGaussianBlur stdDeviation="1.25"/>
<feComposite in2="hardAlpha" operator="out"/>
<feColorMatrix type="matrix" values="0 0 0 0 0 0 0 0 0 0 0 0 0 0 0 0 0 0 0.3 0"/>
<feBlend mode="normal" in2="effect1_dropShadow_749_1957" result="effect2_dropShadow_749_1957"/>
<feBlend mode="normal" in="SourceGraphic" in2="effect2_dropShadow_749_1957" result="shape"/>
</filter>
<filter id="filter1_dd_749_1957" x="7.5" y="7" width="28" height="28" filterUnits="userSpaceOnUse" color-interpolation-filters="sRGB">
<feFlood flood-opacity="0" result="BackgroundImageFix"/>
<feColorMatrix in="SourceAlpha" type="matrix" values="0 0 0 0 0 0 0 0 0 0 0 0 0 0 0 0 0 0 127 0" result="hardAlpha"/>
<feMorphology radius="0.5" operator="dilate" in="SourceAlpha" result="effect1_dropShadow_749_1957"/>
<feOffset/>
<feComposite in2="hardAlpha" operator="out"/>
<feColorMatrix type="matrix" values="0 0 0 0 0 0 0 0 0 0 0 0 0 0 0 0 0 0 0.05 0"/>
<feBlend mode="normal" in2="BackgroundImageFix" result="effect1_dropShadow_749_1957"/>
<feColorMatrix in="SourceAlpha" type="matrix" values="0 0 0 0 0 0 0 0 0 0 0 0 0 0 0 0 0 0 127 0" result="hardAlpha"/>
<feOffset dy="0.5"/>
<feGaussianBlur stdDeviation="1.25"/>
<feComposite in2="hardAlpha" operator="out"/>
<feColorMatrix type="matrix" values="0 0 0 0 0 0 0 0 0 0 0 0 0 0 0 0 0 0 0.3 0"/>
<feBlend mode="normal" in2="effect1_dropShadow_749_1957" result="effect2_dropShadow_749_1957"/>
<feBlend mode="normal" in="SourceGraphic" in2="effect2_dropShadow_749_1957" result="shape"/>
</filter>
<filter id="filter2_dd_749_1957" x="9.5" y="40" width="194" height="76" filterUnits="userSpaceOnUse" color-interpolation-filters="sRGB">
<feFlood flood-opacity="0" result="BackgroundImageFix"/>
<feColorMatrix in="SourceAlpha" type="matrix" values="0 0 0 0 0 0 0 0 0 0 0 0 0 0 0 0 0 0 127 0" result="hardAlpha"/>
<feMorphology radius="0.5" operator="dilate" in="SourceAlpha" result="effect1_dropShadow_749_1957"/>
<feOffset/>
<feComposite in2="hardAlpha" operator="out"/>
<feColorMatrix type="matrix" values="0 0 0 0 0 0 0 0 0 0 0 0 0 0 0 0 0 0 0.05 0"/>
<feBlend mode="normal" in2="BackgroundImageFix" result="effect1_dropShadow_749_1957"/>
<feColorMatrix in="SourceAlpha" type="matrix" values="0 0 0 0 0 0 0 0 0 0 0 0 0 0 0 0 0 0 127 0" result="hardAlpha"/>
<feOffset dy="0.5"/>
<feGaussianBlur stdDeviation="1.25"/>
<feComposite in2="hardAlpha" operator="out"/>
<feColorMatrix type="matrix" values="0 0 0 0 0 0 0 0 0 0 0 0 0 0 0 0 0 0 0.3 0"/>
<feBlend mode="normal" in2="effect1_dropShadow_749_1957" result="effect2_dropShadow_749_1957"/>
<feBlend mode="normal" in="SourceGraphic" in2="effect2_dropShadow_749_1957" result="shape"/>
</filter>
<filter id="filter3_dd_749_1957" x="218.5" y="40" width="194" height="76" filterUnits="userSpaceOnUse" color-interpolation-filters="sRGB">
<feFlood flood-opacity="0" result="BackgroundImageFix"/>
<feColorMatrix in="SourceAlpha" type="matrix" values="0 0 0 0 0 0 0 0 0 0 0 0 0 0 0 0 0 0 127 0" result="hardAlpha"/>
<feMorphology radius="0.5" operator="dilate" in="SourceAlpha" result="effect1_dropShadow_749_1957"/>
<feOffset/>
<feComposite in2="hardAlpha" operator="out"/>
<feColorMatrix type="matrix" values="0 0 0 0 0 0 0 0 0 0 0 0 0 0 0 0 0 0 0.05 0"/>
<feBlend mode="normal" in2="BackgroundImageFix" result="effect1_dropShadow_749_1957"/>
<feColorMatrix in="SourceAlpha" type="matrix" values="0 0 0 0 0 0 0 0 0 0 0 0 0 0 0 0 0 0 127 0" result="hardAlpha"/>
<feOffset dy="0.5"/>
<feGaussianBlur stdDeviation="1.25"/>
<feComposite in2="hardAlpha" operator="out"/>
<feColorMatrix type="matrix" values="0 0 0 0 0 0 0 0 0 0 0 0 0 0 0 0 0 0 0.3 0"/>
<feBlend mode="normal" in2="effect1_dropShadow_749_1957" result="effect2_dropShadow_749_1957"/>
<feBlend mode="normal" in="SourceGraphic" in2="effect2_dropShadow_749_1957" result="shape"/>
</filter>
</defs>
</svg>
