<svg width="162" height="158" viewBox="0 0 162 158" fill="none" xmlns="http://www.w3.org/2000/svg">
<g filter="url(#filter0_dd_409_3636)">
<rect x="3" y="2" width="156" height="153" rx="10" fill="white"/>
</g>
<g filter="url(#filter1_dd_409_3636)">
<rect x="10" y="9" width="23" height="23" rx="7" fill="white"/>
<path d="M15.2715 18.2622C15.2715 18.1479 15.2757 17.9681 15.2842 17.7227C15.2969 17.4772 15.3159 17.217 15.3413 16.9419C15.3709 16.6668 15.4111 16.4256 15.4619 16.2183C15.5212 15.9771 15.6291 15.8141 15.7856 15.7295C15.9422 15.6449 16.1094 15.6258 16.2871 15.6724C16.4648 15.7189 16.6151 15.8141 16.7378 15.958C17.089 16.3558 17.4741 16.6372 17.8931 16.8022C18.312 16.9673 18.7669 17.0498 19.2578 17.0498C19.8376 17.0498 20.3919 17.0011 20.9209 16.9038C21.4541 16.8065 21.981 16.7578 22.5015 16.7578C23.2505 16.7578 23.9403 16.8721 24.5708 17.1006C25.2056 17.3249 25.7536 17.6444 26.2148 18.0591C26.6803 18.4696 27.04 18.9562 27.2939 19.519C27.5521 20.0776 27.6812 20.6912 27.6812 21.3599C27.6812 22.0539 27.5521 22.6908 27.2939 23.2705C27.04 23.8503 26.6803 24.3517 26.2148 24.7749C25.7536 25.1981 25.2056 25.526 24.5708 25.7588C23.936 25.9915 23.2378 26.1079 22.4761 26.1079C21.3843 26.1079 20.3962 25.9238 19.5117 25.5557C18.6273 25.1833 17.8677 24.6522 17.2329 23.9624C16.6024 23.2726 16.1178 22.4474 15.7793 21.4868C15.4408 20.522 15.2715 19.4471 15.2715 18.2622ZM16.23 18.2622C16.23 19.3159 16.3739 20.266 16.6616 21.1123C16.9536 21.9587 17.3726 22.6823 17.9185 23.2832C18.4644 23.8841 19.1203 24.3454 19.8862 24.667C20.6564 24.9886 21.5197 25.1494 22.4761 25.1494C23.314 25.1494 24.0503 24.9886 24.6851 24.667C25.3241 24.3454 25.8234 23.901 26.1831 23.334C26.5428 22.7627 26.7227 22.1047 26.7227 21.3599C26.7227 20.6489 26.5428 20.0205 26.1831 19.4746C25.8234 18.9245 25.3262 18.495 24.6914 18.186C24.0566 17.8729 23.3267 17.7163 22.5015 17.7163C22.2856 17.7163 22.0656 17.729 21.8413 17.7544C21.617 17.7798 21.3779 17.8094 21.124 17.8433C20.8447 17.8813 20.5485 17.9194 20.2354 17.9575C19.9264 17.9914 19.6006 18.0083 19.2578 18.0083C18.7458 18.0083 18.2316 17.9215 17.7153 17.748C17.1991 17.5703 16.7632 17.3185 16.4077 16.9927C16.3442 16.9334 16.3062 16.9461 16.2935 17.0308C16.2638 17.2 16.2448 17.3947 16.2363 17.6147C16.2321 17.8348 16.23 18.0506 16.23 18.2622ZM18.9849 19.7412C18.951 19.6439 18.9574 19.5635 19.0039 19.5C19.0505 19.4365 19.1118 19.4048 19.188 19.4048C19.2642 19.4006 19.3361 19.445 19.4038 19.5381C19.6493 19.8555 19.9264 20.1094 20.2354 20.2998C20.5485 20.4902 20.887 20.6405 21.251 20.7505C21.6191 20.8563 22.0042 20.943 22.4062 21.0107C23.5742 21.2012 24.5348 21.4678 25.2881 21.8105C26.0413 22.1533 26.6317 22.6082 27.0591 23.1753C27.2241 23.3996 27.4019 23.6577 27.5923 23.9497C27.7869 24.2375 27.9689 24.5337 28.1382 24.8384C28.3117 25.1431 28.4513 25.4372 28.5571 25.7207C28.6672 26.0042 28.7222 26.256 28.7222 26.4761C28.7222 26.7384 28.6396 26.9648 28.4746 27.1553C28.3096 27.3457 28.1107 27.4409 27.8779 27.4409C27.7679 27.4409 27.6642 27.4092 27.5669 27.3457C27.4738 27.2865 27.4019 27.1807 27.3511 27.0283C27.2199 26.6094 27.1035 26.2137 27.002 25.8413C26.9004 25.4689 26.7798 25.1177 26.6401 24.7876C26.5047 24.4575 26.3185 24.1465 26.0815 23.8545C25.8657 23.5837 25.6351 23.3509 25.3896 23.1562C25.1484 22.9574 24.8734 22.7839 24.5645 22.6357C24.2598 22.4876 23.9043 22.3501 23.498 22.2231C23.0918 22.0962 22.62 21.9692 22.0825 21.8423C21.5832 21.7196 21.124 21.5736 20.7051 21.4043C20.2861 21.235 19.9264 21.0192 19.626 20.7568C19.3298 20.4902 19.116 20.1517 18.9849 19.7412Z" fill="#03A200"/>
</g>
<path d="M40.9561 26V18.2495H45.8975V19.415H42.3418V21.7085H45.5913V22.8364H42.3418V26H40.9561ZM47.3101 26V20.1294H48.6421V26H47.3101ZM47.9814 19.1465C47.763 19.1465 47.575 19.0695 47.4175 18.9155C47.2599 18.7616 47.1812 18.5771 47.1812 18.3623C47.1812 18.1403 47.2599 17.9541 47.4175 17.8037C47.575 17.6497 47.763 17.5728 47.9814 17.5728C48.1999 17.5728 48.3861 17.6497 48.54 17.8037C48.6976 17.9541 48.7764 18.1403 48.7764 18.3623C48.7764 18.5771 48.6976 18.7616 48.54 18.9155C48.3861 19.0695 48.1999 19.1465 47.9814 19.1465ZM52.8047 26.1182C52.221 26.1182 51.7197 25.9946 51.3008 25.7476C50.8854 25.5005 50.5649 25.1496 50.3394 24.6948C50.1138 24.2401 50.001 23.7012 50.001 23.0781V23.0728C50.001 22.4569 50.112 21.9198 50.334 21.4614C50.5596 21.0031 50.8783 20.6486 51.29 20.3979C51.7018 20.1437 52.1852 20.0166 52.7402 20.0166C53.2988 20.0166 53.7786 20.1401 54.1797 20.3872C54.5843 20.6307 54.8958 20.9727 55.1143 21.4131C55.3327 21.8535 55.4419 22.3691 55.4419 22.96V23.4004H50.6724V22.5034H54.7866L54.1528 23.3413V22.8096C54.1528 22.4193 54.0938 22.0952 53.9756 21.8374C53.8574 21.5796 53.6927 21.3862 53.4814 21.2573C53.2738 21.1284 53.0321 21.064 52.7563 21.064C52.4806 21.064 52.2354 21.132 52.0205 21.2681C51.8092 21.4006 51.641 21.5975 51.5156 21.8589C51.3939 22.1167 51.333 22.4336 51.333 22.8096V23.3467C51.333 23.7083 51.3939 24.0181 51.5156 24.2759C51.6374 24.5301 51.8092 24.7271 52.0312 24.8667C52.2568 25.0028 52.5236 25.0708 52.8315 25.0708C53.0715 25.0708 53.2773 25.0368 53.4492 24.9688C53.6247 24.8971 53.7661 24.813 53.8735 24.7163C53.981 24.616 54.0562 24.5212 54.0991 24.4316L54.1152 24.394H55.3828L55.3721 24.4424C55.3255 24.6322 55.2396 24.8255 55.1143 25.0225C54.9925 25.2158 54.826 25.3966 54.6147 25.5649C54.4071 25.7297 54.1528 25.8639 53.8521 25.9678C53.5513 26.068 53.2021 26.1182 52.8047 26.1182ZM56.833 26V17.8574H58.1704V26H56.833ZM61.9678 26.0967C61.4808 26.0967 61.0565 25.9749 60.6948 25.7314C60.3332 25.4844 60.0539 25.1335 59.8569 24.6787C59.66 24.224 59.5615 23.6886 59.5615 23.0728V23.062C59.5615 22.439 59.6582 21.9019 59.8516 21.4507C60.0485 20.9959 60.326 20.6468 60.6841 20.4033C61.0457 20.1562 61.4736 20.0327 61.9678 20.0327C62.2363 20.0327 62.487 20.0757 62.7197 20.1616C62.9525 20.244 63.1566 20.3621 63.332 20.5161C63.5111 20.6701 63.6507 20.8527 63.751 21.064H63.8477V17.8574H65.1797V26H63.8477V25.0815H63.751C63.6436 25.2928 63.5021 25.4754 63.3267 25.6294C63.1548 25.7798 62.9543 25.8962 62.7251 25.9785C62.4959 26.0573 62.2435 26.0967 61.9678 26.0967ZM62.3867 24.9688C62.6911 24.9688 62.9525 24.8936 63.1709 24.7432C63.3929 24.5892 63.563 24.3708 63.6812 24.0879C63.8029 23.8014 63.8638 23.4631 63.8638 23.0728V23.062C63.8638 22.6681 63.8029 22.3298 63.6812 22.0469C63.563 21.764 63.3929 21.5456 63.1709 21.3916C62.9525 21.2376 62.6911 21.1606 62.3867 21.1606C62.0859 21.1606 61.8245 21.2376 61.6025 21.3916C61.3841 21.542 61.2158 21.7604 61.0977 22.0469C60.9795 22.3298 60.9204 22.6681 60.9204 23.062V23.0728C60.9204 23.4666 60.9795 23.805 61.0977 24.0879C61.2158 24.3708 61.3841 24.5892 61.6025 24.7432C61.821 24.8936 62.0824 24.9688 62.3867 24.9688ZM69.0845 26.1182C68.5868 26.1182 68.1571 26.0483 67.7954 25.9087C67.4373 25.7655 67.1545 25.5685 66.9468 25.3179C66.7391 25.0636 66.6156 24.77 66.5762 24.437V24.4263H67.9028L67.9082 24.437C67.9798 24.6411 68.1141 24.8076 68.311 24.9365C68.508 25.0654 68.7729 25.1299 69.106 25.1299C69.328 25.1299 69.5231 25.0994 69.6914 25.0386C69.8597 24.9741 69.9922 24.8864 70.0889 24.7754C70.1855 24.6644 70.2339 24.5355 70.2339 24.3887V24.3779C70.2339 24.2061 70.1641 24.0628 70.0244 23.9482C69.8848 23.8301 69.6538 23.7352 69.3315 23.6636L68.3809 23.4487C68.0085 23.3664 67.7005 23.2518 67.457 23.105C67.2135 22.9582 67.0309 22.7773 66.9092 22.5625C66.791 22.3477 66.7319 22.097 66.7319 21.8105V21.8052C66.7319 21.4507 66.8304 21.1392 67.0273 20.8706C67.2279 20.6021 67.5054 20.3926 67.8599 20.2422C68.2144 20.0918 68.6226 20.0166 69.0845 20.0166C69.5607 20.0166 69.9707 20.0882 70.3145 20.2314C70.6582 20.3747 70.9268 20.5716 71.1201 20.8223C71.3135 21.0729 71.4245 21.3576 71.4531 21.6763V21.687H70.1963L70.1909 21.6709C70.1408 21.4847 70.0208 21.3271 69.8311 21.1982C69.6449 21.0658 69.3942 20.9995 69.0791 20.9995C68.8822 20.9995 68.7049 21.0299 68.5474 21.0908C68.3934 21.1517 68.2716 21.2376 68.1821 21.3486C68.0962 21.4561 68.0532 21.5832 68.0532 21.73V21.7354C68.0532 21.8499 68.0819 21.9502 68.1392 22.0361C68.2 22.1221 68.2949 22.1973 68.4238 22.2617C68.5527 22.3262 68.7228 22.3835 68.9341 22.4336L69.8848 22.6431C70.4613 22.772 70.8874 22.9635 71.1631 23.2178C71.4388 23.472 71.5767 23.814 71.5767 24.2437V24.2544C71.5767 24.6268 71.4692 24.9526 71.2544 25.2319C71.0396 25.5112 70.7441 25.7297 70.3682 25.8872C69.9922 26.0412 69.5643 26.1182 69.0845 26.1182ZM75.9971 26V18.2495H78.9028C79.6727 18.2495 80.328 18.3999 80.8687 18.7007C81.4129 19.0015 81.8283 19.4383 82.1147 20.0112C82.4048 20.5841 82.5498 21.2752 82.5498 22.0845V22.0952C82.5498 22.9224 82.4066 23.6278 82.1201 24.2114C81.8337 24.7915 81.4183 25.2355 80.874 25.5435C80.3333 25.8478 79.6763 26 78.9028 26H75.9971ZM77.3828 24.8345H78.7202C79.2323 24.8345 79.6691 24.7288 80.0308 24.5176C80.3924 24.3063 80.6663 23.9984 80.8525 23.5938C81.0423 23.1891 81.1372 22.6968 81.1372 22.1167V22.106C81.1372 21.5402 81.0405 21.0568 80.8472 20.6558C80.6574 20.2511 80.3817 19.9432 80.02 19.7319C79.6584 19.5207 79.2251 19.415 78.7202 19.415H77.3828V24.8345ZM86.5137 26.1182C85.93 26.1182 85.4287 25.9946 85.0098 25.7476C84.5944 25.5005 84.2739 25.1496 84.0483 24.6948C83.8228 24.2401 83.71 23.7012 83.71 23.0781V23.0728C83.71 22.4569 83.821 21.9198 84.043 21.4614C84.2686 21.0031 84.5872 20.6486 84.999 20.3979C85.4108 20.1437 85.8942 20.0166 86.4492 20.0166C87.0078 20.0166 87.4876 20.1401 87.8887 20.3872C88.2933 20.6307 88.6048 20.9727 88.8232 21.4131C89.0417 21.8535 89.1509 22.3691 89.1509 22.96V23.4004H84.3813V22.5034H88.4956L87.8618 23.3413V22.8096C87.8618 22.4193 87.8027 22.0952 87.6846 21.8374C87.5664 21.5796 87.4017 21.3862 87.1904 21.2573C86.9827 21.1284 86.741 21.064 86.4653 21.064C86.1896 21.064 85.9443 21.132 85.7295 21.2681C85.5182 21.4006 85.3499 21.5975 85.2246 21.8589C85.1029 22.1167 85.042 22.4336 85.042 22.8096V23.3467C85.042 23.7083 85.1029 24.0181 85.2246 24.2759C85.3464 24.5301 85.5182 24.7271 85.7402 24.8667C85.9658 25.0028 86.2326 25.0708 86.5405 25.0708C86.7804 25.0708 86.9863 25.0368 87.1582 24.9688C87.3337 24.8971 87.4751 24.813 87.5825 24.7163C87.6899 24.616 87.7651 24.5212 87.8081 24.4316L87.8242 24.394H89.0918L89.0811 24.4424C89.0345 24.6322 88.9486 24.8255 88.8232 25.0225C88.7015 25.2158 88.535 25.3966 88.3237 25.5649C88.116 25.7297 87.8618 25.8639 87.561 25.9678C87.2603 26.068 86.9111 26.1182 86.5137 26.1182ZM92.7979 26.0269C92.1247 26.0269 91.6395 25.9033 91.3423 25.6562C91.0451 25.4092 90.8965 25.0046 90.8965 24.4424V21.166H89.9834V20.1294H90.8965V18.6899H92.2554V20.1294H93.4907V21.166H92.2554V24.1255C92.2554 24.4155 92.3162 24.6286 92.438 24.7646C92.5633 24.8971 92.7638 24.9634 93.0396 24.9634C93.1362 24.9634 93.215 24.9616 93.2759 24.958C93.3403 24.9508 93.4119 24.9437 93.4907 24.9365V25.9678C93.3976 25.9857 93.2902 26 93.1685 26.0107C93.0503 26.0215 92.9268 26.0269 92.7979 26.0269ZM96.4287 26.0967C96.0599 26.0967 95.7287 26.0251 95.4351 25.8818C95.145 25.7386 94.9159 25.5363 94.7476 25.2749C94.5828 25.0099 94.5005 24.6984 94.5005 24.3403V24.3296C94.5005 23.9823 94.5864 23.6833 94.7583 23.4326C94.9302 23.1784 95.1826 22.9797 95.5156 22.8364C95.8486 22.6932 96.2533 22.609 96.7295 22.584L98.8994 22.4497V23.3306L96.9175 23.4595C96.5415 23.481 96.264 23.5597 96.085 23.6958C95.9059 23.8319 95.8164 24.0216 95.8164 24.2651V24.2759C95.8164 24.5265 95.9113 24.7217 96.1011 24.8613C96.2944 25.001 96.5397 25.0708 96.8369 25.0708C97.1055 25.0708 97.3454 25.0171 97.5566 24.9097C97.7679 24.8022 97.9344 24.6572 98.0562 24.4746C98.1779 24.2884 98.2388 24.0789 98.2388 23.8462V21.9878C98.2388 21.6942 98.1457 21.4704 97.9595 21.3164C97.7733 21.1589 97.4976 21.0801 97.1323 21.0801C96.828 21.0801 96.5791 21.1338 96.3857 21.2412C96.1924 21.3451 96.0617 21.4937 95.9937 21.687L95.9883 21.7085H94.7261L94.7314 21.6602C94.7744 21.3307 94.9033 21.0425 95.1182 20.7954C95.333 20.5483 95.6177 20.3568 95.9722 20.2207C96.3267 20.0846 96.7349 20.0166 97.1968 20.0166C97.7052 20.0166 98.1349 20.0954 98.4858 20.2529C98.8368 20.4069 99.1035 20.6325 99.2861 20.9297C99.4688 21.2233 99.5601 21.576 99.5601 21.9878V26H98.2388V25.1943H98.1475C98.04 25.3805 97.9004 25.5417 97.7285 25.6777C97.5602 25.8138 97.3669 25.9176 97.1484 25.9893C96.93 26.0609 96.6901 26.0967 96.4287 26.0967ZM101.182 26V20.1294H102.514V26H101.182ZM101.854 19.1465C101.635 19.1465 101.447 19.0695 101.29 18.9155C101.132 18.7616 101.053 18.5771 101.053 18.3623C101.053 18.1403 101.132 17.9541 101.29 17.8037C101.447 17.6497 101.635 17.5728 101.854 17.5728C102.072 17.5728 102.258 17.6497 102.412 17.8037C102.57 17.9541 102.648 18.1403 102.648 18.3623C102.648 18.5771 102.57 18.7616 102.412 18.9155C102.258 19.0695 102.072 19.1465 101.854 19.1465ZM104.217 26V17.8574H105.554V26H104.217ZM109.454 26.1182C108.956 26.1182 108.526 26.0483 108.165 25.9087C107.806 25.7655 107.524 25.5685 107.316 25.3179C107.108 25.0636 106.985 24.77 106.945 24.437V24.4263H108.272L108.277 24.437C108.349 24.6411 108.483 24.8076 108.68 24.9365C108.877 25.0654 109.142 25.1299 109.475 25.1299C109.697 25.1299 109.892 25.0994 110.061 25.0386C110.229 24.9741 110.361 24.8864 110.458 24.7754C110.555 24.6644 110.603 24.5355 110.603 24.3887V24.3779C110.603 24.2061 110.533 24.0628 110.394 23.9482C110.254 23.8301 110.023 23.7352 109.701 23.6636L108.75 23.4487C108.378 23.3664 108.07 23.2518 107.826 23.105C107.583 22.9582 107.4 22.7773 107.278 22.5625C107.16 22.3477 107.101 22.097 107.101 21.8105V21.8052C107.101 21.4507 107.2 21.1392 107.396 20.8706C107.597 20.6021 107.875 20.3926 108.229 20.2422C108.583 20.0918 108.992 20.0166 109.454 20.0166C109.93 20.0166 110.34 20.0882 110.684 20.2314C111.027 20.3747 111.296 20.5716 111.489 20.8223C111.683 21.0729 111.794 21.3576 111.822 21.6763V21.687H110.565L110.56 21.6709C110.51 21.4847 110.39 21.3271 110.2 21.1982C110.014 21.0658 109.763 20.9995 109.448 20.9995C109.251 20.9995 109.074 21.0299 108.917 21.0908C108.763 21.1517 108.641 21.2376 108.551 21.3486C108.465 21.4561 108.422 21.5832 108.422 21.73V21.7354C108.422 21.8499 108.451 21.9502 108.508 22.0361C108.569 22.1221 108.664 22.1973 108.793 22.2617C108.922 22.3262 109.092 22.3835 109.303 22.4336L110.254 22.6431C110.83 22.772 111.257 22.9635 111.532 23.2178C111.808 23.472 111.946 23.814 111.946 24.2437V24.2544C111.946 24.6268 111.838 24.9526 111.624 25.2319C111.409 25.5112 111.113 25.7297 110.737 25.8872C110.361 26.0412 109.933 26.1182 109.454 26.1182Z" fill="black"/>
<path d="M15.8843 53V46.415H13.4995V45.2495H19.6548V46.415H17.27V53H15.8843ZM22.4639 53.1182C21.8802 53.1182 21.3771 52.9964 20.9546 52.7529C20.5321 52.5059 20.2062 52.1549 19.9771 51.7002C19.7515 51.2454 19.6387 50.7012 19.6387 50.0674V50.0566C19.6387 49.43 19.7533 48.8893 19.9824 48.4346C20.2116 47.9762 20.5356 47.6253 20.9546 47.3818C21.3771 47.1383 21.8802 47.0166 22.4639 47.0166C23.0475 47.0166 23.5488 47.1383 23.9678 47.3818C24.3903 47.6253 24.7161 47.9744 24.9453 48.4292C25.1745 48.884 25.2891 49.4264 25.2891 50.0566V50.0674C25.2891 50.7012 25.1745 51.2454 24.9453 51.7002C24.7197 52.1549 24.3957 52.5059 23.9731 52.7529C23.5542 52.9964 23.0511 53.1182 22.4639 53.1182ZM22.4639 52.0332C22.7718 52.0332 23.0332 51.9562 23.248 51.8022C23.4665 51.6447 23.633 51.4209 23.7476 51.1309C23.8621 50.8372 23.9194 50.4845 23.9194 50.0728V50.062C23.9194 49.6466 23.8621 49.2939 23.7476 49.0039C23.633 48.7103 23.4665 48.4865 23.248 48.3325C23.0332 48.175 22.7718 48.0962 22.4639 48.0962C22.1559 48.0962 21.8927 48.175 21.6743 48.3325C21.4559 48.4865 21.2894 48.7103 21.1748 49.0039C21.0602 49.2939 21.0029 49.6466 21.0029 50.062V50.0728C21.0029 50.4845 21.0602 50.8372 21.1748 51.1309C21.2894 51.4245 21.4541 51.6483 21.6689 51.8022C21.8874 51.9562 22.1523 52.0332 22.4639 52.0332ZM26.6318 53V47.1294H27.9692V48.0425H28.0605C28.1859 47.7166 28.3882 47.4642 28.6675 47.2852C28.9504 47.1061 29.2852 47.0166 29.6719 47.0166C29.9368 47.0166 30.175 47.0596 30.3862 47.1455C30.6011 47.2314 30.7855 47.3532 30.9395 47.5107C31.0934 47.6683 31.2116 47.8563 31.2939 48.0747H31.3906C31.4873 47.8634 31.6216 47.679 31.7935 47.5215C31.9689 47.3604 32.173 47.2368 32.4058 47.1509C32.6421 47.0614 32.8963 47.0166 33.1685 47.0166C33.5623 47.0166 33.8989 47.0954 34.1782 47.2529C34.4611 47.4069 34.6777 47.6289 34.8281 47.9189C34.9821 48.209 35.0591 48.5563 35.0591 48.9609V53H33.7217V49.2886C33.7217 49.0308 33.6823 48.8177 33.6035 48.6494C33.5283 48.4811 33.4119 48.354 33.2544 48.2681C33.0968 48.1821 32.8981 48.1392 32.6582 48.1392C32.4255 48.1392 32.2231 48.1929 32.0513 48.3003C31.8794 48.4041 31.7451 48.5456 31.6484 48.7246C31.5553 48.9036 31.5088 49.106 31.5088 49.3315V53H30.1714V49.1919C30.1714 48.9735 30.1284 48.7855 30.0425 48.6279C29.9601 48.4704 29.8384 48.3504 29.6772 48.2681C29.5197 48.1821 29.3317 48.1392 29.1133 48.1392C28.8949 48.1392 28.6979 48.1965 28.5225 48.311C28.3506 48.422 28.2145 48.576 28.1143 48.7729C28.0176 48.9663 27.9692 49.1847 27.9692 49.4282V53H26.6318ZM38.2334 53.0967C37.8646 53.0967 37.5334 53.0251 37.2397 52.8818C36.9497 52.7386 36.7205 52.5363 36.5522 52.2749C36.3875 52.0099 36.3052 51.6984 36.3052 51.3403V51.3296C36.3052 50.9823 36.3911 50.6833 36.563 50.4326C36.7349 50.1784 36.9873 49.9797 37.3203 49.8364C37.6533 49.6932 38.0579 49.609 38.5342 49.584L40.7041 49.4497V50.3306L38.7222 50.4595C38.3462 50.481 38.0687 50.5597 37.8896 50.6958C37.7106 50.8319 37.6211 51.0216 37.6211 51.2651V51.2759C37.6211 51.5265 37.716 51.7217 37.9058 51.8613C38.0991 52.001 38.3444 52.0708 38.6416 52.0708C38.9102 52.0708 39.1501 52.0171 39.3613 51.9097C39.5726 51.8022 39.7391 51.6572 39.8608 51.4746C39.9826 51.2884 40.0435 51.0789 40.0435 50.8462V48.9878C40.0435 48.6942 39.9504 48.4704 39.7642 48.3164C39.578 48.1589 39.3022 48.0801 38.937 48.0801C38.6326 48.0801 38.3838 48.1338 38.1904 48.2412C37.9971 48.3451 37.8664 48.4937 37.7983 48.687L37.793 48.7085H36.5308L36.5361 48.6602C36.5791 48.3307 36.708 48.0425 36.9229 47.7954C37.1377 47.5483 37.4224 47.3568 37.7769 47.2207C38.1313 47.0846 38.5396 47.0166 39.0015 47.0166C39.5099 47.0166 39.9396 47.0954 40.2905 47.2529C40.6414 47.4069 40.9082 47.6325 41.0908 47.9297C41.2734 48.2233 41.3647 48.576 41.3647 48.9878V53H40.0435V52.1943H39.9521C39.8447 52.3805 39.7051 52.5417 39.5332 52.6777C39.3649 52.8138 39.1715 52.9176 38.9531 52.9893C38.7347 53.0609 38.4948 53.0967 38.2334 53.0967ZM45.2803 53.0269C44.6071 53.0269 44.1219 52.9033 43.8247 52.6562C43.5275 52.4092 43.3789 52.0046 43.3789 51.4424V48.166H42.4658V47.1294H43.3789V45.6899H44.7378V47.1294H45.9731V48.166H44.7378V51.1255C44.7378 51.4155 44.7987 51.6286 44.9204 51.7646C45.0457 51.8971 45.2463 51.9634 45.522 51.9634C45.6187 51.9634 45.6974 51.9616 45.7583 51.958C45.8228 51.9508 45.8944 51.9437 45.9731 51.9365V52.9678C45.88 52.9857 45.7726 53 45.6509 53.0107C45.5327 53.0215 45.4092 53.0269 45.2803 53.0269ZM49.792 53.1182C49.2083 53.1182 48.7052 52.9964 48.2827 52.7529C47.8602 52.5059 47.5343 52.1549 47.3052 51.7002C47.0796 51.2454 46.9668 50.7012 46.9668 50.0674V50.0566C46.9668 49.43 47.0814 48.8893 47.3105 48.4346C47.5397 47.9762 47.8638 47.6253 48.2827 47.3818C48.7052 47.1383 49.2083 47.0166 49.792 47.0166C50.3757 47.0166 50.877 47.1383 51.2959 47.3818C51.7184 47.6253 52.0443 47.9744 52.2734 48.4292C52.5026 48.884 52.6172 49.4264 52.6172 50.0566V50.0674C52.6172 50.7012 52.5026 51.2454 52.2734 51.7002C52.0479 52.1549 51.7238 52.5059 51.3013 52.7529C50.8823 52.9964 50.3792 53.1182 49.792 53.1182ZM49.792 52.0332C50.0999 52.0332 50.3613 51.9562 50.5762 51.8022C50.7946 51.6447 50.9611 51.4209 51.0757 51.1309C51.1903 50.8372 51.2476 50.4845 51.2476 50.0728V50.062C51.2476 49.6466 51.1903 49.2939 51.0757 49.0039C50.9611 48.7103 50.7946 48.4865 50.5762 48.3325C50.3613 48.175 50.0999 48.0962 49.792 48.0962C49.484 48.0962 49.2209 48.175 49.0024 48.3325C48.784 48.4865 48.6175 48.7103 48.5029 49.0039C48.3883 49.2939 48.3311 49.6466 48.3311 50.062V50.0728C48.3311 50.4845 48.3883 50.8372 48.5029 51.1309C48.6175 51.4245 48.7822 51.6483 48.9971 51.8022C49.2155 51.9562 49.4805 52.0332 49.792 52.0332Z" fill="black"/>
<path d="M17.1895 71.1934C16.4554 71.1934 15.8216 71.0286 15.2881 70.6992C14.7581 70.3698 14.3481 69.9025 14.0581 69.2974C13.7716 68.6886 13.6284 67.9671 13.6284 67.1328V67.1221C13.6284 66.2842 13.7716 65.5627 14.0581 64.9575C14.3481 64.3488 14.7581 63.8797 15.2881 63.5503C15.818 63.2209 16.45 63.0562 17.1841 63.0562C17.7713 63.0562 18.3013 63.1725 18.7739 63.4053C19.2466 63.6344 19.6315 63.9531 19.9287 64.3613C20.2259 64.766 20.4049 65.2314 20.4658 65.7578L20.4604 65.8008H19.1069L19.1016 65.7739C19.0371 65.4696 18.9154 65.2046 18.7363 64.979C18.5573 64.7498 18.3353 64.5726 18.0703 64.4473C17.8053 64.3184 17.5099 64.2539 17.1841 64.2539C16.7472 64.2539 16.3677 64.3703 16.0454 64.603C15.7231 64.8358 15.4743 65.167 15.2988 65.5967C15.127 66.0228 15.041 66.5295 15.041 67.1167V67.1274C15.041 67.7147 15.127 68.2231 15.2988 68.6528C15.4743 69.0825 15.7231 69.4137 16.0454 69.6465C16.3677 69.8792 16.749 69.9956 17.1895 69.9956C17.5189 69.9956 17.8143 69.9383 18.0757 69.8237C18.3407 69.7091 18.5609 69.548 18.7363 69.3403C18.9154 69.1291 19.0371 68.882 19.1016 68.5991L19.1123 68.5669H20.4658V68.6099C20.3978 69.1255 20.217 69.5767 19.9233 69.9634C19.6297 70.3501 19.2502 70.6527 18.7847 70.8711C18.3192 71.0859 17.7874 71.1934 17.1895 71.1934ZM24.4082 71.1182C23.8245 71.1182 23.3215 70.9964 22.8989 70.7529C22.4764 70.5059 22.1506 70.1549 21.9214 69.7002C21.6958 69.2454 21.583 68.7012 21.583 68.0674V68.0566C21.583 67.43 21.6976 66.8893 21.9268 66.4346C22.1559 65.9762 22.48 65.6253 22.8989 65.3818C23.3215 65.1383 23.8245 65.0166 24.4082 65.0166C24.9919 65.0166 25.4932 65.1383 25.9121 65.3818C26.3346 65.6253 26.6605 65.9744 26.8896 66.4292C27.1188 66.884 27.2334 67.4264 27.2334 68.0566V68.0674C27.2334 68.7012 27.1188 69.2454 26.8896 69.7002C26.6641 70.1549 26.34 70.5059 25.9175 70.7529C25.4985 70.9964 24.9954 71.1182 24.4082 71.1182ZM24.4082 70.0332C24.7161 70.0332 24.9775 69.9562 25.1924 69.8022C25.4108 69.6447 25.5773 69.4209 25.6919 69.1309C25.8065 68.8372 25.8638 68.4845 25.8638 68.0728V68.062C25.8638 67.6466 25.8065 67.2939 25.6919 67.0039C25.5773 66.7103 25.4108 66.4865 25.1924 66.3325C24.9775 66.175 24.7161 66.0962 24.4082 66.0962C24.1003 66.0962 23.8371 66.175 23.6187 66.3325C23.4002 66.4865 23.2337 66.7103 23.1191 67.0039C23.0046 67.2939 22.9473 67.6466 22.9473 68.062V68.0728C22.9473 68.4845 23.0046 68.8372 23.1191 69.1309C23.2337 69.4245 23.3984 69.6483 23.6133 69.8022C23.8317 69.9562 24.0967 70.0332 24.4082 70.0332ZM28.5762 71V65.1294H29.9136V66.0317H30.0049C30.1051 65.7166 30.2842 65.4714 30.542 65.2959C30.8034 65.1204 31.1274 65.0327 31.5142 65.0327C31.6144 65.0327 31.7129 65.0399 31.8096 65.0542C31.9098 65.0649 31.9922 65.0793 32.0566 65.0972V66.2949C31.9492 66.2699 31.84 66.252 31.729 66.2412C31.6216 66.2269 31.5088 66.2197 31.3906 66.2197C31.0934 66.2197 30.8338 66.2752 30.6118 66.3862C30.3898 66.4972 30.2179 66.6566 30.0962 66.8643C29.9744 67.0684 29.9136 67.3101 29.9136 67.5894V71H28.5762ZM33.2168 71V65.1294H34.5542V66.0317H34.6455C34.7852 65.7131 34.9964 65.4642 35.2793 65.2852C35.5622 65.1061 35.9149 65.0166 36.3374 65.0166C36.9927 65.0166 37.494 65.2064 37.8413 65.5859C38.1886 65.9655 38.3623 66.5044 38.3623 67.2026V71H37.0249V67.5142C37.0249 67.0558 36.9282 66.7121 36.7349 66.4829C36.5451 66.2537 36.2479 66.1392 35.8433 66.1392C35.5783 66.1392 35.3491 66.1982 35.1558 66.3164C34.9624 66.4346 34.8138 66.6011 34.71 66.8159C34.6061 67.0308 34.5542 67.285 34.5542 67.5786V71H33.2168Z" fill="black"/>
<path d="M13.3813 89L16.1313 81.2495H17.2808V82.689H16.8672L14.8315 89H13.3813ZM14.7671 86.9966L15.127 85.9277H18.6826L19.0425 86.9966H14.7671ZM18.9941 89L16.9585 82.689V81.2495H17.689L20.4443 89H18.9941ZM21.6367 90.9497V83.1294H22.9741V84.0479H23.0654C23.1729 83.8366 23.3125 83.6558 23.4844 83.5054C23.6598 83.355 23.8621 83.2386 24.0913 83.1562C24.3205 83.0739 24.5729 83.0327 24.8486 83.0327C25.3392 83.0327 25.7635 83.1562 26.1216 83.4033C26.4832 83.6504 26.7625 84.0013 26.9595 84.4561C27.16 84.9072 27.2603 85.4425 27.2603 86.062V86.0728C27.2603 86.6958 27.1618 87.2329 26.9648 87.6841C26.7679 88.1353 26.4886 88.4844 26.127 88.7314C25.7689 88.9749 25.3428 89.0967 24.8486 89.0967C24.5801 89.0967 24.3294 89.0555 24.0967 88.9731C23.8639 88.8872 23.6598 88.7673 23.4844 88.6133C23.3089 88.4593 23.1693 88.2767 23.0654 88.0654H22.9741V90.9497H21.6367ZM24.4297 87.9688C24.734 87.9688 24.9954 87.8936 25.2139 87.7432C25.4323 87.5892 25.6006 87.3708 25.7188 87.0879C25.8369 86.8014 25.896 86.4631 25.896 86.0728V86.062C25.896 85.6646 25.8369 85.3244 25.7188 85.0415C25.6006 84.7586 25.4323 84.542 25.2139 84.3916C24.9954 84.2376 24.734 84.1606 24.4297 84.1606C24.1253 84.1606 23.8621 84.2376 23.6401 84.3916C23.4217 84.542 23.2516 84.7586 23.1299 85.0415C23.0117 85.3244 22.9526 85.6628 22.9526 86.0566V86.0674C22.9526 86.4613 23.0117 86.8014 23.1299 87.0879C23.2516 87.3708 23.4235 87.5892 23.6455 87.7432C23.8675 87.8936 24.1289 87.9688 24.4297 87.9688ZM28.6084 90.9497V83.1294H29.9458V84.0479H30.0371C30.1445 83.8366 30.2842 83.6558 30.4561 83.5054C30.6315 83.355 30.8338 83.2386 31.063 83.1562C31.2922 83.0739 31.5446 83.0327 31.8203 83.0327C32.3109 83.0327 32.7352 83.1562 33.0933 83.4033C33.4549 83.6504 33.7342 84.0013 33.9312 84.4561C34.1317 84.9072 34.2319 85.4425 34.2319 86.062V86.0728C34.2319 86.6958 34.1335 87.2329 33.9365 87.6841C33.7396 88.1353 33.4603 88.4844 33.0986 88.7314C32.7406 88.9749 32.3145 89.0967 31.8203 89.0967C31.5518 89.0967 31.3011 89.0555 31.0684 88.9731C30.8356 88.8872 30.6315 88.7673 30.4561 88.6133C30.2806 88.4593 30.141 88.2767 30.0371 88.0654H29.9458V90.9497H28.6084ZM31.4014 87.9688C31.7057 87.9688 31.9671 87.8936 32.1855 87.7432C32.404 87.5892 32.5723 87.3708 32.6904 87.0879C32.8086 86.8014 32.8677 86.4631 32.8677 86.0728V86.062C32.8677 85.6646 32.8086 85.3244 32.6904 85.0415C32.5723 84.7586 32.404 84.542 32.1855 84.3916C31.9671 84.2376 31.7057 84.1606 31.4014 84.1606C31.097 84.1606 30.8338 84.2376 30.6118 84.3916C30.3934 84.542 30.2233 84.7586 30.1016 85.0415C29.9834 85.3244 29.9243 85.6628 29.9243 86.0566V86.0674C29.9243 86.4613 29.9834 86.8014 30.1016 87.0879C30.2233 87.3708 30.3952 87.5892 30.6172 87.7432C30.8392 87.8936 31.1006 87.9688 31.4014 87.9688ZM35.6338 89V80.8574H36.9712V89H35.6338ZM41.166 89.1182C40.5824 89.1182 40.0811 88.9946 39.6621 88.7476C39.2467 88.5005 38.9263 88.1496 38.7007 87.6948C38.4751 87.2401 38.3623 86.7012 38.3623 86.0781V86.0728C38.3623 85.4569 38.4733 84.9198 38.6953 84.4614C38.9209 84.0031 39.2396 83.6486 39.6514 83.3979C40.0632 83.1437 40.5465 83.0166 41.1016 83.0166C41.6602 83.0166 42.14 83.1401 42.541 83.3872C42.9456 83.6307 43.2572 83.9727 43.4756 84.4131C43.694 84.8535 43.8032 85.3691 43.8032 85.96V86.4004H39.0337V85.5034H43.1479L42.5142 86.3413V85.8096C42.5142 85.4193 42.4551 85.0952 42.3369 84.8374C42.2188 84.5796 42.054 84.3862 41.8428 84.2573C41.6351 84.1284 41.3934 84.064 41.1177 84.064C40.842 84.064 40.5967 84.132 40.3818 84.2681C40.1706 84.4006 40.0023 84.5975 39.877 84.8589C39.7552 85.1167 39.6943 85.4336 39.6943 85.8096V86.3467C39.6943 86.7083 39.7552 87.0181 39.877 87.2759C39.9987 87.5301 40.1706 87.7271 40.3926 87.8667C40.6182 88.0028 40.8849 88.0708 41.1929 88.0708C41.4328 88.0708 41.6387 88.0368 41.8105 87.9688C41.986 87.8971 42.1274 87.813 42.2349 87.7163C42.3423 87.616 42.4175 87.5212 42.4604 87.4316L42.4766 87.394H43.7441L43.7334 87.4424C43.6868 87.6322 43.6009 87.8255 43.4756 88.0225C43.3538 88.2158 43.1873 88.3966 42.9761 88.5649C42.7684 88.7297 42.5142 88.8639 42.2134 88.9678C41.9126 89.068 41.5635 89.1182 41.166 89.1182Z" fill="black"/>
<path d="M17.1895 107.193C16.4554 107.193 15.8216 107.029 15.2881 106.699C14.7581 106.37 14.3481 105.903 14.0581 105.297C13.7716 104.689 13.6284 103.967 13.6284 103.133V103.122C13.6284 102.284 13.7716 101.563 14.0581 100.958C14.3481 100.349 14.7581 99.8797 15.2881 99.5503C15.818 99.2209 16.45 99.0562 17.1841 99.0562C17.7713 99.0562 18.3013 99.1725 18.7739 99.4053C19.2466 99.6344 19.6315 99.9531 19.9287 100.361C20.2259 100.766 20.4049 101.231 20.4658 101.758L20.4604 101.801H19.1069L19.1016 101.774C19.0371 101.47 18.9154 101.205 18.7363 100.979C18.5573 100.75 18.3353 100.573 18.0703 100.447C17.8053 100.318 17.5099 100.254 17.1841 100.254C16.7472 100.254 16.3677 100.37 16.0454 100.603C15.7231 100.836 15.4743 101.167 15.2988 101.597C15.127 102.023 15.041 102.529 15.041 103.117V103.127C15.041 103.715 15.127 104.223 15.2988 104.653C15.4743 105.083 15.7231 105.414 16.0454 105.646C16.3677 105.879 16.749 105.996 17.1895 105.996C17.5189 105.996 17.8143 105.938 18.0757 105.824C18.3407 105.709 18.5609 105.548 18.7363 105.34C18.9154 105.129 19.0371 104.882 19.1016 104.599L19.1123 104.567H20.4658V104.61C20.3978 105.125 20.217 105.577 19.9233 105.963C19.6297 106.35 19.2502 106.653 18.7847 106.871C18.3192 107.086 17.7874 107.193 17.1895 107.193ZM23.4736 107.097C23.1048 107.097 22.7736 107.025 22.48 106.882C22.1899 106.739 21.9608 106.536 21.7925 106.275C21.6278 106.01 21.5454 105.698 21.5454 105.34V105.33C21.5454 104.982 21.6313 104.683 21.8032 104.433C21.9751 104.178 22.2275 103.98 22.5605 103.836C22.8936 103.693 23.2982 103.609 23.7744 103.584L25.9443 103.45V104.331L23.9624 104.459C23.5864 104.481 23.3089 104.56 23.1299 104.696C22.9508 104.832 22.8613 105.022 22.8613 105.265V105.276C22.8613 105.527 22.9562 105.722 23.146 105.861C23.3394 106.001 23.5846 106.071 23.8818 106.071C24.1504 106.071 24.3903 106.017 24.6016 105.91C24.8128 105.802 24.9793 105.657 25.1011 105.475C25.2228 105.288 25.2837 105.079 25.2837 104.846V102.988C25.2837 102.694 25.1906 102.47 25.0044 102.316C24.8182 102.159 24.5425 102.08 24.1772 102.08C23.8729 102.08 23.624 102.134 23.4307 102.241C23.2373 102.345 23.1066 102.494 23.0386 102.687L23.0332 102.708H21.771L21.7764 102.66C21.8193 102.331 21.9482 102.042 22.1631 101.795C22.3779 101.548 22.6626 101.357 23.0171 101.221C23.3716 101.085 23.7798 101.017 24.2417 101.017C24.7502 101.017 25.1799 101.095 25.5308 101.253C25.8817 101.407 26.1484 101.632 26.3311 101.93C26.5137 102.223 26.605 102.576 26.605 102.988V107H25.2837V106.194H25.1924C25.085 106.381 24.9453 106.542 24.7734 106.678C24.6051 106.814 24.4118 106.918 24.1934 106.989C23.9749 107.061 23.735 107.097 23.4736 107.097ZM28.2109 107V101.129H29.5483V102.032H29.6396C29.7399 101.717 29.9189 101.471 30.1768 101.296C30.4382 101.12 30.7622 101.033 31.1489 101.033C31.2492 101.033 31.3477 101.04 31.4443 101.054C31.5446 101.065 31.627 101.079 31.6914 101.097V102.295C31.584 102.27 31.4748 102.252 31.3638 102.241C31.2563 102.227 31.1436 102.22 31.0254 102.22C30.7282 102.22 30.4686 102.275 30.2466 102.386C30.0246 102.497 29.8527 102.657 29.731 102.864C29.6092 103.068 29.5483 103.31 29.5483 103.589V107H28.2109ZM32.8516 107V101.129H34.189V102.032H34.2803C34.3805 101.717 34.5596 101.471 34.8174 101.296C35.0788 101.12 35.4028 101.033 35.7896 101.033C35.8898 101.033 35.9883 101.04 36.085 101.054C36.1852 101.065 36.2676 101.079 36.332 101.097V102.295C36.2246 102.27 36.1154 102.252 36.0044 102.241C35.897 102.227 35.7842 102.22 35.666 102.22C35.3688 102.22 35.1092 102.275 34.8872 102.386C34.6652 102.497 34.4933 102.657 34.3716 102.864C34.2498 103.068 34.189 103.31 34.189 103.589V107H32.8516ZM39.8125 107.118C39.2288 107.118 38.7257 106.996 38.3032 106.753C37.8807 106.506 37.5549 106.155 37.3257 105.7C37.1001 105.245 36.9873 104.701 36.9873 104.067V104.057C36.9873 103.43 37.1019 102.889 37.3311 102.435C37.5602 101.976 37.8843 101.625 38.3032 101.382C38.7257 101.138 39.2288 101.017 39.8125 101.017C40.3962 101.017 40.8975 101.138 41.3164 101.382C41.7389 101.625 42.0648 101.974 42.2939 102.429C42.5231 102.884 42.6377 103.426 42.6377 104.057V104.067C42.6377 104.701 42.5231 105.245 42.2939 105.7C42.0684 106.155 41.7443 106.506 41.3218 106.753C40.9028 106.996 40.3997 107.118 39.8125 107.118ZM39.8125 106.033C40.1204 106.033 40.3818 105.956 40.5967 105.802C40.8151 105.645 40.9816 105.421 41.0962 105.131C41.2108 104.837 41.2681 104.485 41.2681 104.073V104.062C41.2681 103.647 41.2108 103.294 41.0962 103.004C40.9816 102.71 40.8151 102.486 40.5967 102.333C40.3818 102.175 40.1204 102.096 39.8125 102.096C39.5046 102.096 39.2414 102.175 39.0229 102.333C38.8045 102.486 38.638 102.71 38.5234 103.004C38.4089 103.294 38.3516 103.647 38.3516 104.062V104.073C38.3516 104.485 38.4089 104.837 38.5234 105.131C38.638 105.424 38.8027 105.648 39.0176 105.802C39.236 105.956 39.501 106.033 39.8125 106.033ZM46.29 107.027C45.6169 107.027 45.1317 106.903 44.8345 106.656C44.5373 106.409 44.3887 106.005 44.3887 105.442V102.166H43.4756V101.129H44.3887V99.6899H45.7476V101.129H46.9829V102.166H45.7476V105.125C45.7476 105.416 45.8084 105.629 45.9302 105.765C46.0555 105.897 46.256 105.963 46.5317 105.963C46.6284 105.963 46.7072 105.962 46.7681 105.958C46.8325 105.951 46.9041 105.944 46.9829 105.937V106.968C46.8898 106.986 46.7824 107 46.6606 107.011C46.5425 107.021 46.4189 107.027 46.29 107.027Z" fill="black"/>
<path d="M17.2969 125.193C16.5378 125.193 15.8843 125.029 15.3364 124.699C14.7922 124.366 14.3714 123.895 14.0742 123.287C13.777 122.678 13.6284 121.958 13.6284 121.127V121.117C13.6284 120.282 13.777 119.563 14.0742 118.958C14.375 118.349 14.7993 117.88 15.3472 117.55C15.8986 117.221 16.5485 117.056 17.2969 117.056C18.0488 117.056 18.6987 117.221 19.2466 117.55C19.7944 117.88 20.217 118.349 20.5142 118.958C20.8114 119.566 20.96 120.286 20.96 121.117V121.127C20.96 121.958 20.8114 122.678 20.5142 123.287C20.2205 123.895 19.7998 124.366 19.252 124.699C18.7041 125.029 18.0524 125.193 17.2969 125.193ZM17.2969 123.996C17.7588 123.996 18.158 123.877 18.4946 123.641C18.8312 123.405 19.0908 123.072 19.2734 122.642C19.4596 122.212 19.5527 121.708 19.5527 121.127V121.117C19.5527 120.533 19.4596 120.028 19.2734 119.602C19.0908 119.172 18.8312 118.841 18.4946 118.608C18.158 118.372 17.7588 118.254 17.2969 118.254C16.8385 118.254 16.4393 118.372 16.0991 118.608C15.7625 118.841 15.5011 119.172 15.3149 119.602C15.1323 120.028 15.041 120.533 15.041 121.117V121.127C15.041 121.708 15.1305 122.212 15.3096 122.642C15.4922 123.072 15.7518 123.405 16.0884 123.641C16.4285 123.877 16.8314 123.996 17.2969 123.996ZM22.4102 125V119.129H23.7476V120.032H23.8389C23.9391 119.717 24.1182 119.471 24.376 119.296C24.6374 119.12 24.9614 119.033 25.3481 119.033C25.4484 119.033 25.5469 119.04 25.6436 119.054C25.7438 119.065 25.8262 119.079 25.8906 119.097V120.295C25.7832 120.27 25.674 120.252 25.563 120.241C25.4556 120.227 25.3428 120.22 25.2246 120.22C24.9274 120.22 24.6678 120.275 24.4458 120.386C24.2238 120.497 24.0519 120.657 23.9302 120.864C23.8084 121.068 23.7476 121.31 23.7476 121.589V125H22.4102ZM28.5117 125.097C28.1429 125.097 27.8117 125.025 27.5181 124.882C27.228 124.739 26.9989 124.536 26.8306 124.275C26.6659 124.01 26.5835 123.698 26.5835 123.34V123.33C26.5835 122.982 26.6694 122.683 26.8413 122.433C27.0132 122.178 27.2656 121.98 27.5986 121.836C27.9316 121.693 28.3363 121.609 28.8125 121.584L30.9824 121.45V122.331L29.0005 122.459C28.6245 122.481 28.347 122.56 28.168 122.696C27.9889 122.832 27.8994 123.022 27.8994 123.265V123.276C27.8994 123.527 27.9943 123.722 28.1841 123.861C28.3774 124.001 28.6227 124.071 28.9199 124.071C29.1885 124.071 29.4284 124.017 29.6396 123.91C29.8509 123.802 30.0174 123.657 30.1392 123.475C30.2609 123.288 30.3218 123.079 30.3218 122.846V120.988C30.3218 120.694 30.2287 120.47 30.0425 120.316C29.8563 120.159 29.5806 120.08 29.2153 120.08C28.911 120.08 28.6621 120.134 28.4688 120.241C28.2754 120.345 28.1447 120.494 28.0767 120.687L28.0713 120.708H26.8091L26.8145 120.66C26.8574 120.331 26.9863 120.042 27.2012 119.795C27.416 119.548 27.7007 119.357 28.0552 119.221C28.4097 119.085 28.8179 119.017 29.2798 119.017C29.7882 119.017 30.2179 119.095 30.5688 119.253C30.9198 119.407 31.1865 119.632 31.3691 119.93C31.5518 120.223 31.6431 120.576 31.6431 120.988V125H30.3218V124.194H30.2305C30.123 124.381 29.9834 124.542 29.8115 124.678C29.6432 124.814 29.4499 124.918 29.2314 124.989C29.013 125.061 28.7731 125.097 28.5117 125.097ZM33.249 125V119.129H34.5864V120.032H34.6777C34.8174 119.713 35.0286 119.464 35.3115 119.285C35.5944 119.106 35.9471 119.017 36.3696 119.017C37.0249 119.017 37.5262 119.206 37.8735 119.586C38.2209 119.965 38.3945 120.504 38.3945 121.203V125H37.0571V121.514C37.0571 121.056 36.9604 120.712 36.7671 120.483C36.5773 120.254 36.2801 120.139 35.8755 120.139C35.6105 120.139 35.3813 120.198 35.188 120.316C34.9946 120.435 34.846 120.601 34.7422 120.816C34.6383 121.031 34.5864 121.285 34.5864 121.579V125H33.249ZM42.498 127.062C41.9824 127.062 41.5366 126.994 41.1606 126.858C40.7882 126.722 40.4946 126.529 40.2798 126.278C40.0649 126.031 39.9342 125.743 39.8877 125.414L39.8931 125.397H41.2251L41.2358 125.414C41.2788 125.6 41.4095 125.752 41.6279 125.87C41.8499 125.992 42.1471 126.053 42.5195 126.053C42.9779 126.053 43.3324 125.951 43.583 125.747C43.8372 125.542 43.9644 125.252 43.9644 124.876V123.749H43.873C43.762 123.96 43.617 124.139 43.438 124.286C43.2625 124.432 43.0602 124.543 42.8311 124.619C42.6055 124.69 42.3566 124.726 42.0845 124.726C41.5903 124.726 41.1624 124.608 40.8008 124.372C40.4391 124.132 40.1598 123.8 39.9629 123.378C39.7695 122.955 39.6729 122.467 39.6729 121.912V121.901C39.6729 121.335 39.7713 120.837 39.9683 120.408C40.1652 119.978 40.4445 119.641 40.8062 119.398C41.1714 119.154 41.6064 119.033 42.1113 119.033C42.3835 119.033 42.6323 119.076 42.8579 119.162C43.0871 119.248 43.2876 119.369 43.4595 119.527C43.6349 119.684 43.7782 119.874 43.8892 120.096H43.959V119.129H45.2964V124.855C45.2964 125.306 45.1818 125.696 44.9526 126.026C44.7271 126.359 44.4048 126.615 43.9858 126.794C43.5669 126.973 43.071 127.062 42.498 127.062ZM42.498 123.663C42.806 123.663 43.071 123.589 43.293 123.442C43.515 123.292 43.6851 123.086 43.8032 122.825C43.925 122.563 43.9858 122.259 43.9858 121.912V121.901C43.9858 121.554 43.925 121.249 43.8032 120.988C43.6851 120.723 43.515 120.517 43.293 120.37C43.071 120.22 42.806 120.145 42.498 120.145C42.1865 120.145 41.9215 120.22 41.7031 120.37C41.4883 120.517 41.3236 120.723 41.209 120.988C41.098 121.249 41.0425 121.554 41.0425 121.901V121.912C41.0425 122.255 41.098 122.56 41.209 122.825C41.3236 123.086 41.4883 123.292 41.7031 123.442C41.9215 123.589 42.1865 123.663 42.498 123.663ZM49.4482 125.118C48.8646 125.118 48.3633 124.995 47.9443 124.748C47.529 124.5 47.2085 124.15 46.9829 123.695C46.7573 123.24 46.6445 122.701 46.6445 122.078V122.073C46.6445 121.457 46.7555 120.92 46.9775 120.461C47.2031 120.003 47.5218 119.649 47.9336 119.398C48.3454 119.144 48.8288 119.017 49.3838 119.017C49.9424 119.017 50.4222 119.14 50.8232 119.387C51.2279 119.631 51.5394 119.973 51.7578 120.413C51.9762 120.854 52.0854 121.369 52.0854 121.96V122.4H47.3159V121.503H51.4302L50.7964 122.341V121.81C50.7964 121.419 50.7373 121.095 50.6191 120.837C50.501 120.58 50.3363 120.386 50.125 120.257C49.9173 120.128 49.6756 120.064 49.3999 120.064C49.1242 120.064 48.8789 120.132 48.6641 120.268C48.4528 120.401 48.2845 120.597 48.1592 120.859C48.0374 121.117 47.9766 121.434 47.9766 121.81V122.347C47.9766 122.708 48.0374 123.018 48.1592 123.276C48.2809 123.53 48.4528 123.727 48.6748 123.867C48.9004 124.003 49.1672 124.071 49.4751 124.071C49.715 124.071 49.9209 124.037 50.0928 123.969C50.2682 123.897 50.4097 123.813 50.5171 123.716C50.6245 123.616 50.6997 123.521 50.7427 123.432L50.7588 123.394H52.0264L52.0156 123.442C51.9691 123.632 51.8831 123.826 51.7578 124.022C51.6361 124.216 51.4696 124.397 51.2583 124.565C51.0506 124.73 50.7964 124.864 50.4956 124.968C50.1948 125.068 49.8457 125.118 49.4482 125.118Z" fill="black"/>
<path d="M13.9561 143V135.25H15.5459L17.877 141.217H17.9683L20.2939 135.25H21.8838V143H20.6377V137.489H19.9609L21.3359 135.464L18.3926 143H17.4473L14.5093 135.464L15.8843 137.489H15.2021V143H13.9561ZM25.2568 143.097C24.888 143.097 24.5568 143.025 24.2632 142.882C23.9731 142.739 23.744 142.536 23.5757 142.275C23.411 142.01 23.3286 141.698 23.3286 141.34V141.33C23.3286 140.982 23.4146 140.683 23.5864 140.433C23.7583 140.178 24.0107 139.98 24.3438 139.836C24.6768 139.693 25.0814 139.609 25.5576 139.584L27.7275 139.45V140.331L25.7456 140.459C25.3696 140.481 25.0921 140.56 24.9131 140.696C24.734 140.832 24.6445 141.022 24.6445 141.265V141.276C24.6445 141.527 24.7394 141.722 24.9292 141.861C25.1226 142.001 25.3678 142.071 25.665 142.071C25.9336 142.071 26.1735 142.017 26.3848 141.91C26.596 141.802 26.7625 141.657 26.8843 141.475C27.006 141.288 27.0669 141.079 27.0669 140.846V138.988C27.0669 138.694 26.9738 138.47 26.7876 138.316C26.6014 138.159 26.3257 138.08 25.9604 138.08C25.6561 138.08 25.4072 138.134 25.2139 138.241C25.0205 138.345 24.8898 138.494 24.8218 138.687L24.8164 138.708H23.5542L23.5596 138.66C23.6025 138.331 23.7314 138.042 23.9463 137.795C24.1611 137.548 24.4458 137.357 24.8003 137.221C25.1548 137.085 25.563 137.017 26.0249 137.017C26.5334 137.017 26.9631 137.095 27.314 137.253C27.6649 137.407 27.9316 137.632 28.1143 137.93C28.2969 138.223 28.3882 138.576 28.3882 138.988V143H27.0669V142.194H26.9756C26.8682 142.381 26.7285 142.542 26.5566 142.678C26.3883 142.814 26.195 142.918 25.9766 142.989C25.7581 143.061 25.5182 143.097 25.2568 143.097ZM29.9941 143V137.129H31.3315V138.032H31.4229C31.5625 137.713 31.7738 137.464 32.0566 137.285C32.3395 137.106 32.6922 137.017 33.1147 137.017C33.77 137.017 34.2713 137.206 34.6187 137.586C34.966 137.965 35.1396 138.504 35.1396 139.203V143H33.8022V139.514C33.8022 139.056 33.7056 138.712 33.5122 138.483C33.3224 138.254 33.0252 138.139 32.6206 138.139C32.3556 138.139 32.1265 138.198 31.9331 138.316C31.7397 138.435 31.5911 138.601 31.4873 138.816C31.3835 139.031 31.3315 139.285 31.3315 139.579V143H29.9941ZM39.2432 145.062C38.7275 145.062 38.2817 144.994 37.9058 144.858C37.5334 144.722 37.2397 144.529 37.0249 144.278C36.8101 144.031 36.6794 143.743 36.6328 143.414L36.6382 143.397H37.9702L37.981 143.414C38.0239 143.6 38.1546 143.752 38.373 143.87C38.5951 143.992 38.8923 144.053 39.2646 144.053C39.723 144.053 40.0775 143.951 40.3281 143.747C40.5824 143.542 40.7095 143.252 40.7095 142.876V141.749H40.6182C40.5072 141.96 40.3621 142.139 40.1831 142.286C40.0076 142.432 39.8053 142.543 39.5762 142.619C39.3506 142.69 39.1017 142.726 38.8296 142.726C38.3354 142.726 37.9076 142.608 37.5459 142.372C37.1842 142.132 36.9049 141.8 36.708 141.378C36.5146 140.955 36.418 140.467 36.418 139.912V139.901C36.418 139.335 36.5164 138.837 36.7134 138.408C36.9103 137.978 37.1896 137.641 37.5513 137.398C37.9165 137.154 38.3516 137.033 38.8564 137.033C39.1286 137.033 39.3774 137.076 39.603 137.162C39.8322 137.248 40.0327 137.369 40.2046 137.527C40.38 137.684 40.5233 137.874 40.6343 138.096H40.7041V137.129H42.0415V142.855C42.0415 143.306 41.9269 143.696 41.6978 144.026C41.4722 144.359 41.1499 144.615 40.731 144.794C40.312 144.973 39.8161 145.062 39.2432 145.062ZM39.2432 141.663C39.5511 141.663 39.8161 141.589 40.0381 141.442C40.2601 141.292 40.4302 141.086 40.5483 140.825C40.6701 140.563 40.731 140.259 40.731 139.912V139.901C40.731 139.554 40.6701 139.249 40.5483 138.988C40.4302 138.723 40.2601 138.517 40.0381 138.37C39.8161 138.22 39.5511 138.145 39.2432 138.145C38.9316 138.145 38.6667 138.22 38.4482 138.37C38.2334 138.517 38.0687 138.723 37.9541 138.988C37.8431 139.249 37.7876 139.554 37.7876 139.901V139.912C37.7876 140.255 37.8431 140.56 37.9541 140.825C38.0687 141.086 38.2334 141.292 38.4482 141.442C38.6667 141.589 38.9316 141.663 39.2432 141.663ZM46.2148 143.118C45.6312 143.118 45.1281 142.996 44.7056 142.753C44.283 142.506 43.9572 142.155 43.728 141.7C43.5024 141.245 43.3896 140.701 43.3896 140.067V140.057C43.3896 139.43 43.5042 138.889 43.7334 138.435C43.9626 137.976 44.2866 137.625 44.7056 137.382C45.1281 137.138 45.6312 137.017 46.2148 137.017C46.7985 137.017 47.2998 137.138 47.7188 137.382C48.1413 137.625 48.4671 137.974 48.6963 138.429C48.9255 138.884 49.04 139.426 49.04 140.057V140.067C49.04 140.701 48.9255 141.245 48.6963 141.7C48.4707 142.155 48.1466 142.506 47.7241 142.753C47.3052 142.996 46.8021 143.118 46.2148 143.118ZM46.2148 142.033C46.5228 142.033 46.7842 141.956 46.999 141.802C47.2174 141.645 47.384 141.421 47.4985 141.131C47.6131 140.837 47.6704 140.485 47.6704 140.073V140.062C47.6704 139.647 47.6131 139.294 47.4985 139.004C47.384 138.71 47.2174 138.486 46.999 138.333C46.7842 138.175 46.5228 138.096 46.2148 138.096C45.9069 138.096 45.6437 138.175 45.4253 138.333C45.2069 138.486 45.0404 138.71 44.9258 139.004C44.8112 139.294 44.7539 139.647 44.7539 140.062V140.073C44.7539 140.485 44.8112 140.837 44.9258 141.131C45.0404 141.424 45.2051 141.648 45.4199 141.802C45.6383 141.956 45.9033 142.033 46.2148 142.033Z" fill="black"/>
<path d="M106.51 52V45.9307H106.432L104.64 47.2295V46.3018L106.515 44.9541H107.389V52H106.51ZM109.879 52.0488C109.706 52.0488 109.557 51.987 109.43 51.8633C109.306 51.7363 109.244 51.5866 109.244 51.4141C109.244 51.2383 109.306 51.0885 109.43 50.9648C109.557 50.8411 109.706 50.7793 109.879 50.7793C110.055 50.7793 110.204 50.8411 110.328 50.9648C110.452 51.0885 110.514 51.2383 110.514 51.4141C110.514 51.5866 110.452 51.7363 110.328 51.8633C110.204 51.987 110.055 52.0488 109.879 52.0488ZM114.142 52.166C113.705 52.166 113.316 52.0798 112.975 51.9072C112.633 51.7347 112.358 51.5003 112.149 51.2041C111.944 50.9046 111.824 50.5677 111.788 50.1934L111.783 50.1396H112.628L112.633 50.1787C112.662 50.4033 112.743 50.6084 112.877 50.7939C113.014 50.9762 113.191 51.1211 113.409 51.2285C113.631 51.3359 113.878 51.3896 114.151 51.3896C114.464 51.3896 114.739 51.3213 114.977 51.1846C115.214 51.0446 115.4 50.8525 115.533 50.6084C115.667 50.3643 115.733 50.0843 115.733 49.7686V49.7588C115.733 49.4463 115.665 49.1696 115.528 48.9287C115.395 48.6846 115.211 48.4941 114.977 48.3574C114.742 48.2207 114.472 48.1523 114.166 48.1523C113.932 48.1523 113.715 48.1882 113.517 48.2598C113.321 48.3314 113.147 48.4388 112.994 48.582C112.932 48.6406 112.874 48.7041 112.818 48.7725C112.766 48.8408 112.717 48.9173 112.672 49.002H111.91L112.281 44.9541H116.202V45.7402H112.975L112.735 48.123H112.813C112.918 47.9635 113.046 47.8301 113.199 47.7227C113.352 47.6152 113.523 47.5339 113.712 47.4785C113.904 47.4199 114.106 47.3906 114.317 47.3906C114.76 47.3906 115.152 47.4932 115.494 47.6982C115.836 47.9001 116.104 48.1784 116.3 48.5332C116.495 48.8848 116.593 49.2884 116.593 49.7441V49.7539C116.593 50.2259 116.487 50.6442 116.275 51.0088C116.067 51.3701 115.779 51.6533 115.411 51.8584C115.043 52.0635 114.62 52.166 114.142 52.166ZM122.271 52.0928C121.939 52.0928 121.64 52.0293 121.373 51.9023C121.109 51.7754 120.899 51.5947 120.743 51.3604C120.59 51.126 120.514 50.8493 120.514 50.5303V50.5205C120.514 50.208 120.589 49.9411 120.738 49.7197C120.888 49.4951 121.106 49.3193 121.393 49.1924C121.679 49.0654 122.026 48.9906 122.433 48.9678L124.366 48.8506V49.5293L122.535 49.6465C122.135 49.6693 121.842 49.7523 121.656 49.8955C121.474 50.0387 121.383 50.2406 121.383 50.501V50.5107C121.383 50.7777 121.484 50.986 121.686 51.1357C121.887 51.2822 122.141 51.3555 122.447 51.3555C122.737 51.3555 122.994 51.2985 123.219 51.1846C123.443 51.0674 123.619 50.9095 123.746 50.7109C123.876 50.5124 123.941 50.2878 123.941 50.0371V48.3965C123.941 48.071 123.842 47.8236 123.644 47.6543C123.448 47.4818 123.154 47.3955 122.76 47.3955C122.444 47.3955 122.185 47.4525 121.983 47.5664C121.782 47.6771 121.646 47.835 121.578 48.04L121.573 48.0547H120.724L120.729 48.0254C120.774 47.7487 120.888 47.5078 121.07 47.3027C121.256 47.0944 121.495 46.9333 121.788 46.8193C122.081 46.7021 122.415 46.6436 122.789 46.6436C123.219 46.6436 123.582 46.7135 123.878 46.8535C124.177 46.9935 124.404 47.1953 124.557 47.459C124.713 47.7194 124.791 48.0319 124.791 48.3965V52H123.941V51.2236H123.863C123.753 51.4092 123.618 51.5671 123.458 51.6973C123.302 51.8275 123.124 51.9268 122.926 51.9951C122.727 52.0602 122.509 52.0928 122.271 52.0928ZM128.497 52.0928C128.006 52.0928 127.579 51.9805 127.218 51.7559C126.856 51.5312 126.576 51.2139 126.378 50.8037C126.179 50.3936 126.08 49.9102 126.08 49.3535V49.3438C126.08 48.7969 126.178 48.3216 126.373 47.918C126.572 47.5143 126.852 47.2018 127.213 46.9805C127.574 46.7559 128.001 46.6436 128.492 46.6436C128.919 46.6436 129.286 46.7184 129.596 46.8682C129.905 47.0179 130.152 47.2197 130.338 47.4736C130.523 47.7243 130.642 48.0059 130.694 48.3184L130.699 48.3477H129.854L129.85 48.333C129.785 48.0726 129.636 47.8512 129.405 47.6689C129.174 47.4867 128.87 47.3955 128.492 47.3955C128.176 47.3955 127.903 47.4753 127.672 47.6348C127.441 47.7943 127.262 48.0205 127.135 48.3135C127.011 48.6032 126.949 48.9466 126.949 49.3438V49.3535C126.949 49.7572 127.013 50.1087 127.14 50.4082C127.267 50.7044 127.446 50.9339 127.677 51.0967C127.908 51.2594 128.18 51.3408 128.492 51.3408C128.847 51.3408 129.137 51.2643 129.361 51.1113C129.586 50.9583 129.747 50.7354 129.845 50.4424L129.854 50.4131L130.694 50.4082L130.685 50.4619C130.613 50.7777 130.486 51.0592 130.304 51.3066C130.121 51.5508 129.881 51.7428 129.581 51.8828C129.282 52.0228 128.92 52.0928 128.497 52.0928ZM131.939 52V46.7363H132.789V47.5176H132.867C132.968 47.2409 133.139 47.026 133.38 46.873C133.621 46.7201 133.919 46.6436 134.273 46.6436C134.355 46.6436 134.435 46.6484 134.513 46.6582C134.594 46.6647 134.656 46.6712 134.698 46.6777V47.5029C134.61 47.4867 134.524 47.4753 134.439 47.4688C134.358 47.459 134.27 47.4541 134.176 47.4541C133.906 47.4541 133.666 47.5078 133.458 47.6152C133.25 47.7227 133.085 47.8724 132.965 48.0645C132.848 48.2565 132.789 48.4811 132.789 48.7383V52H131.939ZM137.75 52.0928C137.249 52.0928 136.817 51.9821 136.456 51.7607C136.098 51.5394 135.821 51.2269 135.626 50.8232C135.434 50.4163 135.338 49.9378 135.338 49.3877V49.3828C135.338 48.8392 135.434 48.3623 135.626 47.9521C135.821 47.542 136.096 47.2214 136.451 46.9902C136.806 46.7591 137.221 46.6436 137.696 46.6436C138.175 46.6436 138.585 46.7542 138.927 46.9756C139.272 47.1969 139.535 47.5062 139.718 47.9033C139.903 48.2972 139.996 48.7562 139.996 49.2803V49.6123H135.777V48.9336H139.562L139.142 49.5537V49.2168C139.142 48.8034 139.08 48.4632 138.956 48.1963C138.832 47.9294 138.661 47.7308 138.443 47.6006C138.225 47.4671 137.975 47.4004 137.691 47.4004C137.408 47.4004 137.154 47.4704 136.93 47.6104C136.708 47.7471 136.533 47.9505 136.402 48.2207C136.272 48.4909 136.207 48.8229 136.207 49.2168V49.5537C136.207 49.9281 136.271 50.2487 136.397 50.5156C136.524 50.7793 136.705 50.9827 136.939 51.126C137.174 51.266 137.451 51.3359 137.77 51.3359C138.007 51.3359 138.214 51.3034 138.39 51.2383C138.565 51.1732 138.71 51.0902 138.824 50.9893C138.938 50.8883 139.018 50.7858 139.063 50.6816L139.083 50.6377H139.933L139.923 50.6768C139.877 50.8558 139.796 51.0299 139.679 51.1992C139.565 51.3652 139.417 51.5166 139.234 51.6533C139.052 51.7868 138.836 51.8942 138.585 51.9756C138.338 52.0537 138.059 52.0928 137.75 52.0928Z" fill="black"/>
<path d="M111.786 70V69.3945L114.169 66.8164C114.468 66.4909 114.703 66.2223 114.872 66.0107C115.041 65.7959 115.16 65.6022 115.229 65.4297C115.297 65.2572 115.331 65.0684 115.331 64.8633V64.8535C115.331 64.6061 115.277 64.3848 115.17 64.1895C115.062 63.9941 114.91 63.8395 114.711 63.7256C114.512 63.6117 114.275 63.5547 113.998 63.5547C113.718 63.5547 113.472 63.6133 113.261 63.7305C113.049 63.8444 112.885 64.0055 112.768 64.2139C112.65 64.4189 112.592 64.6598 112.592 64.9365L112.587 64.9463L111.747 64.9414L111.737 64.9365C111.741 64.5199 111.841 64.1504 112.04 63.8281C112.239 63.5026 112.512 63.2487 112.86 63.0664C113.209 62.8809 113.607 62.7881 114.057 62.7881C114.467 62.7881 114.836 62.8743 115.165 63.0469C115.494 63.2161 115.753 63.4489 115.941 63.7451C116.133 64.0413 116.229 64.3799 116.229 64.7607V64.7705C116.229 65.0374 116.182 65.2946 116.088 65.542C115.997 65.7894 115.834 66.0645 115.6 66.3672C115.365 66.6667 115.035 67.0361 114.608 67.4756L112.787 69.3555L113.007 68.9502V69.3555L112.792 69.209H116.347V70H111.786ZM122.084 70.0928C121.752 70.0928 121.452 70.0293 121.186 69.9023C120.922 69.7754 120.712 69.5947 120.556 69.3604C120.403 69.126 120.326 68.8493 120.326 68.5303V68.5205C120.326 68.208 120.401 67.9411 120.551 67.7197C120.701 67.4951 120.919 67.3193 121.205 67.1924C121.492 67.0654 121.838 66.9906 122.245 66.9678L124.179 66.8506V67.5293L122.348 67.6465C121.947 67.6693 121.654 67.7523 121.469 67.8955C121.286 68.0387 121.195 68.2406 121.195 68.501V68.5107C121.195 68.7777 121.296 68.986 121.498 69.1357C121.7 69.2822 121.954 69.3555 122.26 69.3555C122.549 69.3555 122.807 69.2985 123.031 69.1846C123.256 69.0674 123.432 68.9095 123.559 68.7109C123.689 68.5124 123.754 68.2878 123.754 68.0371V66.3965C123.754 66.071 123.655 65.8236 123.456 65.6543C123.261 65.4818 122.966 65.3955 122.572 65.3955C122.257 65.3955 121.998 65.4525 121.796 65.5664C121.594 65.6771 121.459 65.835 121.391 66.04L121.386 66.0547H120.536L120.541 66.0254C120.587 65.7487 120.701 65.5078 120.883 65.3027C121.068 65.0944 121.308 64.9333 121.601 64.8193C121.894 64.7021 122.227 64.6436 122.602 64.6436C123.031 64.6436 123.394 64.7135 123.69 64.8535C123.99 64.9935 124.216 65.1953 124.369 65.459C124.525 65.7194 124.604 66.0319 124.604 66.3965V70H123.754V69.2236H123.676C123.565 69.4092 123.43 69.5671 123.271 69.6973C123.114 69.8275 122.937 69.9268 122.738 69.9951C122.54 70.0602 122.322 70.0928 122.084 70.0928ZM128.31 70.0928C127.818 70.0928 127.392 69.9805 127.03 69.7559C126.669 69.5312 126.389 69.2139 126.19 68.8037C125.992 68.3936 125.893 67.9102 125.893 67.3535V67.3438C125.893 66.7969 125.99 66.3216 126.186 65.918C126.384 65.5143 126.664 65.2018 127.025 64.9805C127.387 64.7559 127.813 64.6436 128.305 64.6436C128.731 64.6436 129.099 64.7184 129.408 64.8682C129.717 65.0179 129.965 65.2197 130.15 65.4736C130.336 65.7243 130.455 66.0059 130.507 66.3184L130.512 66.3477H129.667L129.662 66.333C129.597 66.0726 129.449 65.8512 129.218 65.6689C128.987 65.4867 128.682 65.3955 128.305 65.3955C127.989 65.3955 127.715 65.4753 127.484 65.6348C127.253 65.7943 127.074 66.0205 126.947 66.3135C126.824 66.6032 126.762 66.9466 126.762 67.3438V67.3535C126.762 67.7572 126.825 68.1087 126.952 68.4082C127.079 68.7044 127.258 68.9339 127.489 69.0967C127.72 69.2594 127.992 69.3408 128.305 69.3408C128.66 69.3408 128.949 69.2643 129.174 69.1113C129.398 68.9583 129.56 68.7354 129.657 68.4424L129.667 68.4131L130.507 68.4082L130.497 68.4619C130.425 68.7777 130.299 69.0592 130.116 69.3066C129.934 69.5508 129.693 69.7428 129.394 69.8828C129.094 70.0228 128.733 70.0928 128.31 70.0928ZM131.752 70V64.7363H132.602V65.5176H132.68C132.781 65.2409 132.951 65.026 133.192 64.873C133.433 64.7201 133.731 64.6436 134.086 64.6436C134.167 64.6436 134.247 64.6484 134.325 64.6582C134.407 64.6647 134.468 64.6712 134.511 64.6777V65.5029C134.423 65.4867 134.337 65.4753 134.252 65.4688C134.171 65.459 134.083 65.4541 133.988 65.4541C133.718 65.4541 133.479 65.5078 133.271 65.6152C133.062 65.7227 132.898 65.8724 132.777 66.0645C132.66 66.2565 132.602 66.4811 132.602 66.7383V70H131.752ZM137.562 70.0928C137.061 70.0928 136.63 69.9821 136.269 69.7607C135.91 69.5394 135.634 69.2269 135.438 68.8232C135.246 68.4163 135.15 67.9378 135.15 67.3877V67.3828C135.15 66.8392 135.246 66.3623 135.438 65.9521C135.634 65.542 135.909 65.2214 136.264 64.9902C136.618 64.7591 137.034 64.6436 137.509 64.6436C137.987 64.6436 138.397 64.7542 138.739 64.9756C139.084 65.1969 139.348 65.5062 139.53 65.9033C139.716 66.2972 139.809 66.7562 139.809 67.2803V67.6123H135.59V66.9336H139.374L138.954 67.5537V67.2168C138.954 66.8034 138.892 66.4632 138.769 66.1963C138.645 65.9294 138.474 65.7308 138.256 65.6006C138.038 65.4671 137.787 65.4004 137.504 65.4004C137.221 65.4004 136.967 65.4704 136.742 65.6104C136.521 65.7471 136.345 65.9505 136.215 66.2207C136.085 66.4909 136.02 66.8229 136.02 67.2168V67.5537C136.02 67.9281 136.083 68.2487 136.21 68.5156C136.337 68.7793 136.518 68.9827 136.752 69.126C136.986 69.266 137.263 69.3359 137.582 69.3359C137.82 69.3359 138.026 69.3034 138.202 69.2383C138.378 69.1732 138.523 69.0902 138.637 68.9893C138.751 68.8883 138.83 68.7858 138.876 68.6816L138.896 68.6377H139.745L139.735 68.6768C139.69 68.8558 139.608 69.0299 139.491 69.1992C139.377 69.3652 139.229 69.5166 139.047 69.6533C138.865 69.7868 138.648 69.8942 138.397 69.9756C138.15 70.0537 137.872 70.0928 137.562 70.0928Z" fill="black"/>
<path d="M102.786 88V87.3945L105.169 84.8164C105.468 84.4909 105.703 84.2223 105.872 84.0107C106.041 83.7959 106.16 83.6022 106.229 83.4297C106.297 83.2572 106.331 83.0684 106.331 82.8633V82.8535C106.331 82.6061 106.277 82.3848 106.17 82.1895C106.062 81.9941 105.91 81.8395 105.711 81.7256C105.512 81.6117 105.275 81.5547 104.998 81.5547C104.718 81.5547 104.472 81.6133 104.261 81.7305C104.049 81.8444 103.885 82.0055 103.768 82.2139C103.65 82.4189 103.592 82.6598 103.592 82.9365L103.587 82.9463L102.747 82.9414L102.737 82.9365C102.741 82.5199 102.841 82.1504 103.04 81.8281C103.239 81.5026 103.512 81.2487 103.86 81.0664C104.209 80.8809 104.607 80.7881 105.057 80.7881C105.467 80.7881 105.836 80.8743 106.165 81.0469C106.494 81.2161 106.753 81.4489 106.941 81.7451C107.133 82.0413 107.229 82.3799 107.229 82.7607V82.7705C107.229 83.0374 107.182 83.2946 107.088 83.542C106.997 83.7894 106.834 84.0645 106.6 84.3672C106.365 84.6667 106.035 85.0361 105.608 85.4756L103.787 87.3555L104.007 86.9502V87.3555L103.792 87.209H107.347V88H102.786ZM109.373 88.0488C109.201 88.0488 109.051 87.987 108.924 87.8633C108.8 87.7363 108.738 87.5866 108.738 87.4141C108.738 87.2383 108.8 87.0885 108.924 86.9648C109.051 86.8411 109.201 86.7793 109.373 86.7793C109.549 86.7793 109.699 86.8411 109.822 86.9648C109.946 87.0885 110.008 87.2383 110.008 87.4141C110.008 87.5866 109.946 87.7363 109.822 87.8633C109.699 87.987 109.549 88.0488 109.373 88.0488ZM113.636 88.166C113.2 88.166 112.811 88.0798 112.469 87.9072C112.127 87.7347 111.852 87.5003 111.644 87.2041C111.438 86.9046 111.318 86.5677 111.282 86.1934L111.277 86.1396H112.122L112.127 86.1787C112.156 86.4033 112.238 86.6084 112.371 86.7939C112.508 86.9762 112.685 87.1211 112.903 87.2285C113.125 87.3359 113.372 87.3896 113.646 87.3896C113.958 87.3896 114.233 87.3213 114.471 87.1846C114.708 87.0446 114.894 86.8525 115.027 86.6084C115.161 86.3643 115.228 86.0843 115.228 85.7686V85.7588C115.228 85.4463 115.159 85.1696 115.022 84.9287C114.889 84.6846 114.705 84.4941 114.471 84.3574C114.236 84.2207 113.966 84.1523 113.66 84.1523C113.426 84.1523 113.209 84.1882 113.011 84.2598C112.815 84.3314 112.641 84.4388 112.488 84.582C112.426 84.6406 112.368 84.7041 112.312 84.7725C112.26 84.8408 112.212 84.9173 112.166 85.002H111.404L111.775 80.9541H115.696V81.7402H112.469L112.229 84.123H112.308C112.412 83.9635 112.54 83.8301 112.693 83.7227C112.846 83.6152 113.017 83.5339 113.206 83.4785C113.398 83.4199 113.6 83.3906 113.812 83.3906C114.254 83.3906 114.646 83.4932 114.988 83.6982C115.33 83.9001 115.599 84.1784 115.794 84.5332C115.989 84.8848 116.087 85.2884 116.087 85.7441V85.7539C116.087 86.2259 115.981 86.6442 115.77 87.0088C115.561 87.3701 115.273 87.6533 114.905 87.8584C114.537 88.0635 114.114 88.166 113.636 88.166ZM121.766 88.0928C121.434 88.0928 121.134 88.0293 120.867 87.9023C120.604 87.7754 120.394 87.5947 120.237 87.3604C120.084 87.126 120.008 86.8493 120.008 86.5303V86.5205C120.008 86.208 120.083 85.9411 120.232 85.7197C120.382 85.4951 120.6 85.3193 120.887 85.1924C121.173 85.0654 121.52 84.9906 121.927 84.9678L123.86 84.8506V85.5293L122.029 85.6465C121.629 85.6693 121.336 85.7523 121.15 85.8955C120.968 86.0387 120.877 86.2406 120.877 86.501V86.5107C120.877 86.7777 120.978 86.986 121.18 87.1357C121.382 87.2822 121.635 87.3555 121.941 87.3555C122.231 87.3555 122.488 87.2985 122.713 87.1846C122.938 87.0674 123.113 86.9095 123.24 86.7109C123.37 86.5124 123.436 86.2878 123.436 86.0371V84.3965C123.436 84.071 123.336 83.8236 123.138 83.6543C122.942 83.4818 122.648 83.3955 122.254 83.3955C121.938 83.3955 121.679 83.4525 121.478 83.5664C121.276 83.6771 121.141 83.835 121.072 84.04L121.067 84.0547H120.218L120.223 84.0254C120.268 83.7487 120.382 83.5078 120.564 83.3027C120.75 83.0944 120.989 82.9333 121.282 82.8193C121.575 82.7021 121.909 82.6436 122.283 82.6436C122.713 82.6436 123.076 82.7135 123.372 82.8535C123.672 82.9935 123.898 83.1953 124.051 83.459C124.207 83.7194 124.285 84.0319 124.285 84.3965V88H123.436V87.2236H123.357C123.247 87.4092 123.112 87.5671 122.952 87.6973C122.796 87.8275 122.618 87.9268 122.42 87.9951C122.221 88.0602 122.003 88.0928 121.766 88.0928ZM127.991 88.0928C127.5 88.0928 127.073 87.9805 126.712 87.7559C126.351 87.5312 126.071 87.2139 125.872 86.8037C125.674 86.3936 125.574 85.9102 125.574 85.3535V85.3438C125.574 84.7969 125.672 84.3216 125.867 83.918C126.066 83.5143 126.346 83.2018 126.707 82.9805C127.068 82.7559 127.495 82.6436 127.986 82.6436C128.413 82.6436 128.781 82.7184 129.09 82.8682C129.399 83.0179 129.646 83.2197 129.832 83.4736C130.018 83.7243 130.136 84.0059 130.188 84.3184L130.193 84.3477H129.349L129.344 84.333C129.279 84.0726 129.131 83.8512 128.899 83.6689C128.668 83.4867 128.364 83.3955 127.986 83.3955C127.671 83.3955 127.397 83.4753 127.166 83.6348C126.935 83.7943 126.756 84.0205 126.629 84.3135C126.505 84.6032 126.443 84.9466 126.443 85.3438V85.3535C126.443 85.7572 126.507 86.1087 126.634 86.4082C126.761 86.7044 126.94 86.9339 127.171 87.0967C127.402 87.2594 127.674 87.3408 127.986 87.3408C128.341 87.3408 128.631 87.2643 128.855 87.1113C129.08 86.9583 129.241 86.7354 129.339 86.4424L129.349 86.4131L130.188 86.4082L130.179 86.4619C130.107 86.7777 129.98 87.0592 129.798 87.3066C129.616 87.5508 129.375 87.7428 129.075 87.8828C128.776 88.0228 128.414 88.0928 127.991 88.0928ZM131.434 88V82.7363H132.283V83.5176H132.361C132.462 83.2409 132.633 83.026 132.874 82.873C133.115 82.7201 133.413 82.6436 133.768 82.6436C133.849 82.6436 133.929 82.6484 134.007 82.6582C134.088 82.6647 134.15 82.6712 134.192 82.6777V83.5029C134.104 83.4867 134.018 83.4753 133.934 83.4688C133.852 83.459 133.764 83.4541 133.67 83.4541C133.4 83.4541 133.16 83.5078 132.952 83.6152C132.744 83.7227 132.579 83.8724 132.459 84.0645C132.342 84.2565 132.283 84.4811 132.283 84.7383V88H131.434ZM137.244 88.0928C136.743 88.0928 136.312 87.9821 135.95 87.7607C135.592 87.5394 135.315 87.2269 135.12 86.8232C134.928 86.4163 134.832 85.9378 134.832 85.3877V85.3828C134.832 84.8392 134.928 84.3623 135.12 83.9521C135.315 83.542 135.59 83.2214 135.945 82.9902C136.3 82.7591 136.715 82.6436 137.19 82.6436C137.669 82.6436 138.079 82.7542 138.421 82.9756C138.766 83.1969 139.03 83.5062 139.212 83.9033C139.397 84.2972 139.49 84.7562 139.49 85.2803V85.6123H135.271V84.9336H139.056L138.636 85.5537V85.2168C138.636 84.8034 138.574 84.4632 138.45 84.1963C138.326 83.9294 138.156 83.7308 137.938 83.6006C137.719 83.4671 137.469 83.4004 137.186 83.4004C136.902 83.4004 136.648 83.4704 136.424 83.6104C136.202 83.7471 136.027 83.9505 135.896 84.2207C135.766 84.4909 135.701 84.8229 135.701 85.2168V85.5537C135.701 85.9281 135.765 86.2487 135.892 86.5156C136.019 86.7793 136.199 86.9827 136.434 87.126C136.668 87.266 136.945 87.3359 137.264 87.3359C137.501 87.3359 137.708 87.3034 137.884 87.2383C138.06 87.1732 138.204 87.0902 138.318 86.9893C138.432 86.8883 138.512 86.7858 138.558 86.6816L138.577 86.6377H139.427L139.417 86.6768C139.371 86.8558 139.29 87.0299 139.173 87.1992C139.059 87.3652 138.911 87.5166 138.729 87.6533C138.546 87.7868 138.33 87.8942 138.079 87.9756C137.832 88.0537 137.553 88.0928 137.244 88.0928Z" fill="black"/>
<path d="M105.145 106.166C104.624 106.166 104.178 106.016 103.807 105.717C103.439 105.417 103.156 104.993 102.957 104.442C102.758 103.889 102.659 103.235 102.659 102.479V102.47C102.659 101.715 102.758 101.062 102.957 100.512C103.156 99.9616 103.439 99.5368 103.807 99.2373C104.178 98.9378 104.624 98.7881 105.145 98.7881C105.665 98.7881 106.111 98.9378 106.482 99.2373C106.854 99.5368 107.138 99.9616 107.337 100.512C107.539 101.062 107.64 101.715 107.64 102.47V102.479C107.64 103.235 107.539 103.889 107.337 104.442C107.138 104.993 106.854 105.417 106.482 105.717C106.111 106.016 105.665 106.166 105.145 106.166ZM105.145 105.399C105.483 105.399 105.771 105.281 106.009 105.043C106.25 104.805 106.434 104.468 106.561 104.032C106.691 103.596 106.756 103.078 106.756 102.479V102.47C106.756 101.871 106.691 101.355 106.561 100.922C106.434 100.486 106.25 100.15 106.009 99.916C105.771 99.6784 105.483 99.5596 105.145 99.5596C104.809 99.5596 104.521 99.6784 104.28 99.916C104.043 100.15 103.86 100.486 103.733 100.922C103.606 101.355 103.543 101.871 103.543 102.47V102.479C103.543 103.078 103.606 103.596 103.733 104.032C103.86 104.468 104.043 104.805 104.28 105.043C104.521 105.281 104.809 105.399 105.145 105.399ZM109.393 106.049C109.22 106.049 109.07 105.987 108.943 105.863C108.82 105.736 108.758 105.587 108.758 105.414C108.758 105.238 108.82 105.089 108.943 104.965C109.07 104.841 109.22 104.779 109.393 104.779C109.568 104.779 109.718 104.841 109.842 104.965C109.965 105.089 110.027 105.238 110.027 105.414C110.027 105.587 109.965 105.736 109.842 105.863C109.718 105.987 109.568 106.049 109.393 106.049ZM114.588 106V104.54H111.155V103.739C111.347 103.42 111.543 103.098 111.741 102.772C111.94 102.444 112.14 102.117 112.342 101.791C112.547 101.462 112.752 101.137 112.957 100.814C113.162 100.492 113.366 100.175 113.567 99.8623C113.772 99.5498 113.974 99.2471 114.173 98.9541H115.447V103.754H116.448V104.54H115.447V106H114.588ZM112.054 103.759H114.593V99.7695H114.534C114.375 100.007 114.212 100.255 114.046 100.512C113.88 100.766 113.711 101.026 113.538 101.293C113.369 101.56 113.2 101.828 113.03 102.099C112.861 102.369 112.693 102.639 112.527 102.909C112.365 103.176 112.207 103.44 112.054 103.7V103.759ZM122.068 106.093C121.736 106.093 121.437 106.029 121.17 105.902C120.906 105.775 120.696 105.595 120.54 105.36C120.387 105.126 120.311 104.849 120.311 104.53V104.521C120.311 104.208 120.385 103.941 120.535 103.72C120.685 103.495 120.903 103.319 121.189 103.192C121.476 103.065 121.823 102.991 122.229 102.968L124.163 102.851V103.529L122.332 103.646C121.932 103.669 121.639 103.752 121.453 103.896C121.271 104.039 121.18 104.241 121.18 104.501V104.511C121.18 104.778 121.281 104.986 121.482 105.136C121.684 105.282 121.938 105.355 122.244 105.355C122.534 105.355 122.791 105.299 123.016 105.185C123.24 105.067 123.416 104.91 123.543 104.711C123.673 104.512 123.738 104.288 123.738 104.037V102.396C123.738 102.071 123.639 101.824 123.44 101.654C123.245 101.482 122.951 101.396 122.557 101.396C122.241 101.396 121.982 101.452 121.78 101.566C121.578 101.677 121.443 101.835 121.375 102.04L121.37 102.055H120.521L120.525 102.025C120.571 101.749 120.685 101.508 120.867 101.303C121.053 101.094 121.292 100.933 121.585 100.819C121.878 100.702 122.212 100.644 122.586 100.644C123.016 100.644 123.379 100.714 123.675 100.854C123.974 100.993 124.201 101.195 124.354 101.459C124.51 101.719 124.588 102.032 124.588 102.396V106H123.738V105.224H123.66C123.549 105.409 123.414 105.567 123.255 105.697C123.099 105.827 122.921 105.927 122.723 105.995C122.524 106.06 122.306 106.093 122.068 106.093ZM128.294 106.093C127.802 106.093 127.376 105.98 127.015 105.756C126.653 105.531 126.373 105.214 126.175 104.804C125.976 104.394 125.877 103.91 125.877 103.354V103.344C125.877 102.797 125.975 102.322 126.17 101.918C126.368 101.514 126.648 101.202 127.01 100.98C127.371 100.756 127.798 100.644 128.289 100.644C128.715 100.644 129.083 100.718 129.393 100.868C129.702 101.018 129.949 101.22 130.135 101.474C130.32 101.724 130.439 102.006 130.491 102.318L130.496 102.348H129.651L129.646 102.333C129.581 102.073 129.433 101.851 129.202 101.669C128.971 101.487 128.667 101.396 128.289 101.396C127.973 101.396 127.7 101.475 127.469 101.635C127.238 101.794 127.059 102.021 126.932 102.313C126.808 102.603 126.746 102.947 126.746 103.344V103.354C126.746 103.757 126.81 104.109 126.937 104.408C127.063 104.704 127.243 104.934 127.474 105.097C127.705 105.259 127.977 105.341 128.289 105.341C128.644 105.341 128.934 105.264 129.158 105.111C129.383 104.958 129.544 104.735 129.642 104.442L129.651 104.413L130.491 104.408L130.481 104.462C130.41 104.778 130.283 105.059 130.101 105.307C129.918 105.551 129.677 105.743 129.378 105.883C129.078 106.023 128.717 106.093 128.294 106.093ZM131.736 106V100.736H132.586V101.518H132.664C132.765 101.241 132.936 101.026 133.177 100.873C133.418 100.72 133.715 100.644 134.07 100.644C134.152 100.644 134.231 100.648 134.31 100.658C134.391 100.665 134.453 100.671 134.495 100.678V101.503C134.407 101.487 134.321 101.475 134.236 101.469C134.155 101.459 134.067 101.454 133.973 101.454C133.702 101.454 133.463 101.508 133.255 101.615C133.047 101.723 132.882 101.872 132.762 102.064C132.645 102.257 132.586 102.481 132.586 102.738V106H131.736ZM137.547 106.093C137.046 106.093 136.614 105.982 136.253 105.761C135.895 105.539 135.618 105.227 135.423 104.823C135.231 104.416 135.135 103.938 135.135 103.388V103.383C135.135 102.839 135.231 102.362 135.423 101.952C135.618 101.542 135.893 101.221 136.248 100.99C136.603 100.759 137.018 100.644 137.493 100.644C137.972 100.644 138.382 100.754 138.724 100.976C139.069 101.197 139.332 101.506 139.515 101.903C139.7 102.297 139.793 102.756 139.793 103.28V103.612H135.574V102.934H139.358L138.938 103.554V103.217C138.938 102.803 138.877 102.463 138.753 102.196C138.629 101.929 138.458 101.731 138.24 101.601C138.022 101.467 137.771 101.4 137.488 101.4C137.205 101.4 136.951 101.47 136.727 101.61C136.505 101.747 136.329 101.951 136.199 102.221C136.069 102.491 136.004 102.823 136.004 103.217V103.554C136.004 103.928 136.067 104.249 136.194 104.516C136.321 104.779 136.502 104.983 136.736 105.126C136.971 105.266 137.247 105.336 137.566 105.336C137.804 105.336 138.011 105.303 138.187 105.238C138.362 105.173 138.507 105.09 138.621 104.989C138.735 104.888 138.815 104.786 138.86 104.682L138.88 104.638H139.729L139.72 104.677C139.674 104.856 139.593 105.03 139.476 105.199C139.362 105.365 139.214 105.517 139.031 105.653C138.849 105.787 138.632 105.894 138.382 105.976C138.134 106.054 137.856 106.093 137.547 106.093Z" fill="black"/>
<path d="M105.184 124.117C104.699 124.117 104.275 124.034 103.914 123.868C103.553 123.702 103.266 123.474 103.055 123.185C102.846 122.895 102.726 122.564 102.693 122.193L102.688 122.135H103.533L103.538 122.184C103.561 122.415 103.642 122.618 103.782 122.794C103.925 122.97 104.116 123.108 104.354 123.209C104.594 123.307 104.871 123.355 105.184 123.355C105.493 123.355 105.763 123.302 105.994 123.194C106.229 123.087 106.411 122.939 106.541 122.75C106.671 122.558 106.736 122.338 106.736 122.091V122.081C106.736 121.648 106.591 121.316 106.302 121.085C106.015 120.851 105.625 120.733 105.13 120.733H104.246V119.991H105.091C105.371 119.991 105.618 119.939 105.833 119.835C106.048 119.728 106.215 119.583 106.336 119.4C106.456 119.215 106.517 119.005 106.517 118.771V118.761C106.517 118.513 106.465 118.303 106.36 118.131C106.256 117.958 106.103 117.826 105.901 117.735C105.703 117.644 105.46 117.599 105.174 117.599C104.897 117.599 104.65 117.646 104.432 117.74C104.217 117.831 104.044 117.963 103.914 118.136C103.784 118.308 103.706 118.513 103.68 118.751L103.675 118.8H102.83L102.835 118.751C102.874 118.367 102.994 118.032 103.196 117.745C103.401 117.459 103.672 117.236 104.007 117.076C104.345 116.917 104.734 116.837 105.174 116.837C105.623 116.837 106.014 116.915 106.346 117.071C106.681 117.224 106.94 117.438 107.122 117.711C107.308 117.981 107.4 118.295 107.4 118.653V118.663C107.4 118.953 107.337 119.21 107.21 119.435C107.083 119.659 106.907 119.846 106.683 119.996C106.458 120.146 106.199 120.252 105.906 120.313V120.333C106.421 120.375 106.836 120.549 107.151 120.855C107.47 121.158 107.63 121.56 107.63 122.062V122.071C107.63 122.462 107.524 122.812 107.312 123.121C107.101 123.43 106.811 123.674 106.443 123.854C106.076 124.029 105.656 124.117 105.184 124.117ZM109.412 124.049C109.24 124.049 109.09 123.987 108.963 123.863C108.839 123.736 108.777 123.587 108.777 123.414C108.777 123.238 108.839 123.089 108.963 122.965C109.09 122.841 109.24 122.779 109.412 122.779C109.588 122.779 109.738 122.841 109.861 122.965C109.985 123.089 110.047 123.238 110.047 123.414C110.047 123.587 109.985 123.736 109.861 123.863C109.738 123.987 109.588 124.049 109.412 124.049ZM111.487 124V123.395L113.87 120.816C114.17 120.491 114.404 120.222 114.573 120.011C114.743 119.796 114.861 119.602 114.93 119.43C114.998 119.257 115.032 119.068 115.032 118.863V118.854C115.032 118.606 114.979 118.385 114.871 118.189C114.764 117.994 114.611 117.84 114.412 117.726C114.214 117.612 113.976 117.555 113.699 117.555C113.419 117.555 113.174 117.613 112.962 117.73C112.75 117.844 112.586 118.006 112.469 118.214C112.352 118.419 112.293 118.66 112.293 118.937L112.288 118.946L111.448 118.941L111.438 118.937C111.442 118.52 111.543 118.15 111.741 117.828C111.94 117.503 112.213 117.249 112.562 117.066C112.91 116.881 113.309 116.788 113.758 116.788C114.168 116.788 114.537 116.874 114.866 117.047C115.195 117.216 115.454 117.449 115.643 117.745C115.835 118.041 115.931 118.38 115.931 118.761V118.771C115.931 119.037 115.883 119.295 115.789 119.542C115.698 119.789 115.535 120.064 115.301 120.367C115.066 120.667 114.736 121.036 114.31 121.476L112.488 123.355L112.708 122.95V123.355L112.493 123.209H116.048V124H111.487ZM121.785 124.093C121.453 124.093 121.154 124.029 120.887 123.902C120.623 123.775 120.413 123.595 120.257 123.36C120.104 123.126 120.027 122.849 120.027 122.53V122.521C120.027 122.208 120.102 121.941 120.252 121.72C120.402 121.495 120.62 121.319 120.906 121.192C121.193 121.065 121.539 120.991 121.946 120.968L123.88 120.851V121.529L122.049 121.646C121.648 121.669 121.355 121.752 121.17 121.896C120.988 122.039 120.896 122.241 120.896 122.501V122.511C120.896 122.778 120.997 122.986 121.199 123.136C121.401 123.282 121.655 123.355 121.961 123.355C122.251 123.355 122.508 123.299 122.732 123.185C122.957 123.067 123.133 122.91 123.26 122.711C123.39 122.512 123.455 122.288 123.455 122.037V120.396C123.455 120.071 123.356 119.824 123.157 119.654C122.962 119.482 122.667 119.396 122.273 119.396C121.958 119.396 121.699 119.452 121.497 119.566C121.295 119.677 121.16 119.835 121.092 120.04L121.087 120.055H120.237L120.242 120.025C120.288 119.749 120.402 119.508 120.584 119.303C120.77 119.094 121.009 118.933 121.302 118.819C121.595 118.702 121.928 118.644 122.303 118.644C122.732 118.644 123.095 118.714 123.392 118.854C123.691 118.993 123.917 119.195 124.07 119.459C124.227 119.719 124.305 120.032 124.305 120.396V124H123.455V123.224H123.377C123.266 123.409 123.131 123.567 122.972 123.697C122.815 123.827 122.638 123.927 122.439 123.995C122.241 124.06 122.023 124.093 121.785 124.093ZM128.011 124.093C127.519 124.093 127.093 123.98 126.731 123.756C126.37 123.531 126.09 123.214 125.892 122.804C125.693 122.394 125.594 121.91 125.594 121.354V121.344C125.594 120.797 125.691 120.322 125.887 119.918C126.085 119.514 126.365 119.202 126.727 118.98C127.088 118.756 127.514 118.644 128.006 118.644C128.432 118.644 128.8 118.718 129.109 118.868C129.419 119.018 129.666 119.22 129.852 119.474C130.037 119.724 130.156 120.006 130.208 120.318L130.213 120.348H129.368L129.363 120.333C129.298 120.073 129.15 119.851 128.919 119.669C128.688 119.487 128.383 119.396 128.006 119.396C127.69 119.396 127.417 119.475 127.186 119.635C126.954 119.794 126.775 120.021 126.648 120.313C126.525 120.603 126.463 120.947 126.463 121.344V121.354C126.463 121.757 126.526 122.109 126.653 122.408C126.78 122.704 126.959 122.934 127.19 123.097C127.422 123.259 127.693 123.341 128.006 123.341C128.361 123.341 128.65 123.264 128.875 123.111C129.1 122.958 129.261 122.735 129.358 122.442L129.368 122.413L130.208 122.408L130.198 122.462C130.127 122.778 130 123.059 129.817 123.307C129.635 123.551 129.394 123.743 129.095 123.883C128.795 124.023 128.434 124.093 128.011 124.093ZM131.453 124V118.736H132.303V119.518H132.381C132.482 119.241 132.653 119.026 132.894 118.873C133.134 118.72 133.432 118.644 133.787 118.644C133.868 118.644 133.948 118.648 134.026 118.658C134.108 118.665 134.17 118.671 134.212 118.678V119.503C134.124 119.487 134.038 119.475 133.953 119.469C133.872 119.459 133.784 119.454 133.689 119.454C133.419 119.454 133.18 119.508 132.972 119.615C132.763 119.723 132.599 119.872 132.479 120.064C132.361 120.257 132.303 120.481 132.303 120.738V124H131.453ZM137.264 124.093C136.762 124.093 136.331 123.982 135.97 123.761C135.612 123.539 135.335 123.227 135.14 122.823C134.948 122.416 134.852 121.938 134.852 121.388V121.383C134.852 120.839 134.948 120.362 135.14 119.952C135.335 119.542 135.61 119.221 135.965 118.99C136.32 118.759 136.735 118.644 137.21 118.644C137.688 118.644 138.099 118.754 138.44 118.976C138.785 119.197 139.049 119.506 139.231 119.903C139.417 120.297 139.51 120.756 139.51 121.28V121.612H135.291V120.934H139.075L138.655 121.554V121.217C138.655 120.803 138.593 120.463 138.47 120.196C138.346 119.929 138.175 119.731 137.957 119.601C137.739 119.467 137.488 119.4 137.205 119.4C136.922 119.4 136.668 119.47 136.443 119.61C136.222 119.747 136.046 119.951 135.916 120.221C135.786 120.491 135.721 120.823 135.721 121.217V121.554C135.721 121.928 135.784 122.249 135.911 122.516C136.038 122.779 136.219 122.983 136.453 123.126C136.688 123.266 136.964 123.336 137.283 123.336C137.521 123.336 137.728 123.303 137.903 123.238C138.079 123.173 138.224 123.09 138.338 122.989C138.452 122.888 138.532 122.786 138.577 122.682L138.597 122.638H139.446L139.437 122.677C139.391 122.856 139.31 123.03 139.192 123.199C139.078 123.365 138.93 123.517 138.748 123.653C138.566 123.787 138.349 123.894 138.099 123.976C137.851 124.054 137.573 124.093 137.264 124.093Z" fill="black"/>
<path d="M102.786 142V141.395L105.169 138.816C105.468 138.491 105.703 138.222 105.872 138.011C106.041 137.796 106.16 137.602 106.229 137.43C106.297 137.257 106.331 137.068 106.331 136.863V136.854C106.331 136.606 106.277 136.385 106.17 136.189C106.062 135.994 105.91 135.84 105.711 135.726C105.512 135.612 105.275 135.555 104.998 135.555C104.718 135.555 104.472 135.613 104.261 135.73C104.049 135.844 103.885 136.006 103.768 136.214C103.65 136.419 103.592 136.66 103.592 136.937L103.587 136.946L102.747 136.941L102.737 136.937C102.741 136.52 102.841 136.15 103.04 135.828C103.239 135.503 103.512 135.249 103.86 135.066C104.209 134.881 104.607 134.788 105.057 134.788C105.467 134.788 105.836 134.874 106.165 135.047C106.494 135.216 106.753 135.449 106.941 135.745C107.133 136.041 107.229 136.38 107.229 136.761V136.771C107.229 137.037 107.182 137.295 107.088 137.542C106.997 137.789 106.834 138.064 106.6 138.367C106.365 138.667 106.035 139.036 105.608 139.476L103.787 141.355L104.007 140.95V141.355L103.792 141.209H107.347V142H102.786ZM109.373 142.049C109.201 142.049 109.051 141.987 108.924 141.863C108.8 141.736 108.738 141.587 108.738 141.414C108.738 141.238 108.8 141.089 108.924 140.965C109.051 140.841 109.201 140.779 109.373 140.779C109.549 140.779 109.699 140.841 109.822 140.965C109.946 141.089 110.008 141.238 110.008 141.414C110.008 141.587 109.946 141.736 109.822 141.863C109.699 141.987 109.549 142.049 109.373 142.049ZM113.748 142.117C113.263 142.117 112.84 142.034 112.479 141.868C112.117 141.702 111.831 141.474 111.619 141.185C111.411 140.895 111.29 140.564 111.258 140.193L111.253 140.135H112.098L112.103 140.184C112.125 140.415 112.207 140.618 112.347 140.794C112.49 140.97 112.68 141.108 112.918 141.209C113.159 141.307 113.436 141.355 113.748 141.355C114.057 141.355 114.327 141.302 114.559 141.194C114.793 141.087 114.975 140.939 115.105 140.75C115.236 140.558 115.301 140.338 115.301 140.091V140.081C115.301 139.648 115.156 139.316 114.866 139.085C114.58 138.851 114.189 138.733 113.694 138.733H112.811V137.991H113.655C113.935 137.991 114.183 137.939 114.397 137.835C114.612 137.728 114.78 137.583 114.9 137.4C115.021 137.215 115.081 137.005 115.081 136.771V136.761C115.081 136.513 115.029 136.303 114.925 136.131C114.821 135.958 114.668 135.826 114.466 135.735C114.267 135.644 114.025 135.599 113.738 135.599C113.462 135.599 113.214 135.646 112.996 135.74C112.781 135.831 112.609 135.963 112.479 136.136C112.348 136.308 112.27 136.513 112.244 136.751L112.239 136.8H111.395L111.399 136.751C111.438 136.367 111.559 136.032 111.761 135.745C111.966 135.459 112.236 135.236 112.571 135.076C112.91 134.917 113.299 134.837 113.738 134.837C114.188 134.837 114.578 134.915 114.91 135.071C115.245 135.224 115.504 135.438 115.687 135.711C115.872 135.981 115.965 136.295 115.965 136.653V136.663C115.965 136.953 115.901 137.21 115.774 137.435C115.647 137.659 115.472 137.846 115.247 137.996C115.022 138.146 114.764 138.252 114.471 138.313V138.333C114.985 138.375 115.4 138.549 115.716 138.855C116.035 139.158 116.194 139.56 116.194 140.062V140.071C116.194 140.462 116.089 140.812 115.877 141.121C115.665 141.43 115.376 141.674 115.008 141.854C114.64 142.029 114.22 142.117 113.748 142.117ZM121.883 142.093C121.551 142.093 121.251 142.029 120.984 141.902C120.721 141.775 120.511 141.595 120.354 141.36C120.201 141.126 120.125 140.849 120.125 140.53V140.521C120.125 140.208 120.2 139.941 120.35 139.72C120.499 139.495 120.717 139.319 121.004 139.192C121.29 139.065 121.637 138.991 122.044 138.968L123.978 138.851V139.529L122.146 139.646C121.746 139.669 121.453 139.752 121.268 139.896C121.085 140.039 120.994 140.241 120.994 140.501V140.511C120.994 140.778 121.095 140.986 121.297 141.136C121.499 141.282 121.753 141.355 122.059 141.355C122.348 141.355 122.605 141.299 122.83 141.185C123.055 141.067 123.23 140.91 123.357 140.711C123.488 140.512 123.553 140.288 123.553 140.037V138.396C123.553 138.071 123.453 137.824 123.255 137.654C123.06 137.482 122.765 137.396 122.371 137.396C122.055 137.396 121.797 137.452 121.595 137.566C121.393 137.677 121.258 137.835 121.189 138.04L121.185 138.055H120.335L120.34 138.025C120.385 137.749 120.499 137.508 120.682 137.303C120.867 137.094 121.106 136.933 121.399 136.819C121.692 136.702 122.026 136.644 122.4 136.644C122.83 136.644 123.193 136.714 123.489 136.854C123.789 136.993 124.015 137.195 124.168 137.459C124.324 137.719 124.402 138.032 124.402 138.396V142H123.553V141.224H123.475C123.364 141.409 123.229 141.567 123.069 141.697C122.913 141.827 122.736 141.927 122.537 141.995C122.339 142.06 122.12 142.093 121.883 142.093ZM128.108 142.093C127.617 142.093 127.19 141.98 126.829 141.756C126.468 141.531 126.188 141.214 125.989 140.804C125.791 140.394 125.691 139.91 125.691 139.354V139.344C125.691 138.797 125.789 138.322 125.984 137.918C126.183 137.514 126.463 137.202 126.824 136.98C127.186 136.756 127.612 136.644 128.104 136.644C128.53 136.644 128.898 136.718 129.207 136.868C129.516 137.018 129.764 137.22 129.949 137.474C130.135 137.724 130.254 138.006 130.306 138.318L130.311 138.348H129.466L129.461 138.333C129.396 138.073 129.248 137.851 129.017 137.669C128.785 137.487 128.481 137.396 128.104 137.396C127.788 137.396 127.514 137.475 127.283 137.635C127.052 137.794 126.873 138.021 126.746 138.313C126.622 138.603 126.561 138.947 126.561 139.344V139.354C126.561 139.757 126.624 140.109 126.751 140.408C126.878 140.704 127.057 140.934 127.288 141.097C127.519 141.259 127.791 141.341 128.104 141.341C128.458 141.341 128.748 141.264 128.973 141.111C129.197 140.958 129.358 140.735 129.456 140.442L129.466 140.413L130.306 140.408L130.296 140.462C130.224 140.778 130.097 141.059 129.915 141.307C129.733 141.551 129.492 141.743 129.192 141.883C128.893 142.023 128.532 142.093 128.108 142.093ZM131.551 142V136.736H132.4V137.518H132.479C132.579 137.241 132.75 137.026 132.991 136.873C133.232 136.72 133.53 136.644 133.885 136.644C133.966 136.644 134.046 136.648 134.124 136.658C134.205 136.665 134.267 136.671 134.31 136.678V137.503C134.222 137.487 134.135 137.475 134.051 137.469C133.969 137.459 133.882 137.454 133.787 137.454C133.517 137.454 133.278 137.508 133.069 137.615C132.861 137.723 132.697 137.872 132.576 138.064C132.459 138.257 132.4 138.481 132.4 138.738V142H131.551ZM137.361 142.093C136.86 142.093 136.429 141.982 136.067 141.761C135.709 141.539 135.433 141.227 135.237 140.823C135.045 140.416 134.949 139.938 134.949 139.388V139.383C134.949 138.839 135.045 138.362 135.237 137.952C135.433 137.542 135.708 137.221 136.062 136.99C136.417 136.759 136.832 136.644 137.308 136.644C137.786 136.644 138.196 136.754 138.538 136.976C138.883 137.197 139.147 137.506 139.329 137.903C139.515 138.297 139.607 138.756 139.607 139.28V139.612H135.389V138.934H139.173L138.753 139.554V139.217C138.753 138.803 138.691 138.463 138.567 138.196C138.444 137.929 138.273 137.731 138.055 137.601C137.837 137.467 137.586 137.4 137.303 137.4C137.02 137.4 136.766 137.47 136.541 137.61C136.32 137.747 136.144 137.951 136.014 138.221C135.883 138.491 135.818 138.823 135.818 139.217V139.554C135.818 139.928 135.882 140.249 136.009 140.516C136.136 140.779 136.316 140.983 136.551 141.126C136.785 141.266 137.062 141.336 137.381 141.336C137.618 141.336 137.825 141.303 138.001 141.238C138.177 141.173 138.322 141.09 138.436 140.989C138.549 140.888 138.629 140.786 138.675 140.682L138.694 140.638H139.544L139.534 140.677C139.489 140.856 139.407 141.03 139.29 141.199C139.176 141.365 139.028 141.517 138.846 141.653C138.663 141.787 138.447 141.894 138.196 141.976C137.949 142.054 137.671 142.093 137.361 142.093Z" fill="black"/>
<defs>
<filter id="filter0_dd_409_3636" x="0.5" y="0" width="161" height="158" filterUnits="userSpaceOnUse" color-interpolation-filters="sRGB">
<feFlood flood-opacity="0" result="BackgroundImageFix"/>
<feColorMatrix in="SourceAlpha" type="matrix" values="0 0 0 0 0 0 0 0 0 0 0 0 0 0 0 0 0 0 127 0" result="hardAlpha"/>
<feMorphology radius="0.5" operator="dilate" in="SourceAlpha" result="effect1_dropShadow_409_3636"/>
<feOffset/>
<feComposite in2="hardAlpha" operator="out"/>
<feColorMatrix type="matrix" values="0 0 0 0 0 0 0 0 0 0 0 0 0 0 0 0 0 0 0.05 0"/>
<feBlend mode="normal" in2="BackgroundImageFix" result="effect1_dropShadow_409_3636"/>
<feColorMatrix in="SourceAlpha" type="matrix" values="0 0 0 0 0 0 0 0 0 0 0 0 0 0 0 0 0 0 127 0" result="hardAlpha"/>
<feOffset dy="0.5"/>
<feGaussianBlur stdDeviation="1.25"/>
<feComposite in2="hardAlpha" operator="out"/>
<feColorMatrix type="matrix" values="0 0 0 0 0 0 0 0 0 0 0 0 0 0 0 0 0 0 0.3 0"/>
<feBlend mode="normal" in2="effect1_dropShadow_409_3636" result="effect2_dropShadow_409_3636"/>
<feBlend mode="normal" in="SourceGraphic" in2="effect2_dropShadow_409_3636" result="shape"/>
</filter>
<filter id="filter1_dd_409_3636" x="7.5" y="7" width="28" height="28" filterUnits="userSpaceOnUse" color-interpolation-filters="sRGB">
<feFlood flood-opacity="0" result="BackgroundImageFix"/>
<feColorMatrix in="SourceAlpha" type="matrix" values="0 0 0 0 0 0 0 0 0 0 0 0 0 0 0 0 0 0 127 0" result="hardAlpha"/>
<feMorphology radius="0.5" operator="dilate" in="SourceAlpha" result="effect1_dropShadow_409_3636"/>
<feOffset/>
<feComposite in2="hardAlpha" operator="out"/>
<feColorMatrix type="matrix" values="0 0 0 0 0 0 0 0 0 0 0 0 0 0 0 0 0 0 0.05 0"/>
<feBlend mode="normal" in2="BackgroundImageFix" result="effect1_dropShadow_409_3636"/>
<feColorMatrix in="SourceAlpha" type="matrix" values="0 0 0 0 0 0 0 0 0 0 0 0 0 0 0 0 0 0 127 0" result="hardAlpha"/>
<feOffset dy="0.5"/>
<feGaussianBlur stdDeviation="1.25"/>
<feComposite in2="hardAlpha" operator="out"/>
<feColorMatrix type="matrix" values="0 0 0 0 0 0 0 0 0 0 0 0 0 0 0 0 0 0 0.3 0"/>
<feBlend mode="normal" in2="effect1_dropShadow_409_3636" result="effect2_dropShadow_409_3636"/>
<feBlend mode="normal" in="SourceGraphic" in2="effect2_dropShadow_409_3636" result="shape"/>
</filter>
</defs>
</svg>
