<svg width="204" height="94" viewBox="0 0 204 94" fill="none" xmlns="http://www.w3.org/2000/svg">
<g filter="url(#filter0_dd_384_3224)">
<rect x="3" y="2" width="198" height="89" rx="10" fill="white"/>
</g>
<g filter="url(#filter1_dd_384_3224)">
<rect x="10" y="9" width="23" height="23" rx="7" fill="white"/>
<path d="M22.0317 27.0791C21.397 27.0791 20.8003 26.9797 20.2417 26.7808C19.6873 26.5819 19.2155 26.2941 18.8262 25.9175C18.4368 25.5409 18.1766 25.0881 18.0454 24.5591C18.0158 24.4448 18.001 24.339 18.001 24.2417C18.001 24.0555 18.0518 23.9053 18.1533 23.791C18.2549 23.6768 18.3988 23.6196 18.585 23.6196C18.7415 23.6196 18.8727 23.6641 18.9785 23.7529C19.0843 23.8376 19.1647 23.9624 19.2197 24.1274C19.3213 24.5252 19.4969 24.8595 19.7466 25.1304C20.0005 25.4012 20.32 25.6064 20.7051 25.7461C21.0902 25.8857 21.5366 25.9556 22.0444 25.9556C22.6115 25.9556 23.0981 25.8794 23.5044 25.7271C23.9106 25.5705 24.2196 25.3483 24.4312 25.0605C24.647 24.7686 24.7549 24.4194 24.7549 24.0132C24.7549 23.5011 24.5856 23.0949 24.2471 22.7944C23.9128 22.494 23.3499 22.2485 22.5586 22.0581L21.3525 21.7725C20.2904 21.5143 19.5054 21.1462 18.9976 20.668C18.4897 20.1855 18.2358 19.5698 18.2358 18.8208C18.2358 18.2157 18.3966 17.6846 18.7183 17.2275C19.0441 16.7705 19.4927 16.4129 20.064 16.1548C20.6353 15.8966 21.2891 15.7676 22.0254 15.7676C22.6475 15.7676 23.2166 15.8691 23.7329 16.0723C24.2534 16.2754 24.6893 16.561 25.0405 16.9292C25.396 17.2974 25.6372 17.7248 25.7642 18.2114C25.7811 18.2707 25.7917 18.3278 25.7959 18.3828C25.8044 18.4336 25.8086 18.4844 25.8086 18.5352C25.8086 18.7171 25.7578 18.8652 25.6562 18.9795C25.5547 19.0895 25.4108 19.1445 25.2246 19.1445C24.9072 19.1445 24.6956 18.9774 24.5898 18.6431C24.4714 18.2622 24.2936 17.9427 24.0566 17.6846C23.8239 17.4222 23.5361 17.2254 23.1934 17.0942C22.8506 16.9588 22.4613 16.8911 22.0254 16.8911C21.488 16.8911 21.0288 16.9757 20.6479 17.145C20.2671 17.3143 19.9751 17.5407 19.772 17.8242C19.5731 18.1035 19.4736 18.4103 19.4736 18.7446C19.4736 19.2059 19.6408 19.5889 19.9751 19.8936C20.3136 20.194 20.8363 20.4289 21.543 20.5981L22.749 20.8838C23.8704 21.1546 24.6914 21.5334 25.2119 22.02C25.7324 22.5067 25.9927 23.1414 25.9927 23.9243C25.9927 24.6014 25.8107 25.1748 25.4468 25.6445C25.0871 26.1143 24.6068 26.4697 24.0059 26.7109C23.4049 26.9564 22.7469 27.0791 22.0317 27.0791ZM22 28.6089C21.8688 28.6089 21.7567 28.5623 21.6636 28.4692C21.5705 28.3761 21.5239 28.2619 21.5239 28.1265V14.7583C21.5239 14.6271 21.5705 14.515 21.6636 14.4219C21.7567 14.3288 21.8688 14.2822 22 14.2822C22.1354 14.2822 22.2497 14.3288 22.3428 14.4219C22.4359 14.515 22.4824 14.6271 22.4824 14.7583V28.1265C22.4824 28.2619 22.4359 28.3761 22.3428 28.4692C22.2497 28.5623 22.1354 28.6089 22 28.6089Z" fill="#03A200"/>
</g>
<path d="M40.9561 25V17.2495H42.3418V25H40.9561ZM44.1143 25V19.1294H45.4517V20.0317H45.543C45.6826 19.7131 45.8939 19.4642 46.1768 19.2852C46.4596 19.1061 46.8123 19.0166 47.2349 19.0166C47.8901 19.0166 48.3914 19.2064 48.7388 19.5859C49.0861 19.9655 49.2598 20.5044 49.2598 21.2026V25H47.9224V21.5142C47.9224 21.0558 47.8257 20.7121 47.6323 20.4829C47.4425 20.2537 47.1453 20.1392 46.7407 20.1392C46.4757 20.1392 46.2466 20.1982 46.0532 20.3164C45.8599 20.4346 45.7113 20.6011 45.6074 20.8159C45.5036 21.0308 45.4517 21.285 45.4517 21.5786V25H44.1143ZM53.3579 25.1182C52.7671 25.1182 52.2622 24.9964 51.8433 24.7529C51.4243 24.5094 51.1038 24.1585 50.8818 23.7002C50.6598 23.2419 50.5488 22.694 50.5488 22.0566V22.0459C50.5488 21.4121 50.6598 20.8696 50.8818 20.4185C51.1038 19.9673 51.4243 19.6217 51.8433 19.3818C52.2622 19.1383 52.7653 19.0166 53.3525 19.0166C53.8574 19.0166 54.2907 19.1043 54.6523 19.2798C55.0176 19.4517 55.3058 19.6916 55.5171 19.9995C55.7319 20.3039 55.8644 20.6602 55.9146 21.0684V21.0898H54.6523L54.647 21.0737C54.5861 20.7873 54.4465 20.5527 54.228 20.3701C54.0132 20.1875 53.7231 20.0962 53.3579 20.0962C53.0535 20.0962 52.7922 20.1732 52.5737 20.3271C52.3589 20.4811 52.1942 20.7031 52.0796 20.9932C51.965 21.2832 51.9077 21.6341 51.9077 22.0459V22.0566C51.9077 22.472 51.965 22.8283 52.0796 23.1255C52.1978 23.4191 52.3643 23.6447 52.5791 23.8022C52.7939 23.9562 53.0535 24.0332 53.3579 24.0332C53.7052 24.0332 53.9845 23.9544 54.1958 23.7969C54.4106 23.6393 54.5592 23.4066 54.6416 23.0986L54.6523 23.0771L55.9092 23.0718L55.9038 23.1201C55.8394 23.5176 55.6997 23.8667 55.4849 24.1675C55.2736 24.4683 54.9907 24.7028 54.6362 24.8711C54.2817 25.0358 53.8556 25.1182 53.3579 25.1182ZM59.7227 25.1182C59.139 25.1182 58.6359 24.9964 58.2134 24.7529C57.7909 24.5059 57.465 24.1549 57.2358 23.7002C57.0103 23.2454 56.8975 22.7012 56.8975 22.0674V22.0566C56.8975 21.43 57.012 20.8893 57.2412 20.4346C57.4704 19.9762 57.7944 19.6253 58.2134 19.3818C58.6359 19.1383 59.139 19.0166 59.7227 19.0166C60.3063 19.0166 60.8076 19.1383 61.2266 19.3818C61.6491 19.6253 61.9749 19.9744 62.2041 20.4292C62.4333 20.884 62.5479 21.4264 62.5479 22.0566V22.0674C62.5479 22.7012 62.4333 23.2454 62.2041 23.7002C61.9785 24.1549 61.6545 24.5059 61.2319 24.7529C60.813 24.9964 60.3099 25.1182 59.7227 25.1182ZM59.7227 24.0332C60.0306 24.0332 60.292 23.9562 60.5068 23.8022C60.7253 23.6447 60.8918 23.4209 61.0063 23.1309C61.1209 22.8372 61.1782 22.4845 61.1782 22.0728V22.062C61.1782 21.6466 61.1209 21.2939 61.0063 21.0039C60.8918 20.7103 60.7253 20.4865 60.5068 20.3325C60.292 20.175 60.0306 20.0962 59.7227 20.0962C59.4147 20.0962 59.1515 20.175 58.9331 20.3325C58.7147 20.4865 58.5482 20.7103 58.4336 21.0039C58.319 21.2939 58.2617 21.6466 58.2617 22.062V22.0728C58.2617 22.4845 58.319 22.8372 58.4336 23.1309C58.5482 23.4245 58.7129 23.6483 58.9277 23.8022C59.1462 23.9562 59.4111 24.0332 59.7227 24.0332ZM63.8906 25V19.1294H65.228V20.0425H65.3193C65.4447 19.7166 65.647 19.4642 65.9263 19.2852C66.2091 19.1061 66.5439 19.0166 66.9307 19.0166C67.1956 19.0166 67.4338 19.0596 67.645 19.1455C67.8599 19.2314 68.0443 19.3532 68.1982 19.5107C68.3522 19.6683 68.4704 19.8563 68.5527 20.0747H68.6494C68.7461 19.8634 68.8804 19.679 69.0522 19.5215C69.2277 19.3604 69.4318 19.2368 69.6646 19.1509C69.9009 19.0614 70.1551 19.0166 70.4272 19.0166C70.8211 19.0166 71.1577 19.0954 71.437 19.2529C71.7199 19.4069 71.9365 19.6289 72.0869 19.9189C72.2409 20.209 72.3179 20.5563 72.3179 20.9609V25H70.9805V21.2886C70.9805 21.0308 70.9411 20.8177 70.8623 20.6494C70.7871 20.4811 70.6707 20.354 70.5132 20.2681C70.3556 20.1821 70.1569 20.1392 69.917 20.1392C69.6842 20.1392 69.4819 20.1929 69.3101 20.3003C69.1382 20.4041 69.0039 20.5456 68.9072 20.7246C68.8141 20.9036 68.7676 21.106 68.7676 21.3315V25H67.4302V21.1919C67.4302 20.9735 67.3872 20.7855 67.3013 20.6279C67.2189 20.4704 67.0972 20.3504 66.936 20.2681C66.7785 20.1821 66.5905 20.1392 66.3721 20.1392C66.1536 20.1392 65.9567 20.1965 65.7812 20.311C65.6094 20.422 65.4733 20.576 65.373 20.7729C65.2764 20.9663 65.228 21.1847 65.228 21.4282V25H63.8906ZM76.4053 25.1182C75.8216 25.1182 75.3203 24.9946 74.9014 24.7476C74.486 24.5005 74.1655 24.1496 73.9399 23.6948C73.7144 23.2401 73.6016 22.7012 73.6016 22.0781V22.0728C73.6016 21.4569 73.7126 20.9198 73.9346 20.4614C74.1602 20.0031 74.4788 19.6486 74.8906 19.3979C75.3024 19.1437 75.7858 19.0166 76.3408 19.0166C76.8994 19.0166 77.3792 19.1401 77.7803 19.3872C78.1849 19.6307 78.4964 19.9727 78.7148 20.4131C78.9333 20.8535 79.0425 21.3691 79.0425 21.96V22.4004H74.2729V21.5034H78.3872L77.7534 22.3413V21.8096C77.7534 21.4193 77.6943 21.0952 77.5762 20.8374C77.458 20.5796 77.2933 20.3862 77.082 20.2573C76.8743 20.1284 76.6326 20.064 76.3569 20.064C76.0812 20.064 75.8359 20.132 75.6211 20.2681C75.4098 20.4006 75.2415 20.5975 75.1162 20.8589C74.9945 21.1167 74.9336 21.4336 74.9336 21.8096V22.3467C74.9336 22.7083 74.9945 23.0181 75.1162 23.2759C75.238 23.5301 75.4098 23.7271 75.6318 23.8667C75.8574 24.0028 76.1242 24.0708 76.4321 24.0708C76.672 24.0708 76.8779 24.0368 77.0498 23.9688C77.2253 23.8971 77.3667 23.813 77.4741 23.7163C77.5815 23.616 77.6567 23.5212 77.6997 23.4316L77.7158 23.394H78.9834L78.9727 23.4424C78.9261 23.6322 78.8402 23.8255 78.7148 24.0225C78.5931 24.2158 78.4266 24.3966 78.2153 24.5649C78.0076 24.7297 77.7534 24.8639 77.4526 24.9678C77.1519 25.068 76.8027 25.1182 76.4053 25.1182ZM88.8501 25L85.0044 20.7944C84.7358 20.4972 84.521 20.2412 84.3599 20.0264C84.2023 19.8079 84.0895 19.6092 84.0215 19.4302C83.957 19.2511 83.9248 19.0703 83.9248 18.8877V18.877C83.9248 18.5332 84.0161 18.2271 84.1987 17.9585C84.3849 17.6899 84.6374 17.4805 84.9561 17.3301C85.2783 17.1797 85.6418 17.1045 86.0464 17.1045C86.4546 17.1045 86.8162 17.1797 87.1313 17.3301C87.4465 17.4805 87.6935 17.6882 87.8726 17.9531C88.0552 18.2181 88.1465 18.5207 88.1465 18.8608V18.8716C88.1465 19.1366 88.0874 19.3854 87.9692 19.6182C87.8547 19.8509 87.6685 20.0783 87.4106 20.3003C87.1528 20.5187 86.8127 20.7389 86.3901 20.9609L85.7402 20.2949C86.0518 20.1338 86.297 19.9834 86.4761 19.8438C86.6587 19.7005 86.7894 19.5573 86.8682 19.4141C86.9469 19.2673 86.9863 19.1097 86.9863 18.9414V18.9307C86.9863 18.7588 86.9469 18.6066 86.8682 18.4741C86.7894 18.3416 86.6802 18.2378 86.5405 18.1626C86.4009 18.0874 86.238 18.0498 86.0518 18.0498C85.8727 18.0498 85.7134 18.0874 85.5737 18.1626C85.4341 18.2378 85.3231 18.3416 85.2407 18.4741C85.1619 18.603 85.1226 18.7552 85.1226 18.9307V18.9414C85.1226 19.0667 85.1476 19.1903 85.1978 19.312C85.2479 19.4302 85.3356 19.568 85.4609 19.7256C85.5863 19.8831 85.7581 20.0783 85.9766 20.311L90.4077 24.9946V25H88.8501ZM85.7671 25.145C85.23 25.145 84.7591 25.0537 84.3545 24.8711C83.9535 24.6885 83.6419 24.4342 83.4199 24.1084C83.1979 23.779 83.0869 23.3958 83.0869 22.959V22.9482C83.0869 22.4935 83.2087 22.0942 83.4521 21.7505C83.6956 21.4067 84.0716 21.1042 84.5801 20.8428L85.0366 20.6011L85.7026 21.3369L85.3213 21.5303C85.0133 21.6842 84.777 21.874 84.6123 22.0996C84.4512 22.3216 84.3706 22.5705 84.3706 22.8462V22.8569C84.3706 23.1076 84.4351 23.3296 84.564 23.5229C84.6929 23.7127 84.8719 23.8613 85.1011 23.9688C85.3302 24.0726 85.597 24.1245 85.9014 24.1245C86.195 24.1245 86.4635 24.0851 86.707 24.0063C86.9505 23.924 87.1672 23.8094 87.3569 23.6626C87.5503 23.5158 87.7186 23.3439 87.8618 23.147C88.0731 22.8498 88.2306 22.5096 88.3345 22.1265C88.4383 21.7433 88.4902 21.3315 88.4902 20.8911V20.687H89.6558V20.9609C89.6558 21.5697 89.5698 22.1318 89.3979 22.6475C89.2297 23.1595 88.9718 23.6053 88.6245 23.9849C88.2987 24.3465 87.8976 24.6312 87.4214 24.8389C86.9451 25.043 86.3937 25.145 85.7671 25.145ZM94.4414 25V17.2495H99.458V18.415H95.8271V20.5151H99.2593V21.6162H95.8271V23.8345H99.458V25H94.4414ZM101.037 25V19.1294H102.375V20.0317H102.466C102.605 19.7131 102.817 19.4642 103.1 19.2852C103.382 19.1061 103.735 19.0166 104.158 19.0166C104.813 19.0166 105.314 19.2064 105.662 19.5859C106.009 19.9655 106.183 20.5044 106.183 21.2026V25H104.845V21.5142C104.845 21.0558 104.749 20.7121 104.555 20.4829C104.365 20.2537 104.068 20.1392 103.664 20.1392C103.399 20.1392 103.169 20.1982 102.976 20.3164C102.783 20.4346 102.634 20.6011 102.53 20.8159C102.426 21.0308 102.375 21.285 102.375 21.5786V25H101.037ZM107.316 25L109.217 22.0889L107.3 19.1294H108.841L110.012 21.165H110.104L111.264 19.1294H112.73L110.829 22.0298L112.751 25H111.248L110.044 22.959H109.953L108.75 25H107.316ZM113.928 26.9497V19.1294H115.265V20.0479H115.356C115.464 19.8366 115.604 19.6558 115.775 19.5054C115.951 19.355 116.153 19.2386 116.382 19.1562C116.611 19.0739 116.864 19.0327 117.14 19.0327C117.63 19.0327 118.055 19.1562 118.413 19.4033C118.774 19.6504 119.054 20.0013 119.25 20.4561C119.451 20.9072 119.551 21.4425 119.551 22.062V22.0728C119.551 22.6958 119.453 23.2329 119.256 23.6841C119.059 24.1353 118.78 24.4844 118.418 24.7314C118.06 24.9749 117.634 25.0967 117.14 25.0967C116.871 25.0967 116.62 25.0555 116.388 24.9731C116.155 24.8872 115.951 24.7673 115.775 24.6133C115.6 24.4593 115.46 24.2767 115.356 24.0654H115.265V26.9497H113.928ZM116.721 23.9688C117.025 23.9688 117.286 23.8936 117.505 23.7432C117.723 23.5892 117.892 23.3708 118.01 23.0879C118.128 22.8014 118.187 22.4631 118.187 22.0728V22.062C118.187 21.6646 118.128 21.3244 118.01 21.0415C117.892 20.7586 117.723 20.542 117.505 20.3916C117.286 20.2376 117.025 20.1606 116.721 20.1606C116.416 20.1606 116.153 20.2376 115.931 20.3916C115.713 20.542 115.543 20.7586 115.421 21.0415C115.303 21.3244 115.244 21.6628 115.244 22.0566V22.0674C115.244 22.4613 115.303 22.8014 115.421 23.0879C115.543 23.3708 115.715 23.5892 115.937 23.7432C116.159 23.8936 116.42 23.9688 116.721 23.9688ZM123.413 25.1182C122.829 25.1182 122.328 24.9946 121.909 24.7476C121.494 24.5005 121.173 24.1496 120.948 23.6948C120.722 23.2401 120.609 22.7012 120.609 22.0781V22.0728C120.609 21.4569 120.72 20.9198 120.942 20.4614C121.168 20.0031 121.487 19.6486 121.898 19.3979C122.31 19.1437 122.794 19.0166 123.349 19.0166C123.907 19.0166 124.387 19.1401 124.788 19.3872C125.193 19.6307 125.504 19.9727 125.723 20.4131C125.941 20.8535 126.05 21.3691 126.05 21.96V22.4004H121.281V21.5034H125.395L124.761 22.3413V21.8096C124.761 21.4193 124.702 21.0952 124.584 20.8374C124.466 20.5796 124.301 20.3862 124.09 20.2573C123.882 20.1284 123.64 20.064 123.365 20.064C123.089 20.064 122.844 20.132 122.629 20.2681C122.418 20.4006 122.249 20.5975 122.124 20.8589C122.002 21.1167 121.941 21.4336 121.941 21.8096V22.3467C121.941 22.7083 122.002 23.0181 122.124 23.2759C122.246 23.5301 122.418 23.7271 122.64 23.8667C122.865 24.0028 123.132 24.0708 123.44 24.0708C123.68 24.0708 123.886 24.0368 124.058 23.9688C124.233 23.8971 124.375 23.813 124.482 23.7163C124.589 23.616 124.665 23.5212 124.708 23.4316L124.724 23.394H125.991L125.98 23.4424C125.934 23.6322 125.848 23.8255 125.723 24.0225C125.601 24.2158 125.434 24.3966 125.223 24.5649C125.015 24.7297 124.761 24.8639 124.46 24.9678C124.16 25.068 123.811 25.1182 123.413 25.1182ZM127.388 25V19.1294H128.725V20.0317H128.816C128.956 19.7131 129.167 19.4642 129.45 19.2852C129.733 19.1061 130.086 19.0166 130.508 19.0166C131.164 19.0166 131.665 19.2064 132.012 19.5859C132.36 19.9655 132.533 20.5044 132.533 21.2026V25H131.196V21.5142C131.196 21.0558 131.099 20.7121 130.906 20.4829C130.716 20.2537 130.419 20.1392 130.014 20.1392C129.749 20.1392 129.52 20.1982 129.327 20.3164C129.133 20.4346 128.985 20.6011 128.881 20.8159C128.777 21.0308 128.725 21.285 128.725 21.5786V25H127.388ZM136.331 25.1182C135.833 25.1182 135.403 25.0483 135.042 24.9087C134.683 24.7655 134.401 24.5685 134.193 24.3179C133.985 24.0636 133.862 23.77 133.822 23.437V23.4263H135.149L135.154 23.437C135.226 23.6411 135.36 23.8076 135.557 23.9365C135.754 24.0654 136.019 24.1299 136.352 24.1299C136.574 24.1299 136.769 24.0994 136.938 24.0386C137.106 23.9741 137.238 23.8864 137.335 23.7754C137.432 23.6644 137.48 23.5355 137.48 23.3887V23.3779C137.48 23.2061 137.41 23.0628 137.271 22.9482C137.131 22.8301 136.9 22.7352 136.578 22.6636L135.627 22.4487C135.255 22.3664 134.947 22.2518 134.703 22.105C134.46 21.9582 134.277 21.7773 134.155 21.5625C134.037 21.3477 133.978 21.097 133.978 20.8105V20.8052C133.978 20.4507 134.076 20.1392 134.273 19.8706C134.474 19.6021 134.751 19.3926 135.106 19.2422C135.46 19.0918 135.869 19.0166 136.331 19.0166C136.807 19.0166 137.217 19.0882 137.561 19.2314C137.904 19.3747 138.173 19.5716 138.366 19.8223C138.56 20.0729 138.671 20.3576 138.699 20.6763V20.687H137.442L137.437 20.6709C137.387 20.4847 137.267 20.3271 137.077 20.1982C136.891 20.0658 136.64 19.9995 136.325 19.9995C136.128 19.9995 135.951 20.0299 135.793 20.0908C135.639 20.1517 135.518 20.2376 135.428 20.3486C135.342 20.4561 135.299 20.5832 135.299 20.73V20.7354C135.299 20.8499 135.328 20.9502 135.385 21.0361C135.446 21.1221 135.541 21.1973 135.67 21.2617C135.799 21.3262 135.969 21.3835 136.18 21.4336L137.131 21.6431C137.707 21.772 138.133 21.9635 138.409 22.2178C138.685 22.472 138.823 22.814 138.823 23.2437V23.2544C138.823 23.6268 138.715 23.9526 138.5 24.2319C138.286 24.5112 137.99 24.7297 137.614 24.8872C137.238 25.0412 136.81 25.1182 136.331 25.1182ZM142.685 25.1182C142.101 25.1182 141.6 24.9946 141.181 24.7476C140.765 24.5005 140.445 24.1496 140.219 23.6948C139.994 23.2401 139.881 22.7012 139.881 22.0781V22.0728C139.881 21.4569 139.992 20.9198 140.214 20.4614C140.439 20.0031 140.758 19.6486 141.17 19.3979C141.582 19.1437 142.065 19.0166 142.62 19.0166C143.179 19.0166 143.659 19.1401 144.06 19.3872C144.464 19.6307 144.776 19.9727 144.994 20.4131C145.213 20.8535 145.322 21.3691 145.322 21.96V22.4004H140.552V21.5034H144.667L144.033 22.3413V21.8096C144.033 21.4193 143.974 21.0952 143.855 20.8374C143.737 20.5796 143.573 20.3862 143.361 20.2573C143.154 20.1284 142.912 20.064 142.636 20.064C142.361 20.064 142.115 20.132 141.9 20.2681C141.689 20.4006 141.521 20.5975 141.396 20.8589C141.274 21.1167 141.213 21.4336 141.213 21.8096V22.3467C141.213 22.7083 141.274 23.0181 141.396 23.2759C141.517 23.5301 141.689 23.7271 141.911 23.8667C142.137 24.0028 142.403 24.0708 142.711 24.0708C142.951 24.0708 143.157 24.0368 143.329 23.9688C143.505 23.8971 143.646 23.813 143.753 23.7163C143.861 23.616 143.936 23.5212 143.979 23.4316L143.995 23.394H145.263L145.252 23.4424C145.205 23.6322 145.119 23.8255 144.994 24.0225C144.872 24.2158 144.706 24.3966 144.495 24.5649C144.287 24.7297 144.033 24.8639 143.732 24.9678C143.431 25.068 143.082 25.1182 142.685 25.1182ZM148.877 25.1182C148.38 25.1182 147.95 25.0483 147.588 24.9087C147.23 24.7655 146.947 24.5685 146.74 24.3179C146.532 24.0636 146.409 23.77 146.369 23.437V23.4263H147.696L147.701 23.437C147.773 23.6411 147.907 23.8076 148.104 23.9365C148.301 24.0654 148.566 24.1299 148.899 24.1299C149.121 24.1299 149.316 24.0994 149.484 24.0386C149.653 23.9741 149.785 23.8864 149.882 23.7754C149.979 23.6644 150.027 23.5355 150.027 23.3887V23.3779C150.027 23.2061 149.957 23.0628 149.817 22.9482C149.678 22.8301 149.447 22.7352 149.125 22.6636L148.174 22.4487C147.801 22.3664 147.493 22.2518 147.25 22.105C147.007 21.9582 146.824 21.7773 146.702 21.5625C146.584 21.3477 146.525 21.097 146.525 20.8105V20.8052C146.525 20.4507 146.623 20.1392 146.82 19.8706C147.021 19.6021 147.298 19.3926 147.653 19.2422C148.007 19.0918 148.416 19.0166 148.877 19.0166C149.354 19.0166 149.764 19.0882 150.107 19.2314C150.451 19.3747 150.72 19.5716 150.913 19.8223C151.106 20.0729 151.217 20.3576 151.246 20.6763V20.687H149.989L149.984 20.6709C149.934 20.4847 149.814 20.3271 149.624 20.1982C149.438 20.0658 149.187 19.9995 148.872 19.9995C148.675 19.9995 148.498 20.0299 148.34 20.0908C148.186 20.1517 148.065 20.2376 147.975 20.3486C147.889 20.4561 147.846 20.5832 147.846 20.73V20.7354C147.846 20.8499 147.875 20.9502 147.932 21.0361C147.993 21.1221 148.088 21.1973 148.217 21.2617C148.346 21.3262 148.516 21.3835 148.727 21.4336L149.678 21.6431C150.254 21.772 150.68 21.9635 150.956 22.2178C151.232 22.472 151.37 22.814 151.37 23.2437V23.2544C151.37 23.6268 151.262 23.9526 151.047 24.2319C150.833 24.5112 150.537 24.7297 150.161 24.8872C149.785 25.0412 149.357 25.1182 148.877 25.1182Z" fill="black"/>
<defs>
<filter id="filter0_dd_384_3224" x="0.5" y="0" width="203" height="94" filterUnits="userSpaceOnUse" color-interpolation-filters="sRGB">
<feFlood flood-opacity="0" result="BackgroundImageFix"/>
<feColorMatrix in="SourceAlpha" type="matrix" values="0 0 0 0 0 0 0 0 0 0 0 0 0 0 0 0 0 0 127 0" result="hardAlpha"/>
<feMorphology radius="0.5" operator="dilate" in="SourceAlpha" result="effect1_dropShadow_384_3224"/>
<feOffset/>
<feComposite in2="hardAlpha" operator="out"/>
<feColorMatrix type="matrix" values="0 0 0 0 0 0 0 0 0 0 0 0 0 0 0 0 0 0 0.05 0"/>
<feBlend mode="normal" in2="BackgroundImageFix" result="effect1_dropShadow_384_3224"/>
<feColorMatrix in="SourceAlpha" type="matrix" values="0 0 0 0 0 0 0 0 0 0 0 0 0 0 0 0 0 0 127 0" result="hardAlpha"/>
<feOffset dy="0.5"/>
<feGaussianBlur stdDeviation="1.25"/>
<feComposite in2="hardAlpha" operator="out"/>
<feColorMatrix type="matrix" values="0 0 0 0 0 0 0 0 0 0 0 0 0 0 0 0 0 0 0.3 0"/>
<feBlend mode="normal" in2="effect1_dropShadow_384_3224" result="effect2_dropShadow_384_3224"/>
<feBlend mode="normal" in="SourceGraphic" in2="effect2_dropShadow_384_3224" result="shape"/>
</filter>
<filter id="filter1_dd_384_3224" x="7.5" y="7" width="28" height="28" filterUnits="userSpaceOnUse" color-interpolation-filters="sRGB">
<feFlood flood-opacity="0" result="BackgroundImageFix"/>
<feColorMatrix in="SourceAlpha" type="matrix" values="0 0 0 0 0 0 0 0 0 0 0 0 0 0 0 0 0 0 127 0" result="hardAlpha"/>
<feMorphology radius="0.5" operator="dilate" in="SourceAlpha" result="effect1_dropShadow_384_3224"/>
<feOffset/>
<feComposite in2="hardAlpha" operator="out"/>
<feColorMatrix type="matrix" values="0 0 0 0 0 0 0 0 0 0 0 0 0 0 0 0 0 0 0.05 0"/>
<feBlend mode="normal" in2="BackgroundImageFix" result="effect1_dropShadow_384_3224"/>
<feColorMatrix in="SourceAlpha" type="matrix" values="0 0 0 0 0 0 0 0 0 0 0 0 0 0 0 0 0 0 127 0" result="hardAlpha"/>
<feOffset dy="0.5"/>
<feGaussianBlur stdDeviation="1.25"/>
<feComposite in2="hardAlpha" operator="out"/>
<feColorMatrix type="matrix" values="0 0 0 0 0 0 0 0 0 0 0 0 0 0 0 0 0 0 0.3 0"/>
<feBlend mode="normal" in2="effect1_dropShadow_384_3224" result="effect2_dropShadow_384_3224"/>
<feBlend mode="normal" in="SourceGraphic" in2="effect2_dropShadow_384_3224" result="shape"/>
</filter>
</defs>
</svg>
