<svg width="422" height="94" viewBox="0 0 422 94" fill="none" xmlns="http://www.w3.org/2000/svg">
<g filter="url(#filter0_dd_384_3233)">
<rect x="3" y="2" width="416" height="89" rx="10" fill="white"/>
</g>
<g filter="url(#filter1_dd_384_3233)">
<rect x="10" y="9" width="23" height="23" rx="7" fill="white"/>
<path d="M17.6201 20.4902C17.125 20.4902 16.6701 20.3675 16.2554 20.1221C15.8407 19.8724 15.5085 19.5423 15.2588 19.1318C15.0091 18.7171 14.8843 18.2601 14.8843 17.7607C14.8843 17.2614 15.007 16.8044 15.2524 16.3896C15.5021 15.9749 15.8343 15.6427 16.249 15.3931C16.6637 15.1434 17.1208 15.0186 17.6201 15.0186C18.1195 15.0186 18.5744 15.1434 18.9849 15.3931C19.3996 15.6427 19.7318 15.9749 19.9814 16.3896C20.2311 16.8044 20.356 17.2614 20.356 17.7607C20.356 18.2601 20.2311 18.7171 19.9814 19.1318C19.7318 19.5423 19.3996 19.8724 18.9849 20.1221C18.5744 20.3675 18.1195 20.4902 17.6201 20.4902ZM17.2964 19.2271C17.436 19.2271 17.5439 19.1678 17.6201 19.0493L18.9468 16.9673C19.0018 16.8784 19.0293 16.7917 19.0293 16.707C19.0293 16.6266 18.9954 16.5568 18.9277 16.4976C18.8643 16.4383 18.7881 16.4087 18.6992 16.4087C18.585 16.4087 18.4897 16.4679 18.4136 16.5864L17.2837 18.4019L16.7886 17.7734C16.7463 17.7184 16.7018 17.6782 16.6553 17.6528C16.613 17.6274 16.5601 17.6147 16.4966 17.6147C16.4119 17.6147 16.3379 17.6465 16.2744 17.71C16.2152 17.7734 16.1855 17.8517 16.1855 17.9448C16.1855 18.0422 16.2131 18.1247 16.2681 18.1924L16.979 19.0493C17.0256 19.1043 17.0721 19.1488 17.1187 19.1826C17.1694 19.2122 17.2287 19.2271 17.2964 19.2271ZM17.6201 27.8408C17.125 27.8408 16.6701 27.716 16.2554 27.4663C15.8407 27.2166 15.5085 26.8844 15.2588 26.4697C15.0091 26.055 14.8843 25.6001 14.8843 25.105C14.8843 24.6056 15.007 24.1486 15.2524 23.7339C15.5021 23.3192 15.8343 22.987 16.249 22.7373C16.6637 22.4876 17.1208 22.3628 17.6201 22.3628C18.1195 22.3628 18.5744 22.4876 18.9849 22.7373C19.3996 22.9827 19.7318 23.3128 19.9814 23.7275C20.2311 24.1423 20.356 24.6014 20.356 25.105C20.356 25.6001 20.2311 26.055 19.9814 26.4697C19.7318 26.8844 19.3996 27.2166 18.9849 27.4663C18.5744 27.716 18.1195 27.8408 17.6201 27.8408ZM17.6201 26.9141C17.946 26.9141 18.2464 26.8315 18.5215 26.6665C18.7965 26.5015 19.0166 26.2814 19.1816 26.0063C19.3467 25.7313 19.4292 25.4308 19.4292 25.105C19.4292 24.7749 19.3467 24.4723 19.1816 24.1973C19.0166 23.9222 18.7965 23.7021 18.5215 23.5371C18.2464 23.3721 17.946 23.2896 17.6201 23.2896C17.2943 23.2896 16.9938 23.3721 16.7188 23.5371C16.4437 23.7021 16.2236 23.9222 16.0586 24.1973C15.8936 24.4723 15.811 24.7749 15.811 25.105C15.811 25.4308 15.8936 25.7313 16.0586 26.0063C16.2236 26.2814 16.4437 26.5015 16.7188 26.6665C16.9938 26.8315 17.2943 26.9141 17.6201 26.9141ZM22.2539 18.2432C22.1185 18.2432 22.0042 18.1966 21.9111 18.1035C21.818 18.0104 21.7715 17.8962 21.7715 17.7607C21.7715 17.6296 21.818 17.5174 21.9111 17.4243C22.0042 17.3312 22.1185 17.2847 22.2539 17.2847H28.627C28.7624 17.2847 28.8766 17.3312 28.9697 17.4243C29.0671 17.5174 29.1157 17.6296 29.1157 17.7607C29.1157 17.8962 29.0671 18.0104 28.9697 18.1035C28.8766 18.1966 28.7624 18.2432 28.627 18.2432H22.2539ZM22.2539 25.5811C22.1185 25.5811 22.0042 25.5345 21.9111 25.4414C21.818 25.3483 21.7715 25.2362 21.7715 25.105C21.7715 24.9696 21.818 24.8553 21.9111 24.7622C22.0042 24.6691 22.1185 24.6226 22.2539 24.6226H28.627C28.7624 24.6226 28.8766 24.6691 28.9697 24.7622C29.0671 24.8553 29.1157 24.9696 29.1157 25.105C29.1157 25.2362 29.0671 25.3483 28.9697 25.4414C28.8766 25.5345 28.7624 25.5811 28.627 25.5811H22.2539Z" fill="#03A200"/>
</g>
<path d="M42.8843 26V19.415H40.4995V18.2495H46.6548V19.415H44.27V26H42.8843ZM48.5078 26.0967C48.139 26.0967 47.8078 26.0251 47.5142 25.8818C47.2241 25.7386 46.995 25.5363 46.8267 25.2749C46.6619 25.0099 46.5796 24.6984 46.5796 24.3403V24.3296C46.5796 23.9823 46.6655 23.6833 46.8374 23.4326C47.0093 23.1784 47.2617 22.9797 47.5947 22.8364C47.9277 22.6932 48.3324 22.609 48.8086 22.584L50.9785 22.4497V23.3306L48.9966 23.4595C48.6206 23.481 48.3431 23.5597 48.1641 23.6958C47.985 23.8319 47.8955 24.0216 47.8955 24.2651V24.2759C47.8955 24.5265 47.9904 24.7217 48.1802 24.8613C48.3735 25.001 48.6188 25.0708 48.916 25.0708C49.1846 25.0708 49.4245 25.0171 49.6357 24.9097C49.847 24.8022 50.0135 24.6572 50.1353 24.4746C50.257 24.2884 50.3179 24.0789 50.3179 23.8462V21.9878C50.3179 21.6942 50.2248 21.4704 50.0386 21.3164C49.8524 21.1589 49.5767 21.0801 49.2114 21.0801C48.9071 21.0801 48.6582 21.1338 48.4648 21.2412C48.2715 21.3451 48.1408 21.4937 48.0728 21.687L48.0674 21.7085H46.8052L46.8105 21.6602C46.8535 21.3307 46.9824 21.0425 47.1973 20.7954C47.4121 20.5483 47.6968 20.3568 48.0513 20.2207C48.4058 20.0846 48.814 20.0166 49.2759 20.0166C49.7843 20.0166 50.214 20.0954 50.5649 20.2529C50.9159 20.4069 51.1826 20.6325 51.3652 20.9297C51.5479 21.2233 51.6392 21.576 51.6392 21.9878V26H50.3179V25.1943H50.2266C50.1191 25.3805 49.9795 25.5417 49.8076 25.6777C49.6393 25.8138 49.446 25.9176 49.2275 25.9893C49.0091 26.0609 48.7692 26.0967 48.5078 26.0967ZM55.4634 26.1182C54.9657 26.1182 54.536 26.0483 54.1743 25.9087C53.8162 25.7655 53.5334 25.5685 53.3257 25.3179C53.118 25.0636 52.9945 24.77 52.9551 24.437V24.4263H54.2817L54.2871 24.437C54.3587 24.6411 54.493 24.8076 54.6899 24.9365C54.8869 25.0654 55.1519 25.1299 55.4849 25.1299C55.7069 25.1299 55.902 25.0994 56.0703 25.0386C56.2386 24.9741 56.3711 24.8864 56.4678 24.7754C56.5645 24.6644 56.6128 24.5355 56.6128 24.3887V24.3779C56.6128 24.2061 56.543 24.0628 56.4033 23.9482C56.2637 23.8301 56.0327 23.7352 55.7104 23.6636L54.7598 23.4487C54.3874 23.3664 54.0794 23.2518 53.8359 23.105C53.5924 22.9582 53.4098 22.7773 53.2881 22.5625C53.1699 22.3477 53.1108 22.097 53.1108 21.8105V21.8052C53.1108 21.4507 53.2093 21.1392 53.4062 20.8706C53.6068 20.6021 53.8843 20.3926 54.2388 20.2422C54.5933 20.0918 55.0015 20.0166 55.4634 20.0166C55.9396 20.0166 56.3496 20.0882 56.6934 20.2314C57.0371 20.3747 57.3057 20.5716 57.499 20.8223C57.6924 21.0729 57.8034 21.3576 57.832 21.6763V21.687H56.5752L56.5698 21.6709C56.5197 21.4847 56.3997 21.3271 56.21 21.1982C56.0238 21.0658 55.7731 20.9995 55.458 20.9995C55.2611 20.9995 55.0838 21.0299 54.9263 21.0908C54.7723 21.1517 54.6506 21.2376 54.561 21.3486C54.4751 21.4561 54.4321 21.5832 54.4321 21.73V21.7354C54.4321 21.8499 54.4608 21.9502 54.5181 22.0361C54.5789 22.1221 54.6738 22.1973 54.8027 22.2617C54.9316 22.3262 55.1017 22.3835 55.313 22.4336L56.2637 22.6431C56.8402 22.772 57.2663 22.9635 57.542 23.2178C57.8177 23.472 57.9556 23.814 57.9556 24.2437V24.2544C57.9556 24.6268 57.8481 24.9526 57.6333 25.2319C57.4185 25.5112 57.123 25.7297 56.7471 25.8872C56.3711 26.0412 55.9432 26.1182 55.4634 26.1182ZM59.3574 26V17.8574H60.6948V26H59.3574ZM63.0474 26L61.0708 23.3359L62.0645 22.5195L64.6533 26H63.0474ZM60.582 24.0557L60.5337 22.541H60.7861L62.9507 20.1294H64.4976L61.9463 22.8096L61.334 23.2876L60.582 24.0557ZM67.6665 26.1182C67.1688 26.1182 66.7391 26.0483 66.3774 25.9087C66.0194 25.7655 65.7365 25.5685 65.5288 25.3179C65.3211 25.0636 65.1976 24.77 65.1582 24.437V24.4263H66.4849L66.4902 24.437C66.5618 24.6411 66.6961 24.8076 66.8931 24.9365C67.09 25.0654 67.355 25.1299 67.688 25.1299C67.91 25.1299 68.1051 25.0994 68.2734 25.0386C68.4417 24.9741 68.5742 24.8864 68.6709 24.7754C68.7676 24.6644 68.8159 24.5355 68.8159 24.3887V24.3779C68.8159 24.2061 68.7461 24.0628 68.6064 23.9482C68.4668 23.8301 68.2358 23.7352 67.9136 23.6636L66.9629 23.4487C66.5905 23.3664 66.2826 23.2518 66.0391 23.105C65.7956 22.9582 65.613 22.7773 65.4912 22.5625C65.373 22.3477 65.314 22.097 65.314 21.8105V21.8052C65.314 21.4507 65.4124 21.1392 65.6094 20.8706C65.8099 20.6021 66.0874 20.3926 66.4419 20.2422C66.7964 20.0918 67.2046 20.0166 67.6665 20.0166C68.1427 20.0166 68.5527 20.0882 68.8965 20.2314C69.2402 20.3747 69.5088 20.5716 69.7021 20.8223C69.8955 21.0729 70.0065 21.3576 70.0352 21.6763V21.687H68.7783L68.7729 21.6709C68.7228 21.4847 68.6029 21.3271 68.4131 21.1982C68.2269 21.0658 67.9762 20.9995 67.6611 20.9995C67.4642 20.9995 67.2869 21.0299 67.1294 21.0908C66.9754 21.1517 66.8537 21.2376 66.7642 21.3486C66.6782 21.4561 66.6353 21.5832 66.6353 21.73V21.7354C66.6353 21.8499 66.6639 21.9502 66.7212 22.0361C66.7821 22.1221 66.877 22.1973 67.0059 22.2617C67.1348 22.3262 67.3049 22.3835 67.5161 22.4336L68.4668 22.6431C69.0433 22.772 69.4694 22.9635 69.7451 23.2178C70.0208 23.472 70.1587 23.814 70.1587 24.2437V24.2544C70.1587 24.6268 70.0513 24.9526 69.8364 25.2319C69.6216 25.5112 69.3262 25.7297 68.9502 25.8872C68.5742 26.0412 68.1463 26.1182 67.6665 26.1182ZM77.8125 26.1934C77.0785 26.1934 76.4447 26.0286 75.9111 25.6992C75.3812 25.3698 74.9712 24.9025 74.6812 24.2974C74.3947 23.6886 74.2515 22.9671 74.2515 22.1328V22.1221C74.2515 21.2842 74.3947 20.5627 74.6812 19.9575C74.9712 19.3488 75.3812 18.8797 75.9111 18.5503C76.4411 18.2209 77.0731 18.0562 77.8071 18.0562C78.3944 18.0562 78.9243 18.1725 79.397 18.4053C79.8696 18.6344 80.2546 18.9531 80.5518 19.3613C80.849 19.766 81.028 20.2314 81.0889 20.7578L81.0835 20.8008H79.73L79.7246 20.7739C79.6602 20.4696 79.5384 20.2046 79.3594 19.979C79.1803 19.7498 78.9583 19.5726 78.6934 19.4473C78.4284 19.3184 78.133 19.2539 77.8071 19.2539C77.3703 19.2539 76.9907 19.3703 76.6685 19.603C76.3462 19.8358 76.0973 20.167 75.9219 20.5967C75.75 21.0228 75.6641 21.5295 75.6641 22.1167V22.1274C75.6641 22.7147 75.75 23.2231 75.9219 23.6528C76.0973 24.0825 76.3462 24.4137 76.6685 24.6465C76.9907 24.8792 77.3721 24.9956 77.8125 24.9956C78.1419 24.9956 78.4373 24.9383 78.6987 24.8237C78.9637 24.7091 79.1839 24.548 79.3594 24.3403C79.5384 24.1291 79.6602 23.882 79.7246 23.5991L79.7354 23.5669H81.0889V23.6099C81.0208 24.1255 80.84 24.5767 80.5464 24.9634C80.2528 25.3501 79.8732 25.6527 79.4077 25.8711C78.9422 26.0859 78.4105 26.1934 77.8125 26.1934ZM85.0312 26.1182C84.4476 26.1182 83.9445 25.9964 83.522 25.7529C83.0994 25.5059 82.7736 25.1549 82.5444 24.7002C82.3188 24.2454 82.2061 23.7012 82.2061 23.0674V23.0566C82.2061 22.43 82.3206 21.8893 82.5498 21.4346C82.779 20.9762 83.103 20.6253 83.522 20.3818C83.9445 20.1383 84.4476 20.0166 85.0312 20.0166C85.6149 20.0166 86.1162 20.1383 86.5352 20.3818C86.9577 20.6253 87.2835 20.9744 87.5127 21.4292C87.7419 21.884 87.8564 22.4264 87.8564 23.0566V23.0674C87.8564 23.7012 87.7419 24.2454 87.5127 24.7002C87.2871 25.1549 86.9631 25.5059 86.5405 25.7529C86.1216 25.9964 85.6185 26.1182 85.0312 26.1182ZM85.0312 25.0332C85.3392 25.0332 85.6006 24.9562 85.8154 24.8022C86.0339 24.6447 86.2004 24.4209 86.3149 24.1309C86.4295 23.8372 86.4868 23.4845 86.4868 23.0728V23.062C86.4868 22.6466 86.4295 22.2939 86.3149 22.0039C86.2004 21.7103 86.0339 21.4865 85.8154 21.3325C85.6006 21.175 85.3392 21.0962 85.0312 21.0962C84.7233 21.0962 84.4601 21.175 84.2417 21.3325C84.0233 21.4865 83.8568 21.7103 83.7422 22.0039C83.6276 22.2939 83.5703 22.6466 83.5703 23.062V23.0728C83.5703 23.4845 83.6276 23.8372 83.7422 24.1309C83.8568 24.4245 84.0215 24.6483 84.2363 24.8022C84.4548 24.9562 84.7197 25.0332 85.0312 25.0332ZM89.1992 26V20.1294H90.5366V21.0425H90.6279C90.7533 20.7166 90.9556 20.4642 91.2349 20.2852C91.5177 20.1061 91.8525 20.0166 92.2393 20.0166C92.5042 20.0166 92.7424 20.0596 92.9536 20.1455C93.1685 20.2314 93.3529 20.3532 93.5068 20.5107C93.6608 20.6683 93.779 20.8563 93.8613 21.0747H93.958C94.0547 20.8634 94.189 20.679 94.3608 20.5215C94.5363 20.3604 94.7404 20.2368 94.9731 20.1509C95.2095 20.0614 95.4637 20.0166 95.7358 20.0166C96.1297 20.0166 96.4663 20.0954 96.7456 20.2529C97.0285 20.4069 97.2451 20.6289 97.3955 20.9189C97.5495 21.209 97.6265 21.5563 97.6265 21.9609V26H96.2891V22.2886C96.2891 22.0308 96.2497 21.8177 96.1709 21.6494C96.0957 21.4811 95.9793 21.354 95.8218 21.2681C95.6642 21.1821 95.4655 21.1392 95.2256 21.1392C94.9928 21.1392 94.7905 21.1929 94.6187 21.3003C94.4468 21.4041 94.3125 21.5456 94.2158 21.7246C94.1227 21.9036 94.0762 22.106 94.0762 22.3315V26H92.7388V22.1919C92.7388 21.9735 92.6958 21.7855 92.6099 21.6279C92.5275 21.4704 92.4058 21.3504 92.2446 21.2681C92.0871 21.1821 91.8991 21.1392 91.6807 21.1392C91.4622 21.1392 91.2653 21.1965 91.0898 21.311C90.918 21.422 90.7819 21.576 90.6816 21.7729C90.585 21.9663 90.5366 22.1847 90.5366 22.4282V26H89.1992ZM99.2002 27.9497V20.1294H100.538V21.0479H100.629C100.736 20.8366 100.876 20.6558 101.048 20.5054C101.223 20.355 101.426 20.2386 101.655 20.1562C101.884 20.0739 102.136 20.0327 102.412 20.0327C102.903 20.0327 103.327 20.1562 103.685 20.4033C104.047 20.6504 104.326 21.0013 104.523 21.4561C104.723 21.9072 104.824 22.4425 104.824 23.062V23.0728C104.824 23.6958 104.725 24.2329 104.528 24.6841C104.331 25.1353 104.052 25.4844 103.69 25.7314C103.332 25.9749 102.906 26.0967 102.412 26.0967C102.144 26.0967 101.893 26.0555 101.66 25.9731C101.427 25.8872 101.223 25.7673 101.048 25.6133C100.872 25.4593 100.733 25.2767 100.629 25.0654H100.538V27.9497H99.2002ZM101.993 24.9688C102.298 24.9688 102.559 24.8936 102.777 24.7432C102.996 24.5892 103.164 24.3708 103.282 24.0879C103.4 23.8014 103.459 23.4631 103.459 23.0728V23.062C103.459 22.6646 103.4 22.3244 103.282 22.0415C103.164 21.7586 102.996 21.542 102.777 21.3916C102.559 21.2376 102.298 21.1606 101.993 21.1606C101.689 21.1606 101.426 21.2376 101.204 21.3916C100.985 21.542 100.815 21.7586 100.693 22.0415C100.575 22.3244 100.516 22.6628 100.516 23.0566V23.0674C100.516 23.4613 100.575 23.8014 100.693 24.0879C100.815 24.3708 100.987 24.5892 101.209 24.7432C101.431 24.8936 101.692 24.9688 101.993 24.9688ZM106.226 26V17.8574H107.563V26H106.226ZM111.758 26.1182C111.174 26.1182 110.673 25.9946 110.254 25.7476C109.839 25.5005 109.518 25.1496 109.292 24.6948C109.067 24.2401 108.954 23.7012 108.954 23.0781V23.0728C108.954 22.4569 109.065 21.9198 109.287 21.4614C109.513 21.0031 109.831 20.6486 110.243 20.3979C110.655 20.1437 111.138 20.0166 111.693 20.0166C112.252 20.0166 112.732 20.1401 113.133 20.3872C113.537 20.6307 113.849 20.9727 114.067 21.4131C114.286 21.8535 114.395 22.3691 114.395 22.96V23.4004H109.625V22.5034H113.74L113.106 23.3413V22.8096C113.106 22.4193 113.047 22.0952 112.929 21.8374C112.811 21.5796 112.646 21.3862 112.435 21.2573C112.227 21.1284 111.985 21.064 111.709 21.064C111.434 21.064 111.188 21.132 110.974 21.2681C110.762 21.4006 110.594 21.5975 110.469 21.8589C110.347 22.1167 110.286 22.4336 110.286 22.8096V23.3467C110.286 23.7083 110.347 24.0181 110.469 24.2759C110.59 24.5301 110.762 24.7271 110.984 24.8667C111.21 25.0028 111.477 25.0708 111.785 25.0708C112.025 25.0708 112.23 25.0368 112.402 24.9688C112.578 24.8971 112.719 24.813 112.827 24.7163C112.934 24.616 113.009 24.5212 113.052 24.4316L113.068 24.394H114.336L114.325 24.4424C114.279 24.6322 114.193 24.8255 114.067 25.0225C113.946 25.2158 113.779 25.3966 113.568 25.5649C113.36 25.7297 113.106 25.8639 112.805 25.9678C112.504 26.068 112.155 26.1182 111.758 26.1182ZM118.042 26.0269C117.369 26.0269 116.884 25.9033 116.586 25.6562C116.289 25.4092 116.141 25.0046 116.141 24.4424V21.166H115.228V20.1294H116.141V18.6899H117.5V20.1294H118.735V21.166H117.5V24.1255C117.5 24.4155 117.56 24.6286 117.682 24.7646C117.807 24.8971 118.008 24.9634 118.284 24.9634C118.38 24.9634 118.459 24.9616 118.52 24.958C118.584 24.9508 118.656 24.9437 118.735 24.9365V25.9678C118.642 25.9857 118.534 26 118.413 26.0107C118.294 26.0215 118.171 26.0269 118.042 26.0269ZM122.532 26.1182C121.949 26.1182 121.447 25.9946 121.028 25.7476C120.613 25.5005 120.292 25.1496 120.067 24.6948C119.841 24.2401 119.729 23.7012 119.729 23.0781V23.0728C119.729 22.4569 119.84 21.9198 120.062 21.4614C120.287 21.0031 120.606 20.6486 121.018 20.3979C121.429 20.1437 121.913 20.0166 122.468 20.0166C123.026 20.0166 123.506 20.1401 123.907 20.3872C124.312 20.6307 124.623 20.9727 124.842 21.4131C125.06 21.8535 125.169 22.3691 125.169 22.96V23.4004H120.4V22.5034H124.514L123.88 23.3413V22.8096C123.88 22.4193 123.821 22.0952 123.703 21.8374C123.585 21.5796 123.42 21.3862 123.209 21.2573C123.001 21.1284 122.76 21.064 122.484 21.064C122.208 21.064 121.963 21.132 121.748 21.2681C121.537 21.4006 121.368 21.5975 121.243 21.8589C121.121 22.1167 121.061 22.4336 121.061 22.8096V23.3467C121.061 23.7083 121.121 24.0181 121.243 24.2759C121.365 24.5301 121.537 24.7271 121.759 24.8667C121.984 25.0028 122.251 25.0708 122.559 25.0708C122.799 25.0708 123.005 25.0368 123.177 24.9688C123.352 24.8971 123.494 24.813 123.601 24.7163C123.708 24.616 123.784 24.5212 123.827 24.4316L123.843 24.394H125.11L125.1 24.4424C125.053 24.6322 124.967 24.8255 124.842 25.0225C124.72 25.2158 124.554 25.3966 124.342 25.5649C124.135 25.7297 123.88 25.8639 123.58 25.9678C123.279 26.068 122.93 26.1182 122.532 26.1182ZM128.623 26.0967C128.136 26.0967 127.712 25.9749 127.35 25.7314C126.988 25.4844 126.709 25.1335 126.512 24.6787C126.315 24.224 126.217 23.6886 126.217 23.0728V23.062C126.217 22.439 126.313 21.9019 126.507 21.4507C126.704 20.9959 126.981 20.6468 127.339 20.4033C127.701 20.1562 128.129 20.0327 128.623 20.0327C128.892 20.0327 129.142 20.0757 129.375 20.1616C129.608 20.244 129.812 20.3621 129.987 20.5161C130.166 20.6701 130.306 20.8527 130.406 21.064H130.503V17.8574H131.835V26H130.503V25.0815H130.406C130.299 25.2928 130.157 25.4754 129.982 25.6294C129.81 25.7798 129.61 25.8962 129.38 25.9785C129.151 26.0573 128.899 26.0967 128.623 26.0967ZM129.042 24.9688C129.346 24.9688 129.608 24.8936 129.826 24.7432C130.048 24.5892 130.218 24.3708 130.336 24.0879C130.458 23.8014 130.519 23.4631 130.519 23.0728V23.062C130.519 22.6681 130.458 22.3298 130.336 22.0469C130.218 21.764 130.048 21.5456 129.826 21.3916C129.608 21.2376 129.346 21.1606 129.042 21.1606C128.741 21.1606 128.48 21.2376 128.258 21.3916C128.039 21.542 127.871 21.7604 127.753 22.0469C127.635 22.3298 127.576 22.6681 127.576 23.062V23.0728C127.576 23.4666 127.635 23.805 127.753 24.0879C127.871 24.3708 128.039 24.5892 128.258 24.7432C128.476 24.8936 128.738 24.9688 129.042 24.9688Z" fill="black"/>
<g filter="url(#filter2_dd_384_3233)">
<rect x="159" y="11" width="251" height="71" rx="8" fill="white"/>
</g>
<path d="M173.136 32.1934C172.484 32.1934 171.92 32.0734 171.444 31.8335C170.968 31.5936 170.599 31.2588 170.337 30.8291C170.08 30.3994 169.951 29.8999 169.951 29.3306V24.2495H171.331V29.2178C171.331 29.5723 171.401 29.8838 171.541 30.1523C171.684 30.4173 171.89 30.625 172.158 30.7754C172.427 30.9222 172.754 30.9956 173.141 30.9956C173.524 30.9956 173.85 30.9222 174.119 30.7754C174.387 30.625 174.591 30.4173 174.731 30.1523C174.871 29.8838 174.94 29.5723 174.94 29.2178V24.2495H176.321V29.3306C176.321 29.8999 176.192 30.3994 175.934 30.8291C175.676 31.2588 175.309 31.5936 174.833 31.8335C174.36 32.0734 173.795 32.1934 173.136 32.1934ZM178.088 33.9497V26.1294H179.425V27.0479H179.517C179.624 26.8366 179.764 26.6558 179.936 26.5054C180.111 26.355 180.313 26.2386 180.542 26.1562C180.772 26.0739 181.024 26.0327 181.3 26.0327C181.79 26.0327 182.215 26.1562 182.573 26.4033C182.934 26.6504 183.214 27.0013 183.411 27.4561C183.611 27.9072 183.711 28.4425 183.711 29.062V29.0728C183.711 29.6958 183.613 30.2329 183.416 30.6841C183.219 31.1353 182.94 31.4844 182.578 31.7314C182.22 31.9749 181.794 32.0967 181.3 32.0967C181.031 32.0967 180.781 32.0555 180.548 31.9731C180.315 31.8872 180.111 31.7673 179.936 31.6133C179.76 31.4593 179.62 31.2767 179.517 31.0654H179.425V33.9497H178.088ZM180.881 30.9688C181.185 30.9688 181.447 30.8936 181.665 30.7432C181.883 30.5892 182.052 30.3708 182.17 30.0879C182.288 29.8014 182.347 29.4631 182.347 29.0728V29.062C182.347 28.6646 182.288 28.3244 182.17 28.0415C182.052 27.7586 181.883 27.542 181.665 27.3916C181.447 27.2376 181.185 27.1606 180.881 27.1606C180.576 27.1606 180.313 27.2376 180.091 27.3916C179.873 27.542 179.703 27.7586 179.581 28.0415C179.463 28.3244 179.404 28.6628 179.404 29.0566V29.0674C179.404 29.4613 179.463 29.8014 179.581 30.0879C179.703 30.3708 179.875 30.5892 180.097 30.7432C180.319 30.8936 180.58 30.9688 180.881 30.9688ZM187.579 32.1182C186.988 32.1182 186.483 31.9964 186.064 31.7529C185.645 31.5094 185.325 31.1585 185.103 30.7002C184.881 30.2419 184.77 29.694 184.77 29.0566V29.0459C184.77 28.4121 184.881 27.8696 185.103 27.4185C185.325 26.9673 185.645 26.6217 186.064 26.3818C186.483 26.1383 186.986 26.0166 187.573 26.0166C188.078 26.0166 188.511 26.1043 188.873 26.2798C189.238 26.4517 189.527 26.6916 189.738 26.9995C189.953 27.3039 190.085 27.6602 190.135 28.0684V28.0898H188.873L188.868 28.0737C188.807 27.7873 188.667 27.5527 188.449 27.3701C188.234 27.1875 187.944 27.0962 187.579 27.0962C187.274 27.0962 187.013 27.1732 186.794 27.3271C186.58 27.4811 186.415 27.7031 186.3 27.9932C186.186 28.2832 186.128 28.6341 186.128 29.0459V29.0566C186.128 29.472 186.186 29.8283 186.3 30.1255C186.418 30.4191 186.585 30.6447 186.8 30.8022C187.015 30.9562 187.274 31.0332 187.579 31.0332C187.926 31.0332 188.205 30.9544 188.417 30.7969C188.631 30.6393 188.78 30.4066 188.862 30.0986L188.873 30.0771L190.13 30.0718L190.125 30.1201C190.06 30.5176 189.92 30.8667 189.706 31.1675C189.494 31.4683 189.211 31.7028 188.857 31.8711C188.502 32.0358 188.076 32.1182 187.579 32.1182ZM193.943 32.1182C193.36 32.1182 192.857 31.9964 192.434 31.7529C192.012 31.5059 191.686 31.1549 191.457 30.7002C191.231 30.2454 191.118 29.7012 191.118 29.0674V29.0566C191.118 28.43 191.233 27.8893 191.462 27.4346C191.691 26.9762 192.015 26.6253 192.434 26.3818C192.857 26.1383 193.36 26.0166 193.943 26.0166C194.527 26.0166 195.028 26.1383 195.447 26.3818C195.87 26.6253 196.196 26.9744 196.425 27.4292C196.654 27.884 196.769 28.4264 196.769 29.0566V29.0674C196.769 29.7012 196.654 30.2454 196.425 30.7002C196.199 31.1549 195.875 31.5059 195.453 31.7529C195.034 31.9964 194.531 32.1182 193.943 32.1182ZM193.943 31.0332C194.251 31.0332 194.513 30.9562 194.728 30.8022C194.946 30.6447 195.112 30.4209 195.227 30.1309C195.342 29.8372 195.399 29.4845 195.399 29.0728V29.062C195.399 28.6466 195.342 28.2939 195.227 28.0039C195.112 27.7103 194.946 27.4865 194.728 27.3325C194.513 27.175 194.251 27.0962 193.943 27.0962C193.635 27.0962 193.372 27.175 193.154 27.3325C192.935 27.4865 192.769 27.7103 192.654 28.0039C192.54 28.2939 192.482 28.6466 192.482 29.062V29.0728C192.482 29.4845 192.54 29.8372 192.654 30.1309C192.769 30.4245 192.934 30.6483 193.148 30.8022C193.367 30.9562 193.632 31.0332 193.943 31.0332ZM198.111 32V26.1294H199.449V27.0425H199.54C199.665 26.7166 199.868 26.4642 200.147 26.2852C200.43 26.1061 200.765 26.0166 201.151 26.0166C201.416 26.0166 201.654 26.0596 201.866 26.1455C202.081 26.2314 202.265 26.3532 202.419 26.5107C202.573 26.6683 202.691 26.8563 202.773 27.0747H202.87C202.967 26.8634 203.101 26.679 203.273 26.5215C203.448 26.3604 203.653 26.2368 203.885 26.1509C204.122 26.0614 204.376 26.0166 204.648 26.0166C205.042 26.0166 205.378 26.0954 205.658 26.2529C205.941 26.4069 206.157 26.6289 206.308 26.9189C206.462 27.209 206.539 27.5563 206.539 27.9609V32H205.201V28.2886C205.201 28.0308 205.162 27.8177 205.083 27.6494C205.008 27.4811 204.891 27.354 204.734 27.2681C204.576 27.1821 204.378 27.1392 204.138 27.1392C203.905 27.1392 203.703 27.1929 203.531 27.3003C203.359 27.4041 203.225 27.5456 203.128 27.7246C203.035 27.9036 202.988 28.106 202.988 28.3315V32H201.651V28.1919C201.651 27.9735 201.608 27.7855 201.522 27.6279C201.44 27.4704 201.318 27.3504 201.157 27.2681C200.999 27.1821 200.811 27.1392 200.593 27.1392C200.374 27.1392 200.177 27.1965 200.002 27.311C199.83 27.422 199.694 27.576 199.594 27.7729C199.497 27.9663 199.449 28.1847 199.449 28.4282V32H198.111ZM208.128 32V26.1294H209.46V32H208.128ZM208.8 25.1465C208.581 25.1465 208.393 25.0695 208.236 24.9155C208.078 24.7616 208 24.5771 208 24.3623C208 24.1403 208.078 23.9541 208.236 23.8037C208.393 23.6497 208.581 23.5728 208.8 23.5728C209.018 23.5728 209.204 23.6497 209.358 23.8037C209.516 23.9541 209.595 24.1403 209.595 24.3623C209.595 24.5771 209.516 24.7616 209.358 24.9155C209.204 25.0695 209.018 25.1465 208.8 25.1465ZM211.109 32V26.1294H212.447V27.0317H212.538C212.678 26.7131 212.889 26.4642 213.172 26.2852C213.455 26.1061 213.807 26.0166 214.23 26.0166C214.885 26.0166 215.387 26.2064 215.734 26.5859C216.081 26.9655 216.255 27.5044 216.255 28.2026V32H214.917V28.5142C214.917 28.0558 214.821 27.7121 214.627 27.4829C214.438 27.2537 214.14 27.1392 213.736 27.1392C213.471 27.1392 213.242 27.1982 213.048 27.3164C212.855 27.4346 212.706 27.6011 212.603 27.8159C212.499 28.0308 212.447 28.285 212.447 28.5786V32H211.109ZM220.358 34.0625C219.843 34.0625 219.397 33.9945 219.021 33.8584C218.649 33.7223 218.355 33.529 218.14 33.2783C217.925 33.0312 217.795 32.743 217.748 32.4136L217.753 32.3975H219.085L219.096 32.4136C219.139 32.5998 219.27 32.752 219.488 32.8701C219.71 32.9919 220.007 33.0527 220.38 33.0527C220.838 33.0527 221.193 32.9507 221.443 32.7466C221.698 32.5425 221.825 32.2524 221.825 31.8765V30.7485H221.733C221.622 30.9598 221.477 31.1388 221.298 31.2856C221.123 31.4325 220.921 31.5435 220.691 31.6187C220.466 31.6903 220.217 31.7261 219.945 31.7261C219.451 31.7261 219.023 31.6079 218.661 31.3716C218.299 31.1317 218.02 30.8005 217.823 30.3779C217.63 29.9554 217.533 29.4666 217.533 28.9116V28.9009C217.533 28.3351 217.632 27.8374 217.829 27.4077C218.026 26.978 218.305 26.6414 218.667 26.3979C219.032 26.1545 219.467 26.0327 219.972 26.0327C220.244 26.0327 220.493 26.0757 220.718 26.1616C220.947 26.2476 221.148 26.3693 221.32 26.5269C221.495 26.6844 221.639 26.8742 221.75 27.0962H221.819V26.1294H223.157V31.855C223.157 32.3062 223.042 32.6965 222.813 33.0259C222.587 33.3589 222.265 33.6149 221.846 33.7939C221.427 33.973 220.931 34.0625 220.358 34.0625ZM220.358 30.6626C220.666 30.6626 220.931 30.5892 221.153 30.4424C221.375 30.292 221.545 30.0861 221.664 29.8247C221.785 29.5633 221.846 29.259 221.846 28.9116V28.9009C221.846 28.5535 221.785 28.2492 221.664 27.9878C221.545 27.7228 221.375 27.5169 221.153 27.3701C220.931 27.2197 220.666 27.1445 220.358 27.1445C220.047 27.1445 219.782 27.2197 219.563 27.3701C219.349 27.5169 219.184 27.7228 219.069 27.9878C218.958 28.2492 218.903 28.5535 218.903 28.9009V28.9116C218.903 29.2554 218.958 29.5597 219.069 29.8247C219.184 30.0861 219.349 30.292 219.563 30.4424C219.782 30.5892 220.047 30.6626 220.358 30.6626ZM229.795 32V25.415H227.411V24.2495H233.566V25.415H231.181V32H229.795ZM235.419 32.0967C235.05 32.0967 234.719 32.0251 234.425 31.8818C234.135 31.7386 233.906 31.5363 233.738 31.2749C233.573 31.0099 233.491 30.6984 233.491 30.3403V30.3296C233.491 29.9823 233.577 29.6833 233.749 29.4326C233.92 29.1784 234.173 28.9797 234.506 28.8364C234.839 28.6932 235.243 28.609 235.72 28.584L237.89 28.4497V29.3306L235.908 29.4595C235.532 29.481 235.254 29.5597 235.075 29.6958C234.896 29.8319 234.807 30.0216 234.807 30.2651V30.2759C234.807 30.5265 234.902 30.7217 235.091 30.8613C235.285 31.001 235.53 31.0708 235.827 31.0708C236.096 31.0708 236.336 31.0171 236.547 30.9097C236.758 30.8022 236.925 30.6572 237.046 30.4746C237.168 30.2884 237.229 30.0789 237.229 29.8462V27.9878C237.229 27.6942 237.136 27.4704 236.95 27.3164C236.764 27.1589 236.488 27.0801 236.123 27.0801C235.818 27.0801 235.569 27.1338 235.376 27.2412C235.183 27.3451 235.052 27.4937 234.984 27.687L234.979 27.7085H233.716L233.722 27.6602C233.765 27.3307 233.894 27.0425 234.108 26.7954C234.323 26.5483 234.608 26.3568 234.962 26.2207C235.317 26.0846 235.725 26.0166 236.187 26.0166C236.695 26.0166 237.125 26.0954 237.476 26.2529C237.827 26.4069 238.094 26.6325 238.276 26.9297C238.459 27.2233 238.55 27.576 238.55 27.9878V32H237.229V31.1943H237.138C237.03 31.3805 236.891 31.5417 236.719 31.6777C236.55 31.8138 236.357 31.9176 236.139 31.9893C235.92 32.0609 235.68 32.0967 235.419 32.0967ZM242.375 32.1182C241.877 32.1182 241.447 32.0483 241.085 31.9087C240.727 31.7655 240.444 31.5685 240.237 31.3179C240.029 31.0636 239.906 30.77 239.866 30.437V30.4263H241.193L241.198 30.437C241.27 30.6411 241.404 30.8076 241.601 30.9365C241.798 31.0654 242.063 31.1299 242.396 31.1299C242.618 31.1299 242.813 31.0994 242.981 31.0386C243.15 30.9741 243.282 30.8864 243.379 30.7754C243.476 30.6644 243.524 30.5355 243.524 30.3887V30.3779C243.524 30.2061 243.454 30.0628 243.314 29.9482C243.175 29.8301 242.944 29.7352 242.622 29.6636L241.671 29.4487C241.299 29.3664 240.991 29.2518 240.747 29.105C240.504 28.9582 240.321 28.7773 240.199 28.5625C240.081 28.3477 240.022 28.097 240.022 27.8105V27.8052C240.022 27.4507 240.12 27.1392 240.317 26.8706C240.518 26.6021 240.795 26.3926 241.15 26.2422C241.504 26.0918 241.913 26.0166 242.375 26.0166C242.851 26.0166 243.261 26.0882 243.604 26.2314C243.948 26.3747 244.217 26.5716 244.41 26.8223C244.604 27.0729 244.715 27.3576 244.743 27.6763V27.687H243.486L243.481 27.6709C243.431 27.4847 243.311 27.3271 243.121 27.1982C242.935 27.0658 242.684 26.9995 242.369 26.9995C242.172 26.9995 241.995 27.0299 241.837 27.0908C241.683 27.1517 241.562 27.2376 241.472 27.3486C241.386 27.4561 241.343 27.5832 241.343 27.73V27.7354C241.343 27.8499 241.372 27.9502 241.429 28.0361C241.49 28.1221 241.585 28.1973 241.714 28.2617C241.843 28.3262 242.013 28.3835 242.224 28.4336L243.175 28.6431C243.751 28.772 244.177 28.9635 244.453 29.2178C244.729 29.472 244.867 29.814 244.867 30.2437V30.2544C244.867 30.6268 244.759 30.9526 244.544 31.2319C244.33 31.5112 244.034 31.7297 243.658 31.8872C243.282 32.0412 242.854 32.1182 242.375 32.1182ZM246.269 32V23.8574H247.606V32H246.269ZM249.958 32L247.982 29.3359L248.976 28.5195L251.564 32H249.958ZM247.493 30.0557L247.445 28.541H247.697L249.862 26.1294H251.409L248.857 28.8096L248.245 29.2876L247.493 30.0557Z" fill="black"/>
<defs>
<filter id="filter0_dd_384_3233" x="0.5" y="0" width="421" height="94" filterUnits="userSpaceOnUse" color-interpolation-filters="sRGB">
<feFlood flood-opacity="0" result="BackgroundImageFix"/>
<feColorMatrix in="SourceAlpha" type="matrix" values="0 0 0 0 0 0 0 0 0 0 0 0 0 0 0 0 0 0 127 0" result="hardAlpha"/>
<feMorphology radius="0.5" operator="dilate" in="SourceAlpha" result="effect1_dropShadow_384_3233"/>
<feOffset/>
<feComposite in2="hardAlpha" operator="out"/>
<feColorMatrix type="matrix" values="0 0 0 0 0 0 0 0 0 0 0 0 0 0 0 0 0 0 0.05 0"/>
<feBlend mode="normal" in2="BackgroundImageFix" result="effect1_dropShadow_384_3233"/>
<feColorMatrix in="SourceAlpha" type="matrix" values="0 0 0 0 0 0 0 0 0 0 0 0 0 0 0 0 0 0 127 0" result="hardAlpha"/>
<feOffset dy="0.5"/>
<feGaussianBlur stdDeviation="1.25"/>
<feComposite in2="hardAlpha" operator="out"/>
<feColorMatrix type="matrix" values="0 0 0 0 0 0 0 0 0 0 0 0 0 0 0 0 0 0 0.3 0"/>
<feBlend mode="normal" in2="effect1_dropShadow_384_3233" result="effect2_dropShadow_384_3233"/>
<feBlend mode="normal" in="SourceGraphic" in2="effect2_dropShadow_384_3233" result="shape"/>
</filter>
<filter id="filter1_dd_384_3233" x="7.5" y="7" width="28" height="28" filterUnits="userSpaceOnUse" color-interpolation-filters="sRGB">
<feFlood flood-opacity="0" result="BackgroundImageFix"/>
<feColorMatrix in="SourceAlpha" type="matrix" values="0 0 0 0 0 0 0 0 0 0 0 0 0 0 0 0 0 0 127 0" result="hardAlpha"/>
<feMorphology radius="0.5" operator="dilate" in="SourceAlpha" result="effect1_dropShadow_384_3233"/>
<feOffset/>
<feComposite in2="hardAlpha" operator="out"/>
<feColorMatrix type="matrix" values="0 0 0 0 0 0 0 0 0 0 0 0 0 0 0 0 0 0 0.05 0"/>
<feBlend mode="normal" in2="BackgroundImageFix" result="effect1_dropShadow_384_3233"/>
<feColorMatrix in="SourceAlpha" type="matrix" values="0 0 0 0 0 0 0 0 0 0 0 0 0 0 0 0 0 0 127 0" result="hardAlpha"/>
<feOffset dy="0.5"/>
<feGaussianBlur stdDeviation="1.25"/>
<feComposite in2="hardAlpha" operator="out"/>
<feColorMatrix type="matrix" values="0 0 0 0 0 0 0 0 0 0 0 0 0 0 0 0 0 0 0.3 0"/>
<feBlend mode="normal" in2="effect1_dropShadow_384_3233" result="effect2_dropShadow_384_3233"/>
<feBlend mode="normal" in="SourceGraphic" in2="effect2_dropShadow_384_3233" result="shape"/>
</filter>
<filter id="filter2_dd_384_3233" x="156.5" y="9" width="256" height="76" filterUnits="userSpaceOnUse" color-interpolation-filters="sRGB">
<feFlood flood-opacity="0" result="BackgroundImageFix"/>
<feColorMatrix in="SourceAlpha" type="matrix" values="0 0 0 0 0 0 0 0 0 0 0 0 0 0 0 0 0 0 127 0" result="hardAlpha"/>
<feMorphology radius="0.5" operator="dilate" in="SourceAlpha" result="effect1_dropShadow_384_3233"/>
<feOffset/>
<feComposite in2="hardAlpha" operator="out"/>
<feColorMatrix type="matrix" values="0 0 0 0 0 0 0 0 0 0 0 0 0 0 0 0 0 0 0.05 0"/>
<feBlend mode="normal" in2="BackgroundImageFix" result="effect1_dropShadow_384_3233"/>
<feColorMatrix in="SourceAlpha" type="matrix" values="0 0 0 0 0 0 0 0 0 0 0 0 0 0 0 0 0 0 127 0" result="hardAlpha"/>
<feOffset dy="0.5"/>
<feGaussianBlur stdDeviation="1.25"/>
<feComposite in2="hardAlpha" operator="out"/>
<feColorMatrix type="matrix" values="0 0 0 0 0 0 0 0 0 0 0 0 0 0 0 0 0 0 0.3 0"/>
<feBlend mode="normal" in2="effect1_dropShadow_384_3233" result="effect2_dropShadow_384_3233"/>
<feBlend mode="normal" in="SourceGraphic" in2="effect2_dropShadow_384_3233" result="shape"/>
</filter>
</defs>
</svg>
