<svg width="212" height="27" viewBox="0 0 212 27" fill="none" xmlns="http://www.w3.org/2000/svg">
<g filter="url(#filter0_dd_372_4476)">
<rect x="3" y="2" width="206" height="22" rx="5" fill="white"/>
<path d="M11.168 18V8.84033H16.8428V9.86865H12.3105V12.8076H16.6079V13.8232H12.3105V16.9717H16.8428V18H11.168ZM18.7725 18V11.1572H19.877V12.1982H19.9785C20.1309 11.8301 20.3636 11.5444 20.6768 11.3413C20.9941 11.1382 21.3771 11.0366 21.8257 11.0366C22.1346 11.0366 22.4118 11.0874 22.6572 11.189C22.9027 11.2905 23.1143 11.4323 23.292 11.6143C23.4697 11.792 23.6115 11.9993 23.7173 12.2363H23.8188C23.9416 11.9951 24.1066 11.7856 24.314 11.6079C24.5213 11.4259 24.7604 11.2863 25.0312 11.189C25.3063 11.0874 25.6004 11.0366 25.9136 11.0366C26.3791 11.0366 26.7726 11.1234 27.0942 11.2969C27.4201 11.4704 27.6676 11.7243 27.8369 12.0586C28.0062 12.3887 28.0908 12.7928 28.0908 13.271V18H26.9863V13.5249C26.9863 13.1864 26.9334 12.9071 26.8276 12.687C26.7261 12.4627 26.5695 12.2956 26.3579 12.1855C26.1463 12.0713 25.8797 12.0142 25.5581 12.0142C25.2407 12.0142 24.9635 12.0861 24.7266 12.23C24.4896 12.3739 24.3055 12.5664 24.1743 12.8076C24.0431 13.0446 23.9775 13.3091 23.9775 13.6011V18H22.873V13.3535C22.873 13.0827 22.8138 12.8478 22.6953 12.6489C22.5811 12.4458 22.416 12.2892 22.2002 12.1792C21.9886 12.0692 21.7389 12.0142 21.4512 12.0142C21.1549 12.0142 20.8862 12.0924 20.645 12.249C20.408 12.4056 20.2197 12.6172 20.0801 12.8838C19.9447 13.1462 19.877 13.4382 19.877 13.7598V18H18.7725ZM30.084 20.2852V11.1572H31.1885V12.249H31.29C31.4297 11.9951 31.6053 11.7793 31.8169 11.6016C32.0285 11.4196 32.2697 11.2799 32.5405 11.1826C32.8114 11.0853 33.1055 11.0366 33.4229 11.0366C34.0026 11.0366 34.5062 11.1847 34.9336 11.481C35.3652 11.7729 35.6995 12.1834 35.9365 12.7124C36.1735 13.2414 36.292 13.8613 36.292 14.5723V14.585C36.292 15.3001 36.1735 15.9222 35.9365 16.4512C35.6995 16.9801 35.3652 17.3906 34.9336 17.6826C34.5062 17.9746 34.0026 18.1206 33.4229 18.1206C33.1097 18.1206 32.8135 18.0719 32.5342 17.9746C32.2591 17.873 32.0137 17.7334 31.7979 17.5557C31.5863 17.3779 31.417 17.1663 31.29 16.9209H31.1885V20.2852H30.084ZM33.1689 17.1431C33.5879 17.1431 33.9455 17.0415 34.2417 16.8384C34.5379 16.631 34.7643 16.3369 34.9209 15.9561C35.0817 15.571 35.1621 15.1139 35.1621 14.585V14.5723C35.1621 14.0391 35.0817 13.582 34.9209 13.2012C34.7643 12.8203 34.5379 12.5283 34.2417 12.3252C33.9455 12.1178 33.5879 12.0142 33.1689 12.0142C32.7542 12.0142 32.3966 12.1178 32.0962 12.3252C31.7957 12.5326 31.5651 12.8267 31.4043 13.2075C31.2435 13.5884 31.1631 14.0433 31.1631 14.5723V14.585C31.1631 15.1097 31.2435 15.5646 31.4043 15.9497C31.5651 16.3306 31.7957 16.6247 32.0962 16.832C32.3966 17.0394 32.7542 17.1431 33.1689 17.1431ZM38.082 18V8.44043H39.1865V18H38.082ZM44.1187 18.1206C43.4712 18.1206 42.9105 17.9788 42.4365 17.6953C41.9668 17.4076 41.6029 16.9992 41.3447 16.4702C41.0908 15.9412 40.9639 15.3128 40.9639 14.585V14.5723C40.9639 13.8402 41.0908 13.2096 41.3447 12.6807C41.6029 12.1517 41.9668 11.7454 42.4365 11.4619C42.9105 11.1784 43.4712 11.0366 44.1187 11.0366C44.7703 11.0366 45.3311 11.1784 45.8008 11.4619C46.2705 11.7454 46.6323 12.1517 46.8862 12.6807C47.1444 13.2096 47.2734 13.8402 47.2734 14.5723V14.585C47.2734 15.3128 47.1444 15.9412 46.8862 16.4702C46.6323 16.9992 46.2705 17.4076 45.8008 17.6953C45.3311 17.9788 44.7703 18.1206 44.1187 18.1206ZM44.1187 17.1431C44.5503 17.1431 44.9163 17.0415 45.2168 16.8384C45.5173 16.6353 45.7458 16.3433 45.9023 15.9624C46.0632 15.5815 46.1436 15.1224 46.1436 14.585V14.5723C46.1436 14.0306 46.0632 13.5693 45.9023 13.1885C45.7458 12.8076 45.5173 12.5177 45.2168 12.3188C44.9163 12.1157 44.5503 12.0142 44.1187 12.0142C43.687 12.0142 43.321 12.1157 43.0205 12.3188C42.7201 12.5177 42.4894 12.8076 42.3286 13.1885C42.172 13.5693 42.0938 14.0306 42.0938 14.5723V14.585C42.0938 15.1224 42.172 15.5815 42.3286 15.9624C42.4894 16.3433 42.7201 16.6353 43.0205 16.8384C43.321 17.0415 43.687 17.1431 44.1187 17.1431ZM49.3174 20.3994C49.2454 20.3994 49.165 20.3952 49.0762 20.3867C48.9873 20.3825 48.9048 20.374 48.8286 20.3613V19.4536C48.8963 19.4663 48.9704 19.4748 49.0508 19.479C49.1312 19.4832 49.2095 19.4854 49.2856 19.4854C49.5988 19.4854 49.8548 19.4049 50.0537 19.2441C50.2568 19.0833 50.4198 18.8062 50.5425 18.4126L50.6694 18.0063L48.1367 11.1572H49.3174L51.4248 17.4795L50.9868 16.7876H51.5073L51.0693 17.4795L53.1704 11.1572H54.332L51.6597 18.4189C51.4735 18.931 51.2767 19.3309 51.0693 19.6187C50.862 19.9064 50.6187 20.1074 50.3394 20.2217C50.0643 20.3402 49.7236 20.3994 49.3174 20.3994ZM58.3311 18.1206C57.6794 18.1206 57.1187 17.9767 56.6489 17.689C56.1834 17.4012 55.8237 16.995 55.5698 16.4702C55.3201 15.9412 55.1953 15.3192 55.1953 14.604V14.5977C55.1953 13.891 55.3201 13.271 55.5698 12.7378C55.8237 12.2046 56.1813 11.7878 56.6426 11.4873C57.1038 11.1868 57.6434 11.0366 58.2612 11.0366C58.8833 11.0366 59.4165 11.1805 59.8608 11.4683C60.3094 11.756 60.6522 12.158 60.8892 12.6743C61.1304 13.1864 61.251 13.783 61.251 14.4644V14.896H55.7666V14.0137H60.686L60.1401 14.8198V14.3818C60.1401 13.8444 60.0597 13.4022 59.8989 13.0552C59.7381 12.7082 59.516 12.45 59.2324 12.2808C58.9489 12.1073 58.623 12.0205 58.2549 12.0205C57.8867 12.0205 57.5566 12.1115 57.2646 12.2935C56.9769 12.4712 56.7484 12.7357 56.5791 13.0869C56.4098 13.4382 56.3252 13.8698 56.3252 14.3818V14.8198C56.3252 15.3065 56.4077 15.7233 56.5728 16.0703C56.7378 16.4131 56.9727 16.6776 57.2773 16.8638C57.582 17.0457 57.9417 17.1367 58.3564 17.1367C58.6654 17.1367 58.9341 17.0944 59.1626 17.0098C59.3911 16.9251 59.5794 16.8172 59.7275 16.686C59.8757 16.5549 59.9793 16.4215 60.0386 16.2861L60.064 16.229H61.1685L61.1558 16.2798C61.0965 16.5125 60.9907 16.7389 60.8384 16.959C60.6903 17.1748 60.4977 17.3716 60.2607 17.5493C60.0238 17.7228 59.7424 17.8625 59.4165 17.9683C59.0949 18.0698 58.7331 18.1206 58.3311 18.1206ZM65.7578 18.1206C65.1061 18.1206 64.5454 17.9767 64.0757 17.689C63.6102 17.4012 63.2505 16.995 62.9966 16.4702C62.7469 15.9412 62.6221 15.3192 62.6221 14.604V14.5977C62.6221 13.891 62.7469 13.271 62.9966 12.7378C63.2505 12.2046 63.6081 11.7878 64.0693 11.4873C64.5306 11.1868 65.0701 11.0366 65.688 11.0366C66.3101 11.0366 66.8433 11.1805 67.2876 11.4683C67.7362 11.756 68.0789 12.158 68.3159 12.6743C68.5571 13.1864 68.6777 13.783 68.6777 14.4644V14.896H63.1934V14.0137H68.1128L67.5669 14.8198V14.3818C67.5669 13.8444 67.4865 13.4022 67.3257 13.0552C67.1649 12.7082 66.9427 12.45 66.6592 12.2808C66.3757 12.1073 66.0498 12.0205 65.6816 12.0205C65.3135 12.0205 64.9834 12.1115 64.6914 12.2935C64.4036 12.4712 64.1751 12.7357 64.0059 13.0869C63.8366 13.4382 63.752 13.8698 63.752 14.3818V14.8198C63.752 15.3065 63.8345 15.7233 63.9995 16.0703C64.1646 16.4131 64.3994 16.6776 64.7041 16.8638C65.0088 17.0457 65.3685 17.1367 65.7832 17.1367C66.0921 17.1367 66.3608 17.0944 66.5894 17.0098C66.8179 16.9251 67.0062 16.8172 67.1543 16.686C67.3024 16.5549 67.4061 16.4215 67.4653 16.2861L67.4907 16.229H68.5952L68.5825 16.2798C68.5233 16.5125 68.4175 16.7389 68.2651 16.959C68.117 17.1748 67.9245 17.3716 67.6875 17.5493C67.4505 17.7228 67.1691 17.8625 66.8433 17.9683C66.5216 18.0698 66.1598 18.1206 65.7578 18.1206ZM74.1875 18V8.84033H75.3301V18H74.1875ZM77.666 18V8.84033H80.8081C81.7137 8.84033 82.4881 9.0223 83.1313 9.38623C83.7788 9.74593 84.2739 10.2664 84.6167 10.9478C84.9595 11.6291 85.1309 12.45 85.1309 13.4106V13.4233C85.1309 14.384 84.9595 15.207 84.6167 15.8926C84.2739 16.5739 83.7809 17.0965 83.1377 17.4604C82.4945 17.8201 81.7179 18 80.8081 18H77.666ZM78.8086 16.9717H80.7319C81.4132 16.9717 81.9951 16.832 82.4775 16.5527C82.96 16.2734 83.3281 15.8693 83.582 15.3403C83.8359 14.8114 83.9629 14.1766 83.9629 13.436V13.4233C83.9629 12.6785 83.8338 12.0417 83.5757 11.5127C83.3218 10.9795 82.9536 10.5732 82.4712 10.2939C81.9888 10.0104 81.409 9.86865 80.7319 9.86865H78.8086V16.9717Z" fill="black" fill-opacity="0.25"/>
</g>
<defs>
<filter id="filter0_dd_372_4476" x="0.5" y="0" width="211" height="27" filterUnits="userSpaceOnUse" color-interpolation-filters="sRGB">
<feFlood flood-opacity="0" result="BackgroundImageFix"/>
<feColorMatrix in="SourceAlpha" type="matrix" values="0 0 0 0 0 0 0 0 0 0 0 0 0 0 0 0 0 0 127 0" result="hardAlpha"/>
<feMorphology radius="0.5" operator="dilate" in="SourceAlpha" result="effect1_dropShadow_372_4476"/>
<feOffset/>
<feComposite in2="hardAlpha" operator="out"/>
<feColorMatrix type="matrix" values="0 0 0 0 0 0 0 0 0 0 0 0 0 0 0 0 0 0 0.05 0"/>
<feBlend mode="normal" in2="BackgroundImageFix" result="effect1_dropShadow_372_4476"/>
<feColorMatrix in="SourceAlpha" type="matrix" values="0 0 0 0 0 0 0 0 0 0 0 0 0 0 0 0 0 0 127 0" result="hardAlpha"/>
<feOffset dy="0.5"/>
<feGaussianBlur stdDeviation="1.25"/>
<feComposite in2="hardAlpha" operator="out"/>
<feColorMatrix type="matrix" values="0 0 0 0 0 0 0 0 0 0 0 0 0 0 0 0 0 0 0.3 0"/>
<feBlend mode="normal" in2="effect1_dropShadow_372_4476" result="effect2_dropShadow_372_4476"/>
<feBlend mode="normal" in="SourceGraphic" in2="effect2_dropShadow_372_4476" result="shape"/>
</filter>
</defs>
</svg>
