<svg width="93" height="22" viewBox="0 0 93 22" fill="none" xmlns="http://www.w3.org/2000/svg">
<g filter="url(#filter0_dd_666_2139)">
<rect x="1" y="1" width="90" height="20" rx="5" fill="white"/>
<rect x="0.75" y="0.75" width="90.5" height="20.5" rx="5.25" stroke="black" stroke-opacity="0.02" stroke-width="0.5"/>
<path d="M17.8926 16V6.84033H23.5674V7.86865H19.0352V10.8076H23.3325V11.8232H19.0352V14.9717H23.5674V16H17.8926ZM24.9512 16L27.2935 12.5786L24.9258 9.15723H26.2271L27.8521 11.7026H27.9536L29.5596 9.15723H30.7974L28.4741 12.5342L30.8291 16H29.5342L27.9155 13.4165H27.814L26.189 16H24.9512ZM32.3145 18.2852V9.15723H33.4189V10.249H33.5205C33.6602 9.99512 33.8358 9.7793 34.0474 9.60156C34.259 9.4196 34.5002 9.27995 34.771 9.18262C35.0418 9.08529 35.3359 9.03662 35.6533 9.03662C36.2331 9.03662 36.7367 9.18473 37.1641 9.48096C37.5957 9.77295 37.93 10.1834 38.167 10.7124C38.404 11.2414 38.5225 11.8613 38.5225 12.5723V12.585C38.5225 13.3001 38.404 13.9222 38.167 14.4512C37.93 14.9801 37.5957 15.3906 37.1641 15.6826C36.7367 15.9746 36.2331 16.1206 35.6533 16.1206C35.3402 16.1206 35.0439 16.0719 34.7646 15.9746C34.4896 15.873 34.2441 15.7334 34.0283 15.5557C33.8167 15.3779 33.6475 15.1663 33.5205 14.9209H33.4189V18.2852H32.3145ZM35.3994 15.1431C35.8184 15.1431 36.1759 15.0415 36.4722 14.8384C36.7684 14.631 36.9948 14.3369 37.1514 13.9561C37.3122 13.571 37.3926 13.1139 37.3926 12.585V12.5723C37.3926 12.0391 37.3122 11.582 37.1514 11.2012C36.9948 10.8203 36.7684 10.5283 36.4722 10.3252C36.1759 10.1178 35.8184 10.0142 35.3994 10.0142C34.9847 10.0142 34.6271 10.1178 34.3267 10.3252C34.0262 10.5326 33.7956 10.8267 33.6348 11.2075C33.474 11.5884 33.3936 12.0433 33.3936 12.5723V12.585C33.3936 13.1097 33.474 13.5646 33.6348 13.9497C33.7956 14.3306 34.0262 14.6247 34.3267 14.832C34.6271 15.0394 34.9847 15.1431 35.3994 15.1431ZM43.042 16.1206C42.3903 16.1206 41.8296 15.9767 41.3599 15.689C40.8944 15.4012 40.5347 14.995 40.2808 14.4702C40.0311 13.9412 39.9062 13.3192 39.9062 12.604V12.5977C39.9062 11.891 40.0311 11.271 40.2808 10.7378C40.5347 10.2046 40.8923 9.78776 41.3535 9.4873C41.8148 9.18685 42.3543 9.03662 42.9722 9.03662C43.5942 9.03662 44.1274 9.1805 44.5718 9.46826C45.0203 9.75602 45.3631 10.158 45.6001 10.6743C45.8413 11.1864 45.9619 11.783 45.9619 12.4644V12.896H40.4775V12.0137H45.397L44.8511 12.8198V12.3818C44.8511 11.8444 44.7707 11.4022 44.6099 11.0552C44.4491 10.7082 44.2269 10.45 43.9434 10.2808C43.6598 10.1073 43.334 10.0205 42.9658 10.0205C42.5977 10.0205 42.2676 10.1115 41.9756 10.2935C41.6878 10.4712 41.4593 10.7357 41.29 11.0869C41.1208 11.4382 41.0361 11.8698 41.0361 12.3818V12.8198C41.0361 13.3065 41.1187 13.7233 41.2837 14.0703C41.4487 14.4131 41.6836 14.6776 41.9883 14.8638C42.293 15.0457 42.6527 15.1367 43.0674 15.1367C43.3763 15.1367 43.645 15.0944 43.8735 15.0098C44.1021 14.9251 44.2904 14.8172 44.4385 14.686C44.5866 14.5549 44.6903 14.4215 44.7495 14.2861L44.7749 14.229H45.8794L45.8667 14.2798C45.8075 14.5125 45.7017 14.7389 45.5493 14.959C45.4012 15.1748 45.2087 15.3716 44.9717 15.5493C44.7347 15.7228 44.4533 15.8625 44.1274 15.9683C43.8058 16.0698 43.444 16.1206 43.042 16.1206ZM47.6758 16V9.15723H48.7803V10.1855H48.8818C49.0553 9.82161 49.305 9.5402 49.6309 9.34131C49.9567 9.13818 50.3714 9.03662 50.875 9.03662C51.6452 9.03662 52.2355 9.25667 52.646 9.69678C53.0607 10.1326 53.2681 10.7568 53.2681 11.5693V16H52.1636V11.8359C52.1636 11.2181 52.0324 10.7611 51.77 10.4648C51.5119 10.1644 51.1099 10.0142 50.564 10.0142C50.2 10.0142 49.8848 10.0924 49.6182 10.249C49.3516 10.4056 49.1442 10.6278 48.9961 10.9155C48.8522 11.2033 48.7803 11.5482 48.7803 11.9502V16H47.6758ZM57.6162 16.1206C57.1084 16.1206 56.6598 16.0444 56.2705 15.8921C55.8812 15.7355 55.568 15.5176 55.3311 15.2383C55.0983 14.959 54.9608 14.631 54.9185 14.2544H56.0483C56.1414 14.5379 56.3234 14.7664 56.5942 14.9399C56.8651 15.1134 57.2184 15.2002 57.6543 15.2002C57.9632 15.2002 58.234 15.1558 58.4668 15.0669C58.7038 14.9738 58.89 14.849 59.0254 14.6924C59.1608 14.5316 59.2285 14.3475 59.2285 14.1401V14.1274C59.2285 13.8947 59.1354 13.6979 58.9492 13.5371C58.763 13.3721 58.4583 13.2388 58.0352 13.1372L56.9751 12.8833C56.5477 12.7817 56.1965 12.6506 55.9214 12.4897C55.6463 12.3247 55.4432 12.1237 55.312 11.8867C55.1808 11.6455 55.1152 11.362 55.1152 11.0361V11.0298C55.1152 10.6489 55.2253 10.3083 55.4453 10.0078C55.6696 9.70736 55.9743 9.47038 56.3594 9.29688C56.7445 9.12337 57.1782 9.03662 57.6606 9.03662C58.1388 9.03662 58.562 9.11279 58.9302 9.26514C59.3026 9.41325 59.6009 9.62484 59.8252 9.8999C60.0537 10.175 60.1934 10.4987 60.2441 10.8711H59.1587C59.0868 10.6003 58.9217 10.3802 58.6636 10.2109C58.4054 10.0417 58.069 9.95703 57.6543 9.95703C57.3835 9.95703 57.1423 10.0015 56.9307 10.0903C56.7191 10.175 56.5519 10.2935 56.4292 10.4458C56.3065 10.5981 56.2451 10.7759 56.2451 10.979V10.9917C56.2451 11.144 56.2853 11.2795 56.3657 11.3979C56.4461 11.5164 56.571 11.6201 56.7402 11.709C56.9095 11.7979 57.1274 11.8761 57.394 11.9438L58.4478 12.1978C59.091 12.3543 59.5692 12.5786 59.8823 12.8706C60.1997 13.1626 60.3584 13.554 60.3584 14.0449V14.0576C60.3584 14.4639 60.2378 14.8236 59.9966 15.1367C59.7554 15.4456 59.4274 15.6868 59.0127 15.8604C58.6022 16.0339 58.1367 16.1206 57.6162 16.1206ZM64.8652 16.1206C64.2135 16.1206 63.6528 15.9767 63.1831 15.689C62.7176 15.4012 62.3579 14.995 62.104 14.4702C61.8543 13.9412 61.7295 13.3192 61.7295 12.604V12.5977C61.7295 11.891 61.8543 11.271 62.104 10.7378C62.3579 10.2046 62.7155 9.78776 63.1768 9.4873C63.638 9.18685 64.1776 9.03662 64.7954 9.03662C65.4175 9.03662 65.9507 9.1805 66.395 9.46826C66.8436 9.75602 67.1864 10.158 67.4233 10.6743C67.6646 11.1864 67.7852 11.783 67.7852 12.4644V12.896H62.3008V12.0137H67.2202L66.6743 12.8198V12.3818C66.6743 11.8444 66.5939 11.4022 66.4331 11.0552C66.2723 10.7082 66.0501 10.45 65.7666 10.2808C65.4831 10.1073 65.1572 10.0205 64.7891 10.0205C64.4209 10.0205 64.0908 10.1115 63.7988 10.2935C63.5111 10.4712 63.2826 10.7357 63.1133 11.0869C62.944 11.4382 62.8594 11.8698 62.8594 12.3818V12.8198C62.8594 13.3065 62.9419 13.7233 63.1069 14.0703C63.272 14.4131 63.5068 14.6776 63.8115 14.8638C64.1162 15.0457 64.4759 15.1367 64.8906 15.1367C65.1995 15.1367 65.4683 15.0944 65.6968 15.0098C65.9253 14.9251 66.1136 14.8172 66.2617 14.686C66.4098 14.5549 66.5135 14.4215 66.5728 14.2861L66.5981 14.229H67.7026L67.6899 14.2798C67.6307 14.5125 67.5249 14.7389 67.3726 14.959C67.2244 15.1748 67.0319 15.3716 66.7949 15.5493C66.5579 15.7228 66.2765 15.8625 65.9507 15.9683C65.6291 16.0698 65.2673 16.1206 64.8652 16.1206ZM71.8477 16.1206C71.3398 16.1206 70.8913 16.0444 70.502 15.8921C70.1126 15.7355 69.7995 15.5176 69.5625 15.2383C69.3298 14.959 69.1922 14.631 69.1499 14.2544H70.2798C70.3729 14.5379 70.5549 14.7664 70.8257 14.9399C71.0965 15.1134 71.4499 15.2002 71.8857 15.2002C72.1947 15.2002 72.4655 15.1558 72.6982 15.0669C72.9352 14.9738 73.1214 14.849 73.2568 14.6924C73.3923 14.5316 73.46 14.3475 73.46 14.1401V14.1274C73.46 13.8947 73.3669 13.6979 73.1807 13.5371C72.9945 13.3721 72.6898 13.2388 72.2666 13.1372L71.2065 12.8833C70.7791 12.7817 70.4279 12.6506 70.1528 12.4897C69.8778 12.3247 69.6746 12.1237 69.5435 11.8867C69.4123 11.6455 69.3467 11.362 69.3467 11.0361V11.0298C69.3467 10.6489 69.4567 10.3083 69.6768 10.0078C69.901 9.70736 70.2057 9.47038 70.5908 9.29688C70.9759 9.12337 71.4097 9.03662 71.8921 9.03662C72.3703 9.03662 72.7935 9.11279 73.1616 9.26514C73.534 9.41325 73.8324 9.62484 74.0566 9.8999C74.2852 10.175 74.4248 10.4987 74.4756 10.8711H73.3901C73.3182 10.6003 73.1532 10.3802 72.895 10.2109C72.6369 10.0417 72.3005 9.95703 71.8857 9.95703C71.6149 9.95703 71.3737 10.0015 71.1621 10.0903C70.9505 10.175 70.7834 10.2935 70.6606 10.4458C70.5379 10.5981 70.4766 10.7759 70.4766 10.979V10.9917C70.4766 11.144 70.5168 11.2795 70.5972 11.3979C70.6776 11.5164 70.8024 11.6201 70.9717 11.709C71.141 11.7979 71.3589 11.8761 71.6255 11.9438L72.6792 12.1978C73.3224 12.3543 73.8006 12.5786 74.1138 12.8706C74.4312 13.1626 74.5898 13.554 74.5898 14.0449V14.0576C74.5898 14.4639 74.4692 14.8236 74.228 15.1367C73.9868 15.4456 73.6589 15.6868 73.2441 15.8604C72.8337 16.0339 72.3682 16.1206 71.8477 16.1206Z" fill="black" fill-opacity="0.85"/>
</g>
<defs>
<filter id="filter0_dd_666_2139" x="-0.25" y="0.5" width="92.5" height="22.75" filterUnits="userSpaceOnUse" color-interpolation-filters="sRGB">
<feFlood flood-opacity="0" result="BackgroundImageFix"/>
<feColorMatrix in="SourceAlpha" type="matrix" values="0 0 0 0 0 0 0 0 0 0 0 0 0 0 0 0 0 0 127 0" result="hardAlpha"/>
<feOffset dy="1"/>
<feGaussianBlur stdDeviation="0.375"/>
<feColorMatrix type="matrix" values="0 0 0 0 0 0 0 0 0 0 0 0 0 0 0 0 0 0 0.05 0"/>
<feBlend mode="normal" in2="BackgroundImageFix" result="effect1_dropShadow_666_2139"/>
<feColorMatrix in="SourceAlpha" type="matrix" values="0 0 0 0 0 0 0 0 0 0 0 0 0 0 0 0 0 0 127 0" result="hardAlpha"/>
<feOffset dy="0.25"/>
<feGaussianBlur stdDeviation="0.125"/>
<feColorMatrix type="matrix" values="0 0 0 0 0 0 0 0 0 0 0 0 0 0 0 0 0 0 0.15 0"/>
<feBlend mode="normal" in2="effect1_dropShadow_666_2139" result="effect2_dropShadow_666_2139"/>
<feBlend mode="normal" in="SourceGraphic" in2="effect2_dropShadow_666_2139" result="shape"/>
</filter>
</defs>
</svg>
