<svg width="90" height="20" viewBox="0 0 90 20" fill="none" xmlns="http://www.w3.org/2000/svg">
<path d="M23.7861 15V5.84033H24.9287V15H23.7861ZM27.125 15V8.15723H28.2295V9.18555H28.3311C28.5046 8.82161 28.7542 8.5402 29.0801 8.34131C29.4059 8.13818 29.8206 8.03662 30.3242 8.03662C31.0944 8.03662 31.6847 8.25667 32.0952 8.69678C32.5099 9.13265 32.7173 9.75684 32.7173 10.5693V15H31.6128V10.8359C31.6128 10.2181 31.4816 9.76107 31.2192 9.46484C30.9611 9.16439 30.5591 9.01416 30.0132 9.01416C29.6493 9.01416 29.334 9.09245 29.0674 9.24902C28.8008 9.4056 28.5934 9.62777 28.4453 9.91553C28.3014 10.2033 28.2295 10.5482 28.2295 10.9502V15H27.125ZM37.5161 15.1206C36.8771 15.1206 36.3228 14.9746 35.853 14.6826C35.3833 14.3906 35.0194 13.978 34.7612 13.4448C34.5031 12.9116 34.374 12.2832 34.374 11.5596V11.5469C34.374 10.8359 34.501 10.2181 34.7549 9.69336C35.013 9.16862 35.377 8.76237 35.8467 8.47461C36.3164 8.18262 36.8708 8.03662 37.5098 8.03662C38.0641 8.03662 38.5423 8.13395 38.9443 8.32861C39.3464 8.52327 39.668 8.78564 39.9092 9.11572C40.1504 9.44157 40.3049 9.80762 40.3726 10.2139L40.3789 10.252H39.2808L39.2744 10.2329C39.1898 9.89437 38.9972 9.60661 38.6968 9.36963C38.3963 9.13265 38.0007 9.01416 37.5098 9.01416C37.0993 9.01416 36.7438 9.11784 36.4434 9.3252C36.1429 9.53255 35.9102 9.82666 35.7451 10.2075C35.5843 10.5841 35.5039 11.0306 35.5039 11.5469V11.5596C35.5039 12.0843 35.5864 12.5413 35.7515 12.9307C35.9165 13.3158 36.1493 13.6141 36.4497 13.8257C36.7502 14.0373 37.1035 14.1431 37.5098 14.1431C37.971 14.1431 38.3477 14.0436 38.6396 13.8447C38.9316 13.6458 39.1411 13.356 39.2681 12.9751L39.2808 12.937L40.3726 12.9307L40.3599 13.0005C40.2668 13.411 40.1017 13.777 39.8647 14.0986C39.6278 14.416 39.3146 14.6657 38.9253 14.8477C38.536 15.0296 38.0662 15.1206 37.5161 15.1206ZM44.8032 15.1206C44.1558 15.1206 43.5951 14.9788 43.1211 14.6953C42.6514 14.4076 42.2874 13.9992 42.0293 13.4702C41.7754 12.9412 41.6484 12.3128 41.6484 11.585V11.5723C41.6484 10.8402 41.7754 10.2096 42.0293 9.68066C42.2874 9.15169 42.6514 8.74544 43.1211 8.46191C43.5951 8.17839 44.1558 8.03662 44.8032 8.03662C45.4549 8.03662 46.0156 8.17839 46.4854 8.46191C46.9551 8.74544 47.3169 9.15169 47.5708 9.68066C47.8289 10.2096 47.958 10.8402 47.958 11.5723V11.585C47.958 12.3128 47.8289 12.9412 47.5708 13.4702C47.3169 13.9992 46.9551 14.4076 46.4854 14.6953C46.0156 14.9788 45.4549 15.1206 44.8032 15.1206ZM44.8032 14.1431C45.2349 14.1431 45.6009 14.0415 45.9014 13.8384C46.2018 13.6353 46.4303 13.3433 46.5869 12.9624C46.7477 12.5815 46.8281 12.1224 46.8281 11.585V11.5723C46.8281 11.0306 46.7477 10.5693 46.5869 10.1885C46.4303 9.80762 46.2018 9.51774 45.9014 9.31885C45.6009 9.11572 45.2349 9.01416 44.8032 9.01416C44.3716 9.01416 44.0055 9.11572 43.7051 9.31885C43.4046 9.51774 43.174 9.80762 43.0132 10.1885C42.8566 10.5693 42.7783 11.0306 42.7783 11.5723V11.585C42.7783 12.1224 42.8566 12.5815 43.0132 12.9624C43.174 13.3433 43.4046 13.6353 43.7051 13.8384C44.0055 14.0415 44.3716 14.1431 44.8032 14.1431ZM49.6719 15V8.15723H50.7764V9.19824H50.8779C51.0303 8.83008 51.263 8.54443 51.5762 8.34131C51.8936 8.13818 52.2765 8.03662 52.7251 8.03662C53.034 8.03662 53.3112 8.0874 53.5566 8.18896C53.8021 8.29053 54.0137 8.43229 54.1914 8.61426C54.3691 8.79199 54.5109 8.99935 54.6167 9.23633H54.7183C54.841 8.99512 55.006 8.78564 55.2134 8.60791C55.4207 8.42594 55.6598 8.2863 55.9307 8.18896C56.2057 8.0874 56.4998 8.03662 56.813 8.03662C57.2785 8.03662 57.672 8.12337 57.9937 8.29688C58.3195 8.47038 58.5671 8.72428 58.7363 9.05859C58.9056 9.38867 58.9902 9.79281 58.9902 10.271V15H57.8857V10.5249C57.8857 10.1864 57.8328 9.90706 57.7271 9.68701C57.6255 9.46273 57.4689 9.29557 57.2573 9.18555C57.0457 9.07129 56.7791 9.01416 56.4575 9.01416C56.1401 9.01416 55.863 9.0861 55.626 9.22998C55.389 9.37386 55.2049 9.56641 55.0737 9.80762C54.9425 10.0446 54.877 10.3091 54.877 10.6011V15H53.7725V10.3535C53.7725 10.0827 53.7132 9.84782 53.5947 9.64893C53.4805 9.4458 53.3154 9.28923 53.0996 9.1792C52.888 9.06917 52.6383 9.01416 52.3506 9.01416C52.0544 9.01416 51.7856 9.09245 51.5444 9.24902C51.3075 9.4056 51.1191 9.61719 50.9795 9.88379C50.8441 10.1462 50.7764 10.4382 50.7764 10.7598V15H49.6719ZM63.7764 15.1206C63.1247 15.1206 62.564 14.9767 62.0942 14.689C61.6287 14.4012 61.269 13.995 61.0151 13.4702C60.7655 12.9412 60.6406 12.3192 60.6406 11.604V11.5977C60.6406 10.891 60.7655 10.271 61.0151 9.73779C61.269 9.20459 61.6266 8.78776 62.0879 8.4873C62.5492 8.18685 63.0887 8.03662 63.7065 8.03662C64.3286 8.03662 64.8618 8.1805 65.3062 8.46826C65.7547 8.75602 66.0975 9.15804 66.3345 9.67432C66.5757 10.1864 66.6963 10.783 66.6963 11.4644V11.896H61.2119V11.0137H66.1313L65.5854 11.8198V11.3818C65.5854 10.8444 65.505 10.4022 65.3442 10.0552C65.1834 9.70817 64.9613 9.45003 64.6777 9.28076C64.3942 9.10726 64.0684 9.02051 63.7002 9.02051C63.332 9.02051 63.002 9.11149 62.71 9.29346C62.4222 9.47119 62.1937 9.73568 62.0244 10.0869C61.8551 10.4382 61.7705 10.8698 61.7705 11.3818V11.8198C61.7705 12.3065 61.853 12.7233 62.0181 13.0703C62.1831 13.4131 62.418 13.6776 62.7227 13.8638C63.0273 14.0457 63.387 14.1367 63.8018 14.1367C64.1107 14.1367 64.3794 14.0944 64.6079 14.0098C64.8364 13.9251 65.0247 13.8172 65.1729 13.686C65.321 13.5549 65.4246 13.4215 65.4839 13.2861L65.5093 13.229H66.6138L66.6011 13.2798C66.5418 13.5125 66.436 13.7389 66.2837 13.959C66.1356 14.1748 65.943 14.3716 65.7061 14.5493C65.4691 14.7228 65.1877 14.8625 64.8618 14.9683C64.5402 15.0698 64.1784 15.1206 63.7764 15.1206Z" fill="black"/>
</svg>
