<svg width="93" height="22" viewBox="0 0 93 22" fill="none" xmlns="http://www.w3.org/2000/svg">
<g filter="url(#filter0_dd_666_2139)">
<rect x="1" y="1" width="90" height="20" rx="5" fill="white"/>
<rect x="0.75" y="0.75" width="90.5" height="20.5" rx="5.25" stroke="black" stroke-opacity="0.02" stroke-width="0.5"/>
<path d="M24.7861 16V6.84033H25.9287V16H24.7861ZM28.125 16V9.15723H29.2295V10.1855H29.3311C29.5046 9.82161 29.7542 9.5402 30.0801 9.34131C30.4059 9.13818 30.8206 9.03662 31.3242 9.03662C32.0944 9.03662 32.6847 9.25667 33.0952 9.69678C33.5099 10.1326 33.7173 10.7568 33.7173 11.5693V16H32.6128V11.8359C32.6128 11.2181 32.4816 10.7611 32.2192 10.4648C31.9611 10.1644 31.5591 10.0142 31.0132 10.0142C30.6493 10.0142 30.334 10.0924 30.0674 10.249C29.8008 10.4056 29.5934 10.6278 29.4453 10.9155C29.3014 11.2033 29.2295 11.5482 29.2295 11.9502V16H28.125ZM38.5161 16.1206C37.8771 16.1206 37.3228 15.9746 36.853 15.6826C36.3833 15.3906 36.0194 14.978 35.7612 14.4448C35.5031 13.9116 35.374 13.2832 35.374 12.5596V12.5469C35.374 11.8359 35.501 11.2181 35.7549 10.6934C36.013 10.1686 36.377 9.76237 36.8467 9.47461C37.3164 9.18262 37.8708 9.03662 38.5098 9.03662C39.0641 9.03662 39.5423 9.13395 39.9443 9.32861C40.3464 9.52327 40.668 9.78564 40.9092 10.1157C41.1504 10.4416 41.3049 10.8076 41.3726 11.2139L41.3789 11.252H40.2808L40.2744 11.2329C40.1898 10.8944 39.9972 10.6066 39.6968 10.3696C39.3963 10.1326 39.0007 10.0142 38.5098 10.0142C38.0993 10.0142 37.7438 10.1178 37.4434 10.3252C37.1429 10.5326 36.9102 10.8267 36.7451 11.2075C36.5843 11.5841 36.5039 12.0306 36.5039 12.5469V12.5596C36.5039 13.0843 36.5864 13.5413 36.7515 13.9307C36.9165 14.3158 37.1493 14.6141 37.4497 14.8257C37.7502 15.0373 38.1035 15.1431 38.5098 15.1431C38.971 15.1431 39.3477 15.0436 39.6396 14.8447C39.9316 14.6458 40.1411 14.356 40.2681 13.9751L40.2808 13.937L41.3726 13.9307L41.3599 14.0005C41.2668 14.411 41.1017 14.777 40.8647 15.0986C40.6278 15.416 40.3146 15.6657 39.9253 15.8477C39.536 16.0296 39.0662 16.1206 38.5161 16.1206ZM45.8032 16.1206C45.1558 16.1206 44.5951 15.9788 44.1211 15.6953C43.6514 15.4076 43.2874 14.9992 43.0293 14.4702C42.7754 13.9412 42.6484 13.3128 42.6484 12.585V12.5723C42.6484 11.8402 42.7754 11.2096 43.0293 10.6807C43.2874 10.1517 43.6514 9.74544 44.1211 9.46191C44.5951 9.17839 45.1558 9.03662 45.8032 9.03662C46.4549 9.03662 47.0156 9.17839 47.4854 9.46191C47.9551 9.74544 48.3169 10.1517 48.5708 10.6807C48.8289 11.2096 48.958 11.8402 48.958 12.5723V12.585C48.958 13.3128 48.8289 13.9412 48.5708 14.4702C48.3169 14.9992 47.9551 15.4076 47.4854 15.6953C47.0156 15.9788 46.4549 16.1206 45.8032 16.1206ZM45.8032 15.1431C46.2349 15.1431 46.6009 15.0415 46.9014 14.8384C47.2018 14.6353 47.4303 14.3433 47.5869 13.9624C47.7477 13.5815 47.8281 13.1224 47.8281 12.585V12.5723C47.8281 12.0306 47.7477 11.5693 47.5869 11.1885C47.4303 10.8076 47.2018 10.5177 46.9014 10.3188C46.6009 10.1157 46.2349 10.0142 45.8032 10.0142C45.3716 10.0142 45.0055 10.1157 44.7051 10.3188C44.4046 10.5177 44.174 10.8076 44.0132 11.1885C43.8566 11.5693 43.7783 12.0306 43.7783 12.5723V12.585C43.7783 13.1224 43.8566 13.5815 44.0132 13.9624C44.174 14.3433 44.4046 14.6353 44.7051 14.8384C45.0055 15.0415 45.3716 15.1431 45.8032 15.1431ZM50.6719 16V9.15723H51.7764V10.1982H51.8779C52.0303 9.83008 52.263 9.54443 52.5762 9.34131C52.8936 9.13818 53.2765 9.03662 53.7251 9.03662C54.034 9.03662 54.3112 9.0874 54.5566 9.18896C54.8021 9.29053 55.0137 9.43229 55.1914 9.61426C55.3691 9.79199 55.5109 9.99935 55.6167 10.2363H55.7183C55.841 9.99512 56.006 9.78564 56.2134 9.60791C56.4207 9.42594 56.6598 9.2863 56.9307 9.18896C57.2057 9.0874 57.4998 9.03662 57.813 9.03662C58.2785 9.03662 58.672 9.12337 58.9937 9.29688C59.3195 9.47038 59.5671 9.72428 59.7363 10.0586C59.9056 10.3887 59.9902 10.7928 59.9902 11.271V16H58.8857V11.5249C58.8857 11.1864 58.8328 10.9071 58.7271 10.687C58.6255 10.4627 58.4689 10.2956 58.2573 10.1855C58.0457 10.0713 57.7791 10.0142 57.4575 10.0142C57.1401 10.0142 56.863 10.0861 56.626 10.23C56.389 10.3739 56.2049 10.5664 56.0737 10.8076C55.9425 11.0446 55.877 11.3091 55.877 11.6011V16H54.7725V11.3535C54.7725 11.0827 54.7132 10.8478 54.5947 10.6489C54.4805 10.4458 54.3154 10.2892 54.0996 10.1792C53.888 10.0692 53.6383 10.0142 53.3506 10.0142C53.0544 10.0142 52.7856 10.0924 52.5444 10.249C52.3075 10.4056 52.1191 10.6172 51.9795 10.8838C51.8441 11.1462 51.7764 11.4382 51.7764 11.7598V16H50.6719ZM64.7764 16.1206C64.1247 16.1206 63.564 15.9767 63.0942 15.689C62.6287 15.4012 62.269 14.995 62.0151 14.4702C61.7655 13.9412 61.6406 13.3192 61.6406 12.604V12.5977C61.6406 11.891 61.7655 11.271 62.0151 10.7378C62.269 10.2046 62.6266 9.78776 63.0879 9.4873C63.5492 9.18685 64.0887 9.03662 64.7065 9.03662C65.3286 9.03662 65.8618 9.1805 66.3062 9.46826C66.7547 9.75602 67.0975 10.158 67.3345 10.6743C67.5757 11.1864 67.6963 11.783 67.6963 12.4644V12.896H62.2119V12.0137H67.1313L66.5854 12.8198V12.3818C66.5854 11.8444 66.505 11.4022 66.3442 11.0552C66.1834 10.7082 65.9613 10.45 65.6777 10.2808C65.3942 10.1073 65.0684 10.0205 64.7002 10.0205C64.332 10.0205 64.002 10.1115 63.71 10.2935C63.4222 10.4712 63.1937 10.7357 63.0244 11.0869C62.8551 11.4382 62.7705 11.8698 62.7705 12.3818V12.8198C62.7705 13.3065 62.853 13.7233 63.0181 14.0703C63.1831 14.4131 63.418 14.6776 63.7227 14.8638C64.0273 15.0457 64.387 15.1367 64.8018 15.1367C65.1107 15.1367 65.3794 15.0944 65.6079 15.0098C65.8364 14.9251 66.0247 14.8172 66.1729 14.686C66.321 14.5549 66.4246 14.4215 66.4839 14.2861L66.5093 14.229H67.6138L67.6011 14.2798C67.5418 14.5125 67.436 14.7389 67.2837 14.959C67.1356 15.1748 66.943 15.3716 66.7061 15.5493C66.4691 15.7228 66.1877 15.8625 65.8618 15.9683C65.5402 16.0698 65.1784 16.1206 64.7764 16.1206Z" fill="black" fill-opacity="0.85"/>
</g>
<defs>
<filter id="filter0_dd_666_2139" x="-0.25" y="0.5" width="92.5" height="22.75" filterUnits="userSpaceOnUse" color-interpolation-filters="sRGB">
<feFlood flood-opacity="0" result="BackgroundImageFix"/>
<feColorMatrix in="SourceAlpha" type="matrix" values="0 0 0 0 0 0 0 0 0 0 0 0 0 0 0 0 0 0 127 0" result="hardAlpha"/>
<feOffset dy="1"/>
<feGaussianBlur stdDeviation="0.375"/>
<feColorMatrix type="matrix" values="0 0 0 0 0 0 0 0 0 0 0 0 0 0 0 0 0 0 0.05 0"/>
<feBlend mode="normal" in2="BackgroundImageFix" result="effect1_dropShadow_666_2139"/>
<feColorMatrix in="SourceAlpha" type="matrix" values="0 0 0 0 0 0 0 0 0 0 0 0 0 0 0 0 0 0 127 0" result="hardAlpha"/>
<feOffset dy="0.25"/>
<feGaussianBlur stdDeviation="0.125"/>
<feColorMatrix type="matrix" values="0 0 0 0 0 0 0 0 0 0 0 0 0 0 0 0 0 0 0.15 0"/>
<feBlend mode="normal" in2="effect1_dropShadow_666_2139" result="effect2_dropShadow_666_2139"/>
<feBlend mode="normal" in="SourceGraphic" in2="effect2_dropShadow_666_2139" result="shape"/>
</filter>
</defs>
</svg>
