<svg width="301" height="188" viewBox="0 0 301 188" fill="none" xmlns="http://www.w3.org/2000/svg">
<g filter="url(#filter0_dd_652_1877)">
<rect x="3" y="2" width="295" height="183" rx="10" fill="white"/>
</g>
<g filter="url(#filter1_dd_652_1877)">
<rect x="10" y="9" width="23" height="23" rx="7" fill="white"/>
<path d="M15.6763 26.8252V16.0977C15.6763 15.9622 15.7249 15.8438 15.8223 15.7422C15.9238 15.6406 16.0465 15.5898 16.1904 15.5898C16.3301 15.5898 16.4486 15.6406 16.5459 15.7422C16.6475 15.8438 16.6982 15.9622 16.6982 16.0977V26.1333C16.6982 26.2518 16.7575 26.311 16.876 26.311H28.8096C28.9492 26.311 29.0698 26.3597 29.1714 26.457C29.2729 26.5586 29.3237 26.6792 29.3237 26.8188C29.3237 26.9627 29.2729 27.0833 29.1714 27.1807C29.0698 27.278 28.9492 27.3267 28.8096 27.3267H16.1841C16.0317 27.3267 15.909 27.2801 15.8159 27.187C15.7228 27.0981 15.6763 26.9775 15.6763 26.8252ZM16.3428 22.877V22.0073L20.4878 19.6143L23.4141 22.1216L28.1875 19.2778L28.5874 19.9253L23.3633 23.0356L20.4243 20.5156L16.3428 22.877ZM20.3418 21.3726C20.1344 21.3726 19.944 21.3218 19.7705 21.2202C19.6012 21.1187 19.4658 20.9832 19.3643 20.814C19.2627 20.6405 19.2119 20.45 19.2119 20.2427C19.2119 20.0353 19.2627 19.847 19.3643 19.6777C19.4658 19.5042 19.6012 19.3688 19.7705 19.2715C19.944 19.1699 20.1344 19.1191 20.3418 19.1191C20.5492 19.1191 20.7375 19.1699 20.9067 19.2715C21.0802 19.3688 21.2178 19.5042 21.3193 19.6777C21.4209 19.847 21.4717 20.0353 21.4717 20.2427C21.4717 20.45 21.4209 20.6405 21.3193 20.814C21.2178 20.9832 21.0802 21.1187 20.9067 21.2202C20.7375 21.3218 20.5492 21.3726 20.3418 21.3726ZM23.3379 23.7021C23.1305 23.7021 22.9401 23.6514 22.7666 23.5498C22.5973 23.4482 22.4619 23.3128 22.3604 23.1436C22.2588 22.9701 22.208 22.7796 22.208 22.5723C22.208 22.3649 22.2588 22.1766 22.3604 22.0073C22.4619 21.8338 22.5973 21.6984 22.7666 21.6011C22.9401 21.4995 23.1305 21.4487 23.3379 21.4487C23.5452 21.4487 23.7336 21.4995 23.9028 21.6011C24.0763 21.6984 24.2118 21.8338 24.3091 22.0073C24.4106 22.1766 24.4614 22.3649 24.4614 22.5723C24.4614 22.7796 24.4106 22.9701 24.3091 23.1436C24.2118 23.3128 24.0763 23.4482 23.9028 23.5498C23.7336 23.6514 23.5452 23.7021 23.3379 23.7021ZM28.124 20.814C27.9167 20.814 27.7262 20.7632 27.5527 20.6616C27.3835 20.5601 27.248 20.4246 27.1465 20.2554C27.0449 20.0819 26.9941 19.8914 26.9941 19.6841C26.9941 19.4767 27.0449 19.2884 27.1465 19.1191C27.248 18.9456 27.3835 18.8081 27.5527 18.7065C27.7262 18.605 27.9167 18.5542 28.124 18.5542C28.3314 18.5542 28.5197 18.605 28.689 18.7065C28.8625 18.8081 29 18.9456 29.1016 19.1191C29.2031 19.2884 29.2539 19.4767 29.2539 19.6841C29.2539 19.8914 29.2031 20.0819 29.1016 20.2554C29 20.4246 28.8625 20.5601 28.689 20.6616C28.5197 20.7632 28.3314 20.814 28.124 20.814Z" fill="#03A200"/>
</g>
<path d="M40.9561 25V17.2495H45.9727V18.415H42.3418V20.5151H45.7739V21.6162H42.3418V23.8345H45.9727V25H40.9561ZM47.106 25L49.0073 22.0889L47.0898 19.1294H48.6313L49.8022 21.165H49.8936L51.0537 19.1294H52.52L50.6187 22.0298L52.5415 25H51.0376L49.8345 22.959H49.7432L48.54 25H47.106ZM53.7178 26.9497V19.1294H55.0552V20.0479H55.1465C55.2539 19.8366 55.3936 19.6558 55.5654 19.5054C55.7409 19.355 55.9432 19.2386 56.1724 19.1562C56.4015 19.0739 56.654 19.0327 56.9297 19.0327C57.4202 19.0327 57.8446 19.1562 58.2026 19.4033C58.5643 19.6504 58.8436 20.0013 59.0405 20.4561C59.241 20.9072 59.3413 21.4425 59.3413 22.062V22.0728C59.3413 22.6958 59.2428 23.2329 59.0459 23.6841C58.849 24.1353 58.5697 24.4844 58.208 24.7314C57.8499 24.9749 57.4238 25.0967 56.9297 25.0967C56.6611 25.0967 56.4105 25.0555 56.1777 24.9731C55.945 24.8872 55.7409 24.7673 55.5654 24.6133C55.39 24.4593 55.2503 24.2767 55.1465 24.0654H55.0552V26.9497H53.7178ZM56.5107 23.9688C56.8151 23.9688 57.0765 23.8936 57.2949 23.7432C57.5133 23.5892 57.6816 23.3708 57.7998 23.0879C57.918 22.8014 57.9771 22.4631 57.9771 22.0728V22.062C57.9771 21.6646 57.918 21.3244 57.7998 21.0415C57.6816 20.7586 57.5133 20.542 57.2949 20.3916C57.0765 20.2376 56.8151 20.1606 56.5107 20.1606C56.2064 20.1606 55.9432 20.2376 55.7212 20.3916C55.5028 20.542 55.3327 20.7586 55.2109 21.0415C55.0928 21.3244 55.0337 21.6628 55.0337 22.0566V22.0674C55.0337 22.4613 55.0928 22.8014 55.2109 23.0879C55.3327 23.3708 55.5046 23.5892 55.7266 23.7432C55.9486 23.8936 56.21 23.9688 56.5107 23.9688ZM63.2031 25.1182C62.6195 25.1182 62.1182 24.9946 61.6992 24.7476C61.2839 24.5005 60.9634 24.1496 60.7378 23.6948C60.5122 23.2401 60.3994 22.7012 60.3994 22.0781V22.0728C60.3994 21.4569 60.5104 20.9198 60.7324 20.4614C60.958 20.0031 61.2767 19.6486 61.6885 19.3979C62.1003 19.1437 62.5837 19.0166 63.1387 19.0166C63.6973 19.0166 64.1771 19.1401 64.5781 19.3872C64.9827 19.6307 65.2943 19.9727 65.5127 20.4131C65.7311 20.8535 65.8403 21.3691 65.8403 21.96V22.4004H61.0708V21.5034H65.1851L64.5513 22.3413V21.8096C64.5513 21.4193 64.4922 21.0952 64.374 20.8374C64.2559 20.5796 64.0911 20.3862 63.8799 20.2573C63.6722 20.1284 63.4305 20.064 63.1548 20.064C62.8791 20.064 62.6338 20.132 62.4189 20.2681C62.2077 20.4006 62.0394 20.5975 61.9141 20.8589C61.7923 21.1167 61.7314 21.4336 61.7314 21.8096V22.3467C61.7314 22.7083 61.7923 23.0181 61.9141 23.2759C62.0358 23.5301 62.2077 23.7271 62.4297 23.8667C62.6553 24.0028 62.922 24.0708 63.23 24.0708C63.4699 24.0708 63.6758 24.0368 63.8477 23.9688C64.0231 23.8971 64.1646 23.813 64.272 23.7163C64.3794 23.616 64.4546 23.5212 64.4976 23.4316L64.5137 23.394H65.7812L65.7705 23.4424C65.724 23.6322 65.638 23.8255 65.5127 24.0225C65.391 24.2158 65.2244 24.3966 65.0132 24.5649C64.8055 24.7297 64.5513 24.8639 64.2505 24.9678C63.9497 25.068 63.6006 25.1182 63.2031 25.1182ZM67.1777 25V19.1294H68.5151V20.0317H68.6064C68.7461 19.7131 68.9574 19.4642 69.2402 19.2852C69.5231 19.1061 69.8758 19.0166 70.2983 19.0166C70.9536 19.0166 71.4549 19.2064 71.8022 19.5859C72.1496 19.9655 72.3232 20.5044 72.3232 21.2026V25H70.9858V21.5142C70.9858 21.0558 70.8892 20.7121 70.6958 20.4829C70.506 20.2537 70.2088 20.1392 69.8042 20.1392C69.5392 20.1392 69.3101 20.1982 69.1167 20.3164C68.9233 20.4346 68.7747 20.6011 68.6709 20.8159C68.5671 21.0308 68.5151 21.285 68.5151 21.5786V25H67.1777ZM76.1206 25.1182C75.6229 25.1182 75.1932 25.0483 74.8315 24.9087C74.4735 24.7655 74.1906 24.5685 73.9829 24.3179C73.7752 24.0636 73.6517 23.77 73.6123 23.437V23.4263H74.939L74.9443 23.437C75.016 23.6411 75.1502 23.8076 75.3472 23.9365C75.5441 24.0654 75.8091 24.1299 76.1421 24.1299C76.3641 24.1299 76.5592 24.0994 76.7275 24.0386C76.8958 23.9741 77.0283 23.8864 77.125 23.7754C77.2217 23.6644 77.27 23.5355 77.27 23.3887V23.3779C77.27 23.2061 77.2002 23.0628 77.0605 22.9482C76.9209 22.8301 76.6899 22.7352 76.3677 22.6636L75.417 22.4487C75.0446 22.3664 74.7367 22.2518 74.4932 22.105C74.2497 21.9582 74.0671 21.7773 73.9453 21.5625C73.8271 21.3477 73.7681 21.097 73.7681 20.8105V20.8052C73.7681 20.4507 73.8665 20.1392 74.0635 19.8706C74.264 19.6021 74.5415 19.3926 74.896 19.2422C75.2505 19.0918 75.6587 19.0166 76.1206 19.0166C76.5968 19.0166 77.0068 19.0882 77.3506 19.2314C77.6943 19.3747 77.9629 19.5716 78.1562 19.8223C78.3496 20.0729 78.4606 20.3576 78.4893 20.6763V20.687H77.2324L77.2271 20.6709C77.1769 20.4847 77.057 20.3271 76.8672 20.1982C76.681 20.0658 76.4303 19.9995 76.1152 19.9995C75.9183 19.9995 75.741 20.0299 75.5835 20.0908C75.4295 20.1517 75.3078 20.2376 75.2183 20.3486C75.1323 20.4561 75.0894 20.5832 75.0894 20.73V20.7354C75.0894 20.8499 75.118 20.9502 75.1753 21.0361C75.2362 21.1221 75.3311 21.1973 75.46 21.2617C75.5889 21.3262 75.759 21.3835 75.9702 21.4336L76.9209 21.6431C77.4974 21.772 77.9235 21.9635 78.1992 22.2178C78.4749 22.472 78.6128 22.814 78.6128 23.2437V23.2544C78.6128 23.6268 78.5054 23.9526 78.2905 24.2319C78.0757 24.5112 77.7803 24.7297 77.4043 24.8872C77.0283 25.0412 76.6004 25.1182 76.1206 25.1182ZM82.4746 25.1182C81.891 25.1182 81.3896 24.9946 80.9707 24.7476C80.5553 24.5005 80.2349 24.1496 80.0093 23.6948C79.7837 23.2401 79.6709 22.7012 79.6709 22.0781V22.0728C79.6709 21.4569 79.7819 20.9198 80.0039 20.4614C80.2295 20.0031 80.5482 19.6486 80.96 19.3979C81.3717 19.1437 81.8551 19.0166 82.4102 19.0166C82.9688 19.0166 83.4486 19.1401 83.8496 19.3872C84.2542 19.6307 84.5658 19.9727 84.7842 20.4131C85.0026 20.8535 85.1118 21.3691 85.1118 21.96V22.4004H80.3423V21.5034H84.4565L83.8228 22.3413V21.8096C83.8228 21.4193 83.7637 21.0952 83.6455 20.8374C83.5273 20.5796 83.3626 20.3862 83.1514 20.2573C82.9437 20.1284 82.702 20.064 82.4263 20.064C82.1506 20.064 81.9053 20.132 81.6904 20.2681C81.4792 20.4006 81.3109 20.5975 81.1855 20.8589C81.0638 21.1167 81.0029 21.4336 81.0029 21.8096V22.3467C81.0029 22.7083 81.0638 23.0181 81.1855 23.2759C81.3073 23.5301 81.4792 23.7271 81.7012 23.8667C81.9268 24.0028 82.1935 24.0708 82.5015 24.0708C82.7414 24.0708 82.9473 24.0368 83.1191 23.9688C83.2946 23.8971 83.436 23.813 83.5435 23.7163C83.6509 23.616 83.7261 23.5212 83.769 23.4316L83.7852 23.394H85.0527L85.042 23.4424C84.9954 23.6322 84.9095 23.8255 84.7842 24.0225C84.6624 24.2158 84.4959 24.3966 84.2847 24.5649C84.077 24.7297 83.8228 24.8639 83.522 24.9678C83.2212 25.068 82.8721 25.1182 82.4746 25.1182ZM88.6675 25.1182C88.1698 25.1182 87.7401 25.0483 87.3784 24.9087C87.0203 24.7655 86.7375 24.5685 86.5298 24.3179C86.3221 24.0636 86.1986 23.77 86.1592 23.437V23.4263H87.4858L87.4912 23.437C87.5628 23.6411 87.6971 23.8076 87.894 23.9365C88.091 24.0654 88.356 24.1299 88.689 24.1299C88.911 24.1299 89.1061 24.0994 89.2744 24.0386C89.4427 23.9741 89.5752 23.8864 89.6719 23.7754C89.7686 23.6644 89.8169 23.5355 89.8169 23.3887V23.3779C89.8169 23.2061 89.7471 23.0628 89.6074 22.9482C89.4678 22.8301 89.2368 22.7352 88.9146 22.6636L87.9639 22.4487C87.5915 22.3664 87.2835 22.2518 87.04 22.105C86.7965 21.9582 86.6139 21.7773 86.4922 21.5625C86.374 21.3477 86.3149 21.097 86.3149 20.8105V20.8052C86.3149 20.4507 86.4134 20.1392 86.6104 19.8706C86.8109 19.6021 87.0884 19.3926 87.4429 19.2422C87.7974 19.0918 88.2056 19.0166 88.6675 19.0166C89.1437 19.0166 89.5537 19.0882 89.8975 19.2314C90.2412 19.3747 90.5098 19.5716 90.7031 19.8223C90.8965 20.0729 91.0075 20.3576 91.0361 20.6763V20.687H89.7793L89.7739 20.6709C89.7238 20.4847 89.6038 20.3271 89.4141 20.1982C89.2279 20.0658 88.9772 19.9995 88.6621 19.9995C88.4652 19.9995 88.2879 20.0299 88.1304 20.0908C87.9764 20.1517 87.8547 20.2376 87.7651 20.3486C87.6792 20.4561 87.6362 20.5832 87.6362 20.73V20.7354C87.6362 20.8499 87.6649 20.9502 87.7222 21.0361C87.783 21.1221 87.8779 21.1973 88.0068 21.2617C88.1357 21.3262 88.3058 21.3835 88.5171 21.4336L89.4678 21.6431C90.0443 21.772 90.4704 21.9635 90.7461 22.2178C91.0218 22.472 91.1597 22.814 91.1597 23.2437V23.2544C91.1597 23.6268 91.0522 23.9526 90.8374 24.2319C90.6226 24.5112 90.3271 24.7297 89.9512 24.8872C89.5752 25.0412 89.1473 25.1182 88.6675 25.1182Z" fill="black"/>
<defs>
<filter id="filter0_dd_652_1877" x="0.5" y="0" width="300" height="188" filterUnits="userSpaceOnUse" color-interpolation-filters="sRGB">
<feFlood flood-opacity="0" result="BackgroundImageFix"/>
<feColorMatrix in="SourceAlpha" type="matrix" values="0 0 0 0 0 0 0 0 0 0 0 0 0 0 0 0 0 0 127 0" result="hardAlpha"/>
<feMorphology radius="0.5" operator="dilate" in="SourceAlpha" result="effect1_dropShadow_652_1877"/>
<feOffset/>
<feComposite in2="hardAlpha" operator="out"/>
<feColorMatrix type="matrix" values="0 0 0 0 0 0 0 0 0 0 0 0 0 0 0 0 0 0 0.05 0"/>
<feBlend mode="normal" in2="BackgroundImageFix" result="effect1_dropShadow_652_1877"/>
<feColorMatrix in="SourceAlpha" type="matrix" values="0 0 0 0 0 0 0 0 0 0 0 0 0 0 0 0 0 0 127 0" result="hardAlpha"/>
<feOffset dy="0.5"/>
<feGaussianBlur stdDeviation="1.25"/>
<feComposite in2="hardAlpha" operator="out"/>
<feColorMatrix type="matrix" values="0 0 0 0 0 0 0 0 0 0 0 0 0 0 0 0 0 0 0.3 0"/>
<feBlend mode="normal" in2="effect1_dropShadow_652_1877" result="effect2_dropShadow_652_1877"/>
<feBlend mode="normal" in="SourceGraphic" in2="effect2_dropShadow_652_1877" result="shape"/>
</filter>
<filter id="filter1_dd_652_1877" x="7.5" y="7" width="28" height="28" filterUnits="userSpaceOnUse" color-interpolation-filters="sRGB">
<feFlood flood-opacity="0" result="BackgroundImageFix"/>
<feColorMatrix in="SourceAlpha" type="matrix" values="0 0 0 0 0 0 0 0 0 0 0 0 0 0 0 0 0 0 127 0" result="hardAlpha"/>
<feMorphology radius="0.5" operator="dilate" in="SourceAlpha" result="effect1_dropShadow_652_1877"/>
<feOffset/>
<feComposite in2="hardAlpha" operator="out"/>
<feColorMatrix type="matrix" values="0 0 0 0 0 0 0 0 0 0 0 0 0 0 0 0 0 0 0.05 0"/>
<feBlend mode="normal" in2="BackgroundImageFix" result="effect1_dropShadow_652_1877"/>
<feColorMatrix in="SourceAlpha" type="matrix" values="0 0 0 0 0 0 0 0 0 0 0 0 0 0 0 0 0 0 127 0" result="hardAlpha"/>
<feOffset dy="0.5"/>
<feGaussianBlur stdDeviation="1.25"/>
<feComposite in2="hardAlpha" operator="out"/>
<feColorMatrix type="matrix" values="0 0 0 0 0 0 0 0 0 0 0 0 0 0 0 0 0 0 0.3 0"/>
<feBlend mode="normal" in2="effect1_dropShadow_652_1877" result="effect2_dropShadow_652_1877"/>
<feBlend mode="normal" in="SourceGraphic" in2="effect2_dropShadow_652_1877" result="shape"/>
</filter>
</defs>
</svg>
