<svg width="89" height="20" viewBox="0 0 89 20" fill="none" xmlns="http://www.w3.org/2000/svg">
<g style="mix-blend-mode:plus-darker">
<rect y="3" width="1" height="14" rx="0.5" fill="#E8E8E8"/>
</g>
<path d="M17.3926 15V5.84033H23.0674V6.86865H18.5352V9.80762H22.8325V10.8232H18.5352V13.9717H23.0674V15H17.3926ZM24.4512 15L26.7935 11.5786L24.4258 8.15723H25.7271L27.3521 10.7026H27.4536L29.0596 8.15723H30.2974L27.9741 11.5342L30.3291 15H29.0342L27.4155 12.4165H27.314L25.689 15H24.4512ZM31.8145 17.2852V8.15723H32.9189V9.24902H33.0205C33.1602 8.99512 33.3358 8.7793 33.5474 8.60156C33.759 8.4196 34.0002 8.27995 34.271 8.18262C34.5418 8.08529 34.8359 8.03662 35.1533 8.03662C35.7331 8.03662 36.2367 8.18473 36.6641 8.48096C37.0957 8.77295 37.43 9.18343 37.667 9.7124C37.904 10.2414 38.0225 10.8613 38.0225 11.5723V11.585C38.0225 12.3001 37.904 12.9222 37.667 13.4512C37.43 13.9801 37.0957 14.3906 36.6641 14.6826C36.2367 14.9746 35.7331 15.1206 35.1533 15.1206C34.8402 15.1206 34.5439 15.0719 34.2646 14.9746C33.9896 14.873 33.7441 14.7334 33.5283 14.5557C33.3167 14.3779 33.1475 14.1663 33.0205 13.9209H32.9189V17.2852H31.8145ZM34.8994 14.1431C35.3184 14.1431 35.6759 14.0415 35.9722 13.8384C36.2684 13.631 36.4948 13.3369 36.6514 12.9561C36.8122 12.571 36.8926 12.1139 36.8926 11.585V11.5723C36.8926 11.0391 36.8122 10.582 36.6514 10.2012C36.4948 9.82031 36.2684 9.52832 35.9722 9.3252C35.6759 9.11784 35.3184 9.01416 34.8994 9.01416C34.4847 9.01416 34.1271 9.11784 33.8267 9.3252C33.5262 9.53255 33.2956 9.82666 33.1348 10.2075C32.974 10.5884 32.8936 11.0433 32.8936 11.5723V11.585C32.8936 12.1097 32.974 12.5646 33.1348 12.9497C33.2956 13.3306 33.5262 13.6247 33.8267 13.832C34.1271 14.0394 34.4847 14.1431 34.8994 14.1431ZM42.542 15.1206C41.8903 15.1206 41.3296 14.9767 40.8599 14.689C40.3944 14.4012 40.0347 13.995 39.7808 13.4702C39.5311 12.9412 39.4062 12.3192 39.4062 11.604V11.5977C39.4062 10.891 39.5311 10.271 39.7808 9.73779C40.0347 9.20459 40.3923 8.78776 40.8535 8.4873C41.3148 8.18685 41.8543 8.03662 42.4722 8.03662C43.0942 8.03662 43.6274 8.1805 44.0718 8.46826C44.5203 8.75602 44.8631 9.15804 45.1001 9.67432C45.3413 10.1864 45.4619 10.783 45.4619 11.4644V11.896H39.9775V11.0137H44.897L44.3511 11.8198V11.3818C44.3511 10.8444 44.2707 10.4022 44.1099 10.0552C43.9491 9.70817 43.7269 9.45003 43.4434 9.28076C43.1598 9.10726 42.834 9.02051 42.4658 9.02051C42.0977 9.02051 41.7676 9.11149 41.4756 9.29346C41.1878 9.47119 40.9593 9.73568 40.79 10.0869C40.6208 10.4382 40.5361 10.8698 40.5361 11.3818V11.8198C40.5361 12.3065 40.6187 12.7233 40.7837 13.0703C40.9487 13.4131 41.1836 13.6776 41.4883 13.8638C41.793 14.0457 42.1527 14.1367 42.5674 14.1367C42.8763 14.1367 43.145 14.0944 43.3735 14.0098C43.6021 13.9251 43.7904 13.8172 43.9385 13.686C44.0866 13.5549 44.1903 13.4215 44.2495 13.2861L44.2749 13.229H45.3794L45.3667 13.2798C45.3075 13.5125 45.2017 13.7389 45.0493 13.959C44.9012 14.1748 44.7087 14.3716 44.4717 14.5493C44.2347 14.7228 43.9533 14.8625 43.6274 14.9683C43.3058 15.0698 42.944 15.1206 42.542 15.1206ZM47.1758 15V8.15723H48.2803V9.18555H48.3818C48.5553 8.82161 48.805 8.5402 49.1309 8.34131C49.4567 8.13818 49.8714 8.03662 50.375 8.03662C51.1452 8.03662 51.7355 8.25667 52.146 8.69678C52.5607 9.13265 52.7681 9.75684 52.7681 10.5693V15H51.6636V10.8359C51.6636 10.2181 51.5324 9.76107 51.27 9.46484C51.0119 9.16439 50.6099 9.01416 50.064 9.01416C49.7 9.01416 49.3848 9.09245 49.1182 9.24902C48.8516 9.4056 48.6442 9.62777 48.4961 9.91553C48.3522 10.2033 48.2803 10.5482 48.2803 10.9502V15H47.1758ZM57.1162 15.1206C56.6084 15.1206 56.1598 15.0444 55.7705 14.8921C55.3812 14.7355 55.068 14.5176 54.8311 14.2383C54.5983 13.959 54.4608 13.631 54.4185 13.2544H55.5483C55.6414 13.5379 55.8234 13.7664 56.0942 13.9399C56.3651 14.1134 56.7184 14.2002 57.1543 14.2002C57.4632 14.2002 57.734 14.1558 57.9668 14.0669C58.2038 13.9738 58.39 13.849 58.5254 13.6924C58.6608 13.5316 58.7285 13.3475 58.7285 13.1401V13.1274C58.7285 12.8947 58.6354 12.6979 58.4492 12.5371C58.263 12.3721 57.9583 12.2388 57.5352 12.1372L56.4751 11.8833C56.0477 11.7817 55.6965 11.6506 55.4214 11.4897C55.1463 11.3247 54.9432 11.1237 54.812 10.8867C54.6808 10.6455 54.6152 10.362 54.6152 10.0361V10.0298C54.6152 9.64893 54.7253 9.30827 54.9453 9.00781C55.1696 8.70736 55.4743 8.47038 55.8594 8.29688C56.2445 8.12337 56.6782 8.03662 57.1606 8.03662C57.6388 8.03662 58.062 8.11279 58.4302 8.26514C58.8026 8.41325 59.1009 8.62484 59.3252 8.8999C59.5537 9.17497 59.6934 9.4987 59.7441 9.87109H58.6587C58.5868 9.60026 58.4217 9.38021 58.1636 9.21094C57.9054 9.04167 57.569 8.95703 57.1543 8.95703C56.8835 8.95703 56.6423 9.00146 56.4307 9.09033C56.2191 9.17497 56.0519 9.29346 55.9292 9.4458C55.8065 9.59814 55.7451 9.77588 55.7451 9.979V9.9917C55.7451 10.144 55.7853 10.2795 55.8657 10.3979C55.9461 10.5164 56.071 10.6201 56.2402 10.709C56.4095 10.7979 56.6274 10.8761 56.894 10.9438L57.9478 11.1978C58.591 11.3543 59.0692 11.5786 59.3823 11.8706C59.6997 12.1626 59.8584 12.554 59.8584 13.0449V13.0576C59.8584 13.4639 59.7378 13.8236 59.4966 14.1367C59.2554 14.4456 58.9274 14.6868 58.5127 14.8604C58.1022 15.0339 57.6367 15.1206 57.1162 15.1206ZM64.3652 15.1206C63.7135 15.1206 63.1528 14.9767 62.6831 14.689C62.2176 14.4012 61.8579 13.995 61.604 13.4702C61.3543 12.9412 61.2295 12.3192 61.2295 11.604V11.5977C61.2295 10.891 61.3543 10.271 61.604 9.73779C61.8579 9.20459 62.2155 8.78776 62.6768 8.4873C63.138 8.18685 63.6776 8.03662 64.2954 8.03662C64.9175 8.03662 65.4507 8.1805 65.895 8.46826C66.3436 8.75602 66.6864 9.15804 66.9233 9.67432C67.1646 10.1864 67.2852 10.783 67.2852 11.4644V11.896H61.8008V11.0137H66.7202L66.1743 11.8198V11.3818C66.1743 10.8444 66.0939 10.4022 65.9331 10.0552C65.7723 9.70817 65.5501 9.45003 65.2666 9.28076C64.9831 9.10726 64.6572 9.02051 64.2891 9.02051C63.9209 9.02051 63.5908 9.11149 63.2988 9.29346C63.0111 9.47119 62.7826 9.73568 62.6133 10.0869C62.444 10.4382 62.3594 10.8698 62.3594 11.3818V11.8198C62.3594 12.3065 62.4419 12.7233 62.6069 13.0703C62.772 13.4131 63.0068 13.6776 63.3115 13.8638C63.6162 14.0457 63.9759 14.1367 64.3906 14.1367C64.6995 14.1367 64.9683 14.0944 65.1968 14.0098C65.4253 13.9251 65.6136 13.8172 65.7617 13.686C65.9098 13.5549 66.0135 13.4215 66.0728 13.2861L66.0981 13.229H67.2026L67.1899 13.2798C67.1307 13.5125 67.0249 13.7389 66.8726 13.959C66.7244 14.1748 66.5319 14.3716 66.2949 14.5493C66.0579 14.7228 65.7765 14.8625 65.4507 14.9683C65.1291 15.0698 64.7673 15.1206 64.3652 15.1206ZM71.3477 15.1206C70.8398 15.1206 70.3913 15.0444 70.002 14.8921C69.6126 14.7355 69.2995 14.5176 69.0625 14.2383C68.8298 13.959 68.6922 13.631 68.6499 13.2544H69.7798C69.8729 13.5379 70.0549 13.7664 70.3257 13.9399C70.5965 14.1134 70.9499 14.2002 71.3857 14.2002C71.6947 14.2002 71.9655 14.1558 72.1982 14.0669C72.4352 13.9738 72.6214 13.849 72.7568 13.6924C72.8923 13.5316 72.96 13.3475 72.96 13.1401V13.1274C72.96 12.8947 72.8669 12.6979 72.6807 12.5371C72.4945 12.3721 72.1898 12.2388 71.7666 12.1372L70.7065 11.8833C70.2791 11.7817 69.9279 11.6506 69.6528 11.4897C69.3778 11.3247 69.1746 11.1237 69.0435 10.8867C68.9123 10.6455 68.8467 10.362 68.8467 10.0361V10.0298C68.8467 9.64893 68.9567 9.30827 69.1768 9.00781C69.401 8.70736 69.7057 8.47038 70.0908 8.29688C70.4759 8.12337 70.9097 8.03662 71.3921 8.03662C71.8703 8.03662 72.2935 8.11279 72.6616 8.26514C73.034 8.41325 73.3324 8.62484 73.5566 8.8999C73.7852 9.17497 73.9248 9.4987 73.9756 9.87109H72.8901C72.8182 9.60026 72.6532 9.38021 72.395 9.21094C72.1369 9.04167 71.8005 8.95703 71.3857 8.95703C71.1149 8.95703 70.8737 9.00146 70.6621 9.09033C70.4505 9.17497 70.2834 9.29346 70.1606 9.4458C70.0379 9.59814 69.9766 9.77588 69.9766 9.979V9.9917C69.9766 10.144 70.0168 10.2795 70.0972 10.3979C70.1776 10.5164 70.3024 10.6201 70.4717 10.709C70.641 10.7979 70.8589 10.8761 71.1255 10.9438L72.1792 11.1978C72.8224 11.3543 73.3006 11.5786 73.6138 11.8706C73.9312 12.1626 74.0898 12.554 74.0898 13.0449V13.0576C74.0898 13.4639 73.9692 13.8236 73.728 14.1367C73.4868 14.4456 73.1589 14.6868 72.7441 14.8604C72.3337 15.0339 71.8682 15.1206 71.3477 15.1206Z" fill="black"/>
</svg>
