<svg width="301" height="188" viewBox="0 0 301 188" fill="none" xmlns="http://www.w3.org/2000/svg">
<g filter="url(#filter0_dd_413_4220)">
<rect x="3" y="2" width="295" height="183" rx="10" fill="white"/>
</g>
<g filter="url(#filter1_dd_413_4220)">
<rect x="10" y="9" width="23" height="23" rx="7" fill="white"/>
<path d="M15.6763 26.8252V16.0977C15.6763 15.9622 15.7249 15.8438 15.8223 15.7422C15.9238 15.6406 16.0465 15.5898 16.1904 15.5898C16.3301 15.5898 16.4486 15.6406 16.5459 15.7422C16.6475 15.8438 16.6982 15.9622 16.6982 16.0977V26.1333C16.6982 26.2518 16.7575 26.311 16.876 26.311H28.8096C28.9492 26.311 29.0698 26.3597 29.1714 26.457C29.2729 26.5586 29.3237 26.6792 29.3237 26.8188C29.3237 26.9627 29.2729 27.0833 29.1714 27.1807C29.0698 27.278 28.9492 27.3267 28.8096 27.3267H16.1841C16.0317 27.3267 15.909 27.2801 15.8159 27.187C15.7228 27.0981 15.6763 26.9775 15.6763 26.8252ZM16.3428 22.877V22.0073L20.4878 19.6143L23.4141 22.1216L28.1875 19.2778L28.5874 19.9253L23.3633 23.0356L20.4243 20.5156L16.3428 22.877ZM20.3418 21.3726C20.1344 21.3726 19.944 21.3218 19.7705 21.2202C19.6012 21.1187 19.4658 20.9832 19.3643 20.814C19.2627 20.6405 19.2119 20.45 19.2119 20.2427C19.2119 20.0353 19.2627 19.847 19.3643 19.6777C19.4658 19.5042 19.6012 19.3688 19.7705 19.2715C19.944 19.1699 20.1344 19.1191 20.3418 19.1191C20.5492 19.1191 20.7375 19.1699 20.9067 19.2715C21.0802 19.3688 21.2178 19.5042 21.3193 19.6777C21.4209 19.847 21.4717 20.0353 21.4717 20.2427C21.4717 20.45 21.4209 20.6405 21.3193 20.814C21.2178 20.9832 21.0802 21.1187 20.9067 21.2202C20.7375 21.3218 20.5492 21.3726 20.3418 21.3726ZM23.3379 23.7021C23.1305 23.7021 22.9401 23.6514 22.7666 23.5498C22.5973 23.4482 22.4619 23.3128 22.3604 23.1436C22.2588 22.9701 22.208 22.7796 22.208 22.5723C22.208 22.3649 22.2588 22.1766 22.3604 22.0073C22.4619 21.8338 22.5973 21.6984 22.7666 21.6011C22.9401 21.4995 23.1305 21.4487 23.3379 21.4487C23.5452 21.4487 23.7336 21.4995 23.9028 21.6011C24.0763 21.6984 24.2118 21.8338 24.3091 22.0073C24.4106 22.1766 24.4614 22.3649 24.4614 22.5723C24.4614 22.7796 24.4106 22.9701 24.3091 23.1436C24.2118 23.3128 24.0763 23.4482 23.9028 23.5498C23.7336 23.6514 23.5452 23.7021 23.3379 23.7021ZM28.124 20.814C27.9167 20.814 27.7262 20.7632 27.5527 20.6616C27.3835 20.5601 27.248 20.4246 27.1465 20.2554C27.0449 20.0819 26.9941 19.8914 26.9941 19.6841C26.9941 19.4767 27.0449 19.2884 27.1465 19.1191C27.248 18.9456 27.3835 18.8081 27.5527 18.7065C27.7262 18.605 27.9167 18.5542 28.124 18.5542C28.3314 18.5542 28.5197 18.605 28.689 18.7065C28.8625 18.8081 29 18.9456 29.1016 19.1191C29.2031 19.2884 29.2539 19.4767 29.2539 19.6841C29.2539 19.8914 29.2031 20.0819 29.1016 20.2554C29 20.4246 28.8625 20.5601 28.689 20.6616C28.5197 20.7632 28.3314 20.814 28.124 20.814Z" fill="#03A200"/>
</g>
<path d="M40.9561 25V17.2495H42.3418V25H40.9561ZM44.1143 25V19.1294H45.4517V20.0317H45.543C45.6826 19.7131 45.8939 19.4642 46.1768 19.2852C46.4596 19.1061 46.8123 19.0166 47.2349 19.0166C47.8901 19.0166 48.3914 19.2064 48.7388 19.5859C49.0861 19.9655 49.2598 20.5044 49.2598 21.2026V25H47.9224V21.5142C47.9224 21.0558 47.8257 20.7121 47.6323 20.4829C47.4425 20.2537 47.1453 20.1392 46.7407 20.1392C46.4757 20.1392 46.2466 20.1982 46.0532 20.3164C45.8599 20.4346 45.7113 20.6011 45.6074 20.8159C45.5036 21.0308 45.4517 21.285 45.4517 21.5786V25H44.1143ZM53.3579 25.1182C52.7671 25.1182 52.2622 24.9964 51.8433 24.7529C51.4243 24.5094 51.1038 24.1585 50.8818 23.7002C50.6598 23.2419 50.5488 22.694 50.5488 22.0566V22.0459C50.5488 21.4121 50.6598 20.8696 50.8818 20.4185C51.1038 19.9673 51.4243 19.6217 51.8433 19.3818C52.2622 19.1383 52.7653 19.0166 53.3525 19.0166C53.8574 19.0166 54.2907 19.1043 54.6523 19.2798C55.0176 19.4517 55.3058 19.6916 55.5171 19.9995C55.7319 20.3039 55.8644 20.6602 55.9146 21.0684V21.0898H54.6523L54.647 21.0737C54.5861 20.7873 54.4465 20.5527 54.228 20.3701C54.0132 20.1875 53.7231 20.0962 53.3579 20.0962C53.0535 20.0962 52.7922 20.1732 52.5737 20.3271C52.3589 20.4811 52.1942 20.7031 52.0796 20.9932C51.965 21.2832 51.9077 21.6341 51.9077 22.0459V22.0566C51.9077 22.472 51.965 22.8283 52.0796 23.1255C52.1978 23.4191 52.3643 23.6447 52.5791 23.8022C52.7939 23.9562 53.0535 24.0332 53.3579 24.0332C53.7052 24.0332 53.9845 23.9544 54.1958 23.7969C54.4106 23.6393 54.5592 23.4066 54.6416 23.0986L54.6523 23.0771L55.9092 23.0718L55.9038 23.1201C55.8394 23.5176 55.6997 23.8667 55.4849 24.1675C55.2736 24.4683 54.9907 24.7028 54.6362 24.8711C54.2817 25.0358 53.8556 25.1182 53.3579 25.1182ZM59.7227 25.1182C59.139 25.1182 58.6359 24.9964 58.2134 24.7529C57.7909 24.5059 57.465 24.1549 57.2358 23.7002C57.0103 23.2454 56.8975 22.7012 56.8975 22.0674V22.0566C56.8975 21.43 57.012 20.8893 57.2412 20.4346C57.4704 19.9762 57.7944 19.6253 58.2134 19.3818C58.6359 19.1383 59.139 19.0166 59.7227 19.0166C60.3063 19.0166 60.8076 19.1383 61.2266 19.3818C61.6491 19.6253 61.9749 19.9744 62.2041 20.4292C62.4333 20.884 62.5479 21.4264 62.5479 22.0566V22.0674C62.5479 22.7012 62.4333 23.2454 62.2041 23.7002C61.9785 24.1549 61.6545 24.5059 61.2319 24.7529C60.813 24.9964 60.3099 25.1182 59.7227 25.1182ZM59.7227 24.0332C60.0306 24.0332 60.292 23.9562 60.5068 23.8022C60.7253 23.6447 60.8918 23.4209 61.0063 23.1309C61.1209 22.8372 61.1782 22.4845 61.1782 22.0728V22.062C61.1782 21.6466 61.1209 21.2939 61.0063 21.0039C60.8918 20.7103 60.7253 20.4865 60.5068 20.3325C60.292 20.175 60.0306 20.0962 59.7227 20.0962C59.4147 20.0962 59.1515 20.175 58.9331 20.3325C58.7147 20.4865 58.5482 20.7103 58.4336 21.0039C58.319 21.2939 58.2617 21.6466 58.2617 22.062V22.0728C58.2617 22.4845 58.319 22.8372 58.4336 23.1309C58.5482 23.4245 58.7129 23.6483 58.9277 23.8022C59.1462 23.9562 59.4111 24.0332 59.7227 24.0332ZM63.8906 25V19.1294H65.228V20.0425H65.3193C65.4447 19.7166 65.647 19.4642 65.9263 19.2852C66.2091 19.1061 66.5439 19.0166 66.9307 19.0166C67.1956 19.0166 67.4338 19.0596 67.645 19.1455C67.8599 19.2314 68.0443 19.3532 68.1982 19.5107C68.3522 19.6683 68.4704 19.8563 68.5527 20.0747H68.6494C68.7461 19.8634 68.8804 19.679 69.0522 19.5215C69.2277 19.3604 69.4318 19.2368 69.6646 19.1509C69.9009 19.0614 70.1551 19.0166 70.4272 19.0166C70.8211 19.0166 71.1577 19.0954 71.437 19.2529C71.7199 19.4069 71.9365 19.6289 72.0869 19.9189C72.2409 20.209 72.3179 20.5563 72.3179 20.9609V25H70.9805V21.2886C70.9805 21.0308 70.9411 20.8177 70.8623 20.6494C70.7871 20.4811 70.6707 20.354 70.5132 20.2681C70.3556 20.1821 70.1569 20.1392 69.917 20.1392C69.6842 20.1392 69.4819 20.1929 69.3101 20.3003C69.1382 20.4041 69.0039 20.5456 68.9072 20.7246C68.8141 20.9036 68.7676 21.106 68.7676 21.3315V25H67.4302V21.1919C67.4302 20.9735 67.3872 20.7855 67.3013 20.6279C67.2189 20.4704 67.0972 20.3504 66.936 20.2681C66.7785 20.1821 66.5905 20.1392 66.3721 20.1392C66.1536 20.1392 65.9567 20.1965 65.7812 20.311C65.6094 20.422 65.4733 20.576 65.373 20.7729C65.2764 20.9663 65.228 21.1847 65.228 21.4282V25H63.8906ZM76.4053 25.1182C75.8216 25.1182 75.3203 24.9946 74.9014 24.7476C74.486 24.5005 74.1655 24.1496 73.9399 23.6948C73.7144 23.2401 73.6016 22.7012 73.6016 22.0781V22.0728C73.6016 21.4569 73.7126 20.9198 73.9346 20.4614C74.1602 20.0031 74.4788 19.6486 74.8906 19.3979C75.3024 19.1437 75.7858 19.0166 76.3408 19.0166C76.8994 19.0166 77.3792 19.1401 77.7803 19.3872C78.1849 19.6307 78.4964 19.9727 78.7148 20.4131C78.9333 20.8535 79.0425 21.3691 79.0425 21.96V22.4004H74.2729V21.5034H78.3872L77.7534 22.3413V21.8096C77.7534 21.4193 77.6943 21.0952 77.5762 20.8374C77.458 20.5796 77.2933 20.3862 77.082 20.2573C76.8743 20.1284 76.6326 20.064 76.3569 20.064C76.0812 20.064 75.8359 20.132 75.6211 20.2681C75.4098 20.4006 75.2415 20.5975 75.1162 20.8589C74.9945 21.1167 74.9336 21.4336 74.9336 21.8096V22.3467C74.9336 22.7083 74.9945 23.0181 75.1162 23.2759C75.238 23.5301 75.4098 23.7271 75.6318 23.8667C75.8574 24.0028 76.1242 24.0708 76.4321 24.0708C76.672 24.0708 76.8779 24.0368 77.0498 23.9688C77.2253 23.8971 77.3667 23.813 77.4741 23.7163C77.5815 23.616 77.6567 23.5212 77.6997 23.4316L77.7158 23.394H78.9834L78.9727 23.4424C78.9261 23.6322 78.8402 23.8255 78.7148 24.0225C78.5931 24.2158 78.4266 24.3966 78.2153 24.5649C78.0076 24.7297 77.7534 24.8639 77.4526 24.9678C77.1519 25.068 76.8027 25.1182 76.4053 25.1182Z" fill="black"/>
<defs>
<filter id="filter0_dd_413_4220" x="0.5" y="0" width="300" height="188" filterUnits="userSpaceOnUse" color-interpolation-filters="sRGB">
<feFlood flood-opacity="0" result="BackgroundImageFix"/>
<feColorMatrix in="SourceAlpha" type="matrix" values="0 0 0 0 0 0 0 0 0 0 0 0 0 0 0 0 0 0 127 0" result="hardAlpha"/>
<feMorphology radius="0.5" operator="dilate" in="SourceAlpha" result="effect1_dropShadow_413_4220"/>
<feOffset/>
<feComposite in2="hardAlpha" operator="out"/>
<feColorMatrix type="matrix" values="0 0 0 0 0 0 0 0 0 0 0 0 0 0 0 0 0 0 0.05 0"/>
<feBlend mode="normal" in2="BackgroundImageFix" result="effect1_dropShadow_413_4220"/>
<feColorMatrix in="SourceAlpha" type="matrix" values="0 0 0 0 0 0 0 0 0 0 0 0 0 0 0 0 0 0 127 0" result="hardAlpha"/>
<feOffset dy="0.5"/>
<feGaussianBlur stdDeviation="1.25"/>
<feComposite in2="hardAlpha" operator="out"/>
<feColorMatrix type="matrix" values="0 0 0 0 0 0 0 0 0 0 0 0 0 0 0 0 0 0 0.3 0"/>
<feBlend mode="normal" in2="effect1_dropShadow_413_4220" result="effect2_dropShadow_413_4220"/>
<feBlend mode="normal" in="SourceGraphic" in2="effect2_dropShadow_413_4220" result="shape"/>
</filter>
<filter id="filter1_dd_413_4220" x="7.5" y="7" width="28" height="28" filterUnits="userSpaceOnUse" color-interpolation-filters="sRGB">
<feFlood flood-opacity="0" result="BackgroundImageFix"/>
<feColorMatrix in="SourceAlpha" type="matrix" values="0 0 0 0 0 0 0 0 0 0 0 0 0 0 0 0 0 0 127 0" result="hardAlpha"/>
<feMorphology radius="0.5" operator="dilate" in="SourceAlpha" result="effect1_dropShadow_413_4220"/>
<feOffset/>
<feComposite in2="hardAlpha" operator="out"/>
<feColorMatrix type="matrix" values="0 0 0 0 0 0 0 0 0 0 0 0 0 0 0 0 0 0 0.05 0"/>
<feBlend mode="normal" in2="BackgroundImageFix" result="effect1_dropShadow_413_4220"/>
<feColorMatrix in="SourceAlpha" type="matrix" values="0 0 0 0 0 0 0 0 0 0 0 0 0 0 0 0 0 0 127 0" result="hardAlpha"/>
<feOffset dy="0.5"/>
<feGaussianBlur stdDeviation="1.25"/>
<feComposite in2="hardAlpha" operator="out"/>
<feColorMatrix type="matrix" values="0 0 0 0 0 0 0 0 0 0 0 0 0 0 0 0 0 0 0.3 0"/>
<feBlend mode="normal" in2="effect1_dropShadow_413_4220" result="effect2_dropShadow_413_4220"/>
<feBlend mode="normal" in="SourceGraphic" in2="effect2_dropShadow_413_4220" result="shape"/>
</filter>
</defs>
</svg>
