<svg width="615" height="94" viewBox="0 0 615 94" fill="none" xmlns="http://www.w3.org/2000/svg">
<g filter="url(#filter0_dd_644_1674)">
<rect x="3" y="2" width="609" height="89" rx="10" fill="white"/>
</g>
<g filter="url(#filter1_dd_644_1674)">
<rect x="12" y="11" width="285.5" height="71" rx="8" fill="white"/>
</g>
<path d="M121.115 33V26.415H118.73V25.2495H124.885V26.415H122.5V33H121.115ZM127.694 33.1182C127.111 33.1182 126.608 32.9964 126.185 32.7529C125.763 32.5059 125.437 32.1549 125.208 31.7002C124.982 31.2454 124.869 30.7012 124.869 30.0674V30.0566C124.869 29.43 124.984 28.8893 125.213 28.4346C125.442 27.9762 125.766 27.6253 126.185 27.3818C126.608 27.1383 127.111 27.0166 127.694 27.0166C128.278 27.0166 128.779 27.1383 129.198 27.3818C129.621 27.6253 129.947 27.9744 130.176 28.4292C130.405 28.884 130.52 29.4264 130.52 30.0566V30.0674C130.52 30.7012 130.405 31.2454 130.176 31.7002C129.95 32.1549 129.626 32.5059 129.204 32.7529C128.785 32.9964 128.282 33.1182 127.694 33.1182ZM127.694 32.0332C128.002 32.0332 128.264 31.9562 128.479 31.8022C128.697 31.6447 128.863 31.4209 128.978 31.1309C129.093 30.8372 129.15 30.4845 129.15 30.0728V30.062C129.15 29.6466 129.093 29.2939 128.978 29.0039C128.863 28.7103 128.697 28.4865 128.479 28.3325C128.264 28.175 128.002 28.0962 127.694 28.0962C127.386 28.0962 127.123 28.175 126.905 28.3325C126.686 28.4865 126.52 28.7103 126.405 29.0039C126.291 29.2939 126.233 29.6466 126.233 30.062V30.0728C126.233 30.4845 126.291 30.8372 126.405 31.1309C126.52 31.4245 126.685 31.6483 126.899 31.8022C127.118 31.9562 127.383 32.0332 127.694 32.0332ZM134.172 33.0269C133.499 33.0269 133.014 32.9033 132.716 32.6562C132.419 32.4092 132.271 32.0046 132.271 31.4424V28.166H131.357V27.1294H132.271V25.6899H133.629V27.1294H134.865V28.166H133.629V31.1255C133.629 31.4155 133.69 31.6286 133.812 31.7646C133.937 31.8971 134.138 31.9634 134.414 31.9634C134.51 31.9634 134.589 31.9616 134.65 31.958C134.714 31.9508 134.786 31.9437 134.865 31.9365V32.9678C134.772 32.9857 134.664 33 134.542 33.0107C134.424 33.0215 134.301 33.0269 134.172 33.0269ZM137.803 33.0967C137.434 33.0967 137.103 33.0251 136.809 32.8818C136.519 32.7386 136.29 32.5363 136.122 32.2749C135.957 32.0099 135.875 31.6984 135.875 31.3403V31.3296C135.875 30.9823 135.96 30.6833 136.132 30.4326C136.304 30.1784 136.557 29.9797 136.89 29.8364C137.223 29.6932 137.627 29.609 138.104 29.584L140.273 29.4497V30.3306L138.292 30.4595C137.916 30.481 137.638 30.5597 137.459 30.6958C137.28 30.8319 137.19 31.0216 137.19 31.2651V31.2759C137.19 31.5265 137.285 31.7217 137.475 31.8613C137.668 32.001 137.914 32.0708 138.211 32.0708C138.479 32.0708 138.719 32.0171 138.931 31.9097C139.142 31.8022 139.308 31.6572 139.43 31.4746C139.552 31.2884 139.613 31.0789 139.613 30.8462V28.9878C139.613 28.6942 139.52 28.4704 139.333 28.3164C139.147 28.1589 138.872 28.0801 138.506 28.0801C138.202 28.0801 137.953 28.1338 137.76 28.2412C137.566 28.3451 137.436 28.4937 137.368 28.687L137.362 28.7085H136.1L136.105 28.6602C136.148 28.3307 136.277 28.0425 136.492 27.7954C136.707 27.5483 136.992 27.3568 137.346 27.2207C137.701 27.0846 138.109 27.0166 138.571 27.0166C139.079 27.0166 139.509 27.0954 139.86 27.2529C140.211 27.4069 140.478 27.6325 140.66 27.9297C140.843 28.2233 140.934 28.576 140.934 28.9878V33H139.613V32.1943H139.521C139.414 32.3805 139.274 32.5417 139.103 32.6777C138.934 32.8138 138.741 32.9176 138.522 32.9893C138.304 33.0609 138.064 33.0967 137.803 33.0967ZM142.594 33V24.8574H143.931V33H142.594ZM148.685 33V25.2495H150.07V33H148.685ZM151.843 33V27.1294H153.18V28.0317H153.271C153.411 27.7131 153.622 27.4642 153.905 27.2852C154.188 27.1061 154.541 27.0166 154.963 27.0166C155.619 27.0166 156.12 27.2064 156.467 27.5859C156.815 27.9655 156.988 28.5044 156.988 29.2026V33H155.651V29.5142C155.651 29.0558 155.554 28.7121 155.361 28.4829C155.171 28.2537 154.874 28.1392 154.469 28.1392C154.204 28.1392 153.975 28.1982 153.782 28.3164C153.588 28.4346 153.44 28.6011 153.336 28.8159C153.232 29.0308 153.18 29.285 153.18 29.5786V33H151.843ZM161.086 33.1182C160.496 33.1182 159.991 32.9964 159.572 32.7529C159.153 32.5094 158.832 32.1585 158.61 31.7002C158.388 31.2419 158.277 30.694 158.277 30.0566V30.0459C158.277 29.4121 158.388 28.8696 158.61 28.4185C158.832 27.9673 159.153 27.6217 159.572 27.3818C159.991 27.1383 160.494 27.0166 161.081 27.0166C161.586 27.0166 162.019 27.1043 162.381 27.2798C162.746 27.4517 163.034 27.6916 163.246 27.9995C163.46 28.3039 163.593 28.6602 163.643 29.0684V29.0898H162.381L162.375 29.0737C162.315 28.7873 162.175 28.5527 161.957 28.3701C161.742 28.1875 161.452 28.0962 161.086 28.0962C160.782 28.0962 160.521 28.1732 160.302 28.3271C160.087 28.4811 159.923 28.7031 159.808 28.9932C159.694 29.2832 159.636 29.6341 159.636 30.0459V30.0566C159.636 30.472 159.694 30.8283 159.808 31.1255C159.926 31.4191 160.093 31.6447 160.308 31.8022C160.522 31.9562 160.782 32.0332 161.086 32.0332C161.434 32.0332 161.713 31.9544 161.924 31.7969C162.139 31.6393 162.288 31.4066 162.37 31.0986L162.381 31.0771L163.638 31.0718L163.632 31.1201C163.568 31.5176 163.428 31.8667 163.213 32.1675C163.002 32.4683 162.719 32.7028 162.365 32.8711C162.01 33.0358 161.584 33.1182 161.086 33.1182ZM167.451 33.1182C166.868 33.1182 166.364 32.9964 165.942 32.7529C165.519 32.5059 165.194 32.1549 164.964 31.7002C164.739 31.2454 164.626 30.7012 164.626 30.0674V30.0566C164.626 29.43 164.741 28.8893 164.97 28.4346C165.199 27.9762 165.523 27.6253 165.942 27.3818C166.364 27.1383 166.868 27.0166 167.451 27.0166C168.035 27.0166 168.536 27.1383 168.955 27.3818C169.378 27.6253 169.703 27.9744 169.933 28.4292C170.162 28.884 170.276 29.4264 170.276 30.0566V30.0674C170.276 30.7012 170.162 31.2454 169.933 31.7002C169.707 32.1549 169.383 32.5059 168.96 32.7529C168.542 32.9964 168.038 33.1182 167.451 33.1182ZM167.451 32.0332C167.759 32.0332 168.021 31.9562 168.235 31.8022C168.454 31.6447 168.62 31.4209 168.735 31.1309C168.849 30.8372 168.907 30.4845 168.907 30.0728V30.062C168.907 29.6466 168.849 29.2939 168.735 29.0039C168.62 28.7103 168.454 28.4865 168.235 28.3325C168.021 28.175 167.759 28.0962 167.451 28.0962C167.143 28.0962 166.88 28.175 166.662 28.3325C166.443 28.4865 166.277 28.7103 166.162 29.0039C166.048 29.2939 165.99 29.6466 165.99 30.062V30.0728C165.99 30.4845 166.048 30.8372 166.162 31.1309C166.277 31.4245 166.441 31.6483 166.656 31.8022C166.875 31.9562 167.14 32.0332 167.451 32.0332ZM171.619 33V27.1294H172.957V28.0425H173.048C173.173 27.7166 173.375 27.4642 173.655 27.2852C173.938 27.1061 174.272 27.0166 174.659 27.0166C174.924 27.0166 175.162 27.0596 175.374 27.1455C175.588 27.2314 175.773 27.3532 175.927 27.5107C176.081 27.6683 176.199 27.8563 176.281 28.0747H176.378C176.475 27.8634 176.609 27.679 176.781 27.5215C176.956 27.3604 177.16 27.2368 177.393 27.1509C177.629 27.0614 177.884 27.0166 178.156 27.0166C178.55 27.0166 178.886 27.0954 179.166 27.2529C179.448 27.4069 179.665 27.6289 179.815 27.9189C179.969 28.209 180.046 28.5563 180.046 28.9609V33H178.709V29.2886C178.709 29.0308 178.67 28.8177 178.591 28.6494C178.516 28.4811 178.399 28.354 178.242 28.2681C178.084 28.1821 177.885 28.1392 177.646 28.1392C177.413 28.1392 177.21 28.1929 177.039 28.3003C176.867 28.4041 176.732 28.5456 176.636 28.7246C176.543 28.9036 176.496 29.106 176.496 29.3315V33H175.159V29.1919C175.159 28.9735 175.116 28.7855 175.03 28.6279C174.947 28.4704 174.826 28.3504 174.665 28.2681C174.507 28.1821 174.319 28.1392 174.101 28.1392C173.882 28.1392 173.685 28.1965 173.51 28.311C173.338 28.422 173.202 28.576 173.102 28.7729C173.005 28.9663 172.957 29.1847 172.957 29.4282V33H171.619ZM184.134 33.1182C183.55 33.1182 183.049 32.9946 182.63 32.7476C182.215 32.5005 181.894 32.1496 181.668 31.6948C181.443 31.2401 181.33 30.7012 181.33 30.0781V30.0728C181.33 29.4569 181.441 28.9198 181.663 28.4614C181.889 28.0031 182.207 27.6486 182.619 27.3979C183.031 27.1437 183.514 27.0166 184.069 27.0166C184.628 27.0166 185.108 27.1401 185.509 27.3872C185.913 27.6307 186.225 27.9727 186.443 28.4131C186.662 28.8535 186.771 29.3691 186.771 29.96V30.4004H182.001V29.5034H186.116L185.482 30.3413V29.8096C185.482 29.4193 185.423 29.0952 185.305 28.8374C185.187 28.5796 185.022 28.3862 184.811 28.2573C184.603 28.1284 184.361 28.064 184.085 28.064C183.81 28.064 183.564 28.132 183.35 28.2681C183.138 28.4006 182.97 28.5975 182.845 28.8589C182.723 29.1167 182.662 29.4336 182.662 29.8096V30.3467C182.662 30.7083 182.723 31.0181 182.845 31.2759C182.966 31.5301 183.138 31.7271 183.36 31.8667C183.586 32.0028 183.853 32.0708 184.161 32.0708C184.401 32.0708 184.606 32.0368 184.778 31.9688C184.954 31.8971 185.095 31.813 185.203 31.7163C185.31 31.616 185.385 31.5212 185.428 31.4316L185.444 31.394H186.712L186.701 31.4424C186.655 31.6322 186.569 31.8255 186.443 32.0225C186.322 32.2158 186.155 32.3966 185.944 32.5649C185.736 32.7297 185.482 32.8639 185.181 32.9678C184.88 33.068 184.531 33.1182 184.134 33.1182Z" fill="black"/>
<g filter="url(#filter2_dd_644_1674)">
<rect x="317.5" y="11" width="285.5" height="71" rx="8" fill="white"/>
</g>
<path d="M423.135 33V26.415H420.75V25.2495H426.906V26.415H424.521V33H423.135ZM429.715 33.1182C429.131 33.1182 428.628 32.9964 428.206 32.7529C427.783 32.5059 427.457 32.1549 427.228 31.7002C427.002 31.2454 426.89 30.7012 426.89 30.0674V30.0566C426.89 29.43 427.004 28.8893 427.233 28.4346C427.463 27.9762 427.787 27.6253 428.206 27.3818C428.628 27.1383 429.131 27.0166 429.715 27.0166C430.299 27.0166 430.8 27.1383 431.219 27.3818C431.641 27.6253 431.967 27.9744 432.196 28.4292C432.425 28.884 432.54 29.4264 432.54 30.0566V30.0674C432.54 30.7012 432.425 31.2454 432.196 31.7002C431.971 32.1549 431.647 32.5059 431.224 32.7529C430.805 32.9964 430.302 33.1182 429.715 33.1182ZM429.715 32.0332C430.023 32.0332 430.284 31.9562 430.499 31.8022C430.717 31.6447 430.884 31.4209 430.999 31.1309C431.113 30.8372 431.17 30.4845 431.17 30.0728V30.062C431.17 29.6466 431.113 29.2939 430.999 29.0039C430.884 28.7103 430.717 28.4865 430.499 28.3325C430.284 28.175 430.023 28.0962 429.715 28.0962C429.407 28.0962 429.144 28.175 428.925 28.3325C428.707 28.4865 428.54 28.7103 428.426 29.0039C428.311 29.2939 428.254 29.6466 428.254 30.062V30.0728C428.254 30.4845 428.311 30.8372 428.426 31.1309C428.54 31.4245 428.705 31.6483 428.92 31.8022C429.138 31.9562 429.403 32.0332 429.715 32.0332ZM436.192 33.0269C435.519 33.0269 435.034 32.9033 434.737 32.6562C434.44 32.4092 434.291 32.0046 434.291 31.4424V28.166H433.378V27.1294H434.291V25.6899H435.65V27.1294H436.885V28.166H435.65V31.1255C435.65 31.4155 435.711 31.6286 435.833 31.7646C435.958 31.8971 436.158 31.9634 436.434 31.9634C436.531 31.9634 436.61 31.9616 436.67 31.958C436.735 31.9508 436.806 31.9437 436.885 31.9365V32.9678C436.792 32.9857 436.685 33 436.563 33.0107C436.445 33.0215 436.321 33.0269 436.192 33.0269ZM439.823 33.0967C439.454 33.0967 439.123 33.0251 438.83 32.8818C438.54 32.7386 438.31 32.5363 438.142 32.2749C437.977 32.0099 437.895 31.6984 437.895 31.3403V31.3296C437.895 30.9823 437.981 30.6833 438.153 30.4326C438.325 30.1784 438.577 29.9797 438.91 29.8364C439.243 29.6932 439.648 29.609 440.124 29.584L442.294 29.4497V30.3306L440.312 30.4595C439.936 30.481 439.659 30.5597 439.479 30.6958C439.3 30.8319 439.211 31.0216 439.211 31.2651V31.2759C439.211 31.5265 439.306 31.7217 439.496 31.8613C439.689 32.001 439.934 32.0708 440.231 32.0708C440.5 32.0708 440.74 32.0171 440.951 31.9097C441.162 31.8022 441.329 31.6572 441.451 31.4746C441.572 31.2884 441.633 31.0789 441.633 30.8462V28.9878C441.633 28.6942 441.54 28.4704 441.354 28.3164C441.168 28.1589 440.892 28.0801 440.527 28.0801C440.222 28.0801 439.974 28.1338 439.78 28.2412C439.587 28.3451 439.456 28.4937 439.388 28.687L439.383 28.7085H438.121L438.126 28.6602C438.169 28.3307 438.298 28.0425 438.513 27.7954C438.728 27.5483 439.012 27.3568 439.367 27.2207C439.721 27.0846 440.129 27.0166 440.591 27.0166C441.1 27.0166 441.529 27.0954 441.88 27.2529C442.231 27.4069 442.498 27.6325 442.681 27.9297C442.863 28.2233 442.955 28.576 442.955 28.9878V33H441.633V32.1943H441.542C441.435 32.3805 441.295 32.5417 441.123 32.6777C440.955 32.8138 440.761 32.9176 440.543 32.9893C440.325 33.0609 440.085 33.0967 439.823 33.0967ZM444.614 33V24.8574H445.952V33H444.614ZM450.705 33V25.2495H455.722V26.415H452.091V28.5151H455.523V29.6162H452.091V31.8345H455.722V33H450.705ZM456.855 33L458.756 30.0889L456.839 27.1294H458.38L459.551 29.165H459.643L460.803 27.1294H462.269L460.368 30.0298L462.291 33H460.787L459.583 30.959H459.492L458.289 33H456.855ZM463.467 34.9497V27.1294H464.804V28.0479H464.896C465.003 27.8366 465.143 27.6558 465.314 27.5054C465.49 27.355 465.692 27.2386 465.921 27.1562C466.151 27.0739 466.403 27.0327 466.679 27.0327C467.169 27.0327 467.594 27.1562 467.952 27.4033C468.313 27.6504 468.593 28.0013 468.79 28.4561C468.99 28.9072 469.09 29.4425 469.09 30.062V30.0728C469.09 30.6958 468.992 31.2329 468.795 31.6841C468.598 32.1353 468.319 32.4844 467.957 32.7314C467.599 32.9749 467.173 33.0967 466.679 33.0967C466.41 33.0967 466.16 33.0555 465.927 32.9731C465.694 32.8872 465.49 32.7673 465.314 32.6133C465.139 32.4593 464.999 32.2767 464.896 32.0654H464.804V34.9497H463.467ZM466.26 31.9688C466.564 31.9688 466.826 31.8936 467.044 31.7432C467.262 31.5892 467.431 31.3708 467.549 31.0879C467.667 30.8014 467.726 30.4631 467.726 30.0728V30.062C467.726 29.6646 467.667 29.3244 467.549 29.0415C467.431 28.7586 467.262 28.542 467.044 28.3916C466.826 28.2376 466.564 28.1606 466.26 28.1606C465.955 28.1606 465.692 28.2376 465.47 28.3916C465.252 28.542 465.082 28.7586 464.96 29.0415C464.842 29.3244 464.783 29.6628 464.783 30.0566V30.0674C464.783 30.4613 464.842 30.8014 464.96 31.0879C465.082 31.3708 465.254 31.5892 465.476 31.7432C465.698 31.8936 465.959 31.9688 466.26 31.9688ZM472.952 33.1182C472.368 33.1182 471.867 32.9946 471.448 32.7476C471.033 32.5005 470.712 32.1496 470.487 31.6948C470.261 31.2401 470.148 30.7012 470.148 30.0781V30.0728C470.148 29.4569 470.259 28.9198 470.481 28.4614C470.707 28.0031 471.026 27.6486 471.438 27.3979C471.849 27.1437 472.333 27.0166 472.888 27.0166C473.446 27.0166 473.926 27.1401 474.327 27.3872C474.732 27.6307 475.043 27.9727 475.262 28.4131C475.48 28.8535 475.589 29.3691 475.589 29.96V30.4004H470.82V29.5034H474.934L474.3 30.3413V29.8096C474.3 29.4193 474.241 29.0952 474.123 28.8374C474.005 28.5796 473.84 28.3862 473.629 28.2573C473.421 28.1284 473.18 28.064 472.904 28.064C472.628 28.064 472.383 28.132 472.168 28.2681C471.957 28.4006 471.788 28.5975 471.663 28.8589C471.541 29.1167 471.48 29.4336 471.48 29.8096V30.3467C471.48 30.7083 471.541 31.0181 471.663 31.2759C471.785 31.5301 471.957 31.7271 472.179 31.8667C472.404 32.0028 472.671 32.0708 472.979 32.0708C473.219 32.0708 473.425 32.0368 473.597 31.9688C473.772 31.8971 473.914 31.813 474.021 31.7163C474.128 31.616 474.204 31.5212 474.247 31.4316L474.263 31.394H475.53L475.52 31.4424C475.473 31.6322 475.387 31.8255 475.262 32.0225C475.14 32.2158 474.973 32.3966 474.762 32.5649C474.555 32.7297 474.3 32.8639 474 32.9678C473.699 33.068 473.35 33.1182 472.952 33.1182ZM476.927 33V27.1294H478.264V28.0317H478.355C478.495 27.7131 478.706 27.4642 478.989 27.2852C479.272 27.1061 479.625 27.0166 480.047 27.0166C480.703 27.0166 481.204 27.2064 481.551 27.5859C481.899 27.9655 482.072 28.5044 482.072 29.2026V33H480.735V29.5142C480.735 29.0558 480.638 28.7121 480.445 28.4829C480.255 28.2537 479.958 28.1392 479.553 28.1392C479.288 28.1392 479.059 28.1982 478.866 28.3164C478.672 28.4346 478.524 28.6011 478.42 28.8159C478.316 29.0308 478.264 29.285 478.264 29.5786V33H476.927ZM485.87 33.1182C485.372 33.1182 484.942 33.0483 484.581 32.9087C484.222 32.7655 483.94 32.5685 483.732 32.3179C483.524 32.0636 483.401 31.77 483.361 31.437V31.4263H484.688L484.693 31.437C484.765 31.6411 484.899 31.8076 485.096 31.9365C485.293 32.0654 485.558 32.1299 485.891 32.1299C486.113 32.1299 486.308 32.0994 486.477 32.0386C486.645 31.9741 486.777 31.8864 486.874 31.7754C486.971 31.6644 487.019 31.5355 487.019 31.3887V31.3779C487.019 31.2061 486.949 31.0628 486.81 30.9482C486.67 30.8301 486.439 30.7352 486.117 30.6636L485.166 30.4487C484.794 30.3664 484.486 30.2518 484.242 30.105C483.999 29.9582 483.816 29.7773 483.694 29.5625C483.576 29.3477 483.517 29.097 483.517 28.8105V28.8052C483.517 28.4507 483.616 28.1392 483.812 27.8706C484.013 27.6021 484.291 27.3926 484.645 27.2422C485 27.0918 485.408 27.0166 485.87 27.0166C486.346 27.0166 486.756 27.0882 487.1 27.2314C487.443 27.3747 487.712 27.5716 487.905 27.8223C488.099 28.0729 488.21 28.3576 488.238 28.6763V28.687H486.981L486.976 28.6709C486.926 28.4847 486.806 28.3271 486.616 28.1982C486.43 28.0658 486.179 27.9995 485.864 27.9995C485.667 27.9995 485.49 28.0299 485.333 28.0908C485.179 28.1517 485.057 28.2376 484.967 28.3486C484.881 28.4561 484.838 28.5832 484.838 28.73V28.7354C484.838 28.8499 484.867 28.9502 484.924 29.0361C484.985 29.1221 485.08 29.1973 485.209 29.2617C485.338 29.3262 485.508 29.3835 485.719 29.4336L486.67 29.6431C487.246 29.772 487.673 29.9635 487.948 30.2178C488.224 30.472 488.362 30.814 488.362 31.2437V31.2544C488.362 31.6268 488.254 31.9526 488.04 32.2319C487.825 32.5112 487.529 32.7297 487.153 32.8872C486.777 33.0412 486.349 33.1182 485.87 33.1182ZM492.224 33.1182C491.64 33.1182 491.139 32.9946 490.72 32.7476C490.304 32.5005 489.984 32.1496 489.758 31.6948C489.533 31.2401 489.42 30.7012 489.42 30.0781V30.0728C489.42 29.4569 489.531 28.9198 489.753 28.4614C489.979 28.0031 490.297 27.6486 490.709 27.3979C491.121 27.1437 491.604 27.0166 492.159 27.0166C492.718 27.0166 493.198 27.1401 493.599 27.3872C494.003 27.6307 494.315 27.9727 494.533 28.4131C494.752 28.8535 494.861 29.3691 494.861 29.96V30.4004H490.091V29.5034H494.206L493.572 30.3413V29.8096C493.572 29.4193 493.513 29.0952 493.395 28.8374C493.276 28.5796 493.112 28.3862 492.9 28.2573C492.693 28.1284 492.451 28.064 492.175 28.064C491.9 28.064 491.654 28.132 491.439 28.2681C491.228 28.4006 491.06 28.5975 490.935 28.8589C490.813 29.1167 490.752 29.4336 490.752 29.8096V30.3467C490.752 30.7083 490.813 31.0181 490.935 31.2759C491.056 31.5301 491.228 31.7271 491.45 31.8667C491.676 32.0028 491.943 32.0708 492.25 32.0708C492.49 32.0708 492.696 32.0368 492.868 31.9688C493.044 31.8971 493.185 31.813 493.292 31.7163C493.4 31.616 493.475 31.5212 493.518 31.4316L493.534 31.394H494.802L494.791 31.4424C494.744 31.6322 494.659 31.8255 494.533 32.0225C494.411 32.2158 494.245 32.3966 494.034 32.5649C493.826 32.7297 493.572 32.8639 493.271 32.9678C492.97 33.068 492.621 33.1182 492.224 33.1182ZM498.417 33.1182C497.919 33.1182 497.489 33.0483 497.127 32.9087C496.769 32.7655 496.486 32.5685 496.279 32.3179C496.071 32.0636 495.948 31.77 495.908 31.437V31.4263H497.235L497.24 31.437C497.312 31.6411 497.446 31.8076 497.643 31.9365C497.84 32.0654 498.105 32.1299 498.438 32.1299C498.66 32.1299 498.855 32.0994 499.023 32.0386C499.192 31.9741 499.324 31.8864 499.421 31.7754C499.518 31.6644 499.566 31.5355 499.566 31.3887V31.3779C499.566 31.2061 499.496 31.0628 499.356 30.9482C499.217 30.8301 498.986 30.7352 498.664 30.6636L497.713 30.4487C497.34 30.3664 497.033 30.2518 496.789 30.105C496.546 29.9582 496.363 29.7773 496.241 29.5625C496.123 29.3477 496.064 29.097 496.064 28.8105V28.8052C496.064 28.4507 496.162 28.1392 496.359 27.8706C496.56 27.6021 496.837 27.3926 497.192 27.2422C497.546 27.0918 497.955 27.0166 498.417 27.0166C498.893 27.0166 499.303 27.0882 499.646 27.2314C499.99 27.3747 500.259 27.5716 500.452 27.8223C500.646 28.0729 500.757 28.3576 500.785 28.6763V28.687H499.528L499.523 28.6709C499.473 28.4847 499.353 28.3271 499.163 28.1982C498.977 28.0658 498.726 27.9995 498.411 27.9995C498.214 27.9995 498.037 28.0299 497.879 28.0908C497.725 28.1517 497.604 28.2376 497.514 28.3486C497.428 28.4561 497.385 28.5832 497.385 28.73V28.7354C497.385 28.8499 497.414 28.9502 497.471 29.0361C497.532 29.1221 497.627 29.1973 497.756 29.2617C497.885 29.3262 498.055 29.3835 498.266 29.4336L499.217 29.6431C499.793 29.772 500.219 29.9635 500.495 30.2178C500.771 30.472 500.909 30.814 500.909 31.2437V31.2544C500.909 31.6268 500.801 31.9526 500.586 32.2319C500.372 32.5112 500.076 32.7297 499.7 32.8872C499.324 33.0412 498.896 33.1182 498.417 33.1182Z" fill="black"/>
<defs>
<filter id="filter0_dd_644_1674" x="0.5" y="0" width="614" height="94" filterUnits="userSpaceOnUse" color-interpolation-filters="sRGB">
<feFlood flood-opacity="0" result="BackgroundImageFix"/>
<feColorMatrix in="SourceAlpha" type="matrix" values="0 0 0 0 0 0 0 0 0 0 0 0 0 0 0 0 0 0 127 0" result="hardAlpha"/>
<feMorphology radius="0.5" operator="dilate" in="SourceAlpha" result="effect1_dropShadow_644_1674"/>
<feOffset/>
<feComposite in2="hardAlpha" operator="out"/>
<feColorMatrix type="matrix" values="0 0 0 0 0 0 0 0 0 0 0 0 0 0 0 0 0 0 0.05 0"/>
<feBlend mode="normal" in2="BackgroundImageFix" result="effect1_dropShadow_644_1674"/>
<feColorMatrix in="SourceAlpha" type="matrix" values="0 0 0 0 0 0 0 0 0 0 0 0 0 0 0 0 0 0 127 0" result="hardAlpha"/>
<feOffset dy="0.5"/>
<feGaussianBlur stdDeviation="1.25"/>
<feComposite in2="hardAlpha" operator="out"/>
<feColorMatrix type="matrix" values="0 0 0 0 0 0 0 0 0 0 0 0 0 0 0 0 0 0 0.3 0"/>
<feBlend mode="normal" in2="effect1_dropShadow_644_1674" result="effect2_dropShadow_644_1674"/>
<feBlend mode="normal" in="SourceGraphic" in2="effect2_dropShadow_644_1674" result="shape"/>
</filter>
<filter id="filter1_dd_644_1674" x="9.5" y="9" width="290.5" height="76" filterUnits="userSpaceOnUse" color-interpolation-filters="sRGB">
<feFlood flood-opacity="0" result="BackgroundImageFix"/>
<feColorMatrix in="SourceAlpha" type="matrix" values="0 0 0 0 0 0 0 0 0 0 0 0 0 0 0 0 0 0 127 0" result="hardAlpha"/>
<feMorphology radius="0.5" operator="dilate" in="SourceAlpha" result="effect1_dropShadow_644_1674"/>
<feOffset/>
<feComposite in2="hardAlpha" operator="out"/>
<feColorMatrix type="matrix" values="0 0 0 0 0 0 0 0 0 0 0 0 0 0 0 0 0 0 0.05 0"/>
<feBlend mode="normal" in2="BackgroundImageFix" result="effect1_dropShadow_644_1674"/>
<feColorMatrix in="SourceAlpha" type="matrix" values="0 0 0 0 0 0 0 0 0 0 0 0 0 0 0 0 0 0 127 0" result="hardAlpha"/>
<feOffset dy="0.5"/>
<feGaussianBlur stdDeviation="1.25"/>
<feComposite in2="hardAlpha" operator="out"/>
<feColorMatrix type="matrix" values="0 0 0 0 0 0 0 0 0 0 0 0 0 0 0 0 0 0 0.3 0"/>
<feBlend mode="normal" in2="effect1_dropShadow_644_1674" result="effect2_dropShadow_644_1674"/>
<feBlend mode="normal" in="SourceGraphic" in2="effect2_dropShadow_644_1674" result="shape"/>
</filter>
<filter id="filter2_dd_644_1674" x="315" y="9" width="290.5" height="76" filterUnits="userSpaceOnUse" color-interpolation-filters="sRGB">
<feFlood flood-opacity="0" result="BackgroundImageFix"/>
<feColorMatrix in="SourceAlpha" type="matrix" values="0 0 0 0 0 0 0 0 0 0 0 0 0 0 0 0 0 0 127 0" result="hardAlpha"/>
<feMorphology radius="0.5" operator="dilate" in="SourceAlpha" result="effect1_dropShadow_644_1674"/>
<feOffset/>
<feComposite in2="hardAlpha" operator="out"/>
<feColorMatrix type="matrix" values="0 0 0 0 0 0 0 0 0 0 0 0 0 0 0 0 0 0 0.05 0"/>
<feBlend mode="normal" in2="BackgroundImageFix" result="effect1_dropShadow_644_1674"/>
<feColorMatrix in="SourceAlpha" type="matrix" values="0 0 0 0 0 0 0 0 0 0 0 0 0 0 0 0 0 0 127 0" result="hardAlpha"/>
<feOffset dy="0.5"/>
<feGaussianBlur stdDeviation="1.25"/>
<feComposite in2="hardAlpha" operator="out"/>
<feColorMatrix type="matrix" values="0 0 0 0 0 0 0 0 0 0 0 0 0 0 0 0 0 0 0.3 0"/>
<feBlend mode="normal" in2="effect1_dropShadow_644_1674" result="effect2_dropShadow_644_1674"/>
<feBlend mode="normal" in="SourceGraphic" in2="effect2_dropShadow_644_1674" result="shape"/>
</filter>
</defs>
</svg>
