<svg width="14" height="14" viewBox="0 0 14 14" fill="none" xmlns="http://www.w3.org/2000/svg">
<path d="M7.38916 13.8916C6.50472 13.8916 5.67106 13.7223 4.88818 13.3838C4.10954 13.0452 3.42188 12.5776 2.8252 11.981C2.22852 11.3843 1.7609 10.6966 1.42236 9.91797C1.08382 9.13509 0.914551 8.30143 0.914551 7.41699C0.914551 6.53255 1.08382 5.70101 1.42236 4.92236C1.7609 4.13949 2.2264 3.44971 2.81885 2.85303C3.41553 2.25635 4.10319 1.78874 4.88184 1.4502C5.66471 1.11165 6.49837 0.942383 7.38281 0.942383C8.26725 0.942383 9.10091 1.11165 9.88379 1.4502C10.6667 1.78874 11.3564 2.25635 11.9531 2.85303C12.5498 3.44971 13.0174 4.13949 13.356 4.92236C13.6945 5.70101 13.8638 6.53255 13.8638 7.41699C13.8638 8.30143 13.6945 9.13509 13.356 9.91797C13.0174 10.6966 12.5498 11.3843 11.9531 11.981C11.3564 12.5776 10.6667 13.0452 9.88379 13.3838C9.10514 13.7223 8.2736 13.8916 7.38916 13.8916ZM7.38916 12.8125C8.13818 12.8125 8.83854 12.6729 9.49023 12.3936C10.1419 12.1143 10.7153 11.7292 11.2104 11.2383C11.7056 10.7432 12.0907 10.1698 12.3657 9.51807C12.645 8.86637 12.7847 8.16602 12.7847 7.41699C12.7847 6.66797 12.645 5.96761 12.3657 5.31592C12.0864 4.66423 11.6992 4.09082 11.2041 3.5957C10.7132 3.10059 10.1398 2.71549 9.48389 2.44043C8.83219 2.16113 8.13184 2.02148 7.38281 2.02148C6.63379 2.02148 5.93343 2.16113 5.28174 2.44043C4.63005 2.71549 4.05876 3.10059 3.56787 3.5957C3.07699 4.09082 2.69189 4.66423 2.4126 5.31592C2.13753 5.96761 2 6.66797 2 7.41699C2 8.16602 2.13753 8.86637 2.4126 9.51807C2.69189 10.1698 3.07699 10.7432 3.56787 11.2383C4.06299 11.7292 4.63639 12.1143 5.28809 12.3936C5.93978 12.6729 6.64014 12.8125 7.38916 12.8125ZM6.27832 10.9653C6.14714 10.9653 6.03711 10.923 5.94824 10.8384C5.85938 10.7537 5.81494 10.6479 5.81494 10.521C5.81494 10.394 5.85938 10.2882 5.94824 10.2036C6.03711 10.119 6.14714 10.0767 6.27832 10.0767H7.06543V7.16309H6.38623C6.25505 7.16309 6.14502 7.12077 6.05615 7.03613C5.96729 6.9515 5.92285 6.8457 5.92285 6.71875C5.92285 6.5918 5.96729 6.486 6.05615 6.40137C6.14502 6.31673 6.25505 6.27441 6.38623 6.27441H7.57959C7.7404 6.27441 7.86312 6.32731 7.94775 6.43311C8.03239 6.53467 8.07471 6.6722 8.07471 6.8457V10.0767H8.86182C8.993 10.0767 9.10303 10.119 9.19189 10.2036C9.28076 10.2882 9.3252 10.394 9.3252 10.521C9.3252 10.6479 9.28076 10.7537 9.19189 10.8384C9.10303 10.923 8.993 10.9653 8.86182 10.9653H6.27832ZM7.33203 5.21436C7.10352 5.21436 6.90885 5.13395 6.74805 4.97314C6.58724 4.81234 6.50684 4.61768 6.50684 4.38916C6.50684 4.15641 6.58724 3.95964 6.74805 3.79883C6.90885 3.63802 7.10352 3.55762 7.33203 3.55762C7.56478 3.55762 7.75944 3.63802 7.91602 3.79883C8.07682 3.95964 8.15723 4.15641 8.15723 4.38916C8.15723 4.61768 8.07682 4.81234 7.91602 4.97314C7.75944 5.13395 7.56478 5.21436 7.33203 5.21436Z" fill="black" fill-opacity="0.5"/>
</svg>
