<svg width="194" height="94" viewBox="0 0 194 94" fill="none" xmlns="http://www.w3.org/2000/svg">
<g filter="url(#filter0_dd_713_2046)">
<rect x="3" y="2" width="188" height="89" rx="10" fill="white"/>
</g>
<g filter="url(#filter1_dd_713_2046)">
<rect x="10" y="9" width="23" height="23" rx="7" fill="white"/>
<path d="M17.6646 27.2695C17.0002 27.2695 16.5008 27.1045 16.1665 26.7744C15.8364 26.4486 15.6714 25.9577 15.6714 25.3018V17.5513C15.6714 16.8953 15.8364 16.4045 16.1665 16.0786C16.5008 15.7485 17.0002 15.5835 17.6646 15.5835H26.3354C26.9998 15.5835 27.4971 15.7485 27.8271 16.0786C28.1572 16.4045 28.3223 16.8953 28.3223 17.5513V25.3018C28.3223 25.9577 28.1572 26.4486 27.8271 26.7744C27.4971 27.1045 26.9998 27.2695 26.3354 27.2695H17.6646ZM17.5693 26.2476H26.418C26.7015 26.2476 26.9194 26.1714 27.0718 26.019C27.2241 25.8709 27.3003 25.6509 27.3003 25.3589V19.373C27.3003 19.0811 27.2241 18.861 27.0718 18.7129C26.9194 18.5605 26.7015 18.4844 26.418 18.4844H17.5693C17.29 18.4844 17.0742 18.5605 16.9219 18.7129C16.7695 18.861 16.6934 19.0811 16.6934 19.373V25.3589C16.6934 25.6509 16.7695 25.8709 16.9219 26.019C17.0742 26.1714 17.29 26.2476 17.5693 26.2476ZM20.7622 20.7695C20.6522 20.7695 20.5739 20.7484 20.5273 20.7061C20.485 20.6637 20.4639 20.5876 20.4639 20.4775V20.103C20.4639 19.993 20.485 19.9189 20.5273 19.8809C20.5739 19.8385 20.6522 19.8174 20.7622 19.8174H21.1367C21.2467 19.8174 21.3229 19.8385 21.3652 19.8809C21.4118 19.9189 21.4351 19.993 21.4351 20.103V20.4775C21.4351 20.5876 21.4118 20.6637 21.3652 20.7061C21.3229 20.7484 21.2467 20.7695 21.1367 20.7695H20.7622ZM22.8696 20.7695C22.7596 20.7695 22.6834 20.7484 22.6411 20.7061C22.5988 20.6637 22.5776 20.5876 22.5776 20.4775V20.103C22.5776 19.993 22.5988 19.9189 22.6411 19.8809C22.6834 19.8385 22.7596 19.8174 22.8696 19.8174H23.2441C23.3584 19.8174 23.4367 19.8385 23.479 19.8809C23.5213 19.9189 23.5425 19.993 23.5425 20.103V20.4775C23.5425 20.5876 23.5213 20.6637 23.479 20.7061C23.4367 20.7484 23.3584 20.7695 23.2441 20.7695H22.8696ZM24.9834 20.7695C24.8691 20.7695 24.7909 20.7484 24.7485 20.7061C24.7062 20.6637 24.6851 20.5876 24.6851 20.4775V20.103C24.6851 19.993 24.7062 19.9189 24.7485 19.8809C24.7909 19.8385 24.8691 19.8174 24.9834 19.8174H25.3516C25.4658 19.8174 25.5441 19.8385 25.5864 19.8809C25.6287 19.9189 25.6499 19.993 25.6499 20.103V20.4775C25.6499 20.5876 25.6287 20.6637 25.5864 20.7061C25.5441 20.7484 25.4658 20.7695 25.3516 20.7695H24.9834ZM18.6548 22.8452C18.5405 22.8452 18.4622 22.8241 18.4199 22.7817C18.3776 22.7394 18.3564 22.6632 18.3564 22.5532V22.1851C18.3564 22.0708 18.3776 21.9946 18.4199 21.9565C18.4622 21.9142 18.5405 21.8931 18.6548 21.8931H19.0293C19.1393 21.8931 19.2155 21.9142 19.2578 21.9565C19.3001 21.9946 19.3213 22.0708 19.3213 22.1851V22.5532C19.3213 22.6632 19.3001 22.7394 19.2578 22.7817C19.2155 22.8241 19.1393 22.8452 19.0293 22.8452H18.6548ZM20.7622 22.8452C20.6522 22.8452 20.5739 22.8241 20.5273 22.7817C20.485 22.7394 20.4639 22.6632 20.4639 22.5532V22.1851C20.4639 22.0708 20.485 21.9946 20.5273 21.9565C20.5739 21.9142 20.6522 21.8931 20.7622 21.8931H21.1367C21.2467 21.8931 21.3229 21.9142 21.3652 21.9565C21.4118 21.9946 21.4351 22.0708 21.4351 22.1851V22.5532C21.4351 22.6632 21.4118 22.7394 21.3652 22.7817C21.3229 22.8241 21.2467 22.8452 21.1367 22.8452H20.7622ZM22.8696 22.8452C22.7596 22.8452 22.6834 22.8241 22.6411 22.7817C22.5988 22.7394 22.5776 22.6632 22.5776 22.5532V22.1851C22.5776 22.0708 22.5988 21.9946 22.6411 21.9565C22.6834 21.9142 22.7596 21.8931 22.8696 21.8931H23.2441C23.3584 21.8931 23.4367 21.9142 23.479 21.9565C23.5213 21.9946 23.5425 22.0708 23.5425 22.1851V22.5532C23.5425 22.6632 23.5213 22.7394 23.479 22.7817C23.4367 22.8241 23.3584 22.8452 23.2441 22.8452H22.8696ZM24.9834 22.8452C24.8691 22.8452 24.7909 22.8241 24.7485 22.7817C24.7062 22.7394 24.6851 22.6632 24.6851 22.5532V22.1851C24.6851 22.0708 24.7062 21.9946 24.7485 21.9565C24.7909 21.9142 24.8691 21.8931 24.9834 21.8931H25.3516C25.4658 21.8931 25.5441 21.9142 25.5864 21.9565C25.6287 21.9946 25.6499 22.0708 25.6499 22.1851V22.5532C25.6499 22.6632 25.6287 22.7394 25.5864 22.7817C25.5441 22.8241 25.4658 22.8452 25.3516 22.8452H24.9834ZM18.6548 24.9209C18.5405 24.9209 18.4622 24.9019 18.4199 24.8638C18.3776 24.8215 18.3564 24.7432 18.3564 24.6289V24.2607C18.3564 24.1465 18.3776 24.0703 18.4199 24.0322C18.4622 23.9899 18.5405 23.9688 18.6548 23.9688H19.0293C19.1393 23.9688 19.2155 23.9899 19.2578 24.0322C19.3001 24.0703 19.3213 24.1465 19.3213 24.2607V24.6289C19.3213 24.7432 19.3001 24.8215 19.2578 24.8638C19.2155 24.9019 19.1393 24.9209 19.0293 24.9209H18.6548ZM20.7622 24.9209C20.6522 24.9209 20.5739 24.9019 20.5273 24.8638C20.485 24.8215 20.4639 24.7432 20.4639 24.6289V24.2607C20.4639 24.1465 20.485 24.0703 20.5273 24.0322C20.5739 23.9899 20.6522 23.9688 20.7622 23.9688H21.1367C21.2467 23.9688 21.3229 23.9899 21.3652 24.0322C21.4118 24.0703 21.4351 24.1465 21.4351 24.2607V24.6289C21.4351 24.7432 21.4118 24.8215 21.3652 24.8638C21.3229 24.9019 21.2467 24.9209 21.1367 24.9209H20.7622ZM22.8696 24.9209C22.7596 24.9209 22.6834 24.9019 22.6411 24.8638C22.5988 24.8215 22.5776 24.7432 22.5776 24.6289V24.2607C22.5776 24.1465 22.5988 24.0703 22.6411 24.0322C22.6834 23.9899 22.7596 23.9688 22.8696 23.9688H23.2441C23.3584 23.9688 23.4367 23.9899 23.479 24.0322C23.5213 24.0703 23.5425 24.1465 23.5425 24.2607V24.6289C23.5425 24.7432 23.5213 24.8215 23.479 24.8638C23.4367 24.9019 23.3584 24.9209 23.2441 24.9209H22.8696Z" fill="#03A200"/>
</g>
<path d="M41.6489 23.438V22.3208H43.7114C44.2091 22.3208 44.5959 22.1937 44.8716 21.9395C45.1473 21.6816 45.2852 21.32 45.2852 20.8545V20.8438C45.2852 20.3747 45.1473 20.013 44.8716 19.7588C44.5959 19.5046 44.2091 19.3774 43.7114 19.3774H41.6489V18.2495H44.0498C44.5762 18.2495 45.0363 18.3569 45.4302 18.5718C45.8241 18.7866 46.132 19.0892 46.354 19.4795C46.576 19.8662 46.687 20.3192 46.687 20.8384V20.8491C46.687 21.3647 46.576 21.8177 46.354 22.208C46.132 22.5947 45.8241 22.8973 45.4302 23.1157C45.0363 23.3306 44.5762 23.438 44.0498 23.438H41.6489ZM40.9561 26V18.2495H42.3418V26H40.9561ZM48.1318 26V17.8574H49.4692V26H48.1318ZM52.751 26.0967C52.3822 26.0967 52.0509 26.0251 51.7573 25.8818C51.4673 25.7386 51.2381 25.5363 51.0698 25.2749C50.9051 25.0099 50.8228 24.6984 50.8228 24.3403V24.3296C50.8228 23.9823 50.9087 23.6833 51.0806 23.4326C51.2524 23.1784 51.5049 22.9797 51.8379 22.8364C52.1709 22.6932 52.5755 22.609 53.0518 22.584L55.2217 22.4497V23.3306L53.2397 23.4595C52.8638 23.481 52.5863 23.5597 52.4072 23.6958C52.2282 23.8319 52.1387 24.0216 52.1387 24.2651V24.2759C52.1387 24.5265 52.2336 24.7217 52.4233 24.8613C52.6167 25.001 52.862 25.0708 53.1592 25.0708C53.4277 25.0708 53.6676 25.0171 53.8789 24.9097C54.0902 24.8022 54.2567 24.6572 54.3784 24.4746C54.5002 24.2884 54.561 24.0789 54.561 23.8462V21.9878C54.561 21.6942 54.4679 21.4704 54.2817 21.3164C54.0955 21.1589 53.8198 21.0801 53.4546 21.0801C53.1502 21.0801 52.9014 21.1338 52.708 21.2412C52.5146 21.3451 52.384 21.4937 52.3159 21.687L52.3105 21.7085H51.0483L51.0537 21.6602C51.0967 21.3307 51.2256 21.0425 51.4404 20.7954C51.6553 20.5483 51.9399 20.3568 52.2944 20.2207C52.6489 20.0846 53.0571 20.0166 53.519 20.0166C54.0275 20.0166 54.4572 20.0954 54.8081 20.2529C55.159 20.4069 55.4258 20.6325 55.6084 20.9297C55.791 21.2233 55.8823 21.576 55.8823 21.9878V26H54.561V25.1943H54.4697C54.3623 25.3805 54.2227 25.5417 54.0508 25.6777C53.8825 25.8138 53.6891 25.9176 53.4707 25.9893C53.2523 26.0609 53.0124 26.0967 52.751 26.0967ZM57.4883 26V20.1294H58.8257V21.0317H58.917C59.0566 20.7131 59.2679 20.4642 59.5508 20.2852C59.8337 20.1061 60.1864 20.0166 60.6089 20.0166C61.2642 20.0166 61.7655 20.2064 62.1128 20.5859C62.4601 20.9655 62.6338 21.5044 62.6338 22.2026V26H61.2964V22.5142C61.2964 22.0558 61.1997 21.7121 61.0063 21.4829C60.8166 21.2537 60.5194 21.1392 60.1147 21.1392C59.8498 21.1392 59.6206 21.1982 59.4272 21.3164C59.2339 21.4346 59.0853 21.6011 58.9814 21.8159C58.8776 22.0308 58.8257 22.285 58.8257 22.5786V26H57.4883ZM66.5225 26.0269C65.8493 26.0269 65.3641 25.9033 65.0669 25.6562C64.7697 25.4092 64.6211 25.0046 64.6211 24.4424V21.166H63.708V20.1294H64.6211V18.6899H65.98V20.1294H67.2153V21.166H65.98V24.1255C65.98 24.4155 66.0409 24.6286 66.1626 24.7646C66.2879 24.8971 66.4884 24.9634 66.7642 24.9634C66.8608 24.9634 66.9396 24.9616 67.0005 24.958C67.0649 24.9508 67.1366 24.9437 67.2153 24.9365V25.9678C67.1222 25.9857 67.0148 26 66.8931 26.0107C66.7749 26.0215 66.6514 26.0269 66.5225 26.0269ZM71.0127 26.1182C70.429 26.1182 69.9277 25.9946 69.5088 25.7476C69.0934 25.5005 68.7729 25.1496 68.5474 24.6948C68.3218 24.2401 68.209 23.7012 68.209 23.0781V23.0728C68.209 22.4569 68.32 21.9198 68.542 21.4614C68.7676 21.0031 69.0863 20.6486 69.498 20.3979C69.9098 20.1437 70.3932 20.0166 70.9482 20.0166C71.5068 20.0166 71.9867 20.1401 72.3877 20.3872C72.7923 20.6307 73.1038 20.9727 73.3223 21.4131C73.5407 21.8535 73.6499 22.3691 73.6499 22.96V23.4004H68.8804V22.5034H72.9946L72.3608 23.3413V22.8096C72.3608 22.4193 72.3018 22.0952 72.1836 21.8374C72.0654 21.5796 71.9007 21.3862 71.6895 21.2573C71.4818 21.1284 71.2401 21.064 70.9644 21.064C70.6886 21.064 70.4434 21.132 70.2285 21.2681C70.0173 21.4006 69.849 21.5975 69.7236 21.8589C69.6019 22.1167 69.541 22.4336 69.541 22.8096V23.3467C69.541 23.7083 69.6019 24.0181 69.7236 24.2759C69.8454 24.5301 70.0173 24.7271 70.2393 24.8667C70.4648 25.0028 70.7316 25.0708 71.0396 25.0708C71.2795 25.0708 71.4854 25.0368 71.6572 24.9688C71.8327 24.8971 71.9741 24.813 72.0815 24.7163C72.189 24.616 72.2642 24.5212 72.3071 24.4316L72.3232 24.394H73.5908L73.5801 24.4424C73.5335 24.6322 73.4476 24.8255 73.3223 25.0225C73.2005 25.2158 73.034 25.3966 72.8228 25.5649C72.6151 25.7297 72.3608 25.8639 72.0601 25.9678C71.7593 26.068 71.4102 26.1182 71.0127 26.1182ZM77.1035 26.0967C76.6165 26.0967 76.1922 25.9749 75.8306 25.7314C75.4689 25.4844 75.1896 25.1335 74.9927 24.6787C74.7957 24.224 74.6973 23.6886 74.6973 23.0728V23.062C74.6973 22.439 74.7939 21.9019 74.9873 21.4507C75.1842 20.9959 75.4618 20.6468 75.8198 20.4033C76.1815 20.1562 76.6094 20.0327 77.1035 20.0327C77.3721 20.0327 77.6227 20.0757 77.8555 20.1616C78.0882 20.244 78.2923 20.3621 78.4678 20.5161C78.6468 20.6701 78.7865 20.8527 78.8867 21.064H78.9834V17.8574H80.3154V26H78.9834V25.0815H78.8867C78.7793 25.2928 78.6379 25.4754 78.4624 25.6294C78.2905 25.7798 78.09 25.8962 77.8608 25.9785C77.6317 26.0573 77.3792 26.0967 77.1035 26.0967ZM77.5225 24.9688C77.8268 24.9688 78.0882 24.8936 78.3066 24.7432C78.5286 24.5892 78.6987 24.3708 78.8169 24.0879C78.9386 23.8014 78.9995 23.4631 78.9995 23.0728V23.062C78.9995 22.6681 78.9386 22.3298 78.8169 22.0469C78.6987 21.764 78.5286 21.5456 78.3066 21.3916C78.0882 21.2376 77.8268 21.1606 77.5225 21.1606C77.2217 21.1606 76.9603 21.2376 76.7383 21.3916C76.5199 21.542 76.3516 21.7604 76.2334 22.0469C76.1152 22.3298 76.0562 22.6681 76.0562 23.062V23.0728C76.0562 23.4666 76.1152 23.805 76.2334 24.0879C76.3516 24.3708 76.5199 24.5892 76.7383 24.7432C76.9567 24.8936 77.2181 24.9688 77.5225 24.9688ZM87.4697 26.1182C86.8861 26.1182 86.383 25.9964 85.9604 25.7529C85.5379 25.5059 85.2121 25.1549 84.9829 24.7002C84.7573 24.2454 84.6445 23.7012 84.6445 23.0674V23.0566C84.6445 22.43 84.7591 21.8893 84.9883 21.4346C85.2174 20.9762 85.5415 20.6253 85.9604 20.3818C86.383 20.1383 86.8861 20.0166 87.4697 20.0166C88.0534 20.0166 88.5547 20.1383 88.9736 20.3818C89.3962 20.6253 89.722 20.9744 89.9512 21.4292C90.1803 21.884 90.2949 22.4264 90.2949 23.0566V23.0674C90.2949 23.7012 90.1803 24.2454 89.9512 24.7002C89.7256 25.1549 89.4015 25.5059 88.979 25.7529C88.5601 25.9964 88.057 26.1182 87.4697 26.1182ZM87.4697 25.0332C87.7777 25.0332 88.0391 24.9562 88.2539 24.8022C88.4723 24.6447 88.6388 24.4209 88.7534 24.1309C88.868 23.8372 88.9253 23.4845 88.9253 23.0728V23.062C88.9253 22.6466 88.868 22.2939 88.7534 22.0039C88.6388 21.7103 88.4723 21.4865 88.2539 21.3325C88.0391 21.175 87.7777 21.0962 87.4697 21.0962C87.1618 21.0962 86.8986 21.175 86.6802 21.3325C86.4618 21.4865 86.2952 21.7103 86.1807 22.0039C86.0661 22.2939 86.0088 22.6466 86.0088 23.062V23.0728C86.0088 23.4845 86.0661 23.8372 86.1807 24.1309C86.2952 24.4245 86.46 24.6483 86.6748 24.8022C86.8932 24.9562 87.1582 25.0332 87.4697 25.0332ZM91.6377 26V20.1294H92.9751V21.0317H93.0664C93.2061 20.7131 93.4173 20.4642 93.7002 20.2852C93.9831 20.1061 94.3358 20.0166 94.7583 20.0166C95.4136 20.0166 95.9149 20.2064 96.2622 20.5859C96.6095 20.9655 96.7832 21.5044 96.7832 22.2026V26H95.4458V22.5142C95.4458 22.0558 95.3491 21.7121 95.1558 21.4829C94.966 21.2537 94.6688 21.1392 94.2642 21.1392C93.9992 21.1392 93.77 21.1982 93.5767 21.3164C93.3833 21.4346 93.2347 21.6011 93.1309 21.8159C93.027 22.0308 92.9751 22.285 92.9751 22.5786V26H91.6377Z" fill="black"/>
<defs>
<filter id="filter0_dd_713_2046" x="0.5" y="0" width="193" height="94" filterUnits="userSpaceOnUse" color-interpolation-filters="sRGB">
<feFlood flood-opacity="0" result="BackgroundImageFix"/>
<feColorMatrix in="SourceAlpha" type="matrix" values="0 0 0 0 0 0 0 0 0 0 0 0 0 0 0 0 0 0 127 0" result="hardAlpha"/>
<feMorphology radius="0.5" operator="dilate" in="SourceAlpha" result="effect1_dropShadow_713_2046"/>
<feOffset/>
<feComposite in2="hardAlpha" operator="out"/>
<feColorMatrix type="matrix" values="0 0 0 0 0 0 0 0 0 0 0 0 0 0 0 0 0 0 0.05 0"/>
<feBlend mode="normal" in2="BackgroundImageFix" result="effect1_dropShadow_713_2046"/>
<feColorMatrix in="SourceAlpha" type="matrix" values="0 0 0 0 0 0 0 0 0 0 0 0 0 0 0 0 0 0 127 0" result="hardAlpha"/>
<feOffset dy="0.5"/>
<feGaussianBlur stdDeviation="1.25"/>
<feComposite in2="hardAlpha" operator="out"/>
<feColorMatrix type="matrix" values="0 0 0 0 0 0 0 0 0 0 0 0 0 0 0 0 0 0 0.3 0"/>
<feBlend mode="normal" in2="effect1_dropShadow_713_2046" result="effect2_dropShadow_713_2046"/>
<feBlend mode="normal" in="SourceGraphic" in2="effect2_dropShadow_713_2046" result="shape"/>
</filter>
<filter id="filter1_dd_713_2046" x="7.5" y="7" width="28" height="28" filterUnits="userSpaceOnUse" color-interpolation-filters="sRGB">
<feFlood flood-opacity="0" result="BackgroundImageFix"/>
<feColorMatrix in="SourceAlpha" type="matrix" values="0 0 0 0 0 0 0 0 0 0 0 0 0 0 0 0 0 0 127 0" result="hardAlpha"/>
<feMorphology radius="0.5" operator="dilate" in="SourceAlpha" result="effect1_dropShadow_713_2046"/>
<feOffset/>
<feComposite in2="hardAlpha" operator="out"/>
<feColorMatrix type="matrix" values="0 0 0 0 0 0 0 0 0 0 0 0 0 0 0 0 0 0 0.05 0"/>
<feBlend mode="normal" in2="BackgroundImageFix" result="effect1_dropShadow_713_2046"/>
<feColorMatrix in="SourceAlpha" type="matrix" values="0 0 0 0 0 0 0 0 0 0 0 0 0 0 0 0 0 0 127 0" result="hardAlpha"/>
<feOffset dy="0.5"/>
<feGaussianBlur stdDeviation="1.25"/>
<feComposite in2="hardAlpha" operator="out"/>
<feColorMatrix type="matrix" values="0 0 0 0 0 0 0 0 0 0 0 0 0 0 0 0 0 0 0.3 0"/>
<feBlend mode="normal" in2="effect1_dropShadow_713_2046" result="effect2_dropShadow_713_2046"/>
<feBlend mode="normal" in="SourceGraphic" in2="effect2_dropShadow_713_2046" result="shape"/>
</filter>
</defs>
</svg>
