<svg width="194" height="94" viewBox="0 0 194 94" fill="none" xmlns="http://www.w3.org/2000/svg">
<g filter="url(#filter0_dd_713_2039)">
<rect x="3" y="2" width="188" height="89" rx="10" fill="white"/>
</g>
<g filter="url(#filter1_dd_713_2039)">
<rect x="10" y="9" width="23" height="23" rx="7" fill="white"/>
<path d="M15.2715 18.2622C15.2715 18.1479 15.2757 17.9681 15.2842 17.7227C15.2969 17.4772 15.3159 17.217 15.3413 16.9419C15.3709 16.6668 15.4111 16.4256 15.4619 16.2183C15.5212 15.9771 15.6291 15.8141 15.7856 15.7295C15.9422 15.6449 16.1094 15.6258 16.2871 15.6724C16.4648 15.7189 16.6151 15.8141 16.7378 15.958C17.089 16.3558 17.4741 16.6372 17.8931 16.8022C18.312 16.9673 18.7669 17.0498 19.2578 17.0498C19.8376 17.0498 20.3919 17.0011 20.9209 16.9038C21.4541 16.8065 21.981 16.7578 22.5015 16.7578C23.2505 16.7578 23.9403 16.8721 24.5708 17.1006C25.2056 17.3249 25.7536 17.6444 26.2148 18.0591C26.6803 18.4696 27.04 18.9562 27.2939 19.519C27.5521 20.0776 27.6812 20.6912 27.6812 21.3599C27.6812 22.0539 27.5521 22.6908 27.2939 23.2705C27.04 23.8503 26.6803 24.3517 26.2148 24.7749C25.7536 25.1981 25.2056 25.526 24.5708 25.7588C23.936 25.9915 23.2378 26.1079 22.4761 26.1079C21.3843 26.1079 20.3962 25.9238 19.5117 25.5557C18.6273 25.1833 17.8677 24.6522 17.2329 23.9624C16.6024 23.2726 16.1178 22.4474 15.7793 21.4868C15.4408 20.522 15.2715 19.4471 15.2715 18.2622ZM16.23 18.2622C16.23 19.3159 16.3739 20.266 16.6616 21.1123C16.9536 21.9587 17.3726 22.6823 17.9185 23.2832C18.4644 23.8841 19.1203 24.3454 19.8862 24.667C20.6564 24.9886 21.5197 25.1494 22.4761 25.1494C23.314 25.1494 24.0503 24.9886 24.6851 24.667C25.3241 24.3454 25.8234 23.901 26.1831 23.334C26.5428 22.7627 26.7227 22.1047 26.7227 21.3599C26.7227 20.6489 26.5428 20.0205 26.1831 19.4746C25.8234 18.9245 25.3262 18.495 24.6914 18.186C24.0566 17.8729 23.3267 17.7163 22.5015 17.7163C22.2856 17.7163 22.0656 17.729 21.8413 17.7544C21.617 17.7798 21.3779 17.8094 21.124 17.8433C20.8447 17.8813 20.5485 17.9194 20.2354 17.9575C19.9264 17.9914 19.6006 18.0083 19.2578 18.0083C18.7458 18.0083 18.2316 17.9215 17.7153 17.748C17.1991 17.5703 16.7632 17.3185 16.4077 16.9927C16.3442 16.9334 16.3062 16.9461 16.2935 17.0308C16.2638 17.2 16.2448 17.3947 16.2363 17.6147C16.2321 17.8348 16.23 18.0506 16.23 18.2622ZM18.9849 19.7412C18.951 19.6439 18.9574 19.5635 19.0039 19.5C19.0505 19.4365 19.1118 19.4048 19.188 19.4048C19.2642 19.4006 19.3361 19.445 19.4038 19.5381C19.6493 19.8555 19.9264 20.1094 20.2354 20.2998C20.5485 20.4902 20.887 20.6405 21.251 20.7505C21.6191 20.8563 22.0042 20.943 22.4062 21.0107C23.5742 21.2012 24.5348 21.4678 25.2881 21.8105C26.0413 22.1533 26.6317 22.6082 27.0591 23.1753C27.2241 23.3996 27.4019 23.6577 27.5923 23.9497C27.7869 24.2375 27.9689 24.5337 28.1382 24.8384C28.3117 25.1431 28.4513 25.4372 28.5571 25.7207C28.6672 26.0042 28.7222 26.256 28.7222 26.4761C28.7222 26.7384 28.6396 26.9648 28.4746 27.1553C28.3096 27.3457 28.1107 27.4409 27.8779 27.4409C27.7679 27.4409 27.6642 27.4092 27.5669 27.3457C27.4738 27.2865 27.4019 27.1807 27.3511 27.0283C27.2199 26.6094 27.1035 26.2137 27.002 25.8413C26.9004 25.4689 26.7798 25.1177 26.6401 24.7876C26.5047 24.4575 26.3185 24.1465 26.0815 23.8545C25.8657 23.5837 25.6351 23.3509 25.3896 23.1562C25.1484 22.9574 24.8734 22.7839 24.5645 22.6357C24.2598 22.4876 23.9043 22.3501 23.498 22.2231C23.0918 22.0962 22.62 21.9692 22.0825 21.8423C21.5832 21.7196 21.124 21.5736 20.7051 21.4043C20.2861 21.235 19.9264 21.0192 19.626 20.7568C19.3298 20.4902 19.116 20.1517 18.9849 19.7412Z" fill="#03A200"/>
</g>
<path d="M44.2969 26.1934C43.5378 26.1934 42.8843 26.0286 42.3364 25.6992C41.7922 25.3662 41.3714 24.8953 41.0742 24.2866C40.777 23.6779 40.6284 22.9582 40.6284 22.1274V22.1167C40.6284 21.2824 40.777 20.5627 41.0742 19.9575C41.375 19.3488 41.7993 18.8797 42.3472 18.5503C42.8986 18.2209 43.5485 18.0562 44.2969 18.0562C45.0488 18.0562 45.6987 18.2209 46.2466 18.5503C46.7944 18.8797 47.217 19.3488 47.5142 19.9575C47.8114 20.5662 47.96 21.286 47.96 22.1167V22.1274C47.96 22.9582 47.8114 23.6779 47.5142 24.2866C47.2205 24.8953 46.7998 25.3662 46.252 25.6992C45.7041 26.0286 45.0524 26.1934 44.2969 26.1934ZM44.2969 24.9956C44.7588 24.9956 45.158 24.8774 45.4946 24.6411C45.8312 24.4048 46.0908 24.0718 46.2734 23.6421C46.4596 23.2124 46.5527 22.7075 46.5527 22.1274V22.1167C46.5527 21.533 46.4596 21.0282 46.2734 20.6021C46.0908 20.1724 45.8312 19.8411 45.4946 19.6084C45.158 19.3721 44.7588 19.2539 44.2969 19.2539C43.8385 19.2539 43.4393 19.3721 43.0991 19.6084C42.7625 19.8411 42.5011 20.1724 42.3149 20.6021C42.1323 21.0282 42.041 21.533 42.041 22.1167V22.1274C42.041 22.7075 42.1305 23.2124 42.3096 23.6421C42.4922 24.0718 42.7518 24.4048 43.0884 24.6411C43.4285 24.8774 43.8314 24.9956 44.2969 24.9956ZM50.9893 26L48.8999 20.1294H50.3286L51.6821 24.6948H51.7788L53.127 20.1294H54.5342L52.4502 26H50.9893ZM57.9395 26.1182C57.3558 26.1182 56.8545 25.9946 56.4355 25.7476C56.0202 25.5005 55.6997 25.1496 55.4741 24.6948C55.2485 24.2401 55.1357 23.7012 55.1357 23.0781V23.0728C55.1357 22.4569 55.2467 21.9198 55.4688 21.4614C55.6943 21.0031 56.013 20.6486 56.4248 20.3979C56.8366 20.1437 57.32 20.0166 57.875 20.0166C58.4336 20.0166 58.9134 20.1401 59.3145 20.3872C59.7191 20.6307 60.0306 20.9727 60.249 21.4131C60.4674 21.8535 60.5767 22.3691 60.5767 22.96V23.4004H55.8071V22.5034H59.9214L59.2876 23.3413V22.8096C59.2876 22.4193 59.2285 22.0952 59.1104 21.8374C58.9922 21.5796 58.8275 21.3862 58.6162 21.2573C58.4085 21.1284 58.1668 21.064 57.8911 21.064C57.6154 21.064 57.3701 21.132 57.1553 21.2681C56.944 21.4006 56.7757 21.5975 56.6504 21.8589C56.5286 22.1167 56.4678 22.4336 56.4678 22.8096V23.3467C56.4678 23.7083 56.5286 24.0181 56.6504 24.2759C56.7721 24.5301 56.944 24.7271 57.166 24.8667C57.3916 25.0028 57.6584 25.0708 57.9663 25.0708C58.2062 25.0708 58.4121 25.0368 58.584 24.9688C58.7594 24.8971 58.9009 24.813 59.0083 24.7163C59.1157 24.616 59.1909 24.5212 59.2339 24.4316L59.25 24.394H60.5176L60.5068 24.4424C60.4603 24.6322 60.3743 24.8255 60.249 25.0225C60.1273 25.2158 59.9608 25.3966 59.7495 25.5649C59.5418 25.7297 59.2876 25.8639 58.9868 25.9678C58.686 26.068 58.3369 26.1182 57.9395 26.1182ZM61.9141 26V20.1294H63.2515V21.0317H63.3428C63.443 20.7166 63.6221 20.4714 63.8799 20.2959C64.1413 20.1204 64.4653 20.0327 64.8521 20.0327C64.9523 20.0327 65.0508 20.0399 65.1475 20.0542C65.2477 20.0649 65.3301 20.0793 65.3945 20.0972V21.2949C65.2871 21.2699 65.1779 21.252 65.0669 21.2412C64.9595 21.2269 64.8467 21.2197 64.7285 21.2197C64.4313 21.2197 64.1717 21.2752 63.9497 21.3862C63.7277 21.4972 63.5558 21.6566 63.4341 21.8643C63.3123 22.0684 63.2515 22.3101 63.2515 22.5894V26H61.9141ZM68.1445 26L66.0552 20.1294H67.4839L68.8374 24.6948H68.9341L70.2822 20.1294H71.6895L69.6055 26H68.1445ZM72.8335 26V20.1294H74.1655V26H72.8335ZM73.5049 19.1465C73.2865 19.1465 73.0985 19.0695 72.9409 18.9155C72.7834 18.7616 72.7046 18.5771 72.7046 18.3623C72.7046 18.1403 72.7834 17.9541 72.9409 17.8037C73.0985 17.6497 73.2865 17.5728 73.5049 17.5728C73.7233 17.5728 73.9095 17.6497 74.0635 17.8037C74.221 17.9541 74.2998 18.1403 74.2998 18.3623C74.2998 18.5771 74.221 18.7616 74.0635 18.9155C73.9095 19.0695 73.7233 19.1465 73.5049 19.1465ZM78.3281 26.1182C77.7445 26.1182 77.2432 25.9946 76.8242 25.7476C76.4089 25.5005 76.0884 25.1496 75.8628 24.6948C75.6372 24.2401 75.5244 23.7012 75.5244 23.0781V23.0728C75.5244 22.4569 75.6354 21.9198 75.8574 21.4614C76.083 21.0031 76.4017 20.6486 76.8135 20.3979C77.2253 20.1437 77.7087 20.0166 78.2637 20.0166C78.8223 20.0166 79.3021 20.1401 79.7031 20.3872C80.1077 20.6307 80.4193 20.9727 80.6377 21.4131C80.8561 21.8535 80.9653 22.3691 80.9653 22.96V23.4004H76.1958V22.5034H80.3101L79.6763 23.3413V22.8096C79.6763 22.4193 79.6172 22.0952 79.499 21.8374C79.3809 21.5796 79.2161 21.3862 79.0049 21.2573C78.7972 21.1284 78.5555 21.064 78.2798 21.064C78.0041 21.064 77.7588 21.132 77.5439 21.2681C77.3327 21.4006 77.1644 21.5975 77.0391 21.8589C76.9173 22.1167 76.8564 22.4336 76.8564 22.8096V23.3467C76.8564 23.7083 76.9173 24.0181 77.0391 24.2759C77.1608 24.5301 77.3327 24.7271 77.5547 24.8667C77.7803 25.0028 78.047 25.0708 78.355 25.0708C78.5949 25.0708 78.8008 25.0368 78.9727 24.9688C79.1481 24.8971 79.2896 24.813 79.397 24.7163C79.5044 24.616 79.5796 24.5212 79.6226 24.4316L79.6387 24.394H80.9062L80.8955 24.4424C80.849 24.6322 80.763 24.8255 80.6377 25.0225C80.516 25.2158 80.3494 25.3966 80.1382 25.5649C79.9305 25.7297 79.6763 25.8639 79.3755 25.9678C79.0747 26.068 78.7256 26.1182 78.3281 26.1182ZM83.3608 26L81.7656 20.1294H83.1084L84.0806 24.5444H84.1772L85.3052 20.1294H86.5781L87.7114 24.5444H87.8081L88.7803 20.1294H90.1069L88.5117 26H87.1152L85.9712 21.7461H85.8799L84.7412 26H83.3608Z" fill="black"/>
<defs>
<filter id="filter0_dd_713_2039" x="0.5" y="0" width="193" height="94" filterUnits="userSpaceOnUse" color-interpolation-filters="sRGB">
<feFlood flood-opacity="0" result="BackgroundImageFix"/>
<feColorMatrix in="SourceAlpha" type="matrix" values="0 0 0 0 0 0 0 0 0 0 0 0 0 0 0 0 0 0 127 0" result="hardAlpha"/>
<feMorphology radius="0.5" operator="dilate" in="SourceAlpha" result="effect1_dropShadow_713_2039"/>
<feOffset/>
<feComposite in2="hardAlpha" operator="out"/>
<feColorMatrix type="matrix" values="0 0 0 0 0 0 0 0 0 0 0 0 0 0 0 0 0 0 0.05 0"/>
<feBlend mode="normal" in2="BackgroundImageFix" result="effect1_dropShadow_713_2039"/>
<feColorMatrix in="SourceAlpha" type="matrix" values="0 0 0 0 0 0 0 0 0 0 0 0 0 0 0 0 0 0 127 0" result="hardAlpha"/>
<feOffset dy="0.5"/>
<feGaussianBlur stdDeviation="1.25"/>
<feComposite in2="hardAlpha" operator="out"/>
<feColorMatrix type="matrix" values="0 0 0 0 0 0 0 0 0 0 0 0 0 0 0 0 0 0 0.3 0"/>
<feBlend mode="normal" in2="effect1_dropShadow_713_2039" result="effect2_dropShadow_713_2039"/>
<feBlend mode="normal" in="SourceGraphic" in2="effect2_dropShadow_713_2039" result="shape"/>
</filter>
<filter id="filter1_dd_713_2039" x="7.5" y="7" width="28" height="28" filterUnits="userSpaceOnUse" color-interpolation-filters="sRGB">
<feFlood flood-opacity="0" result="BackgroundImageFix"/>
<feColorMatrix in="SourceAlpha" type="matrix" values="0 0 0 0 0 0 0 0 0 0 0 0 0 0 0 0 0 0 127 0" result="hardAlpha"/>
<feMorphology radius="0.5" operator="dilate" in="SourceAlpha" result="effect1_dropShadow_713_2039"/>
<feOffset/>
<feComposite in2="hardAlpha" operator="out"/>
<feColorMatrix type="matrix" values="0 0 0 0 0 0 0 0 0 0 0 0 0 0 0 0 0 0 0.05 0"/>
<feBlend mode="normal" in2="BackgroundImageFix" result="effect1_dropShadow_713_2039"/>
<feColorMatrix in="SourceAlpha" type="matrix" values="0 0 0 0 0 0 0 0 0 0 0 0 0 0 0 0 0 0 127 0" result="hardAlpha"/>
<feOffset dy="0.5"/>
<feGaussianBlur stdDeviation="1.25"/>
<feComposite in2="hardAlpha" operator="out"/>
<feColorMatrix type="matrix" values="0 0 0 0 0 0 0 0 0 0 0 0 0 0 0 0 0 0 0.3 0"/>
<feBlend mode="normal" in2="effect1_dropShadow_713_2039" result="effect2_dropShadow_713_2039"/>
<feBlend mode="normal" in="SourceGraphic" in2="effect2_dropShadow_713_2039" result="shape"/>
</filter>
</defs>
</svg>
