<svg width="298" height="229" viewBox="0 0 298 229" fill="none" xmlns="http://www.w3.org/2000/svg">
<g filter="url(#filter0_dd_713_1820)">
<rect x="3" y="2" width="292" height="224" rx="10" fill="white"/>
</g>
<g filter="url(#filter1_dd_713_1820)">
<rect x="10" y="9" width="23" height="23" rx="7" fill="white"/>
<path d="M15.6763 26.8252V16.0977C15.6763 15.9622 15.7249 15.8438 15.8223 15.7422C15.9238 15.6406 16.0465 15.5898 16.1904 15.5898C16.3301 15.5898 16.4486 15.6406 16.5459 15.7422C16.6475 15.8438 16.6982 15.9622 16.6982 16.0977V26.1333C16.6982 26.2518 16.7575 26.311 16.876 26.311H28.8096C28.9492 26.311 29.0698 26.3597 29.1714 26.457C29.2729 26.5586 29.3237 26.6792 29.3237 26.8188C29.3237 26.9627 29.2729 27.0833 29.1714 27.1807C29.0698 27.278 28.9492 27.3267 28.8096 27.3267H16.1841C16.0317 27.3267 15.909 27.2801 15.8159 27.187C15.7228 27.0981 15.6763 26.9775 15.6763 26.8252ZM16.3428 22.877V22.0073L20.4878 19.6143L23.4141 22.1216L28.1875 19.2778L28.5874 19.9253L23.3633 23.0356L20.4243 20.5156L16.3428 22.877ZM20.3418 21.3726C20.1344 21.3726 19.944 21.3218 19.7705 21.2202C19.6012 21.1187 19.4658 20.9832 19.3643 20.814C19.2627 20.6405 19.2119 20.45 19.2119 20.2427C19.2119 20.0353 19.2627 19.847 19.3643 19.6777C19.4658 19.5042 19.6012 19.3688 19.7705 19.2715C19.944 19.1699 20.1344 19.1191 20.3418 19.1191C20.5492 19.1191 20.7375 19.1699 20.9067 19.2715C21.0802 19.3688 21.2178 19.5042 21.3193 19.6777C21.4209 19.847 21.4717 20.0353 21.4717 20.2427C21.4717 20.45 21.4209 20.6405 21.3193 20.814C21.2178 20.9832 21.0802 21.1187 20.9067 21.2202C20.7375 21.3218 20.5492 21.3726 20.3418 21.3726ZM23.3379 23.7021C23.1305 23.7021 22.9401 23.6514 22.7666 23.5498C22.5973 23.4482 22.4619 23.3128 22.3604 23.1436C22.2588 22.9701 22.208 22.7796 22.208 22.5723C22.208 22.3649 22.2588 22.1766 22.3604 22.0073C22.4619 21.8338 22.5973 21.6984 22.7666 21.6011C22.9401 21.4995 23.1305 21.4487 23.3379 21.4487C23.5452 21.4487 23.7336 21.4995 23.9028 21.6011C24.0763 21.6984 24.2118 21.8338 24.3091 22.0073C24.4106 22.1766 24.4614 22.3649 24.4614 22.5723C24.4614 22.7796 24.4106 22.9701 24.3091 23.1436C24.2118 23.3128 24.0763 23.4482 23.9028 23.5498C23.7336 23.6514 23.5452 23.7021 23.3379 23.7021ZM28.124 20.814C27.9167 20.814 27.7262 20.7632 27.5527 20.6616C27.3835 20.5601 27.248 20.4246 27.1465 20.2554C27.0449 20.0819 26.9941 19.8914 26.9941 19.6841C26.9941 19.4767 27.0449 19.2884 27.1465 19.1191C27.248 18.9456 27.3835 18.8081 27.5527 18.7065C27.7262 18.605 27.9167 18.5542 28.124 18.5542C28.3314 18.5542 28.5197 18.605 28.689 18.7065C28.8625 18.8081 29 18.9456 29.1016 19.1191C29.2031 19.2884 29.2539 19.4767 29.2539 19.6841C29.2539 19.8914 29.2031 20.0819 29.1016 20.2554C29 20.4246 28.8625 20.5601 28.689 20.6616C28.5197 20.7632 28.3314 20.814 28.124 20.814Z" fill="#03A200"/>
</g>
<path d="M43.647 25.1934C43.0454 25.1934 42.5226 25.1003 42.0786 24.9141C41.6382 24.7279 41.2909 24.4683 41.0366 24.1353C40.7824 23.8022 40.6392 23.4137 40.6069 22.9697L40.6016 22.8945H41.9443L41.9497 22.9482C41.9712 23.1667 42.0571 23.3564 42.2075 23.5176C42.3615 23.6787 42.5656 23.8058 42.8198 23.8989C43.0741 23.9884 43.3641 24.0332 43.6899 24.0332C44.0015 24.0332 44.2772 23.9849 44.5171 23.8882C44.757 23.7915 44.945 23.659 45.0811 23.4907C45.2171 23.3188 45.2852 23.1219 45.2852 22.8999V22.8945C45.2852 22.6152 45.1759 22.3879 44.9575 22.2124C44.7391 22.0334 44.3792 21.8901 43.8779 21.7827L43.0454 21.6108C42.2505 21.4425 41.6722 21.174 41.3105 20.8052C40.9525 20.4328 40.7734 19.9583 40.7734 19.3818V19.3765C40.7734 18.9146 40.8952 18.5099 41.1387 18.1626C41.3857 17.8153 41.7241 17.5449 42.1538 17.3516C42.5871 17.1546 43.083 17.0562 43.6416 17.0562C44.2145 17.0562 44.7104 17.1528 45.1294 17.3462C45.5483 17.536 45.8778 17.7956 46.1177 18.125C46.3576 18.4544 46.4919 18.8268 46.5205 19.2422L46.5259 19.312H45.2046L45.1938 19.2476C45.1616 19.0435 45.0775 18.8662 44.9414 18.7158C44.8089 18.5618 44.6317 18.4401 44.4097 18.3506C44.1877 18.2611 43.9281 18.2163 43.6309 18.2163C43.348 18.2163 43.0955 18.2611 42.8735 18.3506C42.6515 18.4365 42.4761 18.5583 42.3472 18.7158C42.2218 18.8734 42.1592 19.0632 42.1592 19.2852V19.2905C42.1592 19.5627 42.2648 19.7882 42.4761 19.9673C42.6909 20.1463 43.04 20.286 43.5234 20.3862L44.356 20.5635C44.9002 20.6781 45.3424 20.8302 45.6826 21.02C46.0228 21.2098 46.2716 21.4461 46.4292 21.729C46.5903 22.0083 46.6709 22.3449 46.6709 22.7388V22.7441C46.6709 23.2454 46.5474 23.6787 46.3003 24.0439C46.0568 24.4092 45.7077 24.6921 45.2529 24.8926C44.8018 25.0931 44.2664 25.1934 43.647 25.1934ZM49.6357 25.0967C49.2669 25.0967 48.9357 25.0251 48.6421 24.8818C48.3521 24.7386 48.1229 24.5363 47.9546 24.2749C47.7899 24.0099 47.7075 23.6984 47.7075 23.3403V23.3296C47.7075 22.9823 47.7935 22.6833 47.9653 22.4326C48.1372 22.1784 48.3896 21.9797 48.7227 21.8364C49.0557 21.6932 49.4603 21.609 49.9365 21.584L52.1064 21.4497V22.3306L50.1245 22.4595C49.7485 22.481 49.471 22.5597 49.292 22.6958C49.113 22.8319 49.0234 23.0216 49.0234 23.2651V23.2759C49.0234 23.5265 49.1183 23.7217 49.3081 23.8613C49.5015 24.001 49.7467 24.0708 50.0439 24.0708C50.3125 24.0708 50.5524 24.0171 50.7637 23.9097C50.9749 23.8022 51.1414 23.6572 51.2632 23.4746C51.3849 23.2884 51.4458 23.0789 51.4458 22.8462V20.9878C51.4458 20.6942 51.3527 20.4704 51.1665 20.3164C50.9803 20.1589 50.7046 20.0801 50.3394 20.0801C50.035 20.0801 49.7861 20.1338 49.5928 20.2412C49.3994 20.3451 49.2687 20.4937 49.2007 20.687L49.1953 20.7085H47.9331L47.9385 20.6602C47.9814 20.3307 48.1104 20.0425 48.3252 19.7954C48.54 19.5483 48.8247 19.3568 49.1792 19.2207C49.5337 19.0846 49.9419 19.0166 50.4038 19.0166C50.9123 19.0166 51.342 19.0954 51.6929 19.2529C52.0438 19.4069 52.3105 19.6325 52.4932 19.9297C52.6758 20.2233 52.7671 20.576 52.7671 20.9878V25H51.4458V24.1943H51.3545C51.2471 24.3805 51.1074 24.5417 50.9355 24.6777C50.7673 24.8138 50.5739 24.9176 50.3555 24.9893C50.137 25.0609 49.8971 25.0967 49.6357 25.0967ZM54.4268 25V16.8574H55.7642V25H54.4268ZM59.959 25.1182C59.3753 25.1182 58.874 24.9946 58.4551 24.7476C58.0397 24.5005 57.7192 24.1496 57.4937 23.6948C57.2681 23.2401 57.1553 22.7012 57.1553 22.0781V22.0728C57.1553 21.4569 57.2663 20.9198 57.4883 20.4614C57.7139 20.0031 58.0326 19.6486 58.4443 19.3979C58.8561 19.1437 59.3395 19.0166 59.8945 19.0166C60.4531 19.0166 60.9329 19.1401 61.334 19.3872C61.7386 19.6307 62.0501 19.9727 62.2686 20.4131C62.487 20.8535 62.5962 21.3691 62.5962 21.96V22.4004H57.8267V21.5034H61.9409L61.3071 22.3413V21.8096C61.3071 21.4193 61.248 21.0952 61.1299 20.8374C61.0117 20.5796 60.847 20.3862 60.6357 20.2573C60.4281 20.1284 60.1864 20.064 59.9106 20.064C59.6349 20.064 59.3896 20.132 59.1748 20.2681C58.9635 20.4006 58.7952 20.5975 58.6699 20.8589C58.5482 21.1167 58.4873 21.4336 58.4873 21.8096V22.3467C58.4873 22.7083 58.5482 23.0181 58.6699 23.2759C58.7917 23.5301 58.9635 23.7271 59.1855 23.8667C59.4111 24.0028 59.6779 24.0708 59.9858 24.0708C60.2257 24.0708 60.4316 24.0368 60.6035 23.9688C60.779 23.8971 60.9204 23.813 61.0278 23.7163C61.1353 23.616 61.2104 23.5212 61.2534 23.4316L61.2695 23.394H62.5371L62.5264 23.4424C62.4798 23.6322 62.3939 23.8255 62.2686 24.0225C62.1468 24.2158 61.9803 24.3966 61.769 24.5649C61.5614 24.7297 61.3071 24.8639 61.0063 24.9678C60.7056 25.068 60.3564 25.1182 59.959 25.1182ZM66.1519 25.1182C65.6541 25.1182 65.2244 25.0483 64.8628 24.9087C64.5047 24.7655 64.2218 24.5685 64.0142 24.3179C63.8065 24.0636 63.6829 23.77 63.6436 23.437V23.4263H64.9702L64.9756 23.437C65.0472 23.6411 65.1815 23.8076 65.3784 23.9365C65.5754 24.0654 65.8403 24.1299 66.1733 24.1299C66.3953 24.1299 66.5905 24.0994 66.7588 24.0386C66.9271 23.9741 67.0596 23.8864 67.1562 23.7754C67.2529 23.6644 67.3013 23.5355 67.3013 23.3887V23.3779C67.3013 23.2061 67.2314 23.0628 67.0918 22.9482C66.9521 22.8301 66.7212 22.7352 66.3989 22.6636L65.4482 22.4487C65.0758 22.3664 64.7679 22.2518 64.5244 22.105C64.2809 21.9582 64.0983 21.7773 63.9766 21.5625C63.8584 21.3477 63.7993 21.097 63.7993 20.8105V20.8052C63.7993 20.4507 63.8978 20.1392 64.0947 19.8706C64.2952 19.6021 64.5728 19.3926 64.9272 19.2422C65.2817 19.0918 65.6899 19.0166 66.1519 19.0166C66.6281 19.0166 67.0381 19.0882 67.3818 19.2314C67.7256 19.3747 67.9941 19.5716 68.1875 19.8223C68.3809 20.0729 68.4919 20.3576 68.5205 20.6763V20.687H67.2637L67.2583 20.6709C67.2082 20.4847 67.0882 20.3271 66.8984 20.1982C66.7122 20.0658 66.4616 19.9995 66.1465 19.9995C65.9495 19.9995 65.7723 20.0299 65.6147 20.0908C65.4608 20.1517 65.339 20.2376 65.2495 20.3486C65.1636 20.4561 65.1206 20.5832 65.1206 20.73V20.7354C65.1206 20.8499 65.1493 20.9502 65.2065 21.0361C65.2674 21.1221 65.3623 21.1973 65.4912 21.2617C65.6201 21.3262 65.7902 21.3835 66.0015 21.4336L66.9521 21.6431C67.5286 21.772 67.9548 21.9635 68.2305 22.2178C68.5062 22.472 68.644 22.814 68.644 23.2437V23.2544C68.644 23.6268 68.5366 23.9526 68.3218 24.2319C68.1069 24.5112 67.8115 24.7297 67.4355 24.8872C67.0596 25.0412 66.6317 25.1182 66.1519 25.1182Z" fill="black"/>
<rect x="10" y="39" width="278" height="180" fill="#D9D9D9"/>
<defs>
<filter id="filter0_dd_713_1820" x="0.5" y="0" width="297" height="229" filterUnits="userSpaceOnUse" color-interpolation-filters="sRGB">
<feFlood flood-opacity="0" result="BackgroundImageFix"/>
<feColorMatrix in="SourceAlpha" type="matrix" values="0 0 0 0 0 0 0 0 0 0 0 0 0 0 0 0 0 0 127 0" result="hardAlpha"/>
<feMorphology radius="0.5" operator="dilate" in="SourceAlpha" result="effect1_dropShadow_713_1820"/>
<feOffset/>
<feComposite in2="hardAlpha" operator="out"/>
<feColorMatrix type="matrix" values="0 0 0 0 0 0 0 0 0 0 0 0 0 0 0 0 0 0 0.05 0"/>
<feBlend mode="normal" in2="BackgroundImageFix" result="effect1_dropShadow_713_1820"/>
<feColorMatrix in="SourceAlpha" type="matrix" values="0 0 0 0 0 0 0 0 0 0 0 0 0 0 0 0 0 0 127 0" result="hardAlpha"/>
<feOffset dy="0.5"/>
<feGaussianBlur stdDeviation="1.25"/>
<feComposite in2="hardAlpha" operator="out"/>
<feColorMatrix type="matrix" values="0 0 0 0 0 0 0 0 0 0 0 0 0 0 0 0 0 0 0.3 0"/>
<feBlend mode="normal" in2="effect1_dropShadow_713_1820" result="effect2_dropShadow_713_1820"/>
<feBlend mode="normal" in="SourceGraphic" in2="effect2_dropShadow_713_1820" result="shape"/>
</filter>
<filter id="filter1_dd_713_1820" x="7.5" y="7" width="28" height="28" filterUnits="userSpaceOnUse" color-interpolation-filters="sRGB">
<feFlood flood-opacity="0" result="BackgroundImageFix"/>
<feColorMatrix in="SourceAlpha" type="matrix" values="0 0 0 0 0 0 0 0 0 0 0 0 0 0 0 0 0 0 127 0" result="hardAlpha"/>
<feMorphology radius="0.5" operator="dilate" in="SourceAlpha" result="effect1_dropShadow_713_1820"/>
<feOffset/>
<feComposite in2="hardAlpha" operator="out"/>
<feColorMatrix type="matrix" values="0 0 0 0 0 0 0 0 0 0 0 0 0 0 0 0 0 0 0.05 0"/>
<feBlend mode="normal" in2="BackgroundImageFix" result="effect1_dropShadow_713_1820"/>
<feColorMatrix in="SourceAlpha" type="matrix" values="0 0 0 0 0 0 0 0 0 0 0 0 0 0 0 0 0 0 127 0" result="hardAlpha"/>
<feOffset dy="0.5"/>
<feGaussianBlur stdDeviation="1.25"/>
<feComposite in2="hardAlpha" operator="out"/>
<feColorMatrix type="matrix" values="0 0 0 0 0 0 0 0 0 0 0 0 0 0 0 0 0 0 0.3 0"/>
<feBlend mode="normal" in2="effect1_dropShadow_713_1820" result="effect2_dropShadow_713_1820"/>
<feBlend mode="normal" in="SourceGraphic" in2="effect2_dropShadow_713_1820" result="shape"/>
</filter>
</defs>
</svg>
