<svg width="194" height="94" viewBox="0 0 194 94" fill="none" xmlns="http://www.w3.org/2000/svg">
<g filter="url(#filter0_dd_714_2067)">
<rect x="3" y="2" width="188" height="89" rx="10" fill="white"/>
</g>
<g filter="url(#filter1_dd_714_2067)">
<rect x="10" y="9" width="23" height="23" rx="7" fill="white"/>
<path d="M17.6646 27.2695C17.0002 27.2695 16.5008 27.1045 16.1665 26.7744C15.8364 26.4486 15.6714 25.9577 15.6714 25.3018V17.5513C15.6714 16.8953 15.8364 16.4045 16.1665 16.0786C16.5008 15.7485 17.0002 15.5835 17.6646 15.5835H26.3354C26.9998 15.5835 27.4971 15.7485 27.8271 16.0786C28.1572 16.4045 28.3223 16.8953 28.3223 17.5513V25.3018C28.3223 25.9577 28.1572 26.4486 27.8271 26.7744C27.4971 27.1045 26.9998 27.2695 26.3354 27.2695H17.6646ZM17.5693 26.2476H26.418C26.7015 26.2476 26.9194 26.1714 27.0718 26.019C27.2241 25.8709 27.3003 25.6509 27.3003 25.3589V19.373C27.3003 19.0811 27.2241 18.861 27.0718 18.7129C26.9194 18.5605 26.7015 18.4844 26.418 18.4844H17.5693C17.29 18.4844 17.0742 18.5605 16.9219 18.7129C16.7695 18.861 16.6934 19.0811 16.6934 19.373V25.3589C16.6934 25.6509 16.7695 25.8709 16.9219 26.019C17.0742 26.1714 17.29 26.2476 17.5693 26.2476ZM20.7622 20.7695C20.6522 20.7695 20.5739 20.7484 20.5273 20.7061C20.485 20.6637 20.4639 20.5876 20.4639 20.4775V20.103C20.4639 19.993 20.485 19.9189 20.5273 19.8809C20.5739 19.8385 20.6522 19.8174 20.7622 19.8174H21.1367C21.2467 19.8174 21.3229 19.8385 21.3652 19.8809C21.4118 19.9189 21.4351 19.993 21.4351 20.103V20.4775C21.4351 20.5876 21.4118 20.6637 21.3652 20.7061C21.3229 20.7484 21.2467 20.7695 21.1367 20.7695H20.7622ZM22.8696 20.7695C22.7596 20.7695 22.6834 20.7484 22.6411 20.7061C22.5988 20.6637 22.5776 20.5876 22.5776 20.4775V20.103C22.5776 19.993 22.5988 19.9189 22.6411 19.8809C22.6834 19.8385 22.7596 19.8174 22.8696 19.8174H23.2441C23.3584 19.8174 23.4367 19.8385 23.479 19.8809C23.5213 19.9189 23.5425 19.993 23.5425 20.103V20.4775C23.5425 20.5876 23.5213 20.6637 23.479 20.7061C23.4367 20.7484 23.3584 20.7695 23.2441 20.7695H22.8696ZM24.9834 20.7695C24.8691 20.7695 24.7909 20.7484 24.7485 20.7061C24.7062 20.6637 24.6851 20.5876 24.6851 20.4775V20.103C24.6851 19.993 24.7062 19.9189 24.7485 19.8809C24.7909 19.8385 24.8691 19.8174 24.9834 19.8174H25.3516C25.4658 19.8174 25.5441 19.8385 25.5864 19.8809C25.6287 19.9189 25.6499 19.993 25.6499 20.103V20.4775C25.6499 20.5876 25.6287 20.6637 25.5864 20.7061C25.5441 20.7484 25.4658 20.7695 25.3516 20.7695H24.9834ZM18.6548 22.8452C18.5405 22.8452 18.4622 22.8241 18.4199 22.7817C18.3776 22.7394 18.3564 22.6632 18.3564 22.5532V22.1851C18.3564 22.0708 18.3776 21.9946 18.4199 21.9565C18.4622 21.9142 18.5405 21.8931 18.6548 21.8931H19.0293C19.1393 21.8931 19.2155 21.9142 19.2578 21.9565C19.3001 21.9946 19.3213 22.0708 19.3213 22.1851V22.5532C19.3213 22.6632 19.3001 22.7394 19.2578 22.7817C19.2155 22.8241 19.1393 22.8452 19.0293 22.8452H18.6548ZM20.7622 22.8452C20.6522 22.8452 20.5739 22.8241 20.5273 22.7817C20.485 22.7394 20.4639 22.6632 20.4639 22.5532V22.1851C20.4639 22.0708 20.485 21.9946 20.5273 21.9565C20.5739 21.9142 20.6522 21.8931 20.7622 21.8931H21.1367C21.2467 21.8931 21.3229 21.9142 21.3652 21.9565C21.4118 21.9946 21.4351 22.0708 21.4351 22.1851V22.5532C21.4351 22.6632 21.4118 22.7394 21.3652 22.7817C21.3229 22.8241 21.2467 22.8452 21.1367 22.8452H20.7622ZM22.8696 22.8452C22.7596 22.8452 22.6834 22.8241 22.6411 22.7817C22.5988 22.7394 22.5776 22.6632 22.5776 22.5532V22.1851C22.5776 22.0708 22.5988 21.9946 22.6411 21.9565C22.6834 21.9142 22.7596 21.8931 22.8696 21.8931H23.2441C23.3584 21.8931 23.4367 21.9142 23.479 21.9565C23.5213 21.9946 23.5425 22.0708 23.5425 22.1851V22.5532C23.5425 22.6632 23.5213 22.7394 23.479 22.7817C23.4367 22.8241 23.3584 22.8452 23.2441 22.8452H22.8696ZM24.9834 22.8452C24.8691 22.8452 24.7909 22.8241 24.7485 22.7817C24.7062 22.7394 24.6851 22.6632 24.6851 22.5532V22.1851C24.6851 22.0708 24.7062 21.9946 24.7485 21.9565C24.7909 21.9142 24.8691 21.8931 24.9834 21.8931H25.3516C25.4658 21.8931 25.5441 21.9142 25.5864 21.9565C25.6287 21.9946 25.6499 22.0708 25.6499 22.1851V22.5532C25.6499 22.6632 25.6287 22.7394 25.5864 22.7817C25.5441 22.8241 25.4658 22.8452 25.3516 22.8452H24.9834ZM18.6548 24.9209C18.5405 24.9209 18.4622 24.9019 18.4199 24.8638C18.3776 24.8215 18.3564 24.7432 18.3564 24.6289V24.2607C18.3564 24.1465 18.3776 24.0703 18.4199 24.0322C18.4622 23.9899 18.5405 23.9688 18.6548 23.9688H19.0293C19.1393 23.9688 19.2155 23.9899 19.2578 24.0322C19.3001 24.0703 19.3213 24.1465 19.3213 24.2607V24.6289C19.3213 24.7432 19.3001 24.8215 19.2578 24.8638C19.2155 24.9019 19.1393 24.9209 19.0293 24.9209H18.6548ZM20.7622 24.9209C20.6522 24.9209 20.5739 24.9019 20.5273 24.8638C20.485 24.8215 20.4639 24.7432 20.4639 24.6289V24.2607C20.4639 24.1465 20.485 24.0703 20.5273 24.0322C20.5739 23.9899 20.6522 23.9688 20.7622 23.9688H21.1367C21.2467 23.9688 21.3229 23.9899 21.3652 24.0322C21.4118 24.0703 21.4351 24.1465 21.4351 24.2607V24.6289C21.4351 24.7432 21.4118 24.8215 21.3652 24.8638C21.3229 24.9019 21.2467 24.9209 21.1367 24.9209H20.7622ZM22.8696 24.9209C22.7596 24.9209 22.6834 24.9019 22.6411 24.8638C22.5988 24.8215 22.5776 24.7432 22.5776 24.6289V24.2607C22.5776 24.1465 22.5988 24.0703 22.6411 24.0322C22.6834 23.9899 22.7596 23.9688 22.8696 23.9688H23.2441C23.3584 23.9688 23.4367 23.9899 23.479 24.0322C23.5213 24.0703 23.5425 24.1465 23.5425 24.2607V24.6289C23.5425 24.7432 23.5213 24.8215 23.479 24.8638C23.4367 24.9019 23.3584 24.9209 23.2441 24.9209H22.8696Z" fill="#03A200"/>
</g>
<path d="M40.9561 26V18.2495H45.9727V19.415H42.3418V21.5151H45.7739V22.6162H42.3418V24.8345H45.9727V26H40.9561ZM49.77 26.1182C49.2723 26.1182 48.8426 26.0483 48.481 25.9087C48.1229 25.7655 47.84 25.5685 47.6323 25.3179C47.4246 25.0636 47.3011 24.77 47.2617 24.437V24.4263H48.5884L48.5938 24.437C48.6654 24.6411 48.7996 24.8076 48.9966 24.9365C49.1935 25.0654 49.4585 25.1299 49.7915 25.1299C50.0135 25.1299 50.2087 25.0994 50.377 25.0386C50.5452 24.9741 50.6777 24.8864 50.7744 24.7754C50.8711 24.6644 50.9194 24.5355 50.9194 24.3887V24.3779C50.9194 24.2061 50.8496 24.0628 50.71 23.9482C50.5703 23.8301 50.3394 23.7352 50.0171 23.6636L49.0664 23.4487C48.694 23.3664 48.3861 23.2518 48.1426 23.105C47.8991 22.9582 47.7165 22.7773 47.5947 22.5625C47.4766 22.3477 47.4175 22.097 47.4175 21.8105V21.8052C47.4175 21.4507 47.516 21.1392 47.7129 20.8706C47.9134 20.6021 48.1909 20.3926 48.5454 20.2422C48.8999 20.0918 49.3081 20.0166 49.77 20.0166C50.2463 20.0166 50.6562 20.0882 51 20.2314C51.3438 20.3747 51.6123 20.5716 51.8057 20.8223C51.999 21.0729 52.11 21.3576 52.1387 21.6763V21.687H50.8818L50.8765 21.6709C50.8263 21.4847 50.7064 21.3271 50.5166 21.1982C50.3304 21.0658 50.0798 20.9995 49.7646 20.9995C49.5677 20.9995 49.3905 21.0299 49.2329 21.0908C49.0789 21.1517 48.9572 21.2376 48.8677 21.3486C48.7817 21.4561 48.7388 21.5832 48.7388 21.73V21.7354C48.7388 21.8499 48.7674 21.9502 48.8247 22.0361C48.8856 22.1221 48.9805 22.1973 49.1094 22.2617C49.2383 22.3262 49.4084 22.3835 49.6196 22.4336L50.5703 22.6431C51.1468 22.772 51.5729 22.9635 51.8486 23.2178C52.1243 23.472 52.2622 23.814 52.2622 24.2437V24.2544C52.2622 24.6268 52.1548 24.9526 51.9399 25.2319C51.7251 25.5112 51.4297 25.7297 51.0537 25.8872C50.6777 26.0412 50.2498 26.1182 49.77 26.1182ZM55.8877 26.0269C55.2145 26.0269 54.7293 25.9033 54.4321 25.6562C54.1349 25.4092 53.9863 25.0046 53.9863 24.4424V21.166H53.0732V20.1294H53.9863V18.6899H55.3452V20.1294H56.5806V21.166H55.3452V24.1255C55.3452 24.4155 55.4061 24.6286 55.5278 24.7646C55.6532 24.8971 55.8537 24.9634 56.1294 24.9634C56.2261 24.9634 56.3049 24.9616 56.3657 24.958C56.4302 24.9508 56.5018 24.9437 56.5806 24.9365V25.9678C56.4875 25.9857 56.38 26 56.2583 26.0107C56.1401 26.0215 56.0166 26.0269 55.8877 26.0269ZM58.9116 26.1021C58.6681 26.1021 58.464 26.0215 58.2993 25.8604C58.1382 25.6956 58.0576 25.4951 58.0576 25.2588C58.0576 25.0189 58.1382 24.8184 58.2993 24.6572C58.464 24.4925 58.6681 24.4102 58.9116 24.4102C59.1587 24.4102 59.3628 24.4925 59.5239 24.6572C59.6851 24.8184 59.7656 25.0189 59.7656 25.2588C59.7656 25.4951 59.6851 25.6956 59.5239 25.8604C59.3628 26.0215 59.1587 26.1021 58.9116 26.1021ZM64.6104 26V18.2495H65.9961V21.4722H69.7666V18.2495H71.147V26H69.7666V22.6377H65.9961V26H64.6104ZM74.5254 26.0967C74.1566 26.0967 73.8254 26.0251 73.5317 25.8818C73.2417 25.7386 73.0125 25.5363 72.8442 25.2749C72.6795 25.0099 72.5972 24.6984 72.5972 24.3403V24.3296C72.5972 23.9823 72.6831 23.6833 72.855 23.4326C73.0269 23.1784 73.2793 22.9797 73.6123 22.8364C73.9453 22.6932 74.3499 22.609 74.8262 22.584L76.9961 22.4497V23.3306L75.0142 23.4595C74.6382 23.481 74.3607 23.5597 74.1816 23.6958C74.0026 23.8319 73.9131 24.0216 73.9131 24.2651V24.2759C73.9131 24.5265 74.008 24.7217 74.1978 24.8613C74.3911 25.001 74.6364 25.0708 74.9336 25.0708C75.2021 25.0708 75.4421 25.0171 75.6533 24.9097C75.8646 24.8022 76.0311 24.6572 76.1528 24.4746C76.2746 24.2884 76.3354 24.0789 76.3354 23.8462V21.9878C76.3354 21.6942 76.2424 21.4704 76.0562 21.3164C75.87 21.1589 75.5942 21.0801 75.229 21.0801C74.9246 21.0801 74.6758 21.1338 74.4824 21.2412C74.2891 21.3451 74.1584 21.4937 74.0903 21.687L74.085 21.7085H72.8228L72.8281 21.6602C72.8711 21.3307 73 21.0425 73.2148 20.7954C73.4297 20.5483 73.7144 20.3568 74.0688 20.2207C74.4233 20.0846 74.8315 20.0166 75.2935 20.0166C75.8019 20.0166 76.2316 20.0954 76.5825 20.2529C76.9334 20.4069 77.2002 20.6325 77.3828 20.9297C77.5654 21.2233 77.6567 21.576 77.6567 21.9878V26H76.3354V25.1943H76.2441C76.1367 25.3805 75.9971 25.5417 75.8252 25.6777C75.6569 25.8138 75.4635 25.9176 75.2451 25.9893C75.0267 26.0609 74.7868 26.0967 74.5254 26.0967ZM79.2627 26V20.1294H80.6001V21.0317H80.6914C80.7917 20.7166 80.9707 20.4714 81.2285 20.2959C81.4899 20.1204 81.814 20.0327 82.2007 20.0327C82.3009 20.0327 82.3994 20.0399 82.4961 20.0542C82.5964 20.0649 82.6787 20.0793 82.7432 20.0972V21.2949C82.6357 21.2699 82.5265 21.252 82.4155 21.2412C82.3081 21.2269 82.1953 21.2197 82.0771 21.2197C81.7799 21.2197 81.5203 21.2752 81.2983 21.3862C81.0763 21.4972 80.9045 21.6566 80.7827 21.8643C80.661 22.0684 80.6001 22.3101 80.6001 22.5894V26H79.2627ZM85.4932 26L83.4038 20.1294H84.8325L86.186 24.6948H86.2827L87.6309 20.1294H89.0381L86.9541 26H85.4932ZM92.4434 26.1182C91.8597 26.1182 91.3584 25.9946 90.9395 25.7476C90.5241 25.5005 90.2036 25.1496 89.978 24.6948C89.7524 24.2401 89.6396 23.7012 89.6396 23.0781V23.0728C89.6396 22.4569 89.7507 21.9198 89.9727 21.4614C90.1982 21.0031 90.5169 20.6486 90.9287 20.3979C91.3405 20.1437 91.8239 20.0166 92.3789 20.0166C92.9375 20.0166 93.4173 20.1401 93.8184 20.3872C94.223 20.6307 94.5345 20.9727 94.7529 21.4131C94.9714 21.8535 95.0806 22.3691 95.0806 22.96V23.4004H90.311V22.5034H94.4253L93.7915 23.3413V22.8096C93.7915 22.4193 93.7324 22.0952 93.6143 21.8374C93.4961 21.5796 93.3314 21.3862 93.1201 21.2573C92.9124 21.1284 92.6707 21.064 92.395 21.064C92.1193 21.064 91.874 21.132 91.6592 21.2681C91.4479 21.4006 91.2796 21.5975 91.1543 21.8589C91.0326 22.1167 90.9717 22.4336 90.9717 22.8096V23.3467C90.9717 23.7083 91.0326 24.0181 91.1543 24.2759C91.276 24.5301 91.4479 24.7271 91.6699 24.8667C91.8955 25.0028 92.1623 25.0708 92.4702 25.0708C92.7101 25.0708 92.916 25.0368 93.0879 24.9688C93.2633 24.8971 93.4048 24.813 93.5122 24.7163C93.6196 24.616 93.6948 24.5212 93.7378 24.4316L93.7539 24.394H95.0215L95.0107 24.4424C94.9642 24.6322 94.8783 24.8255 94.7529 25.0225C94.6312 25.2158 94.4647 25.3966 94.2534 25.5649C94.0457 25.7297 93.7915 25.8639 93.4907 25.9678C93.1899 26.068 92.8408 26.1182 92.4434 26.1182ZM98.6362 26.1182C98.1385 26.1182 97.7088 26.0483 97.3472 25.9087C96.9891 25.7655 96.7062 25.5685 96.4985 25.3179C96.2909 25.0636 96.1673 24.77 96.1279 24.437V24.4263H97.4546L97.46 24.437C97.5316 24.6411 97.6659 24.8076 97.8628 24.9365C98.0597 25.0654 98.3247 25.1299 98.6577 25.1299C98.8797 25.1299 99.0749 25.0994 99.2432 25.0386C99.4115 24.9741 99.5439 24.8864 99.6406 24.7754C99.7373 24.6644 99.7856 24.5355 99.7856 24.3887V24.3779C99.7856 24.2061 99.7158 24.0628 99.5762 23.9482C99.4365 23.8301 99.2056 23.7352 98.8833 23.6636L97.9326 23.4487C97.5602 23.3664 97.2523 23.2518 97.0088 23.105C96.7653 22.9582 96.5827 22.7773 96.4609 22.5625C96.3428 22.3477 96.2837 22.097 96.2837 21.8105V21.8052C96.2837 21.4507 96.3822 21.1392 96.5791 20.8706C96.7796 20.6021 97.0571 20.3926 97.4116 20.2422C97.7661 20.0918 98.1743 20.0166 98.6362 20.0166C99.1125 20.0166 99.5225 20.0882 99.8662 20.2314C100.21 20.3747 100.479 20.5716 100.672 20.8223C100.865 21.0729 100.976 21.3576 101.005 21.6763V21.687H99.748L99.7427 21.6709C99.6925 21.4847 99.5726 21.3271 99.3828 21.1982C99.1966 21.0658 98.946 20.9995 98.6309 20.9995C98.4339 20.9995 98.2567 21.0299 98.0991 21.0908C97.9451 21.1517 97.8234 21.2376 97.7339 21.3486C97.6479 21.4561 97.605 21.5832 97.605 21.73V21.7354C97.605 21.8499 97.6336 21.9502 97.6909 22.0361C97.7518 22.1221 97.8467 22.1973 97.9756 22.2617C98.1045 22.3262 98.2746 22.3835 98.4858 22.4336L99.4365 22.6431C100.013 22.772 100.439 22.9635 100.715 23.2178C100.991 23.472 101.128 23.814 101.128 24.2437V24.2544C101.128 24.6268 101.021 24.9526 100.806 25.2319C100.591 25.5112 100.296 25.7297 99.9199 25.8872C99.5439 26.0412 99.116 26.1182 98.6362 26.1182ZM104.754 26.0269C104.081 26.0269 103.596 25.9033 103.298 25.6562C103.001 25.4092 102.853 25.0046 102.853 24.4424V21.166H101.939V20.1294H102.853V18.6899H104.211V20.1294H105.447V21.166H104.211V24.1255C104.211 24.4155 104.272 24.6286 104.394 24.7646C104.519 24.8971 104.72 24.9634 104.996 24.9634C105.092 24.9634 105.171 24.9616 105.232 24.958C105.296 24.9508 105.368 24.9437 105.447 24.9365V25.9678C105.354 25.9857 105.246 26 105.125 26.0107C105.006 26.0215 104.883 26.0269 104.754 26.0269ZM112.252 26.1182C111.668 26.1182 111.165 25.9964 110.743 25.7529C110.32 25.5059 109.994 25.1549 109.765 24.7002C109.54 24.2454 109.427 23.7012 109.427 23.0674V23.0566C109.427 22.43 109.541 21.8893 109.771 21.4346C110 20.9762 110.324 20.6253 110.743 20.3818C111.165 20.1383 111.668 20.0166 112.252 20.0166C112.836 20.0166 113.337 20.1383 113.756 20.3818C114.178 20.6253 114.504 20.9744 114.733 21.4292C114.963 21.884 115.077 22.4264 115.077 23.0566V23.0674C115.077 23.7012 114.963 24.2454 114.733 24.7002C114.508 25.1549 114.184 25.5059 113.761 25.7529C113.342 25.9964 112.839 26.1182 112.252 26.1182ZM112.252 25.0332C112.56 25.0332 112.821 24.9562 113.036 24.8022C113.255 24.6447 113.421 24.4209 113.536 24.1309C113.65 23.8372 113.708 23.4845 113.708 23.0728V23.062C113.708 22.6466 113.65 22.2939 113.536 22.0039C113.421 21.7103 113.255 21.4865 113.036 21.3325C112.821 21.175 112.56 21.0962 112.252 21.0962C111.944 21.0962 111.681 21.175 111.462 21.3325C111.244 21.4865 111.077 21.7103 110.963 22.0039C110.848 22.2939 110.791 22.6466 110.791 23.062V23.0728C110.791 23.4845 110.848 23.8372 110.963 24.1309C111.077 24.4245 111.242 24.6483 111.457 24.8022C111.675 24.9562 111.94 25.0332 112.252 25.0332ZM116.42 26V20.1294H117.757V21.0317H117.849C117.988 20.7131 118.2 20.4642 118.482 20.2852C118.765 20.1061 119.118 20.0166 119.541 20.0166C120.196 20.0166 120.697 20.2064 121.044 20.5859C121.392 20.9655 121.565 21.5044 121.565 22.2026V26H120.228V22.5142C120.228 22.0558 120.131 21.7121 119.938 21.4829C119.748 21.2537 119.451 21.1392 119.046 21.1392C118.781 21.1392 118.552 21.1982 118.359 21.3164C118.166 21.4346 118.017 21.6011 117.913 21.8159C117.809 22.0308 117.757 22.285 117.757 22.5786V26H116.42Z" fill="black"/>
<defs>
<filter id="filter0_dd_714_2067" x="0.5" y="0" width="193" height="94" filterUnits="userSpaceOnUse" color-interpolation-filters="sRGB">
<feFlood flood-opacity="0" result="BackgroundImageFix"/>
<feColorMatrix in="SourceAlpha" type="matrix" values="0 0 0 0 0 0 0 0 0 0 0 0 0 0 0 0 0 0 127 0" result="hardAlpha"/>
<feMorphology radius="0.5" operator="dilate" in="SourceAlpha" result="effect1_dropShadow_714_2067"/>
<feOffset/>
<feComposite in2="hardAlpha" operator="out"/>
<feColorMatrix type="matrix" values="0 0 0 0 0 0 0 0 0 0 0 0 0 0 0 0 0 0 0.05 0"/>
<feBlend mode="normal" in2="BackgroundImageFix" result="effect1_dropShadow_714_2067"/>
<feColorMatrix in="SourceAlpha" type="matrix" values="0 0 0 0 0 0 0 0 0 0 0 0 0 0 0 0 0 0 127 0" result="hardAlpha"/>
<feOffset dy="0.5"/>
<feGaussianBlur stdDeviation="1.25"/>
<feComposite in2="hardAlpha" operator="out"/>
<feColorMatrix type="matrix" values="0 0 0 0 0 0 0 0 0 0 0 0 0 0 0 0 0 0 0.3 0"/>
<feBlend mode="normal" in2="effect1_dropShadow_714_2067" result="effect2_dropShadow_714_2067"/>
<feBlend mode="normal" in="SourceGraphic" in2="effect2_dropShadow_714_2067" result="shape"/>
</filter>
<filter id="filter1_dd_714_2067" x="7.5" y="7" width="28" height="28" filterUnits="userSpaceOnUse" color-interpolation-filters="sRGB">
<feFlood flood-opacity="0" result="BackgroundImageFix"/>
<feColorMatrix in="SourceAlpha" type="matrix" values="0 0 0 0 0 0 0 0 0 0 0 0 0 0 0 0 0 0 127 0" result="hardAlpha"/>
<feMorphology radius="0.5" operator="dilate" in="SourceAlpha" result="effect1_dropShadow_714_2067"/>
<feOffset/>
<feComposite in2="hardAlpha" operator="out"/>
<feColorMatrix type="matrix" values="0 0 0 0 0 0 0 0 0 0 0 0 0 0 0 0 0 0 0.05 0"/>
<feBlend mode="normal" in2="BackgroundImageFix" result="effect1_dropShadow_714_2067"/>
<feColorMatrix in="SourceAlpha" type="matrix" values="0 0 0 0 0 0 0 0 0 0 0 0 0 0 0 0 0 0 127 0" result="hardAlpha"/>
<feOffset dy="0.5"/>
<feGaussianBlur stdDeviation="1.25"/>
<feComposite in2="hardAlpha" operator="out"/>
<feColorMatrix type="matrix" values="0 0 0 0 0 0 0 0 0 0 0 0 0 0 0 0 0 0 0.3 0"/>
<feBlend mode="normal" in2="effect1_dropShadow_714_2067" result="effect2_dropShadow_714_2067"/>
<feBlend mode="normal" in="SourceGraphic" in2="effect2_dropShadow_714_2067" result="shape"/>
</filter>
</defs>
</svg>
