<svg width="58" height="28" viewBox="0 0 58 28" fill="none" xmlns="http://www.w3.org/2000/svg">
<g filter="url(#filter0_dd_372_4481)">
<rect x="3" y="2" width="52" height="22" rx="5" fill="#03A200"/>
<rect x="3" y="2" width="52" height="22" rx="5" fill="url(#paint0_linear_372_4481)" fill-opacity="0.17"/>
<path d="M11.6011 18V8.84033H12.7437V16.9717H17.1616V18H11.6011ZM21.3447 18.1206C20.6973 18.1206 20.1366 17.9788 19.6626 17.6953C19.1929 17.4076 18.8289 16.9992 18.5708 16.4702C18.3169 15.9412 18.1899 15.3128 18.1899 14.585V14.5723C18.1899 13.8402 18.3169 13.2096 18.5708 12.6807C18.8289 12.1517 19.1929 11.7454 19.6626 11.4619C20.1366 11.1784 20.6973 11.0366 21.3447 11.0366C21.9964 11.0366 22.5571 11.1784 23.0269 11.4619C23.4966 11.7454 23.8584 12.1517 24.1123 12.6807C24.3704 13.2096 24.4995 13.8402 24.4995 14.5723V14.585C24.4995 15.3128 24.3704 15.9412 24.1123 16.4702C23.8584 16.9992 23.4966 17.4076 23.0269 17.6953C22.5571 17.9788 21.9964 18.1206 21.3447 18.1206ZM21.3447 17.1431C21.7764 17.1431 22.1424 17.0415 22.4429 16.8384C22.7433 16.6353 22.9718 16.3433 23.1284 15.9624C23.2892 15.5815 23.3696 15.1224 23.3696 14.585V14.5723C23.3696 14.0306 23.2892 13.5693 23.1284 13.1885C22.9718 12.8076 22.7433 12.5177 22.4429 12.3188C22.1424 12.1157 21.7764 12.0142 21.3447 12.0142C20.9131 12.0142 20.547 12.1157 20.2466 12.3188C19.9461 12.5177 19.7155 12.8076 19.5547 13.1885C19.3981 13.5693 19.3198 14.0306 19.3198 14.5723V14.585C19.3198 15.1224 19.3981 15.5815 19.5547 15.9624C19.7155 16.3433 19.9461 16.6353 20.2466 16.8384C20.547 17.0415 20.9131 17.1431 21.3447 17.1431ZM29.0317 20.4121C28.4816 20.4121 28.0013 20.3338 27.5908 20.1772C27.1803 20.0249 26.8524 19.807 26.6069 19.5234C26.3657 19.2441 26.2155 18.9183 26.1562 18.5459L26.1689 18.5396H27.3115L27.3179 18.5459C27.3771 18.804 27.5549 19.0156 27.8511 19.1807C28.1473 19.3499 28.5409 19.4346 29.0317 19.4346C29.6453 19.4346 30.1235 19.2949 30.4663 19.0156C30.8133 18.7406 30.9868 18.3512 30.9868 17.8477V16.4639H30.8853C30.7414 16.7135 30.5615 16.9272 30.3457 17.105C30.1299 17.2827 29.8866 17.4181 29.6157 17.5112C29.3449 17.6001 29.0529 17.6445 28.7397 17.6445C28.1515 17.6445 27.6416 17.5049 27.21 17.2256C26.7826 16.9421 26.4525 16.5527 26.2197 16.0576C25.987 15.5625 25.8706 14.9954 25.8706 14.3564V14.3438C25.8706 13.7048 25.987 13.1377 26.2197 12.6426C26.4567 12.1432 26.791 11.7518 27.2227 11.4683C27.6543 11.1805 28.1685 11.0366 28.7651 11.0366C29.0868 11.0366 29.383 11.0874 29.6538 11.189C29.9246 11.2905 30.1637 11.4344 30.3711 11.6206C30.5827 11.8068 30.7583 12.029 30.8979 12.2871H30.9741V11.1572H32.0786V17.9048C32.0786 18.4126 31.9538 18.8548 31.7041 19.2314C31.4587 19.6081 31.1074 19.8979 30.6504 20.1011C30.1934 20.3084 29.6538 20.4121 29.0317 20.4121ZM28.981 16.667C29.4041 16.667 29.766 16.5697 30.0664 16.375C30.3711 16.1761 30.6038 15.9032 30.7646 15.5562C30.9297 15.2091 31.0122 14.8092 31.0122 14.3564V14.3438C31.0122 13.891 30.9297 13.4889 30.7646 13.1377C30.6038 12.7865 30.3711 12.5114 30.0664 12.3125C29.766 12.1136 29.4041 12.0142 28.981 12.0142C28.5578 12.0142 28.1981 12.1136 27.9019 12.3125C27.6099 12.5114 27.3856 12.7865 27.229 13.1377C27.0767 13.4889 27.0005 13.891 27.0005 14.3438V14.3564C27.0005 14.8092 27.0767 15.2091 27.229 15.5562C27.3856 15.9032 27.6099 16.1761 27.9019 16.375C28.1981 16.5697 28.5578 16.667 28.981 16.667ZM37.8169 18V11.1572H38.9214V18H37.8169ZM38.3755 9.83691C38.1681 9.83691 37.9883 9.76286 37.8359 9.61475C37.6878 9.4624 37.6138 9.28255 37.6138 9.0752C37.6138 8.86361 37.6878 8.68376 37.8359 8.53564C37.9883 8.38753 38.1681 8.31348 38.3755 8.31348C38.5871 8.31348 38.7669 8.38753 38.915 8.53564C39.0632 8.68376 39.1372 8.86361 39.1372 9.0752C39.1372 9.28255 39.0632 9.4624 38.915 9.61475C38.7669 9.76286 38.5871 9.83691 38.3755 9.83691ZM41.0034 18V11.1572H42.1079V12.1855H42.2095C42.383 11.8216 42.6326 11.5402 42.9585 11.3413C43.2843 11.1382 43.6991 11.0366 44.2026 11.0366C44.9728 11.0366 45.5632 11.2567 45.9736 11.6968C46.3883 12.1326 46.5957 12.7568 46.5957 13.5693V18H45.4912V13.8359C45.4912 13.2181 45.36 12.7611 45.0977 12.4648C44.8395 12.1644 44.4375 12.0142 43.8916 12.0142C43.5277 12.0142 43.2124 12.0924 42.9458 12.249C42.6792 12.4056 42.4718 12.6278 42.3237 12.9155C42.1799 13.2033 42.1079 13.5482 42.1079 13.9502V18H41.0034Z" fill="white"/>
</g>
<defs>
<filter id="filter0_dd_372_4481" x="0.5" y="0.5" width="57" height="27" filterUnits="userSpaceOnUse" color-interpolation-filters="sRGB">
<feFlood flood-opacity="0" result="BackgroundImageFix"/>
<feColorMatrix in="SourceAlpha" type="matrix" values="0 0 0 0 0 0 0 0 0 0 0 0 0 0 0 0 0 0 127 0" result="hardAlpha"/>
<feMorphology radius="0.5" operator="dilate" in="SourceAlpha" result="effect1_dropShadow_372_4481"/>
<feOffset/>
<feComposite in2="hardAlpha" operator="out"/>
<feColorMatrix type="matrix" values="0 0 0 0 0 0 0 0 0 0.478431 0 0 0 0 1 0 0 0 0.12 0"/>
<feBlend mode="normal" in2="BackgroundImageFix" result="effect1_dropShadow_372_4481"/>
<feColorMatrix in="SourceAlpha" type="matrix" values="0 0 0 0 0 0 0 0 0 0 0 0 0 0 0 0 0 0 127 0" result="hardAlpha"/>
<feOffset dy="1"/>
<feGaussianBlur stdDeviation="1.25"/>
<feComposite in2="hardAlpha" operator="out"/>
<feColorMatrix type="matrix" values="0 0 0 0 0 0 0 0 0 0.478431 0 0 0 0 1 0 0 0 0.24 0"/>
<feBlend mode="normal" in2="effect1_dropShadow_372_4481" result="effect2_dropShadow_372_4481"/>
<feBlend mode="normal" in="SourceGraphic" in2="effect2_dropShadow_372_4481" result="shape"/>
</filter>
<linearGradient id="paint0_linear_372_4481" x1="29" y1="2" x2="29" y2="24" gradientUnits="userSpaceOnUse">
<stop stop-color="white"/>
<stop offset="1" stop-color="white" stop-opacity="0"/>
</linearGradient>
</defs>
</svg>
