<svg width="63" height="27" viewBox="0 0 63 27" fill="none" xmlns="http://www.w3.org/2000/svg">
<g filter="url(#filter0_dd_513_7158)">
<rect x="3" y="2" width="57" height="22" rx="5" fill="white"/>
<path d="M11.499 18V8.84033H12.6416V16.9717H17.0596V18H11.499ZM21.2427 18.1206C20.5952 18.1206 20.0345 17.9788 19.5605 17.6953C19.0908 17.4076 18.7269 16.9992 18.4688 16.4702C18.2148 15.9412 18.0879 15.3128 18.0879 14.585V14.5723C18.0879 13.8402 18.2148 13.2096 18.4688 12.6807C18.7269 12.1517 19.0908 11.7454 19.5605 11.4619C20.0345 11.1784 20.5952 11.0366 21.2427 11.0366C21.8944 11.0366 22.4551 11.1784 22.9248 11.4619C23.3945 11.7454 23.7563 12.1517 24.0103 12.6807C24.2684 13.2096 24.3975 13.8402 24.3975 14.5723V14.585C24.3975 15.3128 24.2684 15.9412 24.0103 16.4702C23.7563 16.9992 23.3945 17.4076 22.9248 17.6953C22.4551 17.9788 21.8944 18.1206 21.2427 18.1206ZM21.2427 17.1431C21.6743 17.1431 22.0404 17.0415 22.3408 16.8384C22.6413 16.6353 22.8698 16.3433 23.0264 15.9624C23.1872 15.5815 23.2676 15.1224 23.2676 14.585V14.5723C23.2676 14.0306 23.1872 13.5693 23.0264 13.1885C22.8698 12.8076 22.6413 12.5177 22.3408 12.3188C22.0404 12.1157 21.6743 12.0142 21.2427 12.0142C20.811 12.0142 20.445 12.1157 20.1445 12.3188C19.8441 12.5177 19.6134 12.8076 19.4526 13.1885C19.2961 13.5693 19.2178 14.0306 19.2178 14.5723V14.585C19.2178 15.1224 19.2961 15.5815 19.4526 15.9624C19.6134 16.3433 19.8441 16.6353 20.1445 16.8384C20.445 17.0415 20.811 17.1431 21.2427 17.1431ZM28.9297 20.4121C28.3796 20.4121 27.8993 20.3338 27.4888 20.1772C27.0783 20.0249 26.7503 19.807 26.5049 19.5234C26.2637 19.2441 26.1134 18.9183 26.0542 18.5459L26.0669 18.5396H27.2095L27.2158 18.5459C27.2751 18.804 27.4528 19.0156 27.749 19.1807C28.0452 19.3499 28.4388 19.4346 28.9297 19.4346C29.5433 19.4346 30.0215 19.2949 30.3643 19.0156C30.7113 18.7406 30.8848 18.3512 30.8848 17.8477V16.4639H30.7832C30.6393 16.7135 30.4595 16.9272 30.2437 17.105C30.0278 17.2827 29.7845 17.4181 29.5137 17.5112C29.2428 17.6001 28.9508 17.6445 28.6377 17.6445C28.0495 17.6445 27.5396 17.5049 27.1079 17.2256C26.6805 16.9421 26.3504 16.5527 26.1177 16.0576C25.8849 15.5625 25.7686 14.9954 25.7686 14.3564V14.3438C25.7686 13.7048 25.8849 13.1377 26.1177 12.6426C26.3547 12.1432 26.689 11.7518 27.1206 11.4683C27.5522 11.1805 28.0664 11.0366 28.6631 11.0366C28.9847 11.0366 29.2809 11.0874 29.5518 11.189C29.8226 11.2905 30.0617 11.4344 30.269 11.6206C30.4806 11.8068 30.6562 12.029 30.7959 12.2871H30.8721V11.1572H31.9766V17.9048C31.9766 18.4126 31.8517 18.8548 31.6021 19.2314C31.3566 19.6081 31.0054 19.8979 30.5483 20.1011C30.0913 20.3084 29.5518 20.4121 28.9297 20.4121ZM28.8789 16.667C29.3021 16.667 29.6639 16.5697 29.9644 16.375C30.269 16.1761 30.5018 15.9032 30.6626 15.5562C30.8276 15.2091 30.9102 14.8092 30.9102 14.3564V14.3438C30.9102 13.891 30.8276 13.4889 30.6626 13.1377C30.5018 12.7865 30.269 12.5114 29.9644 12.3125C29.6639 12.1136 29.3021 12.0142 28.8789 12.0142C28.4557 12.0142 28.096 12.1136 27.7998 12.3125C27.5078 12.5114 27.2835 12.7865 27.127 13.1377C26.9746 13.4889 26.8984 13.891 26.8984 14.3438V14.3564C26.8984 14.8092 26.9746 15.2091 27.127 15.5562C27.2835 15.9032 27.5078 16.1761 27.7998 16.375C28.096 16.5697 28.4557 16.667 28.8789 16.667ZM36.8452 18.1206C36.1978 18.1206 35.637 17.9788 35.1631 17.6953C34.6934 17.4076 34.3294 16.9992 34.0713 16.4702C33.8174 15.9412 33.6904 15.3128 33.6904 14.585V14.5723C33.6904 13.8402 33.8174 13.2096 34.0713 12.6807C34.3294 12.1517 34.6934 11.7454 35.1631 11.4619C35.637 11.1784 36.1978 11.0366 36.8452 11.0366C37.4969 11.0366 38.0576 11.1784 38.5273 11.4619C38.9971 11.7454 39.3589 12.1517 39.6128 12.6807C39.8709 13.2096 40 13.8402 40 14.5723V14.585C40 15.3128 39.8709 15.9412 39.6128 16.4702C39.3589 16.9992 38.9971 17.4076 38.5273 17.6953C38.0576 17.9788 37.4969 18.1206 36.8452 18.1206ZM36.8452 17.1431C37.2769 17.1431 37.6429 17.0415 37.9434 16.8384C38.2438 16.6353 38.4723 16.3433 38.6289 15.9624C38.7897 15.5815 38.8701 15.1224 38.8701 14.585V14.5723C38.8701 14.0306 38.7897 13.5693 38.6289 13.1885C38.4723 12.8076 38.2438 12.5177 37.9434 12.3188C37.6429 12.1157 37.2769 12.0142 36.8452 12.0142C36.4136 12.0142 36.0475 12.1157 35.7471 12.3188C35.4466 12.5177 35.216 12.8076 35.0552 13.1885C34.8986 13.5693 34.8203 14.0306 34.8203 14.5723V14.585C34.8203 15.1224 34.8986 15.5815 35.0552 15.9624C35.216 16.3433 35.4466 16.6353 35.7471 16.8384C36.0475 17.0415 36.4136 17.1431 36.8452 17.1431ZM44.0054 18.1206C43.4891 18.1206 43.0553 18.0233 42.7041 17.8286C42.3529 17.6297 42.0884 17.342 41.9106 16.9653C41.7371 16.5845 41.6504 16.1253 41.6504 15.5879V11.1572H42.7549V15.3213C42.7549 15.9349 42.8734 16.3919 43.1104 16.6924C43.3516 16.9928 43.7451 17.1431 44.291 17.1431C44.5915 17.1431 44.856 17.0986 45.0845 17.0098C45.3172 16.9209 45.5119 16.7939 45.6685 16.6289C45.825 16.4596 45.9414 16.2565 46.0176 16.0195C46.098 15.7783 46.1382 15.5075 46.1382 15.207V11.1572H47.2427V18H46.1382V16.978H46.0366C45.9266 17.2192 45.7764 17.4266 45.5859 17.6001C45.3955 17.7694 45.167 17.8984 44.9004 17.9873C44.638 18.0762 44.3397 18.1206 44.0054 18.1206ZM51.7368 18.0508C51.0343 18.0508 50.5244 17.909 50.207 17.6255C49.8939 17.342 49.7373 16.8743 49.7373 16.2227V12.0713H48.6582V11.1572H49.7373V9.38623H50.8799V11.1572H52.3779V12.0713H50.8799V15.9434C50.8799 16.3454 50.9561 16.6353 51.1084 16.813C51.2607 16.9865 51.5146 17.0732 51.8701 17.0732C51.9674 17.0732 52.05 17.0711 52.1177 17.0669C52.1896 17.0627 52.2764 17.0563 52.3779 17.0479V17.9873C52.2721 18.0042 52.1663 18.019 52.0605 18.0317C51.9548 18.0444 51.8468 18.0508 51.7368 18.0508Z" fill="#FF3B30"/>
</g>
<defs>
<filter id="filter0_dd_513_7158" x="0.5" y="0" width="62" height="27" filterUnits="userSpaceOnUse" color-interpolation-filters="sRGB">
<feFlood flood-opacity="0" result="BackgroundImageFix"/>
<feColorMatrix in="SourceAlpha" type="matrix" values="0 0 0 0 0 0 0 0 0 0 0 0 0 0 0 0 0 0 127 0" result="hardAlpha"/>
<feMorphology radius="0.5" operator="dilate" in="SourceAlpha" result="effect1_dropShadow_513_7158"/>
<feOffset/>
<feComposite in2="hardAlpha" operator="out"/>
<feColorMatrix type="matrix" values="0 0 0 0 0 0 0 0 0 0 0 0 0 0 0 0 0 0 0.05 0"/>
<feBlend mode="normal" in2="BackgroundImageFix" result="effect1_dropShadow_513_7158"/>
<feColorMatrix in="SourceAlpha" type="matrix" values="0 0 0 0 0 0 0 0 0 0 0 0 0 0 0 0 0 0 127 0" result="hardAlpha"/>
<feOffset dy="0.5"/>
<feGaussianBlur stdDeviation="1.25"/>
<feComposite in2="hardAlpha" operator="out"/>
<feColorMatrix type="matrix" values="0 0 0 0 0 0 0 0 0 0 0 0 0 0 0 0 0 0 0.3 0"/>
<feBlend mode="normal" in2="effect1_dropShadow_513_7158" result="effect2_dropShadow_513_7158"/>
<feBlend mode="normal" in="SourceGraphic" in2="effect2_dropShadow_513_7158" result="shape"/>
</filter>
</defs>
</svg>
