<svg width="228" height="28" viewBox="0 0 228 28" fill="none" xmlns="http://www.w3.org/2000/svg">
<g style="mix-blend-mode:plus-darker">
<rect x="4" y="27" width="220" height="1" fill="#F5F5F5"/>
</g>
<path d="M48.4414 19.2158C47.8066 19.2158 47.2332 19.1037 46.7212 18.8794C46.2134 18.6551 45.7775 18.3335 45.4136 17.9146C45.0539 17.4956 44.7767 16.992 44.582 16.4038C44.3874 15.8156 44.29 15.1554 44.29 14.4233V14.4106C44.29 13.4458 44.4614 12.6058 44.8042 11.8906C45.147 11.1712 45.6294 10.6147 46.2515 10.2212C46.8778 9.8234 47.6077 9.62451 48.4414 9.62451C49.1185 9.62451 49.7215 9.74512 50.2505 9.98633C50.7837 10.2233 51.2217 10.5576 51.5645 10.9893C51.9115 11.4209 52.1442 11.9266 52.2627 12.5063L52.2754 12.5698H51.1201L51.1011 12.5063C50.9149 11.9139 50.5954 11.4611 50.1426 11.1479C49.6898 10.8348 49.1227 10.6782 48.4414 10.6782C47.8363 10.6782 47.3094 10.8327 46.8608 11.1416C46.4165 11.4463 46.0716 11.8779 45.8262 12.4365C45.5807 12.9951 45.458 13.6532 45.458 14.4106V14.4233C45.458 14.9989 45.5257 15.5173 45.6611 15.9785C45.8008 16.4398 45.9997 16.8333 46.2578 17.1592C46.5202 17.4808 46.8354 17.7284 47.2036 17.9019C47.5718 18.0754 47.9865 18.1621 48.4478 18.1621C48.9937 18.1621 49.4718 18.0542 49.8823 17.8384C50.297 17.6183 50.6187 17.3136 50.8472 16.9243C51.0757 16.535 51.1899 16.0822 51.1899 15.5659V15.3438H48.6191V14.3408H52.3325V15.458C52.3325 16.0208 52.2394 16.5329 52.0532 16.9941C51.8713 17.4554 51.6089 17.8532 51.2661 18.1875C50.9233 18.5176 50.5129 18.7715 50.0347 18.9492C49.5565 19.127 49.0254 19.2158 48.4414 19.2158ZM56.0967 19.1206C55.665 19.1206 55.2757 19.0381 54.9287 18.873C54.5859 18.708 54.313 18.4731 54.1099 18.1685C53.911 17.8638 53.8115 17.5041 53.8115 17.0894V17.0767C53.8115 16.6704 53.9089 16.3234 54.1035 16.0356C54.2982 15.7437 54.5817 15.5151 54.9541 15.3501C55.3265 15.1851 55.7772 15.0877 56.3062 15.0581L58.8198 14.9058V15.7881L56.4395 15.9404C55.9189 15.9701 55.5381 16.078 55.2969 16.2642C55.0599 16.4504 54.9414 16.7127 54.9414 17.0513V17.064C54.9414 17.411 55.0726 17.6818 55.335 17.8765C55.5973 18.0669 55.9274 18.1621 56.3252 18.1621C56.7018 18.1621 57.0361 18.0881 57.3281 17.9399C57.6201 17.7876 57.8486 17.5824 58.0137 17.3242C58.1829 17.0661 58.2676 16.7741 58.2676 16.4482V14.3154C58.2676 13.8923 58.1385 13.5706 57.8804 13.3506C57.6265 13.1263 57.2435 13.0142 56.7314 13.0142C56.321 13.0142 55.9845 13.0882 55.7222 13.2363C55.4598 13.3802 55.2842 13.5854 55.1953 13.8521L55.189 13.8711H54.0845L54.0908 13.833C54.1501 13.4733 54.2982 13.1602 54.5352 12.8936C54.7764 12.6227 55.0874 12.4132 55.4683 12.2651C55.8491 12.1128 56.2829 12.0366 56.7695 12.0366C57.3281 12.0366 57.8 12.1276 58.1851 12.3096C58.5744 12.4915 58.8685 12.7539 59.0674 13.0967C59.2705 13.4352 59.3721 13.8415 59.3721 14.3154V19H58.2676V17.9907H58.166C58.0221 18.2319 57.8465 18.4372 57.6392 18.6064C57.436 18.7757 57.2054 18.9048 56.9473 18.9937C56.6891 19.0783 56.4056 19.1206 56.0967 19.1206ZM61.3906 19V12.1572H62.4951V13.1982H62.5967C62.749 12.8301 62.9818 12.5444 63.2949 12.3413C63.6123 12.1382 63.9953 12.0366 64.4438 12.0366C64.7528 12.0366 65.0299 12.0874 65.2754 12.189C65.5208 12.2905 65.7324 12.4323 65.9102 12.6143C66.0879 12.792 66.2297 12.9993 66.3354 13.2363H66.437C66.5597 12.9951 66.7248 12.7856 66.9321 12.6079C67.1395 12.4259 67.3786 12.2863 67.6494 12.189C67.9245 12.0874 68.2186 12.0366 68.5317 12.0366C68.9972 12.0366 69.3908 12.1234 69.7124 12.2969C70.0382 12.4704 70.2858 12.7243 70.4551 13.0586C70.6243 13.3887 70.709 13.7928 70.709 14.271V19H69.6045V14.5249C69.6045 14.1864 69.5516 13.9071 69.4458 13.687C69.3442 13.4627 69.1877 13.2956 68.9761 13.1855C68.7645 13.0713 68.4979 13.0142 68.1763 13.0142C67.8589 13.0142 67.5817 13.0861 67.3447 13.23C67.1077 13.3739 66.9237 13.5664 66.7925 13.8076C66.6613 14.0446 66.5957 14.3091 66.5957 14.6011V19H65.4912V14.3535C65.4912 14.0827 65.432 13.8478 65.3135 13.6489C65.1992 13.4458 65.0342 13.2892 64.8184 13.1792C64.6068 13.0692 64.3571 13.0142 64.0693 13.0142C63.7731 13.0142 63.5044 13.0924 63.2632 13.249C63.0262 13.4056 62.8379 13.6172 62.6982 13.8838C62.5628 14.1462 62.4951 14.4382 62.4951 14.7598V19H61.3906ZM72.7275 19V12.1572H73.832V19H72.7275ZM73.2861 10.8369C73.0788 10.8369 72.8989 10.7629 72.7466 10.6147C72.5985 10.4624 72.5244 10.2826 72.5244 10.0752C72.5244 9.86361 72.5985 9.68376 72.7466 9.53564C72.8989 9.38753 73.0788 9.31348 73.2861 9.31348C73.4977 9.31348 73.6776 9.38753 73.8257 9.53564C73.9738 9.68376 74.0479 9.86361 74.0479 10.0752C74.0479 10.2826 73.9738 10.4624 73.8257 10.6147C73.6776 10.7629 73.4977 10.8369 73.2861 10.8369ZM78.3452 19.0508C77.6427 19.0508 77.1328 18.909 76.8154 18.6255C76.5023 18.342 76.3457 17.8743 76.3457 17.2227V13.0713H75.2666V12.1572H76.3457V10.3862H77.4883V12.1572H78.9863V13.0713H77.4883V16.9434C77.4883 17.3454 77.5645 17.6353 77.7168 17.813C77.8691 17.9865 78.123 18.0732 78.4785 18.0732C78.5758 18.0732 78.6584 18.0711 78.7261 18.0669C78.798 18.0627 78.8848 18.0563 78.9863 18.0479V18.9873C78.8805 19.0042 78.7747 19.019 78.6689 19.0317C78.5632 19.0444 78.4552 19.0508 78.3452 19.0508ZM80.7002 19V9.44043H81.8047V13.1855H81.9062C82.0798 12.8216 82.3294 12.5402 82.6553 12.3413C82.9811 12.1382 83.3958 12.0366 83.8994 12.0366C84.4115 12.0366 84.8452 12.1361 85.2007 12.335C85.5562 12.5296 85.827 12.8153 86.0132 13.1919C86.1994 13.5685 86.2925 14.0277 86.2925 14.5693V19H85.188V14.8359C85.188 14.2181 85.0568 13.7611 84.7944 13.4648C84.5363 13.1644 84.1343 13.0142 83.5884 13.0142C83.2244 13.0142 82.9092 13.0924 82.6426 13.249C82.376 13.4056 82.1686 13.6278 82.0205 13.9155C81.8766 14.2033 81.8047 14.5482 81.8047 14.9502V19H80.7002ZM90.1709 19.1206C89.7393 19.1206 89.3499 19.0381 89.0029 18.873C88.6602 18.708 88.3872 18.4731 88.1841 18.1685C87.9852 17.8638 87.8857 17.5041 87.8857 17.0894V17.0767C87.8857 16.6704 87.9831 16.3234 88.1777 16.0356C88.3724 15.7437 88.6559 15.5151 89.0283 15.3501C89.4007 15.1851 89.8514 15.0877 90.3804 15.0581L92.894 14.9058V15.7881L90.5137 15.9404C89.9932 15.9701 89.6123 16.078 89.3711 16.2642C89.1341 16.4504 89.0156 16.7127 89.0156 17.0513V17.064C89.0156 17.411 89.1468 17.6818 89.4092 17.8765C89.6715 18.0669 90.0016 18.1621 90.3994 18.1621C90.776 18.1621 91.1104 18.0881 91.4023 17.9399C91.6943 17.7876 91.9229 17.5824 92.0879 17.3242C92.2572 17.0661 92.3418 16.7741 92.3418 16.4482V14.3154C92.3418 13.8923 92.2127 13.5706 91.9546 13.3506C91.7007 13.1263 91.3177 13.0142 90.8057 13.0142C90.3952 13.0142 90.0588 13.0882 89.7964 13.2363C89.534 13.3802 89.3584 13.5854 89.2695 13.8521L89.2632 13.8711H88.1587L88.165 13.833C88.2243 13.4733 88.3724 13.1602 88.6094 12.8936C88.8506 12.6227 89.1616 12.4132 89.5425 12.2651C89.9233 12.1128 90.3571 12.0366 90.8438 12.0366C91.4023 12.0366 91.8742 12.1276 92.2593 12.3096C92.6486 12.4915 92.9427 12.7539 93.1416 13.0967C93.3447 13.4352 93.4463 13.8415 93.4463 14.3154V19H92.3418V17.9907H92.2402C92.0964 18.2319 91.9207 18.4372 91.7134 18.6064C91.5103 18.7757 91.2796 18.9048 91.0215 18.9937C90.7633 19.0783 90.4798 19.1206 90.1709 19.1206ZM102.263 19.2158C101.595 19.2158 101.011 19.1079 100.511 18.8921C100.016 18.672 99.6226 18.3716 99.3306 17.9907C99.0428 17.6056 98.8757 17.1655 98.8291 16.6704L98.8228 16.6006H99.9653L99.9717 16.6704C100.001 16.9751 100.118 17.2396 100.321 17.4639C100.528 17.6839 100.803 17.8553 101.146 17.978C101.493 18.1007 101.887 18.1621 102.327 18.1621C102.741 18.1621 103.11 18.0965 103.431 17.9653C103.757 17.8299 104.013 17.6437 104.199 17.4067C104.385 17.1698 104.479 16.8968 104.479 16.5879V16.5815C104.479 16.2007 104.339 15.8812 104.06 15.623C103.78 15.3607 103.325 15.1597 102.695 15.02L101.679 14.7979C100.761 14.5947 100.092 14.2816 99.6733 13.8584C99.2586 13.431 99.0513 12.8851 99.0513 12.2207V12.2144C99.0555 11.7065 99.193 11.258 99.4639 10.8687C99.7389 10.4793 100.118 10.1746 100.6 9.95459C101.087 9.73454 101.645 9.62451 102.276 9.62451C102.885 9.62451 103.425 9.73454 103.895 9.95459C104.364 10.1704 104.737 10.4624 105.012 10.8306C105.291 11.1987 105.445 11.6113 105.475 12.0684L105.481 12.1572H104.339L104.326 12.0747C104.284 11.8039 104.174 11.5648 103.996 11.3574C103.818 11.1458 103.581 10.9787 103.285 10.856C102.989 10.7332 102.642 10.674 102.244 10.6782C101.863 10.6782 101.521 10.7375 101.216 10.856C100.911 10.9744 100.668 11.1458 100.486 11.3701C100.308 11.5902 100.219 11.861 100.219 12.1826V12.189C100.219 12.5529 100.355 12.8597 100.625 13.1094C100.896 13.359 101.343 13.5516 101.965 13.687L102.98 13.9155C103.619 14.0552 104.134 14.2371 104.523 14.4614C104.912 14.6857 105.196 14.9608 105.374 15.2866C105.556 15.6082 105.646 15.9891 105.646 16.4292V16.4355C105.646 17.0068 105.507 17.4998 105.228 17.9146C104.948 18.3293 104.555 18.6509 104.047 18.8794C103.539 19.1037 102.944 19.2158 102.263 19.2158ZM109.29 19.1206C108.858 19.1206 108.469 19.0381 108.122 18.873C107.779 18.708 107.506 18.4731 107.303 18.1685C107.104 17.8638 107.005 17.5041 107.005 17.0894V17.0767C107.005 16.6704 107.102 16.3234 107.297 16.0356C107.492 15.7437 107.775 15.5151 108.147 15.3501C108.52 15.1851 108.971 15.0877 109.5 15.0581L112.013 14.9058V15.7881L109.633 15.9404C109.112 15.9701 108.731 16.078 108.49 16.2642C108.253 16.4504 108.135 16.7127 108.135 17.0513V17.064C108.135 17.411 108.266 17.6818 108.528 17.8765C108.791 18.0669 109.121 18.1621 109.519 18.1621C109.895 18.1621 110.229 18.0881 110.521 17.9399C110.813 17.7876 111.042 17.5824 111.207 17.3242C111.376 17.0661 111.461 16.7741 111.461 16.4482V14.3154C111.461 13.8923 111.332 13.5706 111.074 13.3506C110.82 13.1263 110.437 13.0142 109.925 13.0142C109.514 13.0142 109.178 13.0882 108.916 13.2363C108.653 13.3802 108.478 13.5854 108.389 13.8521L108.382 13.8711H107.278L107.284 13.833C107.343 13.4733 107.492 13.1602 107.729 12.8936C107.97 12.6227 108.281 12.4132 108.662 12.2651C109.042 12.1128 109.476 12.0366 109.963 12.0366C110.521 12.0366 110.993 12.1276 111.378 12.3096C111.768 12.4915 112.062 12.7539 112.261 13.0967C112.464 13.4352 112.565 13.8415 112.565 14.3154V19H111.461V17.9907H111.359C111.215 18.2319 111.04 18.4372 110.833 18.6064C110.629 18.7757 110.399 18.9048 110.141 18.9937C109.882 19.0783 109.599 19.1206 109.29 19.1206ZM114.584 19V12.1572H115.688V13.1982H115.79C115.942 12.8301 116.175 12.5444 116.488 12.3413C116.806 12.1382 117.189 12.0366 117.637 12.0366C117.946 12.0366 118.223 12.0874 118.469 12.189C118.714 12.2905 118.926 12.4323 119.104 12.6143C119.281 12.792 119.423 12.9993 119.529 13.2363H119.63C119.753 12.9951 119.918 12.7856 120.125 12.6079C120.333 12.4259 120.572 12.2863 120.843 12.189C121.118 12.0874 121.412 12.0366 121.725 12.0366C122.191 12.0366 122.584 12.1234 122.906 12.2969C123.232 12.4704 123.479 12.7243 123.648 13.0586C123.818 13.3887 123.902 13.7928 123.902 14.271V19H122.798V14.5249C122.798 14.1864 122.745 13.9071 122.639 13.687C122.538 13.4627 122.381 13.2956 122.169 13.1855C121.958 13.0713 121.691 13.0142 121.37 13.0142C121.052 13.0142 120.775 13.0861 120.538 13.23C120.301 13.3739 120.117 13.5664 119.986 13.8076C119.855 14.0446 119.789 14.3091 119.789 14.6011V19H118.685V14.3535C118.685 14.0827 118.625 13.8478 118.507 13.6489C118.393 13.4458 118.228 13.2892 118.012 13.1792C117.8 13.0692 117.55 13.0142 117.263 13.0142C116.966 13.0142 116.698 13.0924 116.457 13.249C116.22 13.4056 116.031 13.6172 115.892 13.8838C115.756 14.1462 115.688 14.4382 115.688 14.7598V19H114.584ZM127.774 19.1206C127.343 19.1206 126.953 19.0381 126.606 18.873C126.264 18.708 125.991 18.4731 125.788 18.1685C125.589 17.8638 125.489 17.5041 125.489 17.0894V17.0767C125.489 16.6704 125.587 16.3234 125.781 16.0356C125.976 15.7437 126.259 15.5151 126.632 15.3501C127.004 15.1851 127.455 15.0877 127.984 15.0581L130.498 14.9058V15.7881L128.117 15.9404C127.597 15.9701 127.216 16.078 126.975 16.2642C126.738 16.4504 126.619 16.7127 126.619 17.0513V17.064C126.619 17.411 126.75 17.6818 127.013 17.8765C127.275 18.0669 127.605 18.1621 128.003 18.1621C128.38 18.1621 128.714 18.0881 129.006 17.9399C129.298 17.7876 129.526 17.5824 129.691 17.3242C129.861 17.0661 129.945 16.7741 129.945 16.4482V14.3154C129.945 13.8923 129.816 13.5706 129.558 13.3506C129.304 13.1263 128.921 13.0142 128.409 13.0142C127.999 13.0142 127.662 13.0882 127.4 13.2363C127.138 13.3802 126.962 13.5854 126.873 13.8521L126.867 13.8711H125.762L125.769 13.833C125.828 13.4733 125.976 13.1602 126.213 12.8936C126.454 12.6227 126.765 12.4132 127.146 12.2651C127.527 12.1128 127.961 12.0366 128.447 12.0366C129.006 12.0366 129.478 12.1276 129.863 12.3096C130.252 12.4915 130.546 12.7539 130.745 13.0967C130.948 13.4352 131.05 13.8415 131.05 14.3154V19H129.945V17.9907H129.844C129.7 18.2319 129.524 18.4372 129.317 18.6064C129.114 18.7757 128.883 18.9048 128.625 18.9937C128.367 19.0783 128.083 19.1206 127.774 19.1206ZM133.068 19V12.1572H134.173V13.1729H134.274C134.406 12.8132 134.628 12.5339 134.941 12.335C135.254 12.1361 135.641 12.0366 136.103 12.0366C136.208 12.0366 136.312 12.043 136.414 12.0557C136.519 12.0641 136.6 12.0726 136.655 12.0811V13.1538C136.541 13.1326 136.428 13.1178 136.318 13.1094C136.213 13.0967 136.098 13.0903 135.976 13.0903C135.624 13.0903 135.313 13.1602 135.042 13.2998C134.772 13.4395 134.558 13.6341 134.401 13.8838C134.249 14.1335 134.173 14.4255 134.173 14.7598V19H133.068ZM139.898 19.1206C139.467 19.1206 139.077 19.0381 138.73 18.873C138.388 18.708 138.115 18.4731 137.912 18.1685C137.713 17.8638 137.613 17.5041 137.613 17.0894V17.0767C137.613 16.6704 137.711 16.3234 137.905 16.0356C138.1 15.7437 138.383 15.5151 138.756 15.3501C139.128 15.1851 139.579 15.0877 140.108 15.0581L142.622 14.9058V15.7881L140.241 15.9404C139.721 15.9701 139.34 16.078 139.099 16.2642C138.862 16.4504 138.743 16.7127 138.743 17.0513V17.064C138.743 17.411 138.874 17.6818 139.137 17.8765C139.399 18.0669 139.729 18.1621 140.127 18.1621C140.504 18.1621 140.838 18.0881 141.13 17.9399C141.422 17.7876 141.65 17.5824 141.815 17.3242C141.985 17.0661 142.069 16.7741 142.069 16.4482V14.3154C142.069 13.8923 141.94 13.5706 141.682 13.3506C141.428 13.1263 141.045 13.0142 140.533 13.0142C140.123 13.0142 139.786 13.0882 139.524 13.2363C139.262 13.3802 139.086 13.5854 138.997 13.8521L138.991 13.8711H137.886L137.893 13.833C137.952 13.4733 138.1 13.1602 138.337 12.8936C138.578 12.6227 138.889 12.4132 139.27 12.2651C139.651 12.1128 140.085 12.0366 140.571 12.0366C141.13 12.0366 141.602 12.1276 141.987 12.3096C142.376 12.4915 142.67 12.7539 142.869 13.0967C143.072 13.4352 143.174 13.8415 143.174 14.3154V19H142.069V17.9907H141.968C141.824 18.2319 141.648 18.4372 141.441 18.6064C141.238 18.7757 141.007 18.9048 140.749 18.9937C140.491 19.0783 140.207 19.1206 139.898 19.1206ZM147.541 19.1206C147.033 19.1206 146.585 19.0444 146.195 18.8921C145.806 18.7355 145.493 18.5176 145.256 18.2383C145.023 17.959 144.886 17.631 144.843 17.2544H145.973C146.066 17.5379 146.248 17.7664 146.519 17.9399C146.79 18.1134 147.143 18.2002 147.579 18.2002C147.888 18.2002 148.159 18.1558 148.392 18.0669C148.629 17.9738 148.815 17.849 148.95 17.6924C149.086 17.5316 149.153 17.3475 149.153 17.1401V17.1274C149.153 16.8947 149.06 16.6979 148.874 16.5371C148.688 16.3721 148.383 16.2388 147.96 16.1372L146.9 15.8833C146.472 15.7817 146.121 15.6506 145.846 15.4897C145.571 15.3247 145.368 15.1237 145.237 14.8867C145.106 14.6455 145.04 14.362 145.04 14.0361V14.0298C145.04 13.6489 145.15 13.3083 145.37 13.0078C145.594 12.7074 145.899 12.4704 146.284 12.2969C146.669 12.1234 147.103 12.0366 147.585 12.0366C148.064 12.0366 148.487 12.1128 148.855 12.2651C149.227 12.4132 149.526 12.6248 149.75 12.8999C149.979 13.175 150.118 13.4987 150.169 13.8711H149.083C149.012 13.6003 148.847 13.3802 148.588 13.2109C148.33 13.0417 147.994 12.957 147.579 12.957C147.308 12.957 147.067 13.0015 146.855 13.0903C146.644 13.175 146.477 13.2935 146.354 13.4458C146.231 13.5981 146.17 13.7759 146.17 13.979V13.9917C146.17 14.144 146.21 14.2795 146.291 14.3979C146.371 14.5164 146.496 14.6201 146.665 14.709C146.834 14.7979 147.052 14.8761 147.319 14.9438L148.373 15.1978C149.016 15.3543 149.494 15.5786 149.807 15.8706C150.125 16.1626 150.283 16.554 150.283 17.0449V17.0576C150.283 17.4639 150.163 17.8236 149.921 18.1367C149.68 18.4456 149.352 18.6868 148.938 18.8604C148.527 19.0339 148.062 19.1206 147.541 19.1206ZM152.022 19V12.1572H153.127V19H152.022ZM152.581 10.8369C152.374 10.8369 152.194 10.7629 152.042 10.6147C151.893 10.4624 151.819 10.2826 151.819 10.0752C151.819 9.86361 151.893 9.68376 152.042 9.53564C152.194 9.38753 152.374 9.31348 152.581 9.31348C152.793 9.31348 152.972 9.38753 153.121 9.53564C153.269 9.68376 153.343 9.86361 153.343 10.0752C153.343 10.2826 153.269 10.4624 153.121 10.6147C152.972 10.7629 152.793 10.8369 152.581 10.8369ZM155.209 19V12.1572H156.313V13.1855H156.415C156.589 12.8216 156.838 12.5402 157.164 12.3413C157.49 12.1382 157.905 12.0366 158.408 12.0366C159.178 12.0366 159.769 12.2567 160.179 12.6968C160.594 13.1326 160.801 13.7568 160.801 14.5693V19H159.697V14.8359C159.697 14.2181 159.566 13.7611 159.303 13.4648C159.045 13.1644 158.643 13.0142 158.097 13.0142C157.733 13.0142 157.418 13.0924 157.151 13.249C156.885 13.4056 156.677 13.6278 156.529 13.9155C156.385 14.2033 156.313 14.5482 156.313 14.9502V19H155.209ZM165.619 21.4121C165.069 21.4121 164.589 21.3338 164.178 21.1772C163.768 21.0249 163.44 20.807 163.194 20.5234C162.953 20.2441 162.803 19.9183 162.744 19.5459L162.756 19.5396H163.899L163.905 19.5459C163.965 19.804 164.142 20.0156 164.438 20.1807C164.735 20.3499 165.128 20.4346 165.619 20.4346C166.233 20.4346 166.711 20.2949 167.054 20.0156C167.401 19.7406 167.574 19.3512 167.574 18.8477V17.4639H167.473C167.329 17.7135 167.149 17.9272 166.933 18.105C166.717 18.2827 166.474 18.4181 166.203 18.5112C165.932 18.6001 165.64 18.6445 165.327 18.6445C164.739 18.6445 164.229 18.5049 163.797 18.2256C163.37 17.9421 163.04 17.5527 162.807 17.0576C162.574 16.5625 162.458 15.9954 162.458 15.3564V15.3438C162.458 14.7048 162.574 14.1377 162.807 13.6426C163.044 13.1432 163.378 12.7518 163.81 12.4683C164.242 12.1805 164.756 12.0366 165.353 12.0366C165.674 12.0366 165.97 12.0874 166.241 12.189C166.512 12.2905 166.751 12.4344 166.958 12.6206C167.17 12.8068 167.346 13.029 167.485 13.2871H167.562V12.1572H168.666V18.9048C168.666 19.4126 168.541 19.8548 168.292 20.2314C168.046 20.6081 167.695 20.8979 167.238 21.1011C166.781 21.3084 166.241 21.4121 165.619 21.4121ZM165.568 17.667C165.992 17.667 166.353 17.5697 166.654 17.375C166.958 17.1761 167.191 16.9032 167.352 16.5562C167.517 16.2091 167.6 15.8092 167.6 15.3564V15.3438C167.6 14.891 167.517 14.4889 167.352 14.1377C167.191 13.7865 166.958 13.5114 166.654 13.3125C166.353 13.1136 165.992 13.0142 165.568 13.0142C165.145 13.0142 164.785 13.1136 164.489 13.3125C164.197 13.5114 163.973 13.7865 163.816 14.1377C163.664 14.4889 163.588 14.891 163.588 15.3438V15.3564C163.588 15.8092 163.664 16.2091 163.816 16.5562C163.973 16.9032 164.197 17.1761 164.489 17.375C164.785 17.5697 165.145 17.667 165.568 17.667ZM170.786 19V9.44043H171.891V13.1855H171.992C172.166 12.8216 172.415 12.5402 172.741 12.3413C173.067 12.1382 173.482 12.0366 173.985 12.0366C174.497 12.0366 174.931 12.1361 175.287 12.335C175.642 12.5296 175.913 12.8153 176.099 13.1919C176.285 13.5685 176.378 14.0277 176.378 14.5693V19H175.274V14.8359C175.274 14.2181 175.143 13.7611 174.88 13.4648C174.622 13.1644 174.22 13.0142 173.674 13.0142C173.31 13.0142 172.995 13.0924 172.729 13.249C172.462 13.4056 172.255 13.6278 172.106 13.9155C171.963 14.2033 171.891 14.5482 171.891 14.9502V19H170.786ZM180.257 19.1206C179.825 19.1206 179.436 19.0381 179.089 18.873C178.746 18.708 178.473 18.4731 178.27 18.1685C178.071 17.8638 177.972 17.5041 177.972 17.0894V17.0767C177.972 16.6704 178.069 16.3234 178.264 16.0356C178.458 15.7437 178.742 15.5151 179.114 15.3501C179.487 15.1851 179.937 15.0877 180.466 15.0581L182.98 14.9058V15.7881L180.6 15.9404C180.079 15.9701 179.698 16.078 179.457 16.2642C179.22 16.4504 179.102 16.7127 179.102 17.0513V17.064C179.102 17.411 179.233 17.6818 179.495 17.8765C179.757 18.0669 180.088 18.1621 180.485 18.1621C180.862 18.1621 181.196 18.0881 181.488 17.9399C181.78 17.7876 182.009 17.5824 182.174 17.3242C182.343 17.0661 182.428 16.7741 182.428 16.4482V14.3154C182.428 13.8923 182.299 13.5706 182.041 13.3506C181.787 13.1263 181.404 13.0142 180.892 13.0142C180.481 13.0142 180.145 13.0882 179.882 13.2363C179.62 13.3802 179.444 13.5854 179.355 13.8521L179.349 13.8711H178.245L178.251 13.833C178.31 13.4733 178.458 13.1602 178.695 12.8936C178.937 12.6227 179.248 12.4132 179.628 12.2651C180.009 12.1128 180.443 12.0366 180.93 12.0366C181.488 12.0366 181.96 12.1276 182.345 12.3096C182.735 12.4915 183.029 12.7539 183.228 13.0967C183.431 13.4352 183.532 13.8415 183.532 14.3154V19H182.428V17.9907H182.326C182.182 18.2319 182.007 18.4372 181.799 18.6064C181.596 18.7757 181.366 18.9048 181.107 18.9937C180.849 19.0783 180.566 19.1206 180.257 19.1206Z" fill="black" fill-opacity="0.85"/>
</svg>
