<svg width="228" height="28" viewBox="0 0 228 28" fill="none" xmlns="http://www.w3.org/2000/svg">
<g style="mix-blend-mode:plus-darker">
<rect x="4" y="27" width="220" height="1" fill="#F5F5F5"/>
</g>
<path d="M58.7944 19V9.84033H62.292C62.8802 9.84033 63.3923 9.95459 63.8281 10.1831C64.2682 10.4074 64.6089 10.7227 64.8501 11.1289C65.0913 11.5352 65.2119 12.0133 65.2119 12.5635V12.5762C65.2119 13.2109 65.049 13.7611 64.7231 14.2266C64.3973 14.6921 63.9466 15.0158 63.3711 15.1978L65.4912 19H64.1519L62.1904 15.3755C62.182 15.3755 62.1714 15.3755 62.1587 15.3755C62.146 15.3755 62.1354 15.3755 62.127 15.3755H59.937V19H58.7944ZM59.937 14.3599H62.1904C62.7786 14.3599 63.2314 14.2096 63.5488 13.9092C63.8704 13.6045 64.0312 13.1729 64.0312 12.6143V12.6016C64.0312 12.0557 63.8641 11.6283 63.5298 11.3193C63.1955 11.0104 62.7321 10.856 62.1396 10.856H59.937V14.3599ZM69.0269 19.1206C68.5952 19.1206 68.2059 19.0381 67.8589 18.873C67.5161 18.708 67.2432 18.4731 67.04 18.1685C66.8411 17.8638 66.7417 17.5041 66.7417 17.0894V17.0767C66.7417 16.6704 66.839 16.3234 67.0337 16.0356C67.2284 15.7437 67.5119 15.5151 67.8843 15.3501C68.2567 15.1851 68.7074 15.0877 69.2363 15.0581L71.75 14.9058V15.7881L69.3696 15.9404C68.8491 15.9701 68.4683 16.078 68.2271 16.2642C67.9901 16.4504 67.8716 16.7127 67.8716 17.0513V17.064C67.8716 17.411 68.0028 17.6818 68.2651 17.8765C68.5275 18.0669 68.8576 18.1621 69.2554 18.1621C69.632 18.1621 69.9663 18.0881 70.2583 17.9399C70.5503 17.7876 70.7788 17.5824 70.9438 17.3242C71.1131 17.0661 71.1978 16.7741 71.1978 16.4482V14.3154C71.1978 13.8923 71.0687 13.5706 70.8105 13.3506C70.5566 13.1263 70.1737 13.0142 69.6616 13.0142C69.2511 13.0142 68.9147 13.0882 68.6523 13.2363C68.39 13.3802 68.2144 13.5854 68.1255 13.8521L68.1191 13.8711H67.0146L67.021 13.833C67.0802 13.4733 67.2284 13.1602 67.4653 12.8936C67.7065 12.6227 68.0176 12.4132 68.3984 12.2651C68.7793 12.1128 69.2131 12.0366 69.6997 12.0366C70.2583 12.0366 70.7301 12.1276 71.1152 12.3096C71.5046 12.4915 71.7987 12.7539 71.9976 13.0967C72.2007 13.4352 72.3022 13.8415 72.3022 14.3154V19H71.1978V17.9907H71.0962C70.9523 18.2319 70.7767 18.4372 70.5693 18.6064C70.3662 18.7757 70.1356 18.9048 69.8774 18.9937C69.6193 19.0783 69.3358 19.1206 69.0269 19.1206ZM76.6694 19.1206C76.1616 19.1206 75.7131 19.0444 75.3237 18.8921C74.9344 18.7355 74.6213 18.5176 74.3843 18.2383C74.1515 17.959 74.014 17.631 73.9717 17.2544H75.1016C75.1947 17.5379 75.3766 17.7664 75.6475 17.9399C75.9183 18.1134 76.2716 18.2002 76.7075 18.2002C77.0164 18.2002 77.2873 18.1558 77.52 18.0669C77.757 17.9738 77.9432 17.849 78.0786 17.6924C78.214 17.5316 78.2817 17.3475 78.2817 17.1401V17.1274C78.2817 16.8947 78.1886 16.6979 78.0024 16.5371C77.8162 16.3721 77.5116 16.2388 77.0884 16.1372L76.0283 15.8833C75.6009 15.7817 75.2497 15.6506 74.9746 15.4897C74.6995 15.3247 74.4964 15.1237 74.3652 14.8867C74.234 14.6455 74.1685 14.362 74.1685 14.0361V14.0298C74.1685 13.6489 74.2785 13.3083 74.4985 13.0078C74.7228 12.7074 75.0275 12.4704 75.4126 12.2969C75.7977 12.1234 76.2314 12.0366 76.7139 12.0366C77.1921 12.0366 77.6152 12.1128 77.9834 12.2651C78.3558 12.4132 78.6541 12.6248 78.8784 12.8999C79.1069 13.175 79.2466 13.4987 79.2974 13.8711H78.2119C78.14 13.6003 77.9749 13.3802 77.7168 13.2109C77.4587 13.0417 77.1222 12.957 76.7075 12.957C76.4367 12.957 76.1955 13.0015 75.9839 13.0903C75.7723 13.175 75.6051 13.2935 75.4824 13.4458C75.3597 13.5981 75.2983 13.7759 75.2983 13.979V13.9917C75.2983 14.144 75.3385 14.2795 75.4189 14.3979C75.4993 14.5164 75.6242 14.6201 75.7935 14.709C75.9627 14.7979 76.1807 14.8761 76.4473 14.9438L77.501 15.1978C78.1442 15.3543 78.6224 15.5786 78.9355 15.8706C79.2529 16.1626 79.4116 16.554 79.4116 17.0449V17.0576C79.4116 17.4639 79.291 17.8236 79.0498 18.1367C78.8086 18.4456 78.4806 18.6868 78.0659 18.8604C77.6554 19.0339 77.1899 19.1206 76.6694 19.1206ZM81.189 19V9.44043H82.2935V13.1855H82.395C82.5685 12.8216 82.8182 12.5402 83.144 12.3413C83.4699 12.1382 83.8846 12.0366 84.3882 12.0366C84.9002 12.0366 85.334 12.1361 85.6895 12.335C86.0449 12.5296 86.3158 12.8153 86.502 13.1919C86.6882 13.5685 86.7812 14.0277 86.7812 14.5693V19H85.6768V14.8359C85.6768 14.2181 85.5456 13.7611 85.2832 13.4648C85.0251 13.1644 84.623 13.0142 84.0771 13.0142C83.7132 13.0142 83.3979 13.0924 83.1313 13.249C82.8647 13.4056 82.6574 13.6278 82.5093 13.9155C82.3654 14.2033 82.2935 14.5482 82.2935 14.9502V19H81.189ZM88.7808 19V12.1572H89.8853V13.1982H89.9868C90.1392 12.8301 90.3719 12.5444 90.6851 12.3413C91.0024 12.1382 91.3854 12.0366 91.834 12.0366C92.1429 12.0366 92.4201 12.0874 92.6655 12.189C92.911 12.2905 93.1226 12.4323 93.3003 12.6143C93.478 12.792 93.6198 12.9993 93.7256 13.2363H93.8271C93.9499 12.9951 94.1149 12.7856 94.3223 12.6079C94.5296 12.4259 94.7687 12.2863 95.0396 12.189C95.3146 12.0874 95.6087 12.0366 95.9219 12.0366C96.3874 12.0366 96.7809 12.1234 97.1025 12.2969C97.4284 12.4704 97.6759 12.7243 97.8452 13.0586C98.0145 13.3887 98.0991 13.7928 98.0991 14.271V19H96.9946V14.5249C96.9946 14.1864 96.9417 13.9071 96.8359 13.687C96.7344 13.4627 96.5778 13.2956 96.3662 13.1855C96.1546 13.0713 95.888 13.0142 95.5664 13.0142C95.249 13.0142 94.9718 13.0861 94.7349 13.23C94.4979 13.3739 94.3138 13.5664 94.1826 13.8076C94.0514 14.0446 93.9858 14.3091 93.9858 14.6011V19H92.8813V14.3535C92.8813 14.0827 92.8221 13.8478 92.7036 13.6489C92.5894 13.4458 92.4243 13.2892 92.2085 13.1792C91.9969 13.0692 91.7472 13.0142 91.4595 13.0142C91.1632 13.0142 90.8945 13.0924 90.6533 13.249C90.4163 13.4056 90.228 13.6172 90.0884 13.8838C89.953 14.1462 89.8853 14.4382 89.8853 14.7598V19H88.7808ZM100.118 19V12.1572H101.222V19H100.118ZM100.676 10.8369C100.469 10.8369 100.289 10.7629 100.137 10.6147C99.9886 10.4624 99.9146 10.2826 99.9146 10.0752C99.9146 9.86361 99.9886 9.68376 100.137 9.53564C100.289 9.38753 100.469 9.31348 100.676 9.31348C100.888 9.31348 101.068 9.38753 101.216 9.53564C101.364 9.68376 101.438 9.86361 101.438 10.0752C101.438 10.2826 101.364 10.4624 101.216 10.6147C101.068 10.7629 100.888 10.8369 100.676 10.8369ZM107.1 19V9.84033H112.775V10.8687H108.243V13.8076H112.54V14.8232H108.243V17.9717H112.775V19H107.1ZM114.768 19V9.44043H115.873V19H114.768ZM119.078 19L116.406 15.6484L117.218 14.9438L120.468 19H119.078ZM115.733 16.5371L115.682 15.147H115.974L118.932 12.1572H120.271L117.021 15.293L116.755 15.5532L115.733 16.5371ZM123.452 19.1206C123.02 19.1206 122.631 19.0381 122.284 18.873C121.941 18.708 121.668 18.4731 121.465 18.1685C121.266 17.8638 121.167 17.5041 121.167 17.0894V17.0767C121.167 16.6704 121.264 16.3234 121.458 16.0356C121.653 15.7437 121.937 15.5151 122.309 15.3501C122.681 15.1851 123.132 15.0877 123.661 15.0581L126.175 14.9058V15.7881L123.794 15.9404C123.274 15.9701 122.893 16.078 122.652 16.2642C122.415 16.4504 122.296 16.7127 122.296 17.0513V17.064C122.296 17.411 122.428 17.6818 122.69 17.8765C122.952 18.0669 123.282 18.1621 123.68 18.1621C124.057 18.1621 124.391 18.0881 124.683 17.9399C124.975 17.7876 125.204 17.5824 125.369 17.3242C125.538 17.0661 125.623 16.7741 125.623 16.4482V14.3154C125.623 13.8923 125.493 13.5706 125.235 13.3506C124.981 13.1263 124.598 13.0142 124.086 13.0142C123.676 13.0142 123.34 13.0882 123.077 13.2363C122.815 13.3802 122.639 13.5854 122.55 13.8521L122.544 13.8711H121.439L121.446 13.833C121.505 13.4733 121.653 13.1602 121.89 12.8936C122.131 12.6227 122.442 12.4132 122.823 12.2651C123.204 12.1128 123.638 12.0366 124.125 12.0366C124.683 12.0366 125.155 12.1276 125.54 12.3096C125.929 12.4915 126.223 12.7539 126.422 13.0967C126.625 13.4352 126.727 13.8415 126.727 14.3154V19H125.623V17.9907H125.521C125.377 18.2319 125.201 18.4372 124.994 18.6064C124.791 18.7757 124.56 18.9048 124.302 18.9937C124.044 19.0783 123.761 19.1206 123.452 19.1206ZM128.746 19V12.1572H129.85V13.1855H129.952C130.125 12.8216 130.375 12.5402 130.701 12.3413C131.027 12.1382 131.441 12.0366 131.945 12.0366C132.715 12.0366 133.305 12.2567 133.716 12.6968C134.131 13.1326 134.338 13.7568 134.338 14.5693V19H133.233V14.8359C133.233 14.2181 133.102 13.7611 132.84 13.4648C132.582 13.1644 132.18 13.0142 131.634 13.0142C131.27 13.0142 130.955 13.0924 130.688 13.249C130.421 13.4056 130.214 13.6278 130.066 13.9155C129.922 14.2033 129.85 14.5482 129.85 14.9502V19H128.746ZM138.216 19.1206C137.785 19.1206 137.395 19.0381 137.048 18.873C136.706 18.708 136.433 18.4731 136.229 18.1685C136.031 17.8638 135.931 17.5041 135.931 17.0894V17.0767C135.931 16.6704 136.028 16.3234 136.223 16.0356C136.418 15.7437 136.701 15.5151 137.074 15.3501C137.446 15.1851 137.897 15.0877 138.426 15.0581L140.939 14.9058V15.7881L138.559 15.9404C138.039 15.9701 137.658 16.078 137.417 16.2642C137.18 16.4504 137.061 16.7127 137.061 17.0513V17.064C137.061 17.411 137.192 17.6818 137.455 17.8765C137.717 18.0669 138.047 18.1621 138.445 18.1621C138.821 18.1621 139.156 18.0881 139.448 17.9399C139.74 17.7876 139.968 17.5824 140.133 17.3242C140.303 17.0661 140.387 16.7741 140.387 16.4482V14.3154C140.387 13.8923 140.258 13.5706 140 13.3506C139.746 13.1263 139.363 13.0142 138.851 13.0142C138.441 13.0142 138.104 13.0882 137.842 13.2363C137.579 13.3802 137.404 13.5854 137.315 13.8521L137.309 13.8711H136.204L136.21 13.833C136.27 13.4733 136.418 13.1602 136.655 12.8936C136.896 12.6227 137.207 12.4132 137.588 12.2651C137.969 12.1128 138.403 12.0366 138.889 12.0366C139.448 12.0366 139.92 12.1276 140.305 12.3096C140.694 12.4915 140.988 12.7539 141.187 13.0967C141.39 13.4352 141.492 13.8415 141.492 14.3154V19H140.387V17.9907H140.286C140.142 18.2319 139.966 18.4372 139.759 18.6064C139.556 18.7757 139.325 18.9048 139.067 18.9937C138.809 19.0783 138.525 19.1206 138.216 19.1206ZM143.84 21.3994C143.768 21.3994 143.688 21.3952 143.599 21.3867C143.51 21.3825 143.428 21.374 143.352 21.3613V20.4536C143.419 20.4663 143.493 20.4748 143.574 20.479C143.654 20.4832 143.732 20.4854 143.809 20.4854C144.122 20.4854 144.378 20.4049 144.577 20.2441C144.78 20.0833 144.943 19.8062 145.065 19.4126L145.192 19.0063L142.66 12.1572H143.84L145.948 18.4795L145.51 17.7876H146.03L145.592 18.4795L147.693 12.1572H148.855L146.183 19.4189C145.996 19.931 145.8 20.3309 145.592 20.6187C145.385 20.9064 145.142 21.1074 144.862 21.2217C144.587 21.3402 144.247 21.3994 143.84 21.3994ZM151.94 19.1206C151.508 19.1206 151.119 19.0381 150.772 18.873C150.429 18.708 150.156 18.4731 149.953 18.1685C149.754 17.8638 149.655 17.5041 149.655 17.0894V17.0767C149.655 16.6704 149.752 16.3234 149.947 16.0356C150.141 15.7437 150.425 15.5151 150.797 15.3501C151.17 15.1851 151.62 15.0877 152.149 15.0581L154.663 14.9058V15.7881L152.283 15.9404C151.762 15.9701 151.381 16.078 151.14 16.2642C150.903 16.4504 150.785 16.7127 150.785 17.0513V17.064C150.785 17.411 150.916 17.6818 151.178 17.8765C151.441 18.0669 151.771 18.1621 152.168 18.1621C152.545 18.1621 152.879 18.0881 153.171 17.9399C153.463 17.7876 153.692 17.5824 153.857 17.3242C154.026 17.0661 154.111 16.7741 154.111 16.4482V14.3154C154.111 13.8923 153.982 13.5706 153.724 13.3506C153.47 13.1263 153.087 13.0142 152.575 13.0142C152.164 13.0142 151.828 13.0882 151.565 13.2363C151.303 13.3802 151.127 13.5854 151.039 13.8521L151.032 13.8711H149.928L149.934 13.833C149.993 13.4733 150.141 13.1602 150.378 12.8936C150.62 12.6227 150.931 12.4132 151.312 12.2651C151.692 12.1128 152.126 12.0366 152.613 12.0366C153.171 12.0366 153.643 12.1276 154.028 12.3096C154.418 12.4915 154.712 12.7539 154.911 13.0967C155.114 13.4352 155.215 13.8415 155.215 14.3154V19H154.111V17.9907H154.009C153.865 18.2319 153.69 18.4372 153.482 18.6064C153.279 18.7757 153.049 18.9048 152.791 18.9937C152.532 19.0783 152.249 19.1206 151.94 19.1206ZM157.297 19V9.44043H158.402V19H157.297ZM161.607 19L158.935 15.6484L159.748 14.9438L162.998 19H161.607ZM158.262 16.5371L158.211 15.147H158.503L161.461 12.1572H162.801L159.551 15.293L159.284 15.5532L158.262 16.5371ZM166.768 19.1206C166.116 19.1206 165.556 18.9767 165.086 18.689C164.62 18.4012 164.261 17.995 164.007 17.4702C163.757 16.9412 163.632 16.3192 163.632 15.604V15.5977C163.632 14.891 163.757 14.271 164.007 13.7378C164.261 13.2046 164.618 12.7878 165.08 12.4873C165.541 12.1868 166.08 12.0366 166.698 12.0366C167.32 12.0366 167.854 12.1805 168.298 12.4683C168.746 12.756 169.089 13.158 169.326 13.6743C169.567 14.1864 169.688 14.783 169.688 15.4644V15.896H164.204V15.0137H169.123L168.577 15.8198V15.3818C168.577 14.8444 168.497 14.4022 168.336 14.0552C168.175 13.7082 167.953 13.45 167.669 13.2808C167.386 13.1073 167.06 13.0205 166.692 13.0205C166.324 13.0205 165.994 13.1115 165.702 13.2935C165.414 13.4712 165.185 13.7357 165.016 14.0869C164.847 14.4382 164.762 14.8698 164.762 15.3818V15.8198C164.762 16.3065 164.845 16.7233 165.01 17.0703C165.175 17.4131 165.41 17.6776 165.714 17.8638C166.019 18.0457 166.379 18.1367 166.793 18.1367C167.102 18.1367 167.371 18.0944 167.6 18.0098C167.828 17.9251 168.016 17.8172 168.165 17.686C168.313 17.5549 168.416 17.4215 168.476 17.2861L168.501 17.229H169.605L169.593 17.2798C169.534 17.5125 169.428 17.7389 169.275 17.959C169.127 18.1748 168.935 18.3716 168.698 18.5493C168.461 18.7228 168.179 18.8625 167.854 18.9683C167.532 19.0698 167.17 19.1206 166.768 19.1206Z" fill="black" fill-opacity="0.85"/>
</svg>
