<svg width="228" height="28" viewBox="0 0 228 28" fill="none" xmlns="http://www.w3.org/2000/svg">
<g style="mix-blend-mode:plus-darker">
<rect x="4" y="27" width="220" height="1" fill="#F5F5F5"/>
</g>
<path d="M65.3516 19V9.84033H66.4941V13.8013H71.5215V9.84033H72.6641V19H71.5215V14.8296H66.4941V19H65.3516ZM74.8857 19V12.1572H75.9902V19H74.8857ZM75.4443 10.8369C75.237 10.8369 75.0571 10.7629 74.9048 10.6147C74.7567 10.4624 74.6826 10.2826 74.6826 10.0752C74.6826 9.86361 74.7567 9.68376 74.9048 9.53564C75.0571 9.38753 75.237 9.31348 75.4443 9.31348C75.6559 9.31348 75.8358 9.38753 75.9839 9.53564C76.132 9.68376 76.2061 9.86361 76.2061 10.0752C76.2061 10.2826 76.132 10.4624 75.9839 10.6147C75.8358 10.7629 75.6559 10.8369 75.4443 10.8369ZM78.0723 19V12.1572H79.1768V13.1982H79.2783C79.4307 12.8301 79.6634 12.5444 79.9766 12.3413C80.2939 12.1382 80.6769 12.0366 81.1255 12.0366C81.4344 12.0366 81.7116 12.0874 81.957 12.189C82.2025 12.2905 82.4141 12.4323 82.5918 12.6143C82.7695 12.792 82.9113 12.9993 83.0171 13.2363H83.1187C83.2414 12.9951 83.4064 12.7856 83.6138 12.6079C83.8211 12.4259 84.0602 12.2863 84.3311 12.189C84.6061 12.0874 84.9002 12.0366 85.2134 12.0366C85.6789 12.0366 86.0724 12.1234 86.394 12.2969C86.7199 12.4704 86.9674 12.7243 87.1367 13.0586C87.306 13.3887 87.3906 13.7928 87.3906 14.271V19H86.2861V14.5249C86.2861 14.1864 86.2332 13.9071 86.1274 13.687C86.0259 13.4627 85.8693 13.2956 85.6577 13.1855C85.4461 13.0713 85.1795 13.0142 84.8579 13.0142C84.5405 13.0142 84.2633 13.0861 84.0264 13.23C83.7894 13.3739 83.6053 13.5664 83.4741 13.8076C83.3429 14.0446 83.2773 14.3091 83.2773 14.6011V19H82.1729V14.3535C82.1729 14.0827 82.1136 13.8478 81.9951 13.6489C81.8809 13.4458 81.7158 13.2892 81.5 13.1792C81.2884 13.0692 81.0387 13.0142 80.751 13.0142C80.4548 13.0142 80.186 13.0924 79.9448 13.249C79.7078 13.4056 79.5195 13.6172 79.3799 13.8838C79.2445 14.1462 79.1768 14.4382 79.1768 14.7598V19H78.0723ZM91.2627 19.1206C90.8311 19.1206 90.4417 19.0381 90.0947 18.873C89.752 18.708 89.479 18.4731 89.2759 18.1685C89.077 17.8638 88.9775 17.5041 88.9775 17.0894V17.0767C88.9775 16.6704 89.0749 16.3234 89.2695 16.0356C89.4642 15.7437 89.7477 15.5151 90.1201 15.3501C90.4925 15.1851 90.9432 15.0877 91.4722 15.0581L93.9858 14.9058V15.7881L91.6055 15.9404C91.085 15.9701 90.7041 16.078 90.4629 16.2642C90.2259 16.4504 90.1074 16.7127 90.1074 17.0513V17.064C90.1074 17.411 90.2386 17.6818 90.501 17.8765C90.7633 18.0669 91.0934 18.1621 91.4912 18.1621C91.8678 18.1621 92.2021 18.0881 92.4941 17.9399C92.7861 17.7876 93.0146 17.5824 93.1797 17.3242C93.349 17.0661 93.4336 16.7741 93.4336 16.4482V14.3154C93.4336 13.8923 93.3045 13.5706 93.0464 13.3506C92.7925 13.1263 92.4095 13.0142 91.8975 13.0142C91.487 13.0142 91.1506 13.0882 90.8882 13.2363C90.6258 13.3802 90.4502 13.5854 90.3613 13.8521L90.355 13.8711H89.2505L89.2568 13.833C89.3161 13.4733 89.4642 13.1602 89.7012 12.8936C89.9424 12.6227 90.2534 12.4132 90.6343 12.2651C91.0151 12.1128 91.4489 12.0366 91.9355 12.0366C92.4941 12.0366 92.966 12.1276 93.3511 12.3096C93.7404 12.4915 94.0345 12.7539 94.2334 13.0967C94.4365 13.4352 94.5381 13.8415 94.5381 14.3154V19H93.4336V17.9907H93.332C93.1882 18.2319 93.0125 18.4372 92.8052 18.6064C92.6021 18.7757 92.3714 18.9048 92.1133 18.9937C91.8551 19.0783 91.5716 19.1206 91.2627 19.1206ZM98.9053 19.1206C98.3975 19.1206 97.9489 19.0444 97.5596 18.8921C97.1702 18.7355 96.8571 18.5176 96.6201 18.2383C96.3874 17.959 96.2498 17.631 96.2075 17.2544H97.3374C97.4305 17.5379 97.6125 17.7664 97.8833 17.9399C98.1541 18.1134 98.5075 18.2002 98.9434 18.2002C99.2523 18.2002 99.5231 18.1558 99.7559 18.0669C99.9928 17.9738 100.179 17.849 100.314 17.6924C100.45 17.5316 100.518 17.3475 100.518 17.1401V17.1274C100.518 16.8947 100.424 16.6979 100.238 16.5371C100.052 16.3721 99.7474 16.2388 99.3242 16.1372L98.2642 15.8833C97.8368 15.7817 97.4855 15.6506 97.2104 15.4897C96.9354 15.3247 96.7323 15.1237 96.6011 14.8867C96.4699 14.6455 96.4043 14.362 96.4043 14.0361V14.0298C96.4043 13.6489 96.5143 13.3083 96.7344 13.0078C96.9587 12.7074 97.2633 12.4704 97.6484 12.2969C98.0335 12.1234 98.4673 12.0366 98.9497 12.0366C99.4279 12.0366 99.8511 12.1128 100.219 12.2651C100.592 12.4132 100.89 12.6248 101.114 12.8999C101.343 13.175 101.482 13.4987 101.533 13.8711H100.448C100.376 13.6003 100.211 13.3802 99.9526 13.2109C99.6945 13.0417 99.3581 12.957 98.9434 12.957C98.6725 12.957 98.4313 13.0015 98.2197 13.0903C98.0081 13.175 97.841 13.2935 97.7183 13.4458C97.5955 13.5981 97.5342 13.7759 97.5342 13.979V13.9917C97.5342 14.144 97.5744 14.2795 97.6548 14.3979C97.7352 14.5164 97.86 14.6201 98.0293 14.709C98.1986 14.7979 98.4165 14.8761 98.6831 14.9438L99.7368 15.1978C100.38 15.3543 100.858 15.5786 101.171 15.8706C101.489 16.1626 101.647 16.554 101.647 17.0449V17.0576C101.647 17.4639 101.527 17.8236 101.286 18.1367C101.044 18.4456 100.716 18.6868 100.302 18.8604C99.8913 19.0339 99.4258 19.1206 98.9053 19.1206ZM103.425 19V9.44043H104.529V13.1855H104.631C104.804 12.8216 105.054 12.5402 105.38 12.3413C105.706 12.1382 106.12 12.0366 106.624 12.0366C107.136 12.0366 107.57 12.1361 107.925 12.335C108.281 12.5296 108.552 12.8153 108.738 13.1919C108.924 13.5685 109.017 14.0277 109.017 14.5693V19H107.913V14.8359C107.913 14.2181 107.781 13.7611 107.519 13.4648C107.261 13.1644 106.859 13.0142 106.313 13.0142C105.949 13.0142 105.634 13.0924 105.367 13.249C105.101 13.4056 104.893 13.6278 104.745 13.9155C104.601 14.2033 104.529 14.5482 104.529 14.9502V19H103.425ZM112.896 19.1206C112.464 19.1206 112.075 19.0381 111.728 18.873C111.385 18.708 111.112 18.4731 110.909 18.1685C110.71 17.8638 110.61 17.5041 110.61 17.0894V17.0767C110.61 16.6704 110.708 16.3234 110.902 16.0356C111.097 15.7437 111.381 15.5151 111.753 15.3501C112.125 15.1851 112.576 15.0877 113.105 15.0581L115.619 14.9058V15.7881L113.238 15.9404C112.718 15.9701 112.337 16.078 112.096 16.2642C111.859 16.4504 111.74 16.7127 111.74 17.0513V17.064C111.74 17.411 111.871 17.6818 112.134 17.8765C112.396 18.0669 112.726 18.1621 113.124 18.1621C113.501 18.1621 113.835 18.0881 114.127 17.9399C114.419 17.7876 114.647 17.5824 114.812 17.3242C114.982 17.0661 115.066 16.7741 115.066 16.4482V14.3154C115.066 13.8923 114.937 13.5706 114.679 13.3506C114.425 13.1263 114.042 13.0142 113.53 13.0142C113.12 13.0142 112.783 13.0882 112.521 13.2363C112.259 13.3802 112.083 13.5854 111.994 13.8521L111.988 13.8711H110.883L110.89 13.833C110.949 13.4733 111.097 13.1602 111.334 12.8936C111.575 12.6227 111.886 12.4132 112.267 12.2651C112.648 12.1128 113.082 12.0366 113.568 12.0366C114.127 12.0366 114.599 12.1276 114.984 12.3096C115.373 12.4915 115.667 12.7539 115.866 13.0967C116.069 13.4352 116.171 13.8415 116.171 14.3154V19H115.066V17.9907H114.965C114.821 18.2319 114.645 18.4372 114.438 18.6064C114.235 18.7757 114.004 18.9048 113.746 18.9937C113.488 19.0783 113.204 19.1206 112.896 19.1206ZM124.988 19.2158C124.319 19.2158 123.735 19.1079 123.236 18.8921C122.741 18.672 122.347 18.3716 122.055 17.9907C121.767 17.6056 121.6 17.1655 121.554 16.6704L121.547 16.6006H122.69L122.696 16.6704C122.726 16.9751 122.842 17.2396 123.045 17.4639C123.253 17.6839 123.528 17.8553 123.871 17.978C124.218 18.1007 124.611 18.1621 125.051 18.1621C125.466 18.1621 125.834 18.0965 126.156 17.9653C126.482 17.8299 126.738 17.6437 126.924 17.4067C127.11 17.1698 127.203 16.8968 127.203 16.5879V16.5815C127.203 16.2007 127.063 15.8812 126.784 15.623C126.505 15.3607 126.05 15.1597 125.419 15.02L124.404 14.7979C123.486 14.5947 122.817 14.2816 122.398 13.8584C121.983 13.431 121.776 12.8851 121.776 12.2207V12.2144C121.78 11.7065 121.918 11.258 122.188 10.8687C122.464 10.4793 122.842 10.1746 123.325 9.95459C123.811 9.73454 124.37 9.62451 125 9.62451C125.61 9.62451 126.149 9.73454 126.619 9.95459C127.089 10.1704 127.461 10.4624 127.736 10.8306C128.016 11.1987 128.17 11.6113 128.2 12.0684L128.206 12.1572H127.063L127.051 12.0747C127.008 11.8039 126.898 11.5648 126.721 11.3574C126.543 11.1458 126.306 10.9787 126.01 10.856C125.714 10.7332 125.367 10.674 124.969 10.6782C124.588 10.6782 124.245 10.7375 123.94 10.856C123.636 10.9744 123.392 11.1458 123.21 11.3701C123.033 11.5902 122.944 11.861 122.944 12.1826V12.189C122.944 12.5529 123.079 12.8597 123.35 13.1094C123.621 13.359 124.067 13.5516 124.689 13.687L125.705 13.9155C126.344 14.0552 126.858 14.2371 127.248 14.4614C127.637 14.6857 127.92 14.9608 128.098 15.2866C128.28 15.6082 128.371 15.9891 128.371 16.4292V16.4355C128.371 17.0068 128.231 17.4998 127.952 17.9146C127.673 18.3293 127.279 18.6509 126.771 18.8794C126.264 19.1037 125.669 19.2158 124.988 19.2158ZM132.015 19.1206C131.583 19.1206 131.194 19.0381 130.847 18.873C130.504 18.708 130.231 18.4731 130.028 18.1685C129.829 17.8638 129.729 17.5041 129.729 17.0894V17.0767C129.729 16.6704 129.827 16.3234 130.021 16.0356C130.216 15.7437 130.5 15.5151 130.872 15.3501C131.244 15.1851 131.695 15.0877 132.224 15.0581L134.738 14.9058V15.7881L132.357 15.9404C131.837 15.9701 131.456 16.078 131.215 16.2642C130.978 16.4504 130.859 16.7127 130.859 17.0513V17.064C130.859 17.411 130.991 17.6818 131.253 17.8765C131.515 18.0669 131.845 18.1621 132.243 18.1621C132.62 18.1621 132.954 18.0881 133.246 17.9399C133.538 17.7876 133.767 17.5824 133.932 17.3242C134.101 17.0661 134.186 16.7741 134.186 16.4482V14.3154C134.186 13.8923 134.056 13.5706 133.798 13.3506C133.544 13.1263 133.161 13.0142 132.649 13.0142C132.239 13.0142 131.903 13.0882 131.64 13.2363C131.378 13.3802 131.202 13.5854 131.113 13.8521L131.107 13.8711H130.002L130.009 13.833C130.068 13.4733 130.216 13.1602 130.453 12.8936C130.694 12.6227 131.005 12.4132 131.386 12.2651C131.767 12.1128 132.201 12.0366 132.688 12.0366C133.246 12.0366 133.718 12.1276 134.103 12.3096C134.492 12.4915 134.786 12.7539 134.985 13.0967C135.188 13.4352 135.29 13.8415 135.29 14.3154V19H134.186V17.9907H134.084C133.94 18.2319 133.764 18.4372 133.557 18.6064C133.354 18.7757 133.123 18.9048 132.865 18.9937C132.607 19.0783 132.324 19.1206 132.015 19.1206ZM138.312 19L136.395 12.1572H137.499L138.845 17.6289H138.946L140.476 12.1572H141.523L143.053 17.6289H143.155L144.5 12.1572H145.599L143.682 19H142.571L141.041 13.7061H140.939L139.416 19H138.312ZM148.747 19.1206C148.315 19.1206 147.926 19.0381 147.579 18.873C147.236 18.708 146.963 18.4731 146.76 18.1685C146.561 17.8638 146.462 17.5041 146.462 17.0894V17.0767C146.462 16.6704 146.559 16.3234 146.754 16.0356C146.949 15.7437 147.232 15.5151 147.604 15.3501C147.977 15.1851 148.428 15.0877 148.957 15.0581L151.47 14.9058V15.7881L149.09 15.9404C148.569 15.9701 148.188 16.078 147.947 16.2642C147.71 16.4504 147.592 16.7127 147.592 17.0513V17.064C147.592 17.411 147.723 17.6818 147.985 17.8765C148.248 18.0669 148.578 18.1621 148.976 18.1621C149.352 18.1621 149.687 18.0881 149.979 17.9399C150.271 17.7876 150.499 17.5824 150.664 17.3242C150.833 17.0661 150.918 16.7741 150.918 16.4482V14.3154C150.918 13.8923 150.789 13.5706 150.531 13.3506C150.277 13.1263 149.894 13.0142 149.382 13.0142C148.971 13.0142 148.635 13.0882 148.373 13.2363C148.11 13.3802 147.935 13.5854 147.846 13.8521L147.839 13.8711H146.735L146.741 13.833C146.8 13.4733 146.949 13.1602 147.186 12.8936C147.427 12.6227 147.738 12.4132 148.119 12.2651C148.5 12.1128 148.933 12.0366 149.42 12.0366C149.979 12.0366 150.45 12.1276 150.835 12.3096C151.225 12.4915 151.519 12.7539 151.718 13.0967C151.921 13.4352 152.022 13.8415 152.022 14.3154V19H150.918V17.9907H150.816C150.673 18.2319 150.497 18.4372 150.29 18.6064C150.086 18.7757 149.856 18.9048 149.598 18.9937C149.34 19.0783 149.056 19.1206 148.747 19.1206ZM154.041 19V12.1572H155.146V13.1855H155.247C155.421 12.8216 155.67 12.5402 155.996 12.3413C156.322 12.1382 156.737 12.0366 157.24 12.0366C158.01 12.0366 158.601 12.2567 159.011 12.6968C159.426 13.1326 159.633 13.7568 159.633 14.5693V19H158.529V14.8359C158.529 14.2181 158.398 13.7611 158.135 13.4648C157.877 13.1644 157.475 13.0142 156.929 13.0142C156.565 13.0142 156.25 13.0924 155.983 13.249C155.717 13.4056 155.509 13.6278 155.361 13.9155C155.217 14.2033 155.146 14.5482 155.146 14.9502V19H154.041ZM161.658 19V12.1572H162.763V19H161.658ZM162.217 10.8369C162.009 10.8369 161.83 10.7629 161.677 10.6147C161.529 10.4624 161.455 10.2826 161.455 10.0752C161.455 9.86361 161.529 9.68376 161.677 9.53564C161.83 9.38753 162.009 9.31348 162.217 9.31348C162.428 9.31348 162.608 9.38753 162.756 9.53564C162.904 9.68376 162.979 9.86361 162.979 10.0752C162.979 10.2826 162.904 10.4624 162.756 10.6147C162.608 10.7629 162.428 10.8369 162.217 10.8369Z" fill="black" fill-opacity="0.85"/>
</svg>
