<svg width="208" height="36" viewBox="0 0 208 36" fill="none" xmlns="http://www.w3.org/2000/svg">
<mask id="path-1-inside-1_782_4243" fill="white">
<path d="M0 0H208V36H0V0Z"/>
</mask>
<path d="M208 35H0V37H208V35Z" fill="black" fill-opacity="0.05" mask="url(#path-1-inside-1_782_4243)"/>
<path d="M1.73926 19.731V18.7153H4.3291C4.98503 18.7153 5.49284 18.5461 5.85254 18.2075C6.21224 17.8647 6.39209 17.3929 6.39209 16.792V16.7793C6.39209 16.1742 6.21224 15.7023 5.85254 15.3638C5.49284 15.0252 4.98503 14.856 4.3291 14.856H1.73926V13.8403H4.62109C5.19661 13.8403 5.70443 13.9631 6.14453 14.2085C6.58464 14.4539 6.92952 14.7967 7.1792 15.2368C7.43311 15.6769 7.56006 16.1868 7.56006 16.7666V16.7793C7.56006 17.359 7.43311 17.8711 7.1792 18.3154C6.92952 18.7598 6.58464 19.1068 6.14453 19.3564C5.70443 19.6061 5.19661 19.731 4.62109 19.731H1.73926ZM1.16797 23V13.8403H2.31055V23H1.16797ZM9.35645 23V13.4404H10.4609V17.1855H10.5625C10.736 16.8216 10.9857 16.5402 11.3115 16.3413C11.6374 16.1382 12.0521 16.0366 12.5557 16.0366C13.0677 16.0366 13.5015 16.1361 13.8569 16.335C14.2124 16.5296 14.4832 16.8153 14.6694 17.1919C14.8556 17.5685 14.9487 18.0277 14.9487 18.5693V23H13.8442V18.8359C13.8442 18.2181 13.7131 17.7611 13.4507 17.4648C13.1925 17.1644 12.7905 17.0142 12.2446 17.0142C11.8807 17.0142 11.5654 17.0924 11.2988 17.249C11.0322 17.4056 10.8249 17.6278 10.6768 17.9155C10.5329 18.2033 10.4609 18.5482 10.4609 18.9502V23H9.35645ZM19.7603 23.1206C19.1128 23.1206 18.5521 22.9788 18.0781 22.6953C17.6084 22.4076 17.2445 21.9992 16.9863 21.4702C16.7324 20.9412 16.6055 20.3128 16.6055 19.585V19.5723C16.6055 18.8402 16.7324 18.2096 16.9863 17.6807C17.2445 17.1517 17.6084 16.7454 18.0781 16.4619C18.5521 16.1784 19.1128 16.0366 19.7603 16.0366C20.4119 16.0366 20.9727 16.1784 21.4424 16.4619C21.9121 16.7454 22.2739 17.1517 22.5278 17.6807C22.786 18.2096 22.915 18.8402 22.915 19.5723V19.585C22.915 20.3128 22.786 20.9412 22.5278 21.4702C22.2739 21.9992 21.9121 22.4076 21.4424 22.6953C20.9727 22.9788 20.4119 23.1206 19.7603 23.1206ZM19.7603 22.1431C20.1919 22.1431 20.5579 22.0415 20.8584 21.8384C21.1589 21.6353 21.3874 21.3433 21.5439 20.9624C21.7048 20.5815 21.7852 20.1224 21.7852 19.585V19.5723C21.7852 19.0306 21.7048 18.5693 21.5439 18.1885C21.3874 17.8076 21.1589 17.5177 20.8584 17.3188C20.5579 17.1157 20.1919 17.0142 19.7603 17.0142C19.3286 17.0142 18.9626 17.1157 18.6621 17.3188C18.3617 17.5177 18.131 17.8076 17.9702 18.1885C17.8136 18.5693 17.7354 19.0306 17.7354 19.5723V19.585C17.7354 20.1224 17.8136 20.5815 17.9702 20.9624C18.131 21.3433 18.3617 21.6353 18.6621 21.8384C18.9626 22.0415 19.3286 22.1431 19.7603 22.1431ZM24.6289 23V16.1572H25.7334V17.1855H25.835C26.0085 16.8216 26.2581 16.5402 26.584 16.3413C26.9098 16.1382 27.3245 16.0366 27.8281 16.0366C28.5983 16.0366 29.1886 16.2567 29.5991 16.6968C30.0138 17.1326 30.2212 17.7568 30.2212 18.5693V23H29.1167V18.8359C29.1167 18.2181 28.9855 17.7611 28.7231 17.4648C28.465 17.1644 28.063 17.0142 27.5171 17.0142C27.1532 17.0142 26.8379 17.0924 26.5713 17.249C26.3047 17.4056 26.0973 17.6278 25.9492 17.9155C25.8053 18.2033 25.7334 18.5482 25.7334 18.9502V23H24.6289ZM35.0137 23.1206C34.362 23.1206 33.8013 22.9767 33.3315 22.689C32.866 22.4012 32.5063 21.995 32.2524 21.4702C32.0028 20.9412 31.8779 20.3192 31.8779 19.604V19.5977C31.8779 18.891 32.0028 18.271 32.2524 17.7378C32.5063 17.2046 32.8639 16.7878 33.3252 16.4873C33.7865 16.1868 34.326 16.0366 34.9438 16.0366C35.5659 16.0366 36.0991 16.1805 36.5435 16.4683C36.992 16.756 37.3348 17.158 37.5718 17.6743C37.813 18.1864 37.9336 18.783 37.9336 19.4644V19.896H32.4492V19.0137H37.3687L36.8228 19.8198V19.3818C36.8228 18.8444 36.7424 18.4022 36.5815 18.0552C36.4207 17.7082 36.1986 17.45 35.915 17.2808C35.6315 17.1073 35.3057 17.0205 34.9375 17.0205C34.5693 17.0205 34.2393 17.1115 33.9473 17.2935C33.6595 17.4712 33.431 17.7357 33.2617 18.0869C33.0924 18.4382 33.0078 18.8698 33.0078 19.3818V19.8198C33.0078 20.3065 33.0903 20.7233 33.2554 21.0703C33.4204 21.4131 33.6553 21.6776 33.96 21.8638C34.2646 22.0457 34.6243 22.1367 35.0391 22.1367C35.348 22.1367 35.6167 22.0944 35.8452 22.0098C36.0737 21.9251 36.262 21.8172 36.4102 21.686C36.5583 21.5549 36.6619 21.4215 36.7212 21.2861L36.7466 21.229H37.8511L37.8384 21.2798C37.7791 21.5125 37.6733 21.7389 37.521 21.959C37.3729 22.1748 37.1803 22.3716 36.9434 22.5493C36.7064 22.7228 36.425 22.8625 36.0991 22.9683C35.7775 23.0698 35.4157 23.1206 35.0137 23.1206ZM43.4434 23V13.8403H44.5542L49.8037 21.3687L49.042 20.9688H49.626V13.8403H50.7559V23H49.645L44.3955 15.4971L45.1572 15.897H44.5732V23H43.4434ZM55.2437 23.1206C54.7274 23.1206 54.2936 23.0233 53.9424 22.8286C53.5911 22.6297 53.3267 22.342 53.1489 21.9653C52.9754 21.5845 52.8887 21.1253 52.8887 20.5879V16.1572H53.9932V20.3213C53.9932 20.9349 54.1117 21.3919 54.3486 21.6924C54.5898 21.9928 54.9834 22.1431 55.5293 22.1431C55.8298 22.1431 56.0942 22.0986 56.3228 22.0098C56.5555 21.9209 56.7502 21.7939 56.9067 21.6289C57.0633 21.4596 57.1797 21.2565 57.2559 21.0195C57.3363 20.7783 57.3765 20.5075 57.3765 20.207V16.1572H58.481V23H57.3765V21.978H57.2749C57.1649 22.2192 57.0146 22.4266 56.8242 22.6001C56.6338 22.7694 56.4053 22.8984 56.1387 22.9873C55.8763 23.0762 55.578 23.1206 55.2437 23.1206ZM60.5439 23V16.1572H61.6484V17.1982H61.75C61.9023 16.8301 62.1351 16.5444 62.4482 16.3413C62.7656 16.1382 63.1486 16.0366 63.5972 16.0366C63.9061 16.0366 64.1833 16.0874 64.4287 16.189C64.6742 16.2905 64.8857 16.4323 65.0635 16.6143C65.2412 16.792 65.383 16.9993 65.4888 17.2363H65.5903C65.7131 16.9951 65.8781 16.7856 66.0854 16.6079C66.2928 16.4259 66.5319 16.2863 66.8027 16.189C67.0778 16.0874 67.3719 16.0366 67.6851 16.0366C68.1506 16.0366 68.5441 16.1234 68.8657 16.2969C69.1916 16.4704 69.4391 16.7243 69.6084 17.0586C69.7777 17.3887 69.8623 17.7928 69.8623 18.271V23H68.7578V18.5249C68.7578 18.1864 68.7049 17.9071 68.5991 17.687C68.4976 17.4627 68.341 17.2956 68.1294 17.1855C67.9178 17.0713 67.6512 17.0142 67.3296 17.0142C67.0122 17.0142 66.735 17.0861 66.498 17.23C66.2611 17.3739 66.077 17.5664 65.9458 17.8076C65.8146 18.0446 65.749 18.3091 65.749 18.6011V23H64.6445V18.3535C64.6445 18.0827 64.5853 17.8478 64.4668 17.6489C64.3525 17.4458 64.1875 17.2892 63.9717 17.1792C63.7601 17.0692 63.5104 17.0142 63.2227 17.0142C62.9264 17.0142 62.6577 17.0924 62.4165 17.249C62.1795 17.4056 61.9912 17.6172 61.8516 17.8838C61.7161 18.1462 61.6484 18.4382 61.6484 18.7598V23H60.5439ZM75.2578 23.1206C74.9404 23.1206 74.6463 23.0719 74.3755 22.9746C74.1047 22.8773 73.8634 22.7397 73.6519 22.562C73.4403 22.38 73.2646 22.1621 73.125 21.9082H73.0234V23H71.9189V13.4404H73.0234V17.2363H73.125C73.252 16.9909 73.4212 16.7793 73.6328 16.6016C73.8486 16.4238 74.0941 16.2863 74.3691 16.189C74.6484 16.0874 74.9447 16.0366 75.2578 16.0366C75.8376 16.0366 76.3411 16.1826 76.7686 16.4746C77.2002 16.7666 77.5345 17.1771 77.7715 17.7061C78.0085 18.235 78.127 18.8571 78.127 19.5723V19.585C78.127 20.2959 78.0085 20.918 77.7715 21.4512C77.5345 21.9801 77.2002 22.3906 76.7686 22.6826C76.3411 22.9746 75.8376 23.1206 75.2578 23.1206ZM75.0039 22.1431C75.4229 22.1431 75.7804 22.0415 76.0767 21.8384C76.3729 21.631 76.5993 21.3369 76.7559 20.9561C76.9167 20.571 76.9971 20.1139 76.9971 19.585V19.5723C76.9971 19.0391 76.9167 18.582 76.7559 18.2012C76.5993 17.8203 76.3729 17.5283 76.0767 17.3252C75.7804 17.1178 75.4229 17.0142 75.0039 17.0142C74.5892 17.0142 74.2316 17.1178 73.9312 17.3252C73.6307 17.5326 73.4001 17.8267 73.2393 18.2075C73.0785 18.5884 72.998 19.0433 72.998 19.5723V19.585C72.998 20.1097 73.0785 20.5646 73.2393 20.9497C73.4001 21.3306 73.6307 21.6247 73.9312 21.832C74.2316 22.0394 74.5892 22.1431 75.0039 22.1431ZM82.6338 23.1206C81.9821 23.1206 81.4214 22.9767 80.9517 22.689C80.4862 22.4012 80.1265 21.995 79.8726 21.4702C79.6229 20.9412 79.498 20.3192 79.498 19.604V19.5977C79.498 18.891 79.6229 18.271 79.8726 17.7378C80.1265 17.2046 80.484 16.7878 80.9453 16.4873C81.4066 16.1868 81.9461 16.0366 82.564 16.0366C83.186 16.0366 83.7192 16.1805 84.1636 16.4683C84.6121 16.756 84.9549 17.158 85.1919 17.6743C85.4331 18.1864 85.5537 18.783 85.5537 19.4644V19.896H80.0693V19.0137H84.9888L84.4429 19.8198V19.3818C84.4429 18.8444 84.3625 18.4022 84.2017 18.0552C84.0409 17.7082 83.8187 17.45 83.5352 17.2808C83.2516 17.1073 82.9258 17.0205 82.5576 17.0205C82.1895 17.0205 81.8594 17.1115 81.5674 17.2935C81.2796 17.4712 81.0511 17.7357 80.8818 18.0869C80.7126 18.4382 80.6279 18.8698 80.6279 19.3818V19.8198C80.6279 20.3065 80.7104 20.7233 80.8755 21.0703C81.0405 21.4131 81.2754 21.6776 81.5801 21.8638C81.8848 22.0457 82.2445 22.1367 82.6592 22.1367C82.9681 22.1367 83.2368 22.0944 83.4653 22.0098C83.6938 21.9251 83.8822 21.8172 84.0303 21.686C84.1784 21.5549 84.2821 21.4215 84.3413 21.2861L84.3667 21.229H85.4712L85.4585 21.2798C85.3993 21.5125 85.2935 21.7389 85.1411 21.959C84.993 22.1748 84.8005 22.3716 84.5635 22.5493C84.3265 22.7228 84.0451 22.8625 83.7192 22.9683C83.3976 23.0698 83.0358 23.1206 82.6338 23.1206ZM87.2676 23V16.1572H88.3721V17.1729H88.4736C88.6048 16.8132 88.827 16.5339 89.1401 16.335C89.4533 16.1361 89.8405 16.0366 90.3018 16.0366C90.4076 16.0366 90.5112 16.043 90.6128 16.0557C90.7186 16.0641 90.799 16.0726 90.854 16.0811V17.1538C90.7397 17.1326 90.6276 17.1178 90.5176 17.1094C90.4118 17.0967 90.2975 17.0903 90.1748 17.0903C89.8236 17.0903 89.5125 17.1602 89.2417 17.2998C88.9709 17.4395 88.7572 17.6341 88.6006 17.8838C88.4482 18.1335 88.3721 18.4255 88.3721 18.7598V23H87.2676Z" fill="black" fill-opacity="0.85"/>
</svg>
