<svg width="110" height="28" viewBox="0 0 110 28" fill="none" xmlns="http://www.w3.org/2000/svg">
<rect width="110" height="28" rx="5" fill="black" fill-opacity="0.015"/>
<path d="M42.603 19.2158C41.7736 19.2158 41.0563 19.0212 40.4512 18.6318C39.846 18.2425 39.3784 17.6903 39.0483 16.9751C38.7225 16.2599 38.5596 15.4115 38.5596 14.4297V14.417C38.5596 13.431 38.7225 12.5804 39.0483 11.8652C39.3784 11.1501 39.8439 10.5978 40.4448 10.2085C41.05 9.81917 41.7673 9.62451 42.5967 9.62451C43.2399 9.62451 43.8239 9.75146 44.3486 10.0054C44.8776 10.255 45.3135 10.6042 45.6562 11.0527C45.999 11.4971 46.2148 12.0112 46.3037 12.5952L46.2974 12.6079H45.1484L45.1421 12.5952C45.0405 12.2017 44.8691 11.8631 44.6279 11.5796C44.3867 11.2918 44.0926 11.0697 43.7456 10.9131C43.4028 10.7565 43.0199 10.6782 42.5967 10.6782C42.0127 10.6782 41.5049 10.8306 41.0732 11.1353C40.6458 11.4399 40.3158 11.8716 40.083 12.4302C39.8503 12.9888 39.7339 13.651 39.7339 14.417V14.4297C39.7339 15.1914 39.8503 15.8516 40.083 16.4102C40.3158 16.9688 40.6458 17.4004 41.0732 17.7051C41.5049 18.0098 42.0148 18.1621 42.603 18.1621C43.0304 18.1621 43.4176 18.0944 43.7646 17.959C44.1117 17.8193 44.4036 17.6226 44.6406 17.3687C44.8776 17.1105 45.0426 16.8058 45.1357 16.4546L45.1484 16.4419H46.3037V16.4546C46.2021 17.0132 45.9821 17.4998 45.6436 17.9146C45.305 18.325 44.8755 18.6445 44.355 18.873C43.8387 19.1016 43.2547 19.2158 42.603 19.2158ZM48.1445 19V9.44043H49.249V19H48.1445ZM54.1812 19.1206C53.5337 19.1206 52.973 18.9788 52.499 18.6953C52.0293 18.4076 51.6654 17.9992 51.4072 17.4702C51.1533 16.9412 51.0264 16.3128 51.0264 15.585V15.5723C51.0264 14.8402 51.1533 14.2096 51.4072 13.6807C51.6654 13.1517 52.0293 12.7454 52.499 12.4619C52.973 12.1784 53.5337 12.0366 54.1812 12.0366C54.8328 12.0366 55.3936 12.1784 55.8633 12.4619C56.333 12.7454 56.6948 13.1517 56.9487 13.6807C57.2069 14.2096 57.3359 14.8402 57.3359 15.5723V15.585C57.3359 16.3128 57.2069 16.9412 56.9487 17.4702C56.6948 17.9992 56.333 18.4076 55.8633 18.6953C55.3936 18.9788 54.8328 19.1206 54.1812 19.1206ZM54.1812 18.1431C54.6128 18.1431 54.9788 18.0415 55.2793 17.8384C55.5798 17.6353 55.8083 17.3433 55.9648 16.9624C56.1257 16.5815 56.2061 16.1224 56.2061 15.585V15.5723C56.2061 15.0306 56.1257 14.5693 55.9648 14.1885C55.8083 13.8076 55.5798 13.5177 55.2793 13.3188C54.9788 13.1157 54.6128 13.0142 54.1812 13.0142C53.7495 13.0142 53.3835 13.1157 53.083 13.3188C52.7826 13.5177 52.5519 13.8076 52.3911 14.1885C52.2345 14.5693 52.1562 15.0306 52.1562 15.5723V15.585C52.1562 16.1224 52.2345 16.5815 52.3911 16.9624C52.5519 17.3433 52.7826 17.6353 53.083 17.8384C53.3835 18.0415 53.7495 18.1431 54.1812 18.1431ZM61.3984 19.1206C60.8906 19.1206 60.4421 19.0444 60.0527 18.8921C59.6634 18.7355 59.3503 18.5176 59.1133 18.2383C58.8805 17.959 58.743 17.631 58.7007 17.2544H59.8306C59.9237 17.5379 60.1056 17.7664 60.3765 17.9399C60.6473 18.1134 61.0007 18.2002 61.4365 18.2002C61.7454 18.2002 62.0163 18.1558 62.249 18.0669C62.486 17.9738 62.6722 17.849 62.8076 17.6924C62.943 17.5316 63.0107 17.3475 63.0107 17.1401V17.1274C63.0107 16.8947 62.9176 16.6979 62.7314 16.5371C62.5452 16.3721 62.2406 16.2388 61.8174 16.1372L60.7573 15.8833C60.3299 15.7817 59.9787 15.6506 59.7036 15.4897C59.4285 15.3247 59.2254 15.1237 59.0942 14.8867C58.9631 14.6455 58.8975 14.362 58.8975 14.0361V14.0298C58.8975 13.6489 59.0075 13.3083 59.2275 13.0078C59.4518 12.7074 59.7565 12.4704 60.1416 12.2969C60.5267 12.1234 60.9604 12.0366 61.4429 12.0366C61.9211 12.0366 62.3442 12.1128 62.7124 12.2651C63.0848 12.4132 63.3831 12.6248 63.6074 12.8999C63.8359 13.175 63.9756 13.4987 64.0264 13.8711H62.9409C62.869 13.6003 62.7039 13.3802 62.4458 13.2109C62.1877 13.0417 61.8512 12.957 61.4365 12.957C61.1657 12.957 60.9245 13.0015 60.7129 13.0903C60.5013 13.175 60.3341 13.2935 60.2114 13.4458C60.0887 13.5981 60.0273 13.7759 60.0273 13.979V13.9917C60.0273 14.144 60.0675 14.2795 60.1479 14.3979C60.2284 14.5164 60.3532 14.6201 60.5225 14.709C60.6917 14.7979 60.9097 14.8761 61.1763 14.9438L62.23 15.1978C62.8732 15.3543 63.3514 15.5786 63.6646 15.8706C63.9819 16.1626 64.1406 16.554 64.1406 17.0449V17.0576C64.1406 17.4639 64.02 17.8236 63.7788 18.1367C63.5376 18.4456 63.2096 18.6868 62.7949 18.8604C62.3844 19.0339 61.9189 19.1206 61.3984 19.1206ZM68.6475 19.1206C67.9958 19.1206 67.4351 18.9767 66.9653 18.689C66.4998 18.4012 66.1401 17.995 65.8862 17.4702C65.6366 16.9412 65.5117 16.3192 65.5117 15.604V15.5977C65.5117 14.891 65.6366 14.271 65.8862 13.7378C66.1401 13.2046 66.4977 12.7878 66.959 12.4873C67.4202 12.1868 67.9598 12.0366 68.5776 12.0366C69.1997 12.0366 69.7329 12.1805 70.1772 12.4683C70.6258 12.756 70.9686 13.158 71.2056 13.6743C71.4468 14.1864 71.5674 14.783 71.5674 15.4644V15.896H66.083V15.0137H71.0024L70.4565 15.8198V15.3818C70.4565 14.8444 70.3761 14.4022 70.2153 14.0552C70.0545 13.7082 69.8324 13.45 69.5488 13.2808C69.2653 13.1073 68.9395 13.0205 68.5713 13.0205C68.2031 13.0205 67.873 13.1115 67.5811 13.2935C67.2933 13.4712 67.0648 13.7357 66.8955 14.0869C66.7262 14.4382 66.6416 14.8698 66.6416 15.3818V15.8198C66.6416 16.3065 66.7241 16.7233 66.8892 17.0703C67.0542 17.4131 67.2891 17.6776 67.5938 17.8638C67.8984 18.0457 68.2581 18.1367 68.6729 18.1367C68.9818 18.1367 69.2505 18.0944 69.479 18.0098C69.7075 17.9251 69.8958 17.8172 70.0439 17.686C70.1921 17.5549 70.2957 17.4215 70.355 17.2861L70.3804 17.229H71.4849L71.4722 17.2798C71.4129 17.5125 71.3071 17.7389 71.1548 17.959C71.0067 18.1748 70.8141 18.3716 70.5771 18.5493C70.3402 18.7228 70.0588 18.8625 69.7329 18.9683C69.4113 19.0698 69.0495 19.1206 68.6475 19.1206Z" fill="black" fill-opacity="0.85"/>
</svg>
