<svg width="228" height="28" viewBox="0 0 228 28" fill="none" xmlns="http://www.w3.org/2000/svg">
<g style="mix-blend-mode:plus-darker">
<rect x="4" y="27" width="220" height="1" fill="#F5F5F5"/>
</g>
<path d="M54.4463 19V9.84033H55.5889V13.8013H60.6162V9.84033H61.7588V19H60.6162V14.8296H55.5889V19H54.4463ZM66.748 19.1206C66.0964 19.1206 65.5356 18.9767 65.0659 18.689C64.6004 18.4012 64.2407 17.995 63.9868 17.4702C63.7371 16.9412 63.6123 16.3192 63.6123 15.604V15.5977C63.6123 14.891 63.7371 14.271 63.9868 13.7378C64.2407 13.2046 64.5983 12.7878 65.0596 12.4873C65.5208 12.1868 66.0604 12.0366 66.6782 12.0366C67.3003 12.0366 67.8335 12.1805 68.2778 12.4683C68.7264 12.756 69.0692 13.158 69.3062 13.6743C69.5474 14.1864 69.668 14.783 69.668 15.4644V15.896H64.1836V15.0137H69.103L68.5571 15.8198V15.3818C68.5571 14.8444 68.4767 14.4022 68.3159 14.0552C68.1551 13.7082 67.9329 13.45 67.6494 13.2808C67.3659 13.1073 67.04 13.0205 66.6719 13.0205C66.3037 13.0205 65.9736 13.1115 65.6816 13.2935C65.3939 13.4712 65.1654 13.7357 64.9961 14.0869C64.8268 14.4382 64.7422 14.8698 64.7422 15.3818V15.8198C64.7422 16.3065 64.8247 16.7233 64.9897 17.0703C65.1548 17.4131 65.3896 17.6776 65.6943 17.8638C65.999 18.0457 66.3587 18.1367 66.7734 18.1367C67.0824 18.1367 67.3511 18.0944 67.5796 18.0098C67.8081 17.9251 67.9964 17.8172 68.1445 17.686C68.2926 17.5549 68.3963 17.4215 68.4556 17.2861L68.481 17.229H69.5854L69.5728 17.2798C69.5135 17.5125 69.4077 17.7389 69.2554 17.959C69.1073 18.1748 68.9147 18.3716 68.6777 18.5493C68.4408 18.7228 68.1593 18.8625 67.8335 18.9683C67.5119 19.0698 67.1501 19.1206 66.748 19.1206ZM73.7305 19.1206C73.2227 19.1206 72.7741 19.0444 72.3848 18.8921C71.9954 18.7355 71.6823 18.5176 71.4453 18.2383C71.2126 17.959 71.075 17.631 71.0327 17.2544H72.1626C72.2557 17.5379 72.4377 17.7664 72.7085 17.9399C72.9793 18.1134 73.3327 18.2002 73.7686 18.2002C74.0775 18.2002 74.3483 18.1558 74.5811 18.0669C74.818 17.9738 75.0042 17.849 75.1396 17.6924C75.2751 17.5316 75.3428 17.3475 75.3428 17.1401V17.1274C75.3428 16.8947 75.2497 16.6979 75.0635 16.5371C74.8773 16.3721 74.5726 16.2388 74.1494 16.1372L73.0894 15.8833C72.6619 15.7817 72.3107 15.6506 72.0356 15.4897C71.7606 15.3247 71.5575 15.1237 71.4263 14.8867C71.2951 14.6455 71.2295 14.362 71.2295 14.0361V14.0298C71.2295 13.6489 71.3395 13.3083 71.5596 13.0078C71.7839 12.7074 72.0885 12.4704 72.4736 12.2969C72.8587 12.1234 73.2925 12.0366 73.7749 12.0366C74.2531 12.0366 74.6763 12.1128 75.0444 12.2651C75.4168 12.4132 75.7152 12.6248 75.9395 12.8999C76.168 13.175 76.3076 13.4987 76.3584 13.8711H75.2729C75.201 13.6003 75.036 13.3802 74.7778 13.2109C74.5197 13.0417 74.1833 12.957 73.7686 12.957C73.4977 12.957 73.2565 13.0015 73.0449 13.0903C72.8333 13.175 72.6662 13.2935 72.5435 13.4458C72.4207 13.5981 72.3594 13.7759 72.3594 13.979V13.9917C72.3594 14.144 72.3996 14.2795 72.48 14.3979C72.5604 14.5164 72.6852 14.6201 72.8545 14.709C73.0238 14.7979 73.2417 14.8761 73.5083 14.9438L74.562 15.1978C75.2052 15.3543 75.6834 15.5786 75.9966 15.8706C76.314 16.1626 76.4727 16.554 76.4727 17.0449V17.0576C76.4727 17.4639 76.3521 17.8236 76.1108 18.1367C75.8696 18.4456 75.5417 18.6868 75.127 18.8604C74.7165 19.0339 74.251 19.1206 73.7305 19.1206ZM78.25 19V9.44043H79.3545V13.1855H79.4561C79.6296 12.8216 79.8792 12.5402 80.2051 12.3413C80.5309 12.1382 80.9456 12.0366 81.4492 12.0366C81.9613 12.0366 82.395 12.1361 82.7505 12.335C83.106 12.5296 83.3768 12.8153 83.563 13.1919C83.7492 13.5685 83.8423 14.0277 83.8423 14.5693V19H82.7378V14.8359C82.7378 14.2181 82.6066 13.7611 82.3442 13.4648C82.0861 13.1644 81.6841 13.0142 81.1382 13.0142C80.7743 13.0142 80.459 13.0924 80.1924 13.249C79.9258 13.4056 79.7184 13.6278 79.5703 13.9155C79.4264 14.2033 79.3545 14.5482 79.3545 14.9502V19H78.25ZM87.7207 19.1206C87.2891 19.1206 86.8997 19.0381 86.5527 18.873C86.21 18.708 85.937 18.4731 85.7339 18.1685C85.535 17.8638 85.4355 17.5041 85.4355 17.0894V17.0767C85.4355 16.6704 85.5329 16.3234 85.7275 16.0356C85.9222 15.7437 86.2057 15.5151 86.5781 15.3501C86.9505 15.1851 87.4012 15.0877 87.9302 15.0581L90.4438 14.9058V15.7881L88.0635 15.9404C87.543 15.9701 87.1621 16.078 86.9209 16.2642C86.6839 16.4504 86.5654 16.7127 86.5654 17.0513V17.064C86.5654 17.411 86.6966 17.6818 86.959 17.8765C87.2214 18.0669 87.5514 18.1621 87.9492 18.1621C88.3258 18.1621 88.6602 18.0881 88.9521 17.9399C89.2441 17.7876 89.4727 17.5824 89.6377 17.3242C89.807 17.0661 89.8916 16.7741 89.8916 16.4482V14.3154C89.8916 13.8923 89.7625 13.5706 89.5044 13.3506C89.2505 13.1263 88.8675 13.0142 88.3555 13.0142C87.945 13.0142 87.6086 13.0882 87.3462 13.2363C87.0838 13.3802 86.9082 13.5854 86.8193 13.8521L86.813 13.8711H85.7085L85.7148 13.833C85.7741 13.4733 85.9222 13.1602 86.1592 12.8936C86.4004 12.6227 86.7114 12.4132 87.0923 12.2651C87.4731 12.1128 87.9069 12.0366 88.3936 12.0366C88.9521 12.0366 89.424 12.1276 89.8091 12.3096C90.1984 12.4915 90.4925 12.7539 90.6914 13.0967C90.8945 13.4352 90.9961 13.8415 90.9961 14.3154V19H89.8916V17.9907H89.79C89.6462 18.2319 89.4705 18.4372 89.2632 18.6064C89.0601 18.7757 88.8294 18.9048 88.5713 18.9937C88.3132 19.0783 88.0296 19.1206 87.7207 19.1206ZM93.0146 19V12.1572H94.1191V13.1855H94.2207C94.3942 12.8216 94.6439 12.5402 94.9697 12.3413C95.2956 12.1382 95.7103 12.0366 96.2139 12.0366C96.984 12.0366 97.5744 12.2567 97.9849 12.6968C98.3996 13.1326 98.6069 13.7568 98.6069 14.5693V19H97.5024V14.8359C97.5024 14.2181 97.3713 13.7611 97.1089 13.4648C96.8507 13.1644 96.4487 13.0142 95.9028 13.0142C95.5389 13.0142 95.2236 13.0924 94.957 13.249C94.6904 13.4056 94.4831 13.6278 94.335 13.9155C94.1911 14.2033 94.1191 14.5482 94.1191 14.9502V19H93.0146ZM100.632 19V12.1572H101.736V19H100.632ZM101.19 10.8369C100.983 10.8369 100.803 10.7629 100.651 10.6147C100.503 10.4624 100.429 10.2826 100.429 10.0752C100.429 9.86361 100.503 9.68376 100.651 9.53564C100.803 9.38753 100.983 9.31348 101.19 9.31348C101.402 9.31348 101.582 9.38753 101.73 9.53564C101.878 9.68376 101.952 9.86361 101.952 10.0752C101.952 10.2826 101.878 10.4624 101.73 10.6147C101.582 10.7629 101.402 10.8369 101.19 10.8369ZM111.302 19.2158C110.473 19.2158 109.756 19.0212 109.15 18.6318C108.545 18.2425 108.078 17.6903 107.748 16.9751C107.422 16.2599 107.259 15.4115 107.259 14.4297V14.417C107.259 13.431 107.422 12.5804 107.748 11.8652C108.078 11.1501 108.543 10.5978 109.144 10.2085C109.749 9.81917 110.466 9.62451 111.296 9.62451C111.939 9.62451 112.523 9.75146 113.048 10.0054C113.577 10.255 114.013 10.6042 114.355 11.0527C114.698 11.4971 114.914 12.0112 115.003 12.5952L114.997 12.6079H113.848L113.841 12.5952C113.74 12.2017 113.568 11.8631 113.327 11.5796C113.086 11.2918 112.792 11.0697 112.445 10.9131C112.102 10.7565 111.719 10.6782 111.296 10.6782C110.712 10.6782 110.204 10.8306 109.772 11.1353C109.345 11.4399 109.015 11.8716 108.782 12.4302C108.549 12.9888 108.433 13.651 108.433 14.417V14.4297C108.433 15.1914 108.549 15.8516 108.782 16.4102C109.015 16.9688 109.345 17.4004 109.772 17.7051C110.204 18.0098 110.714 18.1621 111.302 18.1621C111.73 18.1621 112.117 18.0944 112.464 17.959C112.811 17.8193 113.103 17.6226 113.34 17.3687C113.577 17.1105 113.742 16.8058 113.835 16.4546L113.848 16.4419H115.003V16.4546C114.901 17.0132 114.681 17.4998 114.343 17.9146C114.004 18.325 113.575 18.6445 113.054 18.873C112.538 19.1016 111.954 19.2158 111.302 19.2158ZM116.844 19V9.44043H117.948V13.1855H118.05C118.223 12.8216 118.473 12.5402 118.799 12.3413C119.125 12.1382 119.539 12.0366 120.043 12.0366C120.555 12.0366 120.989 12.1361 121.344 12.335C121.7 12.5296 121.971 12.8153 122.157 13.1919C122.343 13.5685 122.436 14.0277 122.436 14.5693V19H121.332V14.8359C121.332 14.2181 121.2 13.7611 120.938 13.4648C120.68 13.1644 120.278 13.0142 119.732 13.0142C119.368 13.0142 119.053 13.0924 118.786 13.249C118.52 13.4056 118.312 13.6278 118.164 13.9155C118.02 14.2033 117.948 14.5482 117.948 14.9502V19H116.844ZM126.314 19.1206C125.883 19.1206 125.493 19.0381 125.146 18.873C124.804 18.708 124.531 18.4731 124.328 18.1685C124.129 17.8638 124.029 17.5041 124.029 17.0894V17.0767C124.029 16.6704 124.127 16.3234 124.321 16.0356C124.516 15.7437 124.799 15.5151 125.172 15.3501C125.544 15.1851 125.995 15.0877 126.524 15.0581L129.038 14.9058V15.7881L126.657 15.9404C126.137 15.9701 125.756 16.078 125.515 16.2642C125.278 16.4504 125.159 16.7127 125.159 17.0513V17.064C125.159 17.411 125.29 17.6818 125.553 17.8765C125.815 18.0669 126.145 18.1621 126.543 18.1621C126.92 18.1621 127.254 18.0881 127.546 17.9399C127.838 17.7876 128.066 17.5824 128.231 17.3242C128.401 17.0661 128.485 16.7741 128.485 16.4482V14.3154C128.485 13.8923 128.356 13.5706 128.098 13.3506C127.844 13.1263 127.461 13.0142 126.949 13.0142C126.539 13.0142 126.202 13.0882 125.94 13.2363C125.678 13.3802 125.502 13.5854 125.413 13.8521L125.407 13.8711H124.302L124.309 13.833C124.368 13.4733 124.516 13.1602 124.753 12.8936C124.994 12.6227 125.305 12.4132 125.686 12.2651C126.067 12.1128 126.501 12.0366 126.987 12.0366C127.546 12.0366 128.018 12.1276 128.403 12.3096C128.792 12.4915 129.086 12.7539 129.285 13.0967C129.488 13.4352 129.59 13.8415 129.59 14.3154V19H128.485V17.9907H128.384C128.24 18.2319 128.064 18.4372 127.857 18.6064C127.654 18.7757 127.423 18.9048 127.165 18.9937C126.907 19.0783 126.623 19.1206 126.314 19.1206ZM131.608 19V12.1572H132.713V13.1982H132.814C132.967 12.8301 133.2 12.5444 133.513 12.3413C133.83 12.1382 134.213 12.0366 134.662 12.0366C134.971 12.0366 135.248 12.0874 135.493 12.189C135.739 12.2905 135.95 12.4323 136.128 12.6143C136.306 12.792 136.447 12.9993 136.553 13.2363H136.655C136.778 12.9951 136.943 12.7856 137.15 12.6079C137.357 12.4259 137.596 12.2863 137.867 12.189C138.142 12.0874 138.436 12.0366 138.75 12.0366C139.215 12.0366 139.609 12.1234 139.93 12.2969C140.256 12.4704 140.504 12.7243 140.673 13.0586C140.842 13.3887 140.927 13.7928 140.927 14.271V19H139.822V14.5249C139.822 14.1864 139.769 13.9071 139.664 13.687C139.562 13.4627 139.405 13.2956 139.194 13.1855C138.982 13.0713 138.716 13.0142 138.394 13.0142C138.077 13.0142 137.799 13.0861 137.562 13.23C137.326 13.3739 137.141 13.5664 137.01 13.8076C136.879 14.0446 136.813 14.3091 136.813 14.6011V19H135.709V14.3535C135.709 14.0827 135.65 13.8478 135.531 13.6489C135.417 13.4458 135.252 13.2892 135.036 13.1792C134.825 13.0692 134.575 13.0142 134.287 13.0142C133.991 13.0142 133.722 13.0924 133.481 13.249C133.244 13.4056 133.056 13.6172 132.916 13.8838C132.781 14.1462 132.713 14.4382 132.713 14.7598V19H131.608ZM145.211 19.1206C144.695 19.1206 144.261 19.0233 143.91 18.8286C143.559 18.6297 143.294 18.342 143.117 17.9653C142.943 17.5845 142.856 17.1253 142.856 16.5879V12.1572H143.961V16.3213C143.961 16.9349 144.079 17.3919 144.316 17.6924C144.558 17.9928 144.951 18.1431 145.497 18.1431C145.798 18.1431 146.062 18.0986 146.291 18.0098C146.523 17.9209 146.718 17.7939 146.875 17.6289C147.031 17.4596 147.147 17.2565 147.224 17.0195C147.304 16.7783 147.344 16.5075 147.344 16.207V12.1572H148.449V19H147.344V17.978H147.243C147.133 18.2192 146.982 18.4266 146.792 18.6001C146.602 18.7694 146.373 18.8984 146.106 18.9873C145.844 19.0762 145.546 19.1206 145.211 19.1206ZM153.038 19.1206C152.463 19.1206 151.959 18.9746 151.527 18.6826C151.096 18.3906 150.761 17.9801 150.524 17.4512C150.287 16.918 150.169 16.2959 150.169 15.585V15.5723C150.169 14.8571 150.287 14.235 150.524 13.7061C150.761 13.1771 151.094 12.7666 151.521 12.4746C151.953 12.1826 152.458 12.0366 153.038 12.0366C153.351 12.0366 153.645 12.0874 153.92 12.189C154.2 12.2863 154.447 12.4238 154.663 12.6016C154.879 12.7793 155.048 12.9909 155.171 13.2363H155.272V9.44043H156.377V19H155.272V17.9082H155.171C155.031 18.1621 154.856 18.38 154.644 18.562C154.432 18.7397 154.191 18.8773 153.92 18.9746C153.65 19.0719 153.355 19.1206 153.038 19.1206ZM153.292 18.1431C153.707 18.1431 154.064 18.0394 154.365 17.832C154.665 17.6247 154.896 17.3306 155.057 16.9497C155.217 16.5646 155.298 16.1097 155.298 15.585V15.5723C155.298 15.0433 155.217 14.5884 155.057 14.2075C154.896 13.8267 154.665 13.5326 154.365 13.3252C154.064 13.1178 153.707 13.0142 153.292 13.0142C152.877 13.0142 152.52 13.1178 152.219 13.3252C151.923 13.5283 151.694 13.8203 151.534 14.2012C151.377 14.582 151.299 15.0391 151.299 15.5723V15.585C151.299 16.1139 151.377 16.571 151.534 16.9561C151.694 17.3369 151.923 17.631 152.219 17.8384C152.52 18.0415 152.877 18.1431 153.292 18.1431ZM158.522 19V12.1572H159.627V19H158.522ZM159.081 10.8369C158.874 10.8369 158.694 10.7629 158.542 10.6147C158.393 10.4624 158.319 10.2826 158.319 10.0752C158.319 9.86361 158.393 9.68376 158.542 9.53564C158.694 9.38753 158.874 9.31348 159.081 9.31348C159.293 9.31348 159.472 9.38753 159.621 9.53564C159.769 9.68376 159.843 9.86361 159.843 10.0752C159.843 10.2826 159.769 10.4624 159.621 10.6147C159.472 10.7629 159.293 10.8369 159.081 10.8369ZM161.772 19V9.44043H162.877V19H161.772ZM166.083 19L163.41 15.6484L164.223 14.9438L167.473 19H166.083ZM162.737 16.5371L162.687 15.147H162.979L165.937 12.1572H167.276L164.026 15.293L163.759 15.5532L162.737 16.5371ZM170.456 19.1206C170.024 19.1206 169.635 19.0381 169.288 18.873C168.945 18.708 168.672 18.4731 168.469 18.1685C168.27 17.8638 168.171 17.5041 168.171 17.0894V17.0767C168.171 16.6704 168.268 16.3234 168.463 16.0356C168.658 15.7437 168.941 15.5151 169.313 15.3501C169.686 15.1851 170.137 15.0877 170.666 15.0581L173.179 14.9058V15.7881L170.799 15.9404C170.278 15.9701 169.897 16.078 169.656 16.2642C169.419 16.4504 169.301 16.7127 169.301 17.0513V17.064C169.301 17.411 169.432 17.6818 169.694 17.8765C169.957 18.0669 170.287 18.1621 170.685 18.1621C171.061 18.1621 171.396 18.0881 171.688 17.9399C171.979 17.7876 172.208 17.5824 172.373 17.3242C172.542 17.0661 172.627 16.7741 172.627 16.4482V14.3154C172.627 13.8923 172.498 13.5706 172.24 13.3506C171.986 13.1263 171.603 13.0142 171.091 13.0142C170.68 13.0142 170.344 13.0882 170.082 13.2363C169.819 13.3802 169.644 13.5854 169.555 13.8521L169.548 13.8711H168.444L168.45 13.833C168.509 13.4733 168.658 13.1602 168.895 12.8936C169.136 12.6227 169.447 12.4132 169.828 12.2651C170.208 12.1128 170.642 12.0366 171.129 12.0366C171.688 12.0366 172.159 12.1276 172.544 12.3096C172.934 12.4915 173.228 12.7539 173.427 13.0967C173.63 13.4352 173.731 13.8415 173.731 14.3154V19H172.627V17.9907H172.525C172.382 18.2319 172.206 18.4372 171.999 18.6064C171.795 18.7757 171.565 18.9048 171.307 18.9937C171.049 19.0783 170.765 19.1206 170.456 19.1206Z" fill="black" fill-opacity="0.85"/>
</svg>
