<svg width="208" height="36" viewBox="0 0 208 36" fill="none" xmlns="http://www.w3.org/2000/svg">
<mask id="path-1-inside-1_782_4240" fill="white">
<path d="M0 0H208V36H0V0Z"/>
</mask>
<path d="M208 35H0V37H208V35Z" fill="black" fill-opacity="0.05" mask="url(#path-1-inside-1_782_4240)"/>
<path d="M1.16797 23V13.8403H6.84277V14.8687H2.31055V17.8076H6.60791V18.8232H2.31055V21.9717H6.84277V23H1.16797ZM8.77246 23V16.1572H9.87695V17.1982H9.97852C10.1309 16.8301 10.3636 16.5444 10.6768 16.3413C10.9941 16.1382 11.3771 16.0366 11.8257 16.0366C12.1346 16.0366 12.4118 16.0874 12.6572 16.189C12.9027 16.2905 13.1143 16.4323 13.292 16.6143C13.4697 16.792 13.6115 16.9993 13.7173 17.2363H13.8188C13.9416 16.9951 14.1066 16.7856 14.314 16.6079C14.5213 16.4259 14.7604 16.2863 15.0312 16.189C15.3063 16.0874 15.6004 16.0366 15.9136 16.0366C16.3791 16.0366 16.7726 16.1234 17.0942 16.2969C17.4201 16.4704 17.6676 16.7243 17.8369 17.0586C18.0062 17.3887 18.0908 17.7928 18.0908 18.271V23H16.9863V18.5249C16.9863 18.1864 16.9334 17.9071 16.8276 17.687C16.7261 17.4627 16.5695 17.2956 16.3579 17.1855C16.1463 17.0713 15.8797 17.0142 15.5581 17.0142C15.2407 17.0142 14.9635 17.0861 14.7266 17.23C14.4896 17.3739 14.3055 17.5664 14.1743 17.8076C14.0431 18.0446 13.9775 18.3091 13.9775 18.6011V23H12.873V18.3535C12.873 18.0827 12.8138 17.8478 12.6953 17.6489C12.5811 17.4458 12.416 17.2892 12.2002 17.1792C11.9886 17.0692 11.7389 17.0142 11.4512 17.0142C11.1549 17.0142 10.8862 17.0924 10.645 17.249C10.408 17.4056 10.2197 17.6172 10.0801 17.8838C9.94466 18.1462 9.87695 18.4382 9.87695 18.7598V23H8.77246ZM20.084 25.2852V16.1572H21.1885V17.249H21.29C21.4297 16.9951 21.6053 16.7793 21.8169 16.6016C22.0285 16.4196 22.2697 16.2799 22.5405 16.1826C22.8114 16.0853 23.1055 16.0366 23.4229 16.0366C24.0026 16.0366 24.5062 16.1847 24.9336 16.481C25.3652 16.7729 25.6995 17.1834 25.9365 17.7124C26.1735 18.2414 26.292 18.8613 26.292 19.5723V19.585C26.292 20.3001 26.1735 20.9222 25.9365 21.4512C25.6995 21.9801 25.3652 22.3906 24.9336 22.6826C24.5062 22.9746 24.0026 23.1206 23.4229 23.1206C23.1097 23.1206 22.8135 23.0719 22.5342 22.9746C22.2591 22.873 22.0137 22.7334 21.7979 22.5557C21.5863 22.3779 21.417 22.1663 21.29 21.9209H21.1885V25.2852H20.084ZM23.1689 22.1431C23.5879 22.1431 23.9455 22.0415 24.2417 21.8384C24.5379 21.631 24.7643 21.3369 24.9209 20.9561C25.0817 20.571 25.1621 20.1139 25.1621 19.585V19.5723C25.1621 19.0391 25.0817 18.582 24.9209 18.2012C24.7643 17.8203 24.5379 17.5283 24.2417 17.3252C23.9455 17.1178 23.5879 17.0142 23.1689 17.0142C22.7542 17.0142 22.3966 17.1178 22.0962 17.3252C21.7957 17.5326 21.5651 17.8267 21.4043 18.2075C21.2435 18.5884 21.1631 19.0433 21.1631 19.5723V19.585C21.1631 20.1097 21.2435 20.5646 21.4043 20.9497C21.5651 21.3306 21.7957 21.6247 22.0962 21.832C22.3966 22.0394 22.7542 22.1431 23.1689 22.1431ZM28.082 23V13.4404H29.1865V23H28.082ZM34.1187 23.1206C33.4712 23.1206 32.9105 22.9788 32.4365 22.6953C31.9668 22.4076 31.6029 21.9992 31.3447 21.4702C31.0908 20.9412 30.9639 20.3128 30.9639 19.585V19.5723C30.9639 18.8402 31.0908 18.2096 31.3447 17.6807C31.6029 17.1517 31.9668 16.7454 32.4365 16.4619C32.9105 16.1784 33.4712 16.0366 34.1187 16.0366C34.7703 16.0366 35.3311 16.1784 35.8008 16.4619C36.2705 16.7454 36.6323 17.1517 36.8862 17.6807C37.1444 18.2096 37.2734 18.8402 37.2734 19.5723V19.585C37.2734 20.3128 37.1444 20.9412 36.8862 21.4702C36.6323 21.9992 36.2705 22.4076 35.8008 22.6953C35.3311 22.9788 34.7703 23.1206 34.1187 23.1206ZM34.1187 22.1431C34.5503 22.1431 34.9163 22.0415 35.2168 21.8384C35.5173 21.6353 35.7458 21.3433 35.9023 20.9624C36.0632 20.5815 36.1436 20.1224 36.1436 19.585V19.5723C36.1436 19.0306 36.0632 18.5693 35.9023 18.1885C35.7458 17.8076 35.5173 17.5177 35.2168 17.3188C34.9163 17.1157 34.5503 17.0142 34.1187 17.0142C33.687 17.0142 33.321 17.1157 33.0205 17.3188C32.7201 17.5177 32.4894 17.8076 32.3286 18.1885C32.172 18.5693 32.0938 19.0306 32.0938 19.5723V19.585C32.0938 20.1224 32.172 20.5815 32.3286 20.9624C32.4894 21.3433 32.7201 21.6353 33.0205 21.8384C33.321 22.0415 33.687 22.1431 34.1187 22.1431ZM39.3174 25.3994C39.2454 25.3994 39.165 25.3952 39.0762 25.3867C38.9873 25.3825 38.9048 25.374 38.8286 25.3613V24.4536C38.8963 24.4663 38.9704 24.4748 39.0508 24.479C39.1312 24.4832 39.2095 24.4854 39.2856 24.4854C39.5988 24.4854 39.8548 24.4049 40.0537 24.2441C40.2568 24.0833 40.4198 23.8062 40.5425 23.4126L40.6694 23.0063L38.1367 16.1572H39.3174L41.4248 22.4795L40.9868 21.7876H41.5073L41.0693 22.4795L43.1704 16.1572H44.332L41.6597 23.4189C41.4735 23.931 41.2767 24.3309 41.0693 24.6187C40.862 24.9064 40.6187 25.1074 40.3394 25.2217C40.0643 25.3402 39.7236 25.3994 39.3174 25.3994ZM48.3311 23.1206C47.6794 23.1206 47.1187 22.9767 46.6489 22.689C46.1834 22.4012 45.8237 21.995 45.5698 21.4702C45.3201 20.9412 45.1953 20.3192 45.1953 19.604V19.5977C45.1953 18.891 45.3201 18.271 45.5698 17.7378C45.8237 17.2046 46.1813 16.7878 46.6426 16.4873C47.1038 16.1868 47.6434 16.0366 48.2612 16.0366C48.8833 16.0366 49.4165 16.1805 49.8608 16.4683C50.3094 16.756 50.6522 17.158 50.8892 17.6743C51.1304 18.1864 51.251 18.783 51.251 19.4644V19.896H45.7666V19.0137H50.686L50.1401 19.8198V19.3818C50.1401 18.8444 50.0597 18.4022 49.8989 18.0552C49.7381 17.7082 49.516 17.45 49.2324 17.2808C48.9489 17.1073 48.623 17.0205 48.2549 17.0205C47.8867 17.0205 47.5566 17.1115 47.2646 17.2935C46.9769 17.4712 46.7484 17.7357 46.5791 18.0869C46.4098 18.4382 46.3252 18.8698 46.3252 19.3818V19.8198C46.3252 20.3065 46.4077 20.7233 46.5728 21.0703C46.7378 21.4131 46.9727 21.6776 47.2773 21.8638C47.582 22.0457 47.9417 22.1367 48.3564 22.1367C48.6654 22.1367 48.9341 22.0944 49.1626 22.0098C49.3911 21.9251 49.5794 21.8172 49.7275 21.686C49.8757 21.5549 49.9793 21.4215 50.0386 21.2861L50.064 21.229H51.1685L51.1558 21.2798C51.0965 21.5125 50.9907 21.7389 50.8384 21.959C50.6903 22.1748 50.4977 22.3716 50.2607 22.5493C50.0238 22.7228 49.7424 22.8625 49.4165 22.9683C49.0949 23.0698 48.7331 23.1206 48.3311 23.1206ZM55.7578 23.1206C55.1061 23.1206 54.5454 22.9767 54.0757 22.689C53.6102 22.4012 53.2505 21.995 52.9966 21.4702C52.7469 20.9412 52.6221 20.3192 52.6221 19.604V19.5977C52.6221 18.891 52.7469 18.271 52.9966 17.7378C53.2505 17.2046 53.6081 16.7878 54.0693 16.4873C54.5306 16.1868 55.0701 16.0366 55.688 16.0366C56.3101 16.0366 56.8433 16.1805 57.2876 16.4683C57.7362 16.756 58.0789 17.158 58.3159 17.6743C58.5571 18.1864 58.6777 18.783 58.6777 19.4644V19.896H53.1934V19.0137H58.1128L57.5669 19.8198V19.3818C57.5669 18.8444 57.4865 18.4022 57.3257 18.0552C57.1649 17.7082 56.9427 17.45 56.6592 17.2808C56.3757 17.1073 56.0498 17.0205 55.6816 17.0205C55.3135 17.0205 54.9834 17.1115 54.6914 17.2935C54.4036 17.4712 54.1751 17.7357 54.0059 18.0869C53.8366 18.4382 53.752 18.8698 53.752 19.3818V19.8198C53.752 20.3065 53.8345 20.7233 53.9995 21.0703C54.1646 21.4131 54.3994 21.6776 54.7041 21.8638C55.0088 22.0457 55.3685 22.1367 55.7832 22.1367C56.0921 22.1367 56.3608 22.0944 56.5894 22.0098C56.8179 21.9251 57.0062 21.8172 57.1543 21.686C57.3024 21.5549 57.4061 21.4215 57.4653 21.2861L57.4907 21.229H58.5952L58.5825 21.2798C58.5233 21.5125 58.4175 21.7389 58.2651 21.959C58.117 22.1748 57.9245 22.3716 57.6875 22.5493C57.4505 22.7228 57.1691 22.8625 56.8433 22.9683C56.5216 23.0698 56.1598 23.1206 55.7578 23.1206ZM64.1875 23V13.8403H65.3301V23H64.1875ZM67.666 23V13.8403H70.8081C71.7137 13.8403 72.4881 14.0223 73.1313 14.3862C73.7788 14.7459 74.2739 15.2664 74.6167 15.9478C74.9595 16.6291 75.1309 17.45 75.1309 18.4106V18.4233C75.1309 19.384 74.9595 20.207 74.6167 20.8926C74.2739 21.5739 73.7809 22.0965 73.1377 22.4604C72.4945 22.8201 71.7179 23 70.8081 23H67.666ZM68.8086 21.9717H70.7319C71.4132 21.9717 71.9951 21.832 72.4775 21.5527C72.96 21.2734 73.3281 20.8693 73.582 20.3403C73.8359 19.8114 73.9629 19.1766 73.9629 18.436V18.4233C73.9629 17.6785 73.8338 17.0417 73.5757 16.5127C73.3218 15.9795 72.9536 15.5732 72.4712 15.2939C71.9888 15.0104 71.409 14.8687 70.7319 14.8687H68.8086V21.9717Z" fill="black" fill-opacity="0.85"/>
</svg>
