<svg width="208" height="36" viewBox="0 0 208 36" fill="none" xmlns="http://www.w3.org/2000/svg">
<mask id="path-1-inside-1_782_4249" fill="white">
<path d="M0 0H208V36H0V0Z"/>
</mask>
<path d="M208 35H0V37H208V35Z" fill="black" fill-opacity="0.05" mask="url(#path-1-inside-1_782_4249)"/>
<path d="M0.437988 23L3.81494 13.8403H4.69092V15.3193H4.3291L1.6377 23H0.437988ZM1.96777 20.3784L2.32324 19.4072H6.46191L6.81738 20.3784H1.96777ZM7.12207 23L4.43066 15.3193V13.8403H4.94482L8.32178 23H7.12207ZM11.9336 23.1206C11.3581 23.1206 10.8545 22.9746 10.4229 22.6826C9.99121 22.3906 9.6569 21.9801 9.41992 21.4512C9.18294 20.918 9.06445 20.2959 9.06445 19.585V19.5723C9.06445 18.8571 9.18294 18.235 9.41992 17.7061C9.6569 17.1771 9.9891 16.7666 10.4165 16.4746C10.8481 16.1826 11.3538 16.0366 11.9336 16.0366C12.2467 16.0366 12.5409 16.0874 12.8159 16.189C13.0952 16.2863 13.3428 16.4238 13.5586 16.6016C13.7744 16.7793 13.9437 16.9909 14.0664 17.2363H14.168V13.4404H15.2725V23H14.168V21.9082H14.0664C13.9268 22.1621 13.7511 22.38 13.5396 22.562C13.328 22.7397 13.0868 22.8773 12.8159 22.9746C12.5451 23.0719 12.251 23.1206 11.9336 23.1206ZM12.1875 22.1431C12.6022 22.1431 12.9598 22.0394 13.2603 21.832C13.5607 21.6247 13.7913 21.3306 13.9521 20.9497C14.113 20.5646 14.1934 20.1097 14.1934 19.585V19.5723C14.1934 19.0433 14.113 18.5884 13.9521 18.2075C13.7913 17.8267 13.5607 17.5326 13.2603 17.3252C12.9598 17.1178 12.6022 17.0142 12.1875 17.0142C11.7728 17.0142 11.4152 17.1178 11.1147 17.3252C10.8185 17.5283 10.59 17.8203 10.4292 18.2012C10.2726 18.582 10.1943 19.0391 10.1943 19.5723V19.585C10.1943 20.1139 10.2726 20.571 10.4292 20.9561C10.59 21.3369 10.8185 21.631 11.1147 21.8384C11.4152 22.0415 11.7728 22.1431 12.1875 22.1431ZM19.9189 23.1206C19.3434 23.1206 18.8398 22.9746 18.4082 22.6826C17.9766 22.3906 17.6423 21.9801 17.4053 21.4512C17.1683 20.918 17.0498 20.2959 17.0498 19.585V19.5723C17.0498 18.8571 17.1683 18.235 17.4053 17.7061C17.6423 17.1771 17.9744 16.7666 18.4019 16.4746C18.8335 16.1826 19.3392 16.0366 19.9189 16.0366C20.2321 16.0366 20.5262 16.0874 20.8013 16.189C21.0806 16.2863 21.3281 16.4238 21.5439 16.6016C21.7598 16.7793 21.929 16.9909 22.0518 17.2363H22.1533V13.4404H23.2578V23H22.1533V21.9082H22.0518C21.9121 22.1621 21.7365 22.38 21.5249 22.562C21.3133 22.7397 21.0721 22.8773 20.8013 22.9746C20.5304 23.0719 20.2363 23.1206 19.9189 23.1206ZM20.1729 22.1431C20.5876 22.1431 20.9451 22.0394 21.2456 21.832C21.5461 21.6247 21.7767 21.3306 21.9375 20.9497C22.0983 20.5646 22.1787 20.1097 22.1787 19.585V19.5723C22.1787 19.0433 22.0983 18.5884 21.9375 18.2075C21.7767 17.8267 21.5461 17.5326 21.2456 17.3252C20.9451 17.1178 20.5876 17.0142 20.1729 17.0142C19.7581 17.0142 19.4006 17.1178 19.1001 17.3252C18.8039 17.5283 18.5754 17.8203 18.4146 18.2012C18.258 18.582 18.1797 19.0391 18.1797 19.5723V19.585C18.1797 20.1139 18.258 20.571 18.4146 20.9561C18.5754 21.3369 18.8039 21.631 19.1001 21.8384C19.4006 22.0415 19.7581 22.1431 20.1729 22.1431ZM25.3779 23V16.1572H26.4824V17.1729H26.584C26.7152 16.8132 26.9373 16.5339 27.2505 16.335C27.5636 16.1361 27.9508 16.0366 28.4121 16.0366C28.5179 16.0366 28.6216 16.043 28.7231 16.0557C28.8289 16.0641 28.9093 16.0726 28.9644 16.0811V17.1538C28.8501 17.1326 28.738 17.1178 28.6279 17.1094C28.5221 17.0967 28.4079 17.0903 28.2852 17.0903C27.9339 17.0903 27.6229 17.1602 27.3521 17.2998C27.0812 17.4395 26.8675 17.6341 26.7109 17.8838C26.5586 18.1335 26.4824 18.4255 26.4824 18.7598V23H25.3779ZM32.9316 23.1206C32.2799 23.1206 31.7192 22.9767 31.2495 22.689C30.784 22.4012 30.4243 21.995 30.1704 21.4702C29.9207 20.9412 29.7959 20.3192 29.7959 19.604V19.5977C29.7959 18.891 29.9207 18.271 30.1704 17.7378C30.4243 17.2046 30.7819 16.7878 31.2432 16.4873C31.7044 16.1868 32.244 16.0366 32.8618 16.0366C33.4839 16.0366 34.0171 16.1805 34.4614 16.4683C34.91 16.756 35.2528 17.158 35.4897 17.6743C35.731 18.1864 35.8516 18.783 35.8516 19.4644V19.896H30.3672V19.0137H35.2866L34.7407 19.8198V19.3818C34.7407 18.8444 34.6603 18.4022 34.4995 18.0552C34.3387 17.7082 34.1165 17.45 33.833 17.2808C33.5495 17.1073 33.2236 17.0205 32.8555 17.0205C32.4873 17.0205 32.1572 17.1115 31.8652 17.2935C31.5775 17.4712 31.349 17.7357 31.1797 18.0869C31.0104 18.4382 30.9258 18.8698 30.9258 19.3818V19.8198C30.9258 20.3065 31.0083 20.7233 31.1733 21.0703C31.3384 21.4131 31.5732 21.6776 31.8779 21.8638C32.1826 22.0457 32.5423 22.1367 32.957 22.1367C33.266 22.1367 33.5347 22.0944 33.7632 22.0098C33.9917 21.9251 34.18 21.8172 34.3281 21.686C34.4762 21.5549 34.5799 21.4215 34.6392 21.2861L34.6646 21.229H35.769L35.7563 21.2798C35.6971 21.5125 35.5913 21.7389 35.439 21.959C35.2909 22.1748 35.0983 22.3716 34.8613 22.5493C34.6243 22.7228 34.3429 22.8625 34.0171 22.9683C33.6955 23.0698 33.3337 23.1206 32.9316 23.1206ZM39.9141 23.1206C39.4062 23.1206 38.9577 23.0444 38.5684 22.8921C38.179 22.7355 37.8659 22.5176 37.6289 22.2383C37.3962 21.959 37.2586 21.631 37.2163 21.2544H38.3462C38.4393 21.5379 38.6213 21.7664 38.8921 21.9399C39.1629 22.1134 39.5163 22.2002 39.9521 22.2002C40.2611 22.2002 40.5319 22.1558 40.7646 22.0669C41.0016 21.9738 41.1878 21.849 41.3232 21.6924C41.4587 21.5316 41.5264 21.3475 41.5264 21.1401V21.1274C41.5264 20.8947 41.4333 20.6979 41.2471 20.5371C41.0609 20.3721 40.7562 20.2388 40.333 20.1372L39.2729 19.8833C38.8455 19.7817 38.4943 19.6506 38.2192 19.4897C37.9442 19.3247 37.741 19.1237 37.6099 18.8867C37.4787 18.6455 37.4131 18.362 37.4131 18.0361V18.0298C37.4131 17.6489 37.5231 17.3083 37.7432 17.0078C37.9674 16.7074 38.2721 16.4704 38.6572 16.2969C39.0423 16.1234 39.4761 16.0366 39.9585 16.0366C40.4367 16.0366 40.8599 16.1128 41.228 16.2651C41.6004 16.4132 41.8988 16.6248 42.123 16.8999C42.3516 17.175 42.4912 17.4987 42.542 17.8711H41.4565C41.3846 17.6003 41.2196 17.3802 40.9614 17.2109C40.7033 17.0417 40.3669 16.957 39.9521 16.957C39.6813 16.957 39.4401 17.0015 39.2285 17.0903C39.0169 17.175 38.8498 17.2935 38.7271 17.4458C38.6043 17.5981 38.543 17.7759 38.543 17.979V17.9917C38.543 18.144 38.5832 18.2795 38.6636 18.3979C38.744 18.5164 38.8688 18.6201 39.0381 18.709C39.2074 18.7979 39.4253 18.8761 39.6919 18.9438L40.7456 19.1978C41.3888 19.3543 41.867 19.5786 42.1802 19.8706C42.4976 20.1626 42.6562 20.554 42.6562 21.0449V21.0576C42.6562 21.4639 42.5356 21.8236 42.2944 22.1367C42.0532 22.4456 41.7253 22.6868 41.3105 22.8604C40.9001 23.0339 40.4346 23.1206 39.9141 23.1206ZM46.5918 23.1206C46.084 23.1206 45.6354 23.0444 45.2461 22.8921C44.8568 22.7355 44.5436 22.5176 44.3066 22.2383C44.0739 21.959 43.9364 21.631 43.894 21.2544H45.0239C45.117 21.5379 45.299 21.7664 45.5698 21.9399C45.8407 22.1134 46.194 22.2002 46.6299 22.2002C46.9388 22.2002 47.2096 22.1558 47.4424 22.0669C47.6794 21.9738 47.8656 21.849 48.001 21.6924C48.1364 21.5316 48.2041 21.3475 48.2041 21.1401V21.1274C48.2041 20.8947 48.111 20.6979 47.9248 20.5371C47.7386 20.3721 47.4339 20.2388 47.0107 20.1372L45.9507 19.8833C45.5233 19.7817 45.172 19.6506 44.897 19.4897C44.6219 19.3247 44.4188 19.1237 44.2876 18.8867C44.1564 18.6455 44.0908 18.362 44.0908 18.0361V18.0298C44.0908 17.6489 44.2008 17.3083 44.4209 17.0078C44.6452 16.7074 44.9499 16.4704 45.335 16.2969C45.7201 16.1234 46.1538 16.0366 46.6362 16.0366C47.1144 16.0366 47.5376 16.1128 47.9058 16.2651C48.2782 16.4132 48.5765 16.6248 48.8008 16.8999C49.0293 17.175 49.1689 17.4987 49.2197 17.8711H48.1343C48.0623 17.6003 47.8973 17.3802 47.6392 17.2109C47.381 17.0417 47.0446 16.957 46.6299 16.957C46.359 16.957 46.1178 17.0015 45.9062 17.0903C45.6947 17.175 45.5275 17.2935 45.4048 17.4458C45.2821 17.5981 45.2207 17.7759 45.2207 17.979V17.9917C45.2207 18.144 45.2609 18.2795 45.3413 18.3979C45.4217 18.5164 45.5465 18.6201 45.7158 18.709C45.8851 18.7979 46.103 18.8761 46.3696 18.9438L47.4233 19.1978C48.0666 19.3543 48.5448 19.5786 48.8579 19.8706C49.1753 20.1626 49.334 20.554 49.334 21.0449V21.0576C49.334 21.4639 49.2134 21.8236 48.9722 22.1367C48.731 22.4456 48.403 22.6868 47.9883 22.8604C47.5778 23.0339 47.1123 23.1206 46.5918 23.1206Z" fill="black" fill-opacity="0.85"/>
</svg>
