<svg width="228" height="28" viewBox="0 0 228 28" fill="none" xmlns="http://www.w3.org/2000/svg">
<rect width="228" height="28" rx="5" fill="#03A200"/>
<rect width="228" height="28" rx="5" fill="url(#paint0_linear_761_4588)" fill-opacity="0.17"/>
<path d="M109.715 19.2158C108.839 19.2158 108.088 19.0212 107.462 18.6318C106.836 18.2383 106.353 17.6818 106.015 16.9624C105.68 16.243 105.513 15.3966 105.513 14.4233V14.4106C105.513 13.4289 105.682 12.5804 106.021 11.8652C106.364 11.1501 106.848 10.5978 107.475 10.2085C108.105 9.81917 108.852 9.62451 109.715 9.62451C110.583 9.62451 111.33 9.81917 111.956 10.2085C112.587 10.5978 113.071 11.1522 113.41 11.8716C113.748 12.5868 113.917 13.4331 113.917 14.4106V14.4233C113.917 15.3966 113.748 16.243 113.41 16.9624C113.075 17.6776 112.593 18.2319 111.962 18.6255C111.336 19.019 110.587 19.2158 109.715 19.2158ZM109.715 18.1621C110.342 18.1621 110.881 18.0076 111.334 17.6987C111.787 17.3898 112.136 16.9561 112.381 16.3975C112.627 15.8346 112.75 15.1766 112.75 14.4233V14.4106C112.75 13.6489 112.627 12.9888 112.381 12.4302C112.136 11.8716 111.787 11.4399 111.334 11.1353C110.881 10.8306 110.342 10.6782 109.715 10.6782C109.093 10.6782 108.556 10.8306 108.103 11.1353C107.65 11.4399 107.299 11.8716 107.049 12.4302C106.804 12.9888 106.681 13.6489 106.681 14.4106V14.4233C106.681 15.1766 106.802 15.8346 107.043 16.3975C107.284 16.9561 107.631 17.3898 108.084 17.6987C108.537 18.0076 109.081 18.1621 109.715 18.1621ZM116.914 15.9404L116.85 14.29H117.142L121.154 9.84033H122.588L118.799 13.9346L118.266 14.4487L116.914 15.9404ZM115.898 19V9.84033H117.041V19H115.898ZM121.446 19L118.024 14.436L118.812 13.6426L122.925 19H121.446Z" fill="white"/>
<defs>
<linearGradient id="paint0_linear_761_4588" x1="114" y1="0" x2="114" y2="28" gradientUnits="userSpaceOnUse">
<stop stop-color="white"/>
<stop offset="1" stop-color="white" stop-opacity="0"/>
</linearGradient>
</defs>
</svg>
