<svg width="110" height="28" viewBox="0 0 110 28" fill="none" xmlns="http://www.w3.org/2000/svg">
<rect width="110" height="28" rx="5" fill="#03A200"/>
<rect width="110" height="28" rx="5" fill="url(#paint0_linear_778_3824)" fill-opacity="0.17"/>
<path d="M40.4956 19V9.84033H43.9932C44.5814 9.84033 45.0934 9.95459 45.5293 10.1831C45.9694 10.4074 46.3101 10.7227 46.5513 11.1289C46.7925 11.5352 46.9131 12.0133 46.9131 12.5635V12.5762C46.9131 13.2109 46.7502 13.7611 46.4243 14.2266C46.0985 14.6921 45.6478 15.0158 45.0723 15.1978L47.1924 19H45.853L43.8916 15.3755C43.8831 15.3755 43.8726 15.3755 43.8599 15.3755C43.8472 15.3755 43.8366 15.3755 43.8281 15.3755H41.6382V19H40.4956ZM41.6382 14.3599H43.8916C44.4798 14.3599 44.9326 14.2096 45.25 13.9092C45.5716 13.6045 45.7324 13.1729 45.7324 12.6143V12.6016C45.7324 12.0557 45.5653 11.6283 45.231 11.3193C44.8966 11.0104 44.4333 10.856 43.8408 10.856H41.6382V14.3599ZM51.4517 19.1206C50.8 19.1206 50.2393 18.9767 49.7695 18.689C49.304 18.4012 48.9443 17.995 48.6904 17.4702C48.4408 16.9412 48.3159 16.3192 48.3159 15.604V15.5977C48.3159 14.891 48.4408 14.271 48.6904 13.7378C48.9443 13.2046 49.3019 12.7878 49.7632 12.4873C50.2244 12.1868 50.764 12.0366 51.3818 12.0366C52.0039 12.0366 52.5371 12.1805 52.9814 12.4683C53.43 12.756 53.7728 13.158 54.0098 13.6743C54.251 14.1864 54.3716 14.783 54.3716 15.4644V15.896H48.8872V15.0137H53.8066L53.2607 15.8198V15.3818C53.2607 14.8444 53.1803 14.4022 53.0195 14.0552C52.8587 13.7082 52.6366 13.45 52.353 13.2808C52.0695 13.1073 51.7437 13.0205 51.3755 13.0205C51.0073 13.0205 50.6772 13.1115 50.3853 13.2935C50.0975 13.4712 49.869 13.7357 49.6997 14.0869C49.5304 14.4382 49.4458 14.8698 49.4458 15.3818V15.8198C49.4458 16.3065 49.5283 16.7233 49.6934 17.0703C49.8584 17.4131 50.0933 17.6776 50.3979 17.8638C50.7026 18.0457 51.0623 18.1367 51.4771 18.1367C51.786 18.1367 52.0547 18.0944 52.2832 18.0098C52.5117 17.9251 52.7 17.8172 52.8481 17.686C52.9963 17.5549 53.0999 17.4215 53.1592 17.2861L53.1846 17.229H54.2891L54.2764 17.2798C54.2171 17.5125 54.1113 17.7389 53.959 17.959C53.8109 18.1748 53.6183 18.3716 53.3813 18.5493C53.1444 18.7228 52.863 18.8625 52.5371 18.9683C52.2155 19.0698 51.8537 19.1206 51.4517 19.1206ZM56.0854 21.2852V12.1572H57.1899V13.249H57.2915C57.4312 12.9951 57.6068 12.7793 57.8184 12.6016C58.0299 12.4196 58.2712 12.2799 58.542 12.1826C58.8128 12.0853 59.1069 12.0366 59.4243 12.0366C60.0041 12.0366 60.5076 12.1847 60.9351 12.481C61.3667 12.7729 61.701 13.1834 61.938 13.7124C62.175 14.2414 62.2935 14.8613 62.2935 15.5723V15.585C62.2935 16.3001 62.175 16.9222 61.938 17.4512C61.701 17.9801 61.3667 18.3906 60.9351 18.6826C60.5076 18.9746 60.0041 19.1206 59.4243 19.1206C59.1112 19.1206 58.8149 19.0719 58.5356 18.9746C58.2606 18.873 58.0151 18.7334 57.7993 18.5557C57.5877 18.3779 57.4185 18.1663 57.2915 17.9209H57.1899V21.2852H56.0854ZM59.1704 18.1431C59.5894 18.1431 59.9469 18.0415 60.2432 17.8384C60.5394 17.631 60.7658 17.3369 60.9224 16.9561C61.0832 16.571 61.1636 16.1139 61.1636 15.585V15.5723C61.1636 15.0391 61.0832 14.582 60.9224 14.2012C60.7658 13.8203 60.5394 13.5283 60.2432 13.3252C59.9469 13.1178 59.5894 13.0142 59.1704 13.0142C58.7557 13.0142 58.3981 13.1178 58.0977 13.3252C57.7972 13.5326 57.5666 13.8267 57.4058 14.2075C57.245 14.5884 57.1646 15.0433 57.1646 15.5723V15.585C57.1646 16.1097 57.245 16.5646 57.4058 16.9497C57.5666 17.3306 57.7972 17.6247 58.0977 17.832C58.3981 18.0394 58.7557 18.1431 59.1704 18.1431ZM66.832 19.1206C66.1846 19.1206 65.6239 18.9788 65.1499 18.6953C64.6802 18.4076 64.3162 17.9992 64.0581 17.4702C63.8042 16.9412 63.6772 16.3128 63.6772 15.585V15.5723C63.6772 14.8402 63.8042 14.2096 64.0581 13.6807C64.3162 13.1517 64.6802 12.7454 65.1499 12.4619C65.6239 12.1784 66.1846 12.0366 66.832 12.0366C67.4837 12.0366 68.0444 12.1784 68.5142 12.4619C68.9839 12.7454 69.3457 13.1517 69.5996 13.6807C69.8577 14.2096 69.9868 14.8402 69.9868 15.5723V15.585C69.9868 16.3128 69.8577 16.9412 69.5996 17.4702C69.3457 17.9992 68.9839 18.4076 68.5142 18.6953C68.0444 18.9788 67.4837 19.1206 66.832 19.1206ZM66.832 18.1431C67.2637 18.1431 67.6297 18.0415 67.9302 17.8384C68.2306 17.6353 68.4591 17.3433 68.6157 16.9624C68.7765 16.5815 68.8569 16.1224 68.8569 15.585V15.5723C68.8569 15.0306 68.7765 14.5693 68.6157 14.1885C68.4591 13.8076 68.2306 13.5177 67.9302 13.3188C67.6297 13.1157 67.2637 13.0142 66.832 13.0142C66.4004 13.0142 66.0343 13.1157 65.7339 13.3188C65.4334 13.5177 65.2028 13.8076 65.042 14.1885C64.8854 14.5693 64.8071 15.0306 64.8071 15.5723V15.585C64.8071 16.1224 64.8854 16.5815 65.042 16.9624C65.2028 17.3433 65.4334 17.6353 65.7339 17.8384C66.0343 18.0415 66.4004 18.1431 66.832 18.1431Z" fill="white"/>
<defs>
<linearGradient id="paint0_linear_778_3824" x1="55" y1="0" x2="55" y2="28" gradientUnits="userSpaceOnUse">
<stop stop-color="white"/>
<stop offset="1" stop-color="white" stop-opacity="0"/>
</linearGradient>
</defs>
</svg>
