<svg width="208" height="36" viewBox="0 0 208 36" fill="none" xmlns="http://www.w3.org/2000/svg">
<mask id="path-1-inside-1_782_4246" fill="white">
<path d="M0 0H208V36H0V0Z"/>
</mask>
<path d="M208 35H0V37H208V35Z" fill="black" fill-opacity="0.05" mask="url(#path-1-inside-1_782_4246)"/>
<path d="M1.16797 23V13.8403H6.84277V14.8687H2.31055V17.8076H6.60791V18.8232H2.31055V21.9717H6.84277V23H1.16797ZM8.77246 23V16.1572H9.87695V17.1982H9.97852C10.1309 16.8301 10.3636 16.5444 10.6768 16.3413C10.9941 16.1382 11.3771 16.0366 11.8257 16.0366C12.1346 16.0366 12.4118 16.0874 12.6572 16.189C12.9027 16.2905 13.1143 16.4323 13.292 16.6143C13.4697 16.792 13.6115 16.9993 13.7173 17.2363H13.8188C13.9416 16.9951 14.1066 16.7856 14.314 16.6079C14.5213 16.4259 14.7604 16.2863 15.0312 16.189C15.3063 16.0874 15.6004 16.0366 15.9136 16.0366C16.3791 16.0366 16.7726 16.1234 17.0942 16.2969C17.4201 16.4704 17.6676 16.7243 17.8369 17.0586C18.0062 17.3887 18.0908 17.7928 18.0908 18.271V23H16.9863V18.5249C16.9863 18.1864 16.9334 17.9071 16.8276 17.687C16.7261 17.4627 16.5695 17.2956 16.3579 17.1855C16.1463 17.0713 15.8797 17.0142 15.5581 17.0142C15.2407 17.0142 14.9635 17.0861 14.7266 17.23C14.4896 17.3739 14.3055 17.5664 14.1743 17.8076C14.0431 18.0446 13.9775 18.3091 13.9775 18.6011V23H12.873V18.3535C12.873 18.0827 12.8138 17.8478 12.6953 17.6489C12.5811 17.4458 12.416 17.2892 12.2002 17.1792C11.9886 17.0692 11.7389 17.0142 11.4512 17.0142C11.1549 17.0142 10.8862 17.0924 10.645 17.249C10.408 17.4056 10.2197 17.6172 10.0801 17.8838C9.94466 18.1462 9.87695 18.4382 9.87695 18.7598V23H8.77246ZM21.9629 23.1206C21.5312 23.1206 21.1419 23.0381 20.7949 22.873C20.4521 22.708 20.1792 22.4731 19.9761 22.1685C19.7772 21.8638 19.6777 21.5041 19.6777 21.0894V21.0767C19.6777 20.6704 19.7751 20.3234 19.9697 20.0356C20.1644 19.7437 20.4479 19.5151 20.8203 19.3501C21.1927 19.1851 21.6434 19.0877 22.1724 19.0581L24.686 18.9058V19.7881L22.3057 19.9404C21.7852 19.9701 21.4043 20.078 21.1631 20.2642C20.9261 20.4504 20.8076 20.7127 20.8076 21.0513V21.064C20.8076 21.411 20.9388 21.6818 21.2012 21.8765C21.4635 22.0669 21.7936 22.1621 22.1914 22.1621C22.568 22.1621 22.9023 22.0881 23.1943 21.9399C23.4863 21.7876 23.7148 21.5824 23.8799 21.3242C24.0492 21.0661 24.1338 20.7741 24.1338 20.4482V18.3154C24.1338 17.8923 24.0047 17.5706 23.7466 17.3506C23.4927 17.1263 23.1097 17.0142 22.5977 17.0142C22.1872 17.0142 21.8507 17.0882 21.5884 17.2363C21.326 17.3802 21.1504 17.5854 21.0615 17.8521L21.0552 17.8711H19.9507L19.957 17.833C20.0163 17.4733 20.1644 17.1602 20.4014 16.8936C20.6426 16.6227 20.9536 16.4132 21.3345 16.2651C21.7153 16.1128 22.1491 16.0366 22.6357 16.0366C23.1943 16.0366 23.6662 16.1276 24.0513 16.3096C24.4406 16.4915 24.7347 16.7539 24.9336 17.0967C25.1367 17.4352 25.2383 17.8415 25.2383 18.3154V23H24.1338V21.9907H24.0322C23.8883 22.2319 23.7127 22.4372 23.5054 22.6064C23.3022 22.7757 23.0716 22.9048 22.8135 22.9937C22.5553 23.0783 22.2718 23.1206 21.9629 23.1206ZM27.2822 23V16.1572H28.3867V23H27.2822ZM27.8408 14.8369C27.6335 14.8369 27.4536 14.7629 27.3013 14.6147C27.1532 14.4624 27.0791 14.2826 27.0791 14.0752C27.0791 13.8636 27.1532 13.6838 27.3013 13.5356C27.4536 13.3875 27.6335 13.3135 27.8408 13.3135C28.0524 13.3135 28.2323 13.3875 28.3804 13.5356C28.5285 13.6838 28.6025 13.8636 28.6025 14.0752C28.6025 14.2826 28.5285 14.4624 28.3804 14.6147C28.2323 14.7629 28.0524 14.8369 27.8408 14.8369ZM30.5322 23V13.4404H31.6367V23H30.5322Z" fill="black" fill-opacity="0.85"/>
</svg>
