<svg width="160" height="24" viewBox="0 0 160 24" fill="none" xmlns="http://www.w3.org/2000/svg">
<path d="M0.691406 23V22.3408L2.94727 22.1943V2.90234L0.691406 2.75586V2.09668H8.95312V2.75586L6.69727 2.90234V22.0479C8.28906 22.1553 9.37793 22.209 9.96387 22.209C10.501 22.209 10.9697 22.1943 11.3701 22.165C11.7803 22.1357 12.1514 22.0723 12.4834 21.9746C12.8252 21.877 13.1084 21.7744 13.333 21.667C13.5674 21.5596 13.7871 21.3936 13.9922 21.1689C14.1973 20.9346 14.3633 20.71 14.4902 20.4951C14.6172 20.2705 14.7832 19.8408 14.9883 19.2061C15.1934 18.5615 15.374 17.834 15.5303 17.0234H16.0283V23H0.691406ZM17.5371 9.46484V8.86426L20.5986 8.54199L22.6641 8L22.9277 8.4248V22.2529L24.4365 22.3994V23H17.8301V22.3994L19.3389 22.2529V9.46484H17.5371ZM19.1338 2.7998C19.1338 2.52637 19.1826 2.27246 19.2803 2.03809C19.3877 1.80371 19.5293 1.59863 19.7051 1.42285C19.8809 1.24707 20.0859 1.11035 20.3203 1.0127C20.5547 0.915039 20.8037 0.866211 21.0674 0.866211C21.3311 0.866211 21.5801 0.919922 21.8145 1.02734C22.0488 1.125 22.2539 1.26172 22.4297 1.4375C22.6152 1.61328 22.7568 1.81836 22.8545 2.05273C22.9619 2.28711 23.0156 2.53613 23.0156 2.7998C23.0156 3.06348 22.9619 3.3125 22.8545 3.54688C22.7568 3.78125 22.6201 3.99121 22.4443 4.17676C22.2686 4.35254 22.0635 4.49414 21.8291 4.60156C21.5947 4.69922 21.3408 4.74805 21.0674 4.74805C20.7939 4.74805 20.54 4.69922 20.3057 4.60156C20.0713 4.49414 19.8662 4.35254 19.6904 4.17676C19.5146 4.00098 19.3779 3.7959 19.2803 3.56152C19.1826 3.32715 19.1338 3.07324 19.1338 2.7998ZM25.3594 8.92285V8.29297H27.8496V5.05566L29.1094 4.92383L31.1748 4.38184L31.4531 4.80664V8.29297H34.6611V8.92285L31.4531 9.05469V19.3672C31.4531 19.9629 31.5215 20.4609 31.6582 20.8613C31.8047 21.252 31.9902 21.5205 32.2148 21.667C32.4492 21.8135 32.6348 21.9062 32.7715 21.9453C32.918 21.9844 33.0693 22.0039 33.2256 22.0039C33.5283 22.0039 33.8164 21.9404 34.0898 21.8135C34.373 21.6768 34.627 21.4814 34.8516 21.2275C35.0859 20.9736 35.2764 20.7441 35.4229 20.5391C35.5693 20.3242 35.7354 20.0654 35.9209 19.7627L36.5508 20.1436C36.0332 21.0029 35.584 21.6279 35.2031 22.0186C34.2754 22.9658 33.2061 23.4395 31.9951 23.4395C31.5361 23.4395 31.126 23.4053 30.7646 23.3369C30.4131 23.2783 30.0469 23.1465 29.666 22.9414C29.2852 22.7363 28.9678 22.4629 28.7139 22.1211C28.46 21.7695 28.25 21.291 28.084 20.6855C27.9277 20.0703 27.8496 19.3525 27.8496 18.5322V9.05469L25.3594 8.92285ZM36.4043 8.92285V8.29297H38.8945V5.05566L40.1543 4.92383L42.2197 4.38184L42.498 4.80664V8.29297H45.7061V8.92285L42.498 9.05469V19.3672C42.498 19.9629 42.5664 20.4609 42.7031 20.8613C42.8496 21.252 43.0352 21.5205 43.2598 21.667C43.4941 21.8135 43.6797 21.9062 43.8164 21.9453C43.9629 21.9844 44.1143 22.0039 44.2705 22.0039C44.5732 22.0039 44.8613 21.9404 45.1348 21.8135C45.418 21.6768 45.6719 21.4814 45.8965 21.2275C46.1309 20.9736 46.3213 20.7441 46.4678 20.5391C46.6143 20.3242 46.7803 20.0654 46.9658 19.7627L47.5957 20.1436C47.0781 21.0029 46.6289 21.6279 46.248 22.0186C45.3203 22.9658 44.251 23.4395 43.04 23.4395C42.5811 23.4395 42.1709 23.4053 41.8096 23.3369C41.458 23.2783 41.0918 23.1465 40.7109 22.9414C40.3301 22.7363 40.0127 22.4629 39.7588 22.1211C39.5049 21.7695 39.2949 21.291 39.1289 20.6855C38.9727 20.0703 38.8945 19.3525 38.8945 18.5322V9.05469L36.4043 8.92285ZM47.9766 3.25391V2.65332L51.0381 2.33105L53.1035 1.78906L53.3672 2.21387V22.2529L54.876 22.3994V23H48.2695V22.3994L49.7783 22.2529V3.25391H47.9766ZM56.9414 15.6465C56.9414 14.8848 57.0146 14.1426 57.1611 13.4199C57.3076 12.6875 57.5469 11.9844 57.8789 11.3105C58.2109 10.6367 58.6162 10.0459 59.0947 9.53809C59.5732 9.03027 60.1641 8.625 60.8672 8.32227C61.5801 8.00977 62.3662 7.85352 63.2256 7.85352C64.0361 7.85352 64.7637 7.9707 65.4082 8.20508C66.0527 8.42969 66.5898 8.74707 67.0195 9.15723C67.4492 9.56738 67.8057 10.0703 68.0889 10.666C68.3721 11.252 68.5723 11.8916 68.6895 12.585C68.8164 13.2686 68.8799 14.0205 68.8799 14.8408L68.4844 15.207H60.6914V16.1006C60.6914 20.3584 61.9023 22.4873 64.3242 22.4873C66.043 22.4873 67.415 21.6279 68.4404 19.9092L69.0117 20.2607C67.752 22.3799 65.96 23.4395 63.6357 23.4395C61.3896 23.4395 59.71 22.7461 58.5967 21.3594C57.4932 19.9727 56.9414 18.0684 56.9414 15.6465ZM60.6914 14.5479L65.4229 14.3574C65.4521 13.8594 65.4668 13.3809 65.4668 12.9219C65.4668 11.5059 65.2959 10.417 64.9541 9.65527C64.6221 8.89355 64.0654 8.5127 63.2842 8.5127C62.8154 8.5127 62.4102 8.66895 62.0684 8.98145C61.7363 9.28418 61.4775 9.72363 61.292 10.2998C61.1064 10.876 60.9648 11.5059 60.8672 12.1895C60.7793 12.8633 60.7207 13.6494 60.6914 14.5479ZM85.1689 12.9805C85.1689 11.9551 85.2812 10.9248 85.5059 9.88965C85.7402 8.84473 86.1113 7.82422 86.6191 6.82812C87.1367 5.82227 87.7568 4.93359 88.4795 4.16211C89.2119 3.39062 90.125 2.77051 91.2188 2.30176C92.3125 1.82324 93.5137 1.58398 94.8223 1.58398C96.7949 1.58398 98.4258 2.00391 99.7148 2.84375C101.014 3.68359 101.663 4.6748 101.663 5.81738C101.663 6.43262 101.468 6.95508 101.077 7.38477C100.687 7.81445 100.149 8.0293 99.4658 8.0293C98.8311 8.0293 98.3135 7.83398 97.9131 7.44336C97.5127 7.04297 97.3125 6.54004 97.3125 5.93457C97.3125 5.27051 97.5225 4.75293 97.9424 4.38184C98.3623 4.00098 98.8994 3.81055 99.5537 3.81055V3.75195C99.3389 3.49805 98.8799 3.21973 98.1768 2.91699C97.4834 2.61426 96.6582 2.46289 95.7012 2.46289C94.3242 2.46289 93.1328 2.89258 92.127 3.75195C91.1211 4.60156 90.3594 5.77832 89.8418 7.28223C89.3242 8.78613 89.0654 10.5244 89.0654 12.4971C89.0654 13.1709 89.085 13.8203 89.124 14.4453C89.1729 15.0703 89.2607 15.7295 89.3877 16.4229C89.5146 17.1162 89.6758 17.7559 89.8711 18.3418C90.0762 18.9277 90.3447 19.4941 90.6768 20.041C91.0088 20.5781 91.3945 21.0371 91.834 21.418C92.2734 21.7988 92.8057 22.1016 93.4307 22.3262C94.0557 22.5508 94.7441 22.6631 95.4961 22.6631C96.3457 22.6631 97.2539 22.5166 98.2207 22.2236V14.2402L96.0527 14.0791V13.4199H103.729V14.0791L101.575 14.2402V22.0039C100.755 22.4824 99.7246 22.8535 98.4844 23.1172C97.2441 23.3809 95.9795 23.5127 94.6904 23.5127C88.3428 23.5127 85.1689 20.002 85.1689 12.9805ZM105.193 9.46484V8.86426L108.255 8.54199L110.32 8L110.525 8.4248V10.9443H110.584C110.779 10.5537 111.019 10.1729 111.302 9.80176C111.585 9.43066 111.893 9.10352 112.225 8.82031C112.566 8.52734 112.928 8.29297 113.309 8.11719C113.689 7.94141 114.075 7.85352 114.466 7.85352C115.228 7.85352 115.813 8.05859 116.224 8.46875C116.644 8.86914 116.854 9.40625 116.854 10.0801C116.854 10.3633 116.81 10.627 116.722 10.8711C116.634 11.1055 116.507 11.3105 116.341 11.4863C116.185 11.6621 115.989 11.8037 115.755 11.9111C115.53 12.0088 115.281 12.0576 115.008 12.0576C114.715 12.0576 114.451 12.0088 114.217 11.9111C113.982 11.8135 113.782 11.6816 113.616 11.5156C113.46 11.3496 113.338 11.1592 113.25 10.9443C113.162 10.7197 113.118 10.4805 113.118 10.2266C113.118 9.70898 113.226 9.32812 113.44 9.08398V8.99609C113.089 9.07422 112.742 9.25977 112.4 9.55273C112.068 9.8457 111.766 10.2461 111.492 10.7539C111.219 11.252 110.999 11.8574 110.833 12.5703C110.667 13.2734 110.584 14.0693 110.584 14.958V22.2529L112.093 22.3994V23H105.486V22.3994L106.995 22.2529V9.46484H105.193ZM118.099 15.7344C118.099 14.2598 118.382 12.9219 118.948 11.7207C119.524 10.5195 120.325 9.57715 121.351 8.89355C122.386 8.2002 123.553 7.85352 124.852 7.85352C125.926 7.85352 126.893 8.07812 127.752 8.52734C128.621 8.9668 129.314 9.55762 129.832 10.2998C130.359 11.042 130.76 11.8721 131.033 12.79C131.316 13.6982 131.458 14.6504 131.458 15.6465C131.458 17.082 131.185 18.3906 130.638 19.5723C130.091 20.7539 129.305 21.6963 128.279 22.3994C127.264 23.0928 126.111 23.4395 124.822 23.4395C123.68 23.4395 122.669 23.2393 121.79 22.8389C120.921 22.4287 120.218 21.8672 119.681 21.1543C119.153 20.4316 118.758 19.6162 118.494 18.708C118.23 17.7998 118.099 16.8086 118.099 15.7344ZM121.849 15.5586C121.849 16.6426 121.902 17.6143 122.01 18.4736C122.117 19.3232 122.283 20.0801 122.508 20.7441C122.732 21.3984 123.035 21.9014 123.416 22.2529C123.797 22.6045 124.246 22.7803 124.764 22.7803C126.727 22.7803 127.708 20.4316 127.708 15.7344C127.708 14.5527 127.659 13.5371 127.562 12.6875C127.474 11.8379 127.317 11.0908 127.093 10.4463C126.878 9.79199 126.575 9.30859 126.185 8.99609C125.794 8.67383 125.32 8.5127 124.764 8.5127C124.246 8.5127 123.797 8.68848 123.416 9.04004C123.035 9.3916 122.732 9.88965 122.508 10.5342C122.283 11.1787 122.117 11.916 122.01 12.7461C121.902 13.5762 121.849 14.5137 121.849 15.5586ZM133.802 15.7344C133.802 14.2598 134.085 12.9219 134.651 11.7207C135.228 10.5195 136.028 9.57715 137.054 8.89355C138.089 8.2002 139.256 7.85352 140.555 7.85352C141.629 7.85352 142.596 8.07812 143.455 8.52734C144.324 8.9668 145.018 9.55762 145.535 10.2998C146.062 11.042 146.463 11.8721 146.736 12.79C147.02 13.6982 147.161 14.6504 147.161 15.6465C147.161 17.082 146.888 18.3906 146.341 19.5723C145.794 20.7539 145.008 21.6963 143.982 22.3994C142.967 23.0928 141.814 23.4395 140.525 23.4395C139.383 23.4395 138.372 23.2393 137.493 22.8389C136.624 22.4287 135.921 21.8672 135.384 21.1543C134.856 20.4316 134.461 19.6162 134.197 18.708C133.934 17.7998 133.802 16.8086 133.802 15.7344ZM137.552 15.5586C137.552 16.6426 137.605 17.6143 137.713 18.4736C137.82 19.3232 137.986 20.0801 138.211 20.7441C138.436 21.3984 138.738 21.9014 139.119 22.2529C139.5 22.6045 139.949 22.7803 140.467 22.7803C142.43 22.7803 143.411 20.4316 143.411 15.7344C143.411 14.5527 143.362 13.5371 143.265 12.6875C143.177 11.8379 143.021 11.0908 142.796 10.4463C142.581 9.79199 142.278 9.30859 141.888 8.99609C141.497 8.67383 141.023 8.5127 140.467 8.5127C139.949 8.5127 139.5 8.68848 139.119 9.04004C138.738 9.3916 138.436 9.88965 138.211 10.5342C137.986 11.1787 137.82 11.916 137.713 12.7461C137.605 13.5762 137.552 14.5137 137.552 15.5586ZM148.406 8.92285V8.29297H150.896V5.05566L152.156 4.92383L154.222 4.38184L154.5 4.80664V8.29297H157.708V8.92285L154.5 9.05469V19.3672C154.5 19.9629 154.568 20.4609 154.705 20.8613C154.852 21.252 155.037 21.5205 155.262 21.667C155.496 21.8135 155.682 21.9062 155.818 21.9453C155.965 21.9844 156.116 22.0039 156.272 22.0039C156.575 22.0039 156.863 21.9404 157.137 21.8135C157.42 21.6768 157.674 21.4814 157.898 21.2275C158.133 20.9736 158.323 20.7441 158.47 20.5391C158.616 20.3242 158.782 20.0654 158.968 19.7627L159.598 20.1436C159.08 21.0029 158.631 21.6279 158.25 22.0186C157.322 22.9658 156.253 23.4395 155.042 23.4395C154.583 23.4395 154.173 23.4053 153.812 23.3369C153.46 23.2783 153.094 23.1465 152.713 22.9414C152.332 22.7363 152.015 22.4629 151.761 22.1211C151.507 21.7695 151.297 21.291 151.131 20.6855C150.975 20.0703 150.896 19.3525 150.896 18.5322V9.05469L148.406 8.92285Z" fill="black"/>
</svg>
