<svg width="212" height="27" viewBox="0 0 212 27" fill="none" xmlns="http://www.w3.org/2000/svg">
<g filter="url(#filter0_dd_372_4478)">
<rect x="3" y="2" width="206" height="22" rx="5" fill="white"/>
<path d="M11.7393 14.731V13.7153H14.3291C14.985 13.7153 15.4928 13.5461 15.8525 13.2075C16.2122 12.8647 16.3921 12.3929 16.3921 11.792V11.7793C16.3921 11.1742 16.2122 10.7023 15.8525 10.3638C15.4928 10.0252 14.985 9.85596 14.3291 9.85596H11.7393V8.84033H14.6211C15.1966 8.84033 15.7044 8.96305 16.1445 9.2085C16.5846 9.45394 16.9295 9.79671 17.1792 10.2368C17.4331 10.6769 17.5601 11.1868 17.5601 11.7666V11.7793C17.5601 12.359 17.4331 12.8711 17.1792 13.3154C16.9295 13.7598 16.5846 14.1068 16.1445 14.3564C15.7044 14.6061 15.1966 14.731 14.6211 14.731H11.7393ZM11.168 18V8.84033H12.3105V18H11.168ZM20.918 18.1206C20.4863 18.1206 20.097 18.0381 19.75 17.873C19.4072 17.708 19.1343 17.4731 18.9312 17.1685C18.7323 16.8638 18.6328 16.5041 18.6328 16.0894V16.0767C18.6328 15.6704 18.7301 15.3234 18.9248 15.0356C19.1195 14.7437 19.403 14.5151 19.7754 14.3501C20.1478 14.1851 20.5985 14.0877 21.1274 14.0581L23.6411 13.9058V14.7881L21.2607 14.9404C20.7402 14.9701 20.3594 15.078 20.1182 15.2642C19.8812 15.4504 19.7627 15.7127 19.7627 16.0513V16.064C19.7627 16.411 19.8939 16.6818 20.1562 16.8765C20.4186 17.0669 20.7487 17.1621 21.1465 17.1621C21.5231 17.1621 21.8574 17.0881 22.1494 16.9399C22.4414 16.7876 22.6699 16.5824 22.835 16.3242C23.0042 16.0661 23.0889 15.7741 23.0889 15.4482V13.3154C23.0889 12.8923 22.9598 12.5706 22.7017 12.3506C22.4478 12.1263 22.0648 12.0142 21.5527 12.0142C21.1423 12.0142 20.8058 12.0882 20.5435 12.2363C20.2811 12.3802 20.1055 12.5854 20.0166 12.8521L20.0103 12.8711H18.9058L18.9121 12.833C18.9714 12.4733 19.1195 12.1602 19.3564 11.8936C19.5977 11.6227 19.9087 11.4132 20.2896 11.2651C20.6704 11.1128 21.1042 11.0366 21.5908 11.0366C22.1494 11.0366 22.6213 11.1276 23.0063 11.3096C23.3957 11.4915 23.6898 11.7539 23.8887 12.0967C24.0918 12.4352 24.1934 12.8415 24.1934 13.3154V18H23.0889V16.9907H22.9873C22.8434 17.2319 22.6678 17.4372 22.4604 17.6064C22.2573 17.7757 22.0267 17.9048 21.7686 17.9937C21.5104 18.0783 21.2269 18.1206 20.918 18.1206ZM28.5605 18.1206C28.0527 18.1206 27.6042 18.0444 27.2148 17.8921C26.8255 17.7355 26.5124 17.5176 26.2754 17.2383C26.0426 16.959 25.9051 16.631 25.8628 16.2544H26.9927C27.0858 16.5379 27.2677 16.7664 27.5386 16.9399C27.8094 17.1134 28.1628 17.2002 28.5986 17.2002C28.9076 17.2002 29.1784 17.1558 29.4111 17.0669C29.6481 16.9738 29.8343 16.849 29.9697 16.6924C30.1051 16.5316 30.1729 16.3475 30.1729 16.1401V16.1274C30.1729 15.8947 30.0798 15.6979 29.8936 15.5371C29.7074 15.3721 29.4027 15.2388 28.9795 15.1372L27.9194 14.8833C27.492 14.7817 27.1408 14.6506 26.8657 14.4897C26.5907 14.3247 26.3875 14.1237 26.2563 13.8867C26.1252 13.6455 26.0596 13.362 26.0596 13.0361V13.0298C26.0596 12.6489 26.1696 12.3083 26.3896 12.0078C26.6139 11.7074 26.9186 11.4704 27.3037 11.2969C27.6888 11.1234 28.1226 11.0366 28.605 11.0366C29.0832 11.0366 29.5063 11.1128 29.8745 11.2651C30.2469 11.4132 30.5452 11.6248 30.7695 11.8999C30.998 12.175 31.1377 12.4987 31.1885 12.8711H30.103C30.0311 12.6003 29.866 12.3802 29.6079 12.2109C29.3498 12.0417 29.0133 11.957 28.5986 11.957C28.3278 11.957 28.0866 12.0015 27.875 12.0903C27.6634 12.175 27.4963 12.2935 27.3735 12.4458C27.2508 12.5981 27.1895 12.7759 27.1895 12.979V12.9917C27.1895 13.144 27.2297 13.2795 27.3101 13.3979C27.3905 13.5164 27.5153 13.6201 27.6846 13.709C27.8538 13.7979 28.0718 13.8761 28.3384 13.9438L29.3921 14.1978C30.0353 14.3543 30.5135 14.5786 30.8267 14.8706C31.144 15.1626 31.3027 15.554 31.3027 16.0449V16.0576C31.3027 16.4639 31.1821 16.8236 30.9409 17.1367C30.6997 17.4456 30.3717 17.6868 29.957 17.8604C29.5465 18.0339 29.0811 18.1206 28.5605 18.1206ZM35.2383 18.1206C34.7305 18.1206 34.2819 18.0444 33.8926 17.8921C33.5033 17.7355 33.1901 17.5176 32.9531 17.2383C32.7204 16.959 32.5828 16.631 32.5405 16.2544H33.6704C33.7635 16.5379 33.9455 16.7664 34.2163 16.9399C34.4871 17.1134 34.8405 17.2002 35.2764 17.2002C35.5853 17.2002 35.8561 17.1558 36.0889 17.0669C36.3258 16.9738 36.512 16.849 36.6475 16.6924C36.7829 16.5316 36.8506 16.3475 36.8506 16.1401V16.1274C36.8506 15.8947 36.7575 15.6979 36.5713 15.5371C36.3851 15.3721 36.0804 15.2388 35.6572 15.1372L34.5972 14.8833C34.1698 14.7817 33.8185 14.6506 33.5435 14.4897C33.2684 14.3247 33.0653 14.1237 32.9341 13.8867C32.8029 13.6455 32.7373 13.362 32.7373 13.0361V13.0298C32.7373 12.6489 32.8473 12.3083 33.0674 12.0078C33.2917 11.7074 33.5964 11.4704 33.9814 11.2969C34.3665 11.1234 34.8003 11.0366 35.2827 11.0366C35.7609 11.0366 36.1841 11.1128 36.5522 11.2651C36.9246 11.4132 37.223 11.6248 37.4473 11.8999C37.6758 12.175 37.8154 12.4987 37.8662 12.8711H36.7808C36.7088 12.6003 36.5438 12.3802 36.2856 12.2109C36.0275 12.0417 35.6911 11.957 35.2764 11.957C35.0055 11.957 34.7643 12.0015 34.5527 12.0903C34.3411 12.175 34.174 12.2935 34.0513 12.4458C33.9285 12.5981 33.8672 12.7759 33.8672 12.979V12.9917C33.8672 13.144 33.9074 13.2795 33.9878 13.3979C34.0682 13.5164 34.193 13.6201 34.3623 13.709C34.5316 13.7979 34.7495 13.8761 35.0161 13.9438L36.0698 14.1978C36.7131 14.3543 37.1912 14.5786 37.5044 14.8706C37.8218 15.1626 37.9805 15.554 37.9805 16.0449V16.0576C37.9805 16.4639 37.8599 16.8236 37.6187 17.1367C37.3774 17.4456 37.0495 17.6868 36.6348 17.8604C36.2243 18.0339 35.7588 18.1206 35.2383 18.1206ZM40.8242 18L38.9072 11.1572H40.0117L41.3574 16.6289H41.459L42.9888 11.1572H44.0361L45.5659 16.6289H45.6675L47.0132 11.1572H48.1113L46.1943 18H45.0835L43.5537 12.7061H43.4521L41.9287 18H40.8242ZM52.1294 18.1206C51.4819 18.1206 50.9212 17.9788 50.4473 17.6953C49.9775 17.4076 49.6136 16.9992 49.3555 16.4702C49.1016 15.9412 48.9746 15.3128 48.9746 14.585V14.5723C48.9746 13.8402 49.1016 13.2096 49.3555 12.6807C49.6136 12.1517 49.9775 11.7454 50.4473 11.4619C50.9212 11.1784 51.4819 11.0366 52.1294 11.0366C52.7811 11.0366 53.3418 11.1784 53.8115 11.4619C54.2812 11.7454 54.6431 12.1517 54.897 12.6807C55.1551 13.2096 55.2842 13.8402 55.2842 14.5723V14.585C55.2842 15.3128 55.1551 15.9412 54.897 16.4702C54.6431 16.9992 54.2812 17.4076 53.8115 17.6953C53.3418 17.9788 52.7811 18.1206 52.1294 18.1206ZM52.1294 17.1431C52.561 17.1431 52.9271 17.0415 53.2275 16.8384C53.528 16.6353 53.7565 16.3433 53.9131 15.9624C54.0739 15.5815 54.1543 15.1224 54.1543 14.585V14.5723C54.1543 14.0306 54.0739 13.5693 53.9131 13.1885C53.7565 12.8076 53.528 12.5177 53.2275 12.3188C52.9271 12.1157 52.561 12.0142 52.1294 12.0142C51.6978 12.0142 51.3317 12.1157 51.0312 12.3188C50.7308 12.5177 50.5002 12.8076 50.3394 13.1885C50.1828 13.5693 50.1045 14.0306 50.1045 14.5723V14.585C50.1045 15.1224 50.1828 15.5815 50.3394 15.9624C50.5002 16.3433 50.7308 16.6353 51.0312 16.8384C51.3317 17.0415 51.6978 17.1431 52.1294 17.1431ZM56.998 18V11.1572H58.1025V12.1729H58.2041C58.3353 11.8132 58.5575 11.5339 58.8706 11.335C59.1838 11.1361 59.571 11.0366 60.0322 11.0366C60.138 11.0366 60.2417 11.043 60.3433 11.0557C60.4491 11.0641 60.5295 11.0726 60.5845 11.0811V12.1538C60.4702 12.1326 60.3581 12.1178 60.248 12.1094C60.1423 12.0967 60.028 12.0903 59.9053 12.0903C59.554 12.0903 59.243 12.1602 58.9722 12.2998C58.7013 12.4395 58.4876 12.6341 58.3311 12.8838C58.1787 13.1335 58.1025 13.4255 58.1025 13.7598V18H56.998ZM64.2852 18.1206C63.7096 18.1206 63.2061 17.9746 62.7744 17.6826C62.3428 17.3906 62.0085 16.9801 61.7715 16.4512C61.5345 15.918 61.416 15.2959 61.416 14.585V14.5723C61.416 13.8571 61.5345 13.235 61.7715 12.7061C62.0085 12.1771 62.3407 11.7666 62.7681 11.4746C63.1997 11.1826 63.7054 11.0366 64.2852 11.0366C64.5983 11.0366 64.8924 11.0874 65.1675 11.189C65.4468 11.2863 65.6943 11.4238 65.9102 11.6016C66.126 11.7793 66.2952 11.9909 66.418 12.2363H66.5195V8.44043H67.624V18H66.5195V16.9082H66.418C66.2783 17.1621 66.1027 17.38 65.8911 17.562C65.6795 17.7397 65.4383 17.8773 65.1675 17.9746C64.8966 18.0719 64.6025 18.1206 64.2852 18.1206ZM64.5391 17.1431C64.9538 17.1431 65.3114 17.0394 65.6118 16.832C65.9123 16.6247 66.1429 16.3306 66.3037 15.9497C66.4645 15.5646 66.5449 15.1097 66.5449 14.585V14.5723C66.5449 14.0433 66.4645 13.5884 66.3037 13.2075C66.1429 12.8267 65.9123 12.5326 65.6118 12.3252C65.3114 12.1178 64.9538 12.0142 64.5391 12.0142C64.1243 12.0142 63.7668 12.1178 63.4663 12.3252C63.1701 12.5283 62.9416 12.8203 62.7808 13.2012C62.6242 13.582 62.5459 14.0391 62.5459 14.5723V14.585C62.5459 15.1139 62.6242 15.571 62.7808 15.9561C62.9416 16.3369 63.1701 16.631 63.4663 16.8384C63.7668 17.0415 64.1243 17.1431 64.5391 17.1431Z" fill="black" fill-opacity="0.25"/>
</g>
<defs>
<filter id="filter0_dd_372_4478" x="0.5" y="0" width="211" height="27" filterUnits="userSpaceOnUse" color-interpolation-filters="sRGB">
<feFlood flood-opacity="0" result="BackgroundImageFix"/>
<feColorMatrix in="SourceAlpha" type="matrix" values="0 0 0 0 0 0 0 0 0 0 0 0 0 0 0 0 0 0 127 0" result="hardAlpha"/>
<feMorphology radius="0.5" operator="dilate" in="SourceAlpha" result="effect1_dropShadow_372_4478"/>
<feOffset/>
<feComposite in2="hardAlpha" operator="out"/>
<feColorMatrix type="matrix" values="0 0 0 0 0 0 0 0 0 0 0 0 0 0 0 0 0 0 0.05 0"/>
<feBlend mode="normal" in2="BackgroundImageFix" result="effect1_dropShadow_372_4478"/>
<feColorMatrix in="SourceAlpha" type="matrix" values="0 0 0 0 0 0 0 0 0 0 0 0 0 0 0 0 0 0 127 0" result="hardAlpha"/>
<feOffset dy="0.5"/>
<feGaussianBlur stdDeviation="1.25"/>
<feComposite in2="hardAlpha" operator="out"/>
<feColorMatrix type="matrix" values="0 0 0 0 0 0 0 0 0 0 0 0 0 0 0 0 0 0 0.3 0"/>
<feBlend mode="normal" in2="effect1_dropShadow_372_4478" result="effect2_dropShadow_372_4478"/>
<feBlend mode="normal" in="SourceGraphic" in2="effect2_dropShadow_372_4478" result="shape"/>
</filter>
</defs>
</svg>
