<svg width="211" height="27" viewBox="0 0 211 27" fill="none" xmlns="http://www.w3.org/2000/svg">
<g filter="url(#filter0_dd_794_4763)">
<rect x="2.5" y="2" width="206" height="22" rx="5" fill="white"/>
<path d="M13.3149 18L9.93799 8.84033H11.1377L13.8291 16.521H13.9307L16.6221 8.84033H17.8218L14.4448 18H13.3149ZM21.4463 18.1206C20.7946 18.1206 20.2339 17.9767 19.7642 17.689C19.2987 17.4012 18.939 16.995 18.6851 16.4702C18.4354 15.9412 18.3105 15.3192 18.3105 14.604V14.5977C18.3105 13.891 18.4354 13.271 18.6851 12.7378C18.939 12.2046 19.2965 11.7878 19.7578 11.4873C20.2191 11.1868 20.7586 11.0366 21.3765 11.0366C21.9985 11.0366 22.5317 11.1805 22.9761 11.4683C23.4246 11.756 23.7674 12.158 24.0044 12.6743C24.2456 13.1864 24.3662 13.783 24.3662 14.4644V14.896H18.8818V14.0137H23.8013L23.2554 14.8198V14.3818C23.2554 13.8444 23.175 13.4022 23.0142 13.0552C22.8534 12.7082 22.6312 12.45 22.3477 12.2808C22.0641 12.1073 21.7383 12.0205 21.3701 12.0205C21.002 12.0205 20.6719 12.1115 20.3799 12.2935C20.0921 12.4712 19.8636 12.7357 19.6943 13.0869C19.5251 13.4382 19.4404 13.8698 19.4404 14.3818V14.8198C19.4404 15.3065 19.5229 15.7233 19.688 16.0703C19.853 16.4131 20.0879 16.6776 20.3926 16.8638C20.6973 17.0457 21.057 17.1367 21.4717 17.1367C21.7806 17.1367 22.0493 17.0944 22.2778 17.0098C22.5063 16.9251 22.6947 16.8172 22.8428 16.686C22.9909 16.5549 23.0946 16.4215 23.1538 16.2861L23.1792 16.229H24.2837L24.271 16.2798C24.2118 16.5125 24.106 16.7389 23.9536 16.959C23.8055 17.1748 23.613 17.3716 23.376 17.5493C23.139 17.7228 22.8576 17.8625 22.5317 17.9683C22.2101 18.0698 21.8483 18.1206 21.4463 18.1206ZM26.0801 18V11.1572H27.1846V12.1729H27.2861C27.4173 11.8132 27.6395 11.5339 27.9526 11.335C28.2658 11.1361 28.653 11.0366 29.1143 11.0366C29.2201 11.0366 29.3237 11.043 29.4253 11.0557C29.5311 11.0641 29.6115 11.0726 29.6665 11.0811V12.1538C29.5522 12.1326 29.4401 12.1178 29.3301 12.1094C29.2243 12.0967 29.11 12.0903 28.9873 12.0903C28.6361 12.0903 28.325 12.1602 28.0542 12.2998C27.7834 12.4395 27.5697 12.6341 27.4131 12.8838C27.2607 13.1335 27.1846 13.4255 27.1846 13.7598V18H26.0801ZM31.0566 18V11.1572H32.1611V18H31.0566ZM31.6152 9.83691C31.4079 9.83691 31.228 9.76286 31.0757 9.61475C30.9276 9.4624 30.8535 9.28255 30.8535 9.0752C30.8535 8.86361 30.9276 8.68376 31.0757 8.53564C31.228 8.38753 31.4079 8.31348 31.6152 8.31348C31.8268 8.31348 32.0067 8.38753 32.1548 8.53564C32.3029 8.68376 32.377 8.86361 32.377 9.0752C32.377 9.28255 32.3029 9.4624 32.1548 9.61475C32.0067 9.76286 31.8268 9.83691 31.6152 9.83691ZM34.7002 18V12.0713H33.564V11.1572H34.7002V10.3955C34.7002 9.93848 34.7743 9.56185 34.9224 9.26562C35.0747 8.96517 35.299 8.743 35.5952 8.59912C35.8914 8.45101 36.2554 8.37695 36.687 8.37695C36.8224 8.37695 36.9494 8.3833 37.0679 8.396C37.1906 8.40446 37.3091 8.41927 37.4233 8.44043V9.32275C37.3556 9.31006 37.2773 9.3016 37.1885 9.29736C37.0996 9.29313 37.0065 9.29102 36.9092 9.29102C36.5156 9.29102 36.2321 9.38623 36.0586 9.57666C35.8893 9.76709 35.8047 10.0506 35.8047 10.4272V11.1572H37.3599V12.0713H35.8047V18H34.7002ZM39.5371 20.3994C39.4652 20.3994 39.3848 20.3952 39.2959 20.3867C39.207 20.3825 39.1245 20.374 39.0483 20.3613V19.4536C39.116 19.4663 39.1901 19.4748 39.2705 19.479C39.3509 19.4832 39.4292 19.4854 39.5054 19.4854C39.8185 19.4854 40.0745 19.4049 40.2734 19.2441C40.4766 19.0833 40.6395 18.8062 40.7622 18.4126L40.8892 18.0063L38.3564 11.1572H39.5371L41.6445 17.4795L41.2065 16.7876H41.7271L41.2891 17.4795L43.3901 11.1572H44.5518L41.8794 18.4189C41.6932 18.931 41.4964 19.3309 41.2891 19.6187C41.0817 19.9064 40.8384 20.1074 40.5591 20.2217C40.284 20.3402 39.9434 20.3994 39.5371 20.3994ZM50.3789 14.731V13.7153H52.9688C53.6247 13.7153 54.1325 13.5461 54.4922 13.2075C54.8519 12.8647 55.0317 12.3929 55.0317 11.792V11.7793C55.0317 11.1742 54.8519 10.7023 54.4922 10.3638C54.1325 10.0252 53.6247 9.85596 52.9688 9.85596H50.3789V8.84033H53.2607C53.8363 8.84033 54.3441 8.96305 54.7842 9.2085C55.2243 9.45394 55.5692 9.79671 55.8188 10.2368C56.0728 10.6769 56.1997 11.1868 56.1997 11.7666V11.7793C56.1997 12.359 56.0728 12.8711 55.8188 13.3154C55.5692 13.7598 55.2243 14.1068 54.7842 14.3564C54.3441 14.6061 53.8363 14.731 53.2607 14.731H50.3789ZM49.8076 18V8.84033H50.9502V18H49.8076ZM59.5576 18.1206C59.126 18.1206 58.7367 18.0381 58.3896 17.873C58.0469 17.708 57.7739 17.4731 57.5708 17.1685C57.3719 16.8638 57.2725 16.5041 57.2725 16.0894V16.0767C57.2725 15.6704 57.3698 15.3234 57.5645 15.0356C57.7591 14.7437 58.0426 14.5151 58.415 14.3501C58.7874 14.1851 59.2381 14.0877 59.7671 14.0581L62.2808 13.9058V14.7881L59.9004 14.9404C59.3799 14.9701 58.999 15.078 58.7578 15.2642C58.5208 15.4504 58.4023 15.7127 58.4023 16.0513V16.064C58.4023 16.411 58.5335 16.6818 58.7959 16.8765C59.0583 17.0669 59.3883 17.1621 59.7861 17.1621C60.1628 17.1621 60.4971 17.0881 60.7891 16.9399C61.0811 16.7876 61.3096 16.5824 61.4746 16.3242C61.6439 16.0661 61.7285 15.7741 61.7285 15.4482V13.3154C61.7285 12.8923 61.5994 12.5706 61.3413 12.3506C61.0874 12.1263 60.7044 12.0142 60.1924 12.0142C59.7819 12.0142 59.4455 12.0882 59.1831 12.2363C58.9207 12.3802 58.7451 12.5854 58.6562 12.8521L58.6499 12.8711H57.5454L57.5518 12.833C57.611 12.4733 57.7591 12.1602 57.9961 11.8936C58.2373 11.6227 58.5483 11.4132 58.9292 11.2651C59.3101 11.1128 59.7438 11.0366 60.2305 11.0366C60.7891 11.0366 61.2609 11.1276 61.646 11.3096C62.0353 11.4915 62.3294 11.7539 62.5283 12.0967C62.7314 12.4352 62.833 12.8415 62.833 13.3154V18H61.7285V16.9907H61.627C61.4831 17.2319 61.3075 17.4372 61.1001 17.6064C60.897 17.7757 60.6663 17.9048 60.4082 17.9937C60.1501 18.0783 59.8665 18.1206 59.5576 18.1206ZM67.2002 18.1206C66.6924 18.1206 66.2438 18.0444 65.8545 17.8921C65.4652 17.7355 65.152 17.5176 64.915 17.2383C64.6823 16.959 64.5448 16.631 64.5024 16.2544H65.6323C65.7254 16.5379 65.9074 16.7664 66.1782 16.9399C66.4491 17.1134 66.8024 17.2002 67.2383 17.2002C67.5472 17.2002 67.818 17.1558 68.0508 17.0669C68.2878 16.9738 68.474 16.849 68.6094 16.6924C68.7448 16.5316 68.8125 16.3475 68.8125 16.1401V16.1274C68.8125 15.8947 68.7194 15.6979 68.5332 15.5371C68.347 15.3721 68.0423 15.2388 67.6191 15.1372L66.5591 14.8833C66.1317 14.7817 65.7804 14.6506 65.5054 14.4897C65.2303 14.3247 65.0272 14.1237 64.896 13.8867C64.7648 13.6455 64.6992 13.362 64.6992 13.0361V13.0298C64.6992 12.6489 64.8092 12.3083 65.0293 12.0078C65.2536 11.7074 65.5583 11.4704 65.9434 11.2969C66.3285 11.1234 66.7622 11.0366 67.2446 11.0366C67.7228 11.0366 68.146 11.1128 68.5142 11.2651C68.8866 11.4132 69.1849 11.6248 69.4092 11.8999C69.6377 12.175 69.7773 12.4987 69.8281 12.8711H68.7427C68.6707 12.6003 68.5057 12.3802 68.2476 12.2109C67.9894 12.0417 67.653 11.957 67.2383 11.957C66.9674 11.957 66.7262 12.0015 66.5146 12.0903C66.3031 12.175 66.1359 12.2935 66.0132 12.4458C65.8905 12.5981 65.8291 12.7759 65.8291 12.979V12.9917C65.8291 13.144 65.8693 13.2795 65.9497 13.3979C66.0301 13.5164 66.1549 13.6201 66.3242 13.709C66.4935 13.7979 66.7114 13.8761 66.978 13.9438L68.0317 14.1978C68.675 14.3543 69.1532 14.5786 69.4663 14.8706C69.7837 15.1626 69.9424 15.554 69.9424 16.0449V16.0576C69.9424 16.4639 69.8218 16.8236 69.5806 17.1367C69.3394 17.4456 69.0114 17.6868 68.5967 17.8604C68.1862 18.0339 67.7207 18.1206 67.2002 18.1206ZM73.8779 18.1206C73.3701 18.1206 72.9215 18.0444 72.5322 17.8921C72.1429 17.7355 71.8298 17.5176 71.5928 17.2383C71.36 16.959 71.2225 16.631 71.1802 16.2544H72.3101C72.4032 16.5379 72.5851 16.7664 72.856 16.9399C73.1268 17.1134 73.4801 17.2002 73.916 17.2002C74.2249 17.2002 74.4958 17.1558 74.7285 17.0669C74.9655 16.9738 75.1517 16.849 75.2871 16.6924C75.4225 16.5316 75.4902 16.3475 75.4902 16.1401V16.1274C75.4902 15.8947 75.3971 15.6979 75.2109 15.5371C75.0247 15.3721 74.7201 15.2388 74.2969 15.1372L73.2368 14.8833C72.8094 14.7817 72.4582 14.6506 72.1831 14.4897C71.908 14.3247 71.7049 14.1237 71.5737 13.8867C71.4425 13.6455 71.377 13.362 71.377 13.0361V13.0298C71.377 12.6489 71.487 12.3083 71.707 12.0078C71.9313 11.7074 72.236 11.4704 72.6211 11.2969C73.0062 11.1234 73.4399 11.0366 73.9224 11.0366C74.4006 11.0366 74.8237 11.1128 75.1919 11.2651C75.5643 11.4132 75.8626 11.6248 76.0869 11.8999C76.3154 12.175 76.4551 12.4987 76.5059 12.8711H75.4204C75.3485 12.6003 75.1834 12.3802 74.9253 12.2109C74.6672 12.0417 74.3307 11.957 73.916 11.957C73.6452 11.957 73.404 12.0015 73.1924 12.0903C72.9808 12.175 72.8136 12.2935 72.6909 12.4458C72.5682 12.5981 72.5068 12.7759 72.5068 12.979V12.9917C72.5068 13.144 72.547 13.2795 72.6274 13.3979C72.7078 13.5164 72.8327 13.6201 73.002 13.709C73.1712 13.7979 73.3892 13.8761 73.6558 13.9438L74.7095 14.1978C75.3527 14.3543 75.8309 14.5786 76.144 14.8706C76.4614 15.1626 76.6201 15.554 76.6201 16.0449V16.0576C76.6201 16.4639 76.4995 16.8236 76.2583 17.1367C76.0171 17.4456 75.6891 17.6868 75.2744 17.8604C74.8639 18.0339 74.3984 18.1206 73.8779 18.1206ZM79.4639 18L77.5469 11.1572H78.6514L79.9971 16.6289H80.0986L81.6284 11.1572H82.6758L84.2056 16.6289H84.3071L85.6528 11.1572H86.751L84.834 18H83.7231L82.1934 12.7061H82.0918L80.5684 18H79.4639ZM90.769 18.1206C90.1216 18.1206 89.5609 17.9788 89.0869 17.6953C88.6172 17.4076 88.2533 16.9992 87.9951 16.4702C87.7412 15.9412 87.6143 15.3128 87.6143 14.585V14.5723C87.6143 13.8402 87.7412 13.2096 87.9951 12.6807C88.2533 12.1517 88.6172 11.7454 89.0869 11.4619C89.5609 11.1784 90.1216 11.0366 90.769 11.0366C91.4207 11.0366 91.9814 11.1784 92.4512 11.4619C92.9209 11.7454 93.2827 12.1517 93.5366 12.6807C93.7948 13.2096 93.9238 13.8402 93.9238 14.5723V14.585C93.9238 15.3128 93.7948 15.9412 93.5366 16.4702C93.2827 16.9992 92.9209 17.4076 92.4512 17.6953C91.9814 17.9788 91.4207 18.1206 90.769 18.1206ZM90.769 17.1431C91.2007 17.1431 91.5667 17.0415 91.8672 16.8384C92.1676 16.6353 92.3962 16.3433 92.5527 15.9624C92.7135 15.5815 92.7939 15.1224 92.7939 14.585V14.5723C92.7939 14.0306 92.7135 13.5693 92.5527 13.1885C92.3962 12.8076 92.1676 12.5177 91.8672 12.3188C91.5667 12.1157 91.2007 12.0142 90.769 12.0142C90.3374 12.0142 89.9714 12.1157 89.6709 12.3188C89.3704 12.5177 89.1398 12.8076 88.979 13.1885C88.8224 13.5693 88.7441 14.0306 88.7441 14.5723V14.585C88.7441 15.1224 88.8224 15.5815 88.979 15.9624C89.1398 16.3433 89.3704 16.6353 89.6709 16.8384C89.9714 17.0415 90.3374 17.1431 90.769 17.1431ZM95.6377 18V11.1572H96.7422V12.1729H96.8438C96.9749 11.8132 97.1971 11.5339 97.5103 11.335C97.8234 11.1361 98.2106 11.0366 98.6719 11.0366C98.7777 11.0366 98.8813 11.043 98.9829 11.0557C99.0887 11.0641 99.1691 11.0726 99.2241 11.0811V12.1538C99.1099 12.1326 98.9977 12.1178 98.8877 12.1094C98.7819 12.0967 98.6676 12.0903 98.5449 12.0903C98.1937 12.0903 97.8826 12.1602 97.6118 12.2998C97.341 12.4395 97.1273 12.6341 96.9707 12.8838C96.8184 13.1335 96.7422 13.4255 96.7422 13.7598V18H95.6377ZM102.925 18.1206C102.349 18.1206 101.846 17.9746 101.414 17.6826C100.982 17.3906 100.648 16.9801 100.411 16.4512C100.174 15.918 100.056 15.2959 100.056 14.585V14.5723C100.056 13.8571 100.174 13.235 100.411 12.7061C100.648 12.1771 100.98 11.7666 101.408 11.4746C101.839 11.1826 102.345 11.0366 102.925 11.0366C103.238 11.0366 103.532 11.0874 103.807 11.189C104.086 11.2863 104.334 11.4238 104.55 11.6016C104.766 11.7793 104.935 11.9909 105.058 12.2363H105.159V8.44043H106.264V18H105.159V16.9082H105.058C104.918 17.1621 104.742 17.38 104.531 17.562C104.319 17.7397 104.078 17.8773 103.807 17.9746C103.536 18.0719 103.242 18.1206 102.925 18.1206ZM103.179 17.1431C103.593 17.1431 103.951 17.0394 104.251 16.832C104.552 16.6247 104.783 16.3306 104.943 15.9497C105.104 15.5646 105.185 15.1097 105.185 14.585V14.5723C105.185 14.0433 105.104 13.5884 104.943 13.2075C104.783 12.8267 104.552 12.5326 104.251 12.3252C103.951 12.1178 103.593 12.0142 103.179 12.0142C102.764 12.0142 102.406 12.1178 102.106 12.3252C101.81 12.5283 101.581 12.8203 101.42 13.2012C101.264 13.582 101.186 14.0391 101.186 14.5723V14.585C101.186 15.1139 101.264 15.571 101.42 15.9561C101.581 16.3369 101.81 16.631 102.106 16.8384C102.406 17.0415 102.764 17.1431 103.179 17.1431Z" fill="black" fill-opacity="0.25"/>
</g>
<defs>
<filter id="filter0_dd_794_4763" x="0" y="0" width="211" height="27" filterUnits="userSpaceOnUse" color-interpolation-filters="sRGB">
<feFlood flood-opacity="0" result="BackgroundImageFix"/>
<feColorMatrix in="SourceAlpha" type="matrix" values="0 0 0 0 0 0 0 0 0 0 0 0 0 0 0 0 0 0 127 0" result="hardAlpha"/>
<feMorphology radius="0.5" operator="dilate" in="SourceAlpha" result="effect1_dropShadow_794_4763"/>
<feOffset/>
<feComposite in2="hardAlpha" operator="out"/>
<feColorMatrix type="matrix" values="0 0 0 0 0 0 0 0 0 0 0 0 0 0 0 0 0 0 0.05 0"/>
<feBlend mode="normal" in2="BackgroundImageFix" result="effect1_dropShadow_794_4763"/>
<feColorMatrix in="SourceAlpha" type="matrix" values="0 0 0 0 0 0 0 0 0 0 0 0 0 0 0 0 0 0 127 0" result="hardAlpha"/>
<feOffset dy="0.5"/>
<feGaussianBlur stdDeviation="1.25"/>
<feComposite in2="hardAlpha" operator="out"/>
<feColorMatrix type="matrix" values="0 0 0 0 0 0 0 0 0 0 0 0 0 0 0 0 0 0 0.3 0"/>
<feBlend mode="normal" in2="effect1_dropShadow_794_4763" result="effect2_dropShadow_794_4763"/>
<feBlend mode="normal" in="SourceGraphic" in2="effect2_dropShadow_794_4763" result="shape"/>
</filter>
</defs>
</svg>
