<svg width="211" height="27" viewBox="0 0 211 27" fill="none" xmlns="http://www.w3.org/2000/svg">
<g filter="url(#filter0_dd_794_4761)">
<rect x="2.5" y="2" width="206" height="22" rx="5" fill="white"/>
<path d="M10.668 18V8.84033H11.7788L17.0283 16.3687L16.2666 15.9688H16.8506V8.84033H17.9805V18H16.8696L11.6201 10.4971L12.3818 10.897H11.7979V18H10.668ZM22.9697 18.1206C22.318 18.1206 21.7573 17.9767 21.2876 17.689C20.8221 17.4012 20.4624 16.995 20.2085 16.4702C19.9588 15.9412 19.834 15.3192 19.834 14.604V14.5977C19.834 13.891 19.9588 13.271 20.2085 12.7378C20.4624 12.2046 20.82 11.7878 21.2812 11.4873C21.7425 11.1868 22.2821 11.0366 22.8999 11.0366C23.522 11.0366 24.0552 11.1805 24.4995 11.4683C24.9481 11.756 25.2909 12.158 25.5278 12.6743C25.769 13.1864 25.8896 13.783 25.8896 14.4644V14.896H20.4053V14.0137H25.3247L24.7788 14.8198V14.3818C24.7788 13.8444 24.6984 13.4022 24.5376 13.0552C24.3768 12.7082 24.1546 12.45 23.8711 12.2808C23.5876 12.1073 23.2617 12.0205 22.8936 12.0205C22.5254 12.0205 22.1953 12.1115 21.9033 12.2935C21.6156 12.4712 21.387 12.7357 21.2178 13.0869C21.0485 13.4382 20.9639 13.8698 20.9639 14.3818V14.8198C20.9639 15.3065 21.0464 15.7233 21.2114 16.0703C21.3765 16.4131 21.6113 16.6776 21.916 16.8638C22.2207 17.0457 22.5804 17.1367 22.9951 17.1367C23.304 17.1367 23.5728 17.0944 23.8013 17.0098C24.0298 16.9251 24.2181 16.8172 24.3662 16.686C24.5143 16.5549 24.618 16.4215 24.6772 16.2861L24.7026 16.229H25.8071L25.7944 16.2798C25.7352 16.5125 25.6294 16.7389 25.4771 16.959C25.3289 17.1748 25.1364 17.3716 24.8994 17.5493C24.6624 17.7228 24.381 17.8625 24.0552 17.9683C23.7336 18.0698 23.3717 18.1206 22.9697 18.1206ZM28.9238 18L27.0068 11.1572H28.1113L29.457 16.6289H29.5586L31.0884 11.1572H32.1357L33.6655 16.6289H33.7671L35.1128 11.1572H36.2109L34.2939 18H33.1831L31.6533 12.7061H31.5518L30.0283 18H28.9238ZM42.0381 14.731V13.7153H44.6279C45.2839 13.7153 45.7917 13.5461 46.1514 13.2075C46.5111 12.8647 46.6909 12.3929 46.6909 11.792V11.7793C46.6909 11.1742 46.5111 10.7023 46.1514 10.3638C45.7917 10.0252 45.2839 9.85596 44.6279 9.85596H42.0381V8.84033H44.9199C45.4954 8.84033 46.0033 8.96305 46.4434 9.2085C46.8835 9.45394 47.2284 9.79671 47.478 10.2368C47.7319 10.6769 47.8589 11.1868 47.8589 11.7666V11.7793C47.8589 12.359 47.7319 12.8711 47.478 13.3154C47.2284 13.7598 46.8835 14.1068 46.4434 14.3564C46.0033 14.6061 45.4954 14.731 44.9199 14.731H42.0381ZM41.4668 18V8.84033H42.6094V18H41.4668ZM51.2168 18.1206C50.7852 18.1206 50.3958 18.0381 50.0488 17.873C49.7061 17.708 49.4331 17.4731 49.23 17.1685C49.0311 16.8638 48.9316 16.5041 48.9316 16.0894V16.0767C48.9316 15.6704 49.029 15.3234 49.2236 15.0356C49.4183 14.7437 49.7018 14.5151 50.0742 14.3501C50.4466 14.1851 50.8973 14.0877 51.4263 14.0581L53.9399 13.9058V14.7881L51.5596 14.9404C51.0391 14.9701 50.6582 15.078 50.417 15.2642C50.18 15.4504 50.0615 15.7127 50.0615 16.0513V16.064C50.0615 16.411 50.1927 16.6818 50.4551 16.8765C50.7174 17.0669 51.0475 17.1621 51.4453 17.1621C51.8219 17.1621 52.1562 17.0881 52.4482 16.9399C52.7402 16.7876 52.9688 16.5824 53.1338 16.3242C53.3031 16.0661 53.3877 15.7741 53.3877 15.4482V13.3154C53.3877 12.8923 53.2586 12.5706 53.0005 12.3506C52.7466 12.1263 52.3636 12.0142 51.8516 12.0142C51.4411 12.0142 51.1047 12.0882 50.8423 12.2363C50.5799 12.3802 50.4043 12.5854 50.3154 12.8521L50.3091 12.8711H49.2046L49.2109 12.833C49.2702 12.4733 49.4183 12.1602 49.6553 11.8936C49.8965 11.6227 50.2075 11.4132 50.5884 11.2651C50.9692 11.1128 51.403 11.0366 51.8896 11.0366C52.4482 11.0366 52.9201 11.1276 53.3052 11.3096C53.6945 11.4915 53.9886 11.7539 54.1875 12.0967C54.3906 12.4352 54.4922 12.8415 54.4922 13.3154V18H53.3877V16.9907H53.2861C53.1423 17.2319 52.9666 17.4372 52.7593 17.6064C52.5562 17.7757 52.3255 17.9048 52.0674 17.9937C51.8092 18.0783 51.5257 18.1206 51.2168 18.1206ZM58.8594 18.1206C58.3516 18.1206 57.903 18.0444 57.5137 17.8921C57.1243 17.7355 56.8112 17.5176 56.5742 17.2383C56.3415 16.959 56.2039 16.631 56.1616 16.2544H57.2915C57.3846 16.5379 57.5666 16.7664 57.8374 16.9399C58.1082 17.1134 58.4616 17.2002 58.8975 17.2002C59.2064 17.2002 59.4772 17.1558 59.71 17.0669C59.9469 16.9738 60.1331 16.849 60.2686 16.6924C60.404 16.5316 60.4717 16.3475 60.4717 16.1401V16.1274C60.4717 15.8947 60.3786 15.6979 60.1924 15.5371C60.0062 15.3721 59.7015 15.2388 59.2783 15.1372L58.2183 14.8833C57.7909 14.7817 57.4396 14.6506 57.1646 14.4897C56.8895 14.3247 56.6864 14.1237 56.5552 13.8867C56.424 13.6455 56.3584 13.362 56.3584 13.0361V13.0298C56.3584 12.6489 56.4684 12.3083 56.6885 12.0078C56.9128 11.7074 57.2174 11.4704 57.6025 11.2969C57.9876 11.1234 58.4214 11.0366 58.9038 11.0366C59.382 11.0366 59.8052 11.1128 60.1733 11.2651C60.5457 11.4132 60.8441 11.6248 61.0684 11.8999C61.2969 12.175 61.4365 12.4987 61.4873 12.8711H60.4019C60.3299 12.6003 60.1649 12.3802 59.9067 12.2109C59.6486 12.0417 59.3122 11.957 58.8975 11.957C58.6266 11.957 58.3854 12.0015 58.1738 12.0903C57.9622 12.175 57.7951 12.2935 57.6724 12.4458C57.5496 12.5981 57.4883 12.7759 57.4883 12.979V12.9917C57.4883 13.144 57.5285 13.2795 57.6089 13.3979C57.6893 13.5164 57.8141 13.6201 57.9834 13.709C58.1527 13.7979 58.3706 13.8761 58.6372 13.9438L59.6909 14.1978C60.3341 14.3543 60.8123 14.5786 61.1255 14.8706C61.4429 15.1626 61.6016 15.554 61.6016 16.0449V16.0576C61.6016 16.4639 61.481 16.8236 61.2397 17.1367C60.9985 17.4456 60.6706 17.6868 60.2559 17.8604C59.8454 18.0339 59.3799 18.1206 58.8594 18.1206ZM65.5371 18.1206C65.0293 18.1206 64.5807 18.0444 64.1914 17.8921C63.8021 17.7355 63.4889 17.5176 63.252 17.2383C63.0192 16.959 62.8817 16.631 62.8394 16.2544H63.9692C64.0623 16.5379 64.2443 16.7664 64.5151 16.9399C64.786 17.1134 65.1393 17.2002 65.5752 17.2002C65.8841 17.2002 66.1549 17.1558 66.3877 17.0669C66.6247 16.9738 66.8109 16.849 66.9463 16.6924C67.0817 16.5316 67.1494 16.3475 67.1494 16.1401V16.1274C67.1494 15.8947 67.0563 15.6979 66.8701 15.5371C66.6839 15.3721 66.3792 15.2388 65.9561 15.1372L64.896 14.8833C64.4686 14.7817 64.1174 14.6506 63.8423 14.4897C63.5672 14.3247 63.3641 14.1237 63.2329 13.8867C63.1017 13.6455 63.0361 13.362 63.0361 13.0361V13.0298C63.0361 12.6489 63.1462 12.3083 63.3662 12.0078C63.5905 11.7074 63.8952 11.4704 64.2803 11.2969C64.6654 11.1234 65.0991 11.0366 65.5815 11.0366C66.0597 11.0366 66.4829 11.1128 66.8511 11.2651C67.2235 11.4132 67.5218 11.6248 67.7461 11.8999C67.9746 12.175 68.1143 12.4987 68.165 12.8711H67.0796C67.0076 12.6003 66.8426 12.3802 66.5845 12.2109C66.3263 12.0417 65.9899 11.957 65.5752 11.957C65.3044 11.957 65.0632 12.0015 64.8516 12.0903C64.64 12.175 64.4728 12.2935 64.3501 12.4458C64.2274 12.5981 64.166 12.7759 64.166 12.979V12.9917C64.166 13.144 64.2062 13.2795 64.2866 13.3979C64.367 13.5164 64.4919 13.6201 64.6611 13.709C64.8304 13.7979 65.0483 13.8761 65.3149 13.9438L66.3687 14.1978C67.0119 14.3543 67.4901 14.5786 67.8032 14.8706C68.1206 15.1626 68.2793 15.554 68.2793 16.0449V16.0576C68.2793 16.4639 68.1587 16.8236 67.9175 17.1367C67.6763 17.4456 67.3483 17.6868 66.9336 17.8604C66.5231 18.0339 66.0576 18.1206 65.5371 18.1206ZM71.123 18L69.2061 11.1572H70.3105L71.6562 16.6289H71.7578L73.2876 11.1572H74.335L75.8647 16.6289H75.9663L77.312 11.1572H78.4102L76.4932 18H75.3823L73.8525 12.7061H73.751L72.2275 18H71.123ZM82.4282 18.1206C81.7808 18.1206 81.2201 17.9788 80.7461 17.6953C80.2764 17.4076 79.9124 16.9992 79.6543 16.4702C79.4004 15.9412 79.2734 15.3128 79.2734 14.585V14.5723C79.2734 13.8402 79.4004 13.2096 79.6543 12.6807C79.9124 12.1517 80.2764 11.7454 80.7461 11.4619C81.2201 11.1784 81.7808 11.0366 82.4282 11.0366C83.0799 11.0366 83.6406 11.1784 84.1104 11.4619C84.5801 11.7454 84.9419 12.1517 85.1958 12.6807C85.4539 13.2096 85.583 13.8402 85.583 14.5723V14.585C85.583 15.3128 85.4539 15.9412 85.1958 16.4702C84.9419 16.9992 84.5801 17.4076 84.1104 17.6953C83.6406 17.9788 83.0799 18.1206 82.4282 18.1206ZM82.4282 17.1431C82.8599 17.1431 83.2259 17.0415 83.5264 16.8384C83.8268 16.6353 84.0553 16.3433 84.2119 15.9624C84.3727 15.5815 84.4531 15.1224 84.4531 14.585V14.5723C84.4531 14.0306 84.3727 13.5693 84.2119 13.1885C84.0553 12.8076 83.8268 12.5177 83.5264 12.3188C83.2259 12.1157 82.8599 12.0142 82.4282 12.0142C81.9966 12.0142 81.6305 12.1157 81.3301 12.3188C81.0296 12.5177 80.799 12.8076 80.6382 13.1885C80.4816 13.5693 80.4033 14.0306 80.4033 14.5723V14.585C80.4033 15.1224 80.4816 15.5815 80.6382 15.9624C80.799 16.3433 81.0296 16.6353 81.3301 16.8384C81.6305 17.0415 81.9966 17.1431 82.4282 17.1431ZM87.2969 18V11.1572H88.4014V12.1729H88.5029C88.6341 11.8132 88.8563 11.5339 89.1694 11.335C89.4826 11.1361 89.8698 11.0366 90.3311 11.0366C90.4368 11.0366 90.5405 11.043 90.6421 11.0557C90.7479 11.0641 90.8283 11.0726 90.8833 11.0811V12.1538C90.769 12.1326 90.6569 12.1178 90.5469 12.1094C90.4411 12.0967 90.3268 12.0903 90.2041 12.0903C89.8529 12.0903 89.5418 12.1602 89.271 12.2998C89.0002 12.4395 88.7865 12.6341 88.6299 12.8838C88.4775 13.1335 88.4014 13.4255 88.4014 13.7598V18H87.2969ZM94.584 18.1206C94.0085 18.1206 93.5049 17.9746 93.0732 17.6826C92.6416 17.3906 92.3073 16.9801 92.0703 16.4512C91.8333 15.918 91.7148 15.2959 91.7148 14.585V14.5723C91.7148 13.8571 91.8333 13.235 92.0703 12.7061C92.3073 12.1771 92.6395 11.7666 93.0669 11.4746C93.4985 11.1826 94.0042 11.0366 94.584 11.0366C94.8971 11.0366 95.1912 11.0874 95.4663 11.189C95.7456 11.2863 95.9932 11.4238 96.209 11.6016C96.4248 11.7793 96.5941 11.9909 96.7168 12.2363H96.8184V8.44043H97.9229V18H96.8184V16.9082H96.7168C96.5771 17.1621 96.4015 17.38 96.1899 17.562C95.9784 17.7397 95.7371 17.8773 95.4663 17.9746C95.1955 18.0719 94.9014 18.1206 94.584 18.1206ZM94.8379 17.1431C95.2526 17.1431 95.6102 17.0394 95.9106 16.832C96.2111 16.6247 96.4417 16.3306 96.6025 15.9497C96.7633 15.5646 96.8438 15.1097 96.8438 14.585V14.5723C96.8438 14.0433 96.7633 13.5884 96.6025 13.2075C96.4417 12.8267 96.2111 12.5326 95.9106 12.3252C95.6102 12.1178 95.2526 12.0142 94.8379 12.0142C94.4232 12.0142 94.0656 12.1178 93.7651 12.3252C93.4689 12.5283 93.2404 12.8203 93.0796 13.2012C92.923 13.582 92.8447 14.0391 92.8447 14.5723V14.585C92.8447 15.1139 92.923 15.571 93.0796 15.9561C93.2404 16.3369 93.4689 16.631 93.7651 16.8384C94.0656 17.0415 94.4232 17.1431 94.8379 17.1431Z" fill="black" fill-opacity="0.25"/>
</g>
<defs>
<filter id="filter0_dd_794_4761" x="0" y="0" width="211" height="27" filterUnits="userSpaceOnUse" color-interpolation-filters="sRGB">
<feFlood flood-opacity="0" result="BackgroundImageFix"/>
<feColorMatrix in="SourceAlpha" type="matrix" values="0 0 0 0 0 0 0 0 0 0 0 0 0 0 0 0 0 0 127 0" result="hardAlpha"/>
<feMorphology radius="0.5" operator="dilate" in="SourceAlpha" result="effect1_dropShadow_794_4761"/>
<feOffset/>
<feComposite in2="hardAlpha" operator="out"/>
<feColorMatrix type="matrix" values="0 0 0 0 0 0 0 0 0 0 0 0 0 0 0 0 0 0 0.05 0"/>
<feBlend mode="normal" in2="BackgroundImageFix" result="effect1_dropShadow_794_4761"/>
<feColorMatrix in="SourceAlpha" type="matrix" values="0 0 0 0 0 0 0 0 0 0 0 0 0 0 0 0 0 0 127 0" result="hardAlpha"/>
<feOffset dy="0.5"/>
<feGaussianBlur stdDeviation="1.25"/>
<feComposite in2="hardAlpha" operator="out"/>
<feColorMatrix type="matrix" values="0 0 0 0 0 0 0 0 0 0 0 0 0 0 0 0 0 0 0.3 0"/>
<feBlend mode="normal" in2="effect1_dropShadow_794_4761" result="effect2_dropShadow_794_4761"/>
<feBlend mode="normal" in="SourceGraphic" in2="effect2_dropShadow_794_4761" result="shape"/>
</filter>
</defs>
</svg>
