<svg width="211" height="27" viewBox="0 0 211 27" fill="none" xmlns="http://www.w3.org/2000/svg">
<g filter="url(#filter0_dd_794_4687)">
<rect x="2.5" y="2" width="206" height="22" rx="5" fill="white"/>
<path d="M13.6704 18.2158C13.0018 18.2158 12.4178 18.1079 11.9185 17.8921C11.4233 17.672 11.0298 17.3716 10.7378 16.9907C10.45 16.6056 10.2829 16.1655 10.2363 15.6704L10.23 15.6006H11.3726L11.3789 15.6704C11.4085 15.9751 11.5249 16.2396 11.728 16.4639C11.9354 16.6839 12.2104 16.8553 12.5532 16.978C12.9002 17.1007 13.2938 17.1621 13.7339 17.1621C14.1486 17.1621 14.5168 17.0965 14.8384 16.9653C15.1642 16.8299 15.4202 16.6437 15.6064 16.4067C15.7926 16.1698 15.8857 15.8968 15.8857 15.5879V15.5815C15.8857 15.2007 15.7461 14.8812 15.4668 14.623C15.1875 14.3607 14.7326 14.1597 14.1021 14.02L13.0864 13.7979C12.1681 13.5947 11.4995 13.2816 11.0806 12.8584C10.6659 12.431 10.4585 11.8851 10.4585 11.2207V11.2144C10.4627 10.7065 10.6003 10.258 10.8711 9.86865C11.1462 9.47933 11.5249 9.17464 12.0073 8.95459C12.494 8.73454 13.0526 8.62451 13.6831 8.62451C14.2925 8.62451 14.832 8.73454 15.3018 8.95459C15.7715 9.17041 16.1439 9.4624 16.4189 9.83057C16.6982 10.1987 16.8527 10.6113 16.8823 11.0684L16.8887 11.1572H15.7461L15.7334 11.0747C15.6911 10.8039 15.5811 10.5648 15.4033 10.3574C15.2256 10.1458 14.9886 9.97868 14.6924 9.85596C14.3962 9.73324 14.0492 9.67399 13.6514 9.67822C13.2705 9.67822 12.9277 9.73747 12.623 9.85596C12.3184 9.97445 12.075 10.1458 11.8931 10.3701C11.7153 10.5902 11.6265 10.861 11.6265 11.1826V11.189C11.6265 11.5529 11.7619 11.8597 12.0327 12.1094C12.3035 12.359 12.75 12.5516 13.3721 12.687L14.3877 12.9155C15.0267 13.0552 15.5409 13.2371 15.9302 13.4614C16.3195 13.6857 16.603 13.9608 16.7808 14.2866C16.9627 14.6082 17.0537 14.9891 17.0537 15.4292V15.4355C17.0537 16.0068 16.9141 16.4998 16.6348 16.9146C16.3555 17.3293 15.9619 17.6509 15.4541 17.8794C14.9463 18.1037 14.3517 18.2158 13.6704 18.2158ZM21.6113 18.1206C20.9596 18.1206 20.3989 17.9767 19.9292 17.689C19.4637 17.4012 19.104 16.995 18.8501 16.4702C18.6004 15.9412 18.4756 15.3192 18.4756 14.604V14.5977C18.4756 13.891 18.6004 13.271 18.8501 12.7378C19.104 12.2046 19.4616 11.7878 19.9229 11.4873C20.3841 11.1868 20.9237 11.0366 21.5415 11.0366C22.1636 11.0366 22.6968 11.1805 23.1411 11.4683C23.5897 11.756 23.9325 12.158 24.1694 12.6743C24.4106 13.1864 24.5312 13.783 24.5312 14.4644V14.896H19.0469V14.0137H23.9663L23.4204 14.8198V14.3818C23.4204 13.8444 23.34 13.4022 23.1792 13.0552C23.0184 12.7082 22.7962 12.45 22.5127 12.2808C22.2292 12.1073 21.9033 12.0205 21.5352 12.0205C21.167 12.0205 20.8369 12.1115 20.5449 12.2935C20.2572 12.4712 20.0286 12.7357 19.8594 13.0869C19.6901 13.4382 19.6055 13.8698 19.6055 14.3818V14.8198C19.6055 15.3065 19.688 15.7233 19.853 16.0703C20.0181 16.4131 20.2529 16.6776 20.5576 16.8638C20.8623 17.0457 21.222 17.1367 21.6367 17.1367C21.9456 17.1367 22.2144 17.0944 22.4429 17.0098C22.6714 16.9251 22.8597 16.8172 23.0078 16.686C23.1559 16.5549 23.2596 16.4215 23.3188 16.2861L23.3442 16.229H24.4487L24.436 16.2798C24.3768 16.5125 24.271 16.7389 24.1187 16.959C23.9705 17.1748 23.778 17.3716 23.541 17.5493C23.304 17.7228 23.0226 17.8625 22.6968 17.9683C22.3752 18.0698 22.0133 18.1206 21.6113 18.1206ZM29.0444 18.1206C28.4054 18.1206 27.8511 17.9746 27.3813 17.6826C26.9116 17.3906 26.5477 16.978 26.2896 16.4448C26.0314 15.9116 25.9023 15.2832 25.9023 14.5596V14.5469C25.9023 13.8359 26.0293 13.2181 26.2832 12.6934C26.5413 12.1686 26.9053 11.7624 27.375 11.4746C27.8447 11.1826 28.3991 11.0366 29.0381 11.0366C29.5924 11.0366 30.0706 11.134 30.4727 11.3286C30.8747 11.5233 31.1963 11.7856 31.4375 12.1157C31.6787 12.4416 31.8332 12.8076 31.9009 13.2139L31.9072 13.252H30.8091L30.8027 13.2329C30.7181 12.8944 30.5256 12.6066 30.2251 12.3696C29.9246 12.1326 29.529 12.0142 29.0381 12.0142C28.6276 12.0142 28.2721 12.1178 27.9717 12.3252C27.6712 12.5326 27.4385 12.8267 27.2734 13.2075C27.1126 13.5841 27.0322 14.0306 27.0322 14.5469V14.5596C27.0322 15.0843 27.1147 15.5413 27.2798 15.9307C27.4448 16.3158 27.6776 16.6141 27.978 16.8257C28.2785 17.0373 28.6318 17.1431 29.0381 17.1431C29.4993 17.1431 29.876 17.0436 30.168 16.8447C30.46 16.6458 30.6694 16.356 30.7964 15.9751L30.8091 15.937L31.9009 15.9307L31.8882 16.0005C31.7951 16.411 31.63 16.777 31.3931 17.0986C31.1561 17.416 30.8429 17.6657 30.4536 17.8477C30.0643 18.0296 29.5946 18.1206 29.0444 18.1206ZM35.811 18.1206C35.2948 18.1206 34.861 18.0233 34.5098 17.8286C34.1585 17.6297 33.894 17.342 33.7163 16.9653C33.5428 16.5845 33.4561 16.1253 33.4561 15.5879V11.1572H34.5605V15.3213C34.5605 15.9349 34.679 16.3919 34.916 16.6924C35.1572 16.9928 35.5508 17.1431 36.0967 17.1431C36.3971 17.1431 36.6616 17.0986 36.8901 17.0098C37.1229 16.9209 37.3175 16.7939 37.4741 16.6289C37.6307 16.4596 37.7471 16.2565 37.8232 16.0195C37.9036 15.7783 37.9438 15.5075 37.9438 15.207V11.1572H39.0483V18H37.9438V16.978H37.8423C37.7323 17.2192 37.582 17.4266 37.3916 17.6001C37.2012 17.7694 36.9727 17.8984 36.7061 17.9873C36.4437 18.0762 36.1453 18.1206 35.811 18.1206ZM41.1113 18V11.1572H42.2158V12.1729H42.3174C42.4486 11.8132 42.6707 11.5339 42.9839 11.335C43.297 11.1361 43.6842 11.0366 44.1455 11.0366C44.2513 11.0366 44.355 11.043 44.4565 11.0557C44.5623 11.0641 44.6427 11.0726 44.6978 11.0811V12.1538C44.5835 12.1326 44.4714 12.1178 44.3613 12.1094C44.2555 12.0967 44.1413 12.0903 44.0186 12.0903C43.6673 12.0903 43.3563 12.1602 43.0854 12.2998C42.8146 12.4395 42.6009 12.6341 42.4443 12.8838C42.292 13.1335 42.2158 13.4255 42.2158 13.7598V18H41.1113ZM46.0879 18V11.1572H47.1924V18H46.0879ZM46.6465 9.83691C46.4391 9.83691 46.2593 9.76286 46.1069 9.61475C45.9588 9.4624 45.8848 9.28255 45.8848 9.0752C45.8848 8.86361 45.9588 8.68376 46.1069 8.53564C46.2593 8.38753 46.4391 8.31348 46.6465 8.31348C46.8581 8.31348 47.0379 8.38753 47.186 8.53564C47.3341 8.68376 47.4082 8.86361 47.4082 9.0752C47.4082 9.28255 47.3341 9.4624 47.186 9.61475C47.0379 9.76286 46.8581 9.83691 46.6465 9.83691ZM51.7056 18.0508C51.0031 18.0508 50.4932 17.909 50.1758 17.6255C49.8626 17.342 49.7061 16.8743 49.7061 16.2227V12.0713H48.627V11.1572H49.7061V9.38623H50.8486V11.1572H52.3467V12.0713H50.8486V15.9434C50.8486 16.3454 50.9248 16.6353 51.0771 16.813C51.2295 16.9865 51.4834 17.0732 51.8389 17.0732C51.9362 17.0732 52.0187 17.0711 52.0864 17.0669C52.1584 17.0627 52.2451 17.0563 52.3467 17.0479V17.9873C52.2409 18.0042 52.1351 18.019 52.0293 18.0317C51.9235 18.0444 51.8156 18.0508 51.7056 18.0508ZM54.5811 20.3994C54.5091 20.3994 54.4287 20.3952 54.3398 20.3867C54.251 20.3825 54.1685 20.374 54.0923 20.3613V19.4536C54.16 19.4663 54.234 19.4748 54.3145 19.479C54.3949 19.4832 54.4731 19.4854 54.5493 19.4854C54.8625 19.4854 55.1185 19.4049 55.3174 19.2441C55.5205 19.0833 55.6834 18.8062 55.8062 18.4126L55.9331 18.0063L53.4004 11.1572H54.5811L56.6885 17.4795L56.2505 16.7876H56.771L56.333 17.4795L58.4341 11.1572H59.5957L56.9233 18.4189C56.7371 18.931 56.5404 19.3309 56.333 19.6187C56.1257 19.9064 55.8823 20.1074 55.603 20.2217C55.328 20.3402 54.9873 20.3994 54.5811 20.3994ZM68.6982 18.2158C67.8223 18.2158 67.0711 18.0212 66.4448 17.6318C65.8185 17.2383 65.3361 16.6818 64.9976 15.9624C64.6632 15.243 64.4961 14.3966 64.4961 13.4233V13.4106C64.4961 12.4289 64.6654 11.5804 65.0039 10.8652C65.3467 10.1501 65.8312 9.59782 66.4575 9.2085C67.0881 8.81917 67.835 8.62451 68.6982 8.62451C69.5658 8.62451 70.3127 8.81917 70.939 9.2085C71.5695 9.59782 72.054 10.1522 72.3926 10.8716C72.7311 11.5868 72.9004 12.4331 72.9004 13.4106V13.4233C72.9004 14.3966 72.7311 15.243 72.3926 15.9624C72.0583 16.6776 71.5758 17.2319 70.9453 17.6255C70.319 18.019 69.57 18.2158 68.6982 18.2158ZM68.6982 17.1621C69.3245 17.1621 69.8641 17.0076 70.3169 16.6987C70.7697 16.3898 71.1188 15.9561 71.3643 15.3975C71.6097 14.8346 71.7324 14.1766 71.7324 13.4233V13.4106C71.7324 12.6489 71.6097 11.9888 71.3643 11.4302C71.1188 10.8716 70.7697 10.4399 70.3169 10.1353C69.8641 9.83057 69.3245 9.67822 68.6982 9.67822C68.0762 9.67822 67.5387 9.83057 67.0859 10.1353C66.6331 10.4399 66.2819 10.8716 66.0322 11.4302C65.7868 11.9888 65.6641 12.6489 65.6641 13.4106V13.4233C65.6641 14.1766 65.7847 14.8346 66.0259 15.3975C66.2671 15.9561 66.6141 16.3898 67.0669 16.6987C67.5197 17.0076 68.0635 17.1621 68.6982 17.1621ZM71.1865 19.0347L68.5269 15.3784H69.8091L72.4688 19.0347H71.1865ZM77.0327 18.1206C76.5164 18.1206 76.0827 18.0233 75.7314 17.8286C75.3802 17.6297 75.1157 17.342 74.938 16.9653C74.7645 16.5845 74.6777 16.1253 74.6777 15.5879V11.1572H75.7822V15.3213C75.7822 15.9349 75.9007 16.3919 76.1377 16.6924C76.3789 16.9928 76.7725 17.1431 77.3184 17.1431C77.6188 17.1431 77.8833 17.0986 78.1118 17.0098C78.3446 16.9209 78.5392 16.7939 78.6958 16.6289C78.8524 16.4596 78.9688 16.2565 79.0449 16.0195C79.1253 15.7783 79.1655 15.5075 79.1655 15.207V11.1572H80.27V18H79.1655V16.978H79.064C78.9539 17.2192 78.8037 17.4266 78.6133 17.6001C78.4229 17.7694 78.1943 17.8984 77.9277 17.9873C77.6654 18.0762 77.367 18.1206 77.0327 18.1206ZM85.126 18.1206C84.4743 18.1206 83.9136 17.9767 83.4438 17.689C82.9784 17.4012 82.6187 16.995 82.3647 16.4702C82.1151 15.9412 81.9902 15.3192 81.9902 14.604V14.5977C81.9902 13.891 82.1151 13.271 82.3647 12.7378C82.6187 12.2046 82.9762 11.7878 83.4375 11.4873C83.8988 11.1868 84.4383 11.0366 85.0562 11.0366C85.6782 11.0366 86.2114 11.1805 86.6558 11.4683C87.1043 11.756 87.4471 12.158 87.6841 12.6743C87.9253 13.1864 88.0459 13.783 88.0459 14.4644V14.896H82.5615V14.0137H87.481L86.9351 14.8198V14.3818C86.9351 13.8444 86.8547 13.4022 86.6938 13.0552C86.533 12.7082 86.3109 12.45 86.0273 12.2808C85.7438 12.1073 85.418 12.0205 85.0498 12.0205C84.6816 12.0205 84.3516 12.1115 84.0596 12.2935C83.7718 12.4712 83.5433 12.7357 83.374 13.0869C83.2048 13.4382 83.1201 13.8698 83.1201 14.3818V14.8198C83.1201 15.3065 83.2026 15.7233 83.3677 16.0703C83.5327 16.4131 83.7676 16.6776 84.0723 16.8638C84.377 17.0457 84.7367 17.1367 85.1514 17.1367C85.4603 17.1367 85.729 17.0944 85.9575 17.0098C86.186 16.9251 86.3743 16.8172 86.5225 16.686C86.6706 16.5549 86.7743 16.4215 86.8335 16.2861L86.8589 16.229H87.9634L87.9507 16.2798C87.8914 16.5125 87.7856 16.7389 87.6333 16.959C87.4852 17.1748 87.2926 17.3716 87.0557 17.5493C86.8187 17.7228 86.5373 17.8625 86.2114 17.9683C85.8898 18.0698 85.528 18.1206 85.126 18.1206ZM92.1084 18.1206C91.6006 18.1206 91.152 18.0444 90.7627 17.8921C90.3734 17.7355 90.0602 17.5176 89.8232 17.2383C89.5905 16.959 89.453 16.631 89.4106 16.2544H90.5405C90.6336 16.5379 90.8156 16.7664 91.0864 16.9399C91.3573 17.1134 91.7106 17.2002 92.1465 17.2002C92.4554 17.2002 92.7262 17.1558 92.959 17.0669C93.196 16.9738 93.3822 16.849 93.5176 16.6924C93.653 16.5316 93.7207 16.3475 93.7207 16.1401V16.1274C93.7207 15.8947 93.6276 15.6979 93.4414 15.5371C93.2552 15.3721 92.9505 15.2388 92.5273 15.1372L91.4673 14.8833C91.0399 14.7817 90.6886 14.6506 90.4136 14.4897C90.1385 14.3247 89.9354 14.1237 89.8042 13.8867C89.673 13.6455 89.6074 13.362 89.6074 13.0361V13.0298C89.6074 12.6489 89.7174 12.3083 89.9375 12.0078C90.1618 11.7074 90.4665 11.4704 90.8516 11.2969C91.2367 11.1234 91.6704 11.0366 92.1528 11.0366C92.631 11.0366 93.0542 11.1128 93.4224 11.2651C93.7948 11.4132 94.0931 11.6248 94.3174 11.8999C94.5459 12.175 94.6855 12.4987 94.7363 12.8711H93.6509C93.5789 12.6003 93.4139 12.3802 93.1558 12.2109C92.8976 12.0417 92.5612 11.957 92.1465 11.957C91.8757 11.957 91.6344 12.0015 91.4229 12.0903C91.2113 12.175 91.0441 12.2935 90.9214 12.4458C90.7987 12.5981 90.7373 12.7759 90.7373 12.979V12.9917C90.7373 13.144 90.7775 13.2795 90.8579 13.3979C90.9383 13.5164 91.0632 13.6201 91.2324 13.709C91.4017 13.7979 91.6196 13.8761 91.8862 13.9438L92.9399 14.1978C93.5832 14.3543 94.0614 14.5786 94.3745 14.8706C94.6919 15.1626 94.8506 15.554 94.8506 16.0449V16.0576C94.8506 16.4639 94.73 16.8236 94.4888 17.1367C94.2476 17.4456 93.9196 17.6868 93.5049 17.8604C93.0944 18.0339 92.6289 18.1206 92.1084 18.1206ZM98.9321 18.0508C98.2297 18.0508 97.7197 17.909 97.4023 17.6255C97.0892 17.342 96.9326 16.8743 96.9326 16.2227V12.0713H95.8535V11.1572H96.9326V9.38623H98.0752V11.1572H99.5732V12.0713H98.0752V15.9434C98.0752 16.3454 98.1514 16.6353 98.3037 16.813C98.4561 16.9865 98.71 17.0732 99.0654 17.0732C99.1628 17.0732 99.2453 17.0711 99.313 17.0669C99.3849 17.0627 99.4717 17.0563 99.5732 17.0479V17.9873C99.4674 18.0042 99.3617 18.019 99.2559 18.0317C99.1501 18.0444 99.0422 18.0508 98.9321 18.0508ZM101.249 18V11.1572H102.354V18H101.249ZM101.808 9.83691C101.6 9.83691 101.42 9.76286 101.268 9.61475C101.12 9.4624 101.046 9.28255 101.046 9.0752C101.046 8.86361 101.12 8.68376 101.268 8.53564C101.42 8.38753 101.6 8.31348 101.808 8.31348C102.019 8.31348 102.199 8.38753 102.347 8.53564C102.495 8.68376 102.569 8.86361 102.569 9.0752C102.569 9.28255 102.495 9.4624 102.347 9.61475C102.199 9.76286 102.019 9.83691 101.808 9.83691ZM107.248 18.1206C106.6 18.1206 106.039 17.9788 105.565 17.6953C105.096 17.4076 104.732 16.9992 104.474 16.4702C104.22 15.9412 104.093 15.3128 104.093 14.585V14.5723C104.093 13.8402 104.22 13.2096 104.474 12.6807C104.732 12.1517 105.096 11.7454 105.565 11.4619C106.039 11.1784 106.6 11.0366 107.248 11.0366C107.899 11.0366 108.46 11.1784 108.93 11.4619C109.399 11.7454 109.761 12.1517 110.015 12.6807C110.273 13.2096 110.402 13.8402 110.402 14.5723V14.585C110.402 15.3128 110.273 15.9412 110.015 16.4702C109.761 16.9992 109.399 17.4076 108.93 17.6953C108.46 17.9788 107.899 18.1206 107.248 18.1206ZM107.248 17.1431C107.679 17.1431 108.045 17.0415 108.346 16.8384C108.646 16.6353 108.875 16.3433 109.031 15.9624C109.192 15.5815 109.272 15.1224 109.272 14.585V14.5723C109.272 14.0306 109.192 13.5693 109.031 13.1885C108.875 12.8076 108.646 12.5177 108.346 12.3188C108.045 12.1157 107.679 12.0142 107.248 12.0142C106.816 12.0142 106.45 12.1157 106.149 12.3188C105.849 12.5177 105.618 12.8076 105.458 13.1885C105.301 13.5693 105.223 14.0306 105.223 14.5723V14.585C105.223 15.1224 105.301 15.5815 105.458 15.9624C105.618 16.3433 105.849 16.6353 106.149 16.8384C106.45 17.0415 106.816 17.1431 107.248 17.1431ZM112.116 18V11.1572H113.221V12.1855H113.322C113.496 11.8216 113.745 11.5402 114.071 11.3413C114.397 11.1382 114.812 11.0366 115.315 11.0366C116.086 11.0366 116.676 11.2567 117.086 11.6968C117.501 12.1326 117.708 12.7568 117.708 13.5693V18H116.604V13.8359C116.604 13.2181 116.473 12.7611 116.21 12.4648C115.952 12.1644 115.55 12.0142 115.004 12.0142C114.64 12.0142 114.325 12.0924 114.059 12.249C113.792 12.4056 113.585 12.6278 113.437 12.9155C113.293 13.2033 113.221 13.5482 113.221 13.9502V18H112.116ZM122.774 18L126.151 8.84033H127.027V10.3193H126.665L123.974 18H122.774ZM124.304 15.3784L124.659 14.4072H128.798L129.153 15.3784H124.304ZM129.458 18L126.767 10.3193V8.84033H127.281L130.658 18H129.458ZM132.124 18V11.1572H133.229V12.1855H133.33C133.504 11.8216 133.753 11.5402 134.079 11.3413C134.405 11.1382 134.82 11.0366 135.323 11.0366C136.093 11.0366 136.684 11.2567 137.094 11.6968C137.509 12.1326 137.716 12.7568 137.716 13.5693V18H136.612V13.8359C136.612 13.2181 136.481 12.7611 136.218 12.4648C135.96 12.1644 135.558 12.0142 135.012 12.0142C134.648 12.0142 134.333 12.0924 134.066 12.249C133.8 12.4056 133.592 12.6278 133.444 12.9155C133.3 13.2033 133.229 13.5482 133.229 13.9502V18H132.124ZM142.064 18.1206C141.557 18.1206 141.108 18.0444 140.719 17.8921C140.329 17.7355 140.016 17.5176 139.779 17.2383C139.547 16.959 139.409 16.631 139.367 16.2544H140.497C140.59 16.5379 140.772 16.7664 141.042 16.9399C141.313 17.1134 141.667 17.2002 142.103 17.2002C142.411 17.2002 142.682 17.1558 142.915 17.0669C143.152 16.9738 143.338 16.849 143.474 16.6924C143.609 16.5316 143.677 16.3475 143.677 16.1401V16.1274C143.677 15.8947 143.584 15.6979 143.397 15.5371C143.211 15.3721 142.907 15.2388 142.483 15.1372L141.423 14.8833C140.996 14.7817 140.645 14.6506 140.37 14.4897C140.095 14.3247 139.891 14.1237 139.76 13.8867C139.629 13.6455 139.563 13.362 139.563 13.0361V13.0298C139.563 12.6489 139.674 12.3083 139.894 12.0078C140.118 11.7074 140.423 11.4704 140.808 11.2969C141.193 11.1234 141.626 11.0366 142.109 11.0366C142.587 11.0366 143.01 11.1128 143.378 11.2651C143.751 11.4132 144.049 11.6248 144.273 11.8999C144.502 12.175 144.642 12.4987 144.692 12.8711H143.607C143.535 12.6003 143.37 12.3802 143.112 12.2109C142.854 12.0417 142.517 11.957 142.103 11.957C141.832 11.957 141.59 12.0015 141.379 12.0903C141.167 12.175 141 12.2935 140.877 12.4458C140.755 12.5981 140.693 12.7759 140.693 12.979V12.9917C140.693 13.144 140.734 13.2795 140.814 13.3979C140.894 13.5164 141.019 13.6201 141.188 13.709C141.358 13.7979 141.576 13.8761 141.842 13.9438L142.896 14.1978C143.539 14.3543 144.017 14.5786 144.331 14.8706C144.648 15.1626 144.807 15.554 144.807 16.0449V16.0576C144.807 16.4639 144.686 16.8236 144.445 17.1367C144.204 17.4456 143.876 17.6868 143.461 17.8604C143.05 18.0339 142.585 18.1206 142.064 18.1206ZM147.65 18L145.733 11.1572H146.838L148.184 16.6289H148.285L149.815 11.1572H150.862L152.392 16.6289H152.494L153.839 11.1572H154.938L153.021 18H151.91L150.38 12.7061H150.278L148.755 18H147.65ZM158.937 18.1206C158.285 18.1206 157.724 17.9767 157.254 17.689C156.789 17.4012 156.429 16.995 156.175 16.4702C155.926 15.9412 155.801 15.3192 155.801 14.604V14.5977C155.801 13.891 155.926 13.271 156.175 12.7378C156.429 12.2046 156.787 11.7878 157.248 11.4873C157.709 11.1868 158.249 11.0366 158.867 11.0366C159.489 11.0366 160.022 11.1805 160.466 11.4683C160.915 11.756 161.258 12.158 161.495 12.6743C161.736 13.1864 161.856 13.783 161.856 14.4644V14.896H156.372V14.0137H161.292L160.746 14.8198V14.3818C160.746 13.8444 160.665 13.4022 160.504 13.0552C160.344 12.7082 160.121 12.45 159.838 12.2808C159.554 12.1073 159.229 12.0205 158.86 12.0205C158.492 12.0205 158.162 12.1115 157.87 12.2935C157.582 12.4712 157.354 12.7357 157.185 13.0869C157.015 13.4382 156.931 13.8698 156.931 14.3818V14.8198C156.931 15.3065 157.013 15.7233 157.178 16.0703C157.343 16.4131 157.578 16.6776 157.883 16.8638C158.188 17.0457 158.547 17.1367 158.962 17.1367C159.271 17.1367 159.54 17.0944 159.768 17.0098C159.997 16.9251 160.185 16.8172 160.333 16.686C160.481 16.5549 160.585 16.4215 160.644 16.2861L160.669 16.229H161.774L161.761 16.2798C161.702 16.5125 161.596 16.7389 161.444 16.959C161.296 17.1748 161.103 17.3716 160.866 17.5493C160.629 17.7228 160.348 17.8625 160.022 17.9683C159.7 18.0698 159.339 18.1206 158.937 18.1206ZM163.57 18V11.1572H164.675V12.1729H164.776C164.908 11.8132 165.13 11.5339 165.443 11.335C165.756 11.1361 166.143 11.0366 166.604 11.0366C166.71 11.0366 166.814 11.043 166.916 11.0557C167.021 11.0641 167.102 11.0726 167.157 11.0811V12.1538C167.042 12.1326 166.93 12.1178 166.82 12.1094C166.715 12.0967 166.6 12.0903 166.478 12.0903C166.126 12.0903 165.815 12.1602 165.544 12.2998C165.274 12.4395 165.06 12.6341 164.903 12.8838C164.751 13.1335 164.675 13.4255 164.675 13.7598V18H163.57Z" fill="black" fill-opacity="0.25"/>
</g>
<defs>
<filter id="filter0_dd_794_4687" x="0" y="0" width="211" height="27" filterUnits="userSpaceOnUse" color-interpolation-filters="sRGB">
<feFlood flood-opacity="0" result="BackgroundImageFix"/>
<feColorMatrix in="SourceAlpha" type="matrix" values="0 0 0 0 0 0 0 0 0 0 0 0 0 0 0 0 0 0 127 0" result="hardAlpha"/>
<feMorphology radius="0.5" operator="dilate" in="SourceAlpha" result="effect1_dropShadow_794_4687"/>
<feOffset/>
<feComposite in2="hardAlpha" operator="out"/>
<feColorMatrix type="matrix" values="0 0 0 0 0 0 0 0 0 0 0 0 0 0 0 0 0 0 0.05 0"/>
<feBlend mode="normal" in2="BackgroundImageFix" result="effect1_dropShadow_794_4687"/>
<feColorMatrix in="SourceAlpha" type="matrix" values="0 0 0 0 0 0 0 0 0 0 0 0 0 0 0 0 0 0 127 0" result="hardAlpha"/>
<feOffset dy="0.5"/>
<feGaussianBlur stdDeviation="1.25"/>
<feComposite in2="hardAlpha" operator="out"/>
<feColorMatrix type="matrix" values="0 0 0 0 0 0 0 0 0 0 0 0 0 0 0 0 0 0 0.3 0"/>
<feBlend mode="normal" in2="effect1_dropShadow_794_4687" result="effect2_dropShadow_794_4687"/>
<feBlend mode="normal" in="SourceGraphic" in2="effect2_dropShadow_794_4687" result="shape"/>
</filter>
</defs>
</svg>
