<svg width="180" height="28" viewBox="0 0 180 28" fill="none" xmlns="http://www.w3.org/2000/svg">
<rect width="180" height="28" rx="5" fill="#03A200" style="mix-blend-mode:soft-light"/>
<rect width="180" height="28" rx="5" fill="#03A200" fill-opacity="0.75"/>
<path d="M12.4775 18.4224C12.1898 18.2573 11.9697 18.0669 11.8174 17.8511C11.665 17.6353 11.5889 17.3009 11.5889 16.8481V11.8208C11.5889 11.4907 11.6502 11.2178 11.7729 11.002C11.8999 10.7819 12.0988 10.5957 12.3696 10.4434L16.8574 7.8916C17.2425 7.67155 17.6234 7.56152 18 7.56152C18.3766 7.56152 18.7554 7.67155 19.1362 7.8916L23.6304 10.4434C23.897 10.5957 24.0916 10.7819 24.2144 11.002C24.3413 11.2178 24.4048 11.4907 24.4048 11.8208V16.8481C24.4048 17.3009 24.3286 17.6353 24.1763 17.8511C24.0282 18.0669 23.8081 18.2573 23.5161 18.4224L18.5269 21.2534C18.3449 21.355 18.1672 21.4058 17.9937 21.4058C17.8244 21.4058 17.6509 21.355 17.4731 21.2534L12.4775 18.4224ZM13.0488 17.5845L17.4985 20.1172V14.8486L12.5537 12.0239V16.8164C12.5537 16.9899 12.5897 17.1359 12.6616 17.2544C12.7336 17.3729 12.8626 17.4829 13.0488 17.5845ZM22.9512 17.5845C23.1331 17.4829 23.2601 17.3729 23.332 17.2544C23.404 17.1359 23.4399 16.9899 23.4399 16.8164V12.0239L18.4951 14.8486V20.1172L22.9512 17.5845ZM18 13.96L19.9614 12.8491L15.061 10.0625L13.0996 11.186L18 13.96ZM20.9834 12.2715L22.9004 11.186L18.7173 8.79932C18.2433 8.52425 17.7651 8.52425 17.2827 8.79932L16.064 9.49121L20.9834 12.2715Z" fill="white"/>
<path d="M31.168 19V9.84033H32.3105V19H31.168ZM34.5068 19V12.1572H35.6113V13.1855H35.7129C35.8864 12.8216 36.1361 12.5402 36.4619 12.3413C36.7878 12.1382 37.2025 12.0366 37.7061 12.0366C38.4762 12.0366 39.0666 12.2567 39.4771 12.6968C39.8918 13.1326 40.0991 13.7568 40.0991 14.5693V19H38.9946V14.8359C38.9946 14.2181 38.8634 13.7611 38.6011 13.4648C38.3429 13.1644 37.9409 13.0142 37.395 13.0142C37.0311 13.0142 36.7158 13.0924 36.4492 13.249C36.1826 13.4056 35.9753 13.6278 35.8271 13.9155C35.6833 14.2033 35.6113 14.5482 35.6113 14.9502V19H34.5068ZM43.7808 19L41.248 12.1572H42.416L44.2886 17.7939H44.3901L46.2627 12.1572H47.4307L44.8979 19H43.7808ZM51.4297 19.1206C50.778 19.1206 50.2173 18.9767 49.7476 18.689C49.2821 18.4012 48.9224 17.995 48.6685 17.4702C48.4188 16.9412 48.2939 16.3192 48.2939 15.604V15.5977C48.2939 14.891 48.4188 14.271 48.6685 13.7378C48.9224 13.2046 49.2799 12.7878 49.7412 12.4873C50.2025 12.1868 50.742 12.0366 51.3599 12.0366C51.9819 12.0366 52.5151 12.1805 52.9595 12.4683C53.408 12.756 53.7508 13.158 53.9878 13.6743C54.229 14.1864 54.3496 14.783 54.3496 15.4644V15.896H48.8652V15.0137H53.7847L53.2388 15.8198V15.3818C53.2388 14.8444 53.1584 14.4022 52.9976 14.0552C52.8368 13.7082 52.6146 13.45 52.3311 13.2808C52.0475 13.1073 51.7217 13.0205 51.3535 13.0205C50.9854 13.0205 50.6553 13.1115 50.3633 13.2935C50.0755 13.4712 49.847 13.7357 49.6777 14.0869C49.5085 14.4382 49.4238 14.8698 49.4238 15.3818V15.8198C49.4238 16.3065 49.5063 16.7233 49.6714 17.0703C49.8364 17.4131 50.0713 17.6776 50.376 17.8638C50.6807 18.0457 51.0404 18.1367 51.4551 18.1367C51.764 18.1367 52.0327 18.0944 52.2612 18.0098C52.4897 17.9251 52.6781 17.8172 52.8262 17.686C52.9743 17.5549 53.078 17.4215 53.1372 17.2861L53.1626 17.229H54.2671L54.2544 17.2798C54.1951 17.5125 54.0894 17.7389 53.937 17.959C53.7889 18.1748 53.5964 18.3716 53.3594 18.5493C53.1224 18.7228 52.841 18.8625 52.5151 18.9683C52.1935 19.0698 51.8317 19.1206 51.4297 19.1206ZM56.0635 19V12.1572H57.168V13.1855H57.2695C57.443 12.8216 57.6927 12.5402 58.0186 12.3413C58.3444 12.1382 58.7591 12.0366 59.2627 12.0366C60.0329 12.0366 60.6232 12.2567 61.0337 12.6968C61.4484 13.1326 61.6558 13.7568 61.6558 14.5693V19H60.5513V14.8359C60.5513 14.2181 60.4201 13.7611 60.1577 13.4648C59.8996 13.1644 59.4976 13.0142 58.9517 13.0142C58.5877 13.0142 58.2725 13.0924 58.0059 13.249C57.7393 13.4056 57.5319 13.6278 57.3838 13.9155C57.2399 14.2033 57.168 14.5482 57.168 14.9502V19H56.0635ZM66.0864 19.0508C65.384 19.0508 64.874 18.909 64.5566 18.6255C64.2435 18.342 64.0869 17.8743 64.0869 17.2227V13.0713H63.0078V12.1572H64.0869V10.3862H65.2295V12.1572H66.7275V13.0713H65.2295V16.9434C65.2295 17.3454 65.3057 17.6353 65.458 17.813C65.6104 17.9865 65.8643 18.0732 66.2197 18.0732C66.3171 18.0732 66.3996 18.0711 66.4673 18.0669C66.5392 18.0627 66.626 18.0563 66.7275 18.0479V18.9873C66.6217 19.0042 66.516 19.019 66.4102 19.0317C66.3044 19.0444 66.1965 19.0508 66.0864 19.0508ZM71.1011 19.1206C70.4536 19.1206 69.8929 18.9788 69.4189 18.6953C68.9492 18.4076 68.5853 17.9992 68.3271 17.4702C68.0732 16.9412 67.9463 16.3128 67.9463 15.585V15.5723C67.9463 14.8402 68.0732 14.2096 68.3271 13.6807C68.5853 13.1517 68.9492 12.7454 69.4189 12.4619C69.8929 12.1784 70.4536 12.0366 71.1011 12.0366C71.7528 12.0366 72.3135 12.1784 72.7832 12.4619C73.2529 12.7454 73.6147 13.1517 73.8687 13.6807C74.1268 14.2096 74.2559 14.8402 74.2559 15.5723V15.585C74.2559 16.3128 74.1268 16.9412 73.8687 17.4702C73.6147 17.9992 73.2529 18.4076 72.7832 18.6953C72.3135 18.9788 71.7528 19.1206 71.1011 19.1206ZM71.1011 18.1431C71.5327 18.1431 71.8988 18.0415 72.1992 17.8384C72.4997 17.6353 72.7282 17.3433 72.8848 16.9624C73.0456 16.5815 73.126 16.1224 73.126 15.585V15.5723C73.126 15.0306 73.0456 14.5693 72.8848 14.1885C72.7282 13.8076 72.4997 13.5177 72.1992 13.3188C71.8988 13.1157 71.5327 13.0142 71.1011 13.0142C70.6694 13.0142 70.3034 13.1157 70.0029 13.3188C69.7025 13.5177 69.4718 13.8076 69.311 14.1885C69.1545 14.5693 69.0762 15.0306 69.0762 15.5723V15.585C69.0762 16.1224 69.1545 16.5815 69.311 16.9624C69.4718 17.3433 69.7025 17.6353 70.0029 17.8384C70.3034 18.0415 70.6694 18.1431 71.1011 18.1431ZM75.9697 19V12.1572H77.0742V13.1729H77.1758C77.307 12.8132 77.5291 12.5339 77.8423 12.335C78.1554 12.1361 78.5426 12.0366 79.0039 12.0366C79.1097 12.0366 79.2134 12.043 79.3149 12.0557C79.4207 12.0641 79.5011 12.0726 79.5562 12.0811V13.1538C79.4419 13.1326 79.3298 13.1178 79.2197 13.1094C79.1139 13.0967 78.9997 13.0903 78.877 13.0903C78.5257 13.0903 78.2147 13.1602 77.9438 13.2998C77.673 13.4395 77.4593 13.6341 77.3027 13.8838C77.1504 14.1335 77.0742 14.4255 77.0742 14.7598V19H75.9697ZM81.5684 21.3994C81.4964 21.3994 81.416 21.3952 81.3271 21.3867C81.2383 21.3825 81.1558 21.374 81.0796 21.3613V20.4536C81.1473 20.4663 81.2214 20.4748 81.3018 20.479C81.3822 20.4832 81.4604 20.4854 81.5366 20.4854C81.8498 20.4854 82.1058 20.4049 82.3047 20.2441C82.5078 20.0833 82.6707 19.8062 82.7935 19.4126L82.9204 19.0063L80.3877 12.1572H81.5684L83.6758 18.4795L83.2378 17.7876H83.7583L83.3203 18.4795L85.4214 12.1572H86.583L83.9106 19.4189C83.7244 19.931 83.5277 20.3309 83.3203 20.6187C83.113 20.9064 82.8696 21.1074 82.5903 21.2217C82.3153 21.3402 81.9746 21.3994 81.5684 21.3994Z" fill="white"/>
</svg>
