<svg width="180" height="28" viewBox="0 0 180 28" fill="none" xmlns="http://www.w3.org/2000/svg">
<path d="M17.9937 20.4854C17.9132 20.4854 17.835 20.4832 17.7588 20.479C17.6826 20.479 17.6064 20.4748 17.5303 20.4663L17.1812 21.1328C17.1431 21.209 17.0881 21.264 17.0161 21.2979C16.9442 21.3359 16.8638 21.3465 16.7749 21.3296C16.6903 21.3127 16.6204 21.2746 16.5654 21.2153C16.5146 21.1561 16.4808 21.082 16.4639 20.9932L16.3496 20.2632C16.2015 20.2209 16.0555 20.1722 15.9116 20.1172C15.772 20.0664 15.6302 20.0114 15.4863 19.9521L14.9468 20.4346C14.8791 20.4938 14.805 20.5298 14.7246 20.5425C14.6442 20.5552 14.5596 20.5382 14.4707 20.4917C14.3988 20.4494 14.348 20.3901 14.3184 20.314C14.293 20.2378 14.2887 20.1553 14.3057 20.0664L14.4453 19.3491C14.3268 19.2603 14.2083 19.1672 14.0898 19.0698C13.9714 18.9725 13.8571 18.8709 13.7471 18.7651L13.0806 19.0444C12.9917 19.0825 12.9071 19.091 12.8267 19.0698C12.7463 19.0487 12.6743 19 12.6108 18.9238C12.5601 18.8604 12.5304 18.7884 12.522 18.708C12.5177 18.6234 12.5389 18.543 12.5854 18.4668L12.9727 17.8384C12.888 17.7157 12.8076 17.5887 12.7314 17.4575C12.6595 17.3221 12.5876 17.1846 12.5156 17.0449L11.7793 17.0703C11.6947 17.0788 11.6164 17.0618 11.5444 17.0195C11.4725 16.973 11.4238 16.9053 11.3984 16.8164C11.3688 16.7318 11.3667 16.6514 11.3921 16.5752C11.4175 16.499 11.464 16.4334 11.5317 16.3784L12.103 15.9214C12.0649 15.7733 12.0332 15.6252 12.0078 15.4771C11.9824 15.3247 11.9655 15.1681 11.957 15.0073L11.2524 14.7852C11.1636 14.7598 11.0959 14.7153 11.0493 14.6519C11.0028 14.5841 10.9795 14.5059 10.9795 14.417C10.9795 14.3239 11.0028 14.2456 11.0493 14.1821C11.0959 14.1187 11.1636 14.0742 11.2524 14.0488L11.957 13.8267C11.9655 13.6659 11.9824 13.5114 12.0078 13.3633C12.0332 13.2109 12.0649 13.0607 12.103 12.9126L11.5317 12.4492C11.464 12.3984 11.4175 12.335 11.3921 12.2588C11.3667 12.1826 11.3688 12.1043 11.3984 12.0239C11.4238 11.9351 11.4725 11.8695 11.5444 11.8271C11.6164 11.7806 11.6947 11.7616 11.7793 11.77L12.5156 11.7891C12.5876 11.6494 12.6595 11.514 12.7314 11.3828C12.8076 11.2516 12.888 11.1204 12.9727 10.9893L12.5791 10.3608C12.5368 10.2889 12.5177 10.2127 12.522 10.1323C12.5304 10.0519 12.5601 9.97998 12.6108 9.9165C12.6743 9.84033 12.7441 9.79378 12.8203 9.77686C12.9007 9.7557 12.9854 9.76204 13.0742 9.7959L13.7471 10.0625C13.8571 9.96517 13.9714 9.86784 14.0898 9.77051C14.2083 9.66895 14.3268 9.57373 14.4453 9.48486L14.3057 8.77393C14.2845 8.68083 14.2887 8.59619 14.3184 8.52002C14.348 8.44385 14.3988 8.38672 14.4707 8.34863C14.5553 8.30208 14.6379 8.28516 14.7183 8.29785C14.8029 8.30632 14.8791 8.34229 14.9468 8.40576L15.4863 8.87549C15.6302 8.82048 15.772 8.76758 15.9116 8.7168C16.0555 8.66178 16.2015 8.61312 16.3496 8.5708L16.4639 7.84717C16.4808 7.7583 16.5146 7.68424 16.5654 7.625C16.6204 7.56576 16.6903 7.52767 16.7749 7.51074C16.8638 7.49382 16.9442 7.50439 17.0161 7.54248C17.0881 7.57633 17.1431 7.62923 17.1812 7.70117L17.5303 8.36768C17.6107 8.35921 17.6868 8.35498 17.7588 8.35498C17.835 8.35075 17.9132 8.34863 17.9937 8.34863C18.0698 8.34863 18.146 8.35075 18.2222 8.35498C18.2983 8.35498 18.3745 8.35921 18.4507 8.36768L18.8062 7.70117C18.84 7.62923 18.8929 7.57633 18.9648 7.54248C19.041 7.50439 19.1235 7.49382 19.2124 7.51074C19.297 7.52767 19.3669 7.56576 19.4219 7.625C19.4811 7.68424 19.515 7.7583 19.5234 7.84717L19.6377 8.57715C19.7816 8.61523 19.9255 8.66178 20.0693 8.7168C20.2132 8.76758 20.355 8.82048 20.4946 8.87549L21.0405 8.39941C21.104 8.34017 21.1759 8.30632 21.2563 8.29785C21.341 8.28516 21.4256 8.30208 21.5103 8.34863C21.5822 8.38672 21.633 8.44385 21.6626 8.52002C21.6965 8.59619 21.7028 8.68083 21.6816 8.77393L21.5356 9.48486C21.6541 9.57373 21.7726 9.66895 21.8911 9.77051C22.0138 9.86784 22.1281 9.96517 22.2339 10.0625L22.9131 9.7959C22.9977 9.76204 23.0802 9.7557 23.1606 9.77686C23.241 9.79378 23.313 9.84033 23.3765 9.9165C23.4272 9.97998 23.4548 10.0519 23.459 10.1323C23.4674 10.2127 23.4484 10.2889 23.4019 10.3608L23.0146 10.9893C23.1797 11.2432 23.332 11.5098 23.4717 11.7891L24.208 11.77C24.2926 11.7616 24.3709 11.7806 24.4429 11.8271C24.5148 11.8695 24.5635 11.9351 24.5889 12.0239C24.6185 12.1043 24.6185 12.1826 24.5889 12.2588C24.5635 12.335 24.519 12.3984 24.4556 12.4492L23.8843 12.9126C23.9224 13.0607 23.9541 13.2109 23.9795 13.3633C24.0049 13.5114 24.0239 13.6659 24.0366 13.8267L24.7285 14.0488C24.9232 14.1123 25.0205 14.235 25.0205 14.417C25.0205 14.599 24.9232 14.7217 24.7285 14.7852L24.0366 15.0073C24.0239 15.1681 24.0049 15.3247 23.9795 15.4771C23.9541 15.6252 23.9224 15.7733 23.8843 15.9214L24.4556 16.3784C24.519 16.4334 24.5635 16.5011 24.5889 16.5815C24.6185 16.6577 24.6185 16.736 24.5889 16.8164C24.5635 16.9053 24.5148 16.973 24.4429 17.0195C24.3709 17.0618 24.2926 17.0788 24.208 17.0703L23.4717 17.0449C23.3997 17.1846 23.3257 17.3221 23.2495 17.4575C23.1776 17.5887 23.0993 17.7157 23.0146 17.8384L23.4019 18.4668C23.4484 18.543 23.4674 18.6234 23.459 18.708C23.4548 18.7884 23.4272 18.8604 23.3765 18.9238C23.313 19 23.241 19.0487 23.1606 19.0698C23.0802 19.091 22.9956 19.0825 22.9067 19.0444L22.2339 18.7651C22.1281 18.8709 22.0138 18.9725 21.8911 19.0698C21.7726 19.1672 21.6541 19.2603 21.5356 19.3491L21.6816 20.0664C21.7324 20.2526 21.6753 20.3944 21.5103 20.4917C21.4256 20.5382 21.341 20.5552 21.2563 20.5425C21.1759 20.5298 21.104 20.4938 21.0405 20.4346L20.4946 19.9521C20.355 20.0114 20.2132 20.0664 20.0693 20.1172C19.9255 20.1722 19.7816 20.2188 19.6377 20.2568L19.5234 20.9932C19.515 21.082 19.4811 21.1561 19.4219 21.2153C19.3669 21.2746 19.297 21.3127 19.2124 21.3296C19.1235 21.3465 19.0431 21.3359 18.9712 21.2979C18.8993 21.264 18.8442 21.209 18.8062 21.1328L18.4507 20.4663C18.3745 20.4748 18.2983 20.479 18.2222 20.479C18.146 20.4832 18.0698 20.4854 17.9937 20.4854ZM17.9937 19.4634C18.7004 19.4634 19.3563 19.3343 19.9614 19.0762C20.5666 18.818 21.0955 18.4583 21.5483 17.9971C22.0011 17.5358 22.3524 17.0005 22.6021 16.3911C22.856 15.7817 22.9829 15.1258 22.9829 14.4233C22.9829 13.7209 22.856 13.0649 22.6021 12.4556C22.3524 11.842 22.0011 11.3045 21.5483 10.8433C21.0955 10.382 20.5666 10.0223 19.9614 9.76416C19.3563 9.50179 18.7004 9.37061 17.9937 9.37061C17.2912 9.37061 16.6374 9.50179 16.0322 9.76416C15.4271 10.0223 14.8981 10.382 14.4453 10.8433C13.9967 11.3045 13.6455 11.842 13.3916 12.4556C13.1419 13.0649 13.0171 13.7209 13.0171 14.4233C13.0171 15.1258 13.1419 15.7817 13.3916 16.3911C13.6455 17.0005 13.9967 17.5358 14.4453 17.9971C14.8981 18.4583 15.4271 18.818 16.0322 19.0762C16.6374 19.3343 17.2912 19.4634 17.9937 19.4634ZM16.8892 13.4458L14.7373 9.77051L15.5181 9.33252L17.6382 12.9697L16.8892 13.4458ZM19.4092 14.8486V13.9727H23.6304V14.8486H19.4092ZM17.6509 15.8833L15.4482 19.5015L14.6738 19.0444L16.9082 15.4009L17.6509 15.8833ZM17.981 16.0864C17.672 16.0864 17.3927 16.0124 17.1431 15.8643C16.8934 15.7161 16.6945 15.5173 16.5464 15.2676C16.3983 15.0137 16.3242 14.7344 16.3242 14.4297C16.3242 14.1208 16.3983 13.8415 16.5464 13.5918C16.6945 13.3421 16.8934 13.1432 17.1431 12.9951C17.3927 12.8428 17.672 12.7666 17.981 12.7666C18.2856 12.7666 18.5628 12.8428 18.8125 12.9951C19.0664 13.1432 19.2674 13.3421 19.4155 13.5918C19.5679 13.8415 19.644 14.1208 19.644 14.4297C19.644 14.7344 19.5679 15.0137 19.4155 15.2676C19.2674 15.5173 19.0664 15.7161 18.8125 15.8643C18.5628 16.0124 18.2856 16.0864 17.981 16.0864ZM17.981 15.1343C18.1841 15.1343 18.3534 15.0687 18.4888 14.9375C18.6284 14.8021 18.6982 14.6328 18.6982 14.4297C18.6982 14.2266 18.6284 14.0573 18.4888 13.9219C18.3534 13.7822 18.1841 13.7124 17.981 13.7124C17.7821 13.7124 17.6128 13.7822 17.4731 13.9219C17.3377 14.0573 17.27 14.2266 17.27 14.4297C17.27 14.6328 17.3377 14.8021 17.4731 14.9375C17.6128 15.0687 17.7821 15.1343 17.981 15.1343Z" fill="#03A200"/>
<path d="M34.1704 19.2158C33.5018 19.2158 32.9178 19.1079 32.4185 18.8921C31.9233 18.672 31.5298 18.3716 31.2378 17.9907C30.95 17.6056 30.7829 17.1655 30.7363 16.6704L30.73 16.6006H31.8726L31.8789 16.6704C31.9085 16.9751 32.0249 17.2396 32.228 17.4639C32.4354 17.6839 32.7104 17.8553 33.0532 17.978C33.4002 18.1007 33.7938 18.1621 34.2339 18.1621C34.6486 18.1621 35.0168 18.0965 35.3384 17.9653C35.6642 17.8299 35.9202 17.6437 36.1064 17.4067C36.2926 17.1698 36.3857 16.8968 36.3857 16.5879V16.5815C36.3857 16.2007 36.2461 15.8812 35.9668 15.623C35.6875 15.3607 35.2326 15.1597 34.6021 15.02L33.5864 14.7979C32.6681 14.5947 31.9995 14.2816 31.5806 13.8584C31.1659 13.431 30.9585 12.8851 30.9585 12.2207V12.2144C30.9627 11.7065 31.1003 11.258 31.3711 10.8687C31.6462 10.4793 32.0249 10.1746 32.5073 9.95459C32.994 9.73454 33.5526 9.62451 34.1831 9.62451C34.7925 9.62451 35.332 9.73454 35.8018 9.95459C36.2715 10.1704 36.6439 10.4624 36.9189 10.8306C37.1982 11.1987 37.3527 11.6113 37.3823 12.0684L37.3887 12.1572H36.2461L36.2334 12.0747C36.1911 11.8039 36.0811 11.5648 35.9033 11.3574C35.7256 11.1458 35.4886 10.9787 35.1924 10.856C34.8962 10.7332 34.5492 10.674 34.1514 10.6782C33.7705 10.6782 33.4277 10.7375 33.123 10.856C32.8184 10.9744 32.575 11.1458 32.3931 11.3701C32.2153 11.5902 32.1265 11.861 32.1265 12.1826V12.189C32.1265 12.5529 32.2619 12.8597 32.5327 13.1094C32.8035 13.359 33.25 13.5516 33.8721 13.687L34.8877 13.9155C35.5267 14.0552 36.0409 14.2371 36.4302 14.4614C36.8195 14.6857 37.103 14.9608 37.2808 15.2866C37.4627 15.6082 37.5537 15.9891 37.5537 16.4292V16.4355C37.5537 17.0068 37.4141 17.4998 37.1348 17.9146C36.8555 18.3293 36.4619 18.6509 35.9541 18.8794C35.4463 19.1037 34.8517 19.2158 34.1704 19.2158ZM42.1113 19.1206C41.4596 19.1206 40.8989 18.9767 40.4292 18.689C39.9637 18.4012 39.604 17.995 39.3501 17.4702C39.1004 16.9412 38.9756 16.3192 38.9756 15.604V15.5977C38.9756 14.891 39.1004 14.271 39.3501 13.7378C39.604 13.2046 39.9616 12.7878 40.4229 12.4873C40.8841 12.1868 41.4237 12.0366 42.0415 12.0366C42.6636 12.0366 43.1968 12.1805 43.6411 12.4683C44.0897 12.756 44.4325 13.158 44.6694 13.6743C44.9106 14.1864 45.0312 14.783 45.0312 15.4644V15.896H39.5469V15.0137H44.4663L43.9204 15.8198V15.3818C43.9204 14.8444 43.84 14.4022 43.6792 14.0552C43.5184 13.7082 43.2962 13.45 43.0127 13.2808C42.7292 13.1073 42.4033 13.0205 42.0352 13.0205C41.667 13.0205 41.3369 13.1115 41.0449 13.2935C40.7572 13.4712 40.5286 13.7357 40.3594 14.0869C40.1901 14.4382 40.1055 14.8698 40.1055 15.3818V15.8198C40.1055 16.3065 40.188 16.7233 40.353 17.0703C40.5181 17.4131 40.7529 17.6776 41.0576 17.8638C41.3623 18.0457 41.722 18.1367 42.1367 18.1367C42.4456 18.1367 42.7144 18.0944 42.9429 18.0098C43.1714 17.9251 43.3597 17.8172 43.5078 17.686C43.6559 17.5549 43.7596 17.4215 43.8188 17.2861L43.8442 17.229H44.9487L44.936 17.2798C44.8768 17.5125 44.771 17.7389 44.6187 17.959C44.4705 18.1748 44.278 18.3716 44.041 18.5493C43.804 18.7228 43.5226 18.8625 43.1968 18.9683C42.8752 19.0698 42.5133 19.1206 42.1113 19.1206ZM49.1763 19.0508C48.4738 19.0508 47.9639 18.909 47.6465 18.6255C47.3333 18.342 47.1768 17.8743 47.1768 17.2227V13.0713H46.0977V12.1572H47.1768V10.3862H48.3193V12.1572H49.8174V13.0713H48.3193V16.9434C48.3193 17.3454 48.3955 17.6353 48.5479 17.813C48.7002 17.9865 48.9541 18.0732 49.3096 18.0732C49.4069 18.0732 49.4894 18.0711 49.5571 18.0669C49.6291 18.0627 49.7158 18.0563 49.8174 18.0479V18.9873C49.7116 19.0042 49.6058 19.019 49.5 19.0317C49.3942 19.0444 49.2863 19.0508 49.1763 19.0508ZM53.8989 19.0508C53.1965 19.0508 52.6865 18.909 52.3691 18.6255C52.056 18.342 51.8994 17.8743 51.8994 17.2227V13.0713H50.8203V12.1572H51.8994V10.3862H53.042V12.1572H54.54V13.0713H53.042V16.9434C53.042 17.3454 53.1182 17.6353 53.2705 17.813C53.4229 17.9865 53.6768 18.0732 54.0322 18.0732C54.1296 18.0732 54.2121 18.0711 54.2798 18.0669C54.3517 18.0627 54.4385 18.0563 54.54 18.0479V18.9873C54.4342 19.0042 54.3285 19.019 54.2227 19.0317C54.1169 19.0444 54.009 19.0508 53.8989 19.0508ZM56.2158 19V12.1572H57.3203V19H56.2158ZM56.7744 10.8369C56.5671 10.8369 56.3872 10.7629 56.2349 10.6147C56.0868 10.4624 56.0127 10.2826 56.0127 10.0752C56.0127 9.86361 56.0868 9.68376 56.2349 9.53564C56.3872 9.38753 56.5671 9.31348 56.7744 9.31348C56.986 9.31348 57.1659 9.38753 57.314 9.53564C57.4621 9.68376 57.5361 9.86361 57.5361 10.0752C57.5361 10.2826 57.4621 10.4624 57.314 10.6147C57.1659 10.7629 56.986 10.8369 56.7744 10.8369ZM59.4023 19V12.1572H60.5068V13.1855H60.6084C60.7819 12.8216 61.0316 12.5402 61.3574 12.3413C61.6833 12.1382 62.098 12.0366 62.6016 12.0366C63.3717 12.0366 63.9621 12.2567 64.3726 12.6968C64.7873 13.1326 64.9946 13.7568 64.9946 14.5693V19H63.8901V14.8359C63.8901 14.2181 63.759 13.7611 63.4966 13.4648C63.2384 13.1644 62.8364 13.0142 62.2905 13.0142C61.9266 13.0142 61.6113 13.0924 61.3447 13.249C61.0781 13.4056 60.8708 13.6278 60.7227 13.9155C60.5788 14.2033 60.5068 14.5482 60.5068 14.9502V19H59.4023ZM69.8125 21.4121C69.2624 21.4121 68.7821 21.3338 68.3716 21.1772C67.9611 21.0249 67.6331 20.807 67.3877 20.5234C67.1465 20.2441 66.9963 19.9183 66.937 19.5459L66.9497 19.5396H68.0923L68.0986 19.5459C68.1579 19.804 68.3356 20.0156 68.6318 20.1807C68.9281 20.3499 69.3216 20.4346 69.8125 20.4346C70.4261 20.4346 70.9043 20.2949 71.2471 20.0156C71.5941 19.7406 71.7676 19.3512 71.7676 18.8477V17.4639H71.666C71.5221 17.7135 71.3423 17.9272 71.1265 18.105C70.9106 18.2827 70.6673 18.4181 70.3965 18.5112C70.1257 18.6001 69.8337 18.6445 69.5205 18.6445C68.9323 18.6445 68.4224 18.5049 67.9907 18.2256C67.5633 17.9421 67.2332 17.5527 67.0005 17.0576C66.7677 16.5625 66.6514 15.9954 66.6514 15.3564V15.3438C66.6514 14.7048 66.7677 14.1377 67.0005 13.6426C67.2375 13.1432 67.5718 12.7518 68.0034 12.4683C68.4351 12.1805 68.9492 12.0366 69.5459 12.0366C69.8675 12.0366 70.1637 12.0874 70.4346 12.189C70.7054 12.2905 70.9445 12.4344 71.1519 12.6206C71.3634 12.8068 71.5391 13.029 71.6787 13.2871H71.7549V12.1572H72.8594V18.9048C72.8594 19.4126 72.7345 19.8548 72.4849 20.2314C72.2394 20.6081 71.8882 20.8979 71.4312 21.1011C70.9741 21.3084 70.4346 21.4121 69.8125 21.4121ZM69.7617 17.667C70.1849 17.667 70.5467 17.5697 70.8472 17.375C71.1519 17.1761 71.3846 16.9032 71.5454 16.5562C71.7104 16.2091 71.793 15.8092 71.793 15.3564V15.3438C71.793 14.891 71.7104 14.4889 71.5454 14.1377C71.3846 13.7865 71.1519 13.5114 70.8472 13.3125C70.5467 13.1136 70.1849 13.0142 69.7617 13.0142C69.3385 13.0142 68.9788 13.1136 68.6826 13.3125C68.3906 13.5114 68.1663 13.7865 68.0098 14.1377C67.8574 14.4889 67.7812 14.891 67.7812 15.3438V15.3564C67.7812 15.8092 67.8574 16.2091 68.0098 16.5562C68.1663 16.9032 68.3906 17.1761 68.6826 17.375C68.9788 17.5697 69.3385 17.667 69.7617 17.667ZM77.2646 19.1206C76.7568 19.1206 76.3083 19.0444 75.9189 18.8921C75.5296 18.7355 75.2165 18.5176 74.9795 18.2383C74.7467 17.959 74.6092 17.631 74.5669 17.2544H75.6968C75.7899 17.5379 75.9718 17.7664 76.2427 17.9399C76.5135 18.1134 76.8669 18.2002 77.3027 18.2002C77.6117 18.2002 77.8825 18.1558 78.1152 18.0669C78.3522 17.9738 78.5384 17.849 78.6738 17.6924C78.8092 17.5316 78.877 17.3475 78.877 17.1401V17.1274C78.877 16.8947 78.7839 16.6979 78.5977 16.5371C78.4115 16.3721 78.1068 16.2388 77.6836 16.1372L76.6235 15.8833C76.1961 15.7817 75.8449 15.6506 75.5698 15.4897C75.2948 15.3247 75.0916 15.1237 74.9604 14.8867C74.8293 14.6455 74.7637 14.362 74.7637 14.0361V14.0298C74.7637 13.6489 74.8737 13.3083 75.0938 13.0078C75.318 12.7074 75.6227 12.4704 76.0078 12.2969C76.3929 12.1234 76.8267 12.0366 77.3091 12.0366C77.7873 12.0366 78.2104 12.1128 78.5786 12.2651C78.951 12.4132 79.2493 12.6248 79.4736 12.8999C79.7021 13.175 79.8418 13.4987 79.8926 13.8711H78.8071C78.7352 13.6003 78.5701 13.3802 78.312 13.2109C78.0539 13.0417 77.7174 12.957 77.3027 12.957C77.0319 12.957 76.7907 13.0015 76.5791 13.0903C76.3675 13.175 76.2004 13.2935 76.0776 13.4458C75.9549 13.5981 75.8936 13.7759 75.8936 13.979V13.9917C75.8936 14.144 75.9338 14.2795 76.0142 14.3979C76.0946 14.5164 76.2194 14.6201 76.3887 14.709C76.5579 14.7979 76.7759 14.8761 77.0425 14.9438L78.0962 15.1978C78.7394 15.3543 79.2176 15.5786 79.5308 15.8706C79.8481 16.1626 80.0068 16.554 80.0068 17.0449V17.0576C80.0068 17.4639 79.8862 17.8236 79.645 18.1367C79.4038 18.4456 79.0758 18.6868 78.6611 18.8604C78.2507 19.0339 77.7852 19.1206 77.2646 19.1206Z" fill="black" fill-opacity="0.85"/>
</svg>
