<svg width="180" height="28" viewBox="0 0 180 28" fill="none" xmlns="http://www.w3.org/2000/svg">
<rect width="180" height="28" rx="5" fill="#03A200" style="mix-blend-mode:soft-light"/>
<rect width="180" height="28" rx="5" fill="#03A200" fill-opacity="0.75"/>
<path d="M17.3018 20.2949C16.265 20.2949 15.7466 19.9564 15.7466 19.2793C15.7466 18.8646 15.8735 18.4224 16.1274 17.9526C16.3813 17.4829 16.7474 17.0407 17.2256 16.626C17.708 16.207 18.2899 15.8664 18.9712 15.604C19.6567 15.3416 20.429 15.2104 21.2881 15.2104C22.1514 15.2104 22.9237 15.3416 23.605 15.604C24.2905 15.8664 24.8724 16.207 25.3506 16.626C25.833 17.0407 26.2012 17.4829 26.4551 17.9526C26.709 18.4224 26.8359 18.8646 26.8359 19.2793C26.8359 19.9564 26.3154 20.2949 25.2744 20.2949H17.3018ZM16.9971 19.3364H25.5791C25.6637 19.3364 25.723 19.3237 25.7568 19.2983C25.7949 19.2729 25.814 19.2264 25.814 19.1587C25.814 18.8963 25.7145 18.5959 25.5156 18.2573C25.321 17.9188 25.0311 17.5908 24.646 17.2734C24.2609 16.9561 23.7869 16.6937 23.2241 16.4863C22.6613 16.2747 22.016 16.1689 21.2881 16.1689C20.5602 16.1689 19.9149 16.2747 19.3521 16.4863C18.7935 16.6937 18.3216 16.9561 17.9365 17.2734C17.5514 17.5908 17.2594 17.9188 17.0605 18.2573C16.8659 18.5959 16.7686 18.8963 16.7686 19.1587C16.7686 19.2264 16.7855 19.2729 16.8193 19.2983C16.8574 19.3237 16.9167 19.3364 16.9971 19.3364ZM21.2944 14.417C20.7909 14.417 20.3317 14.2837 19.917 14.0171C19.5023 13.7505 19.1701 13.3929 18.9204 12.9443C18.675 12.4915 18.5522 11.9943 18.5522 11.4526C18.5522 10.9152 18.675 10.4264 18.9204 9.98633C19.1701 9.54622 19.5023 9.19499 19.917 8.93262C20.3317 8.67025 20.7909 8.53906 21.2944 8.53906C21.8022 8.53906 22.2635 8.66813 22.6782 8.92627C23.0929 9.18441 23.423 9.53353 23.6685 9.97363C23.9139 10.4095 24.0366 10.8983 24.0366 11.4399C24.0366 11.9858 23.9118 12.4852 23.6621 12.938C23.4167 13.3866 23.0866 13.7463 22.6719 14.0171C22.2572 14.2837 21.798 14.417 21.2944 14.417ZM21.2944 13.4585C21.6076 13.4585 21.8932 13.3696 22.1514 13.1919C22.4137 13.0099 22.6232 12.7666 22.7798 12.4619C22.9364 12.153 23.0146 11.8123 23.0146 11.4399C23.0146 11.0718 22.9364 10.7417 22.7798 10.4497C22.6274 10.1535 22.4201 9.92074 22.1577 9.75146C21.8996 9.58219 21.6118 9.49756 21.2944 9.49756C20.9813 9.49756 20.6935 9.58431 20.4312 9.75781C20.173 9.92708 19.9657 10.1598 19.8091 10.4561C19.6525 10.7523 19.5742 11.0845 19.5742 11.4526C19.5742 11.825 19.6525 12.1636 19.8091 12.4683C19.9699 12.7729 20.1794 13.0142 20.4375 13.1919C20.6999 13.3696 20.9855 13.4585 21.2944 13.4585ZM10.4463 20.2949C10.0189 20.2949 9.69727 20.2061 9.48145 20.0283C9.26562 19.8548 9.15771 19.5903 9.15771 19.2349C9.15771 18.7101 9.28255 18.2065 9.53223 17.7241C9.7819 17.2375 10.1268 16.8058 10.5669 16.4292C11.0112 16.0483 11.5233 15.7479 12.103 15.5278C12.687 15.3078 13.3112 15.1978 13.9756 15.1978C14.3268 15.1978 14.6675 15.2295 14.9976 15.293C15.3276 15.3522 15.645 15.4432 15.9497 15.5659C16.2586 15.6844 16.5506 15.8325 16.8257 16.0103C16.6818 16.1118 16.5506 16.2197 16.4321 16.334C16.3136 16.444 16.2057 16.5625 16.1084 16.6895C15.901 16.5667 15.6831 16.4652 15.4546 16.3848C15.2303 16.3044 14.9933 16.243 14.7437 16.2007C14.4982 16.1584 14.2422 16.1372 13.9756 16.1372C13.4551 16.1372 12.9621 16.2218 12.4966 16.3911C12.0311 16.5562 11.6185 16.7826 11.2588 17.0703C10.8991 17.3538 10.6156 17.6776 10.4082 18.0415C10.2051 18.4054 10.1035 18.7842 10.1035 19.1777C10.1035 19.2412 10.1183 19.2856 10.1479 19.311C10.1776 19.3407 10.2262 19.3555 10.2939 19.3555H14.9404C14.9193 19.5501 14.9574 19.7342 15.0547 19.9077C15.152 20.0812 15.2769 20.2103 15.4292 20.2949H10.4463ZM13.9819 14.4741C13.5461 14.4741 13.1483 14.3577 12.7886 14.125C12.4289 13.888 12.1411 13.5728 11.9253 13.1792C11.7095 12.7856 11.6016 12.3498 11.6016 11.8716C11.6016 11.4019 11.7095 10.9744 11.9253 10.5894C12.1411 10.2 12.4289 9.89111 12.7886 9.6626C13.1483 9.42985 13.5461 9.31348 13.9819 9.31348C14.422 9.31348 14.8219 9.42773 15.1816 9.65625C15.5413 9.88477 15.827 10.1916 16.0386 10.5767C16.2544 10.9618 16.3623 11.3892 16.3623 11.8589C16.3623 12.3371 16.2544 12.7751 16.0386 13.1729C15.8228 13.5706 15.535 13.888 15.1753 14.125C14.8156 14.3577 14.4178 14.4741 13.9819 14.4741ZM13.9819 13.5283C14.2401 13.5283 14.4792 13.4543 14.6992 13.3062C14.9193 13.1538 15.0949 12.9528 15.2261 12.7031C15.3573 12.4492 15.4229 12.1678 15.4229 11.8589C15.4229 11.5584 15.3573 11.2876 15.2261 11.0464C15.0991 10.8052 14.9256 10.6147 14.7056 10.4751C14.4897 10.3312 14.2485 10.2593 13.9819 10.2593C13.7196 10.2593 13.4784 10.3312 13.2583 10.4751C13.0425 10.619 12.869 10.8136 12.7378 11.0591C12.6108 11.3003 12.5474 11.5711 12.5474 11.8716C12.5474 12.1763 12.613 12.4556 12.7441 12.7095C12.8753 12.9591 13.0488 13.158 13.2646 13.3062C13.4847 13.4543 13.7238 13.5283 13.9819 13.5283Z" fill="white"/>
<path d="M31.168 19V9.84033H36.8428V10.8687H32.3105V13.8076H36.6079V14.8232H32.3105V17.9717H36.8428V19H31.168ZM38.7725 19V12.1572H39.877V13.1982H39.9785C40.1309 12.8301 40.3636 12.5444 40.6768 12.3413C40.9941 12.1382 41.3771 12.0366 41.8257 12.0366C42.1346 12.0366 42.4118 12.0874 42.6572 12.189C42.9027 12.2905 43.1143 12.4323 43.292 12.6143C43.4697 12.792 43.6115 12.9993 43.7173 13.2363H43.8188C43.9416 12.9951 44.1066 12.7856 44.314 12.6079C44.5213 12.4259 44.7604 12.2863 45.0312 12.189C45.3063 12.0874 45.6004 12.0366 45.9136 12.0366C46.3791 12.0366 46.7726 12.1234 47.0942 12.2969C47.4201 12.4704 47.6676 12.7243 47.8369 13.0586C48.0062 13.3887 48.0908 13.7928 48.0908 14.271V19H46.9863V14.5249C46.9863 14.1864 46.9334 13.9071 46.8276 13.687C46.7261 13.4627 46.5695 13.2956 46.3579 13.1855C46.1463 13.0713 45.8797 13.0142 45.5581 13.0142C45.2407 13.0142 44.9635 13.0861 44.7266 13.23C44.4896 13.3739 44.3055 13.5664 44.1743 13.8076C44.0431 14.0446 43.9775 14.3091 43.9775 14.6011V19H42.873V14.3535C42.873 14.0827 42.8138 13.8478 42.6953 13.6489C42.5811 13.4458 42.416 13.2892 42.2002 13.1792C41.9886 13.0692 41.7389 13.0142 41.4512 13.0142C41.1549 13.0142 40.8862 13.0924 40.645 13.249C40.408 13.4056 40.2197 13.6172 40.0801 13.8838C39.9447 14.1462 39.877 14.4382 39.877 14.7598V19H38.7725ZM50.084 21.2852V12.1572H51.1885V13.249H51.29C51.4297 12.9951 51.6053 12.7793 51.8169 12.6016C52.0285 12.4196 52.2697 12.2799 52.5405 12.1826C52.8114 12.0853 53.1055 12.0366 53.4229 12.0366C54.0026 12.0366 54.5062 12.1847 54.9336 12.481C55.3652 12.7729 55.6995 13.1834 55.9365 13.7124C56.1735 14.2414 56.292 14.8613 56.292 15.5723V15.585C56.292 16.3001 56.1735 16.9222 55.9365 17.4512C55.6995 17.9801 55.3652 18.3906 54.9336 18.6826C54.5062 18.9746 54.0026 19.1206 53.4229 19.1206C53.1097 19.1206 52.8135 19.0719 52.5342 18.9746C52.2591 18.873 52.0137 18.7334 51.7979 18.5557C51.5863 18.3779 51.417 18.1663 51.29 17.9209H51.1885V21.2852H50.084ZM53.1689 18.1431C53.5879 18.1431 53.9455 18.0415 54.2417 17.8384C54.5379 17.631 54.7643 17.3369 54.9209 16.9561C55.0817 16.571 55.1621 16.1139 55.1621 15.585V15.5723C55.1621 15.0391 55.0817 14.582 54.9209 14.2012C54.7643 13.8203 54.5379 13.5283 54.2417 13.3252C53.9455 13.1178 53.5879 13.0142 53.1689 13.0142C52.7542 13.0142 52.3966 13.1178 52.0962 13.3252C51.7957 13.5326 51.5651 13.8267 51.4043 14.2075C51.2435 14.5884 51.1631 15.0433 51.1631 15.5723V15.585C51.1631 16.1097 51.2435 16.5646 51.4043 16.9497C51.5651 17.3306 51.7957 17.6247 52.0962 17.832C52.3966 18.0394 52.7542 18.1431 53.1689 18.1431ZM58.082 19V9.44043H59.1865V19H58.082ZM64.1187 19.1206C63.4712 19.1206 62.9105 18.9788 62.4365 18.6953C61.9668 18.4076 61.6029 17.9992 61.3447 17.4702C61.0908 16.9412 60.9639 16.3128 60.9639 15.585V15.5723C60.9639 14.8402 61.0908 14.2096 61.3447 13.6807C61.6029 13.1517 61.9668 12.7454 62.4365 12.4619C62.9105 12.1784 63.4712 12.0366 64.1187 12.0366C64.7703 12.0366 65.3311 12.1784 65.8008 12.4619C66.2705 12.7454 66.6323 13.1517 66.8862 13.6807C67.1444 14.2096 67.2734 14.8402 67.2734 15.5723V15.585C67.2734 16.3128 67.1444 16.9412 66.8862 17.4702C66.6323 17.9992 66.2705 18.4076 65.8008 18.6953C65.3311 18.9788 64.7703 19.1206 64.1187 19.1206ZM64.1187 18.1431C64.5503 18.1431 64.9163 18.0415 65.2168 17.8384C65.5173 17.6353 65.7458 17.3433 65.9023 16.9624C66.0632 16.5815 66.1436 16.1224 66.1436 15.585V15.5723C66.1436 15.0306 66.0632 14.5693 65.9023 14.1885C65.7458 13.8076 65.5173 13.5177 65.2168 13.3188C64.9163 13.1157 64.5503 13.0142 64.1187 13.0142C63.687 13.0142 63.321 13.1157 63.0205 13.3188C62.7201 13.5177 62.4894 13.8076 62.3286 14.1885C62.172 14.5693 62.0938 15.0306 62.0938 15.5723V15.585C62.0938 16.1224 62.172 16.5815 62.3286 16.9624C62.4894 17.3433 62.7201 17.6353 63.0205 17.8384C63.321 18.0415 63.687 18.1431 64.1187 18.1431ZM69.3174 21.3994C69.2454 21.3994 69.165 21.3952 69.0762 21.3867C68.9873 21.3825 68.9048 21.374 68.8286 21.3613V20.4536C68.8963 20.4663 68.9704 20.4748 69.0508 20.479C69.1312 20.4832 69.2095 20.4854 69.2856 20.4854C69.5988 20.4854 69.8548 20.4049 70.0537 20.2441C70.2568 20.0833 70.4198 19.8062 70.5425 19.4126L70.6694 19.0063L68.1367 12.1572H69.3174L71.4248 18.4795L70.9868 17.7876H71.5073L71.0693 18.4795L73.1704 12.1572H74.332L71.6597 19.4189C71.4735 19.931 71.2767 20.3309 71.0693 20.6187C70.862 20.9064 70.6187 21.1074 70.3394 21.2217C70.0643 21.3402 69.7236 21.3994 69.3174 21.3994ZM78.3311 19.1206C77.6794 19.1206 77.1187 18.9767 76.6489 18.689C76.1834 18.4012 75.8237 17.995 75.5698 17.4702C75.3201 16.9412 75.1953 16.3192 75.1953 15.604V15.5977C75.1953 14.891 75.3201 14.271 75.5698 13.7378C75.8237 13.2046 76.1813 12.7878 76.6426 12.4873C77.1038 12.1868 77.6434 12.0366 78.2612 12.0366C78.8833 12.0366 79.4165 12.1805 79.8608 12.4683C80.3094 12.756 80.6522 13.158 80.8892 13.6743C81.1304 14.1864 81.251 14.783 81.251 15.4644V15.896H75.7666V15.0137H80.686L80.1401 15.8198V15.3818C80.1401 14.8444 80.0597 14.4022 79.8989 14.0552C79.7381 13.7082 79.516 13.45 79.2324 13.2808C78.9489 13.1073 78.623 13.0205 78.2549 13.0205C77.8867 13.0205 77.5566 13.1115 77.2646 13.2935C76.9769 13.4712 76.7484 13.7357 76.5791 14.0869C76.4098 14.4382 76.3252 14.8698 76.3252 15.3818V15.8198C76.3252 16.3065 76.4077 16.7233 76.5728 17.0703C76.7378 17.4131 76.9727 17.6776 77.2773 17.8638C77.582 18.0457 77.9417 18.1367 78.3564 18.1367C78.6654 18.1367 78.9341 18.0944 79.1626 18.0098C79.3911 17.9251 79.5794 17.8172 79.7275 17.686C79.8757 17.5549 79.9793 17.4215 80.0386 17.2861L80.064 17.229H81.1685L81.1558 17.2798C81.0965 17.5125 80.9907 17.7389 80.8384 17.959C80.6903 18.1748 80.4977 18.3716 80.2607 18.5493C80.0238 18.7228 79.7424 18.8625 79.4165 18.9683C79.0949 19.0698 78.7331 19.1206 78.3311 19.1206ZM85.7578 19.1206C85.1061 19.1206 84.5454 18.9767 84.0757 18.689C83.6102 18.4012 83.2505 17.995 82.9966 17.4702C82.7469 16.9412 82.6221 16.3192 82.6221 15.604V15.5977C82.6221 14.891 82.7469 14.271 82.9966 13.7378C83.2505 13.2046 83.6081 12.7878 84.0693 12.4873C84.5306 12.1868 85.0701 12.0366 85.688 12.0366C86.3101 12.0366 86.8433 12.1805 87.2876 12.4683C87.7362 12.756 88.0789 13.158 88.3159 13.6743C88.5571 14.1864 88.6777 14.783 88.6777 15.4644V15.896H83.1934V15.0137H88.1128L87.5669 15.8198V15.3818C87.5669 14.8444 87.4865 14.4022 87.3257 14.0552C87.1649 13.7082 86.9427 13.45 86.6592 13.2808C86.3757 13.1073 86.0498 13.0205 85.6816 13.0205C85.3135 13.0205 84.9834 13.1115 84.6914 13.2935C84.4036 13.4712 84.1751 13.7357 84.0059 14.0869C83.8366 14.4382 83.752 14.8698 83.752 15.3818V15.8198C83.752 16.3065 83.8345 16.7233 83.9995 17.0703C84.1646 17.4131 84.3994 17.6776 84.7041 17.8638C85.0088 18.0457 85.3685 18.1367 85.7832 18.1367C86.0921 18.1367 86.3608 18.0944 86.5894 18.0098C86.8179 17.9251 87.0062 17.8172 87.1543 17.686C87.3024 17.5549 87.4061 17.4215 87.4653 17.2861L87.4907 17.229H88.5952L88.5825 17.2798C88.5233 17.5125 88.4175 17.7389 88.2651 17.959C88.117 18.1748 87.9245 18.3716 87.6875 18.5493C87.4505 18.7228 87.1691 18.8625 86.8433 18.9683C86.5216 19.0698 86.1598 19.1206 85.7578 19.1206ZM92.7402 19.1206C92.2324 19.1206 91.7839 19.0444 91.3945 18.8921C91.0052 18.7355 90.6921 18.5176 90.4551 18.2383C90.2223 17.959 90.0848 17.631 90.0425 17.2544H91.1724C91.2655 17.5379 91.4474 17.7664 91.7183 17.9399C91.9891 18.1134 92.3424 18.2002 92.7783 18.2002C93.0872 18.2002 93.3581 18.1558 93.5908 18.0669C93.8278 17.9738 94.014 17.849 94.1494 17.6924C94.2848 17.5316 94.3525 17.3475 94.3525 17.1401V17.1274C94.3525 16.8947 94.2594 16.6979 94.0732 16.5371C93.887 16.3721 93.5824 16.2388 93.1592 16.1372L92.0991 15.8833C91.6717 15.7817 91.3205 15.6506 91.0454 15.4897C90.7703 15.3247 90.5672 15.1237 90.436 14.8867C90.3049 14.6455 90.2393 14.362 90.2393 14.0361V14.0298C90.2393 13.6489 90.3493 13.3083 90.5693 13.0078C90.7936 12.7074 91.0983 12.4704 91.4834 12.2969C91.8685 12.1234 92.3022 12.0366 92.7847 12.0366C93.2629 12.0366 93.686 12.1128 94.0542 12.2651C94.4266 12.4132 94.7249 12.6248 94.9492 12.8999C95.1777 13.175 95.3174 13.4987 95.3682 13.8711H94.2827C94.2108 13.6003 94.0457 13.3802 93.7876 13.2109C93.5295 13.0417 93.193 12.957 92.7783 12.957C92.5075 12.957 92.2663 13.0015 92.0547 13.0903C91.8431 13.175 91.6759 13.2935 91.5532 13.4458C91.4305 13.5981 91.3691 13.7759 91.3691 13.979V13.9917C91.3691 14.144 91.4093 14.2795 91.4897 14.3979C91.5701 14.5164 91.695 14.6201 91.8643 14.709C92.0335 14.7979 92.2515 14.8761 92.5181 14.9438L93.5718 15.1978C94.215 15.3543 94.6932 15.5786 95.0063 15.8706C95.3237 16.1626 95.4824 16.554 95.4824 17.0449V17.0576C95.4824 17.4639 95.3618 17.8236 95.1206 18.1367C94.8794 18.4456 94.5514 18.6868 94.1367 18.8604C93.7262 19.0339 93.2607 19.1206 92.7402 19.1206Z" fill="white"/>
</svg>
