<svg width="180" height="28" viewBox="0 0 180 28" fill="none" xmlns="http://www.w3.org/2000/svg">
<rect width="180" height="28" rx="5" fill="#03A200" style="mix-blend-mode:soft-light"/>
<rect width="180" height="28" rx="5" fill="#03A200" fill-opacity="0.75"/>
<path d="M12.7632 14.417C12.7632 14.2604 12.8182 14.1271 12.9282 14.0171C13.0425 13.9028 13.1758 13.8457 13.3281 13.8457H17.4351V9.74512C17.4351 9.59277 17.4901 9.46159 17.6001 9.35156C17.7101 9.2373 17.8434 9.18018 18 9.18018C18.1566 9.18018 18.2899 9.2373 18.3999 9.35156C18.5142 9.46159 18.5713 9.59277 18.5713 9.74512V13.8457H22.6719C22.8242 13.8457 22.9554 13.9028 23.0654 14.0171C23.1797 14.1271 23.2368 14.2604 23.2368 14.417C23.2368 14.5736 23.1797 14.7069 23.0654 14.8169C22.9554 14.9269 22.8242 14.9819 22.6719 14.9819H18.5713V19.0889C18.5713 19.2412 18.5142 19.3724 18.3999 19.4824C18.2899 19.5967 18.1566 19.6538 18 19.6538C17.8434 19.6538 17.7101 19.5967 17.6001 19.4824C17.4901 19.3724 17.4351 19.2412 17.4351 19.0889V14.9819H13.3281C13.1758 14.9819 13.0425 14.9269 12.9282 14.8169C12.8182 14.7069 12.7632 14.5736 12.7632 14.417Z" fill="white"/>
<path d="M30.438 19L33.8149 9.84033H34.6909V11.3193H34.3291L31.6377 19H30.438ZM31.9678 16.3784L32.3232 15.4072H36.4619L36.8174 16.3784H31.9678ZM37.1221 19L34.4307 11.3193V9.84033H34.9448L38.3218 19H37.1221ZM41.9336 19.1206C41.3581 19.1206 40.8545 18.9746 40.4229 18.6826C39.9912 18.3906 39.6569 17.9801 39.4199 17.4512C39.1829 16.918 39.0645 16.2959 39.0645 15.585V15.5723C39.0645 14.8571 39.1829 14.235 39.4199 13.7061C39.6569 13.1771 39.9891 12.7666 40.4165 12.4746C40.8481 12.1826 41.3538 12.0366 41.9336 12.0366C42.2467 12.0366 42.5409 12.0874 42.8159 12.189C43.0952 12.2863 43.3428 12.4238 43.5586 12.6016C43.7744 12.7793 43.9437 12.9909 44.0664 13.2363H44.168V9.44043H45.2725V19H44.168V17.9082H44.0664C43.9268 18.1621 43.7511 18.38 43.5396 18.562C43.328 18.7397 43.0868 18.8773 42.8159 18.9746C42.5451 19.0719 42.251 19.1206 41.9336 19.1206ZM42.1875 18.1431C42.6022 18.1431 42.9598 18.0394 43.2603 17.832C43.5607 17.6247 43.7913 17.3306 43.9521 16.9497C44.113 16.5646 44.1934 16.1097 44.1934 15.585V15.5723C44.1934 15.0433 44.113 14.5884 43.9521 14.2075C43.7913 13.8267 43.5607 13.5326 43.2603 13.3252C42.9598 13.1178 42.6022 13.0142 42.1875 13.0142C41.7728 13.0142 41.4152 13.1178 41.1147 13.3252C40.8185 13.5283 40.59 13.8203 40.4292 14.2012C40.2726 14.582 40.1943 15.0391 40.1943 15.5723V15.585C40.1943 16.1139 40.2726 16.571 40.4292 16.9561C40.59 17.3369 40.8185 17.631 41.1147 17.8384C41.4152 18.0415 41.7728 18.1431 42.1875 18.1431ZM49.9189 19.1206C49.3434 19.1206 48.8398 18.9746 48.4082 18.6826C47.9766 18.3906 47.6423 17.9801 47.4053 17.4512C47.1683 16.918 47.0498 16.2959 47.0498 15.585V15.5723C47.0498 14.8571 47.1683 14.235 47.4053 13.7061C47.6423 13.1771 47.9744 12.7666 48.4019 12.4746C48.8335 12.1826 49.3392 12.0366 49.9189 12.0366C50.2321 12.0366 50.5262 12.0874 50.8013 12.189C51.0806 12.2863 51.3281 12.4238 51.5439 12.6016C51.7598 12.7793 51.929 12.9909 52.0518 13.2363H52.1533V9.44043H53.2578V19H52.1533V17.9082H52.0518C51.9121 18.1621 51.7365 18.38 51.5249 18.562C51.3133 18.7397 51.0721 18.8773 50.8013 18.9746C50.5304 19.0719 50.2363 19.1206 49.9189 19.1206ZM50.1729 18.1431C50.5876 18.1431 50.9451 18.0394 51.2456 17.832C51.5461 17.6247 51.7767 17.3306 51.9375 16.9497C52.0983 16.5646 52.1787 16.1097 52.1787 15.585V15.5723C52.1787 15.0433 52.0983 14.5884 51.9375 14.2075C51.7767 13.8267 51.5461 13.5326 51.2456 13.3252C50.9451 13.1178 50.5876 13.0142 50.1729 13.0142C49.7581 13.0142 49.4006 13.1178 49.1001 13.3252C48.8039 13.5283 48.5754 13.8203 48.4146 14.2012C48.258 14.582 48.1797 15.0391 48.1797 15.5723V15.585C48.1797 16.1139 48.258 16.571 48.4146 16.9561C48.5754 17.3369 48.8039 17.631 49.1001 17.8384C49.4006 18.0415 49.7581 18.1431 50.1729 18.1431Z" fill="white"/>
</svg>
