<svg width="180" height="28" viewBox="0 0 180 28" fill="none" xmlns="http://www.w3.org/2000/svg">
<rect width="180" height="28" rx="5" fill="#03A200" style="mix-blend-mode:soft-light"/>
<rect width="180" height="28" rx="5" fill="#03A200" fill-opacity="0.75"/>
<path d="M13.6201 13.4902C13.125 13.4902 12.6701 13.3675 12.2554 13.1221C11.8407 12.8724 11.5085 12.5423 11.2588 12.1318C11.0091 11.7171 10.8843 11.2601 10.8843 10.7607C10.8843 10.2614 11.007 9.80436 11.2524 9.38965C11.5021 8.97493 11.8343 8.64274 12.249 8.39307C12.6637 8.14339 13.1208 8.01855 13.6201 8.01855C14.1195 8.01855 14.5744 8.14339 14.9849 8.39307C15.3996 8.64274 15.7318 8.97493 15.9814 9.38965C16.2311 9.80436 16.356 10.2614 16.356 10.7607C16.356 11.2601 16.2311 11.7171 15.9814 12.1318C15.7318 12.5423 15.3996 12.8724 14.9849 13.1221C14.5744 13.3675 14.1195 13.4902 13.6201 13.4902ZM13.2964 12.2271C13.436 12.2271 13.5439 12.1678 13.6201 12.0493L14.9468 9.96729C15.0018 9.87842 15.0293 9.79167 15.0293 9.70703C15.0293 9.62663 14.9954 9.5568 14.9277 9.49756C14.8643 9.43831 14.7881 9.40869 14.6992 9.40869C14.585 9.40869 14.4897 9.46794 14.4136 9.58643L13.2837 11.4019L12.7886 10.7734C12.7463 10.7184 12.7018 10.6782 12.6553 10.6528C12.613 10.6274 12.5601 10.6147 12.4966 10.6147C12.4119 10.6147 12.3379 10.6465 12.2744 10.71C12.2152 10.7734 12.1855 10.8517 12.1855 10.9448C12.1855 11.0422 12.2131 11.1247 12.2681 11.1924L12.979 12.0493C13.0256 12.1043 13.0721 12.1488 13.1187 12.1826C13.1694 12.2122 13.2287 12.2271 13.2964 12.2271ZM13.6201 20.8408C13.125 20.8408 12.6701 20.716 12.2554 20.4663C11.8407 20.2166 11.5085 19.8844 11.2588 19.4697C11.0091 19.055 10.8843 18.6001 10.8843 18.105C10.8843 17.6056 11.007 17.1486 11.2524 16.7339C11.5021 16.3192 11.8343 15.987 12.249 15.7373C12.6637 15.4876 13.1208 15.3628 13.6201 15.3628C14.1195 15.3628 14.5744 15.4876 14.9849 15.7373C15.3996 15.9827 15.7318 16.3128 15.9814 16.7275C16.2311 17.1423 16.356 17.6014 16.356 18.105C16.356 18.6001 16.2311 19.055 15.9814 19.4697C15.7318 19.8844 15.3996 20.2166 14.9849 20.4663C14.5744 20.716 14.1195 20.8408 13.6201 20.8408ZM13.6201 19.9141C13.946 19.9141 14.2464 19.8315 14.5215 19.6665C14.7965 19.5015 15.0166 19.2814 15.1816 19.0063C15.3467 18.7313 15.4292 18.4308 15.4292 18.105C15.4292 17.7749 15.3467 17.4723 15.1816 17.1973C15.0166 16.9222 14.7965 16.7021 14.5215 16.5371C14.2464 16.3721 13.946 16.2896 13.6201 16.2896C13.2943 16.2896 12.9938 16.3721 12.7188 16.5371C12.4437 16.7021 12.2236 16.9222 12.0586 17.1973C11.8936 17.4723 11.811 17.7749 11.811 18.105C11.811 18.4308 11.8936 18.7313 12.0586 19.0063C12.2236 19.2814 12.4437 19.5015 12.7188 19.6665C12.9938 19.8315 13.2943 19.9141 13.6201 19.9141ZM18.2539 11.2432C18.1185 11.2432 18.0042 11.1966 17.9111 11.1035C17.818 11.0104 17.7715 10.8962 17.7715 10.7607C17.7715 10.6296 17.818 10.5174 17.9111 10.4243C18.0042 10.3312 18.1185 10.2847 18.2539 10.2847H24.627C24.7624 10.2847 24.8766 10.3312 24.9697 10.4243C25.0671 10.5174 25.1157 10.6296 25.1157 10.7607C25.1157 10.8962 25.0671 11.0104 24.9697 11.1035C24.8766 11.1966 24.7624 11.2432 24.627 11.2432H18.2539ZM18.2539 18.5811C18.1185 18.5811 18.0042 18.5345 17.9111 18.4414C17.818 18.3483 17.7715 18.2362 17.7715 18.105C17.7715 17.9696 17.818 17.8553 17.9111 17.7622C18.0042 17.6691 18.1185 17.6226 18.2539 17.6226H24.627C24.7624 17.6226 24.8766 17.6691 24.9697 17.7622C25.0671 17.8553 25.1157 17.9696 25.1157 18.105C25.1157 18.2362 25.0671 18.3483 24.9697 18.4414C24.8766 18.5345 24.7624 18.5811 24.627 18.5811H18.2539Z" fill="white"/>
<path d="M33.5483 19V10.8687H30.5967V9.84033H37.6426V10.8687H34.6909V19H33.5483ZM39.8135 19.1206C39.3818 19.1206 38.9925 19.0381 38.6455 18.873C38.3027 18.708 38.0298 18.4731 37.8267 18.1685C37.6278 17.8638 37.5283 17.5041 37.5283 17.0894V17.0767C37.5283 16.6704 37.6257 16.3234 37.8203 16.0356C38.015 15.7437 38.2985 15.5151 38.6709 15.3501C39.0433 15.1851 39.494 15.0877 40.0229 15.0581L42.5366 14.9058V15.7881L40.1562 15.9404C39.6357 15.9701 39.2549 16.078 39.0137 16.2642C38.7767 16.4504 38.6582 16.7127 38.6582 17.0513V17.064C38.6582 17.411 38.7894 17.6818 39.0518 17.8765C39.3141 18.0669 39.6442 18.1621 40.042 18.1621C40.4186 18.1621 40.7529 18.0881 41.0449 17.9399C41.3369 17.7876 41.5654 17.5824 41.7305 17.3242C41.8997 17.0661 41.9844 16.7741 41.9844 16.4482V14.3154C41.9844 13.8923 41.8553 13.5706 41.5972 13.3506C41.3433 13.1263 40.9603 13.0142 40.4482 13.0142C40.0378 13.0142 39.7013 13.0882 39.439 13.2363C39.1766 13.3802 39.001 13.5854 38.9121 13.8521L38.9058 13.8711H37.8013L37.8076 13.833C37.8669 13.4733 38.015 13.1602 38.252 12.8936C38.4932 12.6227 38.8042 12.4132 39.1851 12.2651C39.5659 12.1128 39.9997 12.0366 40.4863 12.0366C41.0449 12.0366 41.5168 12.1276 41.9019 12.3096C42.2912 12.4915 42.5853 12.7539 42.7842 13.0967C42.9873 13.4352 43.0889 13.8415 43.0889 14.3154V19H41.9844V17.9907H41.8828C41.7389 18.2319 41.5633 18.4372 41.356 18.6064C41.1528 18.7757 40.9222 18.9048 40.6641 18.9937C40.4059 19.0783 40.1224 19.1206 39.8135 19.1206ZM47.4561 19.1206C46.9482 19.1206 46.4997 19.0444 46.1104 18.8921C45.721 18.7355 45.4079 18.5176 45.1709 18.2383C44.9382 17.959 44.8006 17.631 44.7583 17.2544H45.8882C45.9813 17.5379 46.1632 17.7664 46.4341 17.9399C46.7049 18.1134 47.0583 18.2002 47.4941 18.2002C47.8031 18.2002 48.0739 18.1558 48.3066 18.0669C48.5436 17.9738 48.7298 17.849 48.8652 17.6924C49.0007 17.5316 49.0684 17.3475 49.0684 17.1401V17.1274C49.0684 16.8947 48.9753 16.6979 48.7891 16.5371C48.6029 16.3721 48.2982 16.2388 47.875 16.1372L46.8149 15.8833C46.3875 15.7817 46.0363 15.6506 45.7612 15.4897C45.4862 15.3247 45.283 15.1237 45.1519 14.8867C45.0207 14.6455 44.9551 14.362 44.9551 14.0361V14.0298C44.9551 13.6489 45.0651 13.3083 45.2852 13.0078C45.5094 12.7074 45.8141 12.4704 46.1992 12.2969C46.5843 12.1234 47.0181 12.0366 47.5005 12.0366C47.9787 12.0366 48.4019 12.1128 48.77 12.2651C49.1424 12.4132 49.4408 12.6248 49.665 12.8999C49.8936 13.175 50.0332 13.4987 50.084 13.8711H48.9985C48.9266 13.6003 48.7616 13.3802 48.5034 13.2109C48.2453 13.0417 47.9089 12.957 47.4941 12.957C47.2233 12.957 46.9821 13.0015 46.7705 13.0903C46.5589 13.175 46.3918 13.2935 46.269 13.4458C46.1463 13.5981 46.085 13.7759 46.085 13.979V13.9917C46.085 14.144 46.1252 14.2795 46.2056 14.3979C46.286 14.5164 46.4108 14.6201 46.5801 14.709C46.7493 14.7979 46.9673 14.8761 47.2339 14.9438L48.2876 15.1978C48.9308 15.3543 49.409 15.5786 49.7222 15.8706C50.0396 16.1626 50.1982 16.554 50.1982 17.0449V17.0576C50.1982 17.4639 50.0776 17.8236 49.8364 18.1367C49.5952 18.4456 49.2673 18.6868 48.8525 18.8604C48.4421 19.0339 47.9766 19.1206 47.4561 19.1206ZM51.9756 19V9.44043H53.0801V19H51.9756ZM56.2856 19L53.6133 15.6484L54.4258 14.9438L57.6758 19H56.2856ZM52.9404 16.5371L52.8896 15.147H53.1816L56.1396 12.1572H57.479L54.229 15.293L53.9624 15.5532L52.9404 16.5371ZM61.0654 19.1206C60.5576 19.1206 60.109 19.0444 59.7197 18.8921C59.3304 18.7355 59.0173 18.5176 58.7803 18.2383C58.5475 17.959 58.41 17.631 58.3677 17.2544H59.4976C59.5907 17.5379 59.7726 17.7664 60.0435 17.9399C60.3143 18.1134 60.6676 18.2002 61.1035 18.2002C61.4124 18.2002 61.6833 18.1558 61.916 18.0669C62.153 17.9738 62.3392 17.849 62.4746 17.6924C62.61 17.5316 62.6777 17.3475 62.6777 17.1401V17.1274C62.6777 16.8947 62.5846 16.6979 62.3984 16.5371C62.2122 16.3721 61.9076 16.2388 61.4844 16.1372L60.4243 15.8833C59.9969 15.7817 59.6457 15.6506 59.3706 15.4897C59.0955 15.3247 58.8924 15.1237 58.7612 14.8867C58.63 14.6455 58.5645 14.362 58.5645 14.0361V14.0298C58.5645 13.6489 58.6745 13.3083 58.8945 13.0078C59.1188 12.7074 59.4235 12.4704 59.8086 12.2969C60.1937 12.1234 60.6274 12.0366 61.1099 12.0366C61.5881 12.0366 62.0112 12.1128 62.3794 12.2651C62.7518 12.4132 63.0501 12.6248 63.2744 12.8999C63.5029 13.175 63.6426 13.4987 63.6934 13.8711H62.6079C62.536 13.6003 62.3709 13.3802 62.1128 13.2109C61.8547 13.0417 61.5182 12.957 61.1035 12.957C60.8327 12.957 60.5915 13.0015 60.3799 13.0903C60.1683 13.175 60.0011 13.2935 59.8784 13.4458C59.7557 13.5981 59.6943 13.7759 59.6943 13.979V13.9917C59.6943 14.144 59.7345 14.2795 59.8149 14.3979C59.8953 14.5164 60.0202 14.6201 60.1895 14.709C60.3587 14.7979 60.5767 14.8761 60.8433 14.9438L61.897 15.1978C62.5402 15.3543 63.0184 15.5786 63.3315 15.8706C63.6489 16.1626 63.8076 16.554 63.8076 17.0449V17.0576C63.8076 17.4639 63.687 17.8236 63.4458 18.1367C63.2046 18.4456 62.8766 18.6868 62.4619 18.8604C62.0514 19.0339 61.5859 19.1206 61.0654 19.1206Z" fill="white"/>
</svg>
