<svg width="180" height="28" viewBox="0 0 180 28" fill="none" xmlns="http://www.w3.org/2000/svg">
<rect width="180" height="28" rx="5" fill="#03A200" style="mix-blend-mode:soft-light"/>
<rect width="180" height="28" rx="5" fill="#03A200" fill-opacity="0.75"/>
<path d="M11.2715 11.2622C11.2715 11.1479 11.2757 10.9681 11.2842 10.7227C11.2969 10.4772 11.3159 10.217 11.3413 9.94189C11.3709 9.66683 11.4111 9.42562 11.4619 9.21826C11.5212 8.97705 11.6291 8.81413 11.7856 8.72949C11.9422 8.64486 12.1094 8.62581 12.2871 8.67236C12.4648 8.71891 12.6151 8.81413 12.7378 8.95801C13.089 9.35579 13.4741 9.63721 13.8931 9.80225C14.312 9.96729 14.7669 10.0498 15.2578 10.0498C15.8376 10.0498 16.3919 10.0011 16.9209 9.90381C17.4541 9.80648 17.981 9.75781 18.5015 9.75781C19.2505 9.75781 19.9403 9.87207 20.5708 10.1006C21.2056 10.3249 21.7536 10.6444 22.2148 11.0591C22.6803 11.4696 23.04 11.9562 23.2939 12.519C23.5521 13.0776 23.6812 13.6912 23.6812 14.3599C23.6812 15.0539 23.5521 15.6908 23.2939 16.2705C23.04 16.8503 22.6803 17.3517 22.2148 17.7749C21.7536 18.1981 21.2056 18.526 20.5708 18.7588C19.936 18.9915 19.2378 19.1079 18.4761 19.1079C17.3843 19.1079 16.3962 18.9238 15.5117 18.5557C14.6273 18.1833 13.8677 17.6522 13.2329 16.9624C12.6024 16.2726 12.1178 15.4474 11.7793 14.4868C11.4408 13.522 11.2715 12.4471 11.2715 11.2622ZM12.23 11.2622C12.23 12.3159 12.3739 13.266 12.6616 14.1123C12.9536 14.9587 13.3726 15.6823 13.9185 16.2832C14.4644 16.8841 15.1203 17.3454 15.8862 17.667C16.6564 17.9886 17.5197 18.1494 18.4761 18.1494C19.314 18.1494 20.0503 17.9886 20.6851 17.667C21.3241 17.3454 21.8234 16.901 22.1831 16.334C22.5428 15.7627 22.7227 15.1047 22.7227 14.3599C22.7227 13.6489 22.5428 13.0205 22.1831 12.4746C21.8234 11.9245 21.3262 11.495 20.6914 11.186C20.0566 10.8729 19.3267 10.7163 18.5015 10.7163C18.2856 10.7163 18.0656 10.729 17.8413 10.7544C17.617 10.7798 17.3779 10.8094 17.124 10.8433C16.8447 10.8813 16.5485 10.9194 16.2354 10.9575C15.9264 10.9914 15.6006 11.0083 15.2578 11.0083C14.7458 11.0083 14.2316 10.9215 13.7153 10.748C13.1991 10.5703 12.7632 10.3185 12.4077 9.99268C12.3442 9.93343 12.3062 9.94613 12.2935 10.0308C12.2638 10.2 12.2448 10.3947 12.2363 10.6147C12.2321 10.8348 12.23 11.0506 12.23 11.2622ZM14.9849 12.7412C14.951 12.6439 14.9574 12.5635 15.0039 12.5C15.0505 12.4365 15.1118 12.4048 15.188 12.4048C15.2642 12.4006 15.3361 12.445 15.4038 12.5381C15.6493 12.8555 15.9264 13.1094 16.2354 13.2998C16.5485 13.4902 16.887 13.6405 17.251 13.7505C17.6191 13.8563 18.0042 13.943 18.4062 14.0107C19.5742 14.2012 20.5348 14.4678 21.2881 14.8105C22.0413 15.1533 22.6317 15.6082 23.0591 16.1753C23.2241 16.3996 23.4019 16.6577 23.5923 16.9497C23.7869 17.2375 23.9689 17.5337 24.1382 17.8384C24.3117 18.1431 24.4513 18.4372 24.5571 18.7207C24.6672 19.0042 24.7222 19.256 24.7222 19.4761C24.7222 19.7384 24.6396 19.9648 24.4746 20.1553C24.3096 20.3457 24.1107 20.4409 23.8779 20.4409C23.7679 20.4409 23.6642 20.4092 23.5669 20.3457C23.4738 20.2865 23.4019 20.1807 23.3511 20.0283C23.2199 19.6094 23.1035 19.2137 23.002 18.8413C22.9004 18.4689 22.7798 18.1177 22.6401 17.7876C22.5047 17.4575 22.3185 17.1465 22.0815 16.8545C21.8657 16.5837 21.6351 16.3509 21.3896 16.1562C21.1484 15.9574 20.8734 15.7839 20.5645 15.6357C20.2598 15.4876 19.9043 15.3501 19.498 15.2231C19.0918 15.0962 18.62 14.9692 18.0825 14.8423C17.5832 14.7196 17.124 14.5736 16.7051 14.4043C16.2861 14.235 15.9264 14.0192 15.626 13.7568C15.3298 13.4902 15.116 13.1517 14.9849 12.7412Z" fill="white"/>
<path d="M30.438 19L33.8149 9.84033H34.6909V11.3193H34.3291L31.6377 19H30.438ZM31.9678 16.3784L32.3232 15.4072H36.4619L36.8174 16.3784H31.9678ZM37.1221 19L34.4307 11.3193V9.84033H34.9448L38.3218 19H37.1221ZM39.8516 19V9.44043H40.9561V19H39.8516ZM43.1396 19V9.44043H44.2441V19H43.1396ZM50.1602 19V9.84033H55.7207V10.8687H51.3027V14.0171H55.3589V15.0327H51.3027V19H50.1602ZM57.4854 19V12.1572H58.5898V19H57.4854ZM58.0439 10.8369C57.8366 10.8369 57.6567 10.7629 57.5044 10.6147C57.3563 10.4624 57.2822 10.2826 57.2822 10.0752C57.2822 9.86361 57.3563 9.68376 57.5044 9.53564C57.6567 9.38753 57.8366 9.31348 58.0439 9.31348C58.2555 9.31348 58.4354 9.38753 58.5835 9.53564C58.7316 9.68376 58.8057 9.86361 58.8057 10.0752C58.8057 10.2826 58.7316 10.4624 58.5835 10.6147C58.4354 10.7629 58.2555 10.8369 58.0439 10.8369ZM63.4648 19.1206C62.8132 19.1206 62.2524 18.9767 61.7827 18.689C61.3172 18.4012 60.9575 17.995 60.7036 17.4702C60.4539 16.9412 60.3291 16.3192 60.3291 15.604V15.5977C60.3291 14.891 60.4539 14.271 60.7036 13.7378C60.9575 13.2046 61.3151 12.7878 61.7764 12.4873C62.2376 12.1868 62.7772 12.0366 63.395 12.0366C64.0171 12.0366 64.5503 12.1805 64.9946 12.4683C65.4432 12.756 65.786 13.158 66.0229 13.6743C66.2642 14.1864 66.3848 14.783 66.3848 15.4644V15.896H60.9004V15.0137H65.8198L65.2739 15.8198V15.3818C65.2739 14.8444 65.1935 14.4022 65.0327 14.0552C64.8719 13.7082 64.6497 13.45 64.3662 13.2808C64.0827 13.1073 63.7568 13.0205 63.3887 13.0205C63.0205 13.0205 62.6904 13.1115 62.3984 13.2935C62.1107 13.4712 61.8822 13.7357 61.7129 14.0869C61.5436 14.4382 61.459 14.8698 61.459 15.3818V15.8198C61.459 16.3065 61.5415 16.7233 61.7065 17.0703C61.8716 17.4131 62.1064 17.6776 62.4111 17.8638C62.7158 18.0457 63.0755 18.1367 63.4902 18.1367C63.7992 18.1367 64.0679 18.0944 64.2964 18.0098C64.5249 17.9251 64.7132 17.8172 64.8613 17.686C65.0094 17.5549 65.1131 17.4215 65.1724 17.2861L65.1978 17.229H66.3022L66.2896 17.2798C66.2303 17.5125 66.1245 17.7389 65.9722 17.959C65.8241 18.1748 65.6315 18.3716 65.3945 18.5493C65.1576 18.7228 64.8761 18.8625 64.5503 18.9683C64.2287 19.0698 63.8669 19.1206 63.4648 19.1206ZM68.1621 19V9.44043H69.2666V19H68.1621ZM73.9131 19.1206C73.3376 19.1206 72.834 18.9746 72.4023 18.6826C71.9707 18.3906 71.6364 17.9801 71.3994 17.4512C71.1624 16.918 71.0439 16.2959 71.0439 15.585V15.5723C71.0439 14.8571 71.1624 14.235 71.3994 13.7061C71.6364 13.1771 71.9686 12.7666 72.396 12.4746C72.8276 12.1826 73.3333 12.0366 73.9131 12.0366C74.2262 12.0366 74.5203 12.0874 74.7954 12.189C75.0747 12.2863 75.3223 12.4238 75.5381 12.6016C75.7539 12.7793 75.9232 12.9909 76.0459 13.2363H76.1475V9.44043H77.252V19H76.1475V17.9082H76.0459C75.9062 18.1621 75.7306 18.38 75.519 18.562C75.3075 18.7397 75.0662 18.8773 74.7954 18.9746C74.5246 19.0719 74.2305 19.1206 73.9131 19.1206ZM74.167 18.1431C74.5817 18.1431 74.9393 18.0394 75.2397 17.832C75.5402 17.6247 75.7708 17.3306 75.9316 16.9497C76.0924 16.5646 76.1729 16.1097 76.1729 15.585V15.5723C76.1729 15.0433 76.0924 14.5884 75.9316 14.2075C75.7708 13.8267 75.5402 13.5326 75.2397 13.3252C74.9393 13.1178 74.5817 13.0142 74.167 13.0142C73.7523 13.0142 73.3947 13.1178 73.0942 13.3252C72.798 13.5283 72.5695 13.8203 72.4087 14.2012C72.2521 14.582 72.1738 15.0391 72.1738 15.5723V15.585C72.1738 16.1139 72.2521 16.571 72.4087 16.9561C72.5695 17.3369 72.798 17.631 73.0942 17.8384C73.3947 18.0415 73.7523 18.1431 74.167 18.1431ZM81.7207 19.1206C81.2129 19.1206 80.7643 19.0444 80.375 18.8921C79.9857 18.7355 79.6725 18.5176 79.4355 18.2383C79.2028 17.959 79.0653 17.631 79.0229 17.2544H80.1528C80.2459 17.5379 80.4279 17.7664 80.6987 17.9399C80.9696 18.1134 81.3229 18.2002 81.7588 18.2002C82.0677 18.2002 82.3385 18.1558 82.5713 18.0669C82.8083 17.9738 82.9945 17.849 83.1299 17.6924C83.2653 17.5316 83.333 17.3475 83.333 17.1401V17.1274C83.333 16.8947 83.2399 16.6979 83.0537 16.5371C82.8675 16.3721 82.5628 16.2388 82.1396 16.1372L81.0796 15.8833C80.6522 15.7817 80.3009 15.6506 80.0259 15.4897C79.7508 15.3247 79.5477 15.1237 79.4165 14.8867C79.2853 14.6455 79.2197 14.362 79.2197 14.0361V14.0298C79.2197 13.6489 79.3298 13.3083 79.5498 13.0078C79.7741 12.7074 80.0788 12.4704 80.4639 12.2969C80.849 12.1234 81.2827 12.0366 81.7651 12.0366C82.2433 12.0366 82.6665 12.1128 83.0347 12.2651C83.4071 12.4132 83.7054 12.6248 83.9297 12.8999C84.1582 13.175 84.2979 13.4987 84.3486 13.8711H83.2632C83.1912 13.6003 83.0262 13.3802 82.7681 13.2109C82.5099 13.0417 82.1735 12.957 81.7588 12.957C81.488 12.957 81.2467 13.0015 81.0352 13.0903C80.8236 13.175 80.6564 13.2935 80.5337 13.4458C80.411 13.5981 80.3496 13.7759 80.3496 13.979V13.9917C80.3496 14.144 80.3898 14.2795 80.4702 14.3979C80.5506 14.5164 80.6755 14.6201 80.8447 14.709C81.014 14.7979 81.2319 14.8761 81.4985 14.9438L82.5522 15.1978C83.1955 15.3543 83.6737 15.5786 83.9868 15.8706C84.3042 16.1626 84.4629 16.554 84.4629 17.0449V17.0576C84.4629 17.4639 84.3423 17.8236 84.1011 18.1367C83.8599 18.4456 83.5319 18.6868 83.1172 18.8604C82.7067 19.0339 82.2412 19.1206 81.7207 19.1206Z" fill="white"/>
</svg>
