<svg width="180" height="28" viewBox="0 0 180 28" fill="none" xmlns="http://www.w3.org/2000/svg">
<path d="M18.0317 20.0791C17.397 20.0791 16.8003 19.9797 16.2417 19.7808C15.6873 19.5819 15.2155 19.2941 14.8262 18.9175C14.4368 18.5409 14.1766 18.0881 14.0454 17.5591C14.0158 17.4448 14.001 17.339 14.001 17.2417C14.001 17.0555 14.0518 16.9053 14.1533 16.791C14.2549 16.6768 14.3988 16.6196 14.585 16.6196C14.7415 16.6196 14.8727 16.6641 14.9785 16.7529C15.0843 16.8376 15.1647 16.9624 15.2197 17.1274C15.3213 17.5252 15.4969 17.8595 15.7466 18.1304C16.0005 18.4012 16.32 18.6064 16.7051 18.7461C17.0902 18.8857 17.5366 18.9556 18.0444 18.9556C18.6115 18.9556 19.0981 18.8794 19.5044 18.7271C19.9106 18.5705 20.2196 18.3483 20.4312 18.0605C20.647 17.7686 20.7549 17.4194 20.7549 17.0132C20.7549 16.5011 20.5856 16.0949 20.2471 15.7944C19.9128 15.494 19.3499 15.2485 18.5586 15.0581L17.3525 14.7725C16.2904 14.5143 15.5054 14.1462 14.9976 13.668C14.4897 13.1855 14.2358 12.5698 14.2358 11.8208C14.2358 11.2157 14.3966 10.6846 14.7183 10.2275C15.0441 9.77051 15.4927 9.41292 16.064 9.15479C16.6353 8.89665 17.2891 8.76758 18.0254 8.76758C18.6475 8.76758 19.2166 8.86914 19.7329 9.07227C20.2534 9.27539 20.6893 9.56104 21.0405 9.9292C21.396 10.2974 21.6372 10.7248 21.7642 11.2114C21.7811 11.2707 21.7917 11.3278 21.7959 11.3828C21.8044 11.4336 21.8086 11.4844 21.8086 11.5352C21.8086 11.7171 21.7578 11.8652 21.6562 11.9795C21.5547 12.0895 21.4108 12.1445 21.2246 12.1445C20.9072 12.1445 20.6956 11.9774 20.5898 11.6431C20.4714 11.2622 20.2936 10.9427 20.0566 10.6846C19.8239 10.4222 19.5361 10.2254 19.1934 10.0942C18.8506 9.95882 18.4613 9.89111 18.0254 9.89111C17.488 9.89111 17.0288 9.97575 16.6479 10.145C16.2671 10.3143 15.9751 10.5407 15.772 10.8242C15.5731 11.1035 15.4736 11.4103 15.4736 11.7446C15.4736 12.2059 15.6408 12.5889 15.9751 12.8936C16.3136 13.194 16.8363 13.4289 17.543 13.5981L18.749 13.8838C19.8704 14.1546 20.6914 14.5334 21.2119 15.02C21.7324 15.5067 21.9927 16.1414 21.9927 16.9243C21.9927 17.6014 21.8107 18.1748 21.4468 18.6445C21.0871 19.1143 20.6068 19.4697 20.0059 19.7109C19.4049 19.9564 18.7469 20.0791 18.0317 20.0791ZM18 21.6089C17.8688 21.6089 17.7567 21.5623 17.6636 21.4692C17.5705 21.3761 17.5239 21.2619 17.5239 21.1265V7.7583C17.5239 7.62712 17.5705 7.51497 17.6636 7.42188C17.7567 7.32878 17.8688 7.28223 18 7.28223C18.1354 7.28223 18.2497 7.32878 18.3428 7.42188C18.4359 7.51497 18.4824 7.62712 18.4824 7.7583V21.1265C18.4824 21.2619 18.4359 21.3761 18.3428 21.4692C18.2497 21.5623 18.1354 21.6089 18 21.6089Z" fill="#03A200"/>
<path d="M31.168 19V9.84033H36.7285V10.8687H32.3105V14.0171H36.3667V15.0327H32.3105V19H31.168ZM38.4932 19V12.1572H39.5977V19H38.4932ZM39.0518 10.8369C38.8444 10.8369 38.6646 10.7629 38.5122 10.6147C38.3641 10.4624 38.29 10.2826 38.29 10.0752C38.29 9.86361 38.3641 9.68376 38.5122 9.53564C38.6646 9.38753 38.8444 9.31348 39.0518 9.31348C39.2633 9.31348 39.4432 9.38753 39.5913 9.53564C39.7394 9.68376 39.8135 9.86361 39.8135 10.0752C39.8135 10.2826 39.7394 10.4624 39.5913 10.6147C39.4432 10.7629 39.2633 10.8369 39.0518 10.8369ZM41.6797 19V12.1572H42.7842V13.1855H42.8857C43.0592 12.8216 43.3089 12.5402 43.6348 12.3413C43.9606 12.1382 44.3753 12.0366 44.8789 12.0366C45.6491 12.0366 46.2394 12.2567 46.6499 12.6968C47.0646 13.1326 47.272 13.7568 47.272 14.5693V19H46.1675V14.8359C46.1675 14.2181 46.0363 13.7611 45.7739 13.4648C45.5158 13.1644 45.1138 13.0142 44.5679 13.0142C44.2039 13.0142 43.8887 13.0924 43.6221 13.249C43.3555 13.4056 43.1481 13.6278 43 13.9155C42.8561 14.2033 42.7842 14.5482 42.7842 14.9502V19H41.6797ZM51.1504 19.1206C50.7188 19.1206 50.3294 19.0381 49.9824 18.873C49.6396 18.708 49.3667 18.4731 49.1636 18.1685C48.9647 17.8638 48.8652 17.5041 48.8652 17.0894V17.0767C48.8652 16.6704 48.9626 16.3234 49.1572 16.0356C49.3519 15.7437 49.6354 15.5151 50.0078 15.3501C50.3802 15.1851 50.8309 15.0877 51.3599 15.0581L53.8735 14.9058V15.7881L51.4932 15.9404C50.9727 15.9701 50.5918 16.078 50.3506 16.2642C50.1136 16.4504 49.9951 16.7127 49.9951 17.0513V17.064C49.9951 17.411 50.1263 17.6818 50.3887 17.8765C50.651 18.0669 50.9811 18.1621 51.3789 18.1621C51.7555 18.1621 52.0898 18.0881 52.3818 17.9399C52.6738 17.7876 52.9023 17.5824 53.0674 17.3242C53.2367 17.0661 53.3213 16.7741 53.3213 16.4482V14.3154C53.3213 13.8923 53.1922 13.5706 52.9341 13.3506C52.6802 13.1263 52.2972 13.0142 51.7852 13.0142C51.3747 13.0142 51.0382 13.0882 50.7759 13.2363C50.5135 13.3802 50.3379 13.5854 50.249 13.8521L50.2427 13.8711H49.1382L49.1445 13.833C49.2038 13.4733 49.3519 13.1602 49.5889 12.8936C49.8301 12.6227 50.1411 12.4132 50.522 12.2651C50.9028 12.1128 51.3366 12.0366 51.8232 12.0366C52.3818 12.0366 52.8537 12.1276 53.2388 12.3096C53.6281 12.4915 53.9222 12.7539 54.1211 13.0967C54.3242 13.4352 54.4258 13.8415 54.4258 14.3154V19H53.3213V17.9907H53.2197C53.0758 18.2319 52.9002 18.4372 52.6929 18.6064C52.4897 18.7757 52.2591 18.9048 52.001 18.9937C51.7428 19.0783 51.4593 19.1206 51.1504 19.1206ZM56.4443 19V12.1572H57.5488V13.1855H57.6504C57.8239 12.8216 58.0736 12.5402 58.3994 12.3413C58.7253 12.1382 59.14 12.0366 59.6436 12.0366C60.4137 12.0366 61.0041 12.2567 61.4146 12.6968C61.8293 13.1326 62.0366 13.7568 62.0366 14.5693V19H60.9321V14.8359C60.9321 14.2181 60.8009 13.7611 60.5386 13.4648C60.2804 13.1644 59.8784 13.0142 59.3325 13.0142C58.9686 13.0142 58.6533 13.0924 58.3867 13.249C58.1201 13.4056 57.9128 13.6278 57.7646 13.9155C57.6208 14.2033 57.5488 14.5482 57.5488 14.9502V19H56.4443ZM66.8354 19.1206C66.1965 19.1206 65.6421 18.9746 65.1724 18.6826C64.7026 18.3906 64.3387 17.978 64.0806 17.4448C63.8224 16.9116 63.6934 16.2832 63.6934 15.5596V15.5469C63.6934 14.8359 63.8203 14.2181 64.0742 13.6934C64.3324 13.1686 64.6963 12.7624 65.166 12.4746C65.6357 12.1826 66.1901 12.0366 66.8291 12.0366C67.3835 12.0366 67.8617 12.134 68.2637 12.3286C68.6657 12.5233 68.9873 12.7856 69.2285 13.1157C69.4697 13.4416 69.6242 13.8076 69.6919 14.2139L69.6982 14.252H68.6001L68.5938 14.2329C68.5091 13.8944 68.3166 13.6066 68.0161 13.3696C67.7157 13.1326 67.32 13.0142 66.8291 13.0142C66.4186 13.0142 66.0632 13.1178 65.7627 13.3252C65.4622 13.5326 65.2295 13.8267 65.0645 14.2075C64.9036 14.5841 64.8232 15.0306 64.8232 15.5469V15.5596C64.8232 16.0843 64.9058 16.5413 65.0708 16.9307C65.2358 17.3158 65.4686 17.6141 65.769 17.8257C66.0695 18.0373 66.4229 18.1431 66.8291 18.1431C67.2904 18.1431 67.667 18.0436 67.959 17.8447C68.251 17.6458 68.4604 17.356 68.5874 16.9751L68.6001 16.937L69.6919 16.9307L69.6792 17.0005C69.5861 17.411 69.4211 17.777 69.1841 18.0986C68.9471 18.416 68.634 18.6657 68.2446 18.8477C67.8553 19.0296 67.3856 19.1206 66.8354 19.1206ZM74.1035 19.1206C73.4518 19.1206 72.8911 18.9767 72.4214 18.689C71.9559 18.4012 71.5962 17.995 71.3423 17.4702C71.0926 16.9412 70.9678 16.3192 70.9678 15.604V15.5977C70.9678 14.891 71.0926 14.271 71.3423 13.7378C71.5962 13.2046 71.9538 12.7878 72.415 12.4873C72.8763 12.1868 73.4159 12.0366 74.0337 12.0366C74.6558 12.0366 75.189 12.1805 75.6333 12.4683C76.0819 12.756 76.4246 13.158 76.6616 13.6743C76.9028 14.1864 77.0234 14.783 77.0234 15.4644V15.896H71.5391V15.0137H76.4585L75.9126 15.8198V15.3818C75.9126 14.8444 75.8322 14.4022 75.6714 14.0552C75.5106 13.7082 75.2884 13.45 75.0049 13.2808C74.7214 13.1073 74.3955 13.0205 74.0273 13.0205C73.6592 13.0205 73.3291 13.1115 73.0371 13.2935C72.7493 13.4712 72.5208 13.7357 72.3516 14.0869C72.1823 14.4382 72.0977 14.8698 72.0977 15.3818V15.8198C72.0977 16.3065 72.1802 16.7233 72.3452 17.0703C72.5103 17.4131 72.7451 17.6776 73.0498 17.8638C73.3545 18.0457 73.7142 18.1367 74.1289 18.1367C74.4378 18.1367 74.7065 18.0944 74.9351 18.0098C75.1636 17.9251 75.3519 17.8172 75.5 17.686C75.6481 17.5549 75.7518 17.4215 75.811 17.2861L75.8364 17.229H76.9409L76.9282 17.2798C76.869 17.5125 76.7632 17.7389 76.6108 17.959C76.4627 18.1748 76.2702 18.3716 76.0332 18.5493C75.7962 18.7228 75.5148 18.8625 75.189 18.9683C74.8674 19.0698 74.5055 19.1206 74.1035 19.1206Z" fill="black" fill-opacity="0.85"/>
</svg>
