<svg width="180" height="28" viewBox="0 0 180 28" fill="none" xmlns="http://www.w3.org/2000/svg">
<path d="M13.3662 13.9028C12.9642 13.9028 12.6616 13.8013 12.4585 13.5981C12.2554 13.3908 12.1538 13.0776 12.1538 12.6587V9.82129C12.1538 9.40234 12.2554 9.09131 12.4585 8.88818C12.6616 8.68506 12.9642 8.5835 13.3662 8.5835H16.2607C16.6628 8.5835 16.9653 8.68506 17.1685 8.88818C17.3716 9.09131 17.4731 9.40234 17.4731 9.82129V12.6587C17.4731 13.0776 17.3716 13.3908 17.1685 13.5981C16.9653 13.8013 16.6628 13.9028 16.2607 13.9028H13.3662ZM13.3789 13.0078H16.2417C16.3517 13.0078 16.4342 12.9782 16.4893 12.9189C16.5485 12.8597 16.5781 12.7729 16.5781 12.6587V9.82129C16.5781 9.70703 16.5485 9.6224 16.4893 9.56738C16.4342 9.50814 16.3517 9.47852 16.2417 9.47852H13.3789C13.2689 9.47852 13.1864 9.50814 13.1313 9.56738C13.0763 9.6224 13.0488 9.70703 13.0488 9.82129V12.6587C13.0488 12.7729 13.0763 12.8597 13.1313 12.9189C13.1864 12.9782 13.2689 13.0078 13.3789 13.0078ZM19.7393 13.9028C19.333 13.9028 19.0283 13.8013 18.8252 13.5981C18.6221 13.3908 18.5205 13.0776 18.5205 12.6587V9.82129C18.5205 9.40234 18.6221 9.09131 18.8252 8.88818C19.0283 8.68506 19.333 8.5835 19.7393 8.5835H22.6274C23.0295 8.5835 23.332 8.68506 23.5352 8.88818C23.7383 9.09131 23.8398 9.40234 23.8398 9.82129V12.6587C23.8398 13.0776 23.7383 13.3908 23.5352 13.5981C23.332 13.8013 23.0295 13.9028 22.6274 13.9028H19.7393ZM19.752 13.0078H22.6147C22.729 13.0078 22.8115 12.9782 22.8623 12.9189C22.9173 12.8597 22.9448 12.7729 22.9448 12.6587V9.82129C22.9448 9.70703 22.9173 9.6224 22.8623 9.56738C22.8115 9.50814 22.729 9.47852 22.6147 9.47852H19.752C19.6377 9.47852 19.5531 9.50814 19.498 9.56738C19.443 9.6224 19.4155 9.70703 19.4155 9.82129V12.6587C19.4155 12.7729 19.443 12.8597 19.498 12.9189C19.5531 12.9782 19.6377 13.0078 19.752 13.0078ZM13.3662 20.2695C12.9642 20.2695 12.6616 20.168 12.4585 19.9648C12.2554 19.7617 12.1538 19.4507 12.1538 19.0317V16.188C12.1538 15.7733 12.2554 15.4644 12.4585 15.2612C12.6616 15.0539 12.9642 14.9502 13.3662 14.9502H16.2607C16.6628 14.9502 16.9653 15.0539 17.1685 15.2612C17.3716 15.4644 17.4731 15.7733 17.4731 16.188V19.0317C17.4731 19.4507 17.3716 19.7617 17.1685 19.9648C16.9653 20.168 16.6628 20.2695 16.2607 20.2695H13.3662ZM13.3789 19.3745H16.2417C16.3517 19.3745 16.4342 19.3449 16.4893 19.2856C16.5485 19.2306 16.5781 19.146 16.5781 19.0317V16.1943C16.5781 16.0758 16.5485 15.9891 16.4893 15.9341C16.4342 15.8748 16.3517 15.8452 16.2417 15.8452H13.3789C13.2689 15.8452 13.1864 15.8748 13.1313 15.9341C13.0763 15.9891 13.0488 16.0758 13.0488 16.1943V19.0317C13.0488 19.146 13.0763 19.2306 13.1313 19.2856C13.1864 19.3449 13.2689 19.3745 13.3789 19.3745ZM19.7393 20.2695C19.333 20.2695 19.0283 20.168 18.8252 19.9648C18.6221 19.7617 18.5205 19.4507 18.5205 19.0317V16.188C18.5205 15.7733 18.6221 15.4644 18.8252 15.2612C19.0283 15.0539 19.333 14.9502 19.7393 14.9502H22.6274C23.0295 14.9502 23.332 15.0539 23.5352 15.2612C23.7383 15.4644 23.8398 15.7733 23.8398 16.188V19.0317C23.8398 19.4507 23.7383 19.7617 23.5352 19.9648C23.332 20.168 23.0295 20.2695 22.6274 20.2695H19.7393ZM19.752 19.3745H22.6147C22.729 19.3745 22.8115 19.3449 22.8623 19.2856C22.9173 19.2306 22.9448 19.146 22.9448 19.0317V16.1943C22.9448 16.0758 22.9173 15.9891 22.8623 15.9341C22.8115 15.8748 22.729 15.8452 22.6147 15.8452H19.752C19.6377 15.8452 19.5531 15.8748 19.498 15.9341C19.443 15.9891 19.4155 16.0758 19.4155 16.1943V19.0317C19.4155 19.146 19.443 19.2306 19.498 19.2856C19.5531 19.3449 19.6377 19.3745 19.752 19.3745Z" fill="#03A200"/>
<path d="M31.168 19V9.84033H34.3101C35.2157 9.84033 35.9901 10.0223 36.6333 10.3862C37.2808 10.7459 37.7759 11.2664 38.1187 11.9478C38.4614 12.6291 38.6328 13.45 38.6328 14.4106V14.4233C38.6328 15.384 38.4614 16.207 38.1187 16.8926C37.7759 17.5739 37.2829 18.0965 36.6396 18.4604C35.9964 18.8201 35.2199 19 34.3101 19H31.168ZM32.3105 17.9717H34.2339C34.9152 17.9717 35.4971 17.832 35.9795 17.5527C36.4619 17.2734 36.8301 16.8693 37.084 16.3403C37.3379 15.8114 37.4648 15.1766 37.4648 14.436V14.4233C37.4648 13.6785 37.3358 13.0417 37.0776 12.5127C36.8237 11.9795 36.4556 11.5732 35.9731 11.2939C35.4907 11.0104 34.911 10.8687 34.2339 10.8687H32.3105V17.9717ZM42.3525 19.1206C41.9209 19.1206 41.5316 19.0381 41.1846 18.873C40.8418 18.708 40.5688 18.4731 40.3657 18.1685C40.1668 17.8638 40.0674 17.5041 40.0674 17.0894V17.0767C40.0674 16.6704 40.1647 16.3234 40.3594 16.0356C40.554 15.7437 40.8376 15.5151 41.21 15.3501C41.5824 15.1851 42.033 15.0877 42.562 15.0581L45.0757 14.9058V15.7881L42.6953 15.9404C42.1748 15.9701 41.7939 16.078 41.5527 16.2642C41.3158 16.4504 41.1973 16.7127 41.1973 17.0513V17.064C41.1973 17.411 41.3285 17.6818 41.5908 17.8765C41.8532 18.0669 42.1833 18.1621 42.5811 18.1621C42.9577 18.1621 43.292 18.0881 43.584 17.9399C43.876 17.7876 44.1045 17.5824 44.2695 17.3242C44.4388 17.0661 44.5234 16.7741 44.5234 16.4482V14.3154C44.5234 13.8923 44.3944 13.5706 44.1362 13.3506C43.8823 13.1263 43.4993 13.0142 42.9873 13.0142C42.5768 13.0142 42.2404 13.0882 41.978 13.2363C41.7157 13.3802 41.54 13.5854 41.4512 13.8521L41.4448 13.8711H40.3403L40.3467 13.833C40.4059 13.4733 40.554 13.1602 40.791 12.8936C41.0322 12.6227 41.3433 12.4132 41.7241 12.2651C42.105 12.1128 42.5387 12.0366 43.0254 12.0366C43.584 12.0366 44.0558 12.1276 44.4409 12.3096C44.8302 12.4915 45.1243 12.7539 45.3232 13.0967C45.5264 13.4352 45.6279 13.8415 45.6279 14.3154V19H44.5234V17.9907H44.4219C44.278 18.2319 44.1024 18.4372 43.895 18.6064C43.6919 18.7757 43.4613 18.9048 43.2031 18.9937C42.945 19.0783 42.6615 19.1206 42.3525 19.1206ZM49.9951 19.1206C49.4873 19.1206 49.0387 19.0444 48.6494 18.8921C48.2601 18.7355 47.9469 18.5176 47.71 18.2383C47.4772 17.959 47.3397 17.631 47.2974 17.2544H48.4272C48.5203 17.5379 48.7023 17.7664 48.9731 17.9399C49.244 18.1134 49.5973 18.2002 50.0332 18.2002C50.3421 18.2002 50.613 18.1558 50.8457 18.0669C51.0827 17.9738 51.2689 17.849 51.4043 17.6924C51.5397 17.5316 51.6074 17.3475 51.6074 17.1401V17.1274C51.6074 16.8947 51.5143 16.6979 51.3281 16.5371C51.1419 16.3721 50.8372 16.2388 50.4141 16.1372L49.354 15.8833C48.9266 15.7817 48.5754 15.6506 48.3003 15.4897C48.0252 15.3247 47.8221 15.1237 47.6909 14.8867C47.5597 14.6455 47.4941 14.362 47.4941 14.0361V14.0298C47.4941 13.6489 47.6042 13.3083 47.8242 13.0078C48.0485 12.7074 48.3532 12.4704 48.7383 12.2969C49.1234 12.1234 49.5571 12.0366 50.0396 12.0366C50.5177 12.0366 50.9409 12.1128 51.3091 12.2651C51.6815 12.4132 51.9798 12.6248 52.2041 12.8999C52.4326 13.175 52.5723 13.4987 52.623 13.8711H51.5376C51.4657 13.6003 51.3006 13.3802 51.0425 13.2109C50.7843 13.0417 50.4479 12.957 50.0332 12.957C49.7624 12.957 49.5212 13.0015 49.3096 13.0903C49.098 13.175 48.9308 13.2935 48.8081 13.4458C48.6854 13.5981 48.624 13.7759 48.624 13.979V13.9917C48.624 14.144 48.6642 14.2795 48.7446 14.3979C48.825 14.5164 48.9499 14.6201 49.1191 14.709C49.2884 14.7979 49.5063 14.8761 49.7729 14.9438L50.8267 15.1978C51.4699 15.3543 51.9481 15.5786 52.2612 15.8706C52.5786 16.1626 52.7373 16.554 52.7373 17.0449V17.0576C52.7373 17.4639 52.6167 17.8236 52.3755 18.1367C52.1343 18.4456 51.8063 18.6868 51.3916 18.8604C50.9811 19.0339 50.5156 19.1206 49.9951 19.1206ZM54.5146 19V9.44043H55.6191V13.1855H55.7207C55.8942 12.8216 56.1439 12.5402 56.4697 12.3413C56.7956 12.1382 57.2103 12.0366 57.7139 12.0366C58.2259 12.0366 58.6597 12.1361 59.0151 12.335C59.3706 12.5296 59.6414 12.8153 59.8276 13.1919C60.0138 13.5685 60.1069 14.0277 60.1069 14.5693V19H59.0024V14.8359C59.0024 14.2181 58.8713 13.7611 58.6089 13.4648C58.3507 13.1644 57.9487 13.0142 57.4028 13.0142C57.0389 13.0142 56.7236 13.0924 56.457 13.249C56.1904 13.4056 55.9831 13.6278 55.835 13.9155C55.6911 14.2033 55.6191 14.5482 55.6191 14.9502V19H54.5146ZM65.5088 19.1206C65.1914 19.1206 64.8973 19.0719 64.6265 18.9746C64.3556 18.8773 64.1144 18.7397 63.9028 18.562C63.6912 18.38 63.5156 18.1621 63.376 17.9082H63.2744V19H62.1699V9.44043H63.2744V13.2363H63.376C63.5029 12.9909 63.6722 12.7793 63.8838 12.6016C64.0996 12.4238 64.3451 12.2863 64.6201 12.189C64.8994 12.0874 65.1956 12.0366 65.5088 12.0366C66.0885 12.0366 66.5921 12.1826 67.0195 12.4746C67.4512 12.7666 67.7855 13.1771 68.0225 13.7061C68.2594 14.235 68.3779 14.8571 68.3779 15.5723V15.585C68.3779 16.2959 68.2594 16.918 68.0225 17.4512C67.7855 17.9801 67.4512 18.3906 67.0195 18.6826C66.5921 18.9746 66.0885 19.1206 65.5088 19.1206ZM65.2549 18.1431C65.6738 18.1431 66.0314 18.0415 66.3276 17.8384C66.6239 17.631 66.8503 17.3369 67.0068 16.9561C67.1676 16.571 67.248 16.1139 67.248 15.585V15.5723C67.248 15.0391 67.1676 14.582 67.0068 14.2012C66.8503 13.8203 66.6239 13.5283 66.3276 13.3252C66.0314 13.1178 65.6738 13.0142 65.2549 13.0142C64.8402 13.0142 64.4826 13.1178 64.1821 13.3252C63.8817 13.5326 63.651 13.8267 63.4902 14.2075C63.3294 14.5884 63.249 15.0433 63.249 15.5723V15.585C63.249 16.1097 63.3294 16.5646 63.4902 16.9497C63.651 17.3306 63.8817 17.6247 64.1821 17.832C64.4826 18.0394 64.8402 18.1431 65.2549 18.1431ZM72.9038 19.1206C72.2563 19.1206 71.6956 18.9788 71.2217 18.6953C70.752 18.4076 70.388 17.9992 70.1299 17.4702C69.876 16.9412 69.749 16.3128 69.749 15.585V15.5723C69.749 14.8402 69.876 14.2096 70.1299 13.6807C70.388 13.1517 70.752 12.7454 71.2217 12.4619C71.6956 12.1784 72.2563 12.0366 72.9038 12.0366C73.5555 12.0366 74.1162 12.1784 74.5859 12.4619C75.0557 12.7454 75.4175 13.1517 75.6714 13.6807C75.9295 14.2096 76.0586 14.8402 76.0586 15.5723V15.585C76.0586 16.3128 75.9295 16.9412 75.6714 17.4702C75.4175 17.9992 75.0557 18.4076 74.5859 18.6953C74.1162 18.9788 73.5555 19.1206 72.9038 19.1206ZM72.9038 18.1431C73.3354 18.1431 73.7015 18.0415 74.002 17.8384C74.3024 17.6353 74.5309 17.3433 74.6875 16.9624C74.8483 16.5815 74.9287 16.1224 74.9287 15.585V15.5723C74.9287 15.0306 74.8483 14.5693 74.6875 14.1885C74.5309 13.8076 74.3024 13.5177 74.002 13.3188C73.7015 13.1157 73.3354 13.0142 72.9038 13.0142C72.4722 13.0142 72.1061 13.1157 71.8057 13.3188C71.5052 13.5177 71.2746 13.8076 71.1138 14.1885C70.9572 14.5693 70.8789 15.0306 70.8789 15.5723V15.585C70.8789 16.1224 70.9572 16.5815 71.1138 16.9624C71.2746 17.3433 71.5052 17.6353 71.8057 17.8384C72.1061 18.0415 72.4722 18.1431 72.9038 18.1431ZM79.6514 19.1206C79.2197 19.1206 78.8304 19.0381 78.4834 18.873C78.1406 18.708 77.8677 18.4731 77.6646 18.1685C77.4657 17.8638 77.3662 17.5041 77.3662 17.0894V17.0767C77.3662 16.6704 77.4635 16.3234 77.6582 16.0356C77.8529 15.7437 78.1364 15.5151 78.5088 15.3501C78.8812 15.1851 79.3319 15.0877 79.8608 15.0581L82.3745 14.9058V15.7881L79.9941 15.9404C79.4736 15.9701 79.0928 16.078 78.8516 16.2642C78.6146 16.4504 78.4961 16.7127 78.4961 17.0513V17.064C78.4961 17.411 78.6273 17.6818 78.8896 17.8765C79.152 18.0669 79.4821 18.1621 79.8799 18.1621C80.2565 18.1621 80.5908 18.0881 80.8828 17.9399C81.1748 17.7876 81.4033 17.5824 81.5684 17.3242C81.7376 17.0661 81.8223 16.7741 81.8223 16.4482V14.3154C81.8223 13.8923 81.6932 13.5706 81.4351 13.3506C81.1812 13.1263 80.7982 13.0142 80.2861 13.0142C79.8757 13.0142 79.5392 13.0882 79.2769 13.2363C79.0145 13.3802 78.8389 13.5854 78.75 13.8521L78.7437 13.8711H77.6392L77.6455 13.833C77.7048 13.4733 77.8529 13.1602 78.0898 12.8936C78.3311 12.6227 78.6421 12.4132 79.0229 12.2651C79.4038 12.1128 79.8376 12.0366 80.3242 12.0366C80.8828 12.0366 81.3547 12.1276 81.7397 12.3096C82.1291 12.4915 82.4232 12.7539 82.6221 13.0967C82.8252 13.4352 82.9268 13.8415 82.9268 14.3154V19H81.8223V17.9907H81.7207C81.5768 18.2319 81.4012 18.4372 81.1938 18.6064C80.9907 18.7757 80.7601 18.9048 80.502 18.9937C80.2438 19.0783 79.9603 19.1206 79.6514 19.1206ZM84.9453 19V12.1572H86.0498V13.1729H86.1514C86.2826 12.8132 86.5047 12.5339 86.8179 12.335C87.131 12.1361 87.5182 12.0366 87.9795 12.0366C88.0853 12.0366 88.189 12.043 88.2905 12.0557C88.3963 12.0641 88.4767 12.0726 88.5317 12.0811V13.1538C88.4175 13.1326 88.3053 13.1178 88.1953 13.1094C88.0895 13.0967 87.9753 13.0903 87.8525 13.0903C87.5013 13.0903 87.1903 13.1602 86.9194 13.2998C86.6486 13.4395 86.4349 13.6341 86.2783 13.8838C86.126 14.1335 86.0498 14.4255 86.0498 14.7598V19H84.9453ZM92.2324 19.1206C91.6569 19.1206 91.1533 18.9746 90.7217 18.6826C90.29 18.3906 89.9557 17.9801 89.7188 17.4512C89.4818 16.918 89.3633 16.2959 89.3633 15.585V15.5723C89.3633 14.8571 89.4818 14.235 89.7188 13.7061C89.9557 13.1771 90.2879 12.7666 90.7153 12.4746C91.147 12.1826 91.6527 12.0366 92.2324 12.0366C92.5456 12.0366 92.8397 12.0874 93.1147 12.189C93.394 12.2863 93.6416 12.4238 93.8574 12.6016C94.0732 12.7793 94.2425 12.9909 94.3652 13.2363H94.4668V9.44043H95.5713V19H94.4668V17.9082H94.3652C94.2256 18.1621 94.05 18.38 93.8384 18.562C93.6268 18.7397 93.3856 18.8773 93.1147 18.9746C92.8439 19.0719 92.5498 19.1206 92.2324 19.1206ZM92.4863 18.1431C92.901 18.1431 93.2586 18.0394 93.5591 17.832C93.8595 17.6247 94.0902 17.3306 94.251 16.9497C94.4118 16.5646 94.4922 16.1097 94.4922 15.585V15.5723C94.4922 15.0433 94.4118 14.5884 94.251 14.2075C94.0902 13.8267 93.8595 13.5326 93.5591 13.3252C93.2586 13.1178 92.901 13.0142 92.4863 13.0142C92.0716 13.0142 91.714 13.1178 91.4136 13.3252C91.1174 13.5283 90.8888 13.8203 90.728 14.2012C90.5715 14.582 90.4932 15.0391 90.4932 15.5723V15.585C90.4932 16.1139 90.5715 16.571 90.728 16.9561C90.8888 17.3369 91.1174 17.631 91.4136 17.8384C91.714 18.0415 92.0716 18.1431 92.4863 18.1431Z" fill="black" fill-opacity="0.85"/>
</svg>
