<svg width="44" height="27" viewBox="0 0 44 27" fill="none" xmlns="http://www.w3.org/2000/svg">
<rect x="0.25" y="0.75" width="42.5" height="24.5" rx="6.25" stroke="black" stroke-opacity="0.1" stroke-width="0.5"/>
<path d="M11.3633 18.2158C10.6862 18.2158 10.1064 18.0212 9.62402 17.6318C9.14583 17.2425 8.77767 16.6903 8.51953 15.9751C8.26139 15.2557 8.13232 14.4051 8.13232 13.4233V13.4106C8.13232 12.4289 8.26139 11.5804 8.51953 10.8652C8.77767 10.1501 9.14583 9.59782 9.62402 9.2085C10.1064 8.81917 10.6862 8.62451 11.3633 8.62451C12.0404 8.62451 12.6201 8.81917 13.1025 9.2085C13.585 9.59782 13.9552 10.1501 14.2134 10.8652C14.4757 11.5804 14.6069 12.4289 14.6069 13.4106V13.4233C14.6069 14.4051 14.4757 15.2557 14.2134 15.9751C13.9552 16.6903 13.585 17.2425 13.1025 17.6318C12.6201 18.0212 12.0404 18.2158 11.3633 18.2158ZM11.3633 17.2192C11.8034 17.2192 12.1779 17.0648 12.4868 16.7559C12.8 16.4469 13.0391 16.009 13.2041 15.4419C13.3734 14.8748 13.458 14.202 13.458 13.4233V13.4106C13.458 12.632 13.3734 11.9613 13.2041 11.3984C13.0391 10.8314 12.8 10.3955 12.4868 10.0908C12.1779 9.7819 11.8034 9.62744 11.3633 9.62744C10.9274 9.62744 10.5529 9.7819 10.2397 10.0908C9.93083 10.3955 9.69385 10.8314 9.52881 11.3984C9.36377 11.9613 9.28125 12.632 9.28125 13.4106V13.4233C9.28125 14.202 9.36377 14.8748 9.52881 15.4419C9.69385 16.009 9.93083 16.4469 10.2397 16.7559C10.5529 17.0648 10.9274 17.2192 11.3633 17.2192ZM19.4946 18.2158C18.9276 18.2158 18.4219 18.1037 17.9775 17.8794C17.5332 17.6551 17.1756 17.3504 16.9048 16.9653C16.6382 16.576 16.4816 16.138 16.4351 15.6514L16.4287 15.5815H17.5269L17.5332 15.6323C17.5713 15.9243 17.6771 16.1909 17.8506 16.4321C18.0283 16.6691 18.259 16.8574 18.5425 16.9971C18.8302 17.1367 19.1519 17.2065 19.5073 17.2065C19.9136 17.2065 20.2712 17.1177 20.5801 16.9399C20.889 16.758 21.1302 16.5083 21.3037 16.1909C21.4772 15.8735 21.564 15.5096 21.564 15.0991V15.0864C21.564 14.6802 21.4751 14.3205 21.2974 14.0073C21.1239 13.6899 20.8848 13.4424 20.5801 13.2646C20.2754 13.0869 19.9242 12.998 19.5264 12.998C19.2217 12.998 18.9403 13.0446 18.6821 13.1377C18.4282 13.2308 18.2018 13.3704 18.0029 13.5566C17.9225 13.6328 17.8464 13.7153 17.7744 13.8042C17.7067 13.8931 17.6432 13.9925 17.584 14.1025H16.5938L17.0762 8.84033H22.1733V9.8623H17.9775L17.6665 12.96H17.7681C17.9035 12.7526 18.0706 12.5791 18.2695 12.4395C18.4684 12.2998 18.6906 12.194 18.936 12.1221C19.1857 12.0459 19.4481 12.0078 19.7231 12.0078C20.2987 12.0078 20.8086 12.1411 21.2529 12.4077C21.6973 12.6701 22.0464 13.0319 22.3003 13.4932C22.5542 13.9502 22.6812 14.4749 22.6812 15.0674V15.0801C22.6812 15.6937 22.5436 16.2375 22.2686 16.7114C21.9977 17.1812 21.6232 17.5493 21.145 17.8159C20.6668 18.0825 20.1167 18.2158 19.4946 18.2158Z" fill="black" fill-opacity="0.85"/>
<g filter="url(#filter0_ddd_520_7480)">
<rect x="27.5" y="3" width="13" height="20" rx="6.5" fill="white" shape-rendering="crispEdges"/>
<rect x="27.5" y="12.5" width="13" height="1" fill="black" fill-opacity="0.12"/>
<rect x="27.5" y="12" width="13" height="2" fill="black" fill-opacity="0.05"/>
<rect opacity="0.0512463" x="27.5" y="9" width="13" height="4" fill="url(#paint0_linear_520_7480)"/>
<rect opacity="0.0512463" x="27.5" y="13" width="13" height="4" fill="url(#paint1_linear_520_7480)"/>
<path d="M31.6179 8.64917L33.5542 6.66992C33.6885 6.53385 33.8371 6.46582 34 6.46582C34.0841 6.46761 34.1611 6.48462 34.231 6.51685C34.3026 6.54907 34.3733 6.6001 34.4431 6.66992L36.3767 8.64917C36.477 8.74764 36.5271 8.86849 36.5271 9.01172C36.5271 9.11019 36.5029 9.19971 36.4546 9.28027C36.408 9.35905 36.3445 9.42261 36.2639 9.47095C36.1851 9.51929 36.0974 9.54346 36.0007 9.54346C35.8521 9.54346 35.7232 9.48527 35.614 9.3689L33.9114 7.60449H34.094L32.386 9.3689C32.2732 9.48527 32.1425 9.54346 31.9939 9.54346C31.899 9.54346 31.8113 9.51929 31.7307 9.47095C31.6519 9.42261 31.5884 9.35905 31.54 9.28027C31.4935 9.19971 31.4702 9.11019 31.4702 9.01172C31.4702 8.9401 31.4819 8.87476 31.5051 8.81567C31.5302 8.75659 31.5678 8.70109 31.6179 8.64917Z" fill="black" fill-opacity="0.85"/>
<path d="M34 19.6643C33.8389 19.6643 33.6903 19.5972 33.5542 19.4629L31.6179 17.4836C31.5678 17.4317 31.5302 17.3762 31.5051 17.3171C31.4819 17.2581 31.4702 17.1927 31.4702 17.1211C31.4702 17.0244 31.4935 16.9358 31.54 16.8552C31.5884 16.7729 31.6519 16.7084 31.7307 16.6619C31.8113 16.6135 31.899 16.5894 31.9939 16.5894C32.1407 16.5894 32.2714 16.6475 32.386 16.7639L34.094 18.531H33.9114L35.614 16.7639C35.725 16.6475 35.8539 16.5894 36.0007 16.5894C36.0974 16.5894 36.1851 16.6135 36.2639 16.6619C36.3445 16.7084 36.408 16.7729 36.4546 16.8552C36.5029 16.9358 36.5271 17.0244 36.5271 17.1211C36.5271 17.2643 36.477 17.3852 36.3767 17.4836L34.4431 19.4629C34.3733 19.5327 34.3026 19.5837 34.231 19.616C34.1611 19.6482 34.0841 19.6643 34 19.6643Z" fill="black" fill-opacity="0.85"/>
</g>
<defs>
<filter id="filter0_ddd_520_7480" x="24.5" y="0.5" width="19" height="26" filterUnits="userSpaceOnUse" color-interpolation-filters="sRGB">
<feFlood flood-opacity="0" result="BackgroundImageFix"/>
<feColorMatrix in="SourceAlpha" type="matrix" values="0 0 0 0 0 0 0 0 0 0 0 0 0 0 0 0 0 0 127 0" result="hardAlpha"/>
<feOffset dy="0.5"/>
<feGaussianBlur stdDeviation="0.5"/>
<feComposite in2="hardAlpha" operator="out"/>
<feColorMatrix type="matrix" values="0 0 0 0 0 0 0 0 0 0 0 0 0 0 0 0 0 0 0.12 0"/>
<feBlend mode="normal" in2="BackgroundImageFix" result="effect1_dropShadow_520_7480"/>
<feColorMatrix in="SourceAlpha" type="matrix" values="0 0 0 0 0 0 0 0 0 0 0 0 0 0 0 0 0 0 127 0" result="hardAlpha"/>
<feOffset dy="1"/>
<feGaussianBlur stdDeviation="1"/>
<feComposite in2="hardAlpha" operator="out"/>
<feColorMatrix type="matrix" values="0 0 0 0 0 0 0 0 0 0 0 0 0 0 0 0 0 0 0.12 0"/>
<feBlend mode="normal" in2="effect1_dropShadow_520_7480" result="effect2_dropShadow_520_7480"/>
<feColorMatrix in="SourceAlpha" type="matrix" values="0 0 0 0 0 0 0 0 0 0 0 0 0 0 0 0 0 0 127 0" result="hardAlpha"/>
<feOffset dy="0.5"/>
<feGaussianBlur stdDeviation="1.5"/>
<feComposite in2="hardAlpha" operator="out"/>
<feColorMatrix type="matrix" values="0 0 0 0 0 0 0 0 0 0 0 0 0 0 0 0 0 0 0.12 0"/>
<feBlend mode="normal" in2="effect2_dropShadow_520_7480" result="effect3_dropShadow_520_7480"/>
<feBlend mode="normal" in="SourceGraphic" in2="effect3_dropShadow_520_7480" result="shape"/>
</filter>
<linearGradient id="paint0_linear_520_7480" x1="27.5" y1="9" x2="27.5" y2="13" gradientUnits="userSpaceOnUse">
<stop stop-color="white"/>
<stop offset="1"/>
</linearGradient>
<linearGradient id="paint1_linear_520_7480" x1="27.5" y1="13" x2="27.5" y2="17" gradientUnits="userSpaceOnUse">
<stop/>
<stop offset="1" stop-color="white"/>
</linearGradient>
</defs>
</svg>
