<svg width="42" height="27" viewBox="0 0 42 27" fill="none" xmlns="http://www.w3.org/2000/svg">
<rect x="0.25" y="0.75" width="40.5" height="24.5" rx="6.25" stroke="black" stroke-opacity="0.1" stroke-width="0.5"/>
<path d="M10.5439 18V10.1099H10.4424L8.11279 11.7983V10.5923L10.5503 8.84033H11.6865V18H10.5439ZM17.3994 18.2158C16.7223 18.2158 16.1426 18.0212 15.6602 17.6318C15.182 17.2425 14.8138 16.6903 14.5557 15.9751C14.2975 15.2557 14.1685 14.4051 14.1685 13.4233V13.4106C14.1685 12.4289 14.2975 11.5804 14.5557 10.8652C14.8138 10.1501 15.182 9.59782 15.6602 9.2085C16.1426 8.81917 16.7223 8.62451 17.3994 8.62451C18.0765 8.62451 18.6562 8.81917 19.1387 9.2085C19.6211 9.59782 19.9914 10.1501 20.2495 10.8652C20.5119 11.5804 20.6431 12.4289 20.6431 13.4106V13.4233C20.6431 14.4051 20.5119 15.2557 20.2495 15.9751C19.9914 16.6903 19.6211 17.2425 19.1387 17.6318C18.6562 18.0212 18.0765 18.2158 17.3994 18.2158ZM17.3994 17.2192C17.8395 17.2192 18.214 17.0648 18.5229 16.7559C18.8361 16.4469 19.0752 16.009 19.2402 15.4419C19.4095 14.8748 19.4941 14.202 19.4941 13.4233V13.4106C19.4941 12.632 19.4095 11.9613 19.2402 11.3984C19.0752 10.8314 18.8361 10.3955 18.5229 10.0908C18.214 9.7819 17.8395 9.62744 17.3994 9.62744C16.9635 9.62744 16.589 9.7819 16.2759 10.0908C15.967 10.3955 15.73 10.8314 15.5649 11.3984C15.3999 11.9613 15.3174 12.632 15.3174 13.4106V13.4233C15.3174 14.202 15.3999 14.8748 15.5649 15.4419C15.73 16.009 15.967 16.4469 16.2759 16.7559C16.589 17.0648 16.9635 17.2192 17.3994 17.2192Z" fill="black" fill-opacity="0.85"/>
<g filter="url(#filter0_ddd_520_7483)">
<rect x="25.5" y="3" width="13" height="20" rx="6.5" fill="white" shape-rendering="crispEdges"/>
<rect x="25.5" y="12.5" width="13" height="1" fill="black" fill-opacity="0.12"/>
<rect x="25.5" y="12" width="13" height="2" fill="black" fill-opacity="0.05"/>
<rect opacity="0.0512463" x="25.5" y="9" width="13" height="4" fill="url(#paint0_linear_520_7483)"/>
<rect opacity="0.0512463" x="25.5" y="13" width="13" height="4" fill="url(#paint1_linear_520_7483)"/>
<path d="M29.6179 8.64917L31.5542 6.66992C31.6885 6.53385 31.8371 6.46582 32 6.46582C32.0841 6.46761 32.1611 6.48462 32.231 6.51685C32.3026 6.54907 32.3733 6.6001 32.4431 6.66992L34.3767 8.64917C34.477 8.74764 34.5271 8.86849 34.5271 9.01172C34.5271 9.11019 34.5029 9.19971 34.4546 9.28027C34.408 9.35905 34.3445 9.42261 34.2639 9.47095C34.1851 9.51929 34.0974 9.54346 34.0007 9.54346C33.8521 9.54346 33.7232 9.48527 33.614 9.3689L31.9114 7.60449H32.094L30.386 9.3689C30.2732 9.48527 30.1425 9.54346 29.9939 9.54346C29.899 9.54346 29.8113 9.51929 29.7307 9.47095C29.6519 9.42261 29.5884 9.35905 29.54 9.28027C29.4935 9.19971 29.4702 9.11019 29.4702 9.01172C29.4702 8.9401 29.4819 8.87476 29.5051 8.81567C29.5302 8.75659 29.5678 8.70109 29.6179 8.64917Z" fill="black" fill-opacity="0.85"/>
<path d="M32 19.6643C31.8389 19.6643 31.6903 19.5972 31.5542 19.4629L29.6179 17.4836C29.5678 17.4317 29.5302 17.3762 29.5051 17.3171C29.4819 17.2581 29.4702 17.1927 29.4702 17.1211C29.4702 17.0244 29.4935 16.9358 29.54 16.8552C29.5884 16.7729 29.6519 16.7084 29.7307 16.6619C29.8113 16.6135 29.899 16.5894 29.9939 16.5894C30.1407 16.5894 30.2714 16.6475 30.386 16.7639L32.094 18.531H31.9114L33.614 16.7639C33.725 16.6475 33.8539 16.5894 34.0007 16.5894C34.0974 16.5894 34.1851 16.6135 34.2639 16.6619C34.3445 16.7084 34.408 16.7729 34.4546 16.8552C34.5029 16.9358 34.5271 17.0244 34.5271 17.1211C34.5271 17.2643 34.477 17.3852 34.3767 17.4836L32.4431 19.4629C32.3733 19.5327 32.3026 19.5837 32.231 19.616C32.1611 19.6482 32.0841 19.6643 32 19.6643Z" fill="black" fill-opacity="0.85"/>
</g>
<defs>
<filter id="filter0_ddd_520_7483" x="22.5" y="0.5" width="19" height="26" filterUnits="userSpaceOnUse" color-interpolation-filters="sRGB">
<feFlood flood-opacity="0" result="BackgroundImageFix"/>
<feColorMatrix in="SourceAlpha" type="matrix" values="0 0 0 0 0 0 0 0 0 0 0 0 0 0 0 0 0 0 127 0" result="hardAlpha"/>
<feOffset dy="0.5"/>
<feGaussianBlur stdDeviation="0.5"/>
<feComposite in2="hardAlpha" operator="out"/>
<feColorMatrix type="matrix" values="0 0 0 0 0 0 0 0 0 0 0 0 0 0 0 0 0 0 0.12 0"/>
<feBlend mode="normal" in2="BackgroundImageFix" result="effect1_dropShadow_520_7483"/>
<feColorMatrix in="SourceAlpha" type="matrix" values="0 0 0 0 0 0 0 0 0 0 0 0 0 0 0 0 0 0 127 0" result="hardAlpha"/>
<feOffset dy="1"/>
<feGaussianBlur stdDeviation="1"/>
<feComposite in2="hardAlpha" operator="out"/>
<feColorMatrix type="matrix" values="0 0 0 0 0 0 0 0 0 0 0 0 0 0 0 0 0 0 0.12 0"/>
<feBlend mode="normal" in2="effect1_dropShadow_520_7483" result="effect2_dropShadow_520_7483"/>
<feColorMatrix in="SourceAlpha" type="matrix" values="0 0 0 0 0 0 0 0 0 0 0 0 0 0 0 0 0 0 127 0" result="hardAlpha"/>
<feOffset dy="0.5"/>
<feGaussianBlur stdDeviation="1.5"/>
<feComposite in2="hardAlpha" operator="out"/>
<feColorMatrix type="matrix" values="0 0 0 0 0 0 0 0 0 0 0 0 0 0 0 0 0 0 0.12 0"/>
<feBlend mode="normal" in2="effect2_dropShadow_520_7483" result="effect3_dropShadow_520_7483"/>
<feBlend mode="normal" in="SourceGraphic" in2="effect3_dropShadow_520_7483" result="shape"/>
</filter>
<linearGradient id="paint0_linear_520_7483" x1="25.5" y1="9" x2="25.5" y2="13" gradientUnits="userSpaceOnUse">
<stop stop-color="white"/>
<stop offset="1"/>
</linearGradient>
<linearGradient id="paint1_linear_520_7483" x1="25.5" y1="13" x2="25.5" y2="17" gradientUnits="userSpaceOnUse">
<stop/>
<stop offset="1" stop-color="white"/>
</linearGradient>
</defs>
</svg>
