<svg width="60" height="27" viewBox="0 0 60 27" fill="none" xmlns="http://www.w3.org/2000/svg">
<rect x="0.25" y="0.75" width="58.5" height="24.5" rx="6.25" stroke="black" stroke-opacity="0.1" stroke-width="0.5"/>
<path d="M8.46631 18V17.2129L11.564 13.8613C11.9533 13.4382 12.258 13.089 12.478 12.814C12.6981 12.5347 12.8525 12.2829 12.9414 12.0586C13.0303 11.8343 13.0747 11.5889 13.0747 11.3223V11.3096C13.0747 10.988 13.0049 10.7002 12.8652 10.4463C12.7256 10.1924 12.5267 9.99137 12.2686 9.84326C12.0104 9.69515 11.7015 9.62109 11.3418 9.62109C10.9779 9.62109 10.6584 9.69727 10.3833 9.84961C10.1082 9.99772 9.89453 10.2072 9.74219 10.478C9.58984 10.7446 9.51367 11.0578 9.51367 11.4175L9.50732 11.4302L8.41553 11.4238L8.40283 11.4175C8.40706 10.8758 8.53825 10.3955 8.79639 9.97656C9.05452 9.55339 9.40999 9.22331 9.86279 8.98633C10.3156 8.74512 10.834 8.62451 11.418 8.62451C11.9512 8.62451 12.4315 8.73665 12.8589 8.96094C13.2863 9.18099 13.6227 9.48356 13.8682 9.86865C14.1178 10.2537 14.2427 10.6938 14.2427 11.189V11.2017C14.2427 11.5487 14.1813 11.883 14.0586 12.2046C13.9401 12.5262 13.7285 12.8838 13.4238 13.2773C13.1191 13.6667 12.6896 14.147 12.1353 14.7183L9.76758 17.1621L10.0532 16.6353V17.1621L9.77393 16.9717H14.395V18H8.46631ZM19.3779 18.2158C18.7008 18.2158 18.1211 18.0212 17.6387 17.6318C17.1605 17.2425 16.7923 16.6903 16.5342 15.9751C16.276 15.2557 16.147 14.4051 16.147 13.4233V13.4106C16.147 12.4289 16.276 11.5804 16.5342 10.8652C16.7923 10.1501 17.1605 9.59782 17.6387 9.2085C18.1211 8.81917 18.7008 8.62451 19.3779 8.62451C20.055 8.62451 20.6348 8.81917 21.1172 9.2085C21.5996 9.59782 21.9699 10.1501 22.228 10.8652C22.4904 11.5804 22.6216 12.4289 22.6216 13.4106V13.4233C22.6216 14.4051 22.4904 15.2557 22.228 15.9751C21.9699 16.6903 21.5996 17.2425 21.1172 17.6318C20.6348 18.0212 20.055 18.2158 19.3779 18.2158ZM19.3779 17.2192C19.818 17.2192 20.1925 17.0648 20.5015 16.7559C20.8146 16.4469 21.0537 16.009 21.2188 15.4419C21.388 14.8748 21.4727 14.202 21.4727 13.4233V13.4106C21.4727 12.632 21.388 11.9613 21.2188 11.3984C21.0537 10.8314 20.8146 10.3955 20.5015 10.0908C20.1925 9.7819 19.818 9.62744 19.3779 9.62744C18.9421 9.62744 18.5675 9.7819 18.2544 10.0908C17.9455 10.3955 17.7085 10.8314 17.5435 11.3984C17.3784 11.9613 17.2959 12.632 17.2959 13.4106V13.4233C17.2959 14.202 17.3784 14.8748 17.5435 15.4419C17.7085 16.009 17.9455 16.4469 18.2544 16.7559C18.5675 17.0648 18.9421 17.2192 19.3779 17.2192ZM24.5005 18V17.2129L27.5981 13.8613C27.9875 13.4382 28.2922 13.089 28.5122 12.814C28.7323 12.5347 28.8867 12.2829 28.9756 12.0586C29.0645 11.8343 29.1089 11.5889 29.1089 11.3223V11.3096C29.1089 10.988 29.0391 10.7002 28.8994 10.4463C28.7598 10.1924 28.5609 9.99137 28.3027 9.84326C28.0446 9.69515 27.7357 9.62109 27.376 9.62109C27.012 9.62109 26.6925 9.69727 26.4175 9.84961C26.1424 9.99772 25.9287 10.2072 25.7764 10.478C25.624 10.7446 25.5479 11.0578 25.5479 11.4175L25.5415 11.4302L24.4497 11.4238L24.437 11.4175C24.4412 10.8758 24.5724 10.3955 24.8306 9.97656C25.0887 9.55339 25.4442 9.22331 25.897 8.98633C26.3498 8.74512 26.8682 8.62451 27.4521 8.62451C27.9854 8.62451 28.4657 8.73665 28.8931 8.96094C29.3205 9.18099 29.6569 9.48356 29.9023 9.86865C30.152 10.2537 30.2769 10.6938 30.2769 11.189V11.2017C30.2769 11.5487 30.2155 11.883 30.0928 12.2046C29.9743 12.5262 29.7627 12.8838 29.458 13.2773C29.1533 13.6667 28.7238 14.147 28.1694 14.7183L25.8018 17.1621L26.0874 16.6353V17.1621L25.8081 16.9717H30.4292V18H24.5005ZM36.3389 18V16.1021H31.8765V15.061C32.1261 14.6463 32.38 14.2274 32.6382 13.8042C32.8963 13.3768 33.1566 12.9515 33.4189 12.5283C33.6855 12.1009 33.9521 11.6777 34.2188 11.2588C34.4854 10.8398 34.7498 10.4272 35.0122 10.021C35.2788 9.61475 35.5412 9.22119 35.7993 8.84033H37.4561V15.0801H38.7573V16.1021H37.4561V18H36.3389ZM33.0444 15.0864H36.3452V9.90039H36.269C36.0617 10.2093 35.8501 10.5309 35.6343 10.8652C35.4185 11.1953 35.1984 11.5339 34.9741 11.8809C34.7541 12.2279 34.534 12.577 34.314 12.9282C34.0939 13.2795 33.876 13.6307 33.6602 13.9819C33.4486 14.3289 33.2433 14.6717 33.0444 15.0103V15.0864Z" fill="black" fill-opacity="0.85"/>
<g filter="url(#filter0_ddd_520_7486)">
<rect x="43.5" y="3" width="13" height="20" rx="6.5" fill="white" shape-rendering="crispEdges"/>
<rect x="43.5" y="12.5" width="13" height="1" fill="black" fill-opacity="0.12"/>
<rect x="43.5" y="12" width="13" height="2" fill="black" fill-opacity="0.05"/>
<rect opacity="0.0512463" x="43.5" y="9" width="13" height="4" fill="url(#paint0_linear_520_7486)"/>
<rect opacity="0.0512463" x="43.5" y="13" width="13" height="4" fill="url(#paint1_linear_520_7486)"/>
<path d="M47.6179 8.64917L49.5542 6.66992C49.6885 6.53385 49.8371 6.46582 50 6.46582C50.0841 6.46761 50.1611 6.48462 50.231 6.51685C50.3026 6.54907 50.3733 6.6001 50.4431 6.66992L52.3767 8.64917C52.477 8.74764 52.5271 8.86849 52.5271 9.01172C52.5271 9.11019 52.5029 9.19971 52.4546 9.28027C52.408 9.35905 52.3445 9.42261 52.2639 9.47095C52.1851 9.51929 52.0974 9.54346 52.0007 9.54346C51.8521 9.54346 51.7232 9.48527 51.614 9.3689L49.9114 7.60449H50.094L48.386 9.3689C48.2732 9.48527 48.1425 9.54346 47.9939 9.54346C47.899 9.54346 47.8113 9.51929 47.7307 9.47095C47.6519 9.42261 47.5884 9.35905 47.54 9.28027C47.4935 9.19971 47.4702 9.11019 47.4702 9.01172C47.4702 8.9401 47.4819 8.87476 47.5051 8.81567C47.5302 8.75659 47.5678 8.70109 47.6179 8.64917Z" fill="black" fill-opacity="0.85"/>
<path d="M50 19.6643C49.8389 19.6643 49.6903 19.5972 49.5542 19.4629L47.6179 17.4836C47.5678 17.4317 47.5302 17.3762 47.5051 17.3171C47.4819 17.2581 47.4702 17.1927 47.4702 17.1211C47.4702 17.0244 47.4935 16.9358 47.54 16.8552C47.5884 16.7729 47.6519 16.7084 47.7307 16.6619C47.8113 16.6135 47.899 16.5894 47.9939 16.5894C48.1407 16.5894 48.2714 16.6475 48.386 16.7639L50.094 18.531H49.9114L51.614 16.7639C51.725 16.6475 51.8539 16.5894 52.0007 16.5894C52.0974 16.5894 52.1851 16.6135 52.2639 16.6619C52.3445 16.7084 52.408 16.7729 52.4546 16.8552C52.5029 16.9358 52.5271 17.0244 52.5271 17.1211C52.5271 17.2643 52.477 17.3852 52.3767 17.4836L50.4431 19.4629C50.3733 19.5327 50.3026 19.5837 50.231 19.616C50.1611 19.6482 50.0841 19.6643 50 19.6643Z" fill="black" fill-opacity="0.85"/>
</g>
<defs>
<filter id="filter0_ddd_520_7486" x="40.5" y="0.5" width="19" height="26" filterUnits="userSpaceOnUse" color-interpolation-filters="sRGB">
<feFlood flood-opacity="0" result="BackgroundImageFix"/>
<feColorMatrix in="SourceAlpha" type="matrix" values="0 0 0 0 0 0 0 0 0 0 0 0 0 0 0 0 0 0 127 0" result="hardAlpha"/>
<feOffset dy="0.5"/>
<feGaussianBlur stdDeviation="0.5"/>
<feComposite in2="hardAlpha" operator="out"/>
<feColorMatrix type="matrix" values="0 0 0 0 0 0 0 0 0 0 0 0 0 0 0 0 0 0 0.12 0"/>
<feBlend mode="normal" in2="BackgroundImageFix" result="effect1_dropShadow_520_7486"/>
<feColorMatrix in="SourceAlpha" type="matrix" values="0 0 0 0 0 0 0 0 0 0 0 0 0 0 0 0 0 0 127 0" result="hardAlpha"/>
<feOffset dy="1"/>
<feGaussianBlur stdDeviation="1"/>
<feComposite in2="hardAlpha" operator="out"/>
<feColorMatrix type="matrix" values="0 0 0 0 0 0 0 0 0 0 0 0 0 0 0 0 0 0 0.12 0"/>
<feBlend mode="normal" in2="effect1_dropShadow_520_7486" result="effect2_dropShadow_520_7486"/>
<feColorMatrix in="SourceAlpha" type="matrix" values="0 0 0 0 0 0 0 0 0 0 0 0 0 0 0 0 0 0 127 0" result="hardAlpha"/>
<feOffset dy="0.5"/>
<feGaussianBlur stdDeviation="1.5"/>
<feComposite in2="hardAlpha" operator="out"/>
<feColorMatrix type="matrix" values="0 0 0 0 0 0 0 0 0 0 0 0 0 0 0 0 0 0 0.12 0"/>
<feBlend mode="normal" in2="effect2_dropShadow_520_7486" result="effect3_dropShadow_520_7486"/>
<feBlend mode="normal" in="SourceGraphic" in2="effect3_dropShadow_520_7486" result="shape"/>
</filter>
<linearGradient id="paint0_linear_520_7486" x1="43.5" y1="9" x2="43.5" y2="13" gradientUnits="userSpaceOnUse">
<stop stop-color="white"/>
<stop offset="1"/>
</linearGradient>
<linearGradient id="paint1_linear_520_7486" x1="43.5" y1="13" x2="43.5" y2="17" gradientUnits="userSpaceOnUse">
<stop/>
<stop offset="1" stop-color="white"/>
</linearGradient>
</defs>
</svg>
