<svg width="55" height="27" viewBox="0 0 55 27" fill="none" xmlns="http://www.w3.org/2000/svg">
<rect x="0.75" y="0.75" width="53.5" height="24.5" rx="6.25" stroke="black" stroke-opacity="0.1" stroke-width="0.5"/>
<path d="M11.7041 18.1523C11.0736 18.1523 10.5234 18.0444 10.0537 17.8286C9.58398 17.6128 9.21159 17.3166 8.93652 16.9399C8.66569 16.5633 8.50911 16.1338 8.4668 15.6514L8.46045 15.5752H9.55859L9.56494 15.6387C9.59456 15.9391 9.70036 16.2036 9.88232 16.4321C10.0685 16.6606 10.3161 16.8405 10.625 16.9717C10.9382 17.0986 11.2979 17.1621 11.7041 17.1621C12.1061 17.1621 12.4574 17.0923 12.7578 16.9526C13.0625 16.813 13.2995 16.6204 13.4688 16.375C13.638 16.1253 13.7227 15.8397 13.7227 15.5181V15.5054C13.7227 14.9425 13.5343 14.5109 13.1577 14.2104C12.7853 13.9058 12.2775 13.7534 11.6343 13.7534H10.4854V12.7886H11.5835C11.9474 12.7886 12.269 12.7209 12.5483 12.5854C12.8276 12.4458 13.0456 12.2575 13.2021 12.0205C13.3587 11.7793 13.437 11.5063 13.437 11.2017V11.189C13.437 10.8674 13.3693 10.5944 13.2339 10.3701C13.0985 10.1458 12.8996 9.97445 12.6372 9.85596C12.3791 9.73747 12.0638 9.67822 11.6914 9.67822C11.3317 9.67822 11.0101 9.73958 10.7266 9.8623C10.4473 9.98079 10.223 10.1522 10.0537 10.3765C9.88444 10.6007 9.78288 10.8674 9.74902 11.1763L9.74268 11.2397H8.64453L8.65088 11.1763C8.70166 10.6769 8.85824 10.241 9.12061 9.86865C9.38721 9.49626 9.73844 9.20638 10.1743 8.99902C10.6144 8.79167 11.1201 8.68799 11.6914 8.68799C12.2754 8.68799 12.7832 8.78955 13.2148 8.99268C13.6507 9.19157 13.9871 9.46875 14.2241 9.82422C14.4653 10.1755 14.5859 10.5838 14.5859 11.0493V11.062C14.5859 11.4386 14.5034 11.7729 14.3384 12.0649C14.1733 12.3569 13.9448 12.6003 13.6528 12.7949C13.3608 12.9896 13.0244 13.1271 12.6436 13.2075V13.2329C13.3122 13.2879 13.8517 13.5143 14.2622 13.9121C14.6769 14.3057 14.8843 14.8283 14.8843 15.48V15.4927C14.8843 16.0005 14.7467 16.4554 14.4717 16.8574C14.1966 17.2594 13.82 17.5768 13.3418 17.8096C12.8636 18.0381 12.3177 18.1523 11.7041 18.1523ZM17.2012 18.0635C16.9769 18.0635 16.7822 17.9831 16.6172 17.8223C16.4564 17.6572 16.376 17.4626 16.376 17.2383C16.376 17.0098 16.4564 16.8151 16.6172 16.6543C16.7822 16.4935 16.9769 16.4131 17.2012 16.4131C17.4297 16.4131 17.6243 16.4935 17.7852 16.6543C17.946 16.8151 18.0264 17.0098 18.0264 17.2383C18.0264 17.4626 17.946 17.6572 17.7852 17.8223C17.6243 17.9831 17.4297 18.0635 17.2012 18.0635ZM22.7109 18.2158C22.0339 18.2158 21.4541 18.0212 20.9717 17.6318C20.4935 17.2425 20.1253 16.6903 19.8672 15.9751C19.609 15.2557 19.48 14.4051 19.48 13.4233V13.4106C19.48 12.4289 19.609 11.5804 19.8672 10.8652C20.1253 10.1501 20.4935 9.59782 20.9717 9.2085C21.4541 8.81917 22.0339 8.62451 22.7109 8.62451C23.388 8.62451 23.9678 8.81917 24.4502 9.2085C24.9326 9.59782 25.3029 10.1501 25.561 10.8652C25.8234 11.5804 25.9546 12.4289 25.9546 13.4106V13.4233C25.9546 14.4051 25.8234 15.2557 25.561 15.9751C25.3029 16.6903 24.9326 17.2425 24.4502 17.6318C23.9678 18.0212 23.388 18.2158 22.7109 18.2158ZM22.7109 17.2192C23.151 17.2192 23.5256 17.0648 23.8345 16.7559C24.1476 16.4469 24.3867 16.009 24.5518 15.4419C24.721 14.8748 24.8057 14.202 24.8057 13.4233V13.4106C24.8057 12.632 24.721 11.9613 24.5518 11.3984C24.3867 10.8314 24.1476 10.3955 23.8345 10.0908C23.5256 9.7819 23.151 9.62744 22.7109 9.62744C22.2751 9.62744 21.9006 9.7819 21.5874 10.0908C21.2785 10.3955 21.0415 10.8314 20.8765 11.3984C20.7114 11.9613 20.6289 12.632 20.6289 13.4106V13.4233C20.6289 14.202 20.7114 14.8748 20.8765 15.4419C21.0415 16.009 21.2785 16.4469 21.5874 16.7559C21.9006 17.0648 22.2751 17.2192 22.7109 17.2192ZM30.8994 18.2158C30.2223 18.2158 29.6426 18.0212 29.1602 17.6318C28.682 17.2425 28.3138 16.6903 28.0557 15.9751C27.7975 15.2557 27.6685 14.4051 27.6685 13.4233V13.4106C27.6685 12.4289 27.7975 11.5804 28.0557 10.8652C28.3138 10.1501 28.682 9.59782 29.1602 9.2085C29.6426 8.81917 30.2223 8.62451 30.8994 8.62451C31.5765 8.62451 32.1562 8.81917 32.6387 9.2085C33.1211 9.59782 33.4914 10.1501 33.7495 10.8652C34.0119 11.5804 34.1431 12.4289 34.1431 13.4106V13.4233C34.1431 14.4051 34.0119 15.2557 33.7495 15.9751C33.4914 16.6903 33.1211 17.2425 32.6387 17.6318C32.1562 18.0212 31.5765 18.2158 30.8994 18.2158ZM30.8994 17.2192C31.3395 17.2192 31.714 17.0648 32.0229 16.7559C32.3361 16.4469 32.5752 16.009 32.7402 15.4419C32.9095 14.8748 32.9941 14.202 32.9941 13.4233V13.4106C32.9941 12.632 32.9095 11.9613 32.7402 11.3984C32.5752 10.8314 32.3361 10.3955 32.0229 10.0908C31.714 9.7819 31.3395 9.62744 30.8994 9.62744C30.4635 9.62744 30.089 9.7819 29.7759 10.0908C29.467 10.3955 29.23 10.8314 29.0649 11.3984C28.8999 11.9613 28.8174 12.632 28.8174 13.4106V13.4233C28.8174 14.202 28.8999 14.8748 29.0649 15.4419C29.23 16.009 29.467 16.4469 29.7759 16.7559C30.089 17.0648 30.4635 17.2192 30.8994 17.2192Z" fill="black" fill-opacity="0.85"/>
<g filter="url(#filter0_ddd_520_7725)">
<rect x="39" y="3" width="13" height="20" rx="6.5" fill="white" shape-rendering="crispEdges"/>
<rect x="39" y="12.5" width="13" height="1" fill="black" fill-opacity="0.12"/>
<rect x="39" y="12" width="13" height="2" fill="black" fill-opacity="0.05"/>
<rect opacity="0.0512463" x="39" y="9" width="13" height="4" fill="url(#paint0_linear_520_7725)"/>
<rect opacity="0.0512463" x="39" y="13" width="13" height="4" fill="url(#paint1_linear_520_7725)"/>
<path d="M43.1179 8.64917L45.0542 6.66992C45.1885 6.53385 45.3371 6.46582 45.5 6.46582C45.5841 6.46761 45.6611 6.48462 45.731 6.51685C45.8026 6.54907 45.8733 6.6001 45.9431 6.66992L47.8767 8.64917C47.977 8.74764 48.0271 8.86849 48.0271 9.01172C48.0271 9.11019 48.0029 9.19971 47.9546 9.28027C47.908 9.35905 47.8445 9.42261 47.7639 9.47095C47.6851 9.51929 47.5974 9.54346 47.5007 9.54346C47.3521 9.54346 47.2232 9.48527 47.114 9.3689L45.4114 7.60449H45.594L43.886 9.3689C43.7732 9.48527 43.6425 9.54346 43.4939 9.54346C43.399 9.54346 43.3113 9.51929 43.2307 9.47095C43.1519 9.42261 43.0884 9.35905 43.04 9.28027C42.9935 9.19971 42.9702 9.11019 42.9702 9.01172C42.9702 8.9401 42.9819 8.87476 43.0051 8.81567C43.0302 8.75659 43.0678 8.70109 43.1179 8.64917Z" fill="black" fill-opacity="0.85"/>
<path d="M45.5 19.6643C45.3389 19.6643 45.1903 19.5972 45.0542 19.4629L43.1179 17.4836C43.0678 17.4317 43.0302 17.3762 43.0051 17.3171C42.9819 17.2581 42.9702 17.1927 42.9702 17.1211C42.9702 17.0244 42.9935 16.9358 43.04 16.8552C43.0884 16.7729 43.1519 16.7084 43.2307 16.6619C43.3113 16.6135 43.399 16.5894 43.4939 16.5894C43.6407 16.5894 43.7714 16.6475 43.886 16.7639L45.594 18.531H45.4114L47.114 16.7639C47.225 16.6475 47.3539 16.5894 47.5007 16.5894C47.5974 16.5894 47.6851 16.6135 47.7639 16.6619C47.8445 16.7084 47.908 16.7729 47.9546 16.8552C48.0029 16.9358 48.0271 17.0244 48.0271 17.1211C48.0271 17.2643 47.977 17.3852 47.8767 17.4836L45.9431 19.4629C45.8733 19.5327 45.8026 19.5837 45.731 19.616C45.6611 19.6482 45.5841 19.6643 45.5 19.6643Z" fill="black" fill-opacity="0.85"/>
</g>
<defs>
<filter id="filter0_ddd_520_7725" x="36" y="0.5" width="19" height="26" filterUnits="userSpaceOnUse" color-interpolation-filters="sRGB">
<feFlood flood-opacity="0" result="BackgroundImageFix"/>
<feColorMatrix in="SourceAlpha" type="matrix" values="0 0 0 0 0 0 0 0 0 0 0 0 0 0 0 0 0 0 127 0" result="hardAlpha"/>
<feOffset dy="0.5"/>
<feGaussianBlur stdDeviation="0.5"/>
<feComposite in2="hardAlpha" operator="out"/>
<feColorMatrix type="matrix" values="0 0 0 0 0 0 0 0 0 0 0 0 0 0 0 0 0 0 0.12 0"/>
<feBlend mode="normal" in2="BackgroundImageFix" result="effect1_dropShadow_520_7725"/>
<feColorMatrix in="SourceAlpha" type="matrix" values="0 0 0 0 0 0 0 0 0 0 0 0 0 0 0 0 0 0 127 0" result="hardAlpha"/>
<feOffset dy="1"/>
<feGaussianBlur stdDeviation="1"/>
<feComposite in2="hardAlpha" operator="out"/>
<feColorMatrix type="matrix" values="0 0 0 0 0 0 0 0 0 0 0 0 0 0 0 0 0 0 0.12 0"/>
<feBlend mode="normal" in2="effect1_dropShadow_520_7725" result="effect2_dropShadow_520_7725"/>
<feColorMatrix in="SourceAlpha" type="matrix" values="0 0 0 0 0 0 0 0 0 0 0 0 0 0 0 0 0 0 127 0" result="hardAlpha"/>
<feOffset dy="0.5"/>
<feGaussianBlur stdDeviation="1.5"/>
<feComposite in2="hardAlpha" operator="out"/>
<feColorMatrix type="matrix" values="0 0 0 0 0 0 0 0 0 0 0 0 0 0 0 0 0 0 0.12 0"/>
<feBlend mode="normal" in2="effect2_dropShadow_520_7725" result="effect3_dropShadow_520_7725"/>
<feBlend mode="normal" in="SourceGraphic" in2="effect3_dropShadow_520_7725" result="shape"/>
</filter>
<linearGradient id="paint0_linear_520_7725" x1="39" y1="9" x2="39" y2="13" gradientUnits="userSpaceOnUse">
<stop stop-color="white"/>
<stop offset="1"/>
</linearGradient>
<linearGradient id="paint1_linear_520_7725" x1="39" y1="13" x2="39" y2="17" gradientUnits="userSpaceOnUse">
<stop/>
<stop offset="1" stop-color="white"/>
</linearGradient>
</defs>
</svg>
