<svg width="62" height="27" viewBox="0 0 62 27" fill="none" xmlns="http://www.w3.org/2000/svg">
<rect x="0.75" y="0.75" width="60.5" height="24.5" rx="6.25" stroke="black" stroke-opacity="0.1" stroke-width="0.5"/>
<path d="M18.6787 18.2158C18.0016 18.2158 17.4219 18.0212 16.9395 17.6318C16.4613 17.2425 16.0931 16.6903 15.835 15.9751C15.5768 15.2557 15.4478 14.4051 15.4478 13.4233V13.4106C15.4478 12.4289 15.5768 11.5804 15.835 10.8652C16.0931 10.1501 16.4613 9.59782 16.9395 9.2085C17.4219 8.81917 18.0016 8.62451 18.6787 8.62451C19.3558 8.62451 19.9355 8.81917 20.418 9.2085C20.9004 9.59782 21.2707 10.1501 21.5288 10.8652C21.7912 11.5804 21.9224 12.4289 21.9224 13.4106V13.4233C21.9224 14.4051 21.7912 15.2557 21.5288 15.9751C21.2707 16.6903 20.9004 17.2425 20.418 17.6318C19.9355 18.0212 19.3558 18.2158 18.6787 18.2158ZM18.6787 17.2192C19.1188 17.2192 19.4933 17.0648 19.8022 16.7559C20.1154 16.4469 20.3545 16.009 20.5195 15.4419C20.6888 14.8748 20.7734 14.202 20.7734 13.4233V13.4106C20.7734 12.632 20.6888 11.9613 20.5195 11.3984C20.3545 10.8314 20.1154 10.3955 19.8022 10.0908C19.4933 9.7819 19.1188 9.62744 18.6787 9.62744C18.2428 9.62744 17.8683 9.7819 17.5552 10.0908C17.2463 10.3955 17.0093 10.8314 16.8442 11.3984C16.6792 11.9613 16.5967 12.632 16.5967 13.4106V13.4233C16.5967 14.202 16.6792 14.8748 16.8442 15.4419C17.0093 16.009 17.2463 16.4469 17.5552 16.7559C17.8683 17.0648 18.2428 17.2192 18.6787 17.2192ZM24.2012 18.0635C23.9769 18.0635 23.7822 17.9831 23.6172 17.8223C23.4564 17.6572 23.376 17.4626 23.376 17.2383C23.376 17.0098 23.4564 16.8151 23.6172 16.6543C23.7822 16.4935 23.9769 16.4131 24.2012 16.4131C24.4297 16.4131 24.6243 16.4935 24.7852 16.6543C24.946 16.8151 25.0264 17.0098 25.0264 17.2383C25.0264 17.4626 24.946 17.6572 24.7852 17.8223C24.6243 17.9831 24.4297 18.0635 24.2012 18.0635ZM29.7109 18.2158C29.0339 18.2158 28.4541 18.0212 27.9717 17.6318C27.4935 17.2425 27.1253 16.6903 26.8672 15.9751C26.609 15.2557 26.48 14.4051 26.48 13.4233V13.4106C26.48 12.4289 26.609 11.5804 26.8672 10.8652C27.1253 10.1501 27.4935 9.59782 27.9717 9.2085C28.4541 8.81917 29.0339 8.62451 29.7109 8.62451C30.388 8.62451 30.9678 8.81917 31.4502 9.2085C31.9326 9.59782 32.3029 10.1501 32.561 10.8652C32.8234 11.5804 32.9546 12.4289 32.9546 13.4106V13.4233C32.9546 14.4051 32.8234 15.2557 32.561 15.9751C32.3029 16.6903 31.9326 17.2425 31.4502 17.6318C30.9678 18.0212 30.388 18.2158 29.7109 18.2158ZM29.7109 17.2192C30.151 17.2192 30.5256 17.0648 30.8345 16.7559C31.1476 16.4469 31.3867 16.009 31.5518 15.4419C31.721 14.8748 31.8057 14.202 31.8057 13.4233V13.4106C31.8057 12.632 31.721 11.9613 31.5518 11.3984C31.3867 10.8314 31.1476 10.3955 30.8345 10.0908C30.5256 9.7819 30.151 9.62744 29.7109 9.62744C29.2751 9.62744 28.9006 9.7819 28.5874 10.0908C28.2785 10.3955 28.0415 10.8314 27.8765 11.3984C27.7114 11.9613 27.6289 12.632 27.6289 13.4106V13.4233C27.6289 14.202 27.7114 14.8748 27.8765 15.4419C28.0415 16.009 28.2785 16.4469 28.5874 16.7559C28.9006 17.0648 29.2751 17.2192 29.7109 17.2192ZM37.8994 18.2158C37.2223 18.2158 36.6426 18.0212 36.1602 17.6318C35.682 17.2425 35.3138 16.6903 35.0557 15.9751C34.7975 15.2557 34.6685 14.4051 34.6685 13.4233V13.4106C34.6685 12.4289 34.7975 11.5804 35.0557 10.8652C35.3138 10.1501 35.682 9.59782 36.1602 9.2085C36.6426 8.81917 37.2223 8.62451 37.8994 8.62451C38.5765 8.62451 39.1562 8.81917 39.6387 9.2085C40.1211 9.59782 40.4914 10.1501 40.7495 10.8652C41.0119 11.5804 41.1431 12.4289 41.1431 13.4106V13.4233C41.1431 14.4051 41.0119 15.2557 40.7495 15.9751C40.4914 16.6903 40.1211 17.2425 39.6387 17.6318C39.1562 18.0212 38.5765 18.2158 37.8994 18.2158ZM37.8994 17.2192C38.3395 17.2192 38.714 17.0648 39.0229 16.7559C39.3361 16.4469 39.5752 16.009 39.7402 15.4419C39.9095 14.8748 39.9941 14.202 39.9941 13.4233V13.4106C39.9941 12.632 39.9095 11.9613 39.7402 11.3984C39.5752 10.8314 39.3361 10.3955 39.0229 10.0908C38.714 9.7819 38.3395 9.62744 37.8994 9.62744C37.4635 9.62744 37.089 9.7819 36.7759 10.0908C36.467 10.3955 36.23 10.8314 36.0649 11.3984C35.8999 11.9613 35.8174 12.632 35.8174 13.4106V13.4233C35.8174 14.202 35.8999 14.8748 36.0649 15.4419C36.23 16.009 36.467 16.4469 36.7759 16.7559C37.089 17.0648 37.4635 17.2192 37.8994 17.2192Z" fill="black" fill-opacity="0.85"/>
<g filter="url(#filter0_ddd_673_1352)">
<rect x="46" y="3" width="13" height="20" rx="6.5" fill="white" shape-rendering="crispEdges"/>
<rect x="46" y="12.5" width="13" height="1" fill="black" fill-opacity="0.12"/>
<rect x="46" y="12" width="13" height="2" fill="black" fill-opacity="0.05"/>
<rect opacity="0.0512463" x="46" y="9" width="13" height="4" fill="url(#paint0_linear_673_1352)"/>
<rect opacity="0.0512463" x="46" y="13" width="13" height="4" fill="url(#paint1_linear_673_1352)"/>
<path d="M50.1179 8.64917L52.0542 6.66992C52.1885 6.53385 52.3371 6.46582 52.5 6.46582C52.5841 6.46761 52.6611 6.48462 52.731 6.51685C52.8026 6.54907 52.8733 6.6001 52.9431 6.66992L54.8767 8.64917C54.977 8.74764 55.0271 8.86849 55.0271 9.01172C55.0271 9.11019 55.0029 9.19971 54.9546 9.28027C54.908 9.35905 54.8445 9.42261 54.7639 9.47095C54.6851 9.51929 54.5974 9.54346 54.5007 9.54346C54.3521 9.54346 54.2232 9.48527 54.114 9.3689L52.4114 7.60449H52.594L50.886 9.3689C50.7732 9.48527 50.6425 9.54346 50.4939 9.54346C50.399 9.54346 50.3113 9.51929 50.2307 9.47095C50.1519 9.42261 50.0884 9.35905 50.04 9.28027C49.9935 9.19971 49.9702 9.11019 49.9702 9.01172C49.9702 8.9401 49.9819 8.87476 50.0051 8.81567C50.0302 8.75659 50.0678 8.70109 50.1179 8.64917Z" fill="black" fill-opacity="0.85"/>
<path d="M52.5 19.6643C52.3389 19.6643 52.1903 19.5972 52.0542 19.4629L50.1179 17.4836C50.0678 17.4317 50.0302 17.3762 50.0051 17.3171C49.9819 17.2581 49.9702 17.1927 49.9702 17.1211C49.9702 17.0244 49.9935 16.9358 50.04 16.8552C50.0884 16.7729 50.1519 16.7084 50.2307 16.6619C50.3113 16.6135 50.399 16.5894 50.4939 16.5894C50.6407 16.5894 50.7714 16.6475 50.886 16.7639L52.594 18.531H52.4114L54.114 16.7639C54.225 16.6475 54.3539 16.5894 54.5007 16.5894C54.5974 16.5894 54.6851 16.6135 54.7639 16.6619C54.8445 16.7084 54.908 16.7729 54.9546 16.8552C55.0029 16.9358 55.0271 17.0244 55.0271 17.1211C55.0271 17.2643 54.977 17.3852 54.8767 17.4836L52.9431 19.4629C52.8733 19.5327 52.8026 19.5837 52.731 19.616C52.6611 19.6482 52.5841 19.6643 52.5 19.6643Z" fill="black" fill-opacity="0.85"/>
</g>
<defs>
<filter id="filter0_ddd_673_1352" x="43" y="0.5" width="19" height="26" filterUnits="userSpaceOnUse" color-interpolation-filters="sRGB">
<feFlood flood-opacity="0" result="BackgroundImageFix"/>
<feColorMatrix in="SourceAlpha" type="matrix" values="0 0 0 0 0 0 0 0 0 0 0 0 0 0 0 0 0 0 127 0" result="hardAlpha"/>
<feOffset dy="0.5"/>
<feGaussianBlur stdDeviation="0.5"/>
<feComposite in2="hardAlpha" operator="out"/>
<feColorMatrix type="matrix" values="0 0 0 0 0 0 0 0 0 0 0 0 0 0 0 0 0 0 0.12 0"/>
<feBlend mode="normal" in2="BackgroundImageFix" result="effect1_dropShadow_673_1352"/>
<feColorMatrix in="SourceAlpha" type="matrix" values="0 0 0 0 0 0 0 0 0 0 0 0 0 0 0 0 0 0 127 0" result="hardAlpha"/>
<feOffset dy="1"/>
<feGaussianBlur stdDeviation="1"/>
<feComposite in2="hardAlpha" operator="out"/>
<feColorMatrix type="matrix" values="0 0 0 0 0 0 0 0 0 0 0 0 0 0 0 0 0 0 0.12 0"/>
<feBlend mode="normal" in2="effect1_dropShadow_673_1352" result="effect2_dropShadow_673_1352"/>
<feColorMatrix in="SourceAlpha" type="matrix" values="0 0 0 0 0 0 0 0 0 0 0 0 0 0 0 0 0 0 127 0" result="hardAlpha"/>
<feOffset dy="0.5"/>
<feGaussianBlur stdDeviation="1.5"/>
<feComposite in2="hardAlpha" operator="out"/>
<feColorMatrix type="matrix" values="0 0 0 0 0 0 0 0 0 0 0 0 0 0 0 0 0 0 0.12 0"/>
<feBlend mode="normal" in2="effect2_dropShadow_673_1352" result="effect3_dropShadow_673_1352"/>
<feBlend mode="normal" in="SourceGraphic" in2="effect3_dropShadow_673_1352" result="shape"/>
</filter>
<linearGradient id="paint0_linear_673_1352" x1="46" y1="9" x2="46" y2="13" gradientUnits="userSpaceOnUse">
<stop stop-color="white"/>
<stop offset="1"/>
</linearGradient>
<linearGradient id="paint1_linear_673_1352" x1="46" y1="13" x2="46" y2="17" gradientUnits="userSpaceOnUse">
<stop/>
<stop offset="1" stop-color="white"/>
</linearGradient>
</defs>
</svg>
