<svg width="63" height="28" viewBox="0 0 63 28" fill="none" xmlns="http://www.w3.org/2000/svg">
<g filter="url(#filter0_dd_794_4764)">
<rect x="2.5" y="2" width="58" height="22" rx="5" fill="#03A200"/>
<rect x="2.5" y="2" width="58" height="22" rx="5" fill="url(#paint0_linear_794_4764)" fill-opacity="0.17"/>
<path d="M14.1138 18.2158C13.4451 18.2158 12.8612 18.1079 12.3618 17.8921C11.8667 17.672 11.4731 17.3716 11.1812 16.9907C10.8934 16.6056 10.7262 16.1655 10.6797 15.6704L10.6733 15.6006H11.8159L11.8223 15.6704C11.8519 15.9751 11.9683 16.2396 12.1714 16.4639C12.3787 16.6839 12.6538 16.8553 12.9966 16.978C13.3436 17.1007 13.7371 17.1621 14.1772 17.1621C14.592 17.1621 14.9601 17.0965 15.2817 16.9653C15.6076 16.8299 15.8636 16.6437 16.0498 16.4067C16.236 16.1698 16.3291 15.8968 16.3291 15.5879V15.5815C16.3291 15.2007 16.1895 14.8812 15.9102 14.623C15.6309 14.3607 15.1759 14.1597 14.5454 14.02L13.5298 13.7979C12.6115 13.5947 11.9429 13.2816 11.5239 12.8584C11.1092 12.431 10.9019 11.8851 10.9019 11.2207V11.2144C10.9061 10.7065 11.0436 10.258 11.3145 9.86865C11.5895 9.47933 11.9683 9.17464 12.4507 8.95459C12.9373 8.73454 13.4959 8.62451 14.1265 8.62451C14.7358 8.62451 15.2754 8.73454 15.7451 8.95459C16.2148 9.17041 16.5872 9.4624 16.8623 9.83057C17.1416 10.1987 17.2961 10.6113 17.3257 11.0684L17.332 11.1572H16.1895L16.1768 11.0747C16.1344 10.8039 16.0244 10.5648 15.8467 10.3574C15.6689 10.1458 15.432 9.97868 15.1357 9.85596C14.8395 9.73324 14.4925 9.67399 14.0947 9.67822C13.7139 9.67822 13.3711 9.73747 13.0664 9.85596C12.7617 9.97445 12.5184 10.1458 12.3364 10.3701C12.1587 10.5902 12.0698 10.861 12.0698 11.1826V11.189C12.0698 11.5529 12.2052 11.8597 12.4761 12.1094C12.7469 12.359 13.1934 12.5516 13.8154 12.687L14.8311 12.9155C15.4701 13.0552 15.9842 13.2371 16.3735 13.4614C16.7629 13.6857 17.0464 13.9608 17.2241 14.2866C17.4061 14.6082 17.4971 14.9891 17.4971 15.4292V15.4355C17.4971 16.0068 17.3574 16.4998 17.0781 16.9146C16.7988 17.3293 16.4053 17.6509 15.8975 17.8794C15.3896 18.1037 14.7951 18.2158 14.1138 18.2158ZM21.5532 18.1206C21.0369 18.1206 20.6032 18.0233 20.252 17.8286C19.9007 17.6297 19.6362 17.342 19.4585 16.9653C19.285 16.5845 19.1982 16.1253 19.1982 15.5879V11.1572H20.3027V15.3213C20.3027 15.9349 20.4212 16.3919 20.6582 16.6924C20.8994 16.9928 21.293 17.1431 21.8389 17.1431C22.1393 17.1431 22.4038 17.0986 22.6323 17.0098C22.8651 16.9209 23.0597 16.7939 23.2163 16.6289C23.3729 16.4596 23.4893 16.2565 23.5654 16.0195C23.6458 15.7783 23.686 15.5075 23.686 15.207V11.1572H24.7905V18H23.686V16.978H23.5845C23.4744 17.2192 23.3242 17.4266 23.1338 17.6001C22.9434 17.7694 22.7148 17.8984 22.4482 17.9873C22.1859 18.0762 21.8875 18.1206 21.5532 18.1206ZM30.2559 18.1206C29.9385 18.1206 29.6444 18.0719 29.3735 17.9746C29.1027 17.8773 28.8615 17.7397 28.6499 17.562C28.4383 17.38 28.2627 17.1621 28.123 16.9082H28.0215V18H26.917V8.44043H28.0215V12.2363H28.123C28.25 11.9909 28.4193 11.7793 28.6309 11.6016C28.8467 11.4238 29.0921 11.2863 29.3672 11.189C29.6465 11.0874 29.9427 11.0366 30.2559 11.0366C30.8356 11.0366 31.3392 11.1826 31.7666 11.4746C32.1982 11.7666 32.5326 12.1771 32.7695 12.7061C33.0065 13.235 33.125 13.8571 33.125 14.5723V14.585C33.125 15.2959 33.0065 15.918 32.7695 16.4512C32.5326 16.9801 32.1982 17.3906 31.7666 17.6826C31.3392 17.9746 30.8356 18.1206 30.2559 18.1206ZM30.002 17.1431C30.4209 17.1431 30.7785 17.0415 31.0747 16.8384C31.3709 16.631 31.5973 16.3369 31.7539 15.9561C31.9147 15.571 31.9951 15.1139 31.9951 14.585V14.5723C31.9951 14.0391 31.9147 13.582 31.7539 13.2012C31.5973 12.8203 31.3709 12.5283 31.0747 12.3252C30.7785 12.1178 30.4209 12.0142 30.002 12.0142C29.5872 12.0142 29.2297 12.1178 28.9292 12.3252C28.6287 12.5326 28.3981 12.8267 28.2373 13.2075C28.0765 13.5884 27.9961 14.0433 27.9961 14.5723V14.585C27.9961 15.1097 28.0765 15.5646 28.2373 15.9497C28.3981 16.3306 28.6287 16.6247 28.9292 16.832C29.2297 17.0394 29.5872 17.1431 30.002 17.1431ZM34.8389 18V11.1572H35.9434V12.1982H36.0449C36.1973 11.8301 36.43 11.5444 36.7432 11.3413C37.0605 11.1382 37.4435 11.0366 37.8921 11.0366C38.201 11.0366 38.4782 11.0874 38.7236 11.189C38.9691 11.2905 39.1807 11.4323 39.3584 11.6143C39.5361 11.792 39.6779 11.9993 39.7837 12.2363H39.8853C40.008 11.9951 40.173 11.7856 40.3804 11.6079C40.5877 11.4259 40.8268 11.2863 41.0977 11.189C41.3727 11.0874 41.6668 11.0366 41.98 11.0366C42.4455 11.0366 42.839 11.1234 43.1606 11.2969C43.4865 11.4704 43.734 11.7243 43.9033 12.0586C44.0726 12.3887 44.1572 12.7928 44.1572 13.271V18H43.0527V13.5249C43.0527 13.1864 42.9998 12.9071 42.894 12.687C42.7925 12.4627 42.6359 12.2956 42.4243 12.1855C42.2127 12.0713 41.9461 12.0142 41.6245 12.0142C41.3071 12.0142 41.0299 12.0861 40.793 12.23C40.556 12.3739 40.3719 12.5664 40.2407 12.8076C40.1095 13.0446 40.0439 13.3091 40.0439 13.6011V18H38.9395V13.3535C38.9395 13.0827 38.8802 12.8478 38.7617 12.6489C38.6475 12.4458 38.4824 12.2892 38.2666 12.1792C38.055 12.0692 37.8053 12.0142 37.5176 12.0142C37.2214 12.0142 36.9526 12.0924 36.7114 12.249C36.4744 12.4056 36.2861 12.6172 36.1465 12.8838C36.0111 13.1462 35.9434 13.4382 35.9434 13.7598V18H34.8389ZM46.1758 18V11.1572H47.2803V18H46.1758ZM46.7344 9.83691C46.527 9.83691 46.3472 9.76286 46.1948 9.61475C46.0467 9.4624 45.9727 9.28255 45.9727 9.0752C45.9727 8.86361 46.0467 8.68376 46.1948 8.53564C46.3472 8.38753 46.527 8.31348 46.7344 8.31348C46.946 8.31348 47.1258 8.38753 47.2739 8.53564C47.422 8.68376 47.4961 8.86361 47.4961 9.0752C47.4961 9.28255 47.422 9.4624 47.2739 9.61475C47.1258 9.76286 46.946 9.83691 46.7344 9.83691ZM51.7935 18.0508C51.091 18.0508 50.5811 17.909 50.2637 17.6255C49.9505 17.342 49.7939 16.8743 49.7939 16.2227V12.0713H48.7148V11.1572H49.7939V9.38623H50.9365V11.1572H52.4346V12.0713H50.9365V15.9434C50.9365 16.3454 51.0127 16.6353 51.165 16.813C51.3174 16.9865 51.5713 17.0732 51.9268 17.0732C52.0241 17.0732 52.1066 17.0711 52.1743 17.0669C52.2463 17.0627 52.333 17.0563 52.4346 17.0479V17.9873C52.3288 18.0042 52.223 18.019 52.1172 18.0317C52.0114 18.0444 51.9035 18.0508 51.7935 18.0508Z" fill="white"/>
</g>
<defs>
<filter id="filter0_dd_794_4764" x="0" y="0.5" width="63" height="27" filterUnits="userSpaceOnUse" color-interpolation-filters="sRGB">
<feFlood flood-opacity="0" result="BackgroundImageFix"/>
<feColorMatrix in="SourceAlpha" type="matrix" values="0 0 0 0 0 0 0 0 0 0 0 0 0 0 0 0 0 0 127 0" result="hardAlpha"/>
<feMorphology radius="0.5" operator="dilate" in="SourceAlpha" result="effect1_dropShadow_794_4764"/>
<feOffset/>
<feComposite in2="hardAlpha" operator="out"/>
<feColorMatrix type="matrix" values="0 0 0 0 0 0 0 0 0 0.478431 0 0 0 0 1 0 0 0 0.12 0"/>
<feBlend mode="normal" in2="BackgroundImageFix" result="effect1_dropShadow_794_4764"/>
<feColorMatrix in="SourceAlpha" type="matrix" values="0 0 0 0 0 0 0 0 0 0 0 0 0 0 0 0 0 0 127 0" result="hardAlpha"/>
<feOffset dy="1"/>
<feGaussianBlur stdDeviation="1.25"/>
<feComposite in2="hardAlpha" operator="out"/>
<feColorMatrix type="matrix" values="0 0 0 0 0 0 0 0 0 0.478431 0 0 0 0 1 0 0 0 0.24 0"/>
<feBlend mode="normal" in2="effect1_dropShadow_794_4764" result="effect2_dropShadow_794_4764"/>
<feBlend mode="normal" in="SourceGraphic" in2="effect2_dropShadow_794_4764" result="shape"/>
</filter>
<linearGradient id="paint0_linear_794_4764" x1="31.5" y1="2" x2="31.5" y2="24" gradientUnits="userSpaceOnUse">
<stop stop-color="white"/>
<stop offset="1" stop-color="white" stop-opacity="0"/>
</linearGradient>
</defs>
</svg>
