<svg width="90" height="20" viewBox="0 0 90 20" fill="none" xmlns="http://www.w3.org/2000/svg">
<path d="M15.3184 15.2158C14.5609 15.2158 13.9092 15.0741 13.3633 14.7905C12.8216 14.507 12.4048 14.1134 12.1128 13.6099C11.8208 13.1021 11.6748 12.516 11.6748 11.8516V5.84033H12.8174V11.7754C12.8174 12.2451 12.9147 12.6598 13.1094 13.0195C13.3083 13.375 13.5939 13.6543 13.9663 13.8574C14.3387 14.0605 14.7894 14.1621 15.3184 14.1621C15.8473 14.1621 16.2959 14.0605 16.6641 13.8574C17.0365 13.6543 17.32 13.375 17.5146 13.0195C17.7093 12.6598 17.8066 12.2451 17.8066 11.7754V5.84033H18.9492V11.8516C18.9492 12.516 18.8032 13.1021 18.5112 13.6099C18.2235 14.1134 17.8088 14.507 17.2671 14.7905C16.7254 15.0741 16.0758 15.2158 15.3184 15.2158ZM21.1328 15V8.15723H22.2373V9.18555H22.3389C22.5124 8.82161 22.762 8.5402 23.0879 8.34131C23.4137 8.13818 23.8285 8.03662 24.332 8.03662C25.1022 8.03662 25.6925 8.25667 26.103 8.69678C26.5177 9.13265 26.7251 9.75684 26.7251 10.5693V15H25.6206V10.8359C25.6206 10.2181 25.4894 9.76107 25.2271 9.46484C24.9689 9.16439 24.5669 9.01416 24.021 9.01416C23.6571 9.01416 23.3418 9.09245 23.0752 9.24902C22.8086 9.4056 22.6012 9.62777 22.4531 9.91553C22.3092 10.2033 22.2373 10.5482 22.2373 10.9502V15H21.1328ZM31.5239 15.1206C30.8849 15.1206 30.3306 14.9746 29.8608 14.6826C29.3911 14.3906 29.0272 13.978 28.769 13.4448C28.5109 12.9116 28.3818 12.2832 28.3818 11.5596V11.5469C28.3818 10.8359 28.5088 10.2181 28.7627 9.69336C29.0208 9.16862 29.3848 8.76237 29.8545 8.47461C30.3242 8.18262 30.8786 8.03662 31.5176 8.03662C32.0719 8.03662 32.5501 8.13395 32.9521 8.32861C33.3542 8.52327 33.6758 8.78564 33.917 9.11572C34.1582 9.44157 34.3127 9.80762 34.3804 10.2139L34.3867 10.252H33.2886L33.2822 10.2329C33.1976 9.89437 33.005 9.60661 32.7046 9.36963C32.4041 9.13265 32.0085 9.01416 31.5176 9.01416C31.1071 9.01416 30.7516 9.11784 30.4512 9.3252C30.1507 9.53255 29.918 9.82666 29.7529 10.2075C29.5921 10.5841 29.5117 11.0306 29.5117 11.5469V11.5596C29.5117 12.0843 29.5942 12.5413 29.7593 12.9307C29.9243 13.3158 30.1571 13.6141 30.4575 13.8257C30.758 14.0373 31.1113 14.1431 31.5176 14.1431C31.9788 14.1431 32.3555 14.0436 32.6475 13.8447C32.9395 13.6458 33.1489 13.356 33.2759 12.9751L33.2886 12.937L34.3804 12.9307L34.3677 13.0005C34.2746 13.411 34.1095 13.777 33.8726 14.0986C33.6356 14.416 33.3224 14.6657 32.9331 14.8477C32.5438 15.0296 32.0741 15.1206 31.5239 15.1206ZM36.0625 15V5.44043H37.167V9.18555H37.2686C37.4421 8.82161 37.6917 8.5402 38.0176 8.34131C38.3434 8.13818 38.7581 8.03662 39.2617 8.03662C39.7738 8.03662 40.2075 8.13607 40.563 8.33496C40.9185 8.52962 41.1893 8.81527 41.3755 9.19189C41.5617 9.56852 41.6548 10.0277 41.6548 10.5693V15H40.5503V10.8359C40.5503 10.2181 40.4191 9.76107 40.1567 9.46484C39.8986 9.16439 39.4966 9.01416 38.9507 9.01416C38.5868 9.01416 38.2715 9.09245 38.0049 9.24902C37.7383 9.4056 37.5309 9.62777 37.3828 9.91553C37.2389 10.2033 37.167 10.5482 37.167 10.9502V15H36.0625ZM46.4473 15.1206C45.7956 15.1206 45.2349 14.9767 44.7651 14.689C44.2996 14.4012 43.9399 13.995 43.686 13.4702C43.4364 12.9412 43.3115 12.3192 43.3115 11.604V11.5977C43.3115 10.891 43.4364 10.271 43.686 9.73779C43.9399 9.20459 44.2975 8.78776 44.7588 8.4873C45.2201 8.18685 45.7596 8.03662 46.3774 8.03662C46.9995 8.03662 47.5327 8.1805 47.9771 8.46826C48.4256 8.75602 48.7684 9.15804 49.0054 9.67432C49.2466 10.1864 49.3672 10.783 49.3672 11.4644V11.896H43.8828V11.0137H48.8022L48.2563 11.8198V11.3818C48.2563 10.8444 48.1759 10.4022 48.0151 10.0552C47.8543 9.70817 47.6322 9.45003 47.3486 9.28076C47.0651 9.10726 46.7393 9.02051 46.3711 9.02051C46.0029 9.02051 45.6729 9.11149 45.3809 9.29346C45.0931 9.47119 44.8646 9.73568 44.6953 10.0869C44.526 10.4382 44.4414 10.8698 44.4414 11.3818V11.8198C44.4414 12.3065 44.5239 12.7233 44.689 13.0703C44.854 13.4131 45.0889 13.6776 45.3936 13.8638C45.6982 14.0457 46.0579 14.1367 46.4727 14.1367C46.7816 14.1367 47.0503 14.0944 47.2788 14.0098C47.5073 13.9251 47.6956 13.8172 47.8438 13.686C47.9919 13.5549 48.0955 13.4215 48.1548 13.2861L48.1802 13.229H49.2847L49.272 13.2798C49.2127 13.5125 49.1069 13.7389 48.9546 13.959C48.8065 14.1748 48.6139 14.3716 48.377 14.5493C48.14 14.7228 47.8586 14.8625 47.5327 14.9683C47.2111 15.0698 46.8493 15.1206 46.4473 15.1206ZM53.8804 15.1206C53.2414 15.1206 52.687 14.9746 52.2173 14.6826C51.7476 14.3906 51.3836 13.978 51.1255 13.4448C50.8674 12.9116 50.7383 12.2832 50.7383 11.5596V11.5469C50.7383 10.8359 50.8652 10.2181 51.1191 9.69336C51.3773 9.16862 51.7412 8.76237 52.2109 8.47461C52.6807 8.18262 53.235 8.03662 53.874 8.03662C54.4284 8.03662 54.9066 8.13395 55.3086 8.32861C55.7106 8.52327 56.0322 8.78564 56.2734 9.11572C56.5146 9.44157 56.6691 9.80762 56.7368 10.2139L56.7432 10.252H55.645L55.6387 10.2329C55.554 9.89437 55.3615 9.60661 55.061 9.36963C54.7606 9.13265 54.3649 9.01416 53.874 9.01416C53.4635 9.01416 53.1081 9.11784 52.8076 9.3252C52.5072 9.53255 52.2744 9.82666 52.1094 10.2075C51.9486 10.5841 51.8682 11.0306 51.8682 11.5469V11.5596C51.8682 12.0843 51.9507 12.5413 52.1157 12.9307C52.2808 13.3158 52.5135 13.6141 52.814 13.8257C53.1144 14.0373 53.4678 14.1431 53.874 14.1431C54.3353 14.1431 54.7119 14.0436 55.0039 13.8447C55.2959 13.6458 55.5054 13.356 55.6323 12.9751L55.645 12.937L56.7368 12.9307L56.7241 13.0005C56.631 13.411 56.466 13.777 56.229 14.0986C55.992 14.416 55.6789 14.6657 55.2896 14.8477C54.9002 15.0296 54.4305 15.1206 53.8804 15.1206ZM58.4189 15V5.44043H59.5234V15H58.4189ZM62.729 15L60.0566 11.6484L60.8691 10.9438L64.1191 15H62.729ZM59.3838 12.5371L59.333 11.147H59.625L62.583 8.15723H63.9224L60.6724 11.293L60.4058 11.5532L59.3838 12.5371ZM67.8896 15.1206C67.238 15.1206 66.6772 14.9767 66.2075 14.689C65.742 14.4012 65.3823 13.995 65.1284 13.4702C64.8787 12.9412 64.7539 12.3192 64.7539 11.604V11.5977C64.7539 10.891 64.8787 10.271 65.1284 9.73779C65.3823 9.20459 65.7399 8.78776 66.2012 8.4873C66.6624 8.18685 67.202 8.03662 67.8198 8.03662C68.4419 8.03662 68.9751 8.1805 69.4194 8.46826C69.868 8.75602 70.2108 9.15804 70.4478 9.67432C70.689 10.1864 70.8096 10.783 70.8096 11.4644V11.896H65.3252V11.0137H70.2446L69.6987 11.8198V11.3818C69.6987 10.8444 69.6183 10.4022 69.4575 10.0552C69.2967 9.70817 69.0745 9.45003 68.791 9.28076C68.5075 9.10726 68.1816 9.02051 67.8135 9.02051C67.4453 9.02051 67.1152 9.11149 66.8232 9.29346C66.5355 9.47119 66.307 9.73568 66.1377 10.0869C65.9684 10.4382 65.8838 10.8698 65.8838 11.3818V11.8198C65.8838 12.3065 65.9663 12.7233 66.1313 13.0703C66.2964 13.4131 66.5312 13.6776 66.8359 13.8638C67.1406 14.0457 67.5003 14.1367 67.915 14.1367C68.224 14.1367 68.4927 14.0944 68.7212 14.0098C68.9497 13.9251 69.138 13.8172 69.2861 13.686C69.4342 13.5549 69.5379 13.4215 69.5972 13.2861L69.6226 13.229H70.7271L70.7144 13.2798C70.6551 13.5125 70.5493 13.7389 70.397 13.959C70.2489 14.1748 70.0563 14.3716 69.8193 14.5493C69.5824 14.7228 69.3009 14.8625 68.9751 14.9683C68.6535 15.0698 68.2917 15.1206 67.8896 15.1206ZM75.0498 15.1206C74.4743 15.1206 73.9707 14.9746 73.5391 14.6826C73.1074 14.3906 72.7731 13.9801 72.5361 13.4512C72.2992 12.918 72.1807 12.2959 72.1807 11.585V11.5723C72.1807 10.8571 72.2992 10.235 72.5361 9.70605C72.7731 9.17708 73.1053 8.7666 73.5327 8.47461C73.9644 8.18262 74.4701 8.03662 75.0498 8.03662C75.363 8.03662 75.6571 8.0874 75.9321 8.18896C76.2114 8.2863 76.459 8.42383 76.6748 8.60156C76.8906 8.7793 77.0599 8.99089 77.1826 9.23633H77.2842V5.44043H78.3887V15H77.2842V13.9082H77.1826C77.043 14.1621 76.8674 14.38 76.6558 14.562C76.4442 14.7397 76.203 14.8773 75.9321 14.9746C75.6613 15.0719 75.3672 15.1206 75.0498 15.1206ZM75.3037 14.1431C75.7184 14.1431 76.076 14.0394 76.3765 13.832C76.6769 13.6247 76.9076 13.3306 77.0684 12.9497C77.2292 12.5646 77.3096 12.1097 77.3096 11.585V11.5723C77.3096 11.0433 77.2292 10.5884 77.0684 10.2075C76.9076 9.82666 76.6769 9.53255 76.3765 9.3252C76.076 9.11784 75.7184 9.01416 75.3037 9.01416C74.889 9.01416 74.5314 9.11784 74.231 9.3252C73.9347 9.52832 73.7062 9.82031 73.5454 10.2012C73.3888 10.582 73.3105 11.0391 73.3105 11.5723V11.585C73.3105 12.1139 73.3888 12.571 73.5454 12.9561C73.7062 13.3369 73.9347 13.631 74.231 13.8384C74.5314 14.0415 74.889 14.1431 75.3037 14.1431Z" fill="black" fill-opacity="0.85"/>
</svg>
