<svg width="93" height="22" viewBox="0 0 93 22" fill="none" xmlns="http://www.w3.org/2000/svg">
<g filter="url(#filter0_dd_631_1952)">
<rect x="1" y="1" width="90" height="20" rx="5" fill="white"/>
<rect x="0.75" y="0.75" width="90.5" height="20.5" rx="5.25" stroke="black" stroke-opacity="0.02" stroke-width="0.5"/>
<path d="M17.3594 16.2158C16.5299 16.2158 15.8127 16.0212 15.2075 15.6318C14.6024 15.2425 14.1348 14.6903 13.8047 13.9751C13.4788 13.2599 13.3159 12.4115 13.3159 11.4297V11.417C13.3159 10.431 13.4788 9.5804 13.8047 8.86523C14.1348 8.15007 14.6003 7.59782 15.2012 7.2085C15.8063 6.81917 16.5236 6.62451 17.353 6.62451C17.9963 6.62451 18.5802 6.75146 19.105 7.00537C19.634 7.25505 20.0698 7.60417 20.4126 8.05273C20.7554 8.49707 20.9712 9.01123 21.0601 9.59521L21.0537 9.60791H19.9048L19.8984 9.59521C19.7969 9.20166 19.6255 8.86312 19.3843 8.57959C19.1431 8.29183 18.849 8.06966 18.502 7.91309C18.1592 7.75651 17.7762 7.67822 17.353 7.67822C16.769 7.67822 16.2612 7.83057 15.8296 8.13525C15.4022 8.43994 15.0721 8.87158 14.8394 9.43018C14.6066 9.98877 14.4902 10.651 14.4902 11.417V11.4297C14.4902 12.1914 14.6066 12.8516 14.8394 13.4102C15.0721 13.9688 15.4022 14.4004 15.8296 14.7051C16.2612 15.0098 16.7712 15.1621 17.3594 15.1621C17.7868 15.1621 18.174 15.0944 18.521 14.959C18.868 14.8193 19.16 14.6226 19.397 14.3687C19.634 14.1105 19.799 13.8058 19.8921 13.4546L19.9048 13.4419H21.0601V13.4546C20.9585 14.0132 20.7384 14.4998 20.3999 14.9146C20.0614 15.325 19.6318 15.6445 19.1113 15.873C18.5951 16.1016 18.0111 16.2158 17.3594 16.2158ZM25.6494 16.1206C25.002 16.1206 24.4412 15.9788 23.9673 15.6953C23.4976 15.4076 23.1336 14.9992 22.8755 14.4702C22.6216 13.9412 22.4946 13.3128 22.4946 12.585V12.5723C22.4946 11.8402 22.6216 11.2096 22.8755 10.6807C23.1336 10.1517 23.4976 9.74544 23.9673 9.46191C24.4412 9.17839 25.002 9.03662 25.6494 9.03662C26.3011 9.03662 26.8618 9.17839 27.3315 9.46191C27.8013 9.74544 28.1631 10.1517 28.417 10.6807C28.6751 11.2096 28.8042 11.8402 28.8042 12.5723V12.585C28.8042 13.3128 28.6751 13.9412 28.417 14.4702C28.1631 14.9992 27.8013 15.4076 27.3315 15.6953C26.8618 15.9788 26.3011 16.1206 25.6494 16.1206ZM25.6494 15.1431C26.0811 15.1431 26.4471 15.0415 26.7476 14.8384C27.048 14.6353 27.2765 14.3433 27.4331 13.9624C27.5939 13.5815 27.6743 13.1224 27.6743 12.585V12.5723C27.6743 12.0306 27.5939 11.5693 27.4331 11.1885C27.2765 10.8076 27.048 10.5177 26.7476 10.3188C26.4471 10.1157 26.0811 10.0142 25.6494 10.0142C25.2178 10.0142 24.8517 10.1157 24.5513 10.3188C24.2508 10.5177 24.0202 10.8076 23.8594 11.1885C23.7028 11.5693 23.6245 12.0306 23.6245 12.5723V12.585C23.6245 13.1224 23.7028 13.5815 23.8594 13.9624C24.0202 14.3433 24.2508 14.6353 24.5513 14.8384C24.8517 15.0415 25.2178 15.1431 25.6494 15.1431ZM30.5181 16V9.15723H31.6226V10.1982H31.7241C31.8765 9.83008 32.1092 9.54443 32.4224 9.34131C32.7397 9.13818 33.1227 9.03662 33.5713 9.03662C33.8802 9.03662 34.1574 9.0874 34.4028 9.18896C34.6483 9.29053 34.8599 9.43229 35.0376 9.61426C35.2153 9.79199 35.3571 9.99935 35.4629 10.2363H35.5645C35.6872 9.99512 35.8522 9.78564 36.0596 9.60791C36.2669 9.42594 36.506 9.2863 36.7769 9.18896C37.0519 9.0874 37.346 9.03662 37.6592 9.03662C38.1247 9.03662 38.5182 9.12337 38.8398 9.29688C39.1657 9.47038 39.4132 9.72428 39.5825 10.0586C39.7518 10.3887 39.8364 10.7928 39.8364 11.271V16H38.7319V11.5249C38.7319 11.1864 38.679 10.9071 38.5732 10.687C38.4717 10.4627 38.3151 10.2956 38.1035 10.1855C37.8919 10.0713 37.6253 10.0142 37.3037 10.0142C36.9863 10.0142 36.7091 10.0861 36.4722 10.23C36.2352 10.3739 36.0511 10.5664 35.9199 10.8076C35.7887 11.0446 35.7231 11.3091 35.7231 11.6011V16H34.6187V11.3535C34.6187 11.0827 34.5594 10.8478 34.4409 10.6489C34.3267 10.4458 34.1616 10.2892 33.9458 10.1792C33.7342 10.0692 33.4845 10.0142 33.1968 10.0142C32.9006 10.0142 32.6318 10.0924 32.3906 10.249C32.1536 10.4056 31.9653 10.6172 31.8257 10.8838C31.6903 11.1462 31.6226 11.4382 31.6226 11.7598V16H30.5181ZM41.8296 18.2852V9.15723H42.9341V10.249H43.0356C43.1753 9.99512 43.3509 9.7793 43.5625 9.60156C43.7741 9.4196 44.0153 9.27995 44.2861 9.18262C44.557 9.08529 44.8511 9.03662 45.1685 9.03662C45.7482 9.03662 46.2518 9.18473 46.6792 9.48096C47.1108 9.77295 47.4451 10.1834 47.6821 10.7124C47.9191 11.2414 48.0376 11.8613 48.0376 12.5723V12.585C48.0376 13.3001 47.9191 13.9222 47.6821 14.4512C47.4451 14.9801 47.1108 15.3906 46.6792 15.6826C46.2518 15.9746 45.7482 16.1206 45.1685 16.1206C44.8553 16.1206 44.5591 16.0719 44.2798 15.9746C44.0047 15.873 43.7593 15.7334 43.5435 15.5557C43.3319 15.3779 43.1626 15.1663 43.0356 14.9209H42.9341V18.2852H41.8296ZM44.9146 15.1431C45.3335 15.1431 45.6911 15.0415 45.9873 14.8384C46.2835 14.631 46.5099 14.3369 46.6665 13.9561C46.8273 13.571 46.9077 13.1139 46.9077 12.585V12.5723C46.9077 12.0391 46.8273 11.582 46.6665 11.2012C46.5099 10.8203 46.2835 10.5283 45.9873 10.3252C45.6911 10.1178 45.3335 10.0142 44.9146 10.0142C44.4998 10.0142 44.1423 10.1178 43.8418 10.3252C43.5413 10.5326 43.3107 10.8267 43.1499 11.2075C42.9891 11.5884 42.9087 12.0433 42.9087 12.5723V12.585C42.9087 13.1097 42.9891 13.5646 43.1499 13.9497C43.3107 14.3306 43.5413 14.6247 43.8418 14.832C44.1423 15.0394 44.4998 15.1431 44.9146 15.1431ZM49.8276 16V6.44043H50.9321V16H49.8276ZM55.8452 16.1206C55.1935 16.1206 54.6328 15.9767 54.1631 15.689C53.6976 15.4012 53.3379 14.995 53.084 14.4702C52.8343 13.9412 52.7095 13.3192 52.7095 12.604V12.5977C52.7095 11.891 52.8343 11.271 53.084 10.7378C53.3379 10.2046 53.6955 9.78776 54.1567 9.4873C54.618 9.18685 55.1576 9.03662 55.7754 9.03662C56.3975 9.03662 56.9307 9.1805 57.375 9.46826C57.8236 9.75602 58.1663 10.158 58.4033 10.6743C58.6445 11.1864 58.7651 11.783 58.7651 12.4644V12.896H53.2808V12.0137H58.2002L57.6543 12.8198V12.3818C57.6543 11.8444 57.5739 11.4022 57.4131 11.0552C57.2523 10.7082 57.0301 10.45 56.7466 10.2808C56.4631 10.1073 56.1372 10.0205 55.769 10.0205C55.4009 10.0205 55.0708 10.1115 54.7788 10.2935C54.491 10.4712 54.2625 10.7357 54.0933 11.0869C53.924 11.4382 53.8394 11.8698 53.8394 12.3818V12.8198C53.8394 13.3065 53.9219 13.7233 54.0869 14.0703C54.252 14.4131 54.4868 14.6776 54.7915 14.8638C55.0962 15.0457 55.4559 15.1367 55.8706 15.1367C56.1795 15.1367 56.4482 15.0944 56.6768 15.0098C56.9053 14.9251 57.0936 14.8172 57.2417 14.686C57.3898 14.5549 57.4935 14.4215 57.5527 14.2861L57.5781 14.229H58.6826L58.6699 14.2798C58.6107 14.5125 58.5049 14.7389 58.3525 14.959C58.2044 15.1748 58.0119 15.3716 57.7749 15.5493C57.5379 15.7228 57.2565 15.8625 56.9307 15.9683C56.609 16.0698 56.2472 16.1206 55.8452 16.1206ZM62.9102 16.0508C62.2077 16.0508 61.6978 15.909 61.3804 15.6255C61.0672 15.342 60.9106 14.8743 60.9106 14.2227V10.0713H59.8315V9.15723H60.9106V7.38623H62.0532V9.15723H63.5513V10.0713H62.0532V13.9434C62.0532 14.3454 62.1294 14.6353 62.2817 14.813C62.4341 14.9865 62.688 15.0732 63.0435 15.0732C63.1408 15.0732 63.2233 15.0711 63.291 15.0669C63.363 15.0627 63.4497 15.0563 63.5513 15.0479V15.9873C63.4455 16.0042 63.3397 16.019 63.2339 16.0317C63.1281 16.0444 63.0202 16.0508 62.9102 16.0508ZM67.9058 16.1206C67.2541 16.1206 66.6934 15.9767 66.2236 15.689C65.7581 15.4012 65.3984 14.995 65.1445 14.4702C64.8949 13.9412 64.77 13.3192 64.77 12.604V12.5977C64.77 11.891 64.8949 11.271 65.1445 10.7378C65.3984 10.2046 65.756 9.78776 66.2173 9.4873C66.6785 9.18685 67.2181 9.03662 67.8359 9.03662C68.458 9.03662 68.9912 9.1805 69.4355 9.46826C69.8841 9.75602 70.2269 10.158 70.4639 10.6743C70.7051 11.1864 70.8257 11.783 70.8257 12.4644V12.896H65.3413V12.0137H70.2607L69.7148 12.8198V12.3818C69.7148 11.8444 69.6344 11.4022 69.4736 11.0552C69.3128 10.7082 69.0907 10.45 68.8071 10.2808C68.5236 10.1073 68.1978 10.0205 67.8296 10.0205C67.4614 10.0205 67.1313 10.1115 66.8394 10.2935C66.5516 10.4712 66.3231 10.7357 66.1538 11.0869C65.9845 11.4382 65.8999 11.8698 65.8999 12.3818V12.8198C65.8999 13.3065 65.9824 13.7233 66.1475 14.0703C66.3125 14.4131 66.5474 14.6776 66.8521 14.8638C67.1567 15.0457 67.5164 15.1367 67.9312 15.1367C68.2401 15.1367 68.5088 15.0944 68.7373 15.0098C68.9658 14.9251 69.1541 14.8172 69.3022 14.686C69.4504 14.5549 69.554 14.4215 69.6133 14.2861L69.6387 14.229H70.7432L70.7305 14.2798C70.6712 14.5125 70.5654 14.7389 70.4131 14.959C70.265 15.1748 70.0724 15.3716 69.8354 15.5493C69.5985 15.7228 69.3171 15.8625 68.9912 15.9683C68.6696 16.0698 68.3078 16.1206 67.9058 16.1206ZM75.0659 16.1206C74.4904 16.1206 73.9868 15.9746 73.5552 15.6826C73.1235 15.3906 72.7892 14.9801 72.5522 14.4512C72.3153 13.918 72.1968 13.2959 72.1968 12.585V12.5723C72.1968 11.8571 72.3153 11.235 72.5522 10.7061C72.7892 10.1771 73.1214 9.7666 73.5488 9.47461C73.9805 9.18262 74.4862 9.03662 75.0659 9.03662C75.3791 9.03662 75.6732 9.0874 75.9482 9.18896C76.2275 9.2863 76.4751 9.42383 76.6909 9.60156C76.9067 9.7793 77.076 9.99089 77.1987 10.2363H77.3003V6.44043H78.4048V16H77.3003V14.9082H77.1987C77.0591 15.1621 76.8835 15.38 76.6719 15.562C76.4603 15.7397 76.2191 15.8773 75.9482 15.9746C75.6774 16.0719 75.3833 16.1206 75.0659 16.1206ZM75.3198 15.1431C75.7345 15.1431 76.0921 15.0394 76.3926 14.832C76.693 14.6247 76.9237 14.3306 77.0845 13.9497C77.2453 13.5646 77.3257 13.1097 77.3257 12.585V12.5723C77.3257 12.0433 77.2453 11.5884 77.0845 11.2075C76.9237 10.8267 76.693 10.5326 76.3926 10.3252C76.0921 10.1178 75.7345 10.0142 75.3198 10.0142C74.9051 10.0142 74.5475 10.1178 74.2471 10.3252C73.9508 10.5283 73.7223 10.8203 73.5615 11.2012C73.4049 11.582 73.3267 12.0391 73.3267 12.5723V12.585C73.3267 13.1139 73.4049 13.571 73.5615 13.9561C73.7223 14.3369 73.9508 14.631 74.2471 14.8384C74.5475 15.0415 74.9051 15.1431 75.3198 15.1431Z" fill="black" fill-opacity="0.85"/>
</g>
<defs>
<filter id="filter0_dd_631_1952" x="-0.25" y="0.5" width="92.5" height="22.75" filterUnits="userSpaceOnUse" color-interpolation-filters="sRGB">
<feFlood flood-opacity="0" result="BackgroundImageFix"/>
<feColorMatrix in="SourceAlpha" type="matrix" values="0 0 0 0 0 0 0 0 0 0 0 0 0 0 0 0 0 0 127 0" result="hardAlpha"/>
<feOffset dy="1"/>
<feGaussianBlur stdDeviation="0.375"/>
<feColorMatrix type="matrix" values="0 0 0 0 0 0 0 0 0 0 0 0 0 0 0 0 0 0 0.05 0"/>
<feBlend mode="normal" in2="BackgroundImageFix" result="effect1_dropShadow_631_1952"/>
<feColorMatrix in="SourceAlpha" type="matrix" values="0 0 0 0 0 0 0 0 0 0 0 0 0 0 0 0 0 0 127 0" result="hardAlpha"/>
<feOffset dy="0.25"/>
<feGaussianBlur stdDeviation="0.125"/>
<feColorMatrix type="matrix" values="0 0 0 0 0 0 0 0 0 0 0 0 0 0 0 0 0 0 0.15 0"/>
<feBlend mode="normal" in2="effect1_dropShadow_631_1952" result="effect2_dropShadow_631_1952"/>
<feBlend mode="normal" in="SourceGraphic" in2="effect2_dropShadow_631_1952" result="shape"/>
</filter>
</defs>
</svg>
