<svg width="93" height="22" viewBox="0 0 93 22" fill="none" xmlns="http://www.w3.org/2000/svg">
<g filter="url(#filter0_dd_631_1952)">
<rect x="1" y="1" width="90" height="20" rx="5" fill="white"/>
<rect x="0.75" y="0.75" width="90.5" height="20.5" rx="5.25" stroke="black" stroke-opacity="0.02" stroke-width="0.5"/>
<path d="M16.3184 16.2158C15.5609 16.2158 14.9092 16.0741 14.3633 15.7905C13.8216 15.507 13.4048 15.1134 13.1128 14.6099C12.8208 14.1021 12.6748 13.516 12.6748 12.8516V6.84033H13.8174V12.7754C13.8174 13.2451 13.9147 13.6598 14.1094 14.0195C14.3083 14.375 14.5939 14.6543 14.9663 14.8574C15.3387 15.0605 15.7894 15.1621 16.3184 15.1621C16.8473 15.1621 17.2959 15.0605 17.6641 14.8574C18.0365 14.6543 18.32 14.375 18.5146 14.0195C18.7093 13.6598 18.8066 13.2451 18.8066 12.7754V6.84033H19.9492V12.8516C19.9492 13.516 19.8032 14.1021 19.5112 14.6099C19.2235 15.1134 18.8088 15.507 18.2671 15.7905C17.7254 16.0741 17.0758 16.2158 16.3184 16.2158ZM22.1328 16V9.15723H23.2373V10.1855H23.3389C23.5124 9.82161 23.762 9.5402 24.0879 9.34131C24.4137 9.13818 24.8285 9.03662 25.332 9.03662C26.1022 9.03662 26.6925 9.25667 27.103 9.69678C27.5177 10.1326 27.7251 10.7568 27.7251 11.5693V16H26.6206V11.8359C26.6206 11.2181 26.4894 10.7611 26.2271 10.4648C25.9689 10.1644 25.5669 10.0142 25.021 10.0142C24.6571 10.0142 24.3418 10.0924 24.0752 10.249C23.8086 10.4056 23.6012 10.6278 23.4531 10.9155C23.3092 11.2033 23.2373 11.5482 23.2373 11.9502V16H22.1328ZM32.5239 16.1206C31.8849 16.1206 31.3306 15.9746 30.8608 15.6826C30.3911 15.3906 30.0272 14.978 29.769 14.4448C29.5109 13.9116 29.3818 13.2832 29.3818 12.5596V12.5469C29.3818 11.8359 29.5088 11.2181 29.7627 10.6934C30.0208 10.1686 30.3848 9.76237 30.8545 9.47461C31.3242 9.18262 31.8786 9.03662 32.5176 9.03662C33.0719 9.03662 33.5501 9.13395 33.9521 9.32861C34.3542 9.52327 34.6758 9.78564 34.917 10.1157C35.1582 10.4416 35.3127 10.8076 35.3804 11.2139L35.3867 11.252H34.2886L34.2822 11.2329C34.1976 10.8944 34.005 10.6066 33.7046 10.3696C33.4041 10.1326 33.0085 10.0142 32.5176 10.0142C32.1071 10.0142 31.7516 10.1178 31.4512 10.3252C31.1507 10.5326 30.918 10.8267 30.7529 11.2075C30.5921 11.5841 30.5117 12.0306 30.5117 12.5469V12.5596C30.5117 13.0843 30.5942 13.5413 30.7593 13.9307C30.9243 14.3158 31.1571 14.6141 31.4575 14.8257C31.758 15.0373 32.1113 15.1431 32.5176 15.1431C32.9788 15.1431 33.3555 15.0436 33.6475 14.8447C33.9395 14.6458 34.1489 14.356 34.2759 13.9751L34.2886 13.937L35.3804 13.9307L35.3677 14.0005C35.2746 14.411 35.1095 14.777 34.8726 15.0986C34.6356 15.416 34.3224 15.6657 33.9331 15.8477C33.5438 16.0296 33.0741 16.1206 32.5239 16.1206ZM37.0625 16V6.44043H38.167V10.1855H38.2686C38.4421 9.82161 38.6917 9.5402 39.0176 9.34131C39.3434 9.13818 39.7581 9.03662 40.2617 9.03662C40.7738 9.03662 41.2075 9.13607 41.563 9.33496C41.9185 9.52962 42.1893 9.81527 42.3755 10.1919C42.5617 10.5685 42.6548 11.0277 42.6548 11.5693V16H41.5503V11.8359C41.5503 11.2181 41.4191 10.7611 41.1567 10.4648C40.8986 10.1644 40.4966 10.0142 39.9507 10.0142C39.5868 10.0142 39.2715 10.0924 39.0049 10.249C38.7383 10.4056 38.5309 10.6278 38.3828 10.9155C38.2389 11.2033 38.167 11.5482 38.167 11.9502V16H37.0625ZM47.4473 16.1206C46.7956 16.1206 46.2349 15.9767 45.7651 15.689C45.2996 15.4012 44.9399 14.995 44.686 14.4702C44.4364 13.9412 44.3115 13.3192 44.3115 12.604V12.5977C44.3115 11.891 44.4364 11.271 44.686 10.7378C44.9399 10.2046 45.2975 9.78776 45.7588 9.4873C46.2201 9.18685 46.7596 9.03662 47.3774 9.03662C47.9995 9.03662 48.5327 9.1805 48.9771 9.46826C49.4256 9.75602 49.7684 10.158 50.0054 10.6743C50.2466 11.1864 50.3672 11.783 50.3672 12.4644V12.896H44.8828V12.0137H49.8022L49.2563 12.8198V12.3818C49.2563 11.8444 49.1759 11.4022 49.0151 11.0552C48.8543 10.7082 48.6322 10.45 48.3486 10.2808C48.0651 10.1073 47.7393 10.0205 47.3711 10.0205C47.0029 10.0205 46.6729 10.1115 46.3809 10.2935C46.0931 10.4712 45.8646 10.7357 45.6953 11.0869C45.526 11.4382 45.4414 11.8698 45.4414 12.3818V12.8198C45.4414 13.3065 45.5239 13.7233 45.689 14.0703C45.854 14.4131 46.0889 14.6776 46.3936 14.8638C46.6982 15.0457 47.0579 15.1367 47.4727 15.1367C47.7816 15.1367 48.0503 15.0944 48.2788 15.0098C48.5073 14.9251 48.6956 14.8172 48.8438 14.686C48.9919 14.5549 49.0955 14.4215 49.1548 14.2861L49.1802 14.229H50.2847L50.272 14.2798C50.2127 14.5125 50.1069 14.7389 49.9546 14.959C49.8065 15.1748 49.6139 15.3716 49.377 15.5493C49.14 15.7228 48.8586 15.8625 48.5327 15.9683C48.2111 16.0698 47.8493 16.1206 47.4473 16.1206ZM54.8804 16.1206C54.2414 16.1206 53.687 15.9746 53.2173 15.6826C52.7476 15.3906 52.3836 14.978 52.1255 14.4448C51.8674 13.9116 51.7383 13.2832 51.7383 12.5596V12.5469C51.7383 11.8359 51.8652 11.2181 52.1191 10.6934C52.3773 10.1686 52.7412 9.76237 53.2109 9.47461C53.6807 9.18262 54.235 9.03662 54.874 9.03662C55.4284 9.03662 55.9066 9.13395 56.3086 9.32861C56.7106 9.52327 57.0322 9.78564 57.2734 10.1157C57.5146 10.4416 57.6691 10.8076 57.7368 11.2139L57.7432 11.252H56.645L56.6387 11.2329C56.554 10.8944 56.3615 10.6066 56.061 10.3696C55.7606 10.1326 55.3649 10.0142 54.874 10.0142C54.4635 10.0142 54.1081 10.1178 53.8076 10.3252C53.5072 10.5326 53.2744 10.8267 53.1094 11.2075C52.9486 11.5841 52.8682 12.0306 52.8682 12.5469V12.5596C52.8682 13.0843 52.9507 13.5413 53.1157 13.9307C53.2808 14.3158 53.5135 14.6141 53.814 14.8257C54.1144 15.0373 54.4678 15.1431 54.874 15.1431C55.3353 15.1431 55.7119 15.0436 56.0039 14.8447C56.2959 14.6458 56.5054 14.356 56.6323 13.9751L56.645 13.937L57.7368 13.9307L57.7241 14.0005C57.631 14.411 57.466 14.777 57.229 15.0986C56.992 15.416 56.6789 15.6657 56.2896 15.8477C55.9002 16.0296 55.4305 16.1206 54.8804 16.1206ZM59.4189 16V6.44043H60.5234V16H59.4189ZM63.729 16L61.0566 12.6484L61.8691 11.9438L65.1191 16H63.729ZM60.3838 13.5371L60.333 12.147H60.625L63.583 9.15723H64.9224L61.6724 12.293L61.4058 12.5532L60.3838 13.5371ZM68.8896 16.1206C68.238 16.1206 67.6772 15.9767 67.2075 15.689C66.742 15.4012 66.3823 14.995 66.1284 14.4702C65.8787 13.9412 65.7539 13.3192 65.7539 12.604V12.5977C65.7539 11.891 65.8787 11.271 66.1284 10.7378C66.3823 10.2046 66.7399 9.78776 67.2012 9.4873C67.6624 9.18685 68.202 9.03662 68.8198 9.03662C69.4419 9.03662 69.9751 9.1805 70.4194 9.46826C70.868 9.75602 71.2108 10.158 71.4478 10.6743C71.689 11.1864 71.8096 11.783 71.8096 12.4644V12.896H66.3252V12.0137H71.2446L70.6987 12.8198V12.3818C70.6987 11.8444 70.6183 11.4022 70.4575 11.0552C70.2967 10.7082 70.0745 10.45 69.791 10.2808C69.5075 10.1073 69.1816 10.0205 68.8135 10.0205C68.4453 10.0205 68.1152 10.1115 67.8232 10.2935C67.5355 10.4712 67.307 10.7357 67.1377 11.0869C66.9684 11.4382 66.8838 11.8698 66.8838 12.3818V12.8198C66.8838 13.3065 66.9663 13.7233 67.1313 14.0703C67.2964 14.4131 67.5312 14.6776 67.8359 14.8638C68.1406 15.0457 68.5003 15.1367 68.915 15.1367C69.224 15.1367 69.4927 15.0944 69.7212 15.0098C69.9497 14.9251 70.138 14.8172 70.2861 14.686C70.4342 14.5549 70.5379 14.4215 70.5972 14.2861L70.6226 14.229H71.7271L71.7144 14.2798C71.6551 14.5125 71.5493 14.7389 71.397 14.959C71.2489 15.1748 71.0563 15.3716 70.8193 15.5493C70.5824 15.7228 70.3009 15.8625 69.9751 15.9683C69.6535 16.0698 69.2917 16.1206 68.8896 16.1206ZM76.0498 16.1206C75.4743 16.1206 74.9707 15.9746 74.5391 15.6826C74.1074 15.3906 73.7731 14.9801 73.5361 14.4512C73.2992 13.918 73.1807 13.2959 73.1807 12.585V12.5723C73.1807 11.8571 73.2992 11.235 73.5361 10.7061C73.7731 10.1771 74.1053 9.7666 74.5327 9.47461C74.9644 9.18262 75.4701 9.03662 76.0498 9.03662C76.363 9.03662 76.6571 9.0874 76.9321 9.18896C77.2114 9.2863 77.459 9.42383 77.6748 9.60156C77.8906 9.7793 78.0599 9.99089 78.1826 10.2363H78.2842V6.44043H79.3887V16H78.2842V14.9082H78.1826C78.043 15.1621 77.8674 15.38 77.6558 15.562C77.4442 15.7397 77.203 15.8773 76.9321 15.9746C76.6613 16.0719 76.3672 16.1206 76.0498 16.1206ZM76.3037 15.1431C76.7184 15.1431 77.076 15.0394 77.3765 14.832C77.6769 14.6247 77.9076 14.3306 78.0684 13.9497C78.2292 13.5646 78.3096 13.1097 78.3096 12.585V12.5723C78.3096 12.0433 78.2292 11.5884 78.0684 11.2075C77.9076 10.8267 77.6769 10.5326 77.3765 10.3252C77.076 10.1178 76.7184 10.0142 76.3037 10.0142C75.889 10.0142 75.5314 10.1178 75.231 10.3252C74.9347 10.5283 74.7062 10.8203 74.5454 11.2012C74.3888 11.582 74.3105 12.0391 74.3105 12.5723V12.585C74.3105 13.1139 74.3888 13.571 74.5454 13.9561C74.7062 14.3369 74.9347 14.631 75.231 14.8384C75.5314 15.0415 75.889 15.1431 76.3037 15.1431Z" fill="black" fill-opacity="0.85"/>
</g>
<defs>
<filter id="filter0_dd_631_1952" x="-0.25" y="0.5" width="92.5" height="22.75" filterUnits="userSpaceOnUse" color-interpolation-filters="sRGB">
<feFlood flood-opacity="0" result="BackgroundImageFix"/>
<feColorMatrix in="SourceAlpha" type="matrix" values="0 0 0 0 0 0 0 0 0 0 0 0 0 0 0 0 0 0 127 0" result="hardAlpha"/>
<feOffset dy="1"/>
<feGaussianBlur stdDeviation="0.375"/>
<feColorMatrix type="matrix" values="0 0 0 0 0 0 0 0 0 0 0 0 0 0 0 0 0 0 0.05 0"/>
<feBlend mode="normal" in2="BackgroundImageFix" result="effect1_dropShadow_631_1952"/>
<feColorMatrix in="SourceAlpha" type="matrix" values="0 0 0 0 0 0 0 0 0 0 0 0 0 0 0 0 0 0 127 0" result="hardAlpha"/>
<feOffset dy="0.25"/>
<feGaussianBlur stdDeviation="0.125"/>
<feColorMatrix type="matrix" values="0 0 0 0 0 0 0 0 0 0 0 0 0 0 0 0 0 0 0.15 0"/>
<feBlend mode="normal" in2="effect1_dropShadow_631_1952" result="effect2_dropShadow_631_1952"/>
<feBlend mode="normal" in="SourceGraphic" in2="effect2_dropShadow_631_1952" result="shape"/>
</filter>
</defs>
</svg>
