<svg width="90" height="20" viewBox="0 0 90 20" fill="none" xmlns="http://www.w3.org/2000/svg">
<path d="M16.3594 15.2158C15.5299 15.2158 14.8127 15.0212 14.2075 14.6318C13.6024 14.2425 13.1348 13.6903 12.8047 12.9751C12.4788 12.2599 12.3159 11.4115 12.3159 10.4297V10.417C12.3159 9.43099 12.4788 8.5804 12.8047 7.86523C13.1348 7.15007 13.6003 6.59782 14.2012 6.2085C14.8063 5.81917 15.5236 5.62451 16.353 5.62451C16.9963 5.62451 17.5802 5.75146 18.105 6.00537C18.634 6.25505 19.0698 6.60417 19.4126 7.05273C19.7554 7.49707 19.9712 8.01123 20.0601 8.59521L20.0537 8.60791H18.9048L18.8984 8.59521C18.7969 8.20166 18.6255 7.86312 18.3843 7.57959C18.1431 7.29183 17.849 7.06966 17.502 6.91309C17.1592 6.75651 16.7762 6.67822 16.353 6.67822C15.769 6.67822 15.2612 6.83057 14.8296 7.13525C14.4022 7.43994 14.0721 7.87158 13.8394 8.43018C13.6066 8.98877 13.4902 9.65104 13.4902 10.417V10.4297C13.4902 11.1914 13.6066 11.8516 13.8394 12.4102C14.0721 12.9688 14.4022 13.4004 14.8296 13.7051C15.2612 14.0098 15.7712 14.1621 16.3594 14.1621C16.7868 14.1621 17.174 14.0944 17.521 13.959C17.868 13.8193 18.16 13.6226 18.397 13.3687C18.634 13.1105 18.799 12.8058 18.8921 12.4546L18.9048 12.4419H20.0601V12.4546C19.9585 13.0132 19.7384 13.4998 19.3999 13.9146C19.0614 14.325 18.6318 14.6445 18.1113 14.873C17.5951 15.1016 17.0111 15.2158 16.3594 15.2158ZM24.6494 15.1206C24.002 15.1206 23.4412 14.9788 22.9673 14.6953C22.4976 14.4076 22.1336 13.9992 21.8755 13.4702C21.6216 12.9412 21.4946 12.3128 21.4946 11.585V11.5723C21.4946 10.8402 21.6216 10.2096 21.8755 9.68066C22.1336 9.15169 22.4976 8.74544 22.9673 8.46191C23.4412 8.17839 24.002 8.03662 24.6494 8.03662C25.3011 8.03662 25.8618 8.17839 26.3315 8.46191C26.8013 8.74544 27.1631 9.15169 27.417 9.68066C27.6751 10.2096 27.8042 10.8402 27.8042 11.5723V11.585C27.8042 12.3128 27.6751 12.9412 27.417 13.4702C27.1631 13.9992 26.8013 14.4076 26.3315 14.6953C25.8618 14.9788 25.3011 15.1206 24.6494 15.1206ZM24.6494 14.1431C25.0811 14.1431 25.4471 14.0415 25.7476 13.8384C26.048 13.6353 26.2765 13.3433 26.4331 12.9624C26.5939 12.5815 26.6743 12.1224 26.6743 11.585V11.5723C26.6743 11.0306 26.5939 10.5693 26.4331 10.1885C26.2765 9.80762 26.048 9.51774 25.7476 9.31885C25.4471 9.11572 25.0811 9.01416 24.6494 9.01416C24.2178 9.01416 23.8517 9.11572 23.5513 9.31885C23.2508 9.51774 23.0202 9.80762 22.8594 10.1885C22.7028 10.5693 22.6245 11.0306 22.6245 11.5723V11.585C22.6245 12.1224 22.7028 12.5815 22.8594 12.9624C23.0202 13.3433 23.2508 13.6353 23.5513 13.8384C23.8517 14.0415 24.2178 14.1431 24.6494 14.1431ZM29.5181 15V8.15723H30.6226V9.19824H30.7241C30.8765 8.83008 31.1092 8.54443 31.4224 8.34131C31.7397 8.13818 32.1227 8.03662 32.5713 8.03662C32.8802 8.03662 33.1574 8.0874 33.4028 8.18896C33.6483 8.29053 33.8599 8.43229 34.0376 8.61426C34.2153 8.79199 34.3571 8.99935 34.4629 9.23633H34.5645C34.6872 8.99512 34.8522 8.78564 35.0596 8.60791C35.2669 8.42594 35.506 8.2863 35.7769 8.18896C36.0519 8.0874 36.346 8.03662 36.6592 8.03662C37.1247 8.03662 37.5182 8.12337 37.8398 8.29688C38.1657 8.47038 38.4132 8.72428 38.5825 9.05859C38.7518 9.38867 38.8364 9.79281 38.8364 10.271V15H37.7319V10.5249C37.7319 10.1864 37.679 9.90706 37.5732 9.68701C37.4717 9.46273 37.3151 9.29557 37.1035 9.18555C36.8919 9.07129 36.6253 9.01416 36.3037 9.01416C35.9863 9.01416 35.7091 9.0861 35.4722 9.22998C35.2352 9.37386 35.0511 9.56641 34.9199 9.80762C34.7887 10.0446 34.7231 10.3091 34.7231 10.6011V15H33.6187V10.3535C33.6187 10.0827 33.5594 9.84782 33.4409 9.64893C33.3267 9.4458 33.1616 9.28923 32.9458 9.1792C32.7342 9.06917 32.4845 9.01416 32.1968 9.01416C31.9006 9.01416 31.6318 9.09245 31.3906 9.24902C31.1536 9.4056 30.9653 9.61719 30.8257 9.88379C30.6903 10.1462 30.6226 10.4382 30.6226 10.7598V15H29.5181ZM40.8296 17.2852V8.15723H41.9341V9.24902H42.0356C42.1753 8.99512 42.3509 8.7793 42.5625 8.60156C42.7741 8.4196 43.0153 8.27995 43.2861 8.18262C43.557 8.08529 43.8511 8.03662 44.1685 8.03662C44.7482 8.03662 45.2518 8.18473 45.6792 8.48096C46.1108 8.77295 46.4451 9.18343 46.6821 9.7124C46.9191 10.2414 47.0376 10.8613 47.0376 11.5723V11.585C47.0376 12.3001 46.9191 12.9222 46.6821 13.4512C46.4451 13.9801 46.1108 14.3906 45.6792 14.6826C45.2518 14.9746 44.7482 15.1206 44.1685 15.1206C43.8553 15.1206 43.5591 15.0719 43.2798 14.9746C43.0047 14.873 42.7593 14.7334 42.5435 14.5557C42.3319 14.3779 42.1626 14.1663 42.0356 13.9209H41.9341V17.2852H40.8296ZM43.9146 14.1431C44.3335 14.1431 44.6911 14.0415 44.9873 13.8384C45.2835 13.631 45.5099 13.3369 45.6665 12.9561C45.8273 12.571 45.9077 12.1139 45.9077 11.585V11.5723C45.9077 11.0391 45.8273 10.582 45.6665 10.2012C45.5099 9.82031 45.2835 9.52832 44.9873 9.3252C44.6911 9.11784 44.3335 9.01416 43.9146 9.01416C43.4998 9.01416 43.1423 9.11784 42.8418 9.3252C42.5413 9.53255 42.3107 9.82666 42.1499 10.2075C41.9891 10.5884 41.9087 11.0433 41.9087 11.5723V11.585C41.9087 12.1097 41.9891 12.5646 42.1499 12.9497C42.3107 13.3306 42.5413 13.6247 42.8418 13.832C43.1423 14.0394 43.4998 14.1431 43.9146 14.1431ZM48.8276 15V5.44043H49.9321V15H48.8276ZM54.8452 15.1206C54.1935 15.1206 53.6328 14.9767 53.1631 14.689C52.6976 14.4012 52.3379 13.995 52.084 13.4702C51.8343 12.9412 51.7095 12.3192 51.7095 11.604V11.5977C51.7095 10.891 51.8343 10.271 52.084 9.73779C52.3379 9.20459 52.6955 8.78776 53.1567 8.4873C53.618 8.18685 54.1576 8.03662 54.7754 8.03662C55.3975 8.03662 55.9307 8.1805 56.375 8.46826C56.8236 8.75602 57.1663 9.15804 57.4033 9.67432C57.6445 10.1864 57.7651 10.783 57.7651 11.4644V11.896H52.2808V11.0137H57.2002L56.6543 11.8198V11.3818C56.6543 10.8444 56.5739 10.4022 56.4131 10.0552C56.2523 9.70817 56.0301 9.45003 55.7466 9.28076C55.4631 9.10726 55.1372 9.02051 54.769 9.02051C54.4009 9.02051 54.0708 9.11149 53.7788 9.29346C53.491 9.47119 53.2625 9.73568 53.0933 10.0869C52.924 10.4382 52.8394 10.8698 52.8394 11.3818V11.8198C52.8394 12.3065 52.9219 12.7233 53.0869 13.0703C53.252 13.4131 53.4868 13.6776 53.7915 13.8638C54.0962 14.0457 54.4559 14.1367 54.8706 14.1367C55.1795 14.1367 55.4482 14.0944 55.6768 14.0098C55.9053 13.9251 56.0936 13.8172 56.2417 13.686C56.3898 13.5549 56.4935 13.4215 56.5527 13.2861L56.5781 13.229H57.6826L57.6699 13.2798C57.6107 13.5125 57.5049 13.7389 57.3525 13.959C57.2044 14.1748 57.0119 14.3716 56.7749 14.5493C56.5379 14.7228 56.2565 14.8625 55.9307 14.9683C55.609 15.0698 55.2472 15.1206 54.8452 15.1206ZM61.9102 15.0508C61.2077 15.0508 60.6978 14.909 60.3804 14.6255C60.0672 14.342 59.9106 13.8743 59.9106 13.2227V9.07129H58.8315V8.15723H59.9106V6.38623H61.0532V8.15723H62.5513V9.07129H61.0532V12.9434C61.0532 13.3454 61.1294 13.6353 61.2817 13.813C61.4341 13.9865 61.688 14.0732 62.0435 14.0732C62.1408 14.0732 62.2233 14.0711 62.291 14.0669C62.363 14.0627 62.4497 14.0563 62.5513 14.0479V14.9873C62.4455 15.0042 62.3397 15.019 62.2339 15.0317C62.1281 15.0444 62.0202 15.0508 61.9102 15.0508ZM66.9058 15.1206C66.2541 15.1206 65.6934 14.9767 65.2236 14.689C64.7581 14.4012 64.3984 13.995 64.1445 13.4702C63.8949 12.9412 63.77 12.3192 63.77 11.604V11.5977C63.77 10.891 63.8949 10.271 64.1445 9.73779C64.3984 9.20459 64.756 8.78776 65.2173 8.4873C65.6785 8.18685 66.2181 8.03662 66.8359 8.03662C67.458 8.03662 67.9912 8.1805 68.4355 8.46826C68.8841 8.75602 69.2269 9.15804 69.4639 9.67432C69.7051 10.1864 69.8257 10.783 69.8257 11.4644V11.896H64.3413V11.0137H69.2607L68.7148 11.8198V11.3818C68.7148 10.8444 68.6344 10.4022 68.4736 10.0552C68.3128 9.70817 68.0907 9.45003 67.8071 9.28076C67.5236 9.10726 67.1978 9.02051 66.8296 9.02051C66.4614 9.02051 66.1313 9.11149 65.8394 9.29346C65.5516 9.47119 65.3231 9.73568 65.1538 10.0869C64.9845 10.4382 64.8999 10.8698 64.8999 11.3818V11.8198C64.8999 12.3065 64.9824 12.7233 65.1475 13.0703C65.3125 13.4131 65.5474 13.6776 65.8521 13.8638C66.1567 14.0457 66.5164 14.1367 66.9312 14.1367C67.2401 14.1367 67.5088 14.0944 67.7373 14.0098C67.9658 13.9251 68.1541 13.8172 68.3022 13.686C68.4504 13.5549 68.554 13.4215 68.6133 13.2861L68.6387 13.229H69.7432L69.7305 13.2798C69.6712 13.5125 69.5654 13.7389 69.4131 13.959C69.265 14.1748 69.0724 14.3716 68.8354 14.5493C68.5985 14.7228 68.3171 14.8625 67.9912 14.9683C67.6696 15.0698 67.3078 15.1206 66.9058 15.1206ZM74.0659 15.1206C73.4904 15.1206 72.9868 14.9746 72.5552 14.6826C72.1235 14.3906 71.7892 13.9801 71.5522 13.4512C71.3153 12.918 71.1968 12.2959 71.1968 11.585V11.5723C71.1968 10.8571 71.3153 10.235 71.5522 9.70605C71.7892 9.17708 72.1214 8.7666 72.5488 8.47461C72.9805 8.18262 73.4862 8.03662 74.0659 8.03662C74.3791 8.03662 74.6732 8.0874 74.9482 8.18896C75.2275 8.2863 75.4751 8.42383 75.6909 8.60156C75.9067 8.7793 76.076 8.99089 76.1987 9.23633H76.3003V5.44043H77.4048V15H76.3003V13.9082H76.1987C76.0591 14.1621 75.8835 14.38 75.6719 14.562C75.4603 14.7397 75.2191 14.8773 74.9482 14.9746C74.6774 15.0719 74.3833 15.1206 74.0659 15.1206ZM74.3198 14.1431C74.7345 14.1431 75.0921 14.0394 75.3926 13.832C75.693 13.6247 75.9237 13.3306 76.0845 12.9497C76.2453 12.5646 76.3257 12.1097 76.3257 11.585V11.5723C76.3257 11.0433 76.2453 10.5884 76.0845 10.2075C75.9237 9.82666 75.693 9.53255 75.3926 9.3252C75.0921 9.11784 74.7345 9.01416 74.3198 9.01416C73.9051 9.01416 73.5475 9.11784 73.2471 9.3252C72.9508 9.52832 72.7223 9.82031 72.5615 10.2012C72.4049 10.582 72.3267 11.0391 72.3267 11.5723V11.585C72.3267 12.1139 72.4049 12.571 72.5615 12.9561C72.7223 13.3369 72.9508 13.631 73.2471 13.8384C73.5475 14.0415 73.9051 14.1431 74.3198 14.1431Z" fill="black"/>
</svg>
