<svg width="65" height="28" viewBox="0 0 65 28" fill="none" xmlns="http://www.w3.org/2000/svg">
<g filter="url(#filter0_dd_510_5884)">
<rect x="3" y="2" width="59" height="22" rx="5" fill="#03A200"/>
<rect x="3" y="2" width="59" height="22" rx="5" fill="url(#paint0_linear_510_5884)" fill-opacity="0.17"/>
<path d="M15.0605 18.2158C14.3031 18.2158 13.6514 18.0741 13.1055 17.7905C12.5638 17.507 12.147 17.1134 11.855 16.6099C11.563 16.1021 11.417 15.516 11.417 14.8516V8.84033H12.5596V14.7754C12.5596 15.2451 12.6569 15.6598 12.8516 16.0195C13.0505 16.375 13.3361 16.6543 13.7085 16.8574C14.0809 17.0605 14.5316 17.1621 15.0605 17.1621C15.5895 17.1621 16.0381 17.0605 16.4062 16.8574C16.7786 16.6543 17.0622 16.375 17.2568 16.0195C17.4515 15.6598 17.5488 15.2451 17.5488 14.7754V8.84033H18.6914V14.8516C18.6914 15.516 18.5454 16.1021 18.2534 16.6099C17.9657 17.1134 17.5509 17.507 17.0093 17.7905C16.4676 18.0741 15.818 18.2158 15.0605 18.2158ZM20.875 20.2852V11.1572H21.9795V12.249H22.0811C22.2207 11.9951 22.3963 11.7793 22.6079 11.6016C22.8195 11.4196 23.0607 11.2799 23.3315 11.1826C23.6024 11.0853 23.8965 11.0366 24.2139 11.0366C24.7936 11.0366 25.2972 11.1847 25.7246 11.481C26.1562 11.7729 26.4906 12.1834 26.7275 12.7124C26.9645 13.2414 27.083 13.8613 27.083 14.5723V14.585C27.083 15.3001 26.9645 15.9222 26.7275 16.4512C26.4906 16.9801 26.1562 17.3906 25.7246 17.6826C25.2972 17.9746 24.7936 18.1206 24.2139 18.1206C23.9007 18.1206 23.6045 18.0719 23.3252 17.9746C23.0501 17.873 22.8047 17.7334 22.5889 17.5557C22.3773 17.3779 22.208 17.1663 22.0811 16.9209H21.9795V20.2852H20.875ZM23.96 17.1431C24.3789 17.1431 24.7365 17.0415 25.0327 16.8384C25.3289 16.631 25.5553 16.3369 25.7119 15.9561C25.8727 15.571 25.9531 15.1139 25.9531 14.585V14.5723C25.9531 14.0391 25.8727 13.582 25.7119 13.2012C25.5553 12.8203 25.3289 12.5283 25.0327 12.3252C24.7365 12.1178 24.3789 12.0142 23.96 12.0142C23.5452 12.0142 23.1877 12.1178 22.8872 12.3252C22.5868 12.5326 22.3561 12.8267 22.1953 13.2075C22.0345 13.5884 21.9541 14.0433 21.9541 14.5723V14.585C21.9541 15.1097 22.0345 15.5646 22.1953 15.9497C22.3561 16.3306 22.5868 16.6247 22.8872 16.832C23.1877 17.0394 23.5452 17.1431 23.96 17.1431ZM31.3359 18.1206C30.7604 18.1206 30.2568 17.9746 29.8252 17.6826C29.3936 17.3906 29.0592 16.9801 28.8223 16.4512C28.5853 15.918 28.4668 15.2959 28.4668 14.585V14.5723C28.4668 13.8571 28.5853 13.235 28.8223 12.7061C29.0592 12.1771 29.3914 11.7666 29.8188 11.4746C30.2505 11.1826 30.7562 11.0366 31.3359 11.0366C31.6491 11.0366 31.9432 11.0874 32.2183 11.189C32.4976 11.2863 32.7451 11.4238 32.9609 11.6016C33.1768 11.7793 33.346 11.9909 33.4688 12.2363H33.5703V8.44043H34.6748V18H33.5703V16.9082H33.4688C33.3291 17.1621 33.1535 17.38 32.9419 17.562C32.7303 17.7397 32.4891 17.8773 32.2183 17.9746C31.9474 18.0719 31.6533 18.1206 31.3359 18.1206ZM31.5898 17.1431C32.0046 17.1431 32.3621 17.0394 32.6626 16.832C32.9631 16.6247 33.1937 16.3306 33.3545 15.9497C33.5153 15.5646 33.5957 15.1097 33.5957 14.585V14.5723C33.5957 14.0433 33.5153 13.5884 33.3545 13.2075C33.1937 12.8267 32.9631 12.5326 32.6626 12.3252C32.3621 12.1178 32.0046 12.0142 31.5898 12.0142C31.1751 12.0142 30.8175 12.1178 30.5171 12.3252C30.2209 12.5283 29.9924 12.8203 29.8315 13.2012C29.675 13.582 29.5967 14.0391 29.5967 14.5723V14.585C29.5967 15.1139 29.675 15.571 29.8315 15.9561C29.9924 16.3369 30.2209 16.631 30.5171 16.8384C30.8175 17.0415 31.1751 17.1431 31.5898 17.1431ZM38.6738 18.1206C38.2422 18.1206 37.8529 18.0381 37.5059 17.873C37.1631 17.708 36.8901 17.4731 36.687 17.1685C36.4881 16.8638 36.3887 16.5041 36.3887 16.0894V16.0767C36.3887 15.6704 36.486 15.3234 36.6807 15.0356C36.8753 14.7437 37.1589 14.5151 37.5312 14.3501C37.9036 14.1851 38.3543 14.0877 38.8833 14.0581L41.397 13.9058V14.7881L39.0166 14.9404C38.4961 14.9701 38.1152 15.078 37.874 15.2642C37.637 15.4504 37.5186 15.7127 37.5186 16.0513V16.064C37.5186 16.411 37.6497 16.6818 37.9121 16.8765C38.1745 17.0669 38.5046 17.1621 38.9023 17.1621C39.279 17.1621 39.6133 17.0881 39.9053 16.9399C40.1973 16.7876 40.4258 16.5824 40.5908 16.3242C40.7601 16.0661 40.8447 15.7741 40.8447 15.4482V13.3154C40.8447 12.8923 40.7157 12.5706 40.4575 12.3506C40.2036 12.1263 39.8206 12.0142 39.3086 12.0142C38.8981 12.0142 38.5617 12.0882 38.2993 12.2363C38.0369 12.3802 37.8613 12.5854 37.7725 12.8521L37.7661 12.8711H36.6616L36.668 12.833C36.7272 12.4733 36.8753 12.1602 37.1123 11.8936C37.3535 11.6227 37.6646 11.4132 38.0454 11.2651C38.4263 11.1128 38.86 11.0366 39.3467 11.0366C39.9053 11.0366 40.3771 11.1276 40.7622 11.3096C41.1515 11.4915 41.4456 11.7539 41.6445 12.0967C41.8477 12.4352 41.9492 12.8415 41.9492 13.3154V18H40.8447V16.9907H40.7432C40.5993 17.2319 40.4237 17.4372 40.2163 17.6064C40.0132 17.7757 39.7826 17.9048 39.5244 17.9937C39.2663 18.0783 38.9827 18.1206 38.6738 18.1206ZM46.3989 18.0508C45.6965 18.0508 45.1865 17.909 44.8691 17.6255C44.556 17.342 44.3994 16.8743 44.3994 16.2227V12.0713H43.3203V11.1572H44.3994V9.38623H45.542V11.1572H47.04V12.0713H45.542V15.9434C45.542 16.3454 45.6182 16.6353 45.7705 16.813C45.9229 16.9865 46.1768 17.0732 46.5322 17.0732C46.6296 17.0732 46.7121 17.0711 46.7798 17.0669C46.8517 17.0627 46.9385 17.0563 47.04 17.0479V17.9873C46.9342 18.0042 46.8285 18.019 46.7227 18.0317C46.6169 18.0444 46.509 18.0508 46.3989 18.0508ZM51.3945 18.1206C50.7428 18.1206 50.1821 17.9767 49.7124 17.689C49.2469 17.4012 48.8872 16.995 48.6333 16.4702C48.3836 15.9412 48.2588 15.3192 48.2588 14.604V14.5977C48.2588 13.891 48.3836 13.271 48.6333 12.7378C48.8872 12.2046 49.2448 11.7878 49.7061 11.4873C50.1673 11.1868 50.7069 11.0366 51.3247 11.0366C51.9468 11.0366 52.48 11.1805 52.9243 11.4683C53.3729 11.756 53.7157 12.158 53.9526 12.6743C54.1938 13.1864 54.3145 13.783 54.3145 14.4644V14.896H48.8301V14.0137H53.7495L53.2036 14.8198V14.3818C53.2036 13.8444 53.1232 13.4022 52.9624 13.0552C52.8016 12.7082 52.5794 12.45 52.2959 12.2808C52.0124 12.1073 51.6865 12.0205 51.3184 12.0205C50.9502 12.0205 50.6201 12.1115 50.3281 12.2935C50.0404 12.4712 49.8118 12.7357 49.6426 13.0869C49.4733 13.4382 49.3887 13.8698 49.3887 14.3818V14.8198C49.3887 15.3065 49.4712 15.7233 49.6362 16.0703C49.8013 16.4131 50.0361 16.6776 50.3408 16.8638C50.6455 17.0457 51.0052 17.1367 51.4199 17.1367C51.7288 17.1367 51.9976 17.0944 52.2261 17.0098C52.4546 16.9251 52.6429 16.8172 52.791 16.686C52.9391 16.5549 53.0428 16.4215 53.1021 16.2861L53.1274 16.229H54.2319L54.2192 16.2798C54.16 16.5125 54.0542 16.7389 53.9019 16.959C53.7537 17.1748 53.5612 17.3716 53.3242 17.5493C53.0872 17.7228 52.8058 17.8625 52.48 17.9683C52.1584 18.0698 51.7965 18.1206 51.3945 18.1206Z" fill="white"/>
</g>
<defs>
<filter id="filter0_dd_510_5884" x="0.5" y="0.5" width="64" height="27" filterUnits="userSpaceOnUse" color-interpolation-filters="sRGB">
<feFlood flood-opacity="0" result="BackgroundImageFix"/>
<feColorMatrix in="SourceAlpha" type="matrix" values="0 0 0 0 0 0 0 0 0 0 0 0 0 0 0 0 0 0 127 0" result="hardAlpha"/>
<feMorphology radius="0.5" operator="dilate" in="SourceAlpha" result="effect1_dropShadow_510_5884"/>
<feOffset/>
<feComposite in2="hardAlpha" operator="out"/>
<feColorMatrix type="matrix" values="0 0 0 0 0 0 0 0 0 0.478431 0 0 0 0 1 0 0 0 0.12 0"/>
<feBlend mode="normal" in2="BackgroundImageFix" result="effect1_dropShadow_510_5884"/>
<feColorMatrix in="SourceAlpha" type="matrix" values="0 0 0 0 0 0 0 0 0 0 0 0 0 0 0 0 0 0 127 0" result="hardAlpha"/>
<feOffset dy="1"/>
<feGaussianBlur stdDeviation="1.25"/>
<feComposite in2="hardAlpha" operator="out"/>
<feColorMatrix type="matrix" values="0 0 0 0 0 0 0 0 0 0.478431 0 0 0 0 1 0 0 0 0.24 0"/>
<feBlend mode="normal" in2="effect1_dropShadow_510_5884" result="effect2_dropShadow_510_5884"/>
<feBlend mode="normal" in="SourceGraphic" in2="effect2_dropShadow_510_5884" result="shape"/>
</filter>
<linearGradient id="paint0_linear_510_5884" x1="32.5" y1="2" x2="32.5" y2="24" gradientUnits="userSpaceOnUse">
<stop stop-color="white"/>
<stop offset="1" stop-color="white" stop-opacity="0"/>
</linearGradient>
</defs>
</svg>
