<svg width="161" height="25" viewBox="0 0 161 25" fill="none" xmlns="http://www.w3.org/2000/svg">
<rect x="0.75" y="0.75" width="159.5" height="23.5" rx="5.25" stroke="black" stroke-opacity="0.1" stroke-width="0.5"/>
<path d="M59.9595 17.5L56.5825 8.34033H57.7822L60.4736 16.021H60.5752L63.2666 8.34033H64.4663L61.0894 17.5H59.9595ZM68.0908 17.6206C67.4391 17.6206 66.8784 17.4767 66.4087 17.189C65.9432 16.9012 65.5835 16.495 65.3296 15.9702C65.0799 15.4412 64.9551 14.8192 64.9551 14.104V14.0977C64.9551 13.391 65.0799 12.771 65.3296 12.2378C65.5835 11.7046 65.9411 11.2878 66.4023 10.9873C66.8636 10.6868 67.4032 10.5366 68.021 10.5366C68.6431 10.5366 69.1763 10.6805 69.6206 10.9683C70.0692 11.256 70.4119 11.658 70.6489 12.1743C70.8901 12.6864 71.0107 13.283 71.0107 13.9644V14.396H65.5264V13.5137H70.4458L69.8999 14.3198V13.8818C69.8999 13.3444 69.8195 12.9022 69.6587 12.5552C69.4979 12.2082 69.2757 11.95 68.9922 11.7808C68.7087 11.6073 68.3828 11.5205 68.0146 11.5205C67.6465 11.5205 67.3164 11.6115 67.0244 11.7935C66.7367 11.9712 66.5081 12.2357 66.3389 12.5869C66.1696 12.9382 66.085 13.3698 66.085 13.8818V14.3198C66.085 14.8065 66.1675 15.2233 66.3325 15.5703C66.4976 15.9131 66.7324 16.1776 67.0371 16.3638C67.3418 16.5457 67.7015 16.6367 68.1162 16.6367C68.4251 16.6367 68.6938 16.5944 68.9224 16.5098C69.1509 16.4251 69.3392 16.3172 69.4873 16.186C69.6354 16.0549 69.7391 15.9215 69.7983 15.7861L69.8237 15.729H70.9282L70.9155 15.7798C70.8563 16.0125 70.7505 16.2389 70.5981 16.459C70.45 16.6748 70.2575 16.8716 70.0205 17.0493C69.7835 17.2228 69.5021 17.3625 69.1763 17.4683C68.8547 17.5698 68.4928 17.6206 68.0908 17.6206ZM72.7246 17.5V10.6572H73.8291V11.6729H73.9307C74.0618 11.3132 74.284 11.0339 74.5972 10.835C74.9103 10.6361 75.2975 10.5366 75.7588 10.5366C75.8646 10.5366 75.9683 10.543 76.0698 10.5557C76.1756 10.5641 76.256 10.5726 76.311 10.5811V11.6538C76.1968 11.6326 76.0846 11.6178 75.9746 11.6094C75.8688 11.5967 75.7546 11.5903 75.6318 11.5903C75.2806 11.5903 74.9696 11.6602 74.6987 11.7998C74.4279 11.9395 74.2142 12.1341 74.0576 12.3838C73.9053 12.6335 73.8291 12.9255 73.8291 13.2598V17.5H72.7246ZM77.7012 17.5V10.6572H78.8057V17.5H77.7012ZM78.2598 9.33691C78.0524 9.33691 77.8726 9.26286 77.7202 9.11475C77.5721 8.9624 77.498 8.78255 77.498 8.5752C77.498 8.36361 77.5721 8.18376 77.7202 8.03564C77.8726 7.88753 78.0524 7.81348 78.2598 7.81348C78.4714 7.81348 78.6512 7.88753 78.7993 8.03564C78.9474 8.18376 79.0215 8.36361 79.0215 8.5752C79.0215 8.78255 78.9474 8.9624 78.7993 9.11475C78.6512 9.26286 78.4714 9.33691 78.2598 9.33691ZM81.3447 17.5V11.5713H80.2085V10.6572H81.3447V9.89551C81.3447 9.43848 81.4188 9.06185 81.5669 8.76562C81.7192 8.46517 81.9435 8.243 82.2397 8.09912C82.536 7.95101 82.8999 7.87695 83.3315 7.87695C83.467 7.87695 83.5939 7.8833 83.7124 7.896C83.8351 7.90446 83.9536 7.91927 84.0679 7.94043V8.82275C84.0002 8.81006 83.9219 8.8016 83.833 8.79736C83.7441 8.79313 83.651 8.79102 83.5537 8.79102C83.1602 8.79102 82.8766 8.88623 82.7031 9.07666C82.5339 9.26709 82.4492 9.55062 82.4492 9.92725V10.6572H84.0044V11.5713H82.4492V17.5H81.3447ZM86.1816 19.8994C86.1097 19.8994 86.0293 19.8952 85.9404 19.8867C85.8516 19.8825 85.769 19.874 85.6929 19.8613V18.9536C85.7606 18.9663 85.8346 18.9748 85.915 18.979C85.9954 18.9832 86.0737 18.9854 86.1499 18.9854C86.4631 18.9854 86.7191 18.9049 86.918 18.7441C87.1211 18.5833 87.284 18.3062 87.4067 17.9126L87.5337 17.5063L85.001 10.6572H86.1816L88.2891 16.9795L87.8511 16.2876H88.3716L87.9336 16.9795L90.0347 10.6572H91.1963L88.5239 17.9189C88.3377 18.431 88.141 18.8309 87.9336 19.1187C87.7262 19.4064 87.4829 19.6074 87.2036 19.7217C86.9285 19.8402 86.5879 19.8994 86.1816 19.8994ZM97.0234 14.231V13.2153H99.6133C100.269 13.2153 100.777 13.0461 101.137 12.7075C101.496 12.3647 101.676 11.8929 101.676 11.292V11.2793C101.676 10.6742 101.496 10.2023 101.137 9.86377C100.777 9.52523 100.269 9.35596 99.6133 9.35596H97.0234V8.34033H99.9053C100.481 8.34033 100.989 8.46305 101.429 8.7085C101.869 8.95394 102.214 9.29671 102.463 9.73682C102.717 10.1769 102.844 10.6868 102.844 11.2666V11.2793C102.844 11.859 102.717 12.3711 102.463 12.8154C102.214 13.2598 101.869 13.6068 101.429 13.8564C100.989 14.1061 100.481 14.231 99.9053 14.231H97.0234ZM96.4521 17.5V8.34033H97.5947V17.5H96.4521ZM106.202 17.6206C105.771 17.6206 105.381 17.5381 105.034 17.373C104.691 17.208 104.418 16.9731 104.215 16.6685C104.016 16.3638 103.917 16.0041 103.917 15.5894V15.5767C103.917 15.1704 104.014 14.8234 104.209 14.5356C104.404 14.2437 104.687 14.0151 105.06 13.8501C105.432 13.6851 105.883 13.5877 106.412 13.5581L108.925 13.4058V14.2881L106.545 14.4404C106.024 14.4701 105.644 14.578 105.402 14.7642C105.165 14.9504 105.047 15.2127 105.047 15.5513V15.564C105.047 15.911 105.178 16.1818 105.44 16.3765C105.703 16.5669 106.033 16.6621 106.431 16.6621C106.807 16.6621 107.142 16.5881 107.434 16.4399C107.726 16.2876 107.954 16.0824 108.119 15.8242C108.288 15.5661 108.373 15.2741 108.373 14.9482V12.8154C108.373 12.3923 108.244 12.0706 107.986 11.8506C107.732 11.6263 107.349 11.5142 106.837 11.5142C106.426 11.5142 106.09 11.5882 105.828 11.7363C105.565 11.8802 105.39 12.0854 105.301 12.3521L105.294 12.3711H104.19L104.196 12.333C104.256 11.9733 104.404 11.6602 104.641 11.3936C104.882 11.1227 105.193 10.9132 105.574 10.7651C105.955 10.6128 106.388 10.5366 106.875 10.5366C107.434 10.5366 107.905 10.6276 108.291 10.8096C108.68 10.9915 108.974 11.2539 109.173 11.5967C109.376 11.9352 109.478 12.3415 109.478 12.8154V17.5H108.373V16.4907H108.271C108.128 16.7319 107.952 16.9372 107.745 17.1064C107.542 17.2757 107.311 17.4048 107.053 17.4937C106.795 17.5783 106.511 17.6206 106.202 17.6206ZM113.845 17.6206C113.337 17.6206 112.888 17.5444 112.499 17.3921C112.11 17.2355 111.797 17.0176 111.56 16.7383C111.327 16.459 111.189 16.131 111.147 15.7544H112.277C112.37 16.0379 112.552 16.2664 112.823 16.4399C113.094 16.6134 113.447 16.7002 113.883 16.7002C114.192 16.7002 114.463 16.6558 114.695 16.5669C114.932 16.4738 115.118 16.349 115.254 16.1924C115.389 16.0316 115.457 15.8475 115.457 15.6401V15.6274C115.457 15.3947 115.364 15.1979 115.178 15.0371C114.992 14.8721 114.687 14.7388 114.264 14.6372L113.204 14.3833C112.776 14.2817 112.425 14.1506 112.15 13.9897C111.875 13.8247 111.672 13.6237 111.541 13.3867C111.409 13.1455 111.344 12.862 111.344 12.5361V12.5298C111.344 12.1489 111.454 11.8083 111.674 11.5078C111.898 11.2074 112.203 10.9704 112.588 10.7969C112.973 10.6234 113.407 10.5366 113.889 10.5366C114.367 10.5366 114.791 10.6128 115.159 10.7651C115.531 10.9132 115.829 11.1248 116.054 11.3999C116.282 11.675 116.422 11.9987 116.473 12.3711H115.387C115.315 12.1003 115.15 11.8802 114.892 11.7109C114.634 11.5417 114.298 11.457 113.883 11.457C113.612 11.457 113.371 11.5015 113.159 11.5903C112.948 11.675 112.78 11.7935 112.658 11.9458C112.535 12.0981 112.474 12.2759 112.474 12.479V12.4917C112.474 12.644 112.514 12.7795 112.594 12.8979C112.675 13.0164 112.799 13.1201 112.969 13.209C113.138 13.2979 113.356 13.3761 113.623 13.4438L114.676 13.6978C115.319 13.8543 115.798 14.0786 116.111 14.3706C116.428 14.6626 116.587 15.054 116.587 15.5449V15.5576C116.587 15.9639 116.466 16.3236 116.225 16.6367C115.984 16.9456 115.656 17.1868 115.241 17.3604C114.831 17.5339 114.365 17.6206 113.845 17.6206ZM120.522 17.6206C120.015 17.6206 119.566 17.5444 119.177 17.3921C118.787 17.2355 118.474 17.0176 118.237 16.7383C118.005 16.459 117.867 16.131 117.825 15.7544H118.955C119.048 16.0379 119.23 16.2664 119.5 16.4399C119.771 16.6134 120.125 16.7002 120.561 16.7002C120.869 16.7002 121.14 16.6558 121.373 16.5669C121.61 16.4738 121.796 16.349 121.932 16.1924C122.067 16.0316 122.135 15.8475 122.135 15.6401V15.6274C122.135 15.3947 122.042 15.1979 121.855 15.0371C121.669 14.8721 121.365 14.7388 120.941 14.6372L119.881 14.3833C119.454 14.2817 119.103 14.1506 118.828 13.9897C118.553 13.8247 118.349 13.6237 118.218 13.3867C118.087 13.1455 118.021 12.862 118.021 12.5361V12.5298C118.021 12.1489 118.132 11.8083 118.352 11.5078C118.576 11.2074 118.881 10.9704 119.266 10.7969C119.651 10.6234 120.084 10.5366 120.567 10.5366C121.045 10.5366 121.468 10.6128 121.836 10.7651C122.209 10.9132 122.507 11.1248 122.731 11.3999C122.96 11.675 123.1 11.9987 123.15 12.3711H122.065C121.993 12.1003 121.828 11.8802 121.57 11.7109C121.312 11.5417 120.975 11.457 120.561 11.457C120.29 11.457 120.049 11.5015 119.837 11.5903C119.625 11.675 119.458 11.7935 119.335 11.9458C119.213 12.0981 119.151 12.2759 119.151 12.479V12.4917C119.151 12.644 119.192 12.7795 119.272 12.8979C119.352 13.0164 119.477 13.1201 119.646 13.209C119.816 13.2979 120.034 13.3761 120.3 13.4438L121.354 13.6978C121.997 13.8543 122.475 14.0786 122.789 14.3706C123.106 14.6626 123.265 15.054 123.265 15.5449V15.5576C123.265 15.9639 123.144 16.3236 122.903 16.6367C122.662 16.9456 122.334 17.1868 121.919 17.3604C121.508 17.5339 121.043 17.6206 120.522 17.6206ZM126.108 17.5L124.191 10.6572H125.296L126.642 16.1289H126.743L128.273 10.6572H129.32L130.85 16.1289H130.952L132.297 10.6572H133.396L131.479 17.5H130.368L128.838 12.2061H128.736L127.213 17.5H126.108ZM137.414 17.6206C136.766 17.6206 136.205 17.4788 135.731 17.1953C135.262 16.9076 134.898 16.4992 134.64 15.9702C134.386 15.4412 134.259 14.8128 134.259 14.085V14.0723C134.259 13.3402 134.386 12.7096 134.64 12.1807C134.898 11.6517 135.262 11.2454 135.731 10.9619C136.205 10.6784 136.766 10.5366 137.414 10.5366C138.065 10.5366 138.626 10.6784 139.096 10.9619C139.565 11.2454 139.927 11.6517 140.181 12.1807C140.439 12.7096 140.568 13.3402 140.568 14.0723V14.085C140.568 14.8128 140.439 15.4412 140.181 15.9702C139.927 16.4992 139.565 16.9076 139.096 17.1953C138.626 17.4788 138.065 17.6206 137.414 17.6206ZM137.414 16.6431C137.845 16.6431 138.211 16.5415 138.512 16.3384C138.812 16.1353 139.041 15.8433 139.197 15.4624C139.358 15.0815 139.438 14.6224 139.438 14.085V14.0723C139.438 13.5306 139.358 13.0693 139.197 12.6885C139.041 12.3076 138.812 12.0177 138.512 11.8188C138.211 11.6157 137.845 11.5142 137.414 11.5142C136.982 11.5142 136.616 11.6157 136.315 11.8188C136.015 12.0177 135.784 12.3076 135.624 12.6885C135.467 13.0693 135.389 13.5306 135.389 14.0723V14.085C135.389 14.6224 135.467 15.0815 135.624 15.4624C135.784 15.8433 136.015 16.1353 136.315 16.3384C136.616 16.5415 136.982 16.6431 137.414 16.6431ZM142.282 17.5V10.6572H143.387V11.6729H143.488C143.619 11.3132 143.842 11.0339 144.155 10.835C144.468 10.6361 144.855 10.5366 145.316 10.5366C145.422 10.5366 145.526 10.543 145.627 10.5557C145.733 10.5641 145.814 10.5726 145.869 10.5811V11.6538C145.754 11.6326 145.642 11.6178 145.532 11.6094C145.426 11.5967 145.312 11.5903 145.189 11.5903C144.838 11.5903 144.527 11.6602 144.256 11.7998C143.986 11.9395 143.772 12.1341 143.615 12.3838C143.463 12.6335 143.387 12.9255 143.387 13.2598V17.5H142.282ZM149.569 17.6206C148.994 17.6206 148.49 17.4746 148.059 17.1826C147.627 16.8906 147.293 16.4801 147.056 15.9512C146.819 15.418 146.7 14.7959 146.7 14.085V14.0723C146.7 13.3571 146.819 12.735 147.056 12.2061C147.293 11.6771 147.625 11.2666 148.052 10.9746C148.484 10.6826 148.99 10.5366 149.569 10.5366C149.882 10.5366 150.177 10.5874 150.452 10.689C150.731 10.7863 150.979 10.9238 151.194 11.1016C151.41 11.2793 151.579 11.4909 151.702 11.7363H151.804V7.94043H152.908V17.5H151.804V16.4082H151.702C151.562 16.6621 151.387 16.88 151.175 17.062C150.964 17.2397 150.722 17.3773 150.452 17.4746C150.181 17.5719 149.887 17.6206 149.569 17.6206ZM149.823 16.6431C150.238 16.6431 150.596 16.5394 150.896 16.332C151.196 16.1247 151.427 15.8306 151.588 15.4497C151.749 15.0646 151.829 14.6097 151.829 14.085V14.0723C151.829 13.5433 151.749 13.0884 151.588 12.7075C151.427 12.3267 151.196 12.0326 150.896 11.8252C150.596 11.6178 150.238 11.5142 149.823 11.5142C149.409 11.5142 149.051 11.6178 148.75 11.8252C148.454 12.0283 148.226 12.3203 148.065 12.7012C147.908 13.082 147.83 13.5391 147.83 14.0723V14.085C147.83 14.6139 147.908 15.071 148.065 15.4561C148.226 15.8369 148.454 16.131 148.75 16.3384C149.051 16.5415 149.409 16.6431 149.823 16.6431Z" fill="black" fill-opacity="0.25"/>
</svg>
