<svg width="298" height="188" viewBox="0 0 298 188" fill="none" xmlns="http://www.w3.org/2000/svg">
<g filter="url(#filter0_dd_421_2943)">
<rect x="3" y="2" width="292" height="183" rx="10" fill="white"/>
</g>
<g filter="url(#filter1_dd_421_2943)">
<rect x="10" y="9" width="23" height="23" rx="7" fill="white"/>
<path d="M15.6763 26.8252V16.0977C15.6763 15.9622 15.7249 15.8438 15.8223 15.7422C15.9238 15.6406 16.0465 15.5898 16.1904 15.5898C16.3301 15.5898 16.4486 15.6406 16.5459 15.7422C16.6475 15.8438 16.6982 15.9622 16.6982 16.0977V26.1333C16.6982 26.2518 16.7575 26.311 16.876 26.311H28.8096C28.9492 26.311 29.0698 26.3597 29.1714 26.457C29.2729 26.5586 29.3237 26.6792 29.3237 26.8188C29.3237 26.9627 29.2729 27.0833 29.1714 27.1807C29.0698 27.278 28.9492 27.3267 28.8096 27.3267H16.1841C16.0317 27.3267 15.909 27.2801 15.8159 27.187C15.7228 27.0981 15.6763 26.9775 15.6763 26.8252ZM16.3428 22.877V22.0073L20.4878 19.6143L23.4141 22.1216L28.1875 19.2778L28.5874 19.9253L23.3633 23.0356L20.4243 20.5156L16.3428 22.877ZM20.3418 21.3726C20.1344 21.3726 19.944 21.3218 19.7705 21.2202C19.6012 21.1187 19.4658 20.9832 19.3643 20.814C19.2627 20.6405 19.2119 20.45 19.2119 20.2427C19.2119 20.0353 19.2627 19.847 19.3643 19.6777C19.4658 19.5042 19.6012 19.3688 19.7705 19.2715C19.944 19.1699 20.1344 19.1191 20.3418 19.1191C20.5492 19.1191 20.7375 19.1699 20.9067 19.2715C21.0802 19.3688 21.2178 19.5042 21.3193 19.6777C21.4209 19.847 21.4717 20.0353 21.4717 20.2427C21.4717 20.45 21.4209 20.6405 21.3193 20.814C21.2178 20.9832 21.0802 21.1187 20.9067 21.2202C20.7375 21.3218 20.5492 21.3726 20.3418 21.3726ZM23.3379 23.7021C23.1305 23.7021 22.9401 23.6514 22.7666 23.5498C22.5973 23.4482 22.4619 23.3128 22.3604 23.1436C22.2588 22.9701 22.208 22.7796 22.208 22.5723C22.208 22.3649 22.2588 22.1766 22.3604 22.0073C22.4619 21.8338 22.5973 21.6984 22.7666 21.6011C22.9401 21.4995 23.1305 21.4487 23.3379 21.4487C23.5452 21.4487 23.7336 21.4995 23.9028 21.6011C24.0763 21.6984 24.2118 21.8338 24.3091 22.0073C24.4106 22.1766 24.4614 22.3649 24.4614 22.5723C24.4614 22.7796 24.4106 22.9701 24.3091 23.1436C24.2118 23.3128 24.0763 23.4482 23.9028 23.5498C23.7336 23.6514 23.5452 23.7021 23.3379 23.7021ZM28.124 20.814C27.9167 20.814 27.7262 20.7632 27.5527 20.6616C27.3835 20.5601 27.248 20.4246 27.1465 20.2554C27.0449 20.0819 26.9941 19.8914 26.9941 19.6841C26.9941 19.4767 27.0449 19.2884 27.1465 19.1191C27.248 18.9456 27.3835 18.8081 27.5527 18.7065C27.7262 18.605 27.9167 18.5542 28.124 18.5542C28.3314 18.5542 28.5197 18.605 28.689 18.7065C28.8625 18.8081 29 18.9456 29.1016 19.1191C29.2031 19.2884 29.2539 19.4767 29.2539 19.6841C29.2539 19.8914 29.2031 20.0819 29.1016 20.2554C29 20.4246 28.8625 20.5601 28.689 20.6616C28.5197 20.7632 28.3314 20.814 28.124 20.814Z" fill="#03A200"/>
</g>
<path d="M43.0991 25V21.9438L40.3813 17.2495H41.896L43.7437 20.5742H43.835L45.6826 17.2495H47.1973L44.4795 21.9438V25H43.0991ZM48.3198 25V19.1294H49.6519V25H48.3198ZM48.9912 18.1465C48.7728 18.1465 48.5848 18.0695 48.4272 17.9155C48.2697 17.7616 48.1909 17.5771 48.1909 17.3623C48.1909 17.1403 48.2697 16.9541 48.4272 16.8037C48.5848 16.6497 48.7728 16.5728 48.9912 16.5728C49.2096 16.5728 49.3958 16.6497 49.5498 16.8037C49.7074 16.9541 49.7861 17.1403 49.7861 17.3623C49.7861 17.5771 49.7074 17.7616 49.5498 17.9155C49.3958 18.0695 49.2096 18.1465 48.9912 18.1465ZM53.8145 25.1182C53.2308 25.1182 52.7295 24.9946 52.3105 24.7476C51.8952 24.5005 51.5747 24.1496 51.3491 23.6948C51.1235 23.2401 51.0107 22.7012 51.0107 22.0781V22.0728C51.0107 21.4569 51.1217 20.9198 51.3438 20.4614C51.5693 20.0031 51.888 19.6486 52.2998 19.3979C52.7116 19.1437 53.195 19.0166 53.75 19.0166C54.3086 19.0166 54.7884 19.1401 55.1895 19.3872C55.5941 19.6307 55.9056 19.9727 56.124 20.4131C56.3424 20.8535 56.4517 21.3691 56.4517 21.96V22.4004H51.6821V21.5034H55.7964L55.1626 22.3413V21.8096C55.1626 21.4193 55.1035 21.0952 54.9854 20.8374C54.8672 20.5796 54.7025 20.3862 54.4912 20.2573C54.2835 20.1284 54.0418 20.064 53.7661 20.064C53.4904 20.064 53.2451 20.132 53.0303 20.2681C52.819 20.4006 52.6507 20.5975 52.5254 20.8589C52.4036 21.1167 52.3428 21.4336 52.3428 21.8096V22.3467C52.3428 22.7083 52.4036 23.0181 52.5254 23.2759C52.6471 23.5301 52.819 23.7271 53.041 23.8667C53.2666 24.0028 53.5334 24.0708 53.8413 24.0708C54.0812 24.0708 54.2871 24.0368 54.459 23.9688C54.6344 23.8971 54.7759 23.813 54.8833 23.7163C54.9907 23.616 55.0659 23.5212 55.1089 23.4316L55.125 23.394H56.3926L56.3818 23.4424C56.3353 23.6322 56.2493 23.8255 56.124 24.0225C56.0023 24.2158 55.8358 24.3966 55.6245 24.5649C55.4168 24.7297 55.1626 24.8639 54.8618 24.9678C54.561 25.068 54.2119 25.1182 53.8145 25.1182ZM57.8428 25V16.8574H59.1802V25H57.8428ZM62.9775 25.0967C62.4906 25.0967 62.0662 24.9749 61.7046 24.7314C61.3429 24.4844 61.0636 24.1335 60.8667 23.6787C60.6698 23.224 60.5713 22.6886 60.5713 22.0728V22.062C60.5713 21.439 60.668 20.9019 60.8613 20.4507C61.0583 19.9959 61.3358 19.6468 61.6938 19.4033C62.0555 19.1562 62.4834 19.0327 62.9775 19.0327C63.2461 19.0327 63.4967 19.0757 63.7295 19.1616C63.9622 19.244 64.1663 19.3621 64.3418 19.5161C64.5208 19.6701 64.6605 19.8527 64.7607 20.064H64.8574V16.8574H66.1895V25H64.8574V24.0815H64.7607C64.6533 24.2928 64.5119 24.4754 64.3364 24.6294C64.1646 24.7798 63.964 24.8962 63.7349 24.9785C63.5057 25.0573 63.2533 25.0967 62.9775 25.0967ZM63.3965 23.9688C63.7008 23.9688 63.9622 23.8936 64.1807 23.7432C64.4027 23.5892 64.5728 23.3708 64.6909 23.0879C64.8127 22.8014 64.8735 22.4631 64.8735 22.0728V22.062C64.8735 21.6681 64.8127 21.3298 64.6909 21.0469C64.5728 20.764 64.4027 20.5456 64.1807 20.3916C63.9622 20.2376 63.7008 20.1606 63.3965 20.1606C63.0957 20.1606 62.8343 20.2376 62.6123 20.3916C62.3939 20.542 62.2256 20.7604 62.1074 21.0469C61.9893 21.3298 61.9302 21.6681 61.9302 22.062V22.0728C61.9302 22.4666 61.9893 22.805 62.1074 23.0879C62.2256 23.3708 62.3939 23.5892 62.6123 23.7432C62.8307 23.8936 63.0921 23.9688 63.3965 23.9688Z" fill="black"/>
<defs>
<filter id="filter0_dd_421_2943" x="0.5" y="0" width="297" height="188" filterUnits="userSpaceOnUse" color-interpolation-filters="sRGB">
<feFlood flood-opacity="0" result="BackgroundImageFix"/>
<feColorMatrix in="SourceAlpha" type="matrix" values="0 0 0 0 0 0 0 0 0 0 0 0 0 0 0 0 0 0 127 0" result="hardAlpha"/>
<feMorphology radius="0.5" operator="dilate" in="SourceAlpha" result="effect1_dropShadow_421_2943"/>
<feOffset/>
<feComposite in2="hardAlpha" operator="out"/>
<feColorMatrix type="matrix" values="0 0 0 0 0 0 0 0 0 0 0 0 0 0 0 0 0 0 0.05 0"/>
<feBlend mode="normal" in2="BackgroundImageFix" result="effect1_dropShadow_421_2943"/>
<feColorMatrix in="SourceAlpha" type="matrix" values="0 0 0 0 0 0 0 0 0 0 0 0 0 0 0 0 0 0 127 0" result="hardAlpha"/>
<feOffset dy="0.5"/>
<feGaussianBlur stdDeviation="1.25"/>
<feComposite in2="hardAlpha" operator="out"/>
<feColorMatrix type="matrix" values="0 0 0 0 0 0 0 0 0 0 0 0 0 0 0 0 0 0 0.3 0"/>
<feBlend mode="normal" in2="effect1_dropShadow_421_2943" result="effect2_dropShadow_421_2943"/>
<feBlend mode="normal" in="SourceGraphic" in2="effect2_dropShadow_421_2943" result="shape"/>
</filter>
<filter id="filter1_dd_421_2943" x="7.5" y="7" width="28" height="28" filterUnits="userSpaceOnUse" color-interpolation-filters="sRGB">
<feFlood flood-opacity="0" result="BackgroundImageFix"/>
<feColorMatrix in="SourceAlpha" type="matrix" values="0 0 0 0 0 0 0 0 0 0 0 0 0 0 0 0 0 0 127 0" result="hardAlpha"/>
<feMorphology radius="0.5" operator="dilate" in="SourceAlpha" result="effect1_dropShadow_421_2943"/>
<feOffset/>
<feComposite in2="hardAlpha" operator="out"/>
<feColorMatrix type="matrix" values="0 0 0 0 0 0 0 0 0 0 0 0 0 0 0 0 0 0 0.05 0"/>
<feBlend mode="normal" in2="BackgroundImageFix" result="effect1_dropShadow_421_2943"/>
<feColorMatrix in="SourceAlpha" type="matrix" values="0 0 0 0 0 0 0 0 0 0 0 0 0 0 0 0 0 0 127 0" result="hardAlpha"/>
<feOffset dy="0.5"/>
<feGaussianBlur stdDeviation="1.25"/>
<feComposite in2="hardAlpha" operator="out"/>
<feColorMatrix type="matrix" values="0 0 0 0 0 0 0 0 0 0 0 0 0 0 0 0 0 0 0.3 0"/>
<feBlend mode="normal" in2="effect1_dropShadow_421_2943" result="effect2_dropShadow_421_2943"/>
<feBlend mode="normal" in="SourceGraphic" in2="effect2_dropShadow_421_2943" result="shape"/>
</filter>
</defs>
</svg>
